ISO-10303-21;
HEADER;
FILE_DESCRIPTION (( 'STEP AP203' ),
    '1' );
FILE_NAME ('683zz 베어링.STEP',
    '2024-09-26T14:20:55',
    ( '' ),
    ( '' ),
    'SwSTEP 2.0',
    'SolidWorks 2022',
    '' );
FILE_SCHEMA (( 'CONFIG_CONTROL_DESIGN' ));
ENDSEC;

DATA;
#1 = CARTESIAN_POINT ( 'NONE',  ( 0.000000000000000000, 0.000000000000000000, 0.000000000000000000 ) ) ;
#2 = APPROVAL_DATE_TIME ( #116, #23 ) ;
#3 = PERSON_AND_ORGANIZATION ( #81, #62 ) ;
#4 = VECTOR ( 'NONE', #110, 1000.000000000000000 ) ;
#5 = SECURITY_CLASSIFICATION ( '', '', #64 ) ;
#6 = PERSON_AND_ORGANIZATION ( #81, #62 ) ;
#7 = CC_DESIGN_PERSON_AND_ORGANIZATION_ASSIGNMENT ( #136, #232, ( #5 ) ) ;
#8 = ADVANCED_BREP_SHAPE_REPRESENTATION ( '683zz 베어링', ( #155, #129 ), #79 ) ;
#9 = DIRECTION ( 'NONE',  ( 0.000000000000000000, 0.000000000000000000, 1.000000000000000000 ) ) ;
#10 = ORIENTED_EDGE ( 'NONE', *, *, #171, .F. ) ;
#11 = ORIENTED_EDGE ( 'NONE', *, *, #161, .T. ) ;
#12 = UNCERTAINTY_MEASURE_WITH_UNIT (LENGTH_MEASURE( 1.000000000000000082E-05 ), #207, 'distance_accuracy_value', 'NONE');
#13 = ORIENTED_EDGE ( 'NONE', *, *, #202, .F. ) ;
#14 = VERTEX_POINT ( 'NONE', #87 ) ;
#15 = AXIS2_PLACEMENT_3D ( 'NONE', #36, #34, #164 ) ;
#16 = ADVANCED_FACE ( 'NONE', ( #162 ), #200, .F. ) ;
#17 = CC_DESIGN_SECURITY_CLASSIFICATION ( #5, ( #165 ) ) ;
#18 = FACE_BOUND ( 'NONE', #218, .T. ) ;
#19 = LINE ( 'NONE', #76, #173 ) ;
#20 = DIRECTION ( 'NONE',  ( 0.000000000000000000, 0.000000000000000000, 1.000000000000000000 ) ) ;
#21 = DIRECTION ( 'NONE',  ( 1.000000000000000000, 0.000000000000000000, 0.000000000000000000 ) ) ;
#22 = DIRECTION ( 'NONE',  ( 0.000000000000000000, 0.000000000000000000, 1.000000000000000000 ) ) ;
#23 = APPROVAL ( #193, 'UNSPECIFIED' ) ;
#24 = APPROVAL_STATUS ( 'not_yet_approved' ) ;
#25 = APPROVAL_ROLE ( '' ) ;
#26 = ADVANCED_FACE ( 'NONE', ( #103 ), #144, .F. ) ;
#27 = COORDINATED_UNIVERSAL_TIME_OFFSET ( 9, 0, .AHEAD. ) ;
#28 = AXIS2_PLACEMENT_3D ( 'NONE', #112, #111, #109 ) ;
#29 = APPROVAL_PERSON_ORGANIZATION ( #3, #224, #153 ) ;
#30 = EDGE_LOOP ( 'NONE', ( #179, #198 ) ) ;
#31 = APPLICATION_CONTEXT ( 'configuration controlled 3d designs of mechanical parts and assemblies' ) ;
#32 = EDGE_LOOP ( 'NONE', ( #70, #104, #201, #55 ) ) ;
#33 = EDGE_CURVE ( 'NONE', #242, #14, #96, .T. ) ;
#34 = DIRECTION ( 'NONE',  ( -0.000000000000000000, -0.000000000000000000, -1.000000000000000000 ) ) ;
#35 = ORIENTED_EDGE ( 'NONE', *, *, #197, .F. ) ;
#36 = CARTESIAN_POINT ( 'NONE',  ( 0.000000000000000000, 0.000000000000000000, 3.000000000000000000 ) ) ;
#37 = FACE_OUTER_BOUND ( 'NONE', #217, .T. ) ;
#38 = CIRCLE ( 'NONE', #243, 1.500000000000000222 ) ;
#39 = VECTOR ( 'NONE', #226, 1000.000000000000000 ) ;
#40 = CYLINDRICAL_SURFACE ( 'NONE', #163, 3.500000000000000000 ) ;
#41 = DIRECTION ( 'NONE',  ( 0.000000000000000000, 0.000000000000000000, 1.000000000000000000 ) ) ;
#42 = ADVANCED_FACE ( 'NONE', ( #121 ), #40, .T. ) ;
#43 = FACE_OUTER_BOUND ( 'NONE', #30, .T. ) ;
#44 = CARTESIAN_POINT ( 'NONE',  ( 0.000000000000000000, 0.000000000000000000, 0.000000000000000000 ) ) ;
#45 = CALENDAR_DATE ( 2024, 26, 9 ) ;
#46 = APPLICATION_CONTEXT ( 'configuration controlled 3d designs of mechanical parts and assemblies' ) ;
#47 = PERSON_AND_ORGANIZATION ( #81, #62 ) ;
#48 = DATE_TIME_ROLE ( 'creation_date' ) ;
#49 = CC_DESIGN_DATE_AND_TIME_ASSIGNMENT ( #77, #48, ( #233 ) ) ;
#50 = AXIS2_PLACEMENT_3D ( 'NONE', #44, #41, #21 ) ;
#51 = ORIENTED_EDGE ( 'NONE', *, *, #127, .F. ) ;
#52 = LOCAL_TIME ( 23, 20, 55.00000000000000000, #66 ) ;
#53 = DIRECTION ( 'NONE',  ( 1.000000000000000000, 0.000000000000000000, 0.000000000000000000 ) ) ;
#54 = EDGE_LOOP ( 'NONE', ( #122, #11, #35, #51 ) ) ;
#55 = ORIENTED_EDGE ( 'NONE', *, *, #246, .F. ) ;
#56 = ORIENTED_EDGE ( 'NONE', *, *, #171, .T. ) ;
#57 = DIRECTION ( 'NONE',  ( -1.000000000000000000, 0.000000000000000000, 0.000000000000000000 ) ) ;
#58 = CARTESIAN_POINT ( 'NONE',  ( 1.500000000000000222, 1.836970198721030181E-16, 3.000000000000000000 ) ) ;
#59 = DIRECTION ( 'NONE',  ( 1.000000000000000000, 0.000000000000000000, 0.000000000000000000 ) ) ;
#60 = CYLINDRICAL_SURFACE ( 'NONE', #28, 3.500000000000000000 ) ;
#61 = AXIS2_PLACEMENT_3D ( 'NONE', #105, #20, #183 ) ;
#62 = ORGANIZATION ( 'UNSPECIFIED', 'UNSPECIFIED', '' ) ;
#63 = DATE_AND_TIME ( #210, #89 ) ;
#64 = SECURITY_CLASSIFICATION_LEVEL ( 'unclassified' ) ;
#65 = DATE_AND_TIME ( #45, #141 ) ;
#66 = COORDINATED_UNIVERSAL_TIME_OFFSET ( 9, 0, .AHEAD. ) ;
#67 = DIRECTION ( 'NONE',  ( -0.000000000000000000, -0.000000000000000000, -1.000000000000000000 ) ) ;
#68 = ORIENTED_EDGE ( 'NONE', *, *, #220, .F. ) ;
#69 = DESIGN_CONTEXT ( 'detailed design', #46, 'design' ) ;
#70 = ORIENTED_EDGE ( 'NONE', *, *, #154, .F. ) ;
#71 = ORIENTED_EDGE ( 'NONE', *, *, #161, .F. ) ;
#72 = CARTESIAN_POINT ( 'NONE',  ( 3.500000000000000000, 4.286263797015736595E-16, 0.000000000000000000 ) ) ;
#73 = CARTESIAN_POINT ( 'NONE',  ( -3.500000000000000000, 0.000000000000000000, 0.000000000000000000 ) ) ;
#74 = CARTESIAN_POINT ( 'NONE',  ( 0.000000000000000000, 0.000000000000000000, 3.000000000000000000 ) ) ;
#75 = CARTESIAN_POINT ( 'NONE',  ( 0.000000000000000000, 0.000000000000000000, 0.000000000000000000 ) ) ;
#76 = CARTESIAN_POINT ( 'NONE',  ( 1.500000000000000222, 1.836970198721030181E-16, 3.000000000000000000 ) ) ;
#77 = DATE_AND_TIME ( #172, #134 ) ;
#78 = AXIS2_PLACEMENT_3D ( 'NONE', #188, #93, #94 ) ;
#79 =( GEOMETRIC_REPRESENTATION_CONTEXT ( 3 ) GLOBAL_UNCERTAINTY_ASSIGNED_CONTEXT ( ( #12 ) ) GLOBAL_UNIT_ASSIGNED_CONTEXT ( ( #207, #83, #98 ) ) REPRESENTATION_CONTEXT ( 'NONE', 'WORKASPACE' ) );
#80 = APPROVAL_DATE_TIME ( #63, #224 ) ;
#81 = PERSON ( 'UNSPECIFIED', 'UNSPECIFIED', 'UNSPECIFIED', ('UNSPECIFIED'), ('UNSPECIFIED'), ('UNSPECIFIED') ) ;
#82 = APPROVAL_ROLE ( '' ) ;
#83 =( NAMED_UNIT ( * ) PLANE_ANGLE_UNIT ( ) SI_UNIT ( $, .RADIAN. ) );
#84 = ADVANCED_FACE ( 'NONE', ( #228 ), #60, .T. ) ;
#85 = DIRECTION ( 'NONE',  ( 0.000000000000000000, 0.000000000000000000, 1.000000000000000000 ) ) ;
#86 = EDGE_LOOP ( 'NONE', ( #13, #159 ) ) ;
#87 = CARTESIAN_POINT ( 'NONE',  ( -1.500000000000000222, 0.000000000000000000, 3.000000000000000000 ) ) ;
#88 = CIRCLE ( 'NONE', #100, 3.500000000000000000 ) ;
#89 = LOCAL_TIME ( 23, 20, 55.00000000000000000, #151 ) ;
#90 = PLANE ( 'NONE',  #130 ) ;
#91 = DIRECTION ( 'NONE',  ( 0.000000000000000000, 0.000000000000000000, 1.000000000000000000 ) ) ;
#92 = DIRECTION ( 'NONE',  ( 1.000000000000000000, 0.000000000000000000, -0.000000000000000000 ) ) ;
#93 = DIRECTION ( 'NONE',  ( 0.000000000000000000, 0.000000000000000000, 1.000000000000000000 ) ) ;
#94 = DIRECTION ( 'NONE',  ( 1.000000000000000000, 0.000000000000000000, 0.000000000000000000 ) ) ;
#95 = COORDINATED_UNIVERSAL_TIME_OFFSET ( 9, 0, .AHEAD. ) ;
#96 = CIRCLE ( 'NONE', #239, 1.500000000000000222 ) ;
#97 = AXIS2_PLACEMENT_3D ( 'NONE', #146, #223, #59 ) ;
#98 =( NAMED_UNIT ( * ) SI_UNIT ( $, .STERADIAN. ) SOLID_ANGLE_UNIT ( ) );
#99 = PERSON_AND_ORGANIZATION_ROLE ( 'design_owner' ) ;
#100 = AXIS2_PLACEMENT_3D ( 'NONE', #222, #91, #133 ) ;
#101 = ORIENTED_EDGE ( 'NONE', *, *, #246, .T. ) ;
#102 = ORIENTED_EDGE ( 'NONE', *, *, #215, .T. ) ;
#103 = FACE_OUTER_BOUND ( 'NONE', #54, .T. ) ;
#104 = ORIENTED_EDGE ( 'NONE', *, *, #220, .T. ) ;
#105 = CARTESIAN_POINT ( 'NONE',  ( 0.000000000000000000, 0.000000000000000000, 3.000000000000000000 ) ) ;
#106 = AXIS2_PLACEMENT_3D ( 'NONE', #75, #205, #185 ) ;
#107 = APPROVAL_PERSON_ORGANIZATION ( #236, #23, #82 ) ;
#108 = CC_DESIGN_PERSON_AND_ORGANIZATION_ASSIGNMENT ( #6, #99, ( #120 ) ) ;
#109 = DIRECTION ( 'NONE',  ( -1.000000000000000000, 0.000000000000000000, 0.000000000000000000 ) ) ;
#110 = DIRECTION ( 'NONE',  ( -0.000000000000000000, -0.000000000000000000, -1.000000000000000000 ) ) ;
#111 = DIRECTION ( 'NONE',  ( -0.000000000000000000, -0.000000000000000000, -1.000000000000000000 ) ) ;
#112 = CARTESIAN_POINT ( 'NONE',  ( 0.000000000000000000, 0.000000000000000000, 3.000000000000000000 ) ) ;
#113 = DIRECTION ( 'NONE',  ( 1.000000000000000000, 0.000000000000000000, 0.000000000000000000 ) ) ;
#114 = PERSON_AND_ORGANIZATION ( #81, #62 ) ;
#115 = APPROVAL_DATE_TIME ( #212, #123 ) ;
#116 = DATE_AND_TIME ( #211, #195 ) ;
#117 = VECTOR ( 'NONE', #168, 1000.000000000000000 ) ;
#118 = CC_DESIGN_APPROVAL ( #123, ( #5 ) ) ;
#119 = ORIENTED_EDGE ( 'NONE', *, *, #241, .F. ) ;
#120 = PRODUCT ( '683zz 베어링', '683zz 베어링', '', ( #156 ) ) ;
#121 = FACE_OUTER_BOUND ( 'NONE', #178, .T. ) ;
#122 = ORIENTED_EDGE ( 'NONE', *, *, #202, .T. ) ;
#123 = APPROVAL ( #190, 'UNSPECIFIED' ) ;
#124 = ORIENTED_EDGE ( 'NONE', *, *, #33, .T. ) ;
#125 = ORIENTED_EDGE ( 'NONE', *, *, #197, .T. ) ;
#126 = CARTESIAN_POINT ( 'NONE',  ( -3.500000000000000000, 0.000000000000000000, 3.000000000000000000 ) ) ;
#127 = EDGE_CURVE ( 'NONE', #14, #219, #166, .T. ) ;
#128 = PLANE ( 'NONE',  #61 ) ;
#129 = AXIS2_PLACEMENT_3D ( 'NONE', #175, #9, #113 ) ;
#130 = AXIS2_PLACEMENT_3D ( 'NONE', #147, #225, #92 ) ;
#131 = LINE ( 'NONE', #148, #39 ) ;
#132 = EDGE_CURVE ( 'NONE', #181, #240, #152, .T. ) ;
#133 = DIRECTION ( 'NONE',  ( 1.000000000000000000, 0.000000000000000000, 0.000000000000000000 ) ) ;
#134 = LOCAL_TIME ( 23, 20, 55.00000000000000000, #95 ) ;
#135 = PERSON_AND_ORGANIZATION_ROLE ( 'creator' ) ;
#136 = PERSON_AND_ORGANIZATION ( #81, #62 ) ;
#137 = CC_DESIGN_PERSON_AND_ORGANIZATION_ASSIGNMENT ( #114, #135, ( #165 ) ) ;
#138 = DATE_TIME_ROLE ( 'classification_date' ) ;
#139 = CALENDAR_DATE ( 2024, 26, 9 ) ;
#140 = CARTESIAN_POINT ( 'NONE',  ( 0.000000000000000000, 0.000000000000000000, 3.000000000000000000 ) ) ;
#141 = LOCAL_TIME ( 23, 20, 55.00000000000000000, #209 ) ;
#142 = PRODUCT_DEFINITION_SHAPE ( 'NONE', 'NONE',  #233 ) ;
#143 = ORIENTED_EDGE ( 'NONE', *, *, #241, .T. ) ;
#144 = CYLINDRICAL_SURFACE ( 'NONE', #204, 1.500000000000000222 ) ;
#145 = DIRECTION ( 'NONE',  ( -0.000000000000000000, -0.000000000000000000, -1.000000000000000000 ) ) ;
#146 = CARTESIAN_POINT ( 'NONE',  ( 0.000000000000000000, 0.000000000000000000, 3.000000000000000000 ) ) ;
#147 = CARTESIAN_POINT ( 'NONE',  ( 0.000000000000000000, 0.000000000000000000, 0.000000000000000000 ) ) ;
#148 = CARTESIAN_POINT ( 'NONE',  ( -3.500000000000000000, 0.000000000000000000, 3.000000000000000000 ) ) ;
#149 = PRODUCT_RELATED_PRODUCT_CATEGORY ( 'detail', '', ( #120 ) ) ;
#150 = DIRECTION ( 'NONE',  ( 0.000000000000000000, 0.000000000000000000, 1.000000000000000000 ) ) ;
#151 = COORDINATED_UNIVERSAL_TIME_OFFSET ( 9, 0, .AHEAD. ) ;
#152 = CIRCLE ( 'NONE', #182, 3.500000000000000000 ) ;
#153 = APPROVAL_ROLE ( '' ) ;
#154 = EDGE_CURVE ( 'NONE', #238, #199, #88, .T. ) ;
#155 = MANIFOLD_SOLID_BREP ( '보스-돌출1', #235 ) ;
#156 = MECHANICAL_CONTEXT ( 'NONE', #31, 'mechanical' ) ;
#157 = PERSON_AND_ORGANIZATION_ROLE ( 'creator' ) ;
#158 = APPLICATION_PROTOCOL_DEFINITION ( 'international standard', 'config_control_design', 1994, #46 ) ;
#159 = ORIENTED_EDGE ( 'NONE', *, *, #33, .F. ) ;
#160 = ORIENTED_EDGE ( 'NONE', *, *, #154, .T. ) ;
#161 = EDGE_CURVE ( 'NONE', #242, #177, #19, .T. ) ;
#162 = FACE_OUTER_BOUND ( 'NONE', #196, .T. ) ;
#163 = AXIS2_PLACEMENT_3D ( 'NONE', #206, #187, #57 ) ;
#164 = DIRECTION ( 'NONE',  ( -1.000000000000000000, 0.000000000000000000, 0.000000000000000000 ) ) ;
#165 = PRODUCT_DEFINITION_FORMATION_WITH_SPECIFIED_SOURCE ( 'ANY', '', #120, .NOT_KNOWN. ) ;
#166 = LINE ( 'NONE', #170, #117 ) ;
#167 = DIRECTION ( 'NONE',  ( 1.000000000000000000, 0.000000000000000000, 0.000000000000000000 ) ) ;
#168 = DIRECTION ( 'NONE',  ( -0.000000000000000000, -0.000000000000000000, -1.000000000000000000 ) ) ;
#169 = CC_DESIGN_PERSON_AND_ORGANIZATION_ASSIGNMENT ( #234, #157, ( #233 ) ) ;
#170 = CARTESIAN_POINT ( 'NONE',  ( -1.500000000000000222, 0.000000000000000000, 3.000000000000000000 ) ) ;
#171 = EDGE_CURVE ( 'NONE', #177, #219, #229, .T. ) ;
#172 = CALENDAR_DATE ( 2024, 26, 9 ) ;
#173 = VECTOR ( 'NONE', #145, 1000.000000000000000 ) ;
#174 = CIRCLE ( 'NONE', #97, 3.500000000000000000 ) ;
#175 = CARTESIAN_POINT ( 'NONE',  ( 0.000000000000000000, 0.000000000000000000, 0.000000000000000000 ) ) ;
#176 = DIRECTION ( 'NONE',  ( -1.000000000000000000, 0.000000000000000000, 0.000000000000000000 ) ) ;
#177 = VERTEX_POINT ( 'NONE', #208 ) ;
#178 = EDGE_LOOP ( 'NONE', ( #68, #119, #101, #102 ) ) ;
#179 = ORIENTED_EDGE ( 'NONE', *, *, #215, .F. ) ;
#180 = CC_DESIGN_DATE_AND_TIME_ASSIGNMENT ( #65, #138, ( #5 ) ) ;
#181 = VERTEX_POINT ( 'NONE', #72 ) ;
#182 = AXIS2_PLACEMENT_3D ( 'NONE', #1, #22, #249 ) ;
#183 = DIRECTION ( 'NONE',  ( 1.000000000000000000, 0.000000000000000000, -0.000000000000000000 ) ) ;
#184 = CC_DESIGN_APPROVAL ( #224, ( #165 ) ) ;
#185 = DIRECTION ( 'NONE',  ( 1.000000000000000000, 0.000000000000000000, 0.000000000000000000 ) ) ;
#186 = FACE_BOUND ( 'NONE', #86, .T. ) ;
#187 = DIRECTION ( 'NONE',  ( -0.000000000000000000, -0.000000000000000000, -1.000000000000000000 ) ) ;
#188 = CARTESIAN_POINT ( 'NONE',  ( 0.000000000000000000, 0.000000000000000000, 0.000000000000000000 ) ) ;
#189 = PERSON_AND_ORGANIZATION_ROLE ( 'design_supplier' ) ;
#190 = APPROVAL_STATUS ( 'not_yet_approved' ) ;
#191 = SHAPE_DEFINITION_REPRESENTATION ( #142, #8 ) ;
#192 = CC_DESIGN_PERSON_AND_ORGANIZATION_ASSIGNMENT ( #231, #189, ( #165 ) ) ;
#193 = APPROVAL_STATUS ( 'not_yet_approved' ) ;
#194 = CIRCLE ( 'NONE', #78, 1.500000000000000222 ) ;
#195 = LOCAL_TIME ( 23, 20, 55.00000000000000000, #27 ) ;
#196 = EDGE_LOOP ( 'NONE', ( #71, #124, #214, #10 ) ) ;
#197 = EDGE_CURVE ( 'NONE', #219, #177, #194, .T. ) ;
#198 = ORIENTED_EDGE ( 'NONE', *, *, #132, .F. ) ;
#199 = VERTEX_POINT ( 'NONE', #126 ) ;
#200 = CYLINDRICAL_SURFACE ( 'NONE', #15, 1.500000000000000222 ) ;
#201 = ORIENTED_EDGE ( 'NONE', *, *, #132, .T. ) ;
#202 = EDGE_CURVE ( 'NONE', #14, #242, #38, .T. ) ;
#203 = LINE ( 'NONE', #248, #4 ) ;
#204 = AXIS2_PLACEMENT_3D ( 'NONE', #221, #67, #176 ) ;
#205 = DIRECTION ( 'NONE',  ( 0.000000000000000000, 0.000000000000000000, 1.000000000000000000 ) ) ;
#206 = CARTESIAN_POINT ( 'NONE',  ( 0.000000000000000000, 0.000000000000000000, 3.000000000000000000 ) ) ;
#207 =( LENGTH_UNIT ( ) NAMED_UNIT ( * ) SI_UNIT ( .MILLI., .METRE. ) );
#208 = CARTESIAN_POINT ( 'NONE',  ( 1.500000000000000222, 1.836970198721030181E-16, 0.000000000000000000 ) ) ;
#209 = COORDINATED_UNIVERSAL_TIME_OFFSET ( 9, 0, .AHEAD. ) ;
#210 = CALENDAR_DATE ( 2024, 26, 9 ) ;
#211 = CALENDAR_DATE ( 2024, 26, 9 ) ;
#212 = DATE_AND_TIME ( #139, #52 ) ;
#213 = APPLICATION_PROTOCOL_DEFINITION ( 'international standard', 'config_control_design', 1994, #31 ) ;
#214 = ORIENTED_EDGE ( 'NONE', *, *, #127, .T. ) ;
#215 = EDGE_CURVE ( 'NONE', #240, #181, #216, .T. ) ;
#216 = CIRCLE ( 'NONE', #106, 3.500000000000000000 ) ;
#217 = EDGE_LOOP ( 'NONE', ( #143, #160 ) ) ;
#218 = EDGE_LOOP ( 'NONE', ( #125, #56 ) ) ;
#219 = VERTEX_POINT ( 'NONE', #245 ) ;
#220 = EDGE_CURVE ( 'NONE', #238, #181, #203, .T. ) ;
#221 = CARTESIAN_POINT ( 'NONE',  ( 0.000000000000000000, 0.000000000000000000, 3.000000000000000000 ) ) ;
#222 = CARTESIAN_POINT ( 'NONE',  ( 0.000000000000000000, 0.000000000000000000, 3.000000000000000000 ) ) ;
#223 = DIRECTION ( 'NONE',  ( 0.000000000000000000, 0.000000000000000000, 1.000000000000000000 ) ) ;
#224 = APPROVAL ( #24, 'UNSPECIFIED' ) ;
#225 = DIRECTION ( 'NONE',  ( 0.000000000000000000, 0.000000000000000000, 1.000000000000000000 ) ) ;
#226 = DIRECTION ( 'NONE',  ( -0.000000000000000000, -0.000000000000000000, -1.000000000000000000 ) ) ;
#227 = ADVANCED_FACE ( 'NONE', ( #37, #186 ), #128, .T. ) ;
#228 = FACE_OUTER_BOUND ( 'NONE', #32, .T. ) ;
#229 = CIRCLE ( 'NONE', #50, 1.500000000000000222 ) ;
#230 = APPROVAL_PERSON_ORGANIZATION ( #47, #123, #25 ) ;
#231 = PERSON_AND_ORGANIZATION ( #81, #62 ) ;
#232 = PERSON_AND_ORGANIZATION_ROLE ( 'classification_officer' ) ;
#233 = PRODUCT_DEFINITION ( 'UNKNOWN', '', #165, #69 ) ;
#234 = PERSON_AND_ORGANIZATION ( #81, #62 ) ;
#235 = CLOSED_SHELL ( 'NONE', ( #26, #84, #227, #237, #42, #16 ) ) ;
#236 = PERSON_AND_ORGANIZATION ( #81, #62 ) ;
#237 = ADVANCED_FACE ( 'NONE', ( #43, #18 ), #90, .F. ) ;
#238 = VERTEX_POINT ( 'NONE', #247 ) ;
#239 = AXIS2_PLACEMENT_3D ( 'NONE', #140, #85, #53 ) ;
#240 = VERTEX_POINT ( 'NONE', #73 ) ;
#241 = EDGE_CURVE ( 'NONE', #199, #238, #174, .T. ) ;
#242 = VERTEX_POINT ( 'NONE', #58 ) ;
#243 = AXIS2_PLACEMENT_3D ( 'NONE', #74, #150, #167 ) ;
#244 = CC_DESIGN_APPROVAL ( #23, ( #233 ) ) ;
#245 = CARTESIAN_POINT ( 'NONE',  ( -1.500000000000000222, 0.000000000000000000, 0.000000000000000000 ) ) ;
#246 = EDGE_CURVE ( 'NONE', #199, #240, #131, .T. ) ;
#247 = CARTESIAN_POINT ( 'NONE',  ( 3.500000000000000000, 4.286263797015736595E-16, 3.000000000000000000 ) ) ;
#248 = CARTESIAN_POINT ( 'NONE',  ( 3.500000000000000000, 4.286263797015736595E-16, 3.000000000000000000 ) ) ;
#249 = DIRECTION ( 'NONE',  ( 1.000000000000000000, 0.000000000000000000, 0.000000000000000000 ) ) ;
ENDSEC;
END-ISO-10303-21;
