ISO-10303-21;
HEADER;
FILE_DESCRIPTION (( 'STEP AP214' ),
    '1' );
FILE_NAME ('가이드.STEP',
    '2024-12-25T15:30:17',
    ( '' ),
    ( '' ),
    'SwSTEP 2.0',
    'SolidWorks 2022',
    '' );
FILE_SCHEMA (( 'AUTOMOTIVE_DESIGN' ));
ENDSEC;

DATA;
#1 = CARTESIAN_POINT ( 'NONE',  ( 3.464101615137754830, 2.000000000000001776, 2.000000000000000000 ) ) ;
#2 = VECTOR ( 'NONE', #1031, 1000.000000000000114 ) ;
#3 = CARTESIAN_POINT ( 'NONE',  ( 9.959292143521036422, 5.750000000000036415, 6.000000000000000000 ) ) ;
#4 = AXIS2_PLACEMENT_3D ( 'NONE', #469, #110, #275 ) ;
#5 = DIRECTION ( 'NONE',  ( -0.4999999999999951705, -0.8660254037844413721, 0.000000000000000000 ) ) ;
#6 = VECTOR ( 'NONE', #67, 1000.000000000000000 ) ;
#7 = ORIENTED_EDGE ( 'NONE', *, *, #993, .T. ) ;
#8 = ORIENTED_EDGE ( 'NONE', *, *, #1225, .T. ) ;
#9 = CARTESIAN_POINT ( 'NONE',  ( -2.500000000000000000, 3.061616997868383141E-16, 0.000000000000000000 ) ) ;
#10 = EDGE_CURVE ( 'NONE', #807, #167, #22, .T. ) ;
#11 = FACE_OUTER_BOUND ( 'NONE', #759, .T. ) ;
#12 = LINE ( 'NONE', #390, #1204 ) ;
#13 = CARTESIAN_POINT ( 'NONE',  ( -9.959292143521038199, 5.750000000000013323, 6.000000000000000000 ) ) ;
#14 = ORIENTED_EDGE ( 'NONE', *, *, #1075, .T. ) ;
#15 = CYLINDRICAL_SURFACE ( 'NONE', #1097, 1.500000000000001332 ) ;
#16 = ORIENTED_EDGE ( 'NONE', *, *, #1187, .F. ) ;
#17 = DIRECTION ( 'NONE',  ( -0.000000000000000000, -0.000000000000000000, 1.000000000000000000 ) ) ;
#18 = VERTEX_POINT ( 'NONE', #900 ) ;
#19 = ORIENTED_EDGE ( 'NONE', *, *, #841, .F. ) ;
#20 = LINE ( 'NONE', #991, #433 ) ;
#21 = AXIS2_PLACEMENT_3D ( 'NONE', #691, #127, #413 ) ;
#22 = LINE ( 'NONE', #668, #419 ) ;
#23 = CIRCLE ( 'NONE', #738, 2.500000000000000000 ) ;
#24 = CARTESIAN_POINT ( 'NONE',  ( 12.95929214352099734, 7.482050807568938922, 0.000000000000000000 ) ) ;
#25 = VERTEX_POINT ( 'NONE', #1177 ) ;
#26 = EDGE_CURVE ( 'NONE', #513, #245, #572, .T. ) ;
#27 = EDGE_CURVE ( 'NONE', #866, #664, #191, .T. ) ;
#28 = ADVANCED_FACE ( 'NONE', ( #474 ), #692, .F. ) ;
#29 = ORIENTED_EDGE ( 'NONE', *, *, #516, .F. ) ;
#30 = FACE_OUTER_BOUND ( 'NONE', #439, .T. ) ;
#31 = DIRECTION ( 'NONE',  ( -0.000000000000000000, -0.000000000000000000, 1.000000000000000000 ) ) ;
#32 = ORIENTED_EDGE ( 'NONE', *, *, #118, .F. ) ;
#33 = DIRECTION ( 'NONE',  ( 0.8660254037844431485, -0.4999999999999921729, 0.000000000000000000 ) ) ;
#34 = ADVANCED_FACE ( 'NONE', ( #972 ), #1169, .F. ) ;
#35 = PRODUCT_DEFINITION_SHAPE ( 'NONE', 'NONE',  #1250 ) ;
#36 = CARTESIAN_POINT ( 'NONE',  ( -3.464101615137755275, 2.000000000000000000, 6.000000000000000000 ) ) ;
#37 = ORIENTED_EDGE ( 'NONE', *, *, #795, .T. ) ;
#38 = FACE_OUTER_BOUND ( 'NONE', #1044, .T. ) ;
#39 = AXIS2_PLACEMENT_3D ( 'NONE', #3, #783, #1182 ) ;
#40 = EDGE_CURVE ( 'NONE', #645, #1161, #580, .T. ) ;
#41 = COLOUR_RGB ( '',0.7921568627450980005, 0.8196078431372548767, 0.9333333333333333481 ) ;
#42 = VERTEX_POINT ( 'NONE', #999 ) ;
#43 = CARTESIAN_POINT ( 'NONE',  ( -3.479646071760618131, -6.026923788646930902, 0.000000000000000000 ) ) ;
#44 = LINE ( 'NONE', #119, #183 ) ;
#45 = ORIENTED_EDGE ( 'NONE', *, *, #1236, .F. ) ;
#46 = AXIS2_PLACEMENT_3D ( 'NONE', #236, #1237, #1028 ) ;
#47 = DIRECTION ( 'NONE',  ( -1.000000000000000000, 0.000000000000000000, 0.000000000000000000 ) ) ;
#48 = EDGE_CURVE ( 'NONE', #576, #134, #800, .T. ) ;
#49 = ORIENTED_EDGE ( 'NONE', *, *, #168, .F. ) ;
#50 = CARTESIAN_POINT ( 'NONE',  ( 2.999999999999735767, 9.765044891791392398E-15, 3.000000000000000000 ) ) ;
#51 = CARTESIAN_POINT ( 'NONE',  ( 3.464101615137754830, 2.000000000000001776, 2.000000000000000000 ) ) ;
#52 = ORIENTED_EDGE ( 'NONE', *, *, #431, .T. ) ;
#53 = EDGE_CURVE ( 'NONE', #440, #1123, #1263, .T. ) ;
#54 = CARTESIAN_POINT ( 'NONE',  ( 9.959292143521061291, 2.285898384862307342, 0.000000000000000000 ) ) ;
#55 = CARTESIAN_POINT ( 'NONE',  ( -12.95929214352099912, -9.085502429038613967E-14, 3.000000000000000000 ) ) ;
#56 = ORIENTED_EDGE ( 'NONE', *, *, #452, .T. ) ;
#57 = CARTESIAN_POINT ( 'NONE',  ( -2.309401076758504257, -4.000000000000000000, 6.000000000000000000 ) ) ;
#58 = DIRECTION ( 'NONE',  ( -0.000000000000000000, -0.000000000000000000, 1.000000000000000000 ) ) ;
#59 = VERTEX_POINT ( 'NONE', #679 ) ;
#60 = EDGE_CURVE ( 'NONE', #689, #333, #987, .T. ) ;
#61 = LINE ( 'NONE', #233, #715 ) ;
#62 = ADVANCED_FACE ( 'NONE', ( #980 ), #374, .F. ) ;
#63 = CIRCLE ( 'NONE', #445, 1.499999999999999556 ) ;
#64 = VECTOR ( 'NONE', #1172, 1000.000000000000000 ) ;
#65 = CARTESIAN_POINT ( 'NONE',  ( 0.000000000000000000, 0.000000000000000000, 3.000000000000000000 ) ) ;
#66 = EDGE_LOOP ( 'NONE', ( #495, #1037, #502, #268, #1159, #1083 ) ) ;
#67 = DIRECTION ( 'NONE',  ( 3.255014963930527373E-15, -1.000000000000000000, 0.000000000000000000 ) ) ;
#68 = LINE ( 'NONE', #451, #507 ) ;
#69 = PLANE ( 'NONE',  #144 ) ;
#70 = PRODUCT_DEFINITION_FORMATION_WITH_SPECIFIED_SOURCE ( 'ANY', '', #393, .NOT_KNOWN. ) ;
#71 = ORIENTED_EDGE ( 'NONE', *, *, #846, .F. ) ;
#72 = LINE ( 'NONE', #653, #1006 ) ;
#73 = VERTEX_POINT ( 'NONE', #879 ) ;
#74 = FACE_OUTER_BOUND ( 'NONE', #397, .T. ) ;
#75 = DIRECTION ( 'NONE',  ( 0.8660254037844384856, 0.5000000000000004441, 0.000000000000000000 ) ) ;
#76 = EDGE_CURVE ( 'NONE', #1179, #463, #793, .T. ) ;
#77 = VERTEX_POINT ( 'NONE', #887 ) ;
#78 = AXIS2_PLACEMENT_3D ( 'NONE', #1103, #216, #1007 ) ;
#79 = FACE_OUTER_BOUND ( 'NONE', #722, .T. ) ;
#80 = CARTESIAN_POINT ( 'NONE',  ( -3.479646071760559511, 6.026923788646686653, 0.000000000000000000 ) ) ;
#81 = EDGE_LOOP ( 'NONE', ( #336, #640 ) ) ;
#82 = ORIENTED_EDGE ( 'NONE', *, *, #1082, .F. ) ;
#83 = CARTESIAN_POINT ( 'NONE',  ( 1.500000000000039080, -2.598076211353334219, 0.000000000000000000 ) ) ;
#84 = CIRCLE ( 'NONE', #698, 1.500000000000000000 ) ;
#85 = FACE_OUTER_BOUND ( 'NONE', #1185, .T. ) ;
#86 = ORIENTED_EDGE ( 'NONE', *, *, #659, .F. ) ;
#87 = CARTESIAN_POINT ( 'NONE',  ( 2.999999999999735767, 9.765044891791392398E-15, 0.000000000000000000 ) ) ;
#88 = LINE ( 'NONE', #349, #111 ) ;
#89 = EDGE_CURVE ( 'NONE', #522, #701, #12, .T. ) ;
#90 = ORIENTED_EDGE ( 'NONE', *, *, #1089, .F. ) ;
#91 = FACE_OUTER_BOUND ( 'NONE', #471, .T. ) ;
#92 = LINE ( 'NONE', #766, #220 ) ;
#93 = AXIS2_PLACEMENT_3D ( 'NONE', #1099, #212, #791 ) ;
#94 = DIRECTION ( 'NONE',  ( -0.8660254037844394848, 0.4999999999999985012, 0.000000000000000000 ) ) ;
#95 = CARTESIAN_POINT ( 'NONE',  ( -6.479646071760586601, 11.22307621135331779, 0.000000000000000000 ) ) ;
#96 = CARTESIAN_POINT ( 'NONE',  ( 0.000000000000000000, 0.000000000000000000, 3.000000000000000000 ) ) ;
#97 = ORIENTED_EDGE ( 'NONE', *, *, #136, .T. ) ;
#98 = LINE ( 'NONE', #198, #778 ) ;
#99 = DIRECTION ( 'NONE',  ( -0.000000000000000000, -0.000000000000000000, 1.000000000000000000 ) ) ;
#100 = FACE_OUTER_BOUND ( 'NONE', #1081, .T. ) ;
#101 = AXIS2_PLACEMENT_3D ( 'NONE', #600, #114, #500 ) ;
#102 = ADVANCED_FACE ( 'NONE', ( #295 ), #1189, .F. ) ;
#103 = AXIS2_PLACEMENT_3D ( 'NONE', #504, #396, #714 ) ;
#104 = ORIENTED_EDGE ( 'NONE', *, *, #1170, .T. ) ;
#105 = FILL_AREA_STYLE_COLOUR ( '', #41 ) ;
#106 = CARTESIAN_POINT ( 'NONE',  ( 1.408343819019455979E-15, -11.50000000000000000, 0.000000000000000000 ) ) ;
#107 = AXIS2_PLACEMENT_3D ( 'NONE', #96, #263, #1163 ) ;
#108 = CARTESIAN_POINT ( 'NONE',  ( 2.999999999999767741, -9.767949192431238714, 0.000000000000000000 ) ) ;
#109 = CIRCLE ( 'NONE', #446, 1.499999999999999556 ) ;
#110 = DIRECTION ( 'NONE',  ( -1.877893248421449036E-16, -1.000000000000000000, 0.000000000000000000 ) ) ;
#111 = VECTOR ( 'NONE', #1052, 1000.000000000000114 ) ;
#112 = ORIENTED_EDGE ( 'NONE', *, *, #27, .T. ) ;
#113 = FACE_OUTER_BOUND ( 'NONE', #444, .T. ) ;
#114 = DIRECTION ( 'NONE',  ( 0.4999999999999949485, 0.8660254037844415942, 0.000000000000000000 ) ) ;
#115 = EDGE_LOOP ( 'NONE', ( #1016, #1192, #1151, #1013, #549, #541 ) ) ;
#116 = PLANE ( 'NONE',  #911 ) ;
#117 = CARTESIAN_POINT ( 'NONE',  ( 3.479646071760495563, 6.026923788646720404, 0.000000000000000000 ) ) ;
#118 = EDGE_CURVE ( 'NONE', #1120, #59, #505, .T. ) ;
#119 = CARTESIAN_POINT ( 'NONE',  ( 3.479646071760495563, 6.026923788646720404, 3.000000000000000000 ) ) ;
#120 = ORIENTED_EDGE ( 'NONE', *, *, #605, .F. ) ;
#121 = VERTEX_POINT ( 'NONE', #398 ) ;
#122 = CYLINDRICAL_SURFACE ( 'NONE', #802, 1.499999999999999556 ) ;
#123 = VECTOR ( 'NONE', #382, 1000.000000000000000 ) ;
#124 = LINE ( 'NONE', #43, #735 ) ;
#125 = VECTOR ( 'NONE', #1184, 1000.000000000000000 ) ;
#126 = ORIENTED_EDGE ( 'NONE', *, *, #993, .F. ) ;
#127 = DIRECTION ( 'NONE',  ( 0.000000000000000000, 0.000000000000000000, 1.000000000000000000 ) ) ;
#128 = ADVANCED_FACE ( 'NONE', ( #794 ), #511, .F. ) ;
#129 = EDGE_LOOP ( 'NONE', ( #412, #619, #744, #948 ) ) ;
#130 = LINE ( 'NONE', #51, #352 ) ;
#131 = ORIENTED_EDGE ( 'NONE', *, *, #53, .F. ) ;
#132 = CARTESIAN_POINT ( 'NONE',  ( 9.959292143521036422, 5.750000000000036415, 0.000000000000000000 ) ) ;
#133 = FACE_OUTER_BOUND ( 'NONE', #1234, .T. ) ;
#134 = VERTEX_POINT ( 'NONE', #1009 ) ;
#135 = CYLINDRICAL_SURFACE ( 'NONE', #1041, 16.50000000000000000 ) ;
#136 = EDGE_CURVE ( 'NONE', #645, #408, #124, .T. ) ;
#137 = VECTOR ( 'NONE', #1146, 999.9999999999998863 ) ;
#138 = ORIENTED_EDGE ( 'NONE', *, *, #441, .F. ) ;
#139 = FACE_OUTER_BOUND ( 'NONE', #982, .T. ) ;
#140 = DIRECTION ( 'NONE',  ( -0.000000000000000000, 0.000000000000000000, 1.000000000000000000 ) ) ;
#141 = EDGE_CURVE ( 'NONE', #727, #832, #1215, .T. ) ;
#142 = CARTESIAN_POINT ( 'NONE',  ( 0.000000000000000000, 0.000000000000000000, 0.000000000000000000 ) ) ;
#143 = ORIENTED_EDGE ( 'NONE', *, *, #974, .T. ) ;
#144 = AXIS2_PLACEMENT_3D ( 'NONE', #953, #1240, #971 ) ;
#145 = DIRECTION ( 'NONE',  ( 0.000000000000000000, 1.000000000000000000, 0.000000000000000000 ) ) ;
#146 = PLANE ( 'NONE',  #318 ) ;
#147 = CARTESIAN_POINT ( 'NONE',  ( -8.459292143521038199, 5.750000000000013323, 3.000000000000000000 ) ) ;
#148 = ORIENTED_EDGE ( 'NONE', *, *, #795, .F. ) ;
#149 = LINE ( 'NONE', #825, #492 ) ;
#150 = ORIENTED_EDGE ( 'NONE', *, *, #588, .F. ) ;
#151 = VERTEX_POINT ( 'NONE', #410 ) ;
#152 = CARTESIAN_POINT ( 'NONE',  ( -2.999999999999752198, -13.23205080756878083, 0.000000000000000000 ) ) ;
#153 = ADVANCED_FACE ( 'NONE', ( #1200, #705, #844, #311, #231 ), #1127, .F. ) ;
#154 = EDGE_CURVE ( 'NONE', #408, #42, #68, .T. ) ;
#155 = ORIENTED_EDGE ( 'NONE', *, *, #765, .T. ) ;
#156 = DIRECTION ( 'NONE',  ( -1.000000000000000000, -7.010801460773389748E-15, 0.000000000000000000 ) ) ;
#157 = DIRECTION ( 'NONE',  ( -0.000000000000000000, 0.000000000000000000, 1.000000000000000000 ) ) ;
#158 = VECTOR ( 'NONE', #1253, 1000.000000000000000 ) ;
#159 = VERTEX_POINT ( 'NONE', #709 ) ;
#160 = CARTESIAN_POINT ( 'NONE',  ( -16.50000000000000000, 0.000000000000000000, 6.000000000000000000 ) ) ;
#161 = CIRCLE ( 'NONE', #880, 2.500000000000000000 ) ;
#162 = EDGE_CURVE ( 'NONE', #854, #664, #606, .T. ) ;
#163 = CYLINDRICAL_SURFACE ( 'NONE', #754, 2.500000000000000000 ) ;
#164 = VECTOR ( 'NONE', #481, 1000.000000000000000 ) ;
#165 = VERTEX_POINT ( 'NONE', #725 ) ;
#166 = DIRECTION ( 'NONE',  ( -0.000000000000000000, -0.000000000000000000, 1.000000000000000000 ) ) ;
#167 = VERTEX_POINT ( 'NONE', #1101 ) ;
#168 = EDGE_CURVE ( 'NONE', #727, #440, #810, .T. ) ;
#169 = LINE ( 'NONE', #562, #1242 ) ;
#170 = LINE ( 'NONE', #350, #943 ) ;
#171 = ORIENTED_EDGE ( 'NONE', *, *, #605, .T. ) ;
#172 = CARTESIAN_POINT ( 'NONE',  ( -9.959292143521004448, 2.285898384862254940, 0.000000000000000000 ) ) ;
#173 = CARTESIAN_POINT ( 'NONE',  ( 9.959292143521061291, 2.285898384862307342, 3.000000000000000000 ) ) ;
#174 = ADVANCED_FACE ( 'NONE', ( #307 ), #817, .F. ) ;
#175 = CARTESIAN_POINT ( 'NONE',  ( 0.000000000000000000, 0.000000000000000000, 6.000000000000000000 ) ) ;
#176 = ORIENTED_EDGE ( 'NONE', *, *, #1046, .F. ) ;
#177 = EDGE_CURVE ( 'NONE', #867, #866, #130, .T. ) ;
#178 = AXIS2_PLACEMENT_3D ( 'NONE', #536, #733, #523 ) ;
#179 = LINE ( 'NONE', #1080, #716 ) ;
#180 = CARTESIAN_POINT ( 'NONE',  ( 2.999999999999767741, -9.767949192431238714, 0.000000000000000000 ) ) ;
#181 = VERTEX_POINT ( 'NONE', #225 ) ;
#182 = DIRECTION ( 'NONE',  ( 1.000000000000000000, 0.000000000000000000, -0.000000000000000000 ) ) ;
#183 = VECTOR ( 'NONE', #1217, 999.9999999999998863 ) ;
#184 = DIRECTION ( 'NONE',  ( 1.000000000000000000, 0.000000000000000000, 0.000000000000000000 ) ) ;
#185 = CARTESIAN_POINT ( 'NONE',  ( 2.309401076758502924, 4.000000000000000888, 2.000000000000000000 ) ) ;
#186 = FACE_OUTER_BOUND ( 'NONE', #992, .T. ) ;
#187 = CARTESIAN_POINT ( 'NONE',  ( -2.999999999999789502, -9.767949192431283123, 0.000000000000000000 ) ) ;
#188 = EDGE_LOOP ( 'NONE', ( #274, #1129, #912, #271 ) ) ;
#189 = SURFACE_STYLE_USAGE ( .BOTH. , #868 ) ;
#190 = CARTESIAN_POINT ( 'NONE',  ( 4.618802153517007625, 2.602085213965210642E-15, 2.000000000000000000 ) ) ;
#191 = LINE ( 'NONE', #185, #123 ) ;
#192 = EDGE_CURVE ( 'NONE', #313, #632, #913, .T. ) ;
#193 =( GEOMETRIC_REPRESENTATION_CONTEXT ( 3 ) GLOBAL_UNCERTAINTY_ASSIGNED_CONTEXT ( ( #1096 ) ) GLOBAL_UNIT_ASSIGNED_CONTEXT ( ( #920, #596, #303 ) ) REPRESENTATION_CONTEXT ( 'NONE', 'WORKASPACE' ) );
#194 = CARTESIAN_POINT ( 'NONE',  ( -11.45929214352103820, 5.750000000000013323, 3.000000000000000000 ) ) ;
#195 = ORIENTED_EDGE ( 'NONE', *, *, #1063, .T. ) ;
#196 = ORIENTED_EDGE ( 'NONE', *, *, #952, .T. ) ;
#197 = DIRECTION ( 'NONE',  ( -0.000000000000000000, -0.000000000000000000, 1.000000000000000000 ) ) ;
#198 = CARTESIAN_POINT ( 'NONE',  ( -12.95929214352102754, 4.017949192431110816, 0.000000000000000000 ) ) ;
#199 = VERTEX_POINT ( 'NONE', #147 ) ;
#200 = FACE_OUTER_BOUND ( 'NONE', #860, .T. ) ;
#201 = VECTOR ( 'NONE', #371, 1000.000000000000114 ) ;
#202 = VERTEX_POINT ( 'NONE', #1004 ) ;
#203 = CARTESIAN_POINT ( 'NONE',  ( 0.000000000000000000, 4.000000000000000888, 2.000000000000000000 ) ) ;
#204 = CIRCLE ( 'NONE', #356, 16.50000000000000000 ) ;
#205 = CARTESIAN_POINT ( 'NONE',  ( -9.959292143521038199, 5.750000000000013323, 0.000000000000000000 ) ) ;
#206 = PLANE ( 'NONE',  #4 ) ;
#207 = VERTEX_POINT ( 'NONE', #530 ) ;
#208 = CYLINDRICAL_SURFACE ( 'NONE', #538, 1.500000000000001332 ) ;
#209 = EDGE_CURVE ( 'NONE', #1143, #690, #290, .T. ) ;
#210 = CARTESIAN_POINT ( 'NONE',  ( -6.479646071760366333, -11.22307621135318811, 0.000000000000000000 ) ) ;
#211 = ORIENTED_EDGE ( 'NONE', *, *, #351, .F. ) ;
#212 = DIRECTION ( 'NONE',  ( -0.000000000000000000, 0.000000000000000000, 1.000000000000000000 ) ) ;
#213 = CARTESIAN_POINT ( 'NONE',  ( -9.959292143521004448, 2.285898384862254940, 0.000000000000000000 ) ) ;
#214 = EDGE_CURVE ( 'NONE', #202, #1268, #458, .T. ) ;
#215 = DIRECTION ( 'NONE',  ( -0.8660254037844387076, -0.4999999999999999445, 0.000000000000000000 ) ) ;
#216 = DIRECTION ( 'NONE',  ( -0.000000000000000000, 0.000000000000000000, 1.000000000000000000 ) ) ;
#217 = STYLED_ITEM ( 'NONE', ( #577 ), #310 ) ;
#218 = ORIENTED_EDGE ( 'NONE', *, *, #452, .F. ) ;
#219 = DIRECTION ( 'NONE',  ( -1.000000000000000000, -1.051620219116088729E-14, 0.000000000000000000 ) ) ;
#220 = VECTOR ( 'NONE', #660, 1000.000000000000000 ) ;
#221 = AXIS2_PLACEMENT_3D ( 'NONE', #106, #269, #662 ) ;
#222 = VERTEX_POINT ( 'NONE', #620 ) ;
#223 = CARTESIAN_POINT ( 'NONE',  ( 8.459292143521036422, 5.750000000000036415, 6.000000000000000000 ) ) ;
#224 = ORIENTED_EDGE ( 'NONE', *, *, #250, .T. ) ;
#225 = CARTESIAN_POINT ( 'NONE',  ( 1.734723475976807094E-15, -14.96410161513749237, 3.000000000000000000 ) ) ;
#226 = ORIENTED_EDGE ( 'NONE', *, *, #853, .T. ) ;
#227 = EDGE_CURVE ( 'NONE', #967, #77, #298, .T. ) ;
#228 = DIRECTION ( 'NONE',  ( 1.000000000000000000, 1.001543065824777447E-14, 0.000000000000000000 ) ) ;
#229 = ORIENTED_EDGE ( 'NONE', *, *, #404, .F. ) ;
#230 = DIRECTION ( 'NONE',  ( -0.8660254037844379305, -0.5000000000000011102, 0.000000000000000000 ) ) ;
#231 = FACE_OUTER_BOUND ( 'NONE', #533, .T. ) ;
#232 = EDGE_LOOP ( 'NONE', ( #508, #903, #937, #293 ) ) ;
#233 = CARTESIAN_POINT ( 'NONE',  ( -4.618802153517006737, 0.000000000000000000, 2.000000000000000000 ) ) ;
#234 = CIRCLE ( 'NONE', #21, 16.50000000000000000 ) ;
#235 = ORIENTED_EDGE ( 'NONE', *, *, #659, .T. ) ;
#236 = CARTESIAN_POINT ( 'NONE',  ( 0.000000000000000000, 0.000000000000000000, 0.000000000000000000 ) ) ;
#237 = DIRECTION ( 'NONE',  ( -0.8660254037844414832, 0.4999999999999950595, 0.000000000000000000 ) ) ;
#238 = ORIENTED_EDGE ( 'NONE', *, *, #940, .F. ) ;
#239 = VECTOR ( 'NONE', #553, 1000.000000000000000 ) ;
#240 = DIRECTION ( 'NONE',  ( 1.000000000000000000, 0.000000000000000000, 0.000000000000000000 ) ) ;
#241 = ADVANCED_FACE ( 'NONE', ( #133 ), #823, .F. ) ;
#242 = ADVANCED_FACE ( 'NONE', ( #634, #1029, #479, #876, #91 ), #978, .T. ) ;
#243 = ORIENTED_EDGE ( 'NONE', *, *, #501, .T. ) ;
#244 = DIRECTION ( 'NONE',  ( -0.000000000000000000, 0.000000000000000000, 1.000000000000000000 ) ) ;
#245 = VERTEX_POINT ( 'NONE', #570 ) ;
#246 = LINE ( 'NONE', #646, #636 ) ;
#247 = CIRCLE ( 'NONE', #78, 1.500000000000001332 ) ;
#248 = CARTESIAN_POINT ( 'NONE',  ( -9.959292143521004448, 2.285898384862254940, 3.000000000000000000 ) ) ;
#249 = ORIENTED_EDGE ( 'NONE', *, *, #917, .T. ) ;
#250 = EDGE_CURVE ( 'NONE', #1135, #847, #583, .T. ) ;
#251 = DIRECTION ( 'NONE',  ( -0.000000000000000000, -0.000000000000000000, 1.000000000000000000 ) ) ;
#252 = CARTESIAN_POINT ( 'NONE',  ( -2.309401076758504257, -4.000000000000000000, 2.000000000000000000 ) ) ;
#253 = AXIS2_PLACEMENT_3D ( 'NONE', #1014, #140, #927 ) ;
#254 = DIRECTION ( 'NONE',  ( 1.000000000000000000, 0.000000000000000000, 0.000000000000000000 ) ) ;
#255 = ORIENTED_EDGE ( 'NONE', *, *, #687, .F. ) ;
#256 = EDGE_CURVE ( 'NONE', #245, #854, #1239, .T. ) ;
#257 = DIRECTION ( 'NONE',  ( 0.8660254037844364872, 0.5000000000000038858, 0.000000000000000000 ) ) ;
#258 = AXIS2_PLACEMENT_3D ( 'NONE', #672, #947, #649 ) ;
#259 = VECTOR ( 'NONE', #1162, 999.9999999999998863 ) ;
#260 = PLANE ( 'NONE',  #340 ) ;
#261 = ORIENTED_EDGE ( 'NONE', *, *, #154, .T. ) ;
#262 = EDGE_CURVE ( 'NONE', #543, #1030, #278, .T. ) ;
#263 = DIRECTION ( 'NONE',  ( -0.000000000000000000, 0.000000000000000000, 1.000000000000000000 ) ) ;
#264 = ORIENTED_EDGE ( 'NONE', *, *, #441, .T. ) ;
#265 = ADVANCED_FACE ( 'NONE', ( #74 ), #558, .F. ) ;
#266 = PRESENTATION_LAYER_ASSIGNMENT (  '', '', ( #763 ) ) ;
#267 = DIRECTION ( 'NONE',  ( 1.000000000000000000, 0.000000000000000000, 0.000000000000000000 ) ) ;
#268 = ORIENTED_EDGE ( 'NONE', *, *, #1049, .T. ) ;
#269 = DIRECTION ( 'NONE',  ( -0.000000000000000000, -0.000000000000000000, 1.000000000000000000 ) ) ;
#270 = DIRECTION ( 'NONE',  ( -0.000000000000000000, -0.000000000000000000, -1.000000000000000000 ) ) ;
#271 = ORIENTED_EDGE ( 'NONE', *, *, #846, .T. ) ;
#272 = CARTESIAN_POINT ( 'NONE',  ( 16.50000000000000000, 2.020667218593133100E-15, 6.000000000000000000 ) ) ;
#273 = CARTESIAN_POINT ( 'NONE',  ( 11.45929214352103820, 5.750000000000036415, 0.000000000000000000 ) ) ;
#274 = ORIENTED_EDGE ( 'NONE', *, *, #781, .T. ) ;
#275 = DIRECTION ( 'NONE',  ( 1.000000000000000000, -1.877893248421449036E-16, 0.000000000000000000 ) ) ;
#276 = PLANE ( 'NONE',  #258 ) ;
#277 = ORIENTED_EDGE ( 'NONE', *, *, #1011, .F. ) ;
#278 = LINE ( 'NONE', #465, #938 ) ;
#279 = VECTOR ( 'NONE', #443, 1000.000000000000000 ) ;
#280 = AXIS2_PLACEMENT_3D ( 'NONE', #475, #5, #1251 ) ;
#281 = EDGE_CURVE ( 'NONE', #165, #463, #363, .T. ) ;
#282 = DIRECTION ( 'NONE',  ( 1.000000000000000000, 0.000000000000000000, 0.000000000000000000 ) ) ;
#283 = PRODUCT_RELATED_PRODUCT_CATEGORY ( 'part', '', ( #393 ) ) ;
#284 = CARTESIAN_POINT ( 'NONE',  ( 1.500000000000012879, 2.598076211353348430, 3.000000000000000000 ) ) ;
#285 = FACE_OUTER_BOUND ( 'NONE', #188, .T. ) ;
#286 = CARTESIAN_POINT ( 'NONE',  ( 0.000000000000000000, 0.000000000000000000, 2.000000000000000000 ) ) ;
#287 = VERTEX_POINT ( 'NONE', #969 ) ;
#288 = DIRECTION ( 'NONE',  ( -0.000000000000000000, -0.000000000000000000, 1.000000000000000000 ) ) ;
#289 = DIRECTION ( 'NONE',  ( -0.000000000000000000, -0.000000000000000000, 1.000000000000000000 ) ) ;
#290 = LINE ( 'NONE', #36, #851 ) ;
#291 = CARTESIAN_POINT ( 'NONE',  ( 3.479646071760662984, -6.026923788646813662, 3.000000000000000000 ) ) ;
#292 = ORIENTED_EDGE ( 'NONE', *, *, #741, .T. ) ;
#293 = ORIENTED_EDGE ( 'NONE', *, *, #940, .T. ) ;
#294 = CARTESIAN_POINT ( 'NONE',  ( -2.211772431870429045E-14, -8.035898384862507626, 0.000000000000000000 ) ) ;
#295 = FACE_OUTER_BOUND ( 'NONE', #779, .T. ) ;
#296 = CARTESIAN_POINT ( 'NONE',  ( 6.959292143521052409, 7.482050807568899842, 3.000000000000000000 ) ) ;
#297 = EDGE_CURVE ( 'NONE', #1120, #199, #586, .T. ) ;
#298 = CIRCLE ( 'NONE', #253, 1.500000000000000000 ) ;
#299 = ORIENTED_EDGE ( 'NONE', *, *, #1000, .T. ) ;
#300 = DIRECTION ( 'NONE',  ( -0.000000000000000000, -0.000000000000000000, 1.000000000000000000 ) ) ;
#301 = CIRCLE ( 'NONE', #1114, 2.500000000000000000 ) ;
#302 = CARTESIAN_POINT ( 'NONE',  ( -7.511572993685798115E-16, -4.000000000000000888, 6.000000000000000000 ) ) ;
#303 =( NAMED_UNIT ( * ) SI_UNIT ( $, .STERADIAN. ) SOLID_ANGLE_UNIT ( ) );
#304 = ORIENTED_EDGE ( 'NONE', *, *, #1082, .T. ) ;
#305 = DIRECTION ( 'NONE',  ( 1.000000000000000000, 0.000000000000000000, 0.000000000000000000 ) ) ;
#306 = EDGE_CURVE ( 'NONE', #73, #134, #771, .T. ) ;
#307 = FACE_OUTER_BOUND ( 'NONE', #232, .T. ) ;
#308 = FACE_OUTER_BOUND ( 'NONE', #503, .T. ) ;
#309 = DIRECTION ( 'NONE',  ( -0.8660254037844364872, -0.5000000000000036637, 0.000000000000000000 ) ) ;
#310 = MANIFOLD_SOLID_BREP ( '컷-돌출5', #750 ) ;
#311 = FACE_BOUND ( 'NONE', #1010, .T. ) ;
#312 = FACE_OUTER_BOUND ( 'NONE', #897, .T. ) ;
#313 = VERTEX_POINT ( 'NONE', #173 ) ;
#314 = CARTESIAN_POINT ( 'NONE',  ( 6.479646071760417847, -11.22307621135310285, 0.000000000000000000 ) ) ;
#315 = MECHANICAL_DESIGN_GEOMETRIC_PRESENTATION_REPRESENTATION (  '', ( #217 ), #985 ) ;
#316 = EDGE_CURVE ( 'NONE', #866, #990, #169, .T. ) ;
#317 = CARTESIAN_POINT ( 'NONE',  ( -3.479646071760559511, 6.026923788646686653, 0.000000000000000000 ) ) ;
#318 = AXIS2_PLACEMENT_3D ( 'NONE', #65, #835, #429 ) ;
#319 = VECTOR ( 'NONE', #1178, 1000.000000000000114 ) ;
#320 = SURFACE_STYLE_FILL_AREA ( #706 ) ;
#321 = ORIENTED_EDGE ( 'NONE', *, *, #643, .F. ) ;
#322 = CARTESIAN_POINT ( 'NONE',  ( 3.479646071760662984, -6.026923788646813662, 0.000000000000000000 ) ) ;
#323 = AXIS2_PLACEMENT_3D ( 'NONE', #845, #473, #774 ) ;
#324 = ORIENTED_EDGE ( 'NONE', *, *, #256, .T. ) ;
#325 = DIRECTION ( 'NONE',  ( 0.8660254037844431485, -0.4999999999999921729, 0.000000000000000000 ) ) ;
#326 = DIRECTION ( 'NONE',  ( -0.8660254037844415942, 0.4999999999999950040, 0.000000000000000000 ) ) ;
#327 =( LENGTH_UNIT ( ) NAMED_UNIT ( * ) SI_UNIT ( .MILLI., .METRE. ) );
#328 = ORIENTED_EDGE ( 'NONE', *, *, #136, .F. ) ;
#329 = FACE_OUTER_BOUND ( 'NONE', #360, .T. ) ;
#330 = ORIENTED_EDGE ( 'NONE', *, *, #895, .F. ) ;
#331 = FACE_OUTER_BOUND ( 'NONE', #970, .T. ) ;
#332 = DIRECTION ( 'NONE',  ( 0.4999999999999950595, 0.8660254037844414832, 0.000000000000000000 ) ) ;
#333 = VERTEX_POINT ( 'NONE', #379 ) ;
#334 = CARTESIAN_POINT ( 'NONE',  ( -3.464101615137755275, -2.000000000000000000, 2.000000000000000000 ) ) ;
#335 = EDGE_CURVE ( 'NONE', #720, #689, #780, .T. ) ;
#336 = ORIENTED_EDGE ( 'NONE', *, *, #905, .T. ) ;
#337 = PLANE ( 'NONE',  #964 ) ;
#338 = DIRECTION ( 'NONE',  ( 0.000000000000000000, 0.000000000000000000, 1.000000000000000000 ) ) ;
#339 = ORIENTED_EDGE ( 'NONE', *, *, #335, .T. ) ;
#340 = AXIS2_PLACEMENT_3D ( 'NONE', #1, #75, #1053 ) ;
#341 = LINE ( 'NONE', #740, #424 ) ;
#342 = ORIENTED_EDGE ( 'NONE', *, *, #404, .T. ) ;
#343 = DIRECTION ( 'NONE',  ( -0.000000000000000000, 0.000000000000000000, 1.000000000000000000 ) ) ;
#344 = EDGE_CURVE ( 'NONE', #797, #1220, #751, .T. ) ;
#345 = EDGE_LOOP ( 'NONE', ( #935, #264 ) ) ;
#346 = CARTESIAN_POINT ( 'NONE',  ( 12.95929214352107195, 1.297928918434104587E-13, 0.000000000000000000 ) ) ;
#347 = LINE ( 'NONE', #152, #988 ) ;
#348 = ORIENTED_EDGE ( 'NONE', *, *, #214, .T. ) ;
#349 = CARTESIAN_POINT ( 'NONE',  ( 3.464101615137755719, -1.999999999999998668, 2.000000000000000000 ) ) ;
#350 = CARTESIAN_POINT ( 'NONE',  ( 3.479646071760495563, 6.026923788646720404, 0.000000000000000000 ) ) ;
#351 = EDGE_CURVE ( 'NONE', #1161, #42, #684, .T. ) ;
#352 = VECTOR ( 'NONE', #518, 1000.000000000000114 ) ;
#353 = ORIENTED_EDGE ( 'NONE', *, *, #1063, .F. ) ;
#354 = FACE_BOUND ( 'NONE', #81, .T. ) ;
#355 = EDGE_CURVE ( 'NONE', #542, #576, #604, .T. ) ;
#356 = AXIS2_PLACEMENT_3D ( 'NONE', #966, #865, #1258 ) ;
#357 = DIRECTION ( 'NONE',  ( 7.010801460773389748E-15, -1.000000000000000000, 0.000000000000000000 ) ) ;
#358 = DIRECTION ( 'NONE',  ( -0.8660254037844414832, 0.4999999999999951150, 0.000000000000000000 ) ) ;
#359 = ADVANCED_FACE ( 'NONE', ( #30 ), #702, .F. ) ;
#360 = EDGE_LOOP ( 'NONE', ( #1018, #757, #603, #1138 ) ) ;
#361 = LINE ( 'NONE', #768, #551 ) ;
#362 = CARTESIAN_POINT ( 'NONE',  ( -7.511572993685798115E-16, -4.000000000000000888, 2.000000000000000000 ) ) ;
#363 = LINE ( 'NONE', #764, #1144 ) ;
#364 = CARTESIAN_POINT ( 'NONE',  ( -9.959292143521038199, 5.750000000000013323, 3.000000000000000000 ) ) ;
#365 = VERTEX_POINT ( 'NONE', #1203 ) ;
#366 = CARTESIAN_POINT ( 'NONE',  ( -2.309401076758503368, 4.000000000000000888, 6.000000000000000000 ) ) ;
#367 = FACE_OUTER_BOUND ( 'NONE', #437, .T. ) ;
#368 = EDGE_CURVE ( 'NONE', #543, #889, #598, .T. ) ;
#369 = EDGE_LOOP ( 'NONE', ( #1173, #1156, #29, #1245 ) ) ;
#370 = ADVANCED_FACE ( 'NONE', ( #113 ), #208, .F. ) ;
#371 = DIRECTION ( 'NONE',  ( 0.4999999999999996114, 0.8660254037844388186, 0.000000000000000000 ) ) ;
#372 = EDGE_LOOP ( 'NONE', ( #804, #789, #255, #143 ) ) ;
#373 = FACE_OUTER_BOUND ( 'NONE', #432, .T. ) ;
#374 = PLANE ( 'NONE',  #482 ) ;
#375 = DIRECTION ( 'NONE',  ( -3.255014963930750621E-15, 1.000000000000000000, 0.000000000000000000 ) ) ;
#376 = CARTESIAN_POINT ( 'NONE',  ( -2.309401076758503368, 4.000000000000000888, 2.000000000000000000 ) ) ;
#377 = EDGE_CURVE ( 'NONE', #1268, #454, #898, .T. ) ;
#378 = EDGE_LOOP ( 'NONE', ( #299, #226 ) ) ;
#379 = CARTESIAN_POINT ( 'NONE',  ( 1.734723475976807094E-15, -14.96410161513749415, 0.000000000000000000 ) ) ;
#380 = AXIS2_PLACEMENT_3D ( 'NONE', #1067, #567, #949 ) ;
#381 = CARTESIAN_POINT ( 'NONE',  ( 6.479646071760453374, 11.22307621135334266, 0.000000000000000000 ) ) ;
#382 = DIRECTION ( 'NONE',  ( -0.000000000000000000, -0.000000000000000000, 1.000000000000000000 ) ) ;
#383 = EDGE_CURVE ( 'NONE', #770, #77, #20, .T. ) ;
#384 = CARTESIAN_POINT ( 'NONE',  ( -6.479646071760366333, -11.22307621135318811, 3.000000000000000000 ) ) ;
#385 = ORIENTED_EDGE ( 'NONE', *, *, #227, .T. ) ;
#386 = ORIENTED_EDGE ( 'NONE', *, *, #755, .T. ) ;
#387 = PLANE ( 'NONE',  #761 ) ;
#388 = ORIENTED_EDGE ( 'NONE', *, *, #1141, .T. ) ;
#389 = CARTESIAN_POINT ( 'NONE',  ( -1.500000000000004219, 2.598076211353316012, 0.000000000000000000 ) ) ;
#390 = CARTESIAN_POINT ( 'NONE',  ( -2.999999999999891198, -3.154860657348151960E-14, 3.000000000000000000 ) ) ;
#391 = ADVANCED_FACE ( 'NONE', ( #591 ), #387, .F. ) ;
#392 = DIRECTION ( 'NONE',  ( -0.000000000000000000, 0.000000000000000000, 1.000000000000000000 ) ) ;
#393 = PRODUCT ( '가이드', '가이드', '', ( #747 ) ) ;
#394 = UNCERTAINTY_MEASURE_WITH_UNIT (LENGTH_MEASURE( 1.000000000000000082E-05 ), #1260, 'distance_accuracy_value', 'NONE');
#395 = ORIENTED_EDGE ( 'NONE', *, *, #60, .T. ) ;
#396 = DIRECTION ( 'NONE',  ( -0.000000000000000000, -0.000000000000000000, 1.000000000000000000 ) ) ;
#397 = EDGE_LOOP ( 'NONE', ( #560, #238, #977, #261 ) ) ;
#398 = CARTESIAN_POINT ( 'NONE',  ( 6.959292143521063956, 4.017949192431159666, 0.000000000000000000 ) ) ;
#399 = ADVANCED_FACE ( 'NONE', ( #1181 ), #15, .F. ) ;
#400 = ORIENTED_EDGE ( 'NONE', *, *, #177, .T. ) ;
#401 = VECTOR ( 'NONE', #493, 999.9999999999998863 ) ;
#402 = VERTEX_POINT ( 'NONE', #610 ) ;
#403 = CARTESIAN_POINT ( 'NONE',  ( -12.95929214352105063, 7.482050807568874973, 0.000000000000000000 ) ) ;
#404 = EDGE_CURVE ( 'NONE', #77, #967, #704, .T. ) ;
#405 = CIRCLE ( 'NONE', #46, 16.50000000000000000 ) ;
#406 = DIRECTION ( 'NONE',  ( -0.000000000000000000, -0.000000000000000000, 1.000000000000000000 ) ) ;
#407 = CARTESIAN_POINT ( 'NONE',  ( -2.500000000000000000, 3.061616997868383141E-16, 0.000000000000000000 ) ) ;
#408 = VERTEX_POINT ( 'NONE', #294 ) ;
#409 = DIRECTION ( 'NONE',  ( 0.8660254037844380415, 0.5000000000000009992, 0.000000000000000000 ) ) ;
#410 = CARTESIAN_POINT ( 'NONE',  ( 1.500000000000001332, -11.50000000000000000, 3.000000000000000000 ) ) ;
#411 = DIRECTION ( 'NONE',  ( 1.000000000000000000, 0.000000000000000000, 0.000000000000000000 ) ) ;
#412 = ORIENTED_EDGE ( 'NONE', *, *, #1225, .F. ) ;
#413 = DIRECTION ( 'NONE',  ( 1.000000000000000000, 0.000000000000000000, 0.000000000000000000 ) ) ;
#414 = ADVANCED_FACE ( 'NONE', ( #697 ), #122, .F. ) ;
#415 = ADVANCED_FACE ( 'NONE', ( #509 ), #116, .F. ) ;
#416 = EDGE_LOOP ( 'NONE', ( #138, #628, #442, #126 ) ) ;
#417 = DIRECTION ( 'NONE',  ( -0.4999999999999999445, -0.8660254037844387076, 0.000000000000000000 ) ) ;
#418 = ORIENTED_EDGE ( 'NONE', *, *, #1000, .F. ) ;
#419 = VECTOR ( 'NONE', #1086, 1000.000000000000114 ) ;
#420 = DIRECTION ( 'NONE',  ( -1.001543065824777447E-14, 1.000000000000000000, 0.000000000000000000 ) ) ;
#421 = AXIS2_PLACEMENT_3D ( 'NONE', #1109, #995, #519 ) ;
#422 = FACE_BOUND ( 'NONE', #378, .T. ) ;
#423 = DIRECTION ( 'NONE',  ( -0.000000000000000000, -0.000000000000000000, 1.000000000000000000 ) ) ;
#424 = VECTOR ( 'NONE', #1136, 1000.000000000000114 ) ;
#425 = PLANE ( 'NONE',  #421 ) ;
#426 = EDGE_LOOP ( 'NONE', ( #304, #71, #150, #1238 ) ) ;
#427 = PLANE ( 'NONE',  #550 ) ;
#428 = VERTEX_POINT ( 'NONE', #801 ) ;
#429 = DIRECTION ( 'NONE',  ( 1.000000000000000000, 0.000000000000000000, 0.000000000000000000 ) ) ;
#430 = DIRECTION ( 'NONE',  ( -0.5000000000000003331, 0.8660254037844383745, 0.000000000000000000 ) ) ;
#431 = EDGE_CURVE ( 'NONE', #134, #889, #1112, .T. ) ;
#432 = EDGE_LOOP ( 'NONE', ( #485, #1068, #90, #677 ) ) ;
#433 = VECTOR ( 'NONE', #798, 1000.000000000000000 ) ;
#434 = DIRECTION ( 'NONE',  ( -0.8660254037844394848, 0.4999999999999985012, 0.000000000000000000 ) ) ;
#435 = ORIENTED_EDGE ( 'NONE', *, *, #624, .T. ) ;
#436 = DIRECTION ( 'NONE',  ( 7.010801460773389748E-15, -1.000000000000000000, 0.000000000000000000 ) ) ;
#437 = EDGE_LOOP ( 'NONE', ( #52, #734, #1027, #790 ) ) ;
#438 = LINE ( 'NONE', #1040, #1212 ) ;
#439 = EDGE_LOOP ( 'NONE', ( #1110, #418, #14, #385 ) ) ;
#440 = VERTEX_POINT ( 'NONE', #707 ) ;
#441 = EDGE_CURVE ( 'NONE', #165, #402, #247, .T. ) ;
#442 = ORIENTED_EDGE ( 'NONE', *, *, #858, .T. ) ;
#443 = DIRECTION ( 'NONE',  ( -1.000000000000000000, 0.000000000000000000, 0.000000000000000000 ) ) ;
#444 = EDGE_LOOP ( 'NONE', ( #748, #19, #7, #827 ) ) ;
#445 = AXIS2_PLACEMENT_3D ( 'NONE', #364, #563, #184 ) ;
#446 = AXIS2_PLACEMENT_3D ( 'NONE', #13, #392, #1154 ) ;
#447 = LINE ( 'NONE', #322, #1111 ) ;
#448 = CARTESIAN_POINT ( 'NONE',  ( 2.309401076758502924, 4.000000000000000888, 2.000000000000000000 ) ) ;
#449 = ORIENTED_EDGE ( 'NONE', *, *, #192, .T. ) ;
#450 = CARTESIAN_POINT ( 'NONE',  ( -4.618802153517006737, 0.000000000000000000, 6.000000000000000000 ) ) ;
#451 = CARTESIAN_POINT ( 'NONE',  ( -2.211772431870429045E-14, -8.035898384862507626, 0.000000000000000000 ) ) ;
#452 = EDGE_CURVE ( 'NONE', #1241, #1135, #234, .T. ) ;
#453 = DIRECTION ( 'NONE',  ( -1.000000000000000000, -3.255014963930527373E-15, 0.000000000000000000 ) ) ;
#454 = VERTEX_POINT ( 'NONE', #517 ) ;
#455 = LINE ( 'NONE', #957, #239 ) ;
#456 = DIRECTION ( 'NONE',  ( -0.5000000000000072164, 0.8660254037844345998, 0.000000000000000000 ) ) ;
#457 = LINE ( 'NONE', #962, #718 ) ;
#458 = CIRCLE ( 'NONE', #1023, 2.500000000000000000 ) ;
#459 = ORIENTED_EDGE ( 'NONE', *, *, #297, .F. ) ;
#460 = CARTESIAN_POINT ( 'NONE',  ( 2.999999999999767741, -9.767949192431238714, 3.000000000000000000 ) ) ;
#461 = DIRECTION ( 'NONE',  ( 3.255014963930527373E-15, -1.000000000000000000, 0.000000000000000000 ) ) ;
#462 = AXIS2_PLACEMENT_3D ( 'NONE', #1139, #812, #240 ) ;
#463 = VERTEX_POINT ( 'NONE', #223 ) ;
#464 = EDGE_LOOP ( 'NONE', ( #1058, #1095, #944, #148, #874, #775 ) ) ;
#465 = CARTESIAN_POINT ( 'NONE',  ( -12.95929214352099912, -9.085502429038613967E-14, 0.000000000000000000 ) ) ;
#466 = LINE ( 'NONE', #381, #855 ) ;
#467 = ORIENTED_EDGE ( 'NONE', *, *, #730, .F. ) ;
#468 = ADVANCED_FACE ( 'NONE', ( #910 ), #1084, .F. ) ;
#469 = CARTESIAN_POINT ( 'NONE',  ( -7.511572993685798115E-16, -4.000000000000000888, 2.000000000000000000 ) ) ;
#470 = CARTESIAN_POINT ( 'NONE',  ( 2.999999999999779288, -13.23205080756873819, 0.000000000000000000 ) ) ;
#471 = EDGE_LOOP ( 'NONE', ( #56, #950 ) ) ;
#472 = CARTESIAN_POINT ( 'NONE',  ( -9.959292143521038199, 5.750000000000013323, 3.000000000000000000 ) ) ;
#473 = DIRECTION ( 'NONE',  ( 0.8660254037844388186, -0.4999999999999996114, 0.000000000000000000 ) ) ;
#474 = FACE_OUTER_BOUND ( 'NONE', #537, .T. ) ;
#475 = CARTESIAN_POINT ( 'NONE',  ( -6.479646071760366333, -11.22307621135318811, 0.000000000000000000 ) ) ;
#476 = PLANE ( 'NONE',  #554 ) ;
#477 = ORIENTED_EDGE ( 'NONE', *, *, #227, .F. ) ;
#478 = ORIENTED_EDGE ( 'NONE', *, *, #1046, .T. ) ;
#479 = FACE_BOUND ( 'NONE', #616, .T. ) ;
#480 = EDGE_CURVE ( 'NONE', #199, #159, #939, .T. ) ;
#481 = DIRECTION ( 'NONE',  ( 0.8660254037844364872, 0.5000000000000038858, 0.000000000000000000 ) ) ;
#482 = AXIS2_PLACEMENT_3D ( 'NONE', #117, #994, #1195 ) ;
#483 = EDGE_LOOP ( 'NONE', ( #496, #625 ) ) ;
#484 = PLANE ( 'NONE',  #280 ) ;
#485 = ORIENTED_EDGE ( 'NONE', *, *, #209, .T. ) ;
#486 = DIRECTION ( 'NONE',  ( 1.051620219116088729E-14, -1.000000000000000000, 0.000000000000000000 ) ) ;
#487 = VECTOR ( 'NONE', #436, 1000.000000000000000 ) ;
#488 = ORIENTED_EDGE ( 'NONE', *, *, #1092, .T. ) ;
#489 = ADVANCED_FACE ( 'NONE', ( #1035 ), #135, .T. ) ;
#490 = AXIS2_PLACEMENT_3D ( 'NONE', #1262, #1167, #282 ) ;
#491 = CYLINDRICAL_SURFACE ( 'NONE', #221, 1.500000000000000000 ) ;
#492 = VECTOR ( 'NONE', #1124, 1000.000000000000000 ) ;
#493 = DIRECTION ( 'NONE',  ( 0.8660254037844413721, -0.4999999999999952260, 0.000000000000000000 ) ) ;
#494 = DIRECTION ( 'NONE',  ( 1.000000000000000000, 0.000000000000000000, 0.000000000000000000 ) ) ;
#495 = ORIENTED_EDGE ( 'NONE', *, *, #344, .T. ) ;
#496 = ORIENTED_EDGE ( 'NONE', *, *, #76, .F. ) ;
#497 = ORIENTED_EDGE ( 'NONE', *, *, #635, .F. ) ;
#498 = DIRECTION ( 'NONE',  ( -0.000000000000000000, -0.000000000000000000, 1.000000000000000000 ) ) ;
#499 = EDGE_CURVE ( 'NONE', #408, #720, #447, .T. ) ;
#500 = DIRECTION ( 'NONE',  ( -0.8660254037844415942, 0.4999999999999949485, 0.000000000000000000 ) ) ;
#501 = EDGE_CURVE ( 'NONE', #1123, #576, #149, .T. ) ;
#502 = ORIENTED_EDGE ( 'NONE', *, *, #895, .T. ) ;
#503 = EDGE_LOOP ( 'NONE', ( #1118, #842, #45, #321, #1249, #622 ) ) ;
#504 = CARTESIAN_POINT ( 'NONE',  ( 1.408343819019455979E-15, -11.50000000000000000, 0.000000000000000000 ) ) ;
#505 = LINE ( 'NONE', #894, #1128 ) ;
#506 = FILL_AREA_STYLE_COLOUR ( '', #726 ) ;
#507 = VECTOR ( 'NONE', #423, 1000.000000000000000 ) ;
#508 = ORIENTED_EDGE ( 'NONE', *, *, #89, .T. ) ;
#509 = FACE_OUTER_BOUND ( 'NONE', #426, .T. ) ;
#510 = VECTOR ( 'NONE', #986, 1000.000000000000114 ) ;
#511 = CYLINDRICAL_SURFACE ( 'NONE', #178, 2.500000000000000000 ) ;
#512 = FACE_OUTER_BOUND ( 'NONE', #369, .T. ) ;
#513 = VERTEX_POINT ( 'NONE', #57 ) ;
#514 = EDGE_CURVE ( 'NONE', #333, #181, #1017, .T. ) ;
#515 = EDGE_CURVE ( 'NONE', #797, #313, #1130, .T. ) ;
#516 = EDGE_CURVE ( 'NONE', #542, #73, #526, .T. ) ;
#517 = CARTESIAN_POINT ( 'NONE',  ( -2.500000000000000000, 3.061616997868383141E-16, 2.000000000000000000 ) ) ;
#518 = DIRECTION ( 'NONE',  ( -0.5000000000000003331, 0.8660254037844383745, 0.000000000000000000 ) ) ;
#519 = DIRECTION ( 'NONE',  ( 1.000000000000000000, 0.000000000000000000, 0.000000000000000000 ) ) ;
#520 = ORIENTED_EDGE ( 'NONE', *, *, #607, .T. ) ;
#521 = DIRECTION ( 'NONE',  ( -0.000000000000000000, -0.000000000000000000, -1.000000000000000000 ) ) ;
#522 = VERTEX_POINT ( 'NONE', #623 ) ;
#523 = DIRECTION ( 'NONE',  ( 1.000000000000000000, 0.000000000000000000, 0.000000000000000000 ) ) ;
#524 = SURFACE_SIDE_STYLE ('',( #320 ) ) ;
#525 = ORIENTED_EDGE ( 'NONE', *, *, #552, .T. ) ;
#526 = LINE ( 'NONE', #916, #1209 ) ;
#527 = EDGE_CURVE ( 'NONE', #859, #772, #1224, .T. ) ;
#528 = ORIENTED_EDGE ( 'NONE', *, *, #262, .T. ) ;
#529 = DIRECTION ( 'NONE',  ( 1.000000000000000000, 0.000000000000000000, 0.000000000000000000 ) ) ;
#530 = CARTESIAN_POINT ( 'NONE',  ( 2.999999999999779288, -13.23205080756873819, 3.000000000000000000 ) ) ;
#531 = AXIS2_PLACEMENT_3D ( 'NONE', #1036, #157, #548 ) ;
#532 = APPLICATION_PROTOCOL_DEFINITION ( 'draft international standard', 'automotive_design', 1998, #1267 ) ;
#533 = EDGE_LOOP ( 'NONE', ( #849, #932 ) ) ;
#534 = DIRECTION ( 'NONE',  ( -0.000000000000000000, -0.000000000000000000, 1.000000000000000000 ) ) ;
#535 = DIRECTION ( 'NONE',  ( -0.5000000000000012212, 0.8660254037844380415, 0.000000000000000000 ) ) ;
#536 = CARTESIAN_POINT ( 'NONE',  ( 0.000000000000000000, 0.000000000000000000, 0.000000000000000000 ) ) ;
#537 = EDGE_LOOP ( 'NONE', ( #449, #1213, #809, #699 ) ) ;
#538 = AXIS2_PLACEMENT_3D ( 'NONE', #132, #786, #884 ) ;
#539 = ADVANCED_FACE ( 'NONE', ( #38 ), #427, .F. ) ;
#540 = CARTESIAN_POINT ( 'NONE',  ( -6.959292143521037310, 0.000000000000000000, 0.000000000000000000 ) ) ;
#541 = ORIENTED_EDGE ( 'NONE', *, *, #952, .F. ) ;
#542 = VERTEX_POINT ( 'NONE', #923 ) ;
#543 = VERTEX_POINT ( 'NONE', #1219 ) ;
#544 = CARTESIAN_POINT ( 'NONE',  ( 0.000000000000000000, 4.000000000000000888, 6.000000000000000000 ) ) ;
#545 = ORIENTED_EDGE ( 'NONE', *, *, #141, .T. ) ;
#546 = DIRECTION ( 'NONE',  ( 7.010801460773389748E-15, -1.000000000000000000, 0.000000000000000000 ) ) ;
#547 = VECTOR ( 'NONE', #717, 999.9999999999998863 ) ;
#548 = DIRECTION ( 'NONE',  ( 1.000000000000000000, 0.000000000000000000, 0.000000000000000000 ) ) ;
#549 = ORIENTED_EDGE ( 'NONE', *, *, #501, .F. ) ;
#550 = AXIS2_PLACEMENT_3D ( 'NONE', #346, #228, #420 ) ;
#551 = VECTOR ( 'NONE', #1088, 1000.000000000000114 ) ;
#552 = EDGE_CURVE ( 'NONE', #159, #59, #1168, .T. ) ;
#553 = DIRECTION ( 'NONE',  ( -0.000000000000000000, -0.000000000000000000, 1.000000000000000000 ) ) ;
#554 = AXIS2_PLACEMENT_3D ( 'NONE', #80, #561, #257 ) ;
#555 = CARTESIAN_POINT ( 'NONE',  ( 0.000000000000000000, 0.000000000000000000, 0.000000000000000000 ) ) ;
#556 = ORIENTED_EDGE ( 'NONE', *, *, #316, .T. ) ;
#557 = LINE ( 'NONE', #848, #799 ) ;
#558 = PLANE ( 'NONE',  #922 ) ;
#559 = LINE ( 'NONE', #1176, #1065 ) ;
#560 = ORIENTED_EDGE ( 'NONE', *, *, #1157, .T. ) ;
#561 = DIRECTION ( 'NONE',  ( 0.5000000000000038858, -0.8660254037844364872, 0.000000000000000000 ) ) ;
#562 = CARTESIAN_POINT ( 'NONE',  ( 0.000000000000000000, 4.000000000000000888, 2.000000000000000000 ) ) ;
#563 = DIRECTION ( 'NONE',  ( -0.000000000000000000, 0.000000000000000000, 1.000000000000000000 ) ) ;
#564 = EDGE_CURVE ( 'NONE', #632, #807, #438, .T. ) ;
#565 = EDGE_LOOP ( 'NONE', ( #996, #339, #395, #1115, #249, #97 ) ) ;
#566 = DIRECTION ( 'NONE',  ( -1.000000000000000000, 0.000000000000000000, 0.000000000000000000 ) ) ;
#567 = DIRECTION ( 'NONE',  ( -0.000000000000000000, 0.000000000000000000, 1.000000000000000000 ) ) ;
#568 = AXIS2_PLACEMENT_3D ( 'NONE', #615, #908, #1102 ) ;
#569 = ORIENTED_EDGE ( 'NONE', *, *, #250, .F. ) ;
#570 = CARTESIAN_POINT ( 'NONE',  ( 2.309401076758504257, -4.000000000000001776, 6.000000000000000000 ) ) ;
#571 = DIRECTION ( 'NONE',  ( 1.000000000000000000, 0.000000000000000000, 0.000000000000000000 ) ) ;
#572 = LINE ( 'NONE', #302, #1021 ) ;
#573 = CARTESIAN_POINT ( 'NONE',  ( 1.500000000000001332, -11.50000000000000000, 0.000000000000000000 ) ) ;
#574 = FACE_OUTER_BOUND ( 'NONE', #958, .T. ) ;
#575 = ADVANCED_FACE ( 'NONE', ( #329 ), #729, .F. ) ;
#576 = VERTEX_POINT ( 'NONE', #839 ) ;
#577 = PRESENTATION_STYLE_ASSIGNMENT (( #189 ) ) ;
#578 = AXIS2_PLACEMENT_3D ( 'NONE', #142, #338, #254 ) ;
#579 = CARTESIAN_POINT ( 'NONE',  ( -12.95929214352105063, 7.482050807568874973, 3.000000000000000000 ) ) ;
#580 = LINE ( 'NONE', #108, #1038 ) ;
#581 = CARTESIAN_POINT ( 'NONE',  ( -6.959292143521037310, 4.017949192431129468, 3.000000000000000000 ) ) ;
#582 = ORIENTED_EDGE ( 'NONE', *, *, #828, .T. ) ;
#583 = LINE ( 'NONE', #272, #1085 ) ;
#584 = DIRECTION ( 'NONE',  ( -0.000000000000000000, -0.000000000000000000, 1.000000000000000000 ) ) ;
#585 = CARTESIAN_POINT ( 'NONE',  ( -6.959292143521037310, 4.017949192431129468, 0.000000000000000000 ) ) ;
#586 = CIRCLE ( 'NONE', #773, 1.499999999999999556 ) ;
#587 = PLANE ( 'NONE',  #1008 ) ;
#588 = EDGE_CURVE ( 'NONE', #333, #683, #829, .T. ) ;
#589 = ORIENTED_EDGE ( 'NONE', *, *, #1075, .F. ) ;
#590 = ORIENTED_EDGE ( 'NONE', *, *, #931, .F. ) ;
#591 = FACE_OUTER_BOUND ( 'NONE', #833, .T. ) ;
#592 = VECTOR ( 'NONE', #736, 999.9999999999998863 ) ;
#593 = ORIENTED_EDGE ( 'NONE', *, *, #177, .F. ) ;
#594 = EDGE_CURVE ( 'NONE', #859, #690, #61, .T. ) ;
#595 = CARTESIAN_POINT ( 'NONE',  ( 1.500000000000039080, -2.598076211353334219, 0.000000000000000000 ) ) ;
#596 =( NAMED_UNIT ( * ) PLANE_ANGLE_UNIT ( ) SI_UNIT ( $, .RADIAN. ) );
#597 = ORIENTED_EDGE ( 'NONE', *, *, #527, .T. ) ;
#598 = LINE ( 'NONE', #403, #648 ) ;
#599 = MECHANICAL_DESIGN_GEOMETRIC_PRESENTATION_REPRESENTATION (  '', ( #763 ), #193 ) ;
#600 = CARTESIAN_POINT ( 'NONE',  ( -3.479646071760618131, -6.026923788646930902, 0.000000000000000000 ) ) ;
#601 = DIRECTION ( 'NONE',  ( -0.000000000000000000, -0.000000000000000000, 1.000000000000000000 ) ) ;
#602 = ORIENTED_EDGE ( 'NONE', *, *, #552, .F. ) ;
#603 = ORIENTED_EDGE ( 'NONE', *, *, #262, .F. ) ;
#604 = LINE ( 'NONE', #617, #1105 ) ;
#605 = EDGE_CURVE ( 'NONE', #440, #542, #1229, .T. ) ;
#606 = LINE ( 'NONE', #1107, #1227 ) ;
#607 = EDGE_CURVE ( 'NONE', #365, #832, #341, .T. ) ;
#608 = LINE ( 'NONE', #818, #1043 ) ;
#609 = AXIS2_PLACEMENT_3D ( 'NONE', #805, #219, #614 ) ;
#610 = CARTESIAN_POINT ( 'NONE',  ( 11.45929214352103820, 5.750000000000036415, 3.000000000000000000 ) ) ;
#611 = VECTOR ( 'NONE', #840, 1000.000000000000000 ) ;
#612 = AXIS2_PLACEMENT_3D ( 'NONE', #175, #1148, #267 ) ;
#613 = ORIENTED_EDGE ( 'NONE', *, *, #984, .F. ) ;
#614 = DIRECTION ( 'NONE',  ( 1.051620219116088729E-14, -1.000000000000000000, 0.000000000000000000 ) ) ;
#615 = CARTESIAN_POINT ( 'NONE',  ( 1.500000000000012879, 2.598076211353348430, 0.000000000000000000 ) ) ;
#616 = EDGE_LOOP ( 'NONE', ( #477, #229 ) ) ;
#617 = CARTESIAN_POINT ( 'NONE',  ( -6.959292143521037310, 7.482050807568894513, 0.000000000000000000 ) ) ;
#618 = EDGE_CURVE ( 'NONE', #1220, #222, #246, .T. ) ;
#619 = ORIENTED_EDGE ( 'NONE', *, *, #377, .T. ) ;
#620 = CARTESIAN_POINT ( 'NONE',  ( 12.95929214352099734, 7.482050807568938922, 0.000000000000000000 ) ) ;
#621 = SURFACE_STYLE_USAGE ( .BOTH. , #524 ) ;
#622 = ORIENTED_EDGE ( 'NONE', *, *, #10, .F. ) ;
#623 = CARTESIAN_POINT ( 'NONE',  ( -2.999999999999789502, -9.767949192431283123, 3.000000000000000000 ) ) ;
#624 = EDGE_CURVE ( 'NONE', #690, #513, #557, .T. ) ;
#625 = ORIENTED_EDGE ( 'NONE', *, *, #858, .F. ) ;
#626 = DIRECTION ( 'NONE',  ( 1.000000000000000000, 0.000000000000000000, 0.000000000000000000 ) ) ;
#627 = CARTESIAN_POINT ( 'NONE',  ( 1.500000000000039080, -2.598076211353334219, 3.000000000000000000 ) ) ;
#628 = ORIENTED_EDGE ( 'NONE', *, *, #281, .T. ) ;
#629 = AXIS2_PLACEMENT_3D ( 'NONE', #595, #870, #1072 ) ;
#630 = DIRECTION ( 'NONE',  ( -0.8660254037844344888, -0.5000000000000069944, 0.000000000000000000 ) ) ;
#631 = ADVANCED_FACE ( 'NONE', ( #1155 ), #476, .F. ) ;
#632 = VERTEX_POINT ( 'NONE', #1265 ) ;
#633 = LINE ( 'NONE', #55, #487 ) ;
#634 = FACE_BOUND ( 'NONE', #464, .T. ) ;
#635 = EDGE_CURVE ( 'NONE', #990, #1143, #749, .T. ) ;
#636 = VECTOR ( 'NONE', #641, 1000.000000000000000 ) ;
#637 = EDGE_LOOP ( 'NONE', ( #37, #497, #657, #112 ) ) ;
#638 = CARTESIAN_POINT ( 'NONE',  ( -12.95929214352099912, -9.085502429038613967E-14, 0.000000000000000000 ) ) ;
#639 = DIRECTION ( 'NONE',  ( 1.000000000000000000, 0.000000000000000000, 0.000000000000000000 ) ) ;
#640 = ORIENTED_EDGE ( 'NONE', *, *, #297, .T. ) ;
#641 = DIRECTION ( 'NONE',  ( -1.001543065824777447E-14, 1.000000000000000000, 0.000000000000000000 ) ) ;
#642 = CARTESIAN_POINT ( 'NONE',  ( 4.618802153517007625, 2.602085213965210642E-15, 6.000000000000000000 ) ) ;
#643 = EDGE_CURVE ( 'NONE', #1166, #674, #72, .T. ) ;
#644 = EDGE_CURVE ( 'NONE', #1241, #428, #1056, .T. ) ;
#645 = VERTEX_POINT ( 'NONE', #180 ) ;
#646 = CARTESIAN_POINT ( 'NONE',  ( 12.95929214352107195, 1.297928918434104587E-13, 0.000000000000000000 ) ) ;
#647 = VECTOR ( 'NONE', #94, 1000.000000000000114 ) ;
#648 = VECTOR ( 'NONE', #1012, 1000.000000000000000 ) ;
#649 = DIRECTION ( 'NONE',  ( -0.8660254037844364872, -0.5000000000000036637, 0.000000000000000000 ) ) ;
#650 = EDGE_LOOP ( 'NONE', ( #569, #218, #675, #863 ) ) ;
#651 = AXIS2_PLACEMENT_3D ( 'NONE', #638, #156, #546 ) ;
#652 = VECTOR ( 'NONE', #688, 1000.000000000000000 ) ;
#653 = CARTESIAN_POINT ( 'NONE',  ( 6.959292143521076390, 2.265260006552525960E-14, 3.000000000000000000 ) ) ;
#654 = VECTOR ( 'NONE', #1210, 1000.000000000000000 ) ;
#655 = CARTESIAN_POINT ( 'NONE',  ( 3.464101615137755719, -1.999999999999998668, 6.000000000000000000 ) ) ;
#656 = CARTESIAN_POINT ( 'NONE',  ( 6.959292143521076390, 2.265260006552525960E-14, 0.000000000000000000 ) ) ;
#657 = ORIENTED_EDGE ( 'NONE', *, *, #316, .F. ) ;
#658 = CARTESIAN_POINT ( 'NONE',  ( 2.309401076758502924, 4.000000000000000888, 6.000000000000000000 ) ) ;
#659 = EDGE_CURVE ( 'NONE', #18, #245, #455, .T. ) ;
#660 = DIRECTION ( 'NONE',  ( -3.255014963930750621E-15, 1.000000000000000000, 0.000000000000000000 ) ) ;
#661 = ORIENTED_EDGE ( 'NONE', *, *, #214, .F. ) ;
#662 = DIRECTION ( 'NONE',  ( 1.000000000000000000, 0.000000000000000000, 0.000000000000000000 ) ) ;
#663 = DIRECTION ( 'NONE',  ( -0.000000000000000000, 0.000000000000000000, 1.000000000000000000 ) ) ;
#664 = VERTEX_POINT ( 'NONE', #658 ) ;
#665 = DIRECTION ( 'NONE',  ( 1.000000000000000000, 0.000000000000000000, 0.000000000000000000 ) ) ;
#666 = VECTOR ( 'NONE', #907, 1000.000000000000000 ) ;
#667 = CARTESIAN_POINT ( 'NONE',  ( -3.479646071760559511, 6.026923788646686653, 3.000000000000000000 ) ) ;
#668 = CARTESIAN_POINT ( 'NONE',  ( 6.479646071760453374, 11.22307621135334266, 3.000000000000000000 ) ) ;
#669 = ADVANCED_FACE ( 'NONE', ( #769, #574 ), #1150, .T. ) ;
#670 = AXIS2_PLACEMENT_3D ( 'NONE', #203, #145, #933 ) ;
#671 = LINE ( 'NONE', #95, #882 ) ;
#672 = CARTESIAN_POINT ( 'NONE',  ( -6.479646071760586601, 11.22307621135331779, 0.000000000000000000 ) ) ;
#673 = VECTOR ( 'NONE', #1160, 1000.000000000000000 ) ;
#674 = VERTEX_POINT ( 'NONE', #872 ) ;
#675 = ORIENTED_EDGE ( 'NONE', *, *, #644, .T. ) ;
#676 = DIRECTION ( 'NONE',  ( -0.8660254037844344888, -0.5000000000000071054, 0.000000000000000000 ) ) ;
#677 = ORIENTED_EDGE ( 'NONE', *, *, #635, .T. ) ;
#678 = DIRECTION ( 'NONE',  ( -0.000000000000000000, -0.000000000000000000, 1.000000000000000000 ) ) ;
#679 = CARTESIAN_POINT ( 'NONE',  ( -11.45929214352103820, 5.750000000000013323, 6.000000000000000000 ) ) ;
#680 = DIRECTION ( 'NONE',  ( 0.8660254037844380415, 0.5000000000000011102, 0.000000000000000000 ) ) ;
#681 = ORIENTED_EDGE ( 'NONE', *, *, #931, .T. ) ;
#682 = DIRECTION ( 'NONE',  ( 1.000000000000000000, 0.000000000000000000, 0.000000000000000000 ) ) ;
#683 = VERTEX_POINT ( 'NONE', #470 ) ;
#684 = LINE ( 'NONE', #861, #158 ) ;
#685 = CARTESIAN_POINT ( 'NONE',  ( -2.309401076758503368, 4.000000000000000888, 2.000000000000000000 ) ) ;
#686 = DIRECTION ( 'NONE',  ( -0.000000000000000000, -0.000000000000000000, 1.000000000000000000 ) ) ;
#687 = EDGE_CURVE ( 'NONE', #25, #121, #1047, .T. ) ;
#688 = DIRECTION ( 'NONE',  ( -0.000000000000000000, -0.000000000000000000, 1.000000000000000000 ) ) ;
#689 = VERTEX_POINT ( 'NONE', #857 ) ;
#690 = VERTEX_POINT ( 'NONE', #450 ) ;
#691 = CARTESIAN_POINT ( 'NONE',  ( 0.000000000000000000, 0.000000000000000000, 6.000000000000000000 ) ) ;
#692 = PLANE ( 'NONE',  #629 ) ;
#693 = VECTOR ( 'NONE', #486, 1000.000000000000000 ) ;
#694 = LINE ( 'NONE', #1073, #64 ) ;
#695 = ORIENTED_EDGE ( 'NONE', *, *, #89, .F. ) ;
#696 = ORIENTED_EDGE ( 'NONE', *, *, #1141, .F. ) ;
#697 = FACE_OUTER_BOUND ( 'NONE', #1164, .T. ) ;
#698 = AXIS2_PLACEMENT_3D ( 'NONE', #1226, #244, #639 ) ;
#699 = ORIENTED_EDGE ( 'NONE', *, *, #515, .T. ) ;
#700 = CARTESIAN_POINT ( 'NONE',  ( -16.50000000000000000, 0.000000000000000000, 6.000000000000000000 ) ) ;
#701 = VERTEX_POINT ( 'NONE', #976 ) ;
#702 = CYLINDRICAL_SURFACE ( 'NONE', #103, 1.500000000000000000 ) ;
#703 = ADVANCED_FACE ( 'NONE', ( #354, #1145 ), #756, .F. ) ;
#704 = CIRCLE ( 'NONE', #93, 1.500000000000000000 ) ;
#705 = FACE_BOUND ( 'NONE', #66, .T. ) ;
#706 = FILL_AREA_STYLE ('',( #506 ) ) ;
#707 = CARTESIAN_POINT ( 'NONE',  ( -6.959292143521038199, 4.017949192431128580, 0.000000000000000000 ) ) ;
#708 = ORIENTED_EDGE ( 'NONE', *, *, #781, .F. ) ;
#709 = CARTESIAN_POINT ( 'NONE',  ( -8.459292143521038199, 5.750000000000013323, 6.000000000000000000 ) ) ;
#710 = EDGE_CURVE ( 'NONE', #18, #867, #88, .T. ) ;
#711 = CARTESIAN_POINT ( 'NONE',  ( 12.95929214352103287, 4.017949192431201411, 0.000000000000000000 ) ) ;
#712 = ORIENTED_EDGE ( 'NONE', *, *, #974, .F. ) ;
#713 = PRESENTATION_LAYER_ASSIGNMENT (  '', '', ( #217 ) ) ;
#714 = DIRECTION ( 'NONE',  ( 1.000000000000000000, 0.000000000000000000, 0.000000000000000000 ) ) ;
#715 = VECTOR ( 'NONE', #251, 1000.000000000000000 ) ;
#716 = VECTOR ( 'NONE', #680, 1000.000000000000114 ) ;
#717 = DIRECTION ( 'NONE',  ( 0.8660254037844345998, 0.5000000000000072164, 0.000000000000000000 ) ) ;
#718 = VECTOR ( 'NONE', #584, 1000.000000000000000 ) ;
#719 = LINE ( 'NONE', #24, #814 ) ;
#720 = VERTEX_POINT ( 'NONE', #187 ) ;
#721 = DIRECTION ( 'NONE',  ( -0.000000000000000000, -0.000000000000000000, 1.000000000000000000 ) ) ;
#722 = EDGE_LOOP ( 'NONE', ( #997, #86, #915, #478 ) ) ;
#723 = VECTOR ( 'NONE', #498, 1000.000000000000000 ) ;
#724 = DIRECTION ( 'NONE',  ( -3.255014963930750621E-15, 1.000000000000000000, 0.000000000000000000 ) ) ;
#725 = CARTESIAN_POINT ( 'NONE',  ( 8.459292143521036422, 5.750000000000036415, 3.000000000000000000 ) ) ;
#726 = COLOUR_RGB ( '',0.7921568627450980005, 0.8196078431372548767, 0.9333333333333333481 ) ;
#727 = VERTEX_POINT ( 'NONE', #172 ) ;
#728 = EDGE_CURVE ( 'NONE', #772, #18, #1252, .T. ) ;
#729 = PLANE ( 'NONE',  #651 ) ;
#730 = EDGE_CURVE ( 'NONE', #454, #287, #161, .T. ) ;
#731 = ORIENTED_EDGE ( 'NONE', *, *, #515, .F. ) ;
#732 = CARTESIAN_POINT ( 'NONE',  ( -1.500000000000004219, 2.598076211353316012, 0.000000000000000000 ) ) ;
#733 = DIRECTION ( 'NONE',  ( -0.000000000000000000, -0.000000000000000000, 1.000000000000000000 ) ) ;
#734 = ORIENTED_EDGE ( 'NONE', *, *, #368, .F. ) ;
#735 = VECTOR ( 'NONE', #326, 1000.000000000000000 ) ;
#736 = DIRECTION ( 'NONE',  ( 0.4999999999999999445, -0.8660254037844387076, 0.000000000000000000 ) ) ;
#737 = LINE ( 'NONE', #50, #776 ) ;
#738 = AXIS2_PLACEMENT_3D ( 'NONE', #896, #901, #411 ) ;
#739 = ORIENTED_EDGE ( 'NONE', *, *, #1198, .T. ) ;
#740 = CARTESIAN_POINT ( 'NONE',  ( -1.499999999999917399, -2.598076211353227194, 3.000000000000000000 ) ) ;
#741 = EDGE_CURVE ( 'NONE', #847, #428, #204, .T. ) ;
#742 = ADVANCED_FACE ( 'NONE', ( #367 ), #276, .F. ) ;
#743 = CARTESIAN_POINT ( 'NONE',  ( 16.50000000000000000, 2.020667218593133100E-15, 0.000000000000000000 ) ) ;
#744 = ORIENTED_EDGE ( 'NONE', *, *, #730, .T. ) ;
#745 = CARTESIAN_POINT ( 'NONE',  ( 6.479646071760417847, -11.22307621135310285, 0.000000000000000000 ) ) ;
#746 = CARTESIAN_POINT ( 'NONE',  ( -1.499999999999998668, -11.50000000000000000, 3.000000000000000000 ) ) ;
#747 = PRODUCT_CONTEXT ( 'NONE', #1100, 'mechanical' ) ;
#748 = ORIENTED_EDGE ( 'NONE', *, *, #281, .F. ) ;
#749 = LINE ( 'NONE', #376, #813 ) ;
#750 = CLOSED_SHELL ( 'NONE', ( #414, #1060, #399, #1062, #128, #815, #489, #242, #153, #370, #359, #34, #1108, #1206, #873, #468, #1034, #973, #669, #391, #575, #742, #1216, #1183, #631, #703, #174, #265, #102, #1104, #415, #1134, #820, #539, #28, #62, #955, #830, #241, #1261 ) ) ;
#751 = LINE ( 'NONE', #83, #137 ) ;
#752 = DIRECTION ( 'NONE',  ( 0.8660254037844415942, -0.4999999999999949485, 0.000000000000000000 ) ) ;
#753 = ORIENTED_EDGE ( 'NONE', *, *, #564, .T. ) ;
#754 = AXIS2_PLACEMENT_3D ( 'NONE', #555, #58, #529 ) ;
#755 = EDGE_CURVE ( 'NONE', #1220, #632, #822, .T. ) ;
#756 = PLANE ( 'NONE',  #107 ) ;
#757 = ORIENTED_EDGE ( 'NONE', *, *, #1026, .F. ) ;
#758 = FACE_OUTER_BOUND ( 'NONE', #372, .T. ) ;
#759 = EDGE_LOOP ( 'NONE', ( #1228, #963, #342, #589 ) ) ;
#760 = CARTESIAN_POINT ( 'NONE',  ( 11.45929214352103820, 5.750000000000036415, 6.000000000000000000 ) ) ;
#761 = AXIS2_PLACEMENT_3D ( 'NONE', #892, #1186, #33 ) ;
#762 = DIRECTION ( 'NONE',  ( 1.000000000000000000, -1.877893248421449036E-16, 0.000000000000000000 ) ) ;
#763 = STYLED_ITEM ( 'NONE', ( #1191 ), #1175 ) ;
#764 = CARTESIAN_POINT ( 'NONE',  ( 8.459292143521036422, 5.750000000000036415, 0.000000000000000000 ) ) ;
#765 = EDGE_CURVE ( 'NONE', #689, #701, #347, .T. ) ;
#766 = CARTESIAN_POINT ( 'NONE',  ( 2.999999999999735767, 9.765044891791392398E-15, 0.000000000000000000 ) ) ;
#767 = ORIENTED_EDGE ( 'NONE', *, *, #1026, .T. ) ;
#768 = CARTESIAN_POINT ( 'NONE',  ( -1.500000000000004219, 2.598076211353316012, 3.000000000000000000 ) ) ;
#769 = FACE_BOUND ( 'NONE', #1033, .T. ) ;
#770 = VERTEX_POINT ( 'NONE', #746 ) ;
#771 = LINE ( 'NONE', #1165, #1188 ) ;
#772 = VERTEX_POINT ( 'NONE', #252 ) ;
#773 = AXIS2_PLACEMENT_3D ( 'NONE', #472, #1158, #665 ) ;
#774 = DIRECTION ( 'NONE',  ( 0.4999999999999996114, 0.8660254037844388186, 0.000000000000000000 ) ) ;
#775 = ORIENTED_EDGE ( 'NONE', *, *, #256, .F. ) ;
#776 = VECTOR ( 'NONE', #724, 1000.000000000000000 ) ;
#777 = LINE ( 'NONE', #1066, #652 ) ;
#778 = VECTOR ( 'NONE', #678, 1000.000000000000000 ) ;
#779 = EDGE_LOOP ( 'NONE', ( #1022, #792, #328, #902 ) ) ;
#780 = LINE ( 'NONE', #1174, #693 ) ;
#781 = EDGE_CURVE ( 'NONE', #207, #1161, #737, .T. ) ;
#782 = DIRECTION ( 'NONE',  ( -0.000000000000000000, 0.000000000000000000, 1.000000000000000000 ) ) ;
#783 = DIRECTION ( 'NONE',  ( -0.000000000000000000, 0.000000000000000000, 1.000000000000000000 ) ) ;
#784 = LINE ( 'NONE', #291, #319 ) ;
#785 = VERTEX_POINT ( 'NONE', #1140 ) ;
#786 = DIRECTION ( 'NONE',  ( -0.000000000000000000, -0.000000000000000000, 1.000000000000000000 ) ) ;
#787 = DIRECTION ( 'NONE',  ( 1.051620219116088729E-14, -1.000000000000000000, 0.000000000000000000 ) ) ;
#788 = LINE ( 'NONE', #384, #259 ) ;
#789 = ORIENTED_EDGE ( 'NONE', *, *, #803, .F. ) ;
#790 = ORIENTED_EDGE ( 'NONE', *, *, #306, .T. ) ;
#791 = DIRECTION ( 'NONE',  ( 1.000000000000000000, 0.000000000000000000, 0.000000000000000000 ) ) ;
#792 = ORIENTED_EDGE ( 'NONE', *, *, #154, .F. ) ;
#793 = CIRCLE ( 'NONE', #39, 1.500000000000001332 ) ;
#794 = FACE_OUTER_BOUND ( 'NONE', #129, .T. ) ;
#795 = EDGE_CURVE ( 'NONE', #664, #1143, #1042, .T. ) ;
#796 = UNCERTAINTY_MEASURE_WITH_UNIT (LENGTH_MEASURE( 1.000000000000000082E-05 ), #327, 'distance_accuracy_value', 'NONE');
#797 = VERTEX_POINT ( 'NONE', #1121 ) ;
#798 = DIRECTION ( 'NONE',  ( -0.000000000000000000, -0.000000000000000000, 1.000000000000000000 ) ) ;
#799 = VECTOR ( 'NONE', #843, 999.9999999999998863 ) ;
#800 = LINE ( 'NONE', #284, #647 ) ;
#801 = CARTESIAN_POINT ( 'NONE',  ( -16.50000000000000000, 0.000000000000000000, 0.000000000000000000 ) ) ;
#802 = AXIS2_PLACEMENT_3D ( 'NONE', #1091, #904, #998 ) ;
#803 = EDGE_CURVE ( 'NONE', #121, #674, #1137, .T. ) ;
#804 = ORIENTED_EDGE ( 'NONE', *, *, #643, .T. ) ;
#805 = CARTESIAN_POINT ( 'NONE',  ( -2.999999999999891198, -3.154860657348151960E-14, 0.000000000000000000 ) ) ;
#806 =( NAMED_UNIT ( * ) PLANE_ANGLE_UNIT ( ) SI_UNIT ( $, .RADIAN. ) );
#807 = VERTEX_POINT ( 'NONE', #930 ) ;
#808 = DIRECTION ( 'NONE',  ( -0.000000000000000000, -0.000000000000000000, 1.000000000000000000 ) ) ;
#809 = ORIENTED_EDGE ( 'NONE', *, *, #344, .F. ) ;
#810 = LINE ( 'NONE', #317, #666 ) ;
#811 = ORIENTED_EDGE ( 'NONE', *, *, #10, .T. ) ;
#812 = DIRECTION ( 'NONE',  ( -0.000000000000000000, 0.000000000000000000, 1.000000000000000000 ) ) ;
#813 = VECTOR ( 'NONE', #166, 1000.000000000000000 ) ;
#814 = VECTOR ( 'NONE', #601, 1000.000000000000000 ) ;
#815 = ADVANCED_FACE ( 'NONE', ( #139 ), #163, .F. ) ;
#816 = DIRECTION ( 'NONE',  ( -0.000000000000000000, -0.000000000000000000, 1.000000000000000000 ) ) ;
#817 = PLANE ( 'NONE',  #609 ) ;
#818 = CARTESIAN_POINT ( 'NONE',  ( 4.618802153517007625, 2.602085213965210642E-15, 2.000000000000000000 ) ) ;
#819 = ORIENTED_EDGE ( 'NONE', *, *, #168, .T. ) ;
#820 = ADVANCED_FACE ( 'NONE', ( #422, #926 ), #146, .F. ) ;
#821 = CARTESIAN_POINT ( 'NONE',  ( -8.459292143521038199, 5.750000000000013323, 0.000000000000000000 ) ) ;
#822 = LINE ( 'NONE', #1133, #834 ) ;
#823 = PLANE ( 'NONE',  #1266 ) ;
#824 = EDGE_LOOP ( 'NONE', ( #695, #968, #211, #708, #82, #696 ) ) ;
#825 = CARTESIAN_POINT ( 'NONE',  ( -6.959292143521037310, 0.000000000000000000, 3.000000000000000000 ) ) ;
#826 = LINE ( 'NONE', #1032, #1087 ) ;
#827 = ORIENTED_EDGE ( 'NONE', *, *, #76, .T. ) ;
#828 = EDGE_CURVE ( 'NONE', #1030, #727, #1221, .T. ) ;
#829 = LINE ( 'NONE', #745, #2 ) ;
#830 = ADVANCED_FACE ( 'NONE', ( #331 ), #337, .F. ) ;
#831 = EDGE_CURVE ( 'NONE', #428, #847, #405, .T. ) ;
#832 = VERTEX_POINT ( 'NONE', #248 ) ;
#833 = EDGE_LOOP ( 'NONE', ( #520, #1244, #883, #767 ) ) ;
#834 = VECTOR ( 'NONE', #1126, 1000.000000000000000 ) ;
#835 = DIRECTION ( 'NONE',  ( -0.000000000000000000, 0.000000000000000000, 1.000000000000000000 ) ) ;
#836 = AXIS2_PLACEMENT_3D ( 'NONE', #87, #871, #375 ) ;
#837 = ORIENTED_EDGE ( 'NONE', *, *, #1089, .T. ) ;
#838 = EDGE_CURVE ( 'NONE', #889, #365, #633, .T. ) ;
#839 = CARTESIAN_POINT ( 'NONE',  ( -6.959292143521037310, 7.482050807568894513, 3.000000000000000000 ) ) ;
#840 = DIRECTION ( 'NONE',  ( -0.000000000000000000, -0.000000000000000000, 1.000000000000000000 ) ) ;
#841 = EDGE_CURVE ( 'NONE', #402, #165, #924, .T. ) ;
#842 = ORIENTED_EDGE ( 'NONE', *, *, #192, .F. ) ;
#843 = DIRECTION ( 'NONE',  ( 0.4999999999999999445, -0.8660254037844387076, 0.000000000000000000 ) ) ;
#844 = FACE_BOUND ( 'NONE', #565, .T. ) ;
#845 = CARTESIAN_POINT ( 'NONE',  ( 3.464101615137755719, -1.999999999999998668, 2.000000000000000000 ) ) ;
#846 = EDGE_CURVE ( 'NONE', #683, #207, #826, .T. ) ;
#847 = VERTEX_POINT ( 'NONE', #743 ) ;
#848 = CARTESIAN_POINT ( 'NONE',  ( -3.464101615137755275, -2.000000000000000000, 6.000000000000000000 ) ) ;
#849 = ORIENTED_EDGE ( 'NONE', *, *, #831, .F. ) ;
#850 = DIRECTION ( 'NONE',  ( 0.000000000000000000, 0.000000000000000000, 1.000000000000000000 ) ) ;
#851 = VECTOR ( 'NONE', #417, 999.9999999999998863 ) ;
#852 = DIRECTION ( 'NONE',  ( 3.255014963930527373E-15, -1.000000000000000000, 0.000000000000000000 ) ) ;
#853 = EDGE_CURVE ( 'NONE', #770, #151, #84, .T. ) ;
#854 = VERTEX_POINT ( 'NONE', #642 ) ;
#855 = VECTOR ( 'NONE', #358, 1000.000000000000114 ) ;
#856 = CARTESIAN_POINT ( 'NONE',  ( -3.464101615137755275, 2.000000000000000000, 2.000000000000000000 ) ) ;
#857 = CARTESIAN_POINT ( 'NONE',  ( -2.999999999999752198, -13.23205080756878083, 0.000000000000000000 ) ) ;
#858 = EDGE_CURVE ( 'NONE', #463, #1179, #945, .T. ) ;
#859 = VERTEX_POINT ( 'NONE', #942 ) ;
#860 = EDGE_LOOP ( 'NONE', ( #243, #1149, #120, #934 ) ) ;
#861 = CARTESIAN_POINT ( 'NONE',  ( -3.479646071760618131, -6.026923788646930902, 3.000000000000000000 ) ) ;
#862 = CARTESIAN_POINT ( 'NONE',  ( 1.500000000000001332, -11.50000000000000000, 6.000000000000000000 ) ) ;
#863 = ORIENTED_EDGE ( 'NONE', *, *, #831, .T. ) ;
#864 = CYLINDRICAL_SURFACE ( 'NONE', #1131, 16.50000000000000000 ) ;
#865 = DIRECTION ( 'NONE',  ( 0.000000000000000000, 0.000000000000000000, 1.000000000000000000 ) ) ;
#866 = VERTEX_POINT ( 'NONE', #448 ) ;
#867 = VERTEX_POINT ( 'NONE', #190 ) ;
#868 = SURFACE_SIDE_STYLE ('',( #1070 ) ) ;
#869 = PLANE ( 'NONE',  #885 ) ;
#870 = DIRECTION ( 'NONE',  ( 0.5000000000000072164, -0.8660254037844345998, 0.000000000000000000 ) ) ;
#871 = DIRECTION ( 'NONE',  ( 1.000000000000000000, 3.255014963930750621E-15, 0.000000000000000000 ) ) ;
#872 = CARTESIAN_POINT ( 'NONE',  ( 6.959292143521063956, 4.017949192431159666, 3.000000000000000000 ) ) ;
#873 = ADVANCED_FACE ( 'NONE', ( #373 ), #69, .F. ) ;
#874 = ORIENTED_EDGE ( 'NONE', *, *, #162, .F. ) ;
#875 = ORIENTED_EDGE ( 'NONE', *, *, #118, .T. ) ;
#876 = FACE_BOUND ( 'NONE', #483, .T. ) ;
#877 = AXIS2_PLACEMENT_3D ( 'NONE', #205, #686, #1079 ) ;
#878 = CARTESIAN_POINT ( 'NONE',  ( 0.000000000000000000, 0.000000000000000000, 2.000000000000000000 ) ) ;
#879 = CARTESIAN_POINT ( 'NONE',  ( -9.959292143521048857, 9.214101615137771262, 0.000000000000000000 ) ) ;
#880 = AXIS2_PLACEMENT_3D ( 'NONE', #286, #663, #682 ) ;
#881 = LINE ( 'NONE', #573, #125 ) ;
#882 = VECTOR ( 'NONE', #981, 1000.000000000000114 ) ;
#883 = ORIENTED_EDGE ( 'NONE', *, *, #828, .F. ) ;
#884 = DIRECTION ( 'NONE',  ( 1.000000000000000000, 0.000000000000000000, 0.000000000000000000 ) ) ;
#885 = AXIS2_PLACEMENT_3D ( 'NONE', #656, #453, #852 ) ;
#886 = LINE ( 'NONE', #389, #510 ) ;
#887 = CARTESIAN_POINT ( 'NONE',  ( -1.499999999999998668, -11.50000000000000000, 6.000000000000000000 ) ) ;
#888 = DIRECTION ( 'NONE',  ( 0.000000000000000000, 0.000000000000000000, -1.000000000000000000 ) ) ;
#889 = VERTEX_POINT ( 'NONE', #579 ) ;
#890 = PRODUCT_DEFINITION_CONTEXT ( 'detailed design', #1267, 'design' ) ;
#891 = ORIENTED_EDGE ( 'NONE', *, *, #527, .F. ) ;
#892 = CARTESIAN_POINT ( 'NONE',  ( -1.499999999999917399, -2.598076211353227194, 0.000000000000000000 ) ) ;
#893 = ORIENTED_EDGE ( 'NONE', *, *, #1125, .T. ) ;
#894 = CARTESIAN_POINT ( 'NONE',  ( -11.45929214352103820, 5.750000000000013323, 0.000000000000000000 ) ) ;
#895 = EDGE_CURVE ( 'NONE', #222, #785, #466, .T. ) ;
#896 = CARTESIAN_POINT ( 'NONE',  ( 0.000000000000000000, 0.000000000000000000, 0.000000000000000000 ) ) ;
#897 = EDGE_LOOP ( 'NONE', ( #435, #176, #891, #909 ) ) ;
#898 = LINE ( 'NONE', #9, #723 ) ;
#899 = VECTOR ( 'NONE', #31, 1000.000000000000000 ) ;
#900 = CARTESIAN_POINT ( 'NONE',  ( 2.309401076758503368, -4.000000000000001776, 2.000000000000000000 ) ) ;
#901 = DIRECTION ( 'NONE',  ( -0.000000000000000000, 0.000000000000000000, 1.000000000000000000 ) ) ;
#902 = ORIENTED_EDGE ( 'NONE', *, *, #40, .T. ) ;
#903 = ORIENTED_EDGE ( 'NONE', *, *, #765, .F. ) ;
#904 = DIRECTION ( 'NONE',  ( -0.000000000000000000, -0.000000000000000000, 1.000000000000000000 ) ) ;
#905 = EDGE_CURVE ( 'NONE', #199, #1120, #63, .T. ) ;
#906 = VECTOR ( 'NONE', #1152, 1000.000000000000000 ) ;
#907 = DIRECTION ( 'NONE',  ( 0.8660254037844364872, 0.5000000000000038858, 0.000000000000000000 ) ) ;
#908 = DIRECTION ( 'NONE',  ( 0.4999999999999985012, 0.8660254037844395958, 0.000000000000000000 ) ) ;
#909 = ORIENTED_EDGE ( 'NONE', *, *, #594, .T. ) ;
#910 = FACE_OUTER_BOUND ( 'NONE', #637, .T. ) ;
#911 = AXIS2_PLACEMENT_3D ( 'NONE', #314, #1003, #409 ) ;
#912 = ORIENTED_EDGE ( 'NONE', *, *, #917, .F. ) ;
#913 = LINE ( 'NONE', #627, #547 ) ;
#914 =( NAMED_UNIT ( * ) SI_UNIT ( $, .STERADIAN. ) SOLID_ANGLE_UNIT ( ) );
#915 = ORIENTED_EDGE ( 'NONE', *, *, #728, .F. ) ;
#916 = CARTESIAN_POINT ( 'NONE',  ( 1.500000000000012879, 2.598076211353348430, 0.000000000000000000 ) ) ;
#917 = EDGE_CURVE ( 'NONE', #683, #645, #92, .T. ) ;
#918 = CARTESIAN_POINT ( 'NONE',  ( 0.000000000000000000, 0.000000000000000000, 0.000000000000000000 ) ) ;
#919 = VECTOR ( 'NONE', #406, 1000.000000000000000 ) ;
#920 =( LENGTH_UNIT ( ) NAMED_UNIT ( * ) SI_UNIT ( .MILLI., .METRE. ) );
#921 = ORIENTED_EDGE ( 'NONE', *, *, #162, .T. ) ;
#922 = AXIS2_PLACEMENT_3D ( 'NONE', #951, #456, #676 ) ;
#923 = CARTESIAN_POINT ( 'NONE',  ( -6.959292143521037310, 7.482050807568894513, 0.000000000000000000 ) ) ;
#924 = CIRCLE ( 'NONE', #1045, 1.500000000000001332 ) ;
#925 = EDGE_LOOP ( 'NONE', ( #196, #131, #49, #545 ) ) ;
#926 = FACE_OUTER_BOUND ( 'NONE', #824, .T. ) ;
#927 = DIRECTION ( 'NONE',  ( 1.000000000000000000, 0.000000000000000000, 0.000000000000000000 ) ) ;
#928 = EDGE_LOOP ( 'NONE', ( #528, #582, #819, #171, #1069, #893 ) ) ;
#929 = DIRECTION ( 'NONE',  ( -0.000000000000000000, -0.000000000000000000, 1.000000000000000000 ) ) ;
#930 = CARTESIAN_POINT ( 'NONE',  ( 12.95929214352099734, 7.482050807568938922, 3.000000000000000000 ) ) ;
#931 = EDGE_CURVE ( 'NONE', #287, #454, #301, .T. ) ;
#932 = ORIENTED_EDGE ( 'NONE', *, *, #741, .F. ) ;
#933 = DIRECTION ( 'NONE',  ( 0.000000000000000000, -0.000000000000000000, 1.000000000000000000 ) ) ;
#934 = ORIENTED_EDGE ( 'NONE', *, *, #53, .T. ) ;
#935 = ORIENTED_EDGE ( 'NONE', *, *, #841, .T. ) ;
#936 = CARTESIAN_POINT ( 'NONE',  ( 6.959292143521063956, 4.017949192431159666, 0.000000000000000000 ) ) ;
#937 = ORIENTED_EDGE ( 'NONE', *, *, #335, .F. ) ;
#938 = VECTOR ( 'NONE', #357, 1000.000000000000000 ) ;
#939 = LINE ( 'NONE', #821, #961 ) ;
#940 = EDGE_CURVE ( 'NONE', #720, #522, #457, .T. ) ;
#941 = VECTOR ( 'NONE', #762, 1000.000000000000000 ) ;
#942 = CARTESIAN_POINT ( 'NONE',  ( -4.618802153517006737, 0.000000000000000000, 2.000000000000000000 ) ) ;
#943 = VECTOR ( 'NONE', #752, 999.9999999999998863 ) ;
#944 = ORIENTED_EDGE ( 'NONE', *, *, #209, .F. ) ;
#945 = CIRCLE ( 'NONE', #531, 1.500000000000001332 ) ;
#946 = DIRECTION ( 'NONE',  ( 1.000000000000000000, 0.000000000000000000, -0.000000000000000000 ) ) ;
#947 = DIRECTION ( 'NONE',  ( -0.5000000000000037748, 0.8660254037844365982, 0.000000000000000000 ) ) ;
#948 = ORIENTED_EDGE ( 'NONE', *, *, #1170, .F. ) ;
#949 = DIRECTION ( 'NONE',  ( 1.000000000000000000, 0.000000000000000000, 0.000000000000000000 ) ) ;
#950 = ORIENTED_EDGE ( 'NONE', *, *, #1011, .T. ) ;
#951 = CARTESIAN_POINT ( 'NONE',  ( 3.479646071760662984, -6.026923788646813662, 0.000000000000000000 ) ) ;
#952 = EDGE_CURVE ( 'NONE', #832, #1123, #1078, .T. ) ;
#953 = CARTESIAN_POINT ( 'NONE',  ( -3.464101615137755275, 2.000000000000000000, 2.000000000000000000 ) ) ;
#954 = ORIENTED_EDGE ( 'NONE', *, *, #1197, .F. ) ;
#955 = ADVANCED_FACE ( 'NONE', ( #758 ), #869, .F. ) ;
#956 = CARTESIAN_POINT ( 'NONE',  ( 16.50000000000000000, 2.020667218593133100E-15, 6.000000000000000000 ) ) ;
#957 = CARTESIAN_POINT ( 'NONE',  ( 2.309401076758503368, -4.000000000000001776, 2.000000000000000000 ) ) ;
#958 = EDGE_LOOP ( 'NONE', ( #1051, #1132, #400, #556, #837, #597 ) ) ;
#959 = ORIENTED_EDGE ( 'NONE', *, *, #480, .T. ) ;
#960 =( NAMED_UNIT ( * ) PLANE_ANGLE_UNIT ( ) SI_UNIT ( $, .RADIAN. ) );
#961 = VECTOR ( 'NONE', #534, 1000.000000000000000 ) ;
#962 = CARTESIAN_POINT ( 'NONE',  ( -2.999999999999789502, -9.767949192431283123, 0.000000000000000000 ) ) ;
#963 = ORIENTED_EDGE ( 'NONE', *, *, #383, .T. ) ;
#964 = AXIS2_PLACEMENT_3D ( 'NONE', #732, #535, #230 ) ;
#965 = LINE ( 'NONE', #856, #1113 ) ;
#966 = CARTESIAN_POINT ( 'NONE',  ( 0.000000000000000000, 0.000000000000000000, 0.000000000000000000 ) ) ;
#967 = VERTEX_POINT ( 'NONE', #862 ) ;
#968 = ORIENTED_EDGE ( 'NONE', *, *, #1157, .F. ) ;
#969 = CARTESIAN_POINT ( 'NONE',  ( 2.500000000000000000, 0.000000000000000000, 2.000000000000000000 ) ) ;
#970 = EDGE_LOOP ( 'NONE', ( #488, #712, #1106, #195 ) ) ;
#971 = DIRECTION ( 'NONE',  ( -0.4999999999999999445, -0.8660254037844387076, 0.000000000000000000 ) ) ;
#972 = FACE_OUTER_BOUND ( 'NONE', #1231, .T. ) ;
#973 = ADVANCED_FACE ( 'NONE', ( #85 ), #1061, .F. ) ;
#974 = EDGE_CURVE ( 'NONE', #25, #1166, #1050, .T. ) ;
#975 = CARTESIAN_POINT ( 'NONE',  ( 0.000000000000000000, 0.000000000000000000, 6.000000000000000000 ) ) ;
#976 = CARTESIAN_POINT ( 'NONE',  ( -2.999999999999752198, -13.23205080756878083, 3.000000000000000000 ) ) ;
#977 = ORIENTED_EDGE ( 'NONE', *, *, #499, .F. ) ;
#978 = PLANE ( 'NONE',  #1039 ) ;
#979 = CARTESIAN_POINT ( 'NONE',  ( -12.95929214352102754, 4.017949192431110816, 0.000000000000000000 ) ) ;
#980 = FACE_OUTER_BOUND ( 'NONE', #1076, .T. ) ;
#981 = DIRECTION ( 'NONE',  ( -0.8660254037844364872, -0.5000000000000036637, 0.000000000000000000 ) ) ;
#982 = EDGE_LOOP ( 'NONE', ( #1223, #661, #104, #681 ) ) ;
#983 = DIRECTION ( 'NONE',  ( -1.000000000000000000, 0.000000000000000000, 0.000000000000000000 ) ) ;
#984 = EDGE_CURVE ( 'NONE', #121, #797, #170, .T. ) ;
#985 =( GEOMETRIC_REPRESENTATION_CONTEXT ( 3 ) GLOBAL_UNCERTAINTY_ASSIGNED_CONTEXT ( ( #394 ) ) GLOBAL_UNIT_ASSIGNED_CONTEXT ( ( #1260, #960, #1059 ) ) REPRESENTATION_CONTEXT ( 'NONE', 'WORKASPACE' ) );
#986 = DIRECTION ( 'NONE',  ( -0.8660254037844379305, -0.5000000000000011102, 0.000000000000000000 ) ) ;
#987 = LINE ( 'NONE', #210, #401 ) ;
#988 = VECTOR ( 'NONE', #816, 1000.000000000000000 ) ;
#989 = CARTESIAN_POINT ( 'NONE',  ( -6.959292143521037310, 0.000000000000000000, 0.000000000000000000 ) ) ;
#990 = VERTEX_POINT ( 'NONE', #685 ) ;
#991 = CARTESIAN_POINT ( 'NONE',  ( -1.499999999999998668, -11.50000000000000000, 0.000000000000000000 ) ) ;
#992 = EDGE_LOOP ( 'NONE', ( #277, #224, #292, #1199 ) ) ;
#993 = EDGE_CURVE ( 'NONE', #402, #1179, #1254, .T. ) ;
#994 = DIRECTION ( 'NONE',  ( -0.4999999999999948375, -0.8660254037844415942, 0.000000000000000000 ) ) ;
#995 = DIRECTION ( 'NONE',  ( -0.000000000000000000, 0.000000000000000000, 1.000000000000000000 ) ) ;
#996 = ORIENTED_EDGE ( 'NONE', *, *, #499, .T. ) ;
#997 = ORIENTED_EDGE ( 'NONE', *, *, #26, .T. ) ;
#998 = DIRECTION ( 'NONE',  ( 1.000000000000000000, 0.000000000000000000, 0.000000000000000000 ) ) ;
#999 = CARTESIAN_POINT ( 'NONE',  ( -2.211772431870429045E-14, -8.035898384862507626, 3.000000000000000000 ) ) ;
#1000 = EDGE_CURVE ( 'NONE', #151, #770, #1171, .T. ) ;
#1001 = DIRECTION ( 'NONE',  ( 0.4999999999999999445, -0.8660254037844387076, 0.000000000000000000 ) ) ;
#1002 = ORIENTED_EDGE ( 'NONE', *, *, #514, .F. ) ;
#1003 = DIRECTION ( 'NONE',  ( 0.5000000000000009992, -0.8660254037844380415, 0.000000000000000000 ) ) ;
#1004 = CARTESIAN_POINT ( 'NONE',  ( 2.500000000000000000, 0.000000000000000000, 0.000000000000000000 ) ) ;
#1005 = PLANE ( 'NONE',  #1211 ) ;
#1006 = VECTOR ( 'NONE', #461, 1000.000000000000000 ) ;
#1007 = DIRECTION ( 'NONE',  ( 1.000000000000000000, 0.000000000000000000, 0.000000000000000000 ) ) ;
#1008 = AXIS2_PLACEMENT_3D ( 'NONE', #989, #494, #888 ) ;
#1009 = CARTESIAN_POINT ( 'NONE',  ( -9.959292143521048857, 9.214101615137771262, 3.000000000000000000 ) ) ;
#1010 = EDGE_LOOP ( 'NONE', ( #348, #8 ) ) ;
#1011 = EDGE_CURVE ( 'NONE', #1135, #1241, #1232, .T. ) ;
#1012 = DIRECTION ( 'NONE',  ( -0.000000000000000000, -0.000000000000000000, 1.000000000000000000 ) ) ;
#1013 = ORIENTED_EDGE ( 'NONE', *, *, #48, .F. ) ;
#1014 = CARTESIAN_POINT ( 'NONE',  ( 1.408343819019455979E-15, -11.50000000000000000, 6.000000000000000000 ) ) ;
#1015 = APPLICATION_PROTOCOL_DEFINITION ( 'draft international standard', 'automotive_design', 1998, #1100 ) ;
#1016 = ORIENTED_EDGE ( 'NONE', *, *, #607, .F. ) ;
#1017 = LINE ( 'NONE', #1024, #1147 ) ;
#1018 = ORIENTED_EDGE ( 'NONE', *, *, #838, .T. ) ;
#1019 = DIRECTION ( 'NONE',  ( -0.000000000000000000, -0.000000000000000000, 1.000000000000000000 ) ) ;
#1020 = DIRECTION ( 'NONE',  ( 1.000000000000000000, 0.000000000000000000, 0.000000000000000000 ) ) ;
#1021 = VECTOR ( 'NONE', #1064, 1000.000000000000000 ) ;
#1022 = ORIENTED_EDGE ( 'NONE', *, *, #351, .T. ) ;
#1023 = AXIS2_PLACEMENT_3D ( 'NONE', #1116, #1122, #1020 ) ;
#1024 = CARTESIAN_POINT ( 'NONE',  ( 1.734723475976807094E-15, -14.96410161513749237, 0.000000000000000000 ) ) ;
#1025 = VECTOR ( 'NONE', #270, 1000.000000000000000 ) ;
#1026 = EDGE_CURVE ( 'NONE', #1030, #365, #98, .T. ) ;
#1027 = ORIENTED_EDGE ( 'NONE', *, *, #1125, .F. ) ;
#1028 = DIRECTION ( 'NONE',  ( 1.000000000000000000, 0.000000000000000000, 0.000000000000000000 ) ) ;
#1029 = FACE_BOUND ( 'NONE', #1153, .T. ) ;
#1030 = VERTEX_POINT ( 'NONE', #979 ) ;
#1031 = DIRECTION ( 'NONE',  ( 0.8660254037844380415, 0.5000000000000011102, 0.000000000000000000 ) ) ;
#1032 = CARTESIAN_POINT ( 'NONE',  ( 2.999999999999779288, -13.23205080756873819, 0.000000000000000000 ) ) ;
#1033 = EDGE_LOOP ( 'NONE', ( #590, #467 ) ) ;
#1034 = ADVANCED_FACE ( 'NONE', ( #1071 ), #260, .F. ) ;
#1035 = FACE_OUTER_BOUND ( 'NONE', #650, .T. ) ;
#1036 = CARTESIAN_POINT ( 'NONE',  ( 9.959292143521036422, 5.750000000000036415, 6.000000000000000000 ) ) ;
#1037 = ORIENTED_EDGE ( 'NONE', *, *, #618, .T. ) ;
#1038 = VECTOR ( 'NONE', #99, 1000.000000000000000 ) ;
#1039 = AXIS2_PLACEMENT_3D ( 'NONE', #1077, #850, #182 ) ;
#1040 = CARTESIAN_POINT ( 'NONE',  ( 12.95929214352107195, 1.297928918434104587E-13, 3.000000000000000000 ) ) ;
#1041 = AXIS2_PLACEMENT_3D ( 'NONE', #1119, #521, #47 ) ;
#1042 = LINE ( 'NONE', #544, #279 ) ;
#1043 = VECTOR ( 'NONE', #1207, 1000.000000000000000 ) ;
#1044 = EDGE_LOOP ( 'NONE', ( #753, #954, #1230, #386 ) ) ;
#1045 = AXIS2_PLACEMENT_3D ( 'NONE', #1233, #343, #626 ) ;
#1046 = EDGE_CURVE ( 'NONE', #772, #513, #559, .T. ) ;
#1047 = LINE ( 'NONE', #1243, #6 ) ;
#1048 = FILL_AREA_STYLE ('',( #105 ) ) ;
#1049 = EDGE_CURVE ( 'NONE', #785, #25, #886, .T. ) ;
#1050 = LINE ( 'NONE', #1248, #906 ) ;
#1051 = ORIENTED_EDGE ( 'NONE', *, *, #728, .T. ) ;
#1052 = DIRECTION ( 'NONE',  ( 0.4999999999999996114, 0.8660254037844388186, 0.000000000000000000 ) ) ;
#1053 = DIRECTION ( 'NONE',  ( -0.5000000000000003331, 0.8660254037844383745, 0.000000000000000000 ) ) ;
#1054 = ORIENTED_EDGE ( 'NONE', *, *, #1236, .T. ) ;
#1055 = DIRECTION ( 'NONE',  ( -0.000000000000000000, -0.000000000000000000, -1.000000000000000000 ) ) ;
#1056 = LINE ( 'NONE', #160, #1025 ) ;
#1057 = AXIS2_PLACEMENT_3D ( 'NONE', #918, #1205, #946 ) ;
#1058 = ORIENTED_EDGE ( 'NONE', *, *, #26, .F. ) ;
#1059 =( NAMED_UNIT ( * ) SI_UNIT ( $, .STERADIAN. ) SOLID_ANGLE_UNIT ( ) );
#1060 = ADVANCED_FACE ( 'NONE', ( #11 ), #491, .F. ) ;
#1061 = PLANE ( 'NONE',  #323 ) ;
#1062 = ADVANCED_FACE ( 'NONE', ( #186 ), #864, .T. ) ;
#1063 = EDGE_CURVE ( 'NONE', #785, #167, #694, .T. ) ;
#1064 = DIRECTION ( 'NONE',  ( 1.000000000000000000, -1.877893248421449036E-16, 0.000000000000000000 ) ) ;
#1065 = VECTOR ( 'NONE', #289, 1000.000000000000000 ) ;
#1066 = CARTESIAN_POINT ( 'NONE',  ( 2.500000000000000000, 0.000000000000000000, 0.000000000000000000 ) ) ;
#1067 = CARTESIAN_POINT ( 'NONE',  ( 0.000000000000000000, 0.000000000000000000, 2.000000000000000000 ) ) ;
#1068 = ORIENTED_EDGE ( 'NONE', *, *, #594, .F. ) ;
#1069 = ORIENTED_EDGE ( 'NONE', *, *, #516, .T. ) ;
#1070 = SURFACE_STYLE_FILL_AREA ( #1048 ) ;
#1071 = FACE_OUTER_BOUND ( 'NONE', #1208, .T. ) ;
#1072 = DIRECTION ( 'NONE',  ( 0.8660254037844344888, 0.5000000000000071054, 0.000000000000000000 ) ) ;
#1073 = CARTESIAN_POINT ( 'NONE',  ( 9.959292143521036422, 9.214101615137773038, 0.000000000000000000 ) ) ;
#1074 = VECTOR ( 'NONE', #309, 1000.000000000000114 ) ;
#1075 = EDGE_CURVE ( 'NONE', #151, #967, #881, .T. ) ;
#1076 = EDGE_LOOP ( 'NONE', ( #1054, #731, #613, #1259 ) ) ;
#1077 = CARTESIAN_POINT ( 'NONE',  ( 0.000000000000000000, 0.000000000000000000, 6.000000000000000000 ) ) ;
#1078 = LINE ( 'NONE', #667, #164 ) ;
#1079 = DIRECTION ( 'NONE',  ( 1.000000000000000000, 0.000000000000000000, 0.000000000000000000 ) ) ;
#1080 = CARTESIAN_POINT ( 'NONE',  ( 6.479646071760417847, -11.22307621135310285, 3.000000000000000000 ) ) ;
#1081 = EDGE_LOOP ( 'NONE', ( #388, #1002, #1180, #155 ) ) ;
#1082 = EDGE_CURVE ( 'NONE', #181, #207, #179, .T. ) ;
#1083 = ORIENTED_EDGE ( 'NONE', *, *, #984, .T. ) ;
#1084 = PLANE ( 'NONE',  #670 ) ;
#1085 = VECTOR ( 'NONE', #1246, 1000.000000000000000 ) ;
#1086 = DIRECTION ( 'NONE',  ( -0.8660254037844414832, 0.4999999999999951150, 0.000000000000000000 ) ) ;
#1087 = VECTOR ( 'NONE', #1019, 1000.000000000000000 ) ;
#1088 = DIRECTION ( 'NONE',  ( -0.8660254037844379305, -0.5000000000000011102, 0.000000000000000000 ) ) ;
#1089 = EDGE_CURVE ( 'NONE', #990, #859, #965, .T. ) ;
#1090 = ORIENTED_EDGE ( 'NONE', *, *, #1198, .F. ) ;
#1091 = CARTESIAN_POINT ( 'NONE',  ( -9.959292143521038199, 5.750000000000013323, 0.000000000000000000 ) ) ;
#1092 = EDGE_CURVE ( 'NONE', #167, #1166, #361, .T. ) ;
#1093 = ORIENTED_EDGE ( 'NONE', *, *, #27, .F. ) ;
#1094 = PLANE ( 'NONE',  #568 ) ;
#1095 = ORIENTED_EDGE ( 'NONE', *, *, #624, .F. ) ;
#1096 = UNCERTAINTY_MEASURE_WITH_UNIT (LENGTH_MEASURE( 1.000000000000000082E-05 ), #920, 'distance_accuracy_value', 'NONE');
#1097 = AXIS2_PLACEMENT_3D ( 'NONE', #1194, #300, #305 ) ;
#1098 = ORIENTED_EDGE ( 'NONE', *, *, #1197, .T. ) ;
#1099 = CARTESIAN_POINT ( 'NONE',  ( 1.408343819019455979E-15, -11.50000000000000000, 6.000000000000000000 ) ) ;
#1100 = APPLICATION_CONTEXT ( 'automotive_design' ) ;
#1101 = CARTESIAN_POINT ( 'NONE',  ( 9.959292143521036422, 9.214101615137773038, 3.000000000000000000 ) ) ;
#1102 = DIRECTION ( 'NONE',  ( -0.8660254037844394848, 0.4999999999999984457, 0.000000000000000000 ) ) ;
#1103 = CARTESIAN_POINT ( 'NONE',  ( 9.959292143521036422, 5.750000000000036415, 3.000000000000000000 ) ) ;
#1104 = ADVANCED_FACE ( 'NONE', ( #285 ), #1257, .F. ) ;
#1105 = VECTOR ( 'NONE', #808, 1000.000000000000000 ) ;
#1106 = ORIENTED_EDGE ( 'NONE', *, *, #1049, .F. ) ;
#1107 = CARTESIAN_POINT ( 'NONE',  ( 3.464101615137754830, 2.000000000000001776, 6.000000000000000000 ) ) ;
#1108 = ADVANCED_FACE ( 'NONE', ( #79 ), #206, .F. ) ;
#1109 = CARTESIAN_POINT ( 'NONE',  ( 0.000000000000000000, 0.000000000000000000, 3.000000000000000000 ) ) ;
#1110 = ORIENTED_EDGE ( 'NONE', *, *, #383, .F. ) ;
#1111 = VECTOR ( 'NONE', #630, 1000.000000000000114 ) ;
#1112 = LINE ( 'NONE', #1196, #1074 ) ;
#1113 = VECTOR ( 'NONE', #1264, 999.9999999999998863 ) ;
#1114 = AXIS2_PLACEMENT_3D ( 'NONE', #878, #782, #571 ) ;
#1115 = ORIENTED_EDGE ( 'NONE', *, *, #588, .T. ) ;
#1116 = CARTESIAN_POINT ( 'NONE',  ( 0.000000000000000000, 0.000000000000000000, 0.000000000000000000 ) ) ;
#1117 = CARTESIAN_POINT ( 'NONE',  ( -3.464101615137755275, -2.000000000000000000, 2.000000000000000000 ) ) ;
#1118 = ORIENTED_EDGE ( 'NONE', *, *, #564, .F. ) ;
#1119 = CARTESIAN_POINT ( 'NONE',  ( 0.000000000000000000, 0.000000000000000000, 6.000000000000000000 ) ) ;
#1120 = VERTEX_POINT ( 'NONE', #194 ) ;
#1121 = CARTESIAN_POINT ( 'NONE',  ( 9.959292143521061291, 2.285898384862307342, 0.000000000000000000 ) ) ;
#1122 = DIRECTION ( 'NONE',  ( -0.000000000000000000, 0.000000000000000000, 1.000000000000000000 ) ) ;
#1123 = VERTEX_POINT ( 'NONE', #581 ) ;
#1124 = DIRECTION ( 'NONE',  ( 0.000000000000000000, 1.000000000000000000, -0.000000000000000000 ) ) ;
#1125 = EDGE_CURVE ( 'NONE', #73, #543, #671, .T. ) ;
#1126 = DIRECTION ( 'NONE',  ( -0.000000000000000000, -0.000000000000000000, 1.000000000000000000 ) ) ;
#1127 = PLANE ( 'NONE',  #1057 ) ;
#1128 = VECTOR ( 'NONE', #17, 1000.000000000000000 ) ;
#1129 = ORIENTED_EDGE ( 'NONE', *, *, #40, .F. ) ;
#1130 = LINE ( 'NONE', #54, #1247 ) ;
#1131 = AXIS2_PLACEMENT_3D ( 'NONE', #975, #1055, #566 ) ;
#1132 = ORIENTED_EDGE ( 'NONE', *, *, #710, .T. ) ;
#1133 = CARTESIAN_POINT ( 'NONE',  ( 12.95929214352103287, 4.017949192431201411, 0.000000000000000000 ) ) ;
#1134 = ADVANCED_FACE ( 'NONE', ( #100 ), #484, .F. ) ;
#1135 = VERTEX_POINT ( 'NONE', #956 ) ;
#1136 = DIRECTION ( 'NONE',  ( 0.8660254037844431485, -0.4999999999999921729, 0.000000000000000000 ) ) ;
#1137 = LINE ( 'NONE', #936, #611 ) ;
#1138 = ORIENTED_EDGE ( 'NONE', *, *, #368, .T. ) ;
#1139 = CARTESIAN_POINT ( 'NONE',  ( -9.959292143521038199, 5.750000000000013323, 6.000000000000000000 ) ) ;
#1140 = CARTESIAN_POINT ( 'NONE',  ( 9.959292143521036422, 9.214101615137773038, 0.000000000000000000 ) ) ;
#1141 = EDGE_CURVE ( 'NONE', #701, #181, #788, .T. ) ;
#1142 = SHAPE_DEFINITION_REPRESENTATION ( #35, #1175 ) ;
#1143 = VERTEX_POINT ( 'NONE', #366 ) ;
#1144 = VECTOR ( 'NONE', #197, 1000.000000000000000 ) ;
#1145 = FACE_OUTER_BOUND ( 'NONE', #115, .T. ) ;
#1146 = DIRECTION ( 'NONE',  ( 0.8660254037844345998, 0.5000000000000072164, 0.000000000000000000 ) ) ;
#1147 = VECTOR ( 'NONE', #721, 1000.000000000000000 ) ;
#1148 = DIRECTION ( 'NONE',  ( 0.000000000000000000, 0.000000000000000000, 1.000000000000000000 ) ) ;
#1149 = ORIENTED_EDGE ( 'NONE', *, *, #355, .F. ) ;
#1150 = PLANE ( 'NONE',  #380 ) ;
#1151 = ORIENTED_EDGE ( 'NONE', *, *, #431, .F. ) ;
#1152 = DIRECTION ( 'NONE',  ( -0.000000000000000000, -0.000000000000000000, 1.000000000000000000 ) ) ;
#1153 = EDGE_LOOP ( 'NONE', ( #602, #16 ) ) ;
#1154 = DIRECTION ( 'NONE',  ( 1.000000000000000000, 0.000000000000000000, 0.000000000000000000 ) ) ;
#1155 = FACE_OUTER_BOUND ( 'NONE', #925, .T. ) ;
#1156 = ORIENTED_EDGE ( 'NONE', *, *, #306, .F. ) ;
#1157 = EDGE_CURVE ( 'NONE', #42, #522, #784, .T. ) ;
#1158 = DIRECTION ( 'NONE',  ( -0.000000000000000000, 0.000000000000000000, 1.000000000000000000 ) ) ;
#1159 = ORIENTED_EDGE ( 'NONE', *, *, #687, .T. ) ;
#1160 = DIRECTION ( 'NONE',  ( -0.000000000000000000, -0.000000000000000000, 1.000000000000000000 ) ) ;
#1161 = VERTEX_POINT ( 'NONE', #460 ) ;
#1162 = DIRECTION ( 'NONE',  ( 0.8660254037844413721, -0.4999999999999952260, 0.000000000000000000 ) ) ;
#1163 = DIRECTION ( 'NONE',  ( 1.000000000000000000, 0.000000000000000000, 0.000000000000000000 ) ) ;
#1164 = EDGE_LOOP ( 'NONE', ( #459, #875, #1202, #1193 ) ) ;
#1165 = CARTESIAN_POINT ( 'NONE',  ( -9.959292143521048857, 9.214101615137771262, 0.000000000000000000 ) ) ;
#1166 = VERTEX_POINT ( 'NONE', #296 ) ;
#1167 = DIRECTION ( 'NONE',  ( -0.000000000000000000, 0.000000000000000000, 1.000000000000000000 ) ) ;
#1168 = CIRCLE ( 'NONE', #462, 1.499999999999999556 ) ;
#1169 = CYLINDRICAL_SURFACE ( 'NONE', #877, 1.499999999999999556 ) ;
#1170 = EDGE_CURVE ( 'NONE', #202, #287, #777, .T. ) ;
#1171 = CIRCLE ( 'NONE', #490, 1.500000000000000000 ) ;
#1172 = DIRECTION ( 'NONE',  ( -0.000000000000000000, -0.000000000000000000, 1.000000000000000000 ) ) ;
#1173 = ORIENTED_EDGE ( 'NONE', *, *, #48, .T. ) ;
#1174 = CARTESIAN_POINT ( 'NONE',  ( -2.999999999999891198, -3.154860657348151960E-14, 0.000000000000000000 ) ) ;
#1175 = ADVANCED_BREP_SHAPE_REPRESENTATION ( '가이드', ( #310, #578 ), #1256 ) ;
#1176 = CARTESIAN_POINT ( 'NONE',  ( -2.309401076758504257, -4.000000000000000000, 2.000000000000000000 ) ) ;
#1177 = CARTESIAN_POINT ( 'NONE',  ( 6.959292143521052409, 7.482050807568899842, 0.000000000000000000 ) ) ;
#1178 = DIRECTION ( 'NONE',  ( -0.8660254037844344888, -0.5000000000000069944, 0.000000000000000000 ) ) ;
#1179 = VERTEX_POINT ( 'NONE', #760 ) ;
#1180 = ORIENTED_EDGE ( 'NONE', *, *, #60, .F. ) ;
#1181 = FACE_OUTER_BOUND ( 'NONE', #416, .T. ) ;
#1182 = DIRECTION ( 'NONE',  ( 1.000000000000000000, 0.000000000000000000, 0.000000000000000000 ) ) ;
#1183 = ADVANCED_FACE ( 'NONE', ( #200 ), #587, .F. ) ;
#1184 = DIRECTION ( 'NONE',  ( -0.000000000000000000, -0.000000000000000000, 1.000000000000000000 ) ) ;
#1185 = EDGE_LOOP ( 'NONE', ( #324, #1090, #1218, #235 ) ) ;
#1186 = DIRECTION ( 'NONE',  ( -0.4999999999999921729, -0.8660254037844431485, 0.000000000000000000 ) ) ;
#1187 = EDGE_CURVE ( 'NONE', #59, #159, #109, .T. ) ;
#1188 = VECTOR ( 'NONE', #288, 1000.000000000000000 ) ;
#1189 = PLANE ( 'NONE',  #101 ) ;
#1190 = VECTOR ( 'NONE', #325, 1000.000000000000114 ) ;
#1191 = PRESENTATION_STYLE_ASSIGNMENT (( #621 ) ) ;
#1192 = ORIENTED_EDGE ( 'NONE', *, *, #838, .F. ) ;
#1193 = ORIENTED_EDGE ( 'NONE', *, *, #480, .F. ) ;
#1194 = CARTESIAN_POINT ( 'NONE',  ( 9.959292143521036422, 5.750000000000036415, 0.000000000000000000 ) ) ;
#1195 = DIRECTION ( 'NONE',  ( 0.8660254037844415942, -0.4999999999999948375, 0.000000000000000000 ) ) ;
#1196 = CARTESIAN_POINT ( 'NONE',  ( -6.479646071760586601, 11.22307621135331779, 3.000000000000000000 ) ) ;
#1197 = EDGE_CURVE ( 'NONE', #222, #807, #719, .T. ) ;
#1198 = EDGE_CURVE ( 'NONE', #867, #854, #608, .T. ) ;
#1199 = ORIENTED_EDGE ( 'NONE', *, *, #644, .F. ) ;
#1200 = FACE_BOUND ( 'NONE', #928, .T. ) ;
#1201 = FACE_BOUND ( 'NONE', #345, .T. ) ;
#1202 = ORIENTED_EDGE ( 'NONE', *, *, #1187, .T. ) ;
#1203 = CARTESIAN_POINT ( 'NONE',  ( -12.95929214352102754, 4.017949192431110816, 3.000000000000000000 ) ) ;
#1204 = VECTOR ( 'NONE', #787, 1000.000000000000000 ) ;
#1205 = DIRECTION ( 'NONE',  ( 0.000000000000000000, 0.000000000000000000, 1.000000000000000000 ) ) ;
#1206 = ADVANCED_FACE ( 'NONE', ( #312 ), #1005, .F. ) ;
#1207 = DIRECTION ( 'NONE',  ( -0.000000000000000000, -0.000000000000000000, 1.000000000000000000 ) ) ;
#1208 = EDGE_LOOP ( 'NONE', ( #921, #1093, #593, #739 ) ) ;
#1209 = VECTOR ( 'NONE', #434, 1000.000000000000114 ) ;
#1210 = DIRECTION ( 'NONE',  ( 0.000000000000000000, 1.000000000000000000, -0.000000000000000000 ) ) ;
#1211 = AXIS2_PLACEMENT_3D ( 'NONE', #1117, #215, #1001 ) ;
#1212 = VECTOR ( 'NONE', #1235, 1000.000000000000000 ) ;
#1213 = ORIENTED_EDGE ( 'NONE', *, *, #755, .F. ) ;
#1214 = CARTESIAN_POINT ( 'NONE',  ( -1.499999999999917399, -2.598076211353227194, 0.000000000000000000 ) ) ;
#1215 = LINE ( 'NONE', #213, #899 ) ;
#1216 = ADVANCED_FACE ( 'NONE', ( #512 ), #1094, .F. ) ;
#1217 = DIRECTION ( 'NONE',  ( 0.8660254037844415942, -0.4999999999999949485, 0.000000000000000000 ) ) ;
#1218 = ORIENTED_EDGE ( 'NONE', *, *, #710, .F. ) ;
#1219 = CARTESIAN_POINT ( 'NONE',  ( -12.95929214352105063, 7.482050807568874973, 0.000000000000000000 ) ) ;
#1220 = VERTEX_POINT ( 'NONE', #711 ) ;
#1221 = LINE ( 'NONE', #1214, #1190 ) ;
#1222 = CARTESIAN_POINT ( 'NONE',  ( 6.479646071760453374, 11.22307621135334266, 0.000000000000000000 ) ) ;
#1223 = ORIENTED_EDGE ( 'NONE', *, *, #377, .F. ) ;
#1224 = LINE ( 'NONE', #334, #592 ) ;
#1225 = EDGE_CURVE ( 'NONE', #1268, #202, #23, .T. ) ;
#1226 = CARTESIAN_POINT ( 'NONE',  ( 1.408343819019455979E-15, -11.50000000000000000, 3.000000000000000000 ) ) ;
#1227 = VECTOR ( 'NONE', #430, 1000.000000000000114 ) ;
#1228 = ORIENTED_EDGE ( 'NONE', *, *, #853, .F. ) ;
#1229 = LINE ( 'NONE', #540, #654 ) ;
#1230 = ORIENTED_EDGE ( 'NONE', *, *, #618, .F. ) ;
#1231 = EDGE_LOOP ( 'NONE', ( #32, #1255, #959, #525 ) ) ;
#1232 = CIRCLE ( 'NONE', #612, 16.50000000000000000 ) ;
#1233 = CARTESIAN_POINT ( 'NONE',  ( 9.959292143521036422, 5.750000000000036415, 3.000000000000000000 ) ) ;
#1234 = EDGE_LOOP ( 'NONE', ( #811, #353, #330, #1098 ) ) ;
#1235 = DIRECTION ( 'NONE',  ( -1.001543065824777447E-14, 1.000000000000000000, 0.000000000000000000 ) ) ;
#1236 = EDGE_CURVE ( 'NONE', #674, #313, #44, .T. ) ;
#1237 = DIRECTION ( 'NONE',  ( 0.000000000000000000, 0.000000000000000000, 1.000000000000000000 ) ) ;
#1238 = ORIENTED_EDGE ( 'NONE', *, *, #514, .T. ) ;
#1239 = LINE ( 'NONE', #655, #201 ) ;
#1240 = DIRECTION ( 'NONE',  ( -0.8660254037844387076, 0.4999999999999999445, 0.000000000000000000 ) ) ;
#1241 = VERTEX_POINT ( 'NONE', #700 ) ;
#1242 = VECTOR ( 'NONE', #983, 1000.000000000000000 ) ;
#1243 = CARTESIAN_POINT ( 'NONE',  ( 6.959292143521076390, 2.265260006552525960E-14, 0.000000000000000000 ) ) ;
#1244 = ORIENTED_EDGE ( 'NONE', *, *, #141, .F. ) ;
#1245 = ORIENTED_EDGE ( 'NONE', *, *, #355, .T. ) ;
#1246 = DIRECTION ( 'NONE',  ( -0.000000000000000000, -0.000000000000000000, -1.000000000000000000 ) ) ;
#1247 = VECTOR ( 'NONE', #929, 1000.000000000000000 ) ;
#1248 = CARTESIAN_POINT ( 'NONE',  ( 6.959292143521052409, 7.482050807568899842, 0.000000000000000000 ) ) ;
#1249 = ORIENTED_EDGE ( 'NONE', *, *, #1092, .F. ) ;
#1250 = PRODUCT_DEFINITION ( 'UNKNOWN', '', #70, #890 ) ;
#1251 = DIRECTION ( 'NONE',  ( 0.8660254037844413721, -0.4999999999999951705, 0.000000000000000000 ) ) ;
#1252 = LINE ( 'NONE', #362, #941 ) ;
#1253 = DIRECTION ( 'NONE',  ( -0.8660254037844415942, 0.4999999999999950040, 0.000000000000000000 ) ) ;
#1254 = LINE ( 'NONE', #273, #673 ) ;
#1255 = ORIENTED_EDGE ( 'NONE', *, *, #905, .F. ) ;
#1256 =( GEOMETRIC_REPRESENTATION_CONTEXT ( 3 ) GLOBAL_UNCERTAINTY_ASSIGNED_CONTEXT ( ( #796 ) ) GLOBAL_UNIT_ASSIGNED_CONTEXT ( ( #327, #806, #914 ) ) REPRESENTATION_CONTEXT ( 'NONE', 'WORKASPACE' ) );
#1257 = PLANE ( 'NONE',  #836 ) ;
#1258 = DIRECTION ( 'NONE',  ( 1.000000000000000000, 0.000000000000000000, 0.000000000000000000 ) ) ;
#1259 = ORIENTED_EDGE ( 'NONE', *, *, #803, .T. ) ;
#1260 =( LENGTH_UNIT ( ) NAMED_UNIT ( * ) SI_UNIT ( .MILLI., .METRE. ) );
#1261 = ADVANCED_FACE ( 'NONE', ( #1201, #308 ), #425, .F. ) ;
#1262 = CARTESIAN_POINT ( 'NONE',  ( 1.408343819019455979E-15, -11.50000000000000000, 3.000000000000000000 ) ) ;
#1263 = LINE ( 'NONE', #585, #919 ) ;
#1264 = DIRECTION ( 'NONE',  ( -0.4999999999999999445, -0.8660254037844387076, 0.000000000000000000 ) ) ;
#1265 = CARTESIAN_POINT ( 'NONE',  ( 12.95929214352103287, 4.017949192431201411, 3.000000000000000000 ) ) ;
#1266 = AXIS2_PLACEMENT_3D ( 'NONE', #1222, #332, #237 ) ;
#1267 = APPLICATION_CONTEXT ( 'automotive_design' ) ;
#1268 = VERTEX_POINT ( 'NONE', #407 ) ;
ENDSEC;
END-ISO-10303-21;
