ISO-10303-21;
HEADER;
FILE_DESCRIPTION (( 'STEP AP203' ),
    '1' );
FILE_NAME ('나일론 m3 너트.STEP',
    '2024-09-26T14:18:56',
    ( '' ),
    ( '' ),
    'SwSTEP 2.0',
    'SolidWorks 2022',
    '' );
FILE_SCHEMA (( 'CONFIG_CONTROL_DESIGN' ));
ENDSEC;

DATA;
#1 = CARTESIAN_POINT ( 'NONE',  ( -1.348566928533372344, 2.335786437626907297, 4.299999999999999822 ) ) ;
#2 = EDGE_CURVE ( 'NONE', #395, #399, #331, .T. ) ;
#3 = AXIS2_PLACEMENT_3D ( 'NONE', #69, #447, #366 ) ;
#4 = DIRECTION ( 'NONE',  ( 0.000000000000000000, 0.000000000000000000, 1.000000000000000000 ) ) ;
#5 = CARTESIAN_POINT ( 'NONE',  ( 0.000000000000000000, 0.000000000000000000, 4.299999999999999822 ) ) ;
#6 = DIRECTION ( 'NONE',  ( -1.000000000000000000, 0.000000000000000000, 0.000000000000000000 ) ) ;
#7 = COORDINATED_UNIVERSAL_TIME_OFFSET ( 9, 0, .AHEAD. ) ;
#8 = DIRECTION ( 'NONE',  ( 0.4999999999999998335, 0.8660254037844389297, 0.000000000000000000 ) ) ;
#9 = VECTOR ( 'NONE', #53, 1000.000000000000000 ) ;
#10 = CARTESIAN_POINT ( 'NONE',  ( 1.010362971081844474, -1.750000000000002220, 4.299999999999999822 ) ) ;
#11 = COORDINATED_UNIVERSAL_TIME_OFFSET ( 9, 0, .AHEAD. ) ;
#12 = CARTESIAN_POINT ( 'NONE',  ( 1.587713240271470427, -2.750000000000002220, 4.299999999999999822 ) ) ;
#13 = ORIENTED_EDGE ( 'NONE', *, *, #349, .T. ) ;
#14 = CARTESIAN_POINT ( 'NONE',  ( 1.587713240271469539, 2.750000000000002665, 0.000000000000000000 ) ) ;
#15 = EDGE_CURVE ( 'NONE', #185, #198, #373, .T. ) ;
#16 = VERTEX_POINT ( 'NONE', #130 ) ;
#17 = DIRECTION ( 'NONE',  ( -0.8660254037844388186, 0.4999999999999996669, 0.000000000000000000 ) ) ;
#18 =( GEOMETRIC_REPRESENTATION_CONTEXT ( 3 ) GLOBAL_UNCERTAINTY_ASSIGNED_CONTEXT ( ( #446 ) ) GLOBAL_UNIT_ASSIGNED_CONTEXT ( ( #221, #315, #405 ) ) REPRESENTATION_CONTEXT ( 'NONE', 'WORKASPACE' ) );
#19 = DIRECTION ( 'NONE',  ( 0.000000000000000000, 0.000000000000000000, -1.000000000000000000 ) ) ;
#20 = DIRECTION ( 'NONE',  ( -1.000000000000000000, 1.365740544306509107E-16, 0.000000000000000000 ) ) ;
#21 = DIRECTION ( 'NONE',  ( -0.4999999999999997780, -0.8660254037844388186, 0.000000000000000000 ) ) ;
#22 = CARTESIAN_POINT ( 'NONE',  ( -1.500000000000000222, 0.000000000000000000, 4.299999999999999822 ) ) ;
#23 = ORIENTED_EDGE ( 'NONE', *, *, #335, .F. ) ;
#24 = DIRECTION ( 'NONE',  ( 1.000000000000000000, 0.000000000000000000, 0.000000000000000000 ) ) ;
#25 = ORIENTED_EDGE ( 'NONE', *, *, #317, .F. ) ;
#26 =( BOUNDED_CURVE ( )  B_SPLINE_CURVE ( 3, ( #183, #269, #104, #420 ),
 .UNSPECIFIED., .F., .T. ) 
 B_SPLINE_CURVE_WITH_KNOTS ( ( 4, 4 ),
 ( 1.570796326794896558, 3.141592653589792672 ),
 .UNSPECIFIED. ) 
 CURVE ( )  GEOMETRIC_REPRESENTATION_ITEM ( )  RATIONAL_B_SPLINE_CURVE ( ( 1.000000000000000000, 0.8047378541243650485, 0.8047378541243650485, 1.000000000000000000 ) ) 
 REPRESENTATION_ITEM ( '' )  );
#27 = LINE ( 'NONE', #301, #136 ) ;
#28 = VECTOR ( 'NONE', #391, 1000.000000000000000 ) ;
#29 = CARTESIAN_POINT ( 'NONE',  ( -1.587713240271472426, 2.750000000000002220, 3.885786437626904899 ) ) ;
#30 = VERTEX_POINT ( 'NONE', #133 ) ;
#31 = VERTEX_POINT ( 'NONE', #336 ) ;
#32 = VECTOR ( 'NONE', #214, 1000.000000000000000 ) ;
#33 = EDGE_CURVE ( 'NONE', #386, #295, #46, .T. ) ;
#34 = EDGE_CURVE ( 'NONE', #483, #31, #326, .T. ) ;
#35 = ORIENTED_EDGE ( 'NONE', *, *, #451, .F. ) ;
#36 = ORIENTED_EDGE ( 'NONE', *, *, #426, .T. ) ;
#37 = PERSON_AND_ORGANIZATION ( #351, #517 ) ;
#38 = DIRECTION ( 'NONE',  ( -0.000000000000000000, -0.000000000000000000, -1.000000000000000000 ) ) ;
#39 = EDGE_LOOP ( 'NONE', ( #498, #68, #455, #73 ) ) ;
#40 = VECTOR ( 'NONE', #456, 1000.000000000000114 ) ;
#41 = DIRECTION ( 'NONE',  ( 0.000000000000000000, 0.000000000000000000, 1.000000000000000000 ) ) ;
#42 = ORIENTED_EDGE ( 'NONE', *, *, #2, .T. ) ;
#43 =( BOUNDED_CURVE ( )  B_SPLINE_CURVE ( 3, ( #377, #177, #127, #417 ),
 .UNSPECIFIED., .F., .T. ) 
 B_SPLINE_CURVE_WITH_KNOTS ( ( 4, 4 ),
 ( 4.336808689942019215E-16, 1.570796326794896780 ),
 .UNSPECIFIED. ) 
 CURVE ( )  GEOMETRIC_REPRESENTATION_ITEM ( )  RATIONAL_B_SPLINE_CURVE ( ( 1.000000000000000000, 0.8047378541243650485, 0.8047378541243650485, 1.000000000000000000 ) ) 
 REPRESENTATION_ITEM ( '' )  );
#44 = DIRECTION ( 'NONE',  ( 1.000000000000000000, -1.365740544306509107E-16, -0.000000000000000000 ) ) ;
#45 = EDGE_CURVE ( 'NONE', #395, #457, #231, .T. ) ;
#46 = LINE ( 'NONE', #416, #9 ) ;
#47 = DIRECTION ( 'NONE',  ( -0.4999999999999997224, -0.8660254037844387076, 0.000000000000000000 ) ) ;
#48 = ORIENTED_EDGE ( 'NONE', *, *, #34, .F. ) ;
#49 = FACE_OUTER_BOUND ( 'NONE', #39, .T. ) ;
#50 = EDGE_CURVE ( 'NONE', #523, #156, #43, .T. ) ;
#51 = ORIENTED_EDGE ( 'NONE', *, *, #451, .T. ) ;
#52 = DIRECTION ( 'NONE',  ( 0.4999999999999996669, 0.8660254037844388186, 0.000000000000000000 ) ) ;
#53 = DIRECTION ( 'NONE',  ( -0.000000000000000000, -0.000000000000000000, -1.000000000000000000 ) ) ;
#54 = CARTESIAN_POINT ( 'NONE',  ( -2.020725942163691613, 1.502797905385973535E-15, 4.299999999999999822 ) ) ;
#55 = CARTESIAN_POINT ( 'NONE',  ( -2.390045952536393895E-16, -1.750000000000001998, 3.299999999999999822 ) ) ;
#56 = LOCAL_TIME ( 23, 18, 56.00000000000000000, #495 ) ;
#57 = FACE_OUTER_BOUND ( 'NONE', #67, .T. ) ;
#58 = CLOSED_SHELL ( 'NONE', ( #196, #501, #489, #508, #187, #103, #515, #401, #500, #108, #322, #202, #96, #438, #474, #372 ) ) ;
#59 = ORIENTED_EDGE ( 'NONE', *, *, #33, .T. ) ;
#60 = CARTESIAN_POINT ( 'NONE',  ( -3.175426480542943075, 8.397721368386712260E-16, 4.299999999999999822 ) ) ;
#61 = AXIS2_PLACEMENT_3D ( 'NONE', #222, #507, #62 ) ;
#62 = DIRECTION ( 'NONE',  ( 0.5000000000000001110, -0.8660254037844384856, 0.000000000000000000 ) ) ;
#63 = ORIENTED_EDGE ( 'NONE', *, *, #74, .T. ) ;
#64 = CYLINDRICAL_SURFACE ( 'NONE', #363, 1.500000000000000222 ) ;
#65 = CARTESIAN_POINT ( 'NONE',  ( -1.500000000000000222, 0.000000000000000000, 4.299999999999999822 ) ) ;
#66 = ORIENTED_EDGE ( 'NONE', *, *, #284, .F. ) ;
#67 = EDGE_LOOP ( 'NONE', ( #272, #353, #23, #356 ) ) ;
#68 = ORIENTED_EDGE ( 'NONE', *, *, #180, .T. ) ;
#69 = CARTESIAN_POINT ( 'NONE',  ( -1.515544456622768488, -0.8750000000000004441, 3.299999999999999822 ) ) ;
#70 = EDGE_LOOP ( 'NONE', ( #218, #463, #110, #48 ) ) ;
#71 = PERSON_AND_ORGANIZATION_ROLE ( 'creator' ) ;
#72 = PLANE ( 'NONE',  #91 ) ;
#73 = ORIENTED_EDGE ( 'NONE', *, *, #497, .T. ) ;
#74 = EDGE_CURVE ( 'NONE', #30, #386, #338, .T. ) ;
#75 = APPROVAL_PERSON_ORGANIZATION ( #328, #92, #527 ) ;
#76 = CARTESIAN_POINT ( 'NONE',  ( 1.587713240271469539, 2.750000000000002665, 0.000000000000000000 ) ) ;
#77 = CARTESIAN_POINT ( 'NONE',  ( -1.587713240271471760, 2.750000000000002665, 3.299999999999999822 ) ) ;
#78 = APPROVAL_DATE_TIME ( #397, #132 ) ;
#79 = CARTESIAN_POINT ( 'NONE',  ( -1.587713240271472204, 2.750000000000002665, 0.000000000000000000 ) ) ;
#80 = CIRCLE ( 'NONE', #153, 1.500000000000000222 ) ;
#81 = ORIENTED_EDGE ( 'NONE', *, *, #291, .T. ) ;
#82 = APPROVAL_STATUS ( 'not_yet_approved' ) ;
#83 = CARTESIAN_POINT ( 'NONE',  ( 0.000000000000000000, 0.000000000000000000, 4.299999999999999822 ) ) ;
#84 = EDGE_CURVE ( 'NONE', #31, #299, #90, .T. ) ;
#85 = EDGE_CURVE ( 'NONE', #107, #526, #98, .T. ) ;
#86 = CARTESIAN_POINT ( 'NONE',  ( 1.348566928533368792, 2.335786437626907741, 4.299999999999999822 ) ) ;
#87 = CARTESIAN_POINT ( 'NONE',  ( 2.309401076758502924, 0.5000000000000003331, 4.299999999999999822 ) ) ;
#88 = ORIENTED_EDGE ( 'NONE', *, *, #163, .T. ) ;
#89 = CARTESIAN_POINT ( 'NONE',  ( 1.500000000000000222, 1.836970198721029934E-16, 4.299999999999999822 ) ) ;
#90 = LINE ( 'NONE', #211, #32 ) ;
#91 = AXIS2_PLACEMENT_3D ( 'NONE', #244, #361, #161 ) ;
#92 = APPROVAL ( #283, 'UNSPECIFIED' ) ;
#93 = DIRECTION ( 'NONE',  ( 1.000000000000000000, 0.000000000000000000, -0.000000000000000000 ) ) ;
#94 = LINE ( 'NONE', #385, #109 ) ;
#95 = ORIENTED_EDGE ( 'NONE', *, *, #34, .T. ) ;
#96 = ADVANCED_FACE ( 'NONE', ( #375 ), #249, .T. ) ;
#97 = LINE ( 'NONE', #135, #227 ) ;
#98 = CIRCLE ( 'NONE', #465, 1.500000000000000222 ) ;
#99 = DIRECTION ( 'NONE',  ( 1.000000000000000000, -0.000000000000000000, -0.000000000000000000 ) ) ;
#100 = ORIENTED_EDGE ( 'NONE', *, *, #194, .F. ) ;
#101 = EDGE_CURVE ( 'NONE', #31, #155, #176, .T. ) ;
#102 = CARTESIAN_POINT ( 'NONE',  ( 1.010362971081844474, -1.750000000000002220, 4.299999999999999822 ) ) ;
#103 = ADVANCED_FACE ( 'NONE', ( #286 ), #452, .F. ) ;
#104 = CARTESIAN_POINT ( 'NONE',  ( -3.175426480542942187, 7.735970390100873701E-16, 3.885786437626904899 ) ) ;
#105 = CC_DESIGN_APPROVAL ( #378, ( #327 ) ) ;
#106 = ADVANCED_BREP_SHAPE_REPRESENTATION ( '나일론 m3 너트', ( #191, #422 ), #18 ) ;
#107 = VERTEX_POINT ( 'NONE', #22 ) ;
#108 = ADVANCED_FACE ( 'NONE', ( #186 ), #341, .F. ) ;
#109 = VECTOR ( 'NONE', #304, 999.9999999999998863 ) ;
#110 = ORIENTED_EDGE ( 'NONE', *, *, #101, .F. ) ;
#111 = ORIENTED_EDGE ( 'NONE', *, *, #15, .T. ) ;
#112 = DIRECTION ( 'NONE',  ( -0.000000000000000000, -0.000000000000000000, -1.000000000000000000 ) ) ;
#113 = ORIENTED_EDGE ( 'NONE', *, *, #228, .F. ) ;
#114 = CALENDAR_DATE ( 2024, 26, 9 ) ;
#115 = CARTESIAN_POINT ( 'NONE',  ( -1.587713240271472204, 2.750000000000002665, 3.300000000000000266 ) ) ;
#116 = ORIENTED_EDGE ( 'NONE', *, *, #388, .T. ) ;
#117 = DATE_AND_TIME ( #114, #471 ) ;
#118 = DIRECTION ( 'NONE',  ( 0.000000000000000000, 0.000000000000000000, 1.000000000000000000 ) ) ;
#119 = DIRECTION ( 'NONE',  ( 1.000000000000000000, 0.000000000000000000, 0.000000000000000000 ) ) ;
#120 = APPROVAL_PERSON_ORGANIZATION ( #37, #132, #358 ) ;
#121 = CYLINDRICAL_SURFACE ( 'NONE', #384, 0.9999999999999997780 ) ;
#122 = DIRECTION ( 'NONE',  ( 0.8660254037844388186, -0.4999999999999997224, 0.000000000000000000 ) ) ;
#123 = DIRECTION ( 'NONE',  ( 0.000000000000000000, 0.000000000000000000, 1.000000000000000000 ) ) ;
#124 = EDGE_CURVE ( 'NONE', #141, #30, #26, .T. ) ;
#125 = LINE ( 'NONE', #410, #343 ) ;
#126 = EDGE_CURVE ( 'NONE', #457, #473, #346, .T. ) ;
#127 = CARTESIAN_POINT ( 'NONE',  ( -1.348566928533370568, -2.335786437626906853, 4.299999999999998934 ) ) ;
#128 = PERSON_AND_ORGANIZATION ( #351, #517 ) ;
#129 = CARTESIAN_POINT ( 'NONE',  ( 0.000000000000000000, 0.000000000000000000, 0.000000000000000000 ) ) ;
#130 = CARTESIAN_POINT ( 'NONE',  ( -3.175426480542943075, 8.397721368386712260E-16, 0.000000000000000000 ) ) ;
#131 = DIRECTION ( 'NONE',  ( -1.365740544306509107E-16, -1.000000000000000000, 0.000000000000000000 ) ) ;
#132 = APPROVAL ( #449, 'UNSPECIFIED' ) ;
#133 = CARTESIAN_POINT ( 'NONE',  ( -3.175426480542943075, 8.397721368386712260E-16, 3.300000000000000266 ) ) ;
#134 = LINE ( 'NONE', #454, #482 ) ;
#135 = CARTESIAN_POINT ( 'NONE',  ( -2.309401076758504701, -0.4999999999999990563, 4.299999999999999822 ) ) ;
#136 = VECTOR ( 'NONE', #189, 1000.000000000000000 ) ;
#137 = VECTOR ( 'NONE', #490, 1000.000000000000000 ) ;
#138 = ORIENTED_EDGE ( 'NONE', *, *, #522, .F. ) ;
#139 = DIRECTION ( 'NONE',  ( -1.000000000000000000, 1.365740544306509107E-16, 0.000000000000000000 ) ) ;
#140 = CYLINDRICAL_SURFACE ( 'NONE', #505, 1.000000000000000000 ) ;
#141 = VERTEX_POINT ( 'NONE', #54 ) ;
#142 = DIRECTION ( 'NONE',  ( -0.000000000000000000, -0.000000000000000000, -1.000000000000000000 ) ) ;
#143 = VECTOR ( 'NONE', #220, 1000.000000000000000 ) ;
#144 = ORIENTED_EDGE ( 'NONE', *, *, #284, .T. ) ;
#145 = CARTESIAN_POINT ( 'NONE',  ( 0.000000000000000000, 1.750000000000002442, 3.299999999999999822 ) ) ;
#146 = EDGE_LOOP ( 'NONE', ( #170, #95, #232, #51 ) ) ;
#147 = LINE ( 'NONE', #181, #475 ) ;
#148 = LINE ( 'NONE', #402, #408 ) ;
#149 = CC_DESIGN_APPROVAL ( #92, ( #403 ) ) ;
#150 = EDGE_CURVE ( 'NONE', #483, #305, #383, .T. ) ;
#151 = ORIENTED_EDGE ( 'NONE', *, *, #497, .F. ) ;
#152 = ORIENTED_EDGE ( 'NONE', *, *, #522, .T. ) ;
#153 = AXIS2_PLACEMENT_3D ( 'NONE', #325, #41, #204 ) ;
#154 = PRODUCT_DEFINITION_SHAPE ( 'NONE', 'NONE',  #424 ) ;
#155 = VERTEX_POINT ( 'NONE', #102 ) ;
#156 = VERTEX_POINT ( 'NONE', #226 ) ;
#157 = COORDINATED_UNIVERSAL_TIME_OFFSET ( 9, 0, .AHEAD. ) ;
#158 = CARTESIAN_POINT ( 'NONE',  ( -1.010362971081846917, 1.750000000000002442, 4.299999999999999822 ) ) ;
#159 = EDGE_LOOP ( 'NONE', ( #116, #245, #205, #100 ) ) ;
#160 = COORDINATED_UNIVERSAL_TIME_OFFSET ( 9, 0, .AHEAD. ) ;
#161 = DIRECTION ( 'NONE',  ( -0.4999999999999999445, 0.8660254037844385966, 0.000000000000000000 ) ) ;
#162 = AXIS2_PLACEMENT_3D ( 'NONE', #55, #20, #131 ) ;
#163 = EDGE_CURVE ( 'NONE', #386, #457, #344, .T. ) ;
#164 = MECHANICAL_CONTEXT ( 'NONE', #172, 'mechanical' ) ;
#165 = DIRECTION ( 'NONE',  ( 1.000000000000000000, 0.000000000000000000, 0.000000000000000000 ) ) ;
#166 = DIRECTION ( 'NONE',  ( -0.4999999999999996669, -0.8660254037844388186, 0.000000000000000000 ) ) ;
#167 = PERSON_AND_ORGANIZATION ( #351, #517 ) ;
#168 = DIRECTION ( 'NONE',  ( -0.8660254037844389297, 0.4999999999999995559, 0.000000000000000000 ) ) ;
#169 = AXIS2_PLACEMENT_3D ( 'NONE', #259, #4, #119 ) ;
#170 = ORIENTED_EDGE ( 'NONE', *, *, #150, .F. ) ;
#171 = APPROVAL_ROLE ( '' ) ;
#172 = APPLICATION_CONTEXT ( 'configuration controlled 3d designs of mechanical parts and assemblies' ) ;
#173 = DIRECTION ( 'NONE',  ( -0.4999999999999996669, -0.8660254037844388186, 0.000000000000000000 ) ) ;
#174 = ORIENTED_EDGE ( 'NONE', *, *, #333, .F. ) ;
#175 = FACE_OUTER_BOUND ( 'NONE', #421, .T. ) ;
#176 =( BOUNDED_CURVE ( )  B_SPLINE_CURVE ( 3, ( #255, #448, #253, #10 ),
 .UNSPECIFIED., .F., .T. ) 
 B_SPLINE_CURVE_WITH_KNOTS ( ( 4, 4 ),
 ( 4.336808689942018722E-16, 1.570796326794896780 ),
 .UNSPECIFIED. ) 
 CURVE ( )  GEOMETRIC_REPRESENTATION_ITEM ( )  RATIONAL_B_SPLINE_CURVE ( ( 1.000000000000000000, 0.8047378541243650485, 0.8047378541243650485, 1.000000000000000000 ) ) 
 REPRESENTATION_ITEM ( '' )  );
#177 = CARTESIAN_POINT ( 'NONE',  ( -1.587713240271470205, -2.750000000000002220, 3.885786437626904899 ) ) ;
#178 = CARTESIAN_POINT ( 'NONE',  ( 1.587713240271469539, 2.750000000000002665, 3.300000000000000266 ) ) ;
#179 = AXIS2_PLACEMENT_3D ( 'NONE', #12, #17, #173 ) ;
#180 = EDGE_CURVE ( 'NONE', #31, #523, #233, .T. ) ;
#181 = CARTESIAN_POINT ( 'NONE',  ( -1.587713240271470649, -2.750000000000001776, 4.299999999999999822 ) ) ;
#182 = DIRECTION ( 'NONE',  ( 1.365740544306509107E-16, 1.000000000000000000, -0.000000000000000000 ) ) ;
#183 = CARTESIAN_POINT ( 'NONE',  ( -2.020725942163691613, 1.502797905385973535E-15, 4.299999999999999822 ) ) ;
#184 = CIRCLE ( 'NONE', #251, 1.500000000000000222 ) ;
#185 = VERTEX_POINT ( 'NONE', #428 ) ;
#186 = FACE_OUTER_BOUND ( 'NONE', #267, .T. ) ;
#187 = ADVANCED_FACE ( 'NONE', ( #302 ), #266, .F. ) ;
#188 = EDGE_LOOP ( 'NONE', ( #279, #357, #393, #509 ) ) ;
#189 = DIRECTION ( 'NONE',  ( -0.000000000000000000, -0.000000000000000000, -1.000000000000000000 ) ) ;
#190 = EDGE_LOOP ( 'NONE', ( #292, #427, #237, #13 ) ) ;
#191 = MANIFOLD_SOLID_BREP ( '필렛1', #58 ) ;
#192 = CARTESIAN_POINT ( 'NONE',  ( -1.587713240271470649, -2.750000000000001332, 3.299999999999999822 ) ) ;
#193 = VECTOR ( 'NONE', #47, 1000.000000000000114 ) ;
#194 = EDGE_CURVE ( 'NONE', #399, #141, #97, .T. ) ;
#195 = CARTESIAN_POINT ( 'NONE',  ( 2.020725942163690725, 8.426265395578050838E-16, 4.299999999999999822 ) ) ;
#196 = ADVANCED_FACE ( 'NONE', ( #57 ), #64, .F. ) ;
#197 = LOCAL_TIME ( 23, 18, 56.00000000000000000, #11 ) ;
#198 = VERTEX_POINT ( 'NONE', #459 ) ;
#199 = VECTOR ( 'NONE', #6, 1000.000000000000000 ) ;
#200 = ORIENTED_EDGE ( 'NONE', *, *, #2, .F. ) ;
#201 = ORIENTED_EDGE ( 'NONE', *, *, #124, .T. ) ;
#202 = ADVANCED_FACE ( 'NONE', ( #387 ), #140, .T. ) ;
#203 = PERSON_AND_ORGANIZATION ( #351, #517 ) ;
#204 = DIRECTION ( 'NONE',  ( 1.000000000000000000, 0.000000000000000000, 0.000000000000000000 ) ) ;
#205 = ORIENTED_EDGE ( 'NONE', *, *, #124, .F. ) ;
#206 = DIRECTION ( 'NONE',  ( 0.4999999999999999445, -0.8660254037844385966, -0.000000000000000000 ) ) ;
#207 = ORIENTED_EDGE ( 'NONE', *, *, #419, .F. ) ;
#208 = DATE_AND_TIME ( #332, #282 ) ;
#209 = VECTOR ( 'NONE', #38, 1000.000000000000000 ) ;
#210 = CARTESIAN_POINT ( 'NONE',  ( 1.515544456622767600, 0.8750000000000003331, 3.299999999999999822 ) ) ;
#211 = CARTESIAN_POINT ( 'NONE',  ( 1.587713240271470427, -2.750000000000002220, 4.299999999999999822 ) ) ;
#212 = DIRECTION ( 'NONE',  ( 1.000000000000000000, 0.000000000000000000, 0.000000000000000000 ) ) ;
#213 = FACE_OUTER_BOUND ( 'NONE', #159, .T. ) ;
#214 = DIRECTION ( 'NONE',  ( -0.000000000000000000, -0.000000000000000000, -1.000000000000000000 ) ) ;
#215 = APPLICATION_PROTOCOL_DEFINITION ( 'international standard', 'config_control_design', 1994, #514 ) ;
#216 = DIRECTION ( 'NONE',  ( 0.000000000000000000, -0.000000000000000000, 1.000000000000000000 ) ) ;
#217 = AXIS2_PLACEMENT_3D ( 'NONE', #306, #261, #265 ) ;
#218 = ORIENTED_EDGE ( 'NONE', *, *, #333, .T. ) ;
#219 = FACE_OUTER_BOUND ( 'NONE', #146, .T. ) ;
#220 = DIRECTION ( 'NONE',  ( -0.4999999999999996669, -0.8660254037844388186, -0.000000000000000000 ) ) ;
#221 =( LENGTH_UNIT ( ) NAMED_UNIT ( * ) SI_UNIT ( .MILLI., .METRE. ) );
#222 = CARTESIAN_POINT ( 'NONE',  ( 3.175426480542941743, 8.478307099857353079E-16, 4.299999999999999822 ) ) ;
#223 = CARTESIAN_POINT ( 'NONE',  ( -1.587713240271470649, -2.750000000000001776, 0.000000000000000000 ) ) ;
#224 = VECTOR ( 'NONE', #99, 1000.000000000000000 ) ;
#225 = CARTESIAN_POINT ( 'NONE',  ( 0.000000000000000000, 0.000000000000000000, 4.299999999999999822 ) ) ;
#226 = CARTESIAN_POINT ( 'NONE',  ( -1.010362971081845140, -1.750000000000001776, 4.299999999999999822 ) ) ;
#227 = VECTOR ( 'NONE', #21, 1000.000000000000114 ) ;
#228 = EDGE_CURVE ( 'NONE', #526, #185, #27, .T. ) ;
#229 = ORIENTED_EDGE ( 'NONE', *, *, #126, .T. ) ;
#230 = DIRECTION ( 'NONE',  ( -0.000000000000000000, -0.000000000000000000, -1.000000000000000000 ) ) ;
#231 =( BOUNDED_CURVE ( )  B_SPLINE_CURVE ( 3, ( #487, #86, #445, #407 ),
 .UNSPECIFIED., .F., .T. ) 
 B_SPLINE_CURVE_WITH_KNOTS ( ( 4, 4 ),
 ( 4.712388980384689674, 6.283185307179586232 ),
 .UNSPECIFIED. ) 
 CURVE ( )  GEOMETRIC_REPRESENTATION_ITEM ( )  RATIONAL_B_SPLINE_CURVE ( ( 1.000000000000000000, 0.8047378541243649375, 0.8047378541243649375, 1.000000000000000000 ) ) 
 REPRESENTATION_ITEM ( '' )  );
#232 = ORIENTED_EDGE ( 'NONE', *, *, #84, .T. ) ;
#233 = LINE ( 'NONE', #192, #518 ) ;
#234 = CYLINDRICAL_SURFACE ( 'NONE', #297, 1.000000000000000222 ) ;
#235 = EDGE_CURVE ( 'NONE', #457, #483, #347, .T. ) ;
#236 = ORIENTED_EDGE ( 'NONE', *, *, #466, .T. ) ;
#237 = ORIENTED_EDGE ( 'NONE', *, *, #150, .T. ) ;
#238 = AXIS2_PLACEMENT_3D ( 'NONE', #281, #166, #122 ) ;
#239 = CC_DESIGN_PERSON_AND_ORGANIZATION_ASSIGNMENT ( #167, #324, ( #327 ) ) ;
#240 = ORIENTED_EDGE ( 'NONE', *, *, #33, .F. ) ;
#241 = PERSON_AND_ORGANIZATION ( #351, #517 ) ;
#242 = CARTESIAN_POINT ( 'NONE',  ( 2.697133857066740692, 2.377266899892317270E-16, 4.299999999999999822 ) ) ;
#243 = EDGE_LOOP ( 'NONE', ( #201, #138, #345, #274 ) ) ;
#244 = CARTESIAN_POINT ( 'NONE',  ( -3.175426480542943075, 8.397721368386712260E-16, 4.299999999999999822 ) ) ;
#245 = ORIENTED_EDGE ( 'NONE', *, *, #74, .F. ) ;
#246 = AXIS2_PLACEMENT_3D ( 'NONE', #290, #256, #499 ) ;
#247 = APPROVAL_DATE_TIME ( #488, #92 ) ;
#248 = LINE ( 'NONE', #76, #137 ) ;
#249 = CYLINDRICAL_SURFACE ( 'NONE', #238, 0.9999999999999998890 ) ;
#250 = DESIGN_CONTEXT ( 'detailed design', #514, 'design' ) ;
#251 = AXIS2_PLACEMENT_3D ( 'NONE', #5, #118, #165 ) ;
#252 = CARTESIAN_POINT ( 'NONE',  ( 3.175426480542941743, 8.478307099857353079E-16, 0.000000000000000000 ) ) ;
#253 = CARTESIAN_POINT ( 'NONE',  ( 1.348566928533370346, -2.335786437626906853, 4.299999999999998934 ) ) ;
#254 = PLANE ( 'NONE',  #179 ) ;
#255 = CARTESIAN_POINT ( 'NONE',  ( 1.587713240271470427, -2.750000000000002220, 3.300000000000000266 ) ) ;
#256 = DIRECTION ( 'NONE',  ( 0.8660254037844388186, -0.4999999999999997780, 0.000000000000000000 ) ) ;
#257 = VERTEX_POINT ( 'NONE', #513 ) ;
#258 = CARTESIAN_POINT ( 'NONE',  ( -1.587713240271470649, -2.750000000000001776, 3.300000000000000266 ) ) ;
#259 = CARTESIAN_POINT ( 'NONE',  ( 0.000000000000000000, 0.000000000000000000, 0.000000000000000000 ) ) ;
#260 = LINE ( 'NONE', #87, #365 ) ;
#261 = DIRECTION ( 'NONE',  ( 0.000000000000000000, -1.000000000000000000, 0.000000000000000000 ) ) ;
#262 = EDGE_CURVE ( 'NONE', #523, #477, #147, .T. ) ;
#263 = AXIS2_PLACEMENT_3D ( 'NONE', #83, #216, #293 ) ;
#264 = VECTOR ( 'NONE', #389, 1000.000000000000000 ) ;
#265 = DIRECTION ( 'NONE',  ( 0.000000000000000000, -0.000000000000000000, -1.000000000000000000 ) ) ;
#266 = PLANE ( 'NONE',  #61 ) ;
#267 = EDGE_LOOP ( 'NONE', ( #113, #476, #442, #469 ) ) ;
#268 = DIRECTION ( 'NONE',  ( -1.000000000000000000, 1.365740544306509107E-16, -0.000000000000000000 ) ) ;
#269 = CARTESIAN_POINT ( 'NONE',  ( -2.697133857066742024, 8.797993356284172856E-16, 4.299999999999998934 ) ) ;
#270 = VECTOR ( 'NONE', #472, 1000.000000000000000 ) ;
#271 = ORIENTED_EDGE ( 'NONE', *, *, #349, .F. ) ;
#272 = ORIENTED_EDGE ( 'NONE', *, *, #85, .T. ) ;
#273 = EDGE_CURVE ( 'NONE', #257, #395, #94, .T. ) ;
#274 = ORIENTED_EDGE ( 'NONE', *, *, #382, .F. ) ;
#275 = CYLINDRICAL_SURFACE ( 'NONE', #3, 1.000000000000000222 ) ;
#276 = ORIENTED_EDGE ( 'NONE', *, *, #45, .F. ) ;
#277 = CARTESIAN_POINT ( 'NONE',  ( -1.587713240271472204, 2.750000000000002665, 0.000000000000000000 ) ) ;
#278 = CC_DESIGN_PERSON_AND_ORGANIZATION_ASSIGNMENT ( #241, #409, ( #403 ) ) ;
#279 = ORIENTED_EDGE ( 'NONE', *, *, #101, .T. ) ;
#280 = CALENDAR_DATE ( 2024, 26, 9 ) ;
#281 = CARTESIAN_POINT ( 'NONE',  ( 1.515544456622768266, -0.8749999999999995559, 3.299999999999999822 ) ) ;
#282 = LOCAL_TIME ( 23, 18, 56.00000000000000000, #7 ) ;
#283 = APPROVAL_STATUS ( 'not_yet_approved' ) ;
#284 = EDGE_CURVE ( 'NONE', #30, #16, #423, .T. ) ;
#285 = LINE ( 'NONE', #79, #193 ) ;
#286 = FACE_OUTER_BOUND ( 'NONE', #318, .T. ) ;
#287 = DATE_TIME_ROLE ( 'creation_date' ) ;
#288 = PLANE ( 'NONE',  #263 ) ;
#289 = CALENDAR_DATE ( 2024, 26, 9 ) ;
#290 = CARTESIAN_POINT ( 'NONE',  ( -1.587713240271472204, 2.750000000000002665, 4.299999999999999822 ) ) ;
#291 = EDGE_CURVE ( 'NONE', #156, #155, #148, .T. ) ;
#292 = ORIENTED_EDGE ( 'NONE', *, *, #126, .F. ) ;
#293 = DIRECTION ( 'NONE',  ( 1.000000000000000000, 0.000000000000000000, -0.000000000000000000 ) ) ;
#294 =( BOUNDED_CURVE ( )  B_SPLINE_CURVE ( 3, ( #316, #398, #242, #195 ),
 .UNSPECIFIED., .F., .T. ) 
 B_SPLINE_CURVE_WITH_KNOTS ( ( 4, 4 ),
 ( 4.336808689942017243E-16, 1.570796326794896336 ),
 .UNSPECIFIED. ) 
 CURVE ( )  GEOMETRIC_REPRESENTATION_ITEM ( )  RATIONAL_B_SPLINE_CURVE ( ( 1.000000000000000000, 0.8047378541243652705, 0.8047378541243652705, 1.000000000000000000 ) ) 
 REPRESENTATION_ITEM ( '' )  );
#295 = VERTEX_POINT ( 'NONE', #277 ) ;
#296 = DIRECTION ( 'NONE',  ( 0.5000000000000000000, -0.8660254037844385966, 0.000000000000000000 ) ) ;
#297 = AXIS2_PLACEMENT_3D ( 'NONE', #369, #8, #168 ) ;
#298 = DIRECTION ( 'NONE',  ( -0.000000000000000000, -0.000000000000000000, -1.000000000000000000 ) ) ;
#299 = VERTEX_POINT ( 'NONE', #352 ) ;
#300 = FACE_OUTER_BOUND ( 'NONE', #439, .T. ) ;
#301 = CARTESIAN_POINT ( 'NONE',  ( 1.500000000000000222, 1.836970198721029934E-16, 4.299999999999999822 ) ) ;
#302 = FACE_OUTER_BOUND ( 'NONE', #190, .T. ) ;
#303 = ORIENTED_EDGE ( 'NONE', *, *, #466, .F. ) ;
#304 = DIRECTION ( 'NONE',  ( -0.5000000000000002220, 0.8660254037844385966, 0.000000000000000000 ) ) ;
#305 = VERTEX_POINT ( 'NONE', #309 ) ;
#306 = CARTESIAN_POINT ( 'NONE',  ( 1.587713240271469539, 2.750000000000002665, 4.299999999999999822 ) ) ;
#307 = CC_DESIGN_APPROVAL ( #132, ( #424 ) ) ;
#308 = AXIS2_PLACEMENT_3D ( 'NONE', #506, #182, #139 ) ;
#309 = CARTESIAN_POINT ( 'NONE',  ( 3.175426480542941743, 8.478307099857353079E-16, 0.000000000000000000 ) ) ;
#310 = EDGE_LOOP ( 'NONE', ( #174, #360, #276, #494 ) ) ;
#311 = ORIENTED_EDGE ( 'NONE', *, *, #426, .F. ) ;
#312 = ORIENTED_EDGE ( 'NONE', *, *, #388, .F. ) ;
#313 =( BOUNDED_CURVE ( )  B_SPLINE_CURVE ( 3, ( #158, #1, #29, #115 ),
 .UNSPECIFIED., .F., .T. ) 
 B_SPLINE_CURVE_WITH_KNOTS ( ( 4, 4 ),
 ( 4.712388980384689674, 6.283185307179586232 ),
 .UNSPECIFIED. ) 
 CURVE ( )  GEOMETRIC_REPRESENTATION_ITEM ( )  RATIONAL_B_SPLINE_CURVE ( ( 1.000000000000000000, 0.8047378541243649375, 0.8047378541243649375, 1.000000000000000000 ) ) 
 REPRESENTATION_ITEM ( '' )  );
#314 = ORIENTED_EDGE ( 'NONE', *, *, #194, .T. ) ;
#315 =( NAMED_UNIT ( * ) PLANE_ANGLE_UNIT ( ) SI_UNIT ( $, .RADIAN. ) );
#316 = CARTESIAN_POINT ( 'NONE',  ( 3.175426480542941743, 8.478307099857353079E-16, 3.300000000000000266 ) ) ;
#317 = EDGE_CURVE ( 'NONE', #526, #107, #184, .T. ) ;
#318 = EDGE_LOOP ( 'NONE', ( #240, #88, #229, #479 ) ) ;
#319 = CARTESIAN_POINT ( 'NONE',  ( 0.000000000000000000, 0.000000000000000000, 0.000000000000000000 ) ) ;
#320 = AXIS2_PLACEMENT_3D ( 'NONE', #129, #413, #93 ) ;
#321 = DIRECTION ( 'NONE',  ( 0.8660254037844387076, 0.5000000000000001110, 0.000000000000000000 ) ) ;
#322 = ADVANCED_FACE ( 'NONE', ( #437 ), #121, .T. ) ;
#323 = DIRECTION ( 'NONE',  ( 1.000000000000000000, 0.000000000000000000, 0.000000000000000000 ) ) ;
#324 = PERSON_AND_ORGANIZATION_ROLE ( 'design_supplier' ) ;
#325 = CARTESIAN_POINT ( 'NONE',  ( 0.000000000000000000, 0.000000000000000000, 0.000000000000000000 ) ) ;
#326 = LINE ( 'NONE', #414, #143 ) ;
#327 = PRODUCT_DEFINITION_FORMATION_WITH_SPECIFIED_SOURCE ( 'ANY', '', #394, .NOT_KNOWN. ) ;
#328 = PERSON_AND_ORGANIZATION ( #351, #517 ) ;
#329 = AXIS2_PLACEMENT_3D ( 'NONE', #350, #230, #467 ) ;
#330 = CARTESIAN_POINT ( 'NONE',  ( 1.587713240271470427, -2.750000000000002220, 0.000000000000000000 ) ) ;
#331 = LINE ( 'NONE', #362, #199 ) ;
#332 = CALENDAR_DATE ( 2024, 26, 9 ) ;
#333 = EDGE_CURVE ( 'NONE', #483, #257, #294, .T. ) ;
#334 = PLANE ( 'NONE',  #246 ) ;
#335 = EDGE_CURVE ( 'NONE', #198, #185, #80, .T. ) ;
#336 = CARTESIAN_POINT ( 'NONE',  ( 1.587713240271470427, -2.750000000000002220, 3.300000000000000266 ) ) ;
#337 = FACE_OUTER_BOUND ( 'NONE', #392, .T. ) ;
#338 = LINE ( 'NONE', #77, #435 ) ;
#339 = APPROVAL_PERSON_ORGANIZATION ( #453, #378, #171 ) ;
#340 = CARTESIAN_POINT ( 'NONE',  ( 3.175426480542941743, 8.478307099857353079E-16, 3.300000000000000266 ) ) ;
#341 = CYLINDRICAL_SURFACE ( 'NONE', #329, 1.500000000000000222 ) ;
#342 = FACE_OUTER_BOUND ( 'NONE', #188, .T. ) ;
#343 = VECTOR ( 'NONE', #206, 1000.000000000000114 ) ;
#344 = LINE ( 'NONE', #504, #224 ) ;
#345 = ORIENTED_EDGE ( 'NONE', *, *, #50, .T. ) ;
#346 = LINE ( 'NONE', #468, #264 ) ;
#347 = LINE ( 'NONE', #462, #431 ) ;
#348 = EDGE_LOOP ( 'NONE', ( #520, #25 ) ) ;
#349 = EDGE_CURVE ( 'NONE', #305, #473, #359, .T. ) ;
#350 = CARTESIAN_POINT ( 'NONE',  ( 0.000000000000000000, 0.000000000000000000, 4.299999999999999822 ) ) ;
#351 = PERSON ( 'UNSPECIFIED', 'UNSPECIFIED', 'UNSPECIFIED', ('UNSPECIFIED'), ('UNSPECIFIED'), ('UNSPECIFIED') ) ;
#352 = CARTESIAN_POINT ( 'NONE',  ( 1.587713240271470427, -2.750000000000002220, 0.000000000000000000 ) ) ;
#353 = ORIENTED_EDGE ( 'NONE', *, *, #228, .T. ) ;
#354 = EDGE_CURVE ( 'NONE', #107, #198, #493, .T. ) ;
#355 = ORIENTED_EDGE ( 'NONE', *, *, #45, .T. ) ;
#356 = ORIENTED_EDGE ( 'NONE', *, *, #354, .F. ) ;
#357 = ORIENTED_EDGE ( 'NONE', *, *, #291, .F. ) ;
#358 = APPROVAL_ROLE ( '' ) ;
#359 = LINE ( 'NONE', #252, #270 ) ;
#360 = ORIENTED_EDGE ( 'NONE', *, *, #235, .F. ) ;
#361 = DIRECTION ( 'NONE',  ( 0.8660254037844387076, 0.5000000000000000000, -0.000000000000000000 ) ) ;
#362 = CARTESIAN_POINT ( 'NONE',  ( -1.587713240271472204, 1.750000000000002442, 4.299999999999999822 ) ) ;
#363 = AXIS2_PLACEMENT_3D ( 'NONE', #225, #298, #379 ) ;
#364 = PERSON_AND_ORGANIZATION_ROLE ( 'creator' ) ;
#365 = VECTOR ( 'NONE', #52, 1000.000000000000000 ) ;
#366 = DIRECTION ( 'NONE',  ( -0.8660254037844387076, -0.4999999999999997780, 0.000000000000000000 ) ) ;
#367 = ORIENTED_EDGE ( 'NONE', *, *, #382, .T. ) ;
#368 = APPLICATION_PROTOCOL_DEFINITION ( 'international standard', 'config_control_design', 1994, #172 ) ;
#369 = CARTESIAN_POINT ( 'NONE',  ( -1.515544456622770042, 0.8750000000000006661, 3.299999999999999822 ) ) ;
#370 = DIRECTION ( 'NONE',  ( 0.000000000000000000, 0.000000000000000000, 1.000000000000000000 ) ) ;
#371 = PERSON_AND_ORGANIZATION_ROLE ( 'design_owner' ) ;
#372 = ADVANCED_FACE ( 'NONE', ( #485 ), #275, .T. ) ;
#373 = CIRCLE ( 'NONE', #169, 1.500000000000000222 ) ;
#374 = CARTESIAN_POINT ( 'NONE',  ( -1.587713240271470649, -2.750000000000001776, 0.000000000000000000 ) ) ;
#375 = FACE_OUTER_BOUND ( 'NONE', #70, .T. ) ;
#376 = CARTESIAN_POINT ( 'NONE',  ( -3.175426480542942631, 1.084202172485504434E-15, 3.299999999999999822 ) ) ;
#377 = CARTESIAN_POINT ( 'NONE',  ( -1.587713240271470649, -2.750000000000001776, 3.300000000000000266 ) ) ;
#378 = APPROVAL ( #82, 'UNSPECIFIED' ) ;
#379 = DIRECTION ( 'NONE',  ( -1.000000000000000000, 0.000000000000000000, 0.000000000000000000 ) ) ;
#380 = LOCAL_TIME ( 23, 18, 56.00000000000000000, #160 ) ;
#381 = DIRECTION ( 'NONE',  ( 1.000000000000000000, -1.365740544306508860E-16, 0.000000000000000000 ) ) ;
#382 = EDGE_CURVE ( 'NONE', #141, #156, #125, .T. ) ;
#383 = LINE ( 'NONE', #510, #511 ) ;
#384 = AXIS2_PLACEMENT_3D ( 'NONE', #210, #443, #321 ) ;
#385 = CARTESIAN_POINT ( 'NONE',  ( 0.7216878364870304985, 2.250000000000002665, 4.299999999999999822 ) ) ;
#386 = VERTEX_POINT ( 'NONE', #525 ) ;
#387 = FACE_OUTER_BOUND ( 'NONE', #460, .T. ) ;
#388 = EDGE_CURVE ( 'NONE', #399, #386, #313, .T. ) ;
#389 = DIRECTION ( 'NONE',  ( -0.000000000000000000, -0.000000000000000000, -1.000000000000000000 ) ) ;
#390 = VECTOR ( 'NONE', #112, 1000.000000000000000 ) ;
#391 = DIRECTION ( 'NONE',  ( 0.4999999999999997224, 0.8660254037844388186, 0.000000000000000000 ) ) ;
#392 = EDGE_LOOP ( 'NONE', ( #35, #151, #303, #311, #207, #271 ) ) ;
#393 = ORIENTED_EDGE ( 'NONE', *, *, #50, .F. ) ;
#394 = PRODUCT ( '나일론 m3 너트', '나일론 m3 너트', '', ( #164 ) ) ;
#395 = VERTEX_POINT ( 'NONE', #406 ) ;
#396 = ORIENTED_EDGE ( 'NONE', *, *, #163, .F. ) ;
#397 = DATE_AND_TIME ( #289, #56 ) ;
#398 = CARTESIAN_POINT ( 'NONE',  ( 3.175426480542941299, 2.908278382983965369E-16, 3.885786437626904899 ) ) ;
#399 = VERTEX_POINT ( 'NONE', #481 ) ;
#400 = DATE_TIME_ROLE ( 'classification_date' ) ;
#401 = ADVANCED_FACE ( 'NONE', ( #441 ), #72, .F. ) ;
#402 = CARTESIAN_POINT ( 'NONE',  ( 1.587713240271470649, -1.750000000000002220, 4.299999999999999822 ) ) ;
#403 = SECURITY_CLASSIFICATION ( '', '', #524 ) ;
#404 = ORIENTED_EDGE ( 'NONE', *, *, #335, .T. ) ;
#405 =( NAMED_UNIT ( * ) SI_UNIT ( $, .STERADIAN. ) SOLID_ANGLE_UNIT ( ) );
#406 = CARTESIAN_POINT ( 'NONE',  ( 1.010362971081843808, 1.750000000000002442, 4.299999999999999822 ) ) ;
#407 = CARTESIAN_POINT ( 'NONE',  ( 1.587713240271469539, 2.750000000000002665, 3.300000000000000266 ) ) ;
#408 = VECTOR ( 'NONE', #44, 1000.000000000000000 ) ;
#409 = PERSON_AND_ORGANIZATION_ROLE ( 'classification_officer' ) ;
#410 = CARTESIAN_POINT ( 'NONE',  ( -0.7216878364870321638, -2.250000000000001776, 4.299999999999999822 ) ) ;
#411 = DIRECTION ( 'NONE',  ( 0.4999999999999997780, 0.8660254037844388186, -0.000000000000000000 ) ) ;
#412 = APPROVAL_DATE_TIME ( #208, #378 ) ;
#413 = DIRECTION ( 'NONE',  ( 0.000000000000000000, -0.000000000000000000, 1.000000000000000000 ) ) ;
#414 = CARTESIAN_POINT ( 'NONE',  ( 1.587713240271470205, -2.750000000000002665, 3.299999999999999822 ) ) ;
#415 = LINE ( 'NONE', #376, #40 ) ;
#416 = CARTESIAN_POINT ( 'NONE',  ( -1.587713240271472204, 2.750000000000002665, 4.299999999999999822 ) ) ;
#417 = CARTESIAN_POINT ( 'NONE',  ( -1.010362971081845140, -1.750000000000001776, 4.299999999999999822 ) ) ;
#418 = LINE ( 'NONE', #223, #432 ) ;
#419 = EDGE_CURVE ( 'NONE', #473, #295, #248, .T. ) ;
#420 = CARTESIAN_POINT ( 'NONE',  ( -3.175426480542943075, 8.397721368386712260E-16, 3.300000000000000266 ) ) ;
#421 = EDGE_LOOP ( 'NONE', ( #66, #63, #59, #36 ) ) ;
#422 = AXIS2_PLACEMENT_3D ( 'NONE', #319, #123, #212 ) ;
#423 = LINE ( 'NONE', #60, #209 ) ;
#424 = PRODUCT_DEFINITION ( 'UNKNOWN', '', #327, #250 ) ;
#425 = DIRECTION ( 'NONE',  ( -0.000000000000000000, -0.000000000000000000, -1.000000000000000000 ) ) ;
#426 = EDGE_CURVE ( 'NONE', #295, #16, #285, .T. ) ;
#427 = ORIENTED_EDGE ( 'NONE', *, *, #235, .T. ) ;
#428 = CARTESIAN_POINT ( 'NONE',  ( 1.500000000000000222, 1.836970198721029934E-16, 0.000000000000000000 ) ) ;
#429 = LINE ( 'NONE', #330, #28 ) ;
#430 = PRODUCT_RELATED_PRODUCT_CATEGORY ( 'detail', '', ( #394 ) ) ;
#431 = VECTOR ( 'NONE', #512, 999.9999999999998863 ) ;
#432 = VECTOR ( 'NONE', #381, 1000.000000000000000 ) ;
#433 = ORIENTED_EDGE ( 'NONE', *, *, #492, .T. ) ;
#434 = EDGE_LOOP ( 'NONE', ( #519, #152, #144, #236 ) ) ;
#435 = VECTOR ( 'NONE', #411, 1000.000000000000114 ) ;
#436 = ORIENTED_EDGE ( 'NONE', *, *, #273, .T. ) ;
#437 = FACE_OUTER_BOUND ( 'NONE', #310, .T. ) ;
#438 = ADVANCED_FACE ( 'NONE', ( #213 ), #234, .T. ) ;
#439 = EDGE_LOOP ( 'NONE', ( #314, #367, #81, #433, #436, #42 ) ) ;
#440 = PERSON_AND_ORGANIZATION ( #351, #517 ) ;
#441 = FACE_OUTER_BOUND ( 'NONE', #434, .T. ) ;
#442 = ORIENTED_EDGE ( 'NONE', *, *, #354, .T. ) ;
#443 = DIRECTION ( 'NONE',  ( 0.5000000000000002220, -0.8660254037844385966, -0.000000000000000000 ) ) ;
#444 = CC_DESIGN_SECURITY_CLASSIFICATION ( #403, ( #327 ) ) ;
#445 = CARTESIAN_POINT ( 'NONE',  ( 1.587713240271468873, 2.750000000000002220, 3.885786437626904011 ) ) ;
#446 = UNCERTAINTY_MEASURE_WITH_UNIT (LENGTH_MEASURE( 1.000000000000000082E-05 ), #221, 'distance_accuracy_value', 'NONE');
#447 = DIRECTION ( 'NONE',  ( -0.5000000000000000000, 0.8660254037844387076, 0.000000000000000000 ) ) ;
#448 = CARTESIAN_POINT ( 'NONE',  ( 1.587713240271469983, -2.750000000000002220, 3.885786437626904899 ) ) ;
#449 = APPROVAL_STATUS ( 'not_yet_approved' ) ;
#450 = PLANE ( 'NONE',  #308 ) ;
#451 = EDGE_CURVE ( 'NONE', #299, #305, #429, .T. ) ;
#452 = PLANE ( 'NONE',  #217 ) ;
#453 = PERSON_AND_ORGANIZATION ( #351, #517 ) ;
#454 = CARTESIAN_POINT ( 'NONE',  ( -3.175426480542943075, 8.397721368386712260E-16, 0.000000000000000000 ) ) ;
#455 = ORIENTED_EDGE ( 'NONE', *, *, #262, .T. ) ;
#456 = DIRECTION ( 'NONE',  ( -0.4999999999999999445, 0.8660254037844385966, -0.000000000000000000 ) ) ;
#457 = VERTEX_POINT ( 'NONE', #178 ) ;
#458 = CYLINDRICAL_SURFACE ( 'NONE', #162, 1.000000000000000000 ) ;
#459 = CARTESIAN_POINT ( 'NONE',  ( -1.500000000000000222, 0.000000000000000000, 0.000000000000000000 ) ) ;
#460 = EDGE_LOOP ( 'NONE', ( #355, #396, #312, #200 ) ) ;
#461 = FACE_BOUND ( 'NONE', #348, .T. ) ;
#462 = CARTESIAN_POINT ( 'NONE',  ( 3.175426480542941743, 3.252606517456513302E-16, 3.299999999999999822 ) ) ;
#463 = ORIENTED_EDGE ( 'NONE', *, *, #492, .F. ) ;
#464 = CC_DESIGN_PERSON_AND_ORGANIZATION_ASSIGNMENT ( #440, #371, ( #394 ) ) ;
#465 = AXIS2_PLACEMENT_3D ( 'NONE', #502, #370, #323 ) ;
#466 = EDGE_CURVE ( 'NONE', #16, #477, #134, .T. ) ;
#467 = DIRECTION ( 'NONE',  ( -1.000000000000000000, 0.000000000000000000, 0.000000000000000000 ) ) ;
#468 = CARTESIAN_POINT ( 'NONE',  ( 1.587713240271469539, 2.750000000000002665, 4.299999999999999822 ) ) ;
#469 = ORIENTED_EDGE ( 'NONE', *, *, #15, .F. ) ;
#470 = CC_DESIGN_DATE_AND_TIME_ASSIGNMENT ( #480, #287, ( #424 ) ) ;
#471 = LOCAL_TIME ( 23, 18, 56.00000000000000000, #157 ) ;
#472 = DIRECTION ( 'NONE',  ( -0.5000000000000001110, 0.8660254037844385966, 0.000000000000000000 ) ) ;
#473 = VERTEX_POINT ( 'NONE', #14 ) ;
#474 = ADVANCED_FACE ( 'NONE', ( #342 ), #458, .T. ) ;
#475 = VECTOR ( 'NONE', #425, 1000.000000000000000 ) ;
#476 = ORIENTED_EDGE ( 'NONE', *, *, #317, .T. ) ;
#477 = VERTEX_POINT ( 'NONE', #374 ) ;
#478 = CC_DESIGN_DATE_AND_TIME_ASSIGNMENT ( #117, #400, ( #403 ) ) ;
#479 = ORIENTED_EDGE ( 'NONE', *, *, #419, .T. ) ;
#480 = DATE_AND_TIME ( #484, #197 ) ;
#481 = CARTESIAN_POINT ( 'NONE',  ( -1.010362971081846917, 1.750000000000002442, 4.299999999999999822 ) ) ;
#482 = VECTOR ( 'NONE', #296, 1000.000000000000227 ) ;
#483 = VERTEX_POINT ( 'NONE', #340 ) ;
#484 = CALENDAR_DATE ( 2024, 26, 9 ) ;
#485 = FACE_OUTER_BOUND ( 'NONE', #243, .T. ) ;
#486 = CC_DESIGN_PERSON_AND_ORGANIZATION_ASSIGNMENT ( #128, #71, ( #424 ) ) ;
#487 = CARTESIAN_POINT ( 'NONE',  ( 1.010362971081843808, 1.750000000000002442, 4.299999999999999822 ) ) ;
#488 = DATE_AND_TIME ( #280, #380 ) ;
#489 = ADVANCED_FACE ( 'NONE', ( #337, #496 ), #503, .F. ) ;
#490 = DIRECTION ( 'NONE',  ( -1.000000000000000000, 0.000000000000000000, 0.000000000000000000 ) ) ;
#491 = SHAPE_DEFINITION_REPRESENTATION ( #154, #106 ) ;
#492 = EDGE_CURVE ( 'NONE', #155, #257, #260, .T. ) ;
#493 = LINE ( 'NONE', #65, #390 ) ;
#494 = ORIENTED_EDGE ( 'NONE', *, *, #273, .F. ) ;
#495 = COORDINATED_UNIVERSAL_TIME_OFFSET ( 9, 0, .AHEAD. ) ;
#496 = FACE_BOUND ( 'NONE', #516, .T. ) ;
#497 = EDGE_CURVE ( 'NONE', #477, #299, #418, .T. ) ;
#498 = ORIENTED_EDGE ( 'NONE', *, *, #84, .F. ) ;
#499 = DIRECTION ( 'NONE',  ( 0.4999999999999997780, 0.8660254037844388186, 0.000000000000000000 ) ) ;
#500 = ADVANCED_FACE ( 'NONE', ( #49 ), #450, .F. ) ;
#501 = ADVANCED_FACE ( 'NONE', ( #300, #461 ), #288, .T. ) ;
#502 = CARTESIAN_POINT ( 'NONE',  ( 0.000000000000000000, 0.000000000000000000, 4.299999999999999822 ) ) ;
#503 = PLANE ( 'NONE',  #320 ) ;
#504 = CARTESIAN_POINT ( 'NONE',  ( 1.587713240271469539, 2.750000000000002665, 3.299999999999999822 ) ) ;
#505 = AXIS2_PLACEMENT_3D ( 'NONE', #145, #24, #19 ) ;
#506 = CARTESIAN_POINT ( 'NONE',  ( -1.587713240271470649, -2.750000000000001776, 4.299999999999999822 ) ) ;
#507 = DIRECTION ( 'NONE',  ( -0.8660254037844385966, -0.5000000000000002220, 0.000000000000000000 ) ) ;
#508 = ADVANCED_FACE ( 'NONE', ( #219 ), #254, .F. ) ;
#509 = ORIENTED_EDGE ( 'NONE', *, *, #180, .F. ) ;
#510 = CARTESIAN_POINT ( 'NONE',  ( 3.175426480542941743, 8.478307099857353079E-16, 4.299999999999999822 ) ) ;
#511 = VECTOR ( 'NONE', #142, 1000.000000000000000 ) ;
#512 = DIRECTION ( 'NONE',  ( 0.5000000000000002220, -0.8660254037844385966, -0.000000000000000000 ) ) ;
#513 = CARTESIAN_POINT ( 'NONE',  ( 2.020725942163690725, 8.426265395578050838E-16, 4.299999999999999822 ) ) ;
#514 = APPLICATION_CONTEXT ( 'configuration controlled 3d designs of mechanical parts and assemblies' ) ;
#515 = ADVANCED_FACE ( 'NONE', ( #175 ), #334, .F. ) ;
#516 = EDGE_LOOP ( 'NONE', ( #404, #111 ) ) ;
#517 = ORGANIZATION ( 'UNSPECIFIED', 'UNSPECIFIED', '' ) ;
#518 = VECTOR ( 'NONE', #268, 1000.000000000000000 ) ;
#519 = ORIENTED_EDGE ( 'NONE', *, *, #262, .F. ) ;
#520 = ORIENTED_EDGE ( 'NONE', *, *, #85, .F. ) ;
#521 = CC_DESIGN_PERSON_AND_ORGANIZATION_ASSIGNMENT ( #203, #364, ( #327 ) ) ;
#522 = EDGE_CURVE ( 'NONE', #523, #30, #415, .T. ) ;
#523 = VERTEX_POINT ( 'NONE', #258 ) ;
#524 = SECURITY_CLASSIFICATION_LEVEL ( 'unclassified' ) ;
#525 = CARTESIAN_POINT ( 'NONE',  ( -1.587713240271472204, 2.750000000000002665, 3.300000000000000266 ) ) ;
#526 = VERTEX_POINT ( 'NONE', #89 ) ;
#527 = APPROVAL_ROLE ( '' ) ;
ENDSEC;
END-ISO-10303-21;
