ISO-10303-21;
HEADER;
FILE_DESCRIPTION (( 'STEP AP203' ),
    '1' );
FILE_NAME ('너트 m5 나일론.STEP',
    '2024-09-26T14:18:40',
    ( '' ),
    ( '' ),
    'SwSTEP 2.0',
    'SolidWorks 2022',
    '' );
FILE_SCHEMA (( 'CONFIG_CONTROL_DESIGN' ));
ENDSEC;

DATA;
#1 = EDGE_CURVE ( 'NONE', #293, #52, #335, .T. ) ;
#2 = ORIENTED_EDGE ( 'NONE', *, *, #336, .T. ) ;
#3 = CIRCLE ( 'NONE', #105, 3.999999999999999112 ) ;
#4 = LINE ( 'NONE', #54, #95 ) ;
#5 = CIRCLE ( 'NONE', #419, 3.999999999999999112 ) ;
#6 = ORIENTED_EDGE ( 'NONE', *, *, #423, .T. ) ;
#7 = ADVANCED_FACE ( 'NONE', ( #235 ), #425, .F. ) ;
#8 = PERSON_AND_ORGANIZATION_ROLE ( 'design_supplier' ) ;
#9 = DIRECTION ( 'NONE',  ( 1.000000000000000000, 0.000000000000000000, -0.000000000000000000 ) ) ;
#10 = ORIENTED_EDGE ( 'NONE', *, *, #356, .F. ) ;
#11 = DIRECTION ( 'NONE',  ( -1.000000000000000000, 0.000000000000000000, 0.000000000000000000 ) ) ;
#12 = CARTESIAN_POINT ( 'NONE',  ( -2.309401076758502924, 3.999999999999998224, 4.000000000000000000 ) ) ;
#13 = CARTESIAN_POINT ( 'NONE',  ( -2.309401076758502924, -3.999999999999998224, 0.000000000000000000 ) ) ;
#14 = DESIGN_CONTEXT ( 'detailed design', #473, 'design' ) ;
#15 = VECTOR ( 'NONE', #461, 1000.000000000000000 ) ;
#16 = VERTEX_POINT ( 'NONE', #239 ) ;
#17 = CARTESIAN_POINT ( 'NONE',  ( -2.309401076758502924, 3.999999999999998224, 0.000000000000000000 ) ) ;
#18 = EDGE_CURVE ( 'NONE', #462, #91, #411, .T. ) ;
#19 = CARTESIAN_POINT ( 'NONE',  ( -2.499999999999998668, 0.000000000000000000, 5.000000000000000000 ) ) ;
#20 = CARTESIAN_POINT ( 'NONE',  ( 2.309401076758504257, -3.999999999999998224, 0.000000000000000000 ) ) ;
#21 = CC_DESIGN_PERSON_AND_ORGANIZATION_ASSIGNMENT ( #562, #598, ( #556 ) ) ;
#22 = ORIENTED_EDGE ( 'NONE', *, *, #315, .F. ) ;
#23 = LOCAL_TIME ( 23, 18, 40.00000000000000000, #508 ) ;
#24 = CARTESIAN_POINT ( 'NONE',  ( 0.000000000000000000, 0.000000000000000000, 5.000000000000000000 ) ) ;
#25 = CARTESIAN_POINT ( 'NONE',  ( -2.309401076758502924, 3.999999999999998224, 4.000000000000000000 ) ) ;
#26 = AXIS2_PLACEMENT_3D ( 'NONE', #306, #552, #77 ) ;
#27 = AXIS2_PLACEMENT_3D ( 'NONE', #171, #252, #405 ) ;
#28 = CARTESIAN_POINT ( 'NONE',  ( 0.000000000000000000, 0.000000000000000000, 4.000000000000000000 ) ) ;
#29 = DIRECTION ( 'NONE',  ( -1.000000000000000000, 0.000000000000000000, 0.000000000000000000 ) ) ;
#30 = CARTESIAN_POINT ( 'NONE',  ( 0.000000000000000000, 3.999999999999998224, 4.000000000000000000 ) ) ;
#31 = CARTESIAN_POINT ( 'NONE',  ( 0.000000000000000000, 0.000000000000000000, 4.000000000000000000 ) ) ;
#32 = ORIENTED_EDGE ( 'NONE', *, *, #223, .T. ) ;
#33 = CARTESIAN_POINT ( 'NONE',  ( -2.309401076758502924, -3.999999999999998224, 0.000000000000000000 ) ) ;
#34 = CIRCLE ( 'NONE', #49, 3.999999999999999112 ) ;
#35 = FACE_OUTER_BOUND ( 'NONE', #222, .T. ) ;
#36 = PLANE ( 'NONE',  #51 ) ;
#37 =( NAMED_UNIT ( * ) SI_UNIT ( $, .STERADIAN. ) SOLID_ANGLE_UNIT ( ) );
#38 = LOCAL_TIME ( 23, 18, 40.00000000000000000, #136 ) ;
#39 = VERTEX_POINT ( 'NONE', #521 ) ;
#40 = EDGE_CURVE ( 'NONE', #453, #597, #101, .T. ) ;
#41 = CIRCLE ( 'NONE', #340, 3.999999999999999112 ) ;
#42 = EDGE_LOOP ( 'NONE', ( #112, #229 ) ) ;
#43 = DIRECTION ( 'NONE',  ( -0.000000000000000000, -0.000000000000000000, -1.000000000000000000 ) ) ;
#44 = ORIENTED_EDGE ( 'NONE', *, *, #255, .F. ) ;
#45 = CALENDAR_DATE ( 2024, 26, 9 ) ;
#46 = CARTESIAN_POINT ( 'NONE',  ( 0.000000000000000000, 0.000000000000000000, 4.000000000000000000 ) ) ;
#47 = VERTEX_POINT ( 'NONE', #19 ) ;
#48 = CALENDAR_DATE ( 2024, 26, 9 ) ;
#49 = AXIS2_PLACEMENT_3D ( 'NONE', #31, #449, #214 ) ;
#50 = DIRECTION ( 'NONE',  ( 0.000000000000000000, 0.000000000000000000, 1.000000000000000000 ) ) ;
#51 = AXIS2_PLACEMENT_3D ( 'NONE', #500, #76, #451 ) ;
#52 = VERTEX_POINT ( 'NONE', #33 ) ;
#53 = PERSON_AND_ORGANIZATION ( #72, #357 ) ;
#54 = CARTESIAN_POINT ( 'NONE',  ( 2.309401076758504257, -3.999999999999998224, 4.000000000000000000 ) ) ;
#55 = DIRECTION ( 'NONE',  ( 0.4999999999999999445, -0.8660254037844385966, 0.000000000000000000 ) ) ;
#56 = APPROVAL_STATUS ( 'not_yet_approved' ) ;
#57 = CARTESIAN_POINT ( 'NONE',  ( 0.000000000000000000, 0.000000000000000000, 4.000000000000000000 ) ) ;
#58 = EDGE_LOOP ( 'NONE', ( #572, #534, #197, #591, #232 ) ) ;
#59 = CARTESIAN_POINT ( 'NONE',  ( 4.618802153517004960, 8.315093865830911809E-16, 4.000000000000000000 ) ) ;
#60 = AXIS2_PLACEMENT_3D ( 'NONE', #373, #92, #427 ) ;
#61 = ORIENTED_EDGE ( 'NONE', *, *, #195, .T. ) ;
#62 = EDGE_CURVE ( 'NONE', #180, #499, #587, .T. ) ;
#63 = DIRECTION ( 'NONE',  ( 0.000000000000000000, 0.000000000000000000, 1.000000000000000000 ) ) ;
#64 = EDGE_CURVE ( 'NONE', #469, #482, #130, .T. ) ;
#65 = EDGE_LOOP ( 'NONE', ( #82, #422, #553 ) ) ;
#66 = CARTESIAN_POINT ( 'NONE',  ( 4.618802153517004960, 8.315093865830911809E-16, 0.000000000000000000 ) ) ;
#67 = EDGE_CURVE ( 'NONE', #460, #330, #181, .T. ) ;
#68 = CARTESIAN_POINT ( 'NONE',  ( -3.464101615137754386, -1.999999999999999556, 4.000000000000000000 ) ) ;
#69 = CARTESIAN_POINT ( 'NONE',  ( -3.464101615137754386, 1.999999999999999556, 4.000000000000000000 ) ) ;
#70 = FACE_OUTER_BOUND ( 'NONE', #455, .T. ) ;
#71 = AXIS2_PLACEMENT_3D ( 'NONE', #382, #567, #144 ) ;
#72 = PERSON ( 'UNSPECIFIED', 'UNSPECIFIED', 'UNSPECIFIED', ('UNSPECIFIED'), ('UNSPECIFIED'), ('UNSPECIFIED') ) ;
#73 = DIRECTION ( 'NONE',  ( -0.4999999999999999445, 0.8660254037844385966, 0.000000000000000000 ) ) ;
#74 = LINE ( 'NONE', #244, #299 ) ;
#75 = EDGE_CURVE ( 'NONE', #561, #378, #211, .T. ) ;
#76 = DIRECTION ( 'NONE',  ( 0.000000000000000000, -0.000000000000000000, 1.000000000000000000 ) ) ;
#77 = DIRECTION ( 'NONE',  ( 1.000000000000000000, 0.000000000000000000, 0.000000000000000000 ) ) ;
#78 = DIRECTION ( 'NONE',  ( -0.8660254037844388186, 0.4999999999999996114, 0.000000000000000000 ) ) ;
#79 = VECTOR ( 'NONE', #143, 1000.000000000000000 ) ;
#80 = VECTOR ( 'NONE', #219, 1000.000000000000000 ) ;
#81 = APPROVAL_STATUS ( 'not_yet_approved' ) ;
#82 = ORIENTED_EDGE ( 'NONE', *, *, #186, .F. ) ;
#83 = CARTESIAN_POINT ( 'NONE',  ( 0.000000000000000000, 0.000000000000000000, 4.000000000000000000 ) ) ;
#84 = EDGE_LOOP ( 'NONE', ( #98, #185, #524, #10, #61 ) ) ;
#85 = EDGE_LOOP ( 'NONE', ( #44, #6, #259 ) ) ;
#86 = DIRECTION ( 'NONE',  ( 0.000000000000000000, -0.000000000000000000, 1.000000000000000000 ) ) ;
#87 = CC_DESIGN_DATE_AND_TIME_ASSIGNMENT ( #372, #323, ( #502 ) ) ;
#88 = ORIENTED_EDGE ( 'NONE', *, *, #270, .F. ) ;
#89 = DATE_AND_TIME ( #129, #23 ) ;
#90 = DIRECTION ( 'NONE',  ( 0.000000000000000000, 0.000000000000000000, 1.000000000000000000 ) ) ;
#91 = VERTEX_POINT ( 'NONE', #253 ) ;
#92 = DIRECTION ( 'NONE',  ( 1.224646799147353207E-16, 1.000000000000000000, -0.000000000000000000 ) ) ;
#93 = ORIENTED_EDGE ( 'NONE', *, *, #336, .F. ) ;
#94 = APPROVAL_ROLE ( '' ) ;
#95 = VECTOR ( 'NONE', #178, 1000.000000000000114 ) ;
#96 = CARTESIAN_POINT ( 'NONE',  ( -2.499999999999998668, 0.000000000000000000, 4.000000000000000000 ) ) ;
#97 = AXIS2_PLACEMENT_3D ( 'NONE', #59, #155, #347 ) ;
#98 = ORIENTED_EDGE ( 'NONE', *, *, #64, .T. ) ;
#99 = APPROVAL_ROLE ( '' ) ;
#100 = LINE ( 'NONE', #269, #15 ) ;
#101 = LINE ( 'NONE', #570, #391 ) ;
#102 = CARTESIAN_POINT ( 'NONE',  ( -4.618802153517004960, -4.023374092638107645E-16, 4.000000000000000000 ) ) ;
#103 = ORIENTED_EDGE ( 'NONE', *, *, #407, .F. ) ;
#104 = DIRECTION ( 'NONE',  ( -0.5000000000000002220, 0.8660254037844385966, 0.000000000000000000 ) ) ;
#105 = AXIS2_PLACEMENT_3D ( 'NONE', #303, #492, #465 ) ;
#106 = ORIENTED_EDGE ( 'NONE', *, *, #368, .F. ) ;
#107 = DIRECTION ( 'NONE',  ( 0.8660254037844387076, 0.5000000000000000000, -0.000000000000000000 ) ) ;
#108 = EDGE_CURVE ( 'NONE', #574, #462, #403, .T. ) ;
#109 = ORIENTED_EDGE ( 'NONE', *, *, #371, .T. ) ;
#110 = DIRECTION ( 'NONE',  ( 1.000000000000000000, 0.000000000000000000, -0.000000000000000000 ) ) ;
#111 = FACE_OUTER_BOUND ( 'NONE', #84, .T. ) ;
#112 = ORIENTED_EDGE ( 'NONE', *, *, #67, .T. ) ;
#113 = APPROVAL_PERSON_ORGANIZATION ( #327, #464, #272 ) ;
#114 = CARTESIAN_POINT ( 'NONE',  ( -2.309401076758502924, 3.999999999999998224, 4.000000000000000000 ) ) ;
#115 = CARTESIAN_POINT ( 'NONE',  ( 2.309401076758504257, -3.999999999999998224, 0.000000000000000000 ) ) ;
#116 = VECTOR ( 'NONE', #459, 1000.000000000000000 ) ;
#117 = ADVANCED_FACE ( 'NONE', ( #35 ), #437, .F. ) ;
#118 = CARTESIAN_POINT ( 'NONE',  ( 2.499999999999998668, 3.061616997868381662E-16, 0.000000000000000000 ) ) ;
#119 = DIRECTION ( 'NONE',  ( 1.000000000000000000, 0.000000000000000000, -0.000000000000000000 ) ) ;
#120 = CARTESIAN_POINT ( 'NONE',  ( -2.309401076758502924, 3.999999999999998224, 4.000000000000000000 ) ) ;
#121 = DIRECTION ( 'NONE',  ( 1.000000000000000000, 0.000000000000000000, 0.000000000000000000 ) ) ;
#122 = EDGE_CURVE ( 'NONE', #180, #16, #355, .T. ) ;
#123 = CIRCLE ( 'NONE', #429, 1.000000000000000000 ) ;
#124 = VECTOR ( 'NONE', #104, 999.9999999999998863 ) ;
#125 = PERSON_AND_ORGANIZATION ( #72, #357 ) ;
#126 = ORIENTED_EDGE ( 'NONE', *, *, #493, .F. ) ;
#127 = PERSON_AND_ORGANIZATION_ROLE ( 'design_owner' ) ;
#128 = ORIENTED_EDGE ( 'NONE', *, *, #236, .F. ) ;
#129 = CALENDAR_DATE ( 2024, 26, 9 ) ;
#130 = LINE ( 'NONE', #115, #448 ) ;
#131 = ORIENTED_EDGE ( 'NONE', *, *, #324, .T. ) ;
#132 = DATE_AND_TIME ( #45, #38 ) ;
#133 = AXIS2_PLACEMENT_3D ( 'NONE', #516, #90, #9 ) ;
#134 = DIRECTION ( 'NONE',  ( 0.000000000000000000, -1.000000000000000000, 0.000000000000000000 ) ) ;
#135 = ORIENTED_EDGE ( 'NONE', *, *, #255, .T. ) ;
#136 = COORDINATED_UNIVERSAL_TIME_OFFSET ( 9, 0, .AHEAD. ) ;
#137 = LINE ( 'NONE', #96, #116 ) ;
#138 = ORIENTED_EDGE ( 'NONE', *, *, #236, .T. ) ;
#139 = PERSON_AND_ORGANIZATION ( #72, #357 ) ;
#140 = DIRECTION ( 'NONE',  ( 1.000000000000000000, 0.000000000000000000, -0.000000000000000000 ) ) ;
#141 = ORIENTED_EDGE ( 'NONE', *, *, #290, .T. ) ;
#142 = CIRCLE ( 'NONE', #488, 2.999999999999999112 ) ;
#143 = DIRECTION ( 'NONE',  ( 1.000000000000000000, 0.000000000000000000, 0.000000000000000000 ) ) ;
#144 = DIRECTION ( 'NONE',  ( 1.000000000000000000, 0.000000000000000000, 0.000000000000000000 ) ) ;
#145 = DIRECTION ( 'NONE',  ( 0.4999999999999999445, -0.8660254037844385966, 0.000000000000000000 ) ) ;
#146 = ORIENTED_EDGE ( 'NONE', *, *, #315, .T. ) ;
#147 = DIRECTION ( 'NONE',  ( 1.000000000000000000, 0.000000000000000000, 0.000000000000000000 ) ) ;
#148 = CC_DESIGN_APPROVAL ( #447, ( #556 ) ) ;
#149 = ORIENTED_EDGE ( 'NONE', *, *, #284, .T. ) ;
#150 = LINE ( 'NONE', #577, #124 ) ;
#151 = AXIS2_PLACEMENT_3D ( 'NONE', #160, #78, #257 ) ;
#152 = ORIENTED_EDGE ( 'NONE', *, *, #501, .F. ) ;
#153 = FACE_OUTER_BOUND ( 'NONE', #479, .T. ) ;
#154 = CARTESIAN_POINT ( 'NONE',  ( -2.309401076758502924, -3.999999999999998224, 4.000000000000000000 ) ) ;
#155 = DIRECTION ( 'NONE',  ( -0.8660254037844385966, -0.5000000000000002220, 0.000000000000000000 ) ) ;
#156 = FACE_OUTER_BOUND ( 'NONE', #416, .T. ) ;
#157 = ORIENTED_EDGE ( 'NONE', *, *, #304, .F. ) ;
#158 = CC_DESIGN_APPROVAL ( #338, ( #262 ) ) ;
#159 = PERSON_AND_ORGANIZATION ( #72, #357 ) ;
#160 = CARTESIAN_POINT ( 'NONE',  ( 2.309401076758504257, -3.999999999999998224, 4.000000000000000000 ) ) ;
#161 = AXIS2_PLACEMENT_3D ( 'NONE', #560, #329, #183 ) ;
#162 = ORIENTED_EDGE ( 'NONE', *, *, #64, .F. ) ;
#163 = DIRECTION ( 'NONE',  ( -0.4999999999999999445, -0.8660254037844385966, 0.000000000000000000 ) ) ;
#164 = ORIENTED_EDGE ( 'NONE', *, *, #407, .T. ) ;
#165 = DIRECTION ( 'NONE',  ( 1.000000000000000000, 0.000000000000000000, 0.000000000000000000 ) ) ;
#166 = CARTESIAN_POINT ( 'NONE',  ( 0.000000000000000000, 0.000000000000000000, 4.000000000000000000 ) ) ;
#167 = CIRCLE ( 'NONE', #517, 2.499999999999998668 ) ;
#168 = PRODUCT ( '너트 m5 나일론', '너트 m5 나일론', '', ( #307 ) ) ;
#169 = EDGE_LOOP ( 'NONE', ( #93, #280 ) ) ;
#170 = VECTOR ( 'NONE', #145, 1000.000000000000114 ) ;
#171 = CARTESIAN_POINT ( 'NONE',  ( 0.000000000000000000, 0.000000000000000000, 4.000000000000000000 ) ) ;
#172 = EDGE_LOOP ( 'NONE', ( #366, #242, #339 ) ) ;
#173 = PRODUCT_RELATED_PRODUCT_CATEGORY ( 'detail', '', ( #168 ) ) ;
#174 = PERSON_AND_ORGANIZATION_ROLE ( 'creator' ) ;
#175 = LINE ( 'NONE', #365, #318 ) ;
#176 = PRODUCT_DEFINITION_SHAPE ( 'NONE', 'NONE',  #556 ) ;
#177 = VERTEX_POINT ( 'NONE', #584 ) ;
#178 = DIRECTION ( 'NONE',  ( 0.4999999999999996669, 0.8660254037844388186, 0.000000000000000000 ) ) ;
#179 = ADVANCED_FACE ( 'NONE', ( #111 ), #581, .F. ) ;
#180 = VERTEX_POINT ( 'NONE', #580 ) ;
#181 = CIRCLE ( 'NONE', #26, 2.999999999999999112 ) ;
#182 = VECTOR ( 'NONE', #55, 1000.000000000000114 ) ;
#183 = DIRECTION ( 'NONE',  ( 1.000000000000000000, 0.000000000000000000, 0.000000000000000000 ) ) ;
#184 = CC_DESIGN_PERSON_AND_ORGANIZATION_ASSIGNMENT ( #53, #8, ( #262 ) ) ;
#185 = ORIENTED_EDGE ( 'NONE', *, *, #206, .F. ) ;
#186 = EDGE_CURVE ( 'NONE', #597, #378, #34, .T. ) ;
#187 = CARTESIAN_POINT ( 'NONE',  ( 2.999999999999999112, 0.000000000000000000, 4.000000000000000000 ) ) ;
#188 = ORIENTED_EDGE ( 'NONE', *, *, #563, .T. ) ;
#189 = EDGE_CURVE ( 'NONE', #39, #597, #359, .T. ) ;
#190 = LINE ( 'NONE', #475, #402 ) ;
#191 = DIRECTION ( 'NONE',  ( 0.8660254037844387076, -0.5000000000000000000, 0.000000000000000000 ) ) ;
#192 = VECTOR ( 'NONE', #11, 1000.000000000000000 ) ;
#193 = CARTESIAN_POINT ( 'NONE',  ( 0.000000000000000000, 0.000000000000000000, 0.000000000000000000 ) ) ;
#194 = ORIENTED_EDGE ( 'NONE', *, *, #274, .F. ) ;
#195 = EDGE_CURVE ( 'NONE', #363, #469, #175, .T. ) ;
#196 = DIRECTION ( 'NONE',  ( 0.000000000000000000, -0.000000000000000000, 1.000000000000000000 ) ) ;
#197 = ORIENTED_EDGE ( 'NONE', *, *, #433, .F. ) ;
#198 = DIRECTION ( 'NONE',  ( -0.4999999999999999445, -0.8660254037844385966, 0.000000000000000000 ) ) ;
#199 = VERTEX_POINT ( 'NONE', #68 ) ;
#200 = DIRECTION ( 'NONE',  ( 0.000000000000000000, 1.000000000000000000, 0.000000000000000000 ) ) ;
#201 = CIRCLE ( 'NONE', #161, 3.999999999999999112 ) ;
#202 = DIRECTION ( 'NONE',  ( -1.000000000000000000, 0.000000000000000000, 0.000000000000000000 ) ) ;
#203 = CARTESIAN_POINT ( 'NONE',  ( -4.618802153517004960, -4.023374092638107645E-16, 4.000000000000000000 ) ) ;
#204 = CARTESIAN_POINT ( 'NONE',  ( 2.309401076758502480, 3.999999999999998224, 4.000000000000000000 ) ) ;
#205 = FACE_OUTER_BOUND ( 'NONE', #265, .T. ) ;
#206 = EDGE_CURVE ( 'NONE', #453, #482, #74, .T. ) ;
#207 = LINE ( 'NONE', #296, #276 ) ;
#208 = AXIS2_PLACEMENT_3D ( 'NONE', #588, #498, #121 ) ;
#209 = ORIENTED_EDGE ( 'NONE', *, *, #563, .F. ) ;
#210 = FACE_OUTER_BOUND ( 'NONE', #172, .T. ) ;
#211 = LINE ( 'NONE', #204, #546 ) ;
#212 = AXIS2_PLACEMENT_3D ( 'NONE', #243, #200, #489 ) ;
#213 = FACE_OUTER_BOUND ( 'NONE', #85, .T. ) ;
#214 = DIRECTION ( 'NONE',  ( 1.000000000000000000, 0.000000000000000000, 0.000000000000000000 ) ) ;
#215 = ORIENTED_EDGE ( 'NONE', *, *, #345, .F. ) ;
#216 = CARTESIAN_POINT ( 'NONE',  ( 2.309401076758502480, 3.999999999999998224, 4.000000000000000000 ) ) ;
#217 = VECTOR ( 'NONE', #147, 1000.000000000000000 ) ;
#218 = ORIENTED_EDGE ( 'NONE', *, *, #75, .F. ) ;
#219 = DIRECTION ( 'NONE',  ( -0.000000000000000000, -0.000000000000000000, -1.000000000000000000 ) ) ;
#220 = ORIENTED_EDGE ( 'NONE', *, *, #122, .T. ) ;
#221 = DIRECTION ( 'NONE',  ( 0.4999999999999996669, 0.8660254037844388186, 0.000000000000000000 ) ) ;
#222 = EDGE_LOOP ( 'NONE', ( #476, #109, #510, #157 ) ) ;
#223 = EDGE_CURVE ( 'NONE', #177, #594, #578, .T. ) ;
#224 = LINE ( 'NONE', #231, #575 ) ;
#225 = EDGE_LOOP ( 'NONE', ( #326, #548, #128, #218, #519 ) ) ;
#226 = AXIS2_PLACEMENT_3D ( 'NONE', #57, #86, #140 ) ;
#227 = AXIS2_PLACEMENT_3D ( 'NONE', #481, #579, #342 ) ;
#228 = PLANE ( 'NONE',  #264 ) ;
#229 = ORIENTED_EDGE ( 'NONE', *, *, #426, .T. ) ;
#230 = COORDINATED_UNIVERSAL_TIME_OFFSET ( 9, 0, .AHEAD. ) ;
#231 = CARTESIAN_POINT ( 'NONE',  ( 2.309401076758504257, -3.999999999999998224, 4.000000000000000000 ) ) ;
#232 = ORIENTED_EDGE ( 'NONE', *, *, #585, .T. ) ;
#233 = DIRECTION ( 'NONE',  ( 1.000000000000000000, 0.000000000000000000, 0.000000000000000000 ) ) ;
#234 = CC_DESIGN_APPROVAL ( #464, ( #502 ) ) ;
#235 = FACE_OUTER_BOUND ( 'NONE', #472, .T. ) ;
#236 = EDGE_CURVE ( 'NONE', #378, #180, #207, .T. ) ;
#237 = AXIS2_PLACEMENT_3D ( 'NONE', #248, #441, #29 ) ;
#238 = DIRECTION ( 'NONE',  ( 1.000000000000000000, 0.000000000000000000, 0.000000000000000000 ) ) ;
#239 = CARTESIAN_POINT ( 'NONE',  ( -2.309401076758502924, 3.999999999999998224, 0.000000000000000000 ) ) ;
#240 = DIRECTION ( 'NONE',  ( 0.000000000000000000, 0.000000000000000000, 1.000000000000000000 ) ) ;
#241 = ADVANCED_FACE ( 'NONE', ( #70 ), #353, .F. ) ;
#242 = ORIENTED_EDGE ( 'NONE', *, *, #433, .T. ) ;
#243 = CARTESIAN_POINT ( 'NONE',  ( -2.309401076758502924, -3.999999999999998224, 4.000000000000000000 ) ) ;
#244 = CARTESIAN_POINT ( 'NONE',  ( 4.618802153517004960, 8.315093865830911809E-16, 4.000000000000000000 ) ) ;
#245 = ADVANCED_FACE ( 'NONE', ( #156, #348 ), #443, .F. ) ;
#246 = PLANE ( 'NONE',  #518 ) ;
#247 = VECTOR ( 'NONE', #198, 1000.000000000000114 ) ;
#248 = CARTESIAN_POINT ( 'NONE',  ( 0.000000000000000000, 0.000000000000000000, 4.000000000000000000 ) ) ;
#249 = EDGE_LOOP ( 'NONE', ( #414, #106, #126, #400, #319 ) ) ;
#250 = DIRECTION ( 'NONE',  ( 1.000000000000000000, 0.000000000000000000, 0.000000000000000000 ) ) ;
#251 = DIRECTION ( 'NONE',  ( 1.000000000000000000, 0.000000000000000000, 0.000000000000000000 ) ) ;
#252 = DIRECTION ( 'NONE',  ( 0.000000000000000000, -0.000000000000000000, 1.000000000000000000 ) ) ;
#253 = CARTESIAN_POINT ( 'NONE',  ( 3.464101615137755275, -1.999999999999998224, 4.000000000000000000 ) ) ;
#254 =( GEOMETRIC_REPRESENTATION_CONTEXT ( 3 ) GLOBAL_UNCERTAINTY_ASSIGNED_CONTEXT ( ( #377 ) ) GLOBAL_UNIT_ASSIGNED_CONTEXT ( ( #401, #583, #37 ) ) REPRESENTATION_CONTEXT ( 'NONE', 'WORKASPACE' ) );
#255 = EDGE_CURVE ( 'NONE', #199, #462, #3, .T. ) ;
#256 = VECTOR ( 'NONE', #533, 1000.000000000000000 ) ;
#257 = DIRECTION ( 'NONE',  ( -0.4999999999999996114, -0.8660254037844388186, 0.000000000000000000 ) ) ;
#258 = CARTESIAN_POINT ( 'NONE',  ( 0.000000000000000000, 0.000000000000000000, 4.000000000000000000 ) ) ;
#259 = ORIENTED_EDGE ( 'NONE', *, *, #108, .T. ) ;
#260 = DIRECTION ( 'NONE',  ( 1.000000000000000000, 0.000000000000000000, 0.000000000000000000 ) ) ;
#261 = ORIENTED_EDGE ( 'NONE', *, *, #62, .T. ) ;
#262 = PRODUCT_DEFINITION_FORMATION_WITH_SPECIFIED_SOURCE ( 'ANY', '', #168, .NOT_KNOWN. ) ;
#263 = FACE_OUTER_BOUND ( 'NONE', #503, .T. ) ;
#264 = AXIS2_PLACEMENT_3D ( 'NONE', #367, #134, #509 ) ;
#265 = EDGE_LOOP ( 'NONE', ( #349, #586, #343, #374, #316 ) ) ;
#266 = PERSON_AND_ORGANIZATION ( #72, #357 ) ;
#267 = DIRECTION ( 'NONE',  ( 0.000000000000000000, 0.000000000000000000, -1.000000000000000000 ) ) ;
#268 = EDGE_LOOP ( 'NONE', ( #188, #149, #551, #22, #444, #412, #289 ) ) ;
#269 = CARTESIAN_POINT ( 'NONE',  ( 2.309401076758502480, 3.999999999999998224, 4.000000000000000000 ) ) ;
#270 = EDGE_CURVE ( 'NONE', #507, #16, #599, .T. ) ;
#271 = ORIENTED_EDGE ( 'NONE', *, *, #452, .T. ) ;
#272 = APPROVAL_ROLE ( '' ) ;
#273 = CARTESIAN_POINT ( 'NONE',  ( -4.618802153517004960, -4.023374092638107645E-16, 4.000000000000000000 ) ) ;
#274 = EDGE_CURVE ( 'NONE', #47, #333, #137, .T. ) ;
#275 = ORIENTED_EDGE ( 'NONE', *, *, #189, .F. ) ;
#276 = VECTOR ( 'NONE', #487, 1000.000000000000000 ) ;
#277 = CALENDAR_DATE ( 2024, 26, 9 ) ;
#278 = CIRCLE ( 'NONE', #497, 2.499999999999998668 ) ;
#279 = CARTESIAN_POINT ( 'NONE',  ( -4.618802153517004960, -4.023374092638107645E-16, 4.000000000000000000 ) ) ;
#280 = ORIENTED_EDGE ( 'NONE', *, *, #371, .F. ) ;
#281 = FACE_OUTER_BOUND ( 'NONE', #538, .T. ) ;
#282 = CC_DESIGN_PERSON_AND_ORGANIZATION_ASSIGNMENT ( #139, #595, ( #502 ) ) ;
#283 = ORIENTED_EDGE ( 'NONE', *, *, #1, .F. ) ;
#284 = EDGE_CURVE ( 'NONE', #428, #330, #438, .T. ) ;
#285 = PLANE ( 'NONE',  #392 ) ;
#286 = ORIENTED_EDGE ( 'NONE', *, *, #40, .T. ) ;
#287 = EDGE_CURVE ( 'NONE', #482, #507, #190, .T. ) ;
#288 = PLANE ( 'NONE',  #227 ) ;
#289 = ORIENTED_EDGE ( 'NONE', *, *, #501, .T. ) ;
#290 = EDGE_CURVE ( 'NONE', #91, #39, #41, .T. ) ;
#291 = CARTESIAN_POINT ( 'NONE',  ( 2.999999999999999112, 0.000000000000000000, 5.000000000000000000 ) ) ;
#292 = EDGE_CURVE ( 'NONE', #52, #469, #317, .T. ) ;
#293 = VERTEX_POINT ( 'NONE', #321 ) ;
#294 = CARTESIAN_POINT ( 'NONE',  ( 4.618802153517004960, 8.315093865830911809E-16, 4.000000000000000000 ) ) ;
#295 = EDGE_CURVE ( 'NONE', #361, #293, #325, .T. ) ;
#296 = CARTESIAN_POINT ( 'NONE',  ( 2.309401076758502480, 3.999999999999998224, 4.000000000000000000 ) ) ;
#297 = ORIENTED_EDGE ( 'NONE', *, *, #295, .F. ) ;
#298 = DIRECTION ( 'NONE',  ( -0.4999999999999999445, -0.8660254037844385966, 0.000000000000000000 ) ) ;
#299 = VECTOR ( 'NONE', #394, 1000.000000000000000 ) ;
#300 = DIRECTION ( 'NONE',  ( 0.000000000000000000, 0.000000000000000000, 1.000000000000000000 ) ) ;
#301 = PLANE ( 'NONE',  #27 ) ;
#302 = CC_DESIGN_DATE_AND_TIME_ASSIGNMENT ( #132, #375, ( #556 ) ) ;
#303 = CARTESIAN_POINT ( 'NONE',  ( 0.000000000000000000, 0.000000000000000000, 4.000000000000000000 ) ) ;
#304 = EDGE_CURVE ( 'NONE', #594, #333, #480, .T. ) ;
#305 = DIRECTION ( 'NONE',  ( 0.000000000000000000, 0.000000000000000000, 1.000000000000000000 ) ) ;
#306 = CARTESIAN_POINT ( 'NONE',  ( 0.000000000000000000, 0.000000000000000000, 5.000000000000000000 ) ) ;
#307 = MECHANICAL_CONTEXT ( 'NONE', #523, 'mechanical' ) ;
#308 = CIRCLE ( 'NONE', #466, 2.499999999999998668 ) ;
#309 = AXIS2_PLACEMENT_3D ( 'NONE', #28, #442, #395 ) ;
#310 = DIRECTION ( 'NONE',  ( 0.000000000000000000, -0.000000000000000000, 1.000000000000000000 ) ) ;
#311 = ADVANCED_FACE ( 'NONE', ( #281 ), #384, .T. ) ;
#312 = ORIENTED_EDGE ( 'NONE', *, *, #284, .F. ) ;
#313 = CARTESIAN_POINT ( 'NONE',  ( -2.309401076758502924, -3.999999999999998224, 4.000000000000000000 ) ) ;
#314 = ADVANCED_BREP_SHAPE_REPRESENTATION ( '너트 m5 나일론', ( #483, #208 ), #254 ) ;
#315 = EDGE_CURVE ( 'NONE', #39, #460, #123, .T. ) ;
#316 = ORIENTED_EDGE ( 'NONE', *, *, #295, .T. ) ;
#317 = LINE ( 'NONE', #13, #79 ) ;
#318 = VECTOR ( 'NONE', #485, 1000.000000000000000 ) ;
#319 = ORIENTED_EDGE ( 'NONE', *, *, #206, .T. ) ;
#320 = DATE_AND_TIME ( #277, #589 ) ;
#321 = CARTESIAN_POINT ( 'NONE',  ( -4.618802153517004960, -4.023374092638107645E-16, 0.000000000000000000 ) ) ;
#322 = ORIENTED_EDGE ( 'NONE', *, *, #426, .F. ) ;
#323 = DATE_TIME_ROLE ( 'classification_date' ) ;
#324 = EDGE_CURVE ( 'NONE', #91, #453, #224, .T. ) ;
#325 = LINE ( 'NONE', #279, #457 ) ;
#326 = ORIENTED_EDGE ( 'NONE', *, *, #270, .T. ) ;
#327 = PERSON_AND_ORGANIZATION ( #72, #357 ) ;
#328 = CC_DESIGN_SECURITY_CLASSIFICATION ( #502, ( #262 ) ) ;
#329 = DIRECTION ( 'NONE',  ( 0.000000000000000000, 0.000000000000000000, 1.000000000000000000 ) ) ;
#330 = VERTEX_POINT ( 'NONE', #513 ) ;
#331 = APPROVAL_DATE_TIME ( #463, #338 ) ;
#332 = CARTESIAN_POINT ( 'NONE',  ( 0.000000000000000000, 0.000000000000000000, 5.000000000000000000 ) ) ;
#333 = VERTEX_POINT ( 'NONE', #381 ) ;
#334 = CARTESIAN_POINT ( 'NONE',  ( 2.309401076758502480, 3.999999999999998224, 0.000000000000000000 ) ) ;
#335 = LINE ( 'NONE', #530, #182 ) ;
#336 = EDGE_CURVE ( 'NONE', #47, #177, #308, .T. ) ;
#337 = DIRECTION ( 'NONE',  ( 0.4999999999999999445, -0.8660254037844385966, 0.000000000000000000 ) ) ;
#338 = APPROVAL ( #56, 'UNSPECIFIED' ) ;
#339 = ORIENTED_EDGE ( 'NONE', *, *, #356, .T. ) ;
#340 = AXIS2_PLACEMENT_3D ( 'NONE', #46, #555, #233 ) ;
#341 = AXIS2_PLACEMENT_3D ( 'NONE', #258, #310, #445 ) ;
#342 = DIRECTION ( 'NONE',  ( 1.000000000000000000, 0.000000000000000000, -0.000000000000000000 ) ) ;
#343 = ORIENTED_EDGE ( 'NONE', *, *, #423, .F. ) ;
#344 = CARTESIAN_POINT ( 'NONE',  ( -2.309401076758502924, -3.999999999999998224, 4.000000000000000000 ) ) ;
#345 = EDGE_CURVE ( 'NONE', #428, #199, #201, .T. ) ;
#346 = CARTESIAN_POINT ( 'NONE',  ( 2.499999999999998668, 3.061616997868381662E-16, 4.000000000000000000 ) ) ;
#347 = DIRECTION ( 'NONE',  ( 0.5000000000000001110, -0.8660254037844384856, 0.000000000000000000 ) ) ;
#348 = FACE_BOUND ( 'NONE', #390, .T. ) ;
#349 = ORIENTED_EDGE ( 'NONE', *, *, #1, .T. ) ;
#350 = FACE_OUTER_BOUND ( 'NONE', #65, .T. ) ;
#351 = ADVANCED_FACE ( 'NONE', ( #471, #417 ), #564, .T. ) ;
#352 = AXIS2_PLACEMENT_3D ( 'NONE', #399, #541, #119 ) ;
#353 = CYLINDRICAL_SURFACE ( 'NONE', #237, 2.499999999999998668 ) ;
#354 = DIRECTION ( 'NONE',  ( 1.000000000000000000, 0.000000000000000000, 0.000000000000000000 ) ) ;
#355 = LINE ( 'NONE', #25, #383 ) ;
#356 = EDGE_CURVE ( 'NONE', #363, #91, #4, .T. ) ;
#357 = ORGANIZATION ( 'UNSPECIFIED', 'UNSPECIFIED', '' ) ;
#358 = DIRECTION ( 'NONE',  ( 0.000000000000000000, 0.000000000000000000, 1.000000000000000000 ) ) ;
#359 = CIRCLE ( 'NONE', #496, 3.999999999999999112 ) ;
#360 = AXIS2_PLACEMENT_3D ( 'NONE', #166, #358, #165 ) ;
#361 = VERTEX_POINT ( 'NONE', #273 ) ;
#362 = ADVANCED_FACE ( 'NONE', ( #424 ), #228, .F. ) ;
#363 = VERTEX_POINT ( 'NONE', #566 ) ;
#364 = SECURITY_CLASSIFICATION_LEVEL ( 'unclassified' ) ;
#365 = CARTESIAN_POINT ( 'NONE',  ( 2.309401076758504257, -3.999999999999998224, 4.000000000000000000 ) ) ;
#366 = ORIENTED_EDGE ( 'NONE', *, *, #18, .F. ) ;
#367 = CARTESIAN_POINT ( 'NONE',  ( 2.309401076758502480, 3.999999999999998224, 4.000000000000000000 ) ) ;
#368 = EDGE_CURVE ( 'NONE', #561, #507, #100, .T. ) ;
#369 = VECTOR ( 'NONE', #163, 1000.000000000000114 ) ;
#370 = ORIENTED_EDGE ( 'NONE', *, *, #18, .T. ) ;
#371 = EDGE_CURVE ( 'NONE', #177, #47, #167, .T. ) ;
#372 = DATE_AND_TIME ( #48, #494 ) ;
#373 = CARTESIAN_POINT ( 'NONE',  ( -2.999999999999999112, 3.673940397442058882E-16, 4.000000000000000000 ) ) ;
#374 = ORIENTED_EDGE ( 'NONE', *, *, #452, .F. ) ;
#375 = DATE_TIME_ROLE ( 'creation_date' ) ;
#376 = DIRECTION ( 'NONE',  ( 0.000000000000000000, -1.000000000000000000, 0.000000000000000000 ) ) ;
#377 = UNCERTAINTY_MEASURE_WITH_UNIT (LENGTH_MEASURE( 1.000000000000000082E-05 ), #401, 'distance_accuracy_value', 'NONE');
#378 = VERTEX_POINT ( 'NONE', #30 ) ;
#379 = CC_DESIGN_PERSON_AND_ORGANIZATION_ASSIGNMENT ( #125, #127, ( #168 ) ) ;
#380 = PERSON_AND_ORGANIZATION ( #72, #357 ) ;
#381 = CARTESIAN_POINT ( 'NONE',  ( -2.499999999999998668, 0.000000000000000000, 0.000000000000000000 ) ) ;
#382 = CARTESIAN_POINT ( 'NONE',  ( 0.000000000000000000, 0.000000000000000000, 4.000000000000000000 ) ) ;
#383 = VECTOR ( 'NONE', #543, 1000.000000000000000 ) ;
#384 = PLANE ( 'NONE',  #226 ) ;
#385 = DIRECTION ( 'NONE',  ( 0.4999999999999999445, 0.8660254037844385966, 0.000000000000000000 ) ) ;
#386 = LINE ( 'NONE', #203, #170 ) ;
#387 = ORIENTED_EDGE ( 'NONE', *, *, #544, .F. ) ;
#388 = ADVANCED_FACE ( 'NONE', ( #573 ), #397, .F. ) ;
#389 = LINE ( 'NONE', #344, #217 ) ;
#390 = EDGE_LOOP ( 'NONE', ( #404, #420 ) ) ;
#391 = VECTOR ( 'NONE', #431, 999.9999999999998863 ) ;
#392 = AXIS2_PLACEMENT_3D ( 'NONE', #525, #196, #110 ) ;
#393 = CARTESIAN_POINT ( 'NONE',  ( -3.999999999999999112, 4.898587196589411843E-16, 4.000000000000000000 ) ) ;
#394 = DIRECTION ( 'NONE',  ( -0.000000000000000000, -0.000000000000000000, -1.000000000000000000 ) ) ;
#395 = DIRECTION ( 'NONE',  ( 1.000000000000000000, 0.000000000000000000, 0.000000000000000000 ) ) ;
#396 = DIRECTION ( 'NONE',  ( 0.4999999999999996669, 0.8660254037844388186, 0.000000000000000000 ) ) ;
#397 = PLANE ( 'NONE',  #212 ) ;
#398 = APPROVAL_PERSON_ORGANIZATION ( #380, #338, #99 ) ;
#399 = CARTESIAN_POINT ( 'NONE',  ( 0.000000000000000000, 0.000000000000000000, 0.000000000000000000 ) ) ;
#400 = ORIENTED_EDGE ( 'NONE', *, *, #40, .F. ) ;
#401 =( LENGTH_UNIT ( ) NAMED_UNIT ( * ) SI_UNIT ( .MILLI., .METRE. ) );
#402 = VECTOR ( 'NONE', #520, 999.9999999999998863 ) ;
#403 = LINE ( 'NONE', #154, #527 ) ;
#404 = ORIENTED_EDGE ( 'NONE', *, *, #468, .T. ) ;
#405 = DIRECTION ( 'NONE',  ( 1.000000000000000000, 0.000000000000000000, -0.000000000000000000 ) ) ;
#406 = DIRECTION ( 'NONE',  ( -1.000000000000000000, 0.000000000000000000, 0.000000000000000000 ) ) ;
#407 = EDGE_CURVE ( 'NONE', #16, #293, #432, .T. ) ;
#408 = APPLICATION_PROTOCOL_DEFINITION ( 'international standard', 'config_control_design', 1994, #523 ) ;
#409 = ORIENTED_EDGE ( 'NONE', *, *, #292, .F. ) ;
#410 = DIRECTION ( 'NONE',  ( 0.000000000000000000, 0.000000000000000000, 1.000000000000000000 ) ) ;
#411 = CIRCLE ( 'NONE', #71, 3.999999999999999112 ) ;
#412 = ORIENTED_EDGE ( 'NONE', *, *, #186, .T. ) ;
#413 = COORDINATED_UNIVERSAL_TIME_OFFSET ( 9, 0, .AHEAD. ) ;
#414 = ORIENTED_EDGE ( 'NONE', *, *, #287, .T. ) ;
#415 = DIRECTION ( 'NONE',  ( 1.000000000000000000, 0.000000000000000000, 0.000000000000000000 ) ) ;
#416 = EDGE_LOOP ( 'NONE', ( #162, #409, #283, #103, #88, #458 ) ) ;
#417 = FACE_BOUND ( 'NONE', #169, .T. ) ;
#418 = AXIS2_PLACEMENT_3D ( 'NONE', #193, #505, #421 ) ;
#419 = AXIS2_PLACEMENT_3D ( 'NONE', #540, #410, #354 ) ;
#420 = ORIENTED_EDGE ( 'NONE', *, *, #304, .T. ) ;
#421 = DIRECTION ( 'NONE',  ( 1.000000000000000000, 0.000000000000000000, 0.000000000000000000 ) ) ;
#422 = ORIENTED_EDGE ( 'NONE', *, *, #493, .T. ) ;
#423 = EDGE_CURVE ( 'NONE', #199, #574, #430, .T. ) ;
#424 = FACE_OUTER_BOUND ( 'NONE', #225, .T. ) ;
#425 = PLANE ( 'NONE',  #593 ) ;
#426 = EDGE_CURVE ( 'NONE', #330, #460, #142, .T. ) ;
#427 = DIRECTION ( 'NONE',  ( -1.000000000000000000, 1.224646799147352961E-16, 0.000000000000000000 ) ) ;
#428 = VERTEX_POINT ( 'NONE', #393 ) ;
#429 = AXIS2_PLACEMENT_3D ( 'NONE', #187, #376, #267 ) ;
#430 = LINE ( 'NONE', #102, #506 ) ;
#431 = DIRECTION ( 'NONE',  ( -0.5000000000000002220, 0.8660254037844385966, 0.000000000000000000 ) ) ;
#432 = LINE ( 'NONE', #17, #247 ) ;
#433 = EDGE_CURVE ( 'NONE', #462, #363, #389, .T. ) ;
#434 = ORIENTED_EDGE ( 'NONE', *, *, #468, .F. ) ;
#435 = CARTESIAN_POINT ( 'NONE',  ( 0.000000000000000000, 0.000000000000000000, 5.000000000000000000 ) ) ;
#436 = LOCAL_TIME ( 23, 18, 40.00000000000000000, #230 ) ;
#437 = CYLINDRICAL_SURFACE ( 'NONE', #582, 2.499999999999998668 ) ;
#438 = CIRCLE ( 'NONE', #60, 1.000000000000000000 ) ;
#439 = TOROIDAL_SURFACE ( 'NONE', #467, 2.999999999999999112, 1.000000000000000000 ) ;
#440 = FACE_OUTER_BOUND ( 'NONE', #249, .T. ) ;
#441 = DIRECTION ( 'NONE',  ( -0.000000000000000000, -0.000000000000000000, -1.000000000000000000 ) ) ;
#442 = DIRECTION ( 'NONE',  ( 0.000000000000000000, 0.000000000000000000, 1.000000000000000000 ) ) ;
#443 = PLANE ( 'NONE',  #352 ) ;
#444 = ORIENTED_EDGE ( 'NONE', *, *, #189, .T. ) ;
#445 = DIRECTION ( 'NONE',  ( 1.000000000000000000, 0.000000000000000000, -0.000000000000000000 ) ) ;
#446 = DIRECTION ( 'NONE',  ( 1.000000000000000000, 0.000000000000000000, 0.000000000000000000 ) ) ;
#447 = APPROVAL ( #81, 'UNSPECIFIED' ) ;
#448 = VECTOR ( 'NONE', #396, 1000.000000000000114 ) ;
#449 = DIRECTION ( 'NONE',  ( 0.000000000000000000, 0.000000000000000000, 1.000000000000000000 ) ) ;
#450 = ADVANCED_FACE ( 'NONE', ( #532 ), #285, .T. ) ;
#451 = DIRECTION ( 'NONE',  ( 1.000000000000000000, 0.000000000000000000, -0.000000000000000000 ) ) ;
#452 = EDGE_CURVE ( 'NONE', #361, #199, #386, .T. ) ;
#453 = VERTEX_POINT ( 'NONE', #294 ) ;
#454 = CARTESIAN_POINT ( 'NONE',  ( 3.464101615137753498, 2.000000000000000000, 4.000000000000000000 ) ) ;
#455 = EDGE_LOOP ( 'NONE', ( #2, #32, #434, #194 ) ) ;
#456 = APPLICATION_PROTOCOL_DEFINITION ( 'international standard', 'config_control_design', 1994, #473 ) ;
#457 = VECTOR ( 'NONE', #43, 1000.000000000000000 ) ;
#458 = ORIENTED_EDGE ( 'NONE', *, *, #287, .F. ) ;
#459 = DIRECTION ( 'NONE',  ( -0.000000000000000000, -0.000000000000000000, -1.000000000000000000 ) ) ;
#460 = VERTEX_POINT ( 'NONE', #291 ) ;
#461 = DIRECTION ( 'NONE',  ( -0.000000000000000000, -0.000000000000000000, -1.000000000000000000 ) ) ;
#462 = VERTEX_POINT ( 'NONE', #571 ) ;
#463 = DATE_AND_TIME ( #558, #436 ) ;
#464 = APPROVAL ( #504, 'UNSPECIFIED' ) ;
#465 = DIRECTION ( 'NONE',  ( 1.000000000000000000, 0.000000000000000000, 0.000000000000000000 ) ) ;
#466 = AXIS2_PLACEMENT_3D ( 'NONE', #332, #50, #415 ) ;
#467 = AXIS2_PLACEMENT_3D ( 'NONE', #83, #305, #260 ) ;
#468 = EDGE_CURVE ( 'NONE', #333, #594, #278, .T. ) ;
#469 = VERTEX_POINT ( 'NONE', #20 ) ;
#470 = APPROVAL_DATE_TIME ( #320, #447 ) ;
#471 = FACE_OUTER_BOUND ( 'NONE', #42, .T. ) ;
#472 = EDGE_LOOP ( 'NONE', ( #164, #297, #387, #526, #220 ) ) ;
#473 = APPLICATION_CONTEXT ( 'configuration controlled 3d designs of mechanical parts and assemblies' ) ;
#474 = COORDINATED_UNIVERSAL_TIME_OFFSET ( 9, 0, .AHEAD. ) ;
#475 = CARTESIAN_POINT ( 'NONE',  ( 4.618802153517004960, 8.315093865830911809E-16, 0.000000000000000000 ) ) ;
#476 = ORIENTED_EDGE ( 'NONE', *, *, #223, .F. ) ;
#477 = APPROVAL_PERSON_ORGANIZATION ( #159, #447, #94 ) ;
#478 = DIRECTION ( 'NONE',  ( 1.000000000000000000, 0.000000000000000000, 0.000000000000000000 ) ) ;
#479 = EDGE_LOOP ( 'NONE', ( #515, #131, #286, #275 ) ) ;
#480 = CIRCLE ( 'NONE', #418, 2.499999999999998668 ) ;
#481 = CARTESIAN_POINT ( 'NONE',  ( 0.000000000000000000, 0.000000000000000000, 4.000000000000000000 ) ) ;
#482 = VERTEX_POINT ( 'NONE', #66 ) ;
#483 = MANIFOLD_SOLID_BREP ( '필렛1', #539 ) ;
#484 = CARTESIAN_POINT ( 'NONE',  ( 0.000000000000000000, 0.000000000000000000, 0.000000000000000000 ) ) ;
#485 = DIRECTION ( 'NONE',  ( -0.000000000000000000, -0.000000000000000000, -1.000000000000000000 ) ) ;
#486 = DIRECTION ( 'NONE',  ( 0.000000000000000000, 0.000000000000000000, 1.000000000000000000 ) ) ;
#487 = DIRECTION ( 'NONE',  ( -1.000000000000000000, 0.000000000000000000, 0.000000000000000000 ) ) ;
#488 = AXIS2_PLACEMENT_3D ( 'NONE', #24, #63, #478 ) ;
#489 = DIRECTION ( 'NONE',  ( 0.000000000000000000, -0.000000000000000000, 1.000000000000000000 ) ) ;
#490 = CARTESIAN_POINT ( 'NONE',  ( 0.000000000000000000, 0.000000000000000000, 4.000000000000000000 ) ) ;
#491 = LINE ( 'NONE', #313, #80 ) ;
#492 = DIRECTION ( 'NONE',  ( 0.000000000000000000, 0.000000000000000000, 1.000000000000000000 ) ) ;
#493 = EDGE_CURVE ( 'NONE', #597, #561, #150, .T. ) ;
#494 = LOCAL_TIME ( 23, 18, 40.00000000000000000, #413 ) ;
#495 = DIRECTION ( 'NONE',  ( -0.000000000000000000, -0.000000000000000000, -1.000000000000000000 ) ) ;
#496 = AXIS2_PLACEMENT_3D ( 'NONE', #537, #300, #251 ) ;
#497 = AXIS2_PLACEMENT_3D ( 'NONE', #484, #240, #250 ) ;
#498 = DIRECTION ( 'NONE',  ( 0.000000000000000000, 0.000000000000000000, 1.000000000000000000 ) ) ;
#499 = VERTEX_POINT ( 'NONE', #69 ) ;
#500 = CARTESIAN_POINT ( 'NONE',  ( 0.000000000000000000, 0.000000000000000000, 4.000000000000000000 ) ) ;
#501 = EDGE_CURVE ( 'NONE', #378, #499, #547, .T. ) ;
#502 = SECURITY_CLASSIFICATION ( '', '', #364 ) ;
#503 = EDGE_LOOP ( 'NONE', ( #312, #557, #135, #370, #141, #146, #322 ) ) ;
#504 = APPROVAL_STATUS ( 'not_yet_approved' ) ;
#505 = DIRECTION ( 'NONE',  ( 0.000000000000000000, 0.000000000000000000, 1.000000000000000000 ) ) ;
#506 = VECTOR ( 'NONE', #337, 1000.000000000000114 ) ;
#507 = VERTEX_POINT ( 'NONE', #334 ) ;
#508 = COORDINATED_UNIVERSAL_TIME_OFFSET ( 9, 0, .AHEAD. ) ;
#509 = DIRECTION ( 'NONE',  ( 0.000000000000000000, -0.000000000000000000, -1.000000000000000000 ) ) ;
#510 = ORIENTED_EDGE ( 'NONE', *, *, #274, .T. ) ;
#511 = CC_DESIGN_PERSON_AND_ORGANIZATION_ASSIGNMENT ( #266, #174, ( #262 ) ) ;
#512 = APPROVAL_DATE_TIME ( #89, #464 ) ;
#513 = CARTESIAN_POINT ( 'NONE',  ( -2.999999999999999112, 4.286263797015735609E-16, 5.000000000000000000 ) ) ;
#514 = ADVANCED_FACE ( 'NONE', ( #153 ), #288, .T. ) ;
#515 = ORIENTED_EDGE ( 'NONE', *, *, #290, .F. ) ;
#516 = CARTESIAN_POINT ( 'NONE',  ( 0.000000000000000000, 0.000000000000000000, 5.000000000000000000 ) ) ;
#517 = AXIS2_PLACEMENT_3D ( 'NONE', #435, #486, #238 ) ;
#518 = AXIS2_PLACEMENT_3D ( 'NONE', #529, #107, #73 ) ;
#519 = ORIENTED_EDGE ( 'NONE', *, *, #368, .T. ) ;
#520 = DIRECTION ( 'NONE',  ( -0.5000000000000002220, 0.8660254037844385966, 0.000000000000000000 ) ) ;
#521 = CARTESIAN_POINT ( 'NONE',  ( 3.999999999999999112, 0.000000000000000000, 4.000000000000000000 ) ) ;
#522 = PLANE ( 'NONE',  #97 ) ;
#523 = APPLICATION_CONTEXT ( 'configuration controlled 3d designs of mechanical parts and assemblies' ) ;
#524 = ORIENTED_EDGE ( 'NONE', *, *, #324, .F. ) ;
#525 = CARTESIAN_POINT ( 'NONE',  ( 0.000000000000000000, 0.000000000000000000, 4.000000000000000000 ) ) ;
#526 = ORIENTED_EDGE ( 'NONE', *, *, #62, .F. ) ;
#527 = VECTOR ( 'NONE', #446, 1000.000000000000000 ) ;
#528 = TOROIDAL_SURFACE ( 'NONE', #360, 2.999999999999999112, 1.000000000000000000 ) ;
#529 = CARTESIAN_POINT ( 'NONE',  ( -4.618802153517004960, -4.023374092638107645E-16, 4.000000000000000000 ) ) ;
#530 = CARTESIAN_POINT ( 'NONE',  ( -4.618802153517004960, -4.023374092638107645E-16, 0.000000000000000000 ) ) ;
#531 = ADVANCED_FACE ( 'NONE', ( #205 ), #246, .F. ) ;
#532 = FACE_OUTER_BOUND ( 'NONE', #565, .T. ) ;
#533 = DIRECTION ( 'NONE',  ( -0.000000000000000000, -0.000000000000000000, -1.000000000000000000 ) ) ;
#534 = ORIENTED_EDGE ( 'NONE', *, *, #195, .F. ) ;
#535 = LINE ( 'NONE', #114, #576 ) ;
#536 = ADVANCED_FACE ( 'NONE', ( #440 ), #522, .F. ) ;
#537 = CARTESIAN_POINT ( 'NONE',  ( 0.000000000000000000, 0.000000000000000000, 4.000000000000000000 ) ) ;
#538 = EDGE_LOOP ( 'NONE', ( #209, #545, #271, #215 ) ) ;
#539 = CLOSED_SHELL ( 'NONE', ( #596, #241, #559, #450, #311, #590, #549, #514, #245, #179, #536, #362, #7, #531, #388, #117, #351, #569 ) ) ;
#540 = CARTESIAN_POINT ( 'NONE',  ( 0.000000000000000000, 0.000000000000000000, 4.000000000000000000 ) ) ;
#541 = DIRECTION ( 'NONE',  ( 0.000000000000000000, -0.000000000000000000, 1.000000000000000000 ) ) ;
#542 = PLANE ( 'NONE',  #341 ) ;
#543 = DIRECTION ( 'NONE',  ( -0.000000000000000000, -0.000000000000000000, -1.000000000000000000 ) ) ;
#544 = EDGE_CURVE ( 'NONE', #499, #361, #535, .T. ) ;
#545 = ORIENTED_EDGE ( 'NONE', *, *, #544, .T. ) ;
#546 = VECTOR ( 'NONE', #406, 1000.000000000000000 ) ;
#547 = CIRCLE ( 'NONE', #309, 3.999999999999999112 ) ;
#548 = ORIENTED_EDGE ( 'NONE', *, *, #122, .F. ) ;
#549 = ADVANCED_FACE ( 'NONE', ( #210 ), #36, .T. ) ;
#550 = CARTESIAN_POINT ( 'NONE',  ( -2.309401076758502924, -3.999999999999998224, 4.000000000000000000 ) ) ;
#551 = ORIENTED_EDGE ( 'NONE', *, *, #67, .F. ) ;
#552 = DIRECTION ( 'NONE',  ( 0.000000000000000000, 0.000000000000000000, 1.000000000000000000 ) ) ;
#553 = ORIENTED_EDGE ( 'NONE', *, *, #75, .T. ) ;
#554 = SHAPE_DEFINITION_REPRESENTATION ( #176, #314 ) ;
#555 = DIRECTION ( 'NONE',  ( 0.000000000000000000, 0.000000000000000000, 1.000000000000000000 ) ) ;
#556 = PRODUCT_DEFINITION ( 'UNKNOWN', '', #262, #14 ) ;
#557 = ORIENTED_EDGE ( 'NONE', *, *, #345, .T. ) ;
#558 = CALENDAR_DATE ( 2024, 26, 9 ) ;
#559 = ADVANCED_FACE ( 'NONE', ( #350 ), #301, .T. ) ;
#560 = CARTESIAN_POINT ( 'NONE',  ( 0.000000000000000000, 0.000000000000000000, 4.000000000000000000 ) ) ;
#561 = VERTEX_POINT ( 'NONE', #216 ) ;
#562 = PERSON_AND_ORGANIZATION ( #72, #357 ) ;
#563 = EDGE_CURVE ( 'NONE', #499, #428, #5, .T. ) ;
#564 = PLANE ( 'NONE',  #133 ) ;
#565 = EDGE_LOOP ( 'NONE', ( #152, #138, #261 ) ) ;
#566 = CARTESIAN_POINT ( 'NONE',  ( 2.309401076758504257, -3.999999999999998224, 4.000000000000000000 ) ) ;
#567 = DIRECTION ( 'NONE',  ( 0.000000000000000000, 0.000000000000000000, 1.000000000000000000 ) ) ;
#568 = CARTESIAN_POINT ( 'NONE',  ( 2.309401076758502480, 3.999999999999998224, 0.000000000000000000 ) ) ;
#569 = ADVANCED_FACE ( 'NONE', ( #263 ), #528, .T. ) ;
#570 = CARTESIAN_POINT ( 'NONE',  ( 4.618802153517004960, 8.315093865830911809E-16, 4.000000000000000000 ) ) ;
#571 = CARTESIAN_POINT ( 'NONE',  ( 0.000000000000000000, -3.999999999999998224, 4.000000000000000000 ) ) ;
#572 = ORIENTED_EDGE ( 'NONE', *, *, #292, .T. ) ;
#573 = FACE_OUTER_BOUND ( 'NONE', #58, .T. ) ;
#574 = VERTEX_POINT ( 'NONE', #550 ) ;
#575 = VECTOR ( 'NONE', #221, 1000.000000000000114 ) ;
#576 = VECTOR ( 'NONE', #298, 1000.000000000000114 ) ;
#577 = CARTESIAN_POINT ( 'NONE',  ( 4.618802153517004960, 8.315093865830911809E-16, 4.000000000000000000 ) ) ;
#578 = LINE ( 'NONE', #346, #256 ) ;
#579 = DIRECTION ( 'NONE',  ( 0.000000000000000000, -0.000000000000000000, 1.000000000000000000 ) ) ;
#580 = CARTESIAN_POINT ( 'NONE',  ( -2.309401076758502924, 3.999999999999998224, 4.000000000000000000 ) ) ;
#581 = PLANE ( 'NONE',  #151 ) ;
#582 = AXIS2_PLACEMENT_3D ( 'NONE', #490, #495, #202 ) ;
#583 =( NAMED_UNIT ( * ) PLANE_ANGLE_UNIT ( ) SI_UNIT ( $, .RADIAN. ) );
#584 = CARTESIAN_POINT ( 'NONE',  ( 2.499999999999998668, 3.061616997868381662E-16, 5.000000000000000000 ) ) ;
#585 = EDGE_CURVE ( 'NONE', #574, #52, #491, .T. ) ;
#586 = ORIENTED_EDGE ( 'NONE', *, *, #585, .F. ) ;
#587 = LINE ( 'NONE', #120, #369 ) ;
#588 = CARTESIAN_POINT ( 'NONE',  ( 0.000000000000000000, 0.000000000000000000, 0.000000000000000000 ) ) ;
#589 = LOCAL_TIME ( 23, 18, 40.00000000000000000, #474 ) ;
#590 = ADVANCED_FACE ( 'NONE', ( #213 ), #542, .T. ) ;
#591 = ORIENTED_EDGE ( 'NONE', *, *, #108, .F. ) ;
#592 = FACE_OUTER_BOUND ( 'NONE', #268, .T. ) ;
#593 = AXIS2_PLACEMENT_3D ( 'NONE', #12, #191, #385 ) ;
#594 = VERTEX_POINT ( 'NONE', #118 ) ;
#595 = PERSON_AND_ORGANIZATION_ROLE ( 'classification_officer' ) ;
#596 = ADVANCED_FACE ( 'NONE', ( #592 ), #439, .T. ) ;
#597 = VERTEX_POINT ( 'NONE', #454 ) ;
#598 = PERSON_AND_ORGANIZATION_ROLE ( 'creator' ) ;
#599 = LINE ( 'NONE', #568, #192 ) ;
ENDSEC;
END-ISO-10303-21;
