ISO-10303-21;
HEADER;
FILE_DESCRIPTION (( 'STEP AP203' ),
    '1' );
FILE_NAME ('너트 m4.STEP',
    '2024-09-26T14:18:46',
    ( '' ),
    ( '' ),
    'SwSTEP 2.0',
    'SolidWorks 2022',
    '' );
FILE_SCHEMA (( 'CONFIG_CONTROL_DESIGN' ));
ENDSEC;

DATA;
#1 = ORIENTED_EDGE ( 'NONE', *, *, #330, .T. ) ;
#2 = APPLICATION_CONTEXT ( 'configuration controlled 3d designs of mechanical parts and assemblies' ) ;
#3 = APPROVAL_ROLE ( '' ) ;
#4 = EDGE_LOOP ( 'NONE', ( #232, #197, #141, #361 ) ) ;
#5 = CARTESIAN_POINT ( 'NONE',  ( 2.020725942163688504, 3.500000000000003109, 3.200000000000000178 ) ) ;
#6 = DIRECTION ( 'NONE',  ( 0.000000000000000000, -0.000000000000000000, 1.000000000000000000 ) ) ;
#7 = VECTOR ( 'NONE', #130, 1000.000000000000000 ) ;
#8 = PRODUCT_DEFINITION_SHAPE ( 'NONE', 'NONE',  #38 ) ;
#9 = CARTESIAN_POINT ( 'NONE',  ( 2.020725942163690725, -3.500000000000002220, 3.200000000000000178 ) ) ;
#10 = CARTESIAN_POINT ( 'NONE',  ( -4.041451884327383226, -8.544729626952345127E-16, 3.200000000000000178 ) ) ;
#11 = APPROVAL_STATUS ( 'not_yet_approved' ) ;
#12 = CARTESIAN_POINT ( 'NONE',  ( 2.020725942163690725, -3.500000000000002220, 3.200000000000000178 ) ) ;
#13 = DATE_TIME_ROLE ( 'creation_date' ) ;
#14 = PLANE ( 'NONE',  #360 ) ;
#15 = AXIS2_PLACEMENT_3D ( 'NONE', #233, #89, #266 ) ;
#16 = EDGE_CURVE ( 'NONE', #29, #145, #158, .T. ) ;
#17 = CARTESIAN_POINT ( 'NONE',  ( 2.020725942163688504, 3.500000000000003109, 3.200000000000000178 ) ) ;
#18 = LINE ( 'NONE', #254, #332 ) ;
#19 = CALENDAR_DATE ( 2024, 26, 9 ) ;
#20 = CARTESIAN_POINT ( 'NONE',  ( 0.000000000000000000, 0.000000000000000000, 3.200000000000000178 ) ) ;
#21 = CC_DESIGN_PERSON_AND_ORGANIZATION_ASSIGNMENT ( #313, #274, ( #371 ) ) ;
#22 = CIRCLE ( 'NONE', #151, 2.000000000000000000 ) ;
#23 = DIRECTION ( 'NONE',  ( 0.5000000000000002220, -0.8660254037844385966, 0.000000000000000000 ) ) ;
#24 = CARTESIAN_POINT ( 'NONE',  ( -2.020725942163690725, 3.500000000000003109, 0.000000000000000000 ) ) ;
#25 = LOCAL_TIME ( 23, 18, 46.00000000000000000, #340 ) ;
#26 = CC_DESIGN_SECURITY_CLASSIFICATION ( #354, ( #371 ) ) ;
#27 = CC_DESIGN_DATE_AND_TIME_ASSIGNMENT ( #283, #100, ( #354 ) ) ;
#28 = ORIENTED_EDGE ( 'NONE', *, *, #277, .F. ) ;
#29 = VERTEX_POINT ( 'NONE', #275 ) ;
#30 = DIRECTION ( 'NONE',  ( 1.000000000000000000, 0.000000000000000000, 0.000000000000000000 ) ) ;
#31 = ORIENTED_EDGE ( 'NONE', *, *, #257, .T. ) ;
#32 = ADVANCED_FACE ( 'NONE', ( #299 ), #73, .F. ) ;
#33 = APPROVAL_PERSON_ORGANIZATION ( #51, #192, #72 ) ;
#34 = CIRCLE ( 'NONE', #48, 2.000000000000000000 ) ;
#35 = ORIENTED_EDGE ( 'NONE', *, *, #251, .F. ) ;
#36 = DIRECTION ( 'NONE',  ( -0.000000000000000000, -0.000000000000000000, -1.000000000000000000 ) ) ;
#37 = ORIENTED_EDGE ( 'NONE', *, *, #142, .T. ) ;
#38 = PRODUCT_DEFINITION ( 'UNKNOWN', '', #371, #136 ) ;
#39 = CARTESIAN_POINT ( 'NONE',  ( 0.000000000000000000, 0.000000000000000000, 3.200000000000000178 ) ) ;
#40 = DIRECTION ( 'NONE',  ( 0.000000000000000000, 0.000000000000000000, 1.000000000000000000 ) ) ;
#41 = ORIENTED_EDGE ( 'NONE', *, *, #237, .T. ) ;
#42 = VECTOR ( 'NONE', #50, 1000.000000000000000 ) ;
#43 = DIRECTION ( 'NONE',  ( 1.000000000000000000, 0.000000000000000000, 0.000000000000000000 ) ) ;
#44 = DIRECTION ( 'NONE',  ( -0.8660254037844389297, 0.4999999999999995559, 0.000000000000000000 ) ) ;
#45 = APPLICATION_CONTEXT ( 'configuration controlled 3d designs of mechanical parts and assemblies' ) ;
#46 = EDGE_LOOP ( 'NONE', ( #294, #125, #61, #88 ) ) ;
#47 = CARTESIAN_POINT ( 'NONE',  ( -2.020725942163690725, 3.500000000000003109, 3.200000000000000178 ) ) ;
#48 = AXIS2_PLACEMENT_3D ( 'NONE', #20, #79, #190 ) ;
#49 = CALENDAR_DATE ( 2024, 26, 9 ) ;
#50 = DIRECTION ( 'NONE',  ( -0.000000000000000000, -0.000000000000000000, -1.000000000000000000 ) ) ;
#51 = PERSON_AND_ORGANIZATION ( #341, #225 ) ;
#52 = LINE ( 'NONE', #144, #318 ) ;
#53 = APPROVAL_DATE_TIME ( #220, #192 ) ;
#54 = UNCERTAINTY_MEASURE_WITH_UNIT (LENGTH_MEASURE( 1.000000000000000082E-05 ), #239, 'distance_accuracy_value', 'NONE');
#55 = LINE ( 'NONE', #132, #198 ) ;
#56 = LINE ( 'NONE', #314, #212 ) ;
#57 = ADVANCED_FACE ( 'NONE', ( #269 ), #99, .F. ) ;
#58 = VECTOR ( 'NONE', #60, 1000.000000000000114 ) ;
#59 = ORIENTED_EDGE ( 'NONE', *, *, #364, .T. ) ;
#60 = DIRECTION ( 'NONE',  ( -0.5000000000000001110, -0.8660254037844385966, 0.000000000000000000 ) ) ;
#61 = ORIENTED_EDGE ( 'NONE', *, *, #111, .F. ) ;
#62 = DIRECTION ( 'NONE',  ( -1.000000000000000000, 0.000000000000000000, 0.000000000000000000 ) ) ;
#63 = EDGE_LOOP ( 'NONE', ( #176, #350, #372, #149 ) ) ;
#64 = LINE ( 'NONE', #303, #229 ) ;
#65 = APPROVAL_PERSON_ORGANIZATION ( #207, #282, #3 ) ;
#66 = CARTESIAN_POINT ( 'NONE',  ( -2.000000000000000000, 0.000000000000000000, 3.200000000000000178 ) ) ;
#67 = VERTEX_POINT ( 'NONE', #278 ) ;
#68 = APPROVAL_STATUS ( 'not_yet_approved' ) ;
#69 = FACE_OUTER_BOUND ( 'NONE', #46, .T. ) ;
#70 = ORIENTED_EDGE ( 'NONE', *, *, #277, .T. ) ;
#71 = VECTOR ( 'NONE', #264, 1000.000000000000000 ) ;
#72 = APPROVAL_ROLE ( '' ) ;
#73 = PLANE ( 'NONE',  #374 ) ;
#74 = APPROVAL_DATE_TIME ( #179, #282 ) ;
#75 = DIRECTION ( 'NONE',  ( -0.4999999999999995559, -0.8660254037844389297, 0.000000000000000000 ) ) ;
#76 = CARTESIAN_POINT ( 'NONE',  ( 4.041451884327380562, 8.792377742361624244E-16, 0.000000000000000000 ) ) ;
#77 = LOCAL_TIME ( 23, 18, 46.00000000000000000, #365 ) ;
#78 = EDGE_CURVE ( 'NONE', #205, #29, #181, .T. ) ;
#79 = DIRECTION ( 'NONE',  ( 0.000000000000000000, 0.000000000000000000, 1.000000000000000000 ) ) ;
#80 = CARTESIAN_POINT ( 'NONE',  ( -2.020725942163691613, -3.500000000000002220, 0.000000000000000000 ) ) ;
#81 = ADVANCED_BREP_SHAPE_REPRESENTATION ( '너트 m4', ( #113, #15 ), #188 ) ;
#82 = FACE_OUTER_BOUND ( 'NONE', #321, .T. ) ;
#83 = VECTOR ( 'NONE', #328, 999.9999999999998863 ) ;
#84 = CARTESIAN_POINT ( 'NONE',  ( 4.041451884327380562, 8.792377742361624244E-16, 3.200000000000000178 ) ) ;
#85 = VERTEX_POINT ( 'NONE', #244 ) ;
#86 = ADVANCED_FACE ( 'NONE', ( #184, #280 ), #14, .T. ) ;
#87 = ORIENTED_EDGE ( 'NONE', *, *, #309, .F. ) ;
#88 = ORIENTED_EDGE ( 'NONE', *, *, #221, .T. ) ;
#89 = DIRECTION ( 'NONE',  ( 0.000000000000000000, 0.000000000000000000, 1.000000000000000000 ) ) ;
#90 = EDGE_LOOP ( 'NONE', ( #183, #259 ) ) ;
#91 = CALENDAR_DATE ( 2024, 26, 9 ) ;
#92 = VECTOR ( 'NONE', #23, 999.9999999999998863 ) ;
#93 = ORIENTED_EDGE ( 'NONE', *, *, #78, .T. ) ;
#94 = ADVANCED_FACE ( 'NONE', ( #240 ), #357, .F. ) ;
#95 = LINE ( 'NONE', #47, #7 ) ;
#96 = CARTESIAN_POINT ( 'NONE',  ( 2.020725942163690725, -3.500000000000002220, 3.200000000000000178 ) ) ;
#97 = EDGE_CURVE ( 'NONE', #154, #171, #95, .T. ) ;
#98 = EDGE_LOOP ( 'NONE', ( #114, #41, #59, #297, #260, #236 ) ) ;
#99 = PLANE ( 'NONE',  #168 ) ;
#100 = DATE_TIME_ROLE ( 'classification_date' ) ;
#101 = CARTESIAN_POINT ( 'NONE',  ( 0.000000000000000000, 0.000000000000000000, 0.000000000000000000 ) ) ;
#102 = ADVANCED_FACE ( 'NONE', ( #331 ), #249, .F. ) ;
#103 = PERSON_AND_ORGANIZATION_ROLE ( 'creator' ) ;
#104 = LINE ( 'NONE', #284, #109 ) ;
#105 = AXIS2_PLACEMENT_3D ( 'NONE', #368, #253, #30 ) ;
#106 = CARTESIAN_POINT ( 'NONE',  ( 2.000000000000000000, 2.449293598294706414E-16, 3.200000000000000178 ) ) ;
#107 = LINE ( 'NONE', #342, #92 ) ;
#108 = DIRECTION ( 'NONE',  ( -0.000000000000000000, -0.000000000000000000, -1.000000000000000000 ) ) ;
#109 = VECTOR ( 'NONE', #346, 1000.000000000000000 ) ;
#110 = ORIENTED_EDGE ( 'NONE', *, *, #166, .F. ) ;
#111 = EDGE_CURVE ( 'NONE', #373, #202, #326, .T. ) ;
#112 = EDGE_LOOP ( 'NONE', ( #306, #169, #87, #93 ) ) ;
#113 = MANIFOLD_SOLID_BREP ( '보스-돌출1', #246 ) ;
#114 = ORIENTED_EDGE ( 'NONE', *, *, #309, .T. ) ;
#115 = DIRECTION ( 'NONE',  ( 1.000000000000000000, 0.000000000000000000, 0.000000000000000000 ) ) ;
#116 = ORIENTED_EDGE ( 'NONE', *, *, #174, .F. ) ;
#117 = ADVANCED_FACE ( 'NONE', ( #69 ), #273, .F. ) ;
#118 = CARTESIAN_POINT ( 'NONE',  ( 2.020725942163688504, 3.500000000000003109, 3.200000000000000178 ) ) ;
#119 = CC_DESIGN_APPROVAL ( #337, ( #354 ) ) ;
#120 = DIRECTION ( 'NONE',  ( 1.000000000000000000, 0.000000000000000000, -0.000000000000000000 ) ) ;
#121 = FACE_OUTER_BOUND ( 'NONE', #4, .T. ) ;
#122 = DIRECTION ( 'NONE',  ( 0.8660254037844385966, 0.5000000000000001110, -0.000000000000000000 ) ) ;
#123 = PERSON_AND_ORGANIZATION ( #341, #225 ) ;
#124 = CC_DESIGN_PERSON_AND_ORGANIZATION_ASSIGNMENT ( #276, #160, ( #354 ) ) ;
#125 = ORIENTED_EDGE ( 'NONE', *, *, #287, .F. ) ;
#126 = CALENDAR_DATE ( 2024, 26, 9 ) ;
#127 = VECTOR ( 'NONE', #62, 1000.000000000000000 ) ;
#128 = ORIENTED_EDGE ( 'NONE', *, *, #226, .F. ) ;
#129 = APPROVAL_DATE_TIME ( #358, #337 ) ;
#130 = DIRECTION ( 'NONE',  ( -0.000000000000000000, -0.000000000000000000, -1.000000000000000000 ) ) ;
#131 = COORDINATED_UNIVERSAL_TIME_OFFSET ( 9, 0, .AHEAD. ) ;
#132 = CARTESIAN_POINT ( 'NONE',  ( -2.020725942163691613, -3.500000000000002220, 0.000000000000000000 ) ) ;
#133 = SECURITY_CLASSIFICATION_LEVEL ( 'unclassified' ) ;
#134 = FACE_OUTER_BOUND ( 'NONE', #227, .T. ) ;
#135 = AXIS2_PLACEMENT_3D ( 'NONE', #101, #339, #137 ) ;
#136 = DESIGN_CONTEXT ( 'detailed design', #2, 'design' ) ;
#137 = DIRECTION ( 'NONE',  ( 1.000000000000000000, 0.000000000000000000, -0.000000000000000000 ) ) ;
#138 = CC_DESIGN_PERSON_AND_ORGANIZATION_ASSIGNMENT ( #156, #103, ( #38 ) ) ;
#139 = DIRECTION ( 'NONE',  ( 0.5000000000000001110, 0.8660254037844385966, 0.000000000000000000 ) ) ;
#140 = CC_DESIGN_APPROVAL ( #192, ( #371 ) ) ;
#141 = ORIENTED_EDGE ( 'NONE', *, *, #316, .F. ) ;
#142 = EDGE_CURVE ( 'NONE', #267, #145, #18, .T. ) ;
#143 = EDGE_LOOP ( 'NONE', ( #213, #317, #290, #147 ) ) ;
#144 = CARTESIAN_POINT ( 'NONE',  ( 4.041451884327380562, 8.792377742361624244E-16, 0.000000000000000000 ) ) ;
#145 = VERTEX_POINT ( 'NONE', #76 ) ;
#146 = LOCAL_TIME ( 23, 18, 46.00000000000000000, #352 ) ;
#147 = ORIENTED_EDGE ( 'NONE', *, *, #226, .T. ) ;
#148 = ORIENTED_EDGE ( 'NONE', *, *, #344, .F. ) ;
#149 = ORIENTED_EDGE ( 'NONE', *, *, #153, .F. ) ;
#150 = CARTESIAN_POINT ( 'NONE',  ( 2.020725942163688504, 3.500000000000003109, 0.000000000000000000 ) ) ;
#151 = AXIS2_PLACEMENT_3D ( 'NONE', #325, #272, #115 ) ;
#152 = DIRECTION ( 'NONE',  ( 0.5000000000000001110, -0.8660254037844385966, 0.000000000000000000 ) ) ;
#153 = EDGE_CURVE ( 'NONE', #359, #85, #271, .T. ) ;
#154 = VERTEX_POINT ( 'NONE', #219 ) ;
#155 = DIRECTION ( 'NONE',  ( 0.000000000000000000, -1.000000000000000000, 0.000000000000000000 ) ) ;
#156 = PERSON_AND_ORGANIZATION ( #341, #225 ) ;
#157 = LOCAL_TIME ( 23, 18, 46.00000000000000000, #211 ) ;
#158 = LINE ( 'NONE', #242, #367 ) ;
#159 = DIRECTION ( 'NONE',  ( -0.5000000000000001110, 0.8660254037844385966, 0.000000000000000000 ) ) ;
#160 = PERSON_AND_ORGANIZATION_ROLE ( 'classification_officer' ) ;
#161 = CARTESIAN_POINT ( 'NONE',  ( -2.000000000000000000, 0.000000000000000000, 3.200000000000000178 ) ) ;
#162 = CARTESIAN_POINT ( 'NONE',  ( 2.020725942163688504, 3.500000000000003109, 3.200000000000000178 ) ) ;
#163 = VECTOR ( 'NONE', #255, 1000.000000000000114 ) ;
#164 = ADVANCED_FACE ( 'NONE', ( #134 ), #222, .F. ) ;
#165 = CARTESIAN_POINT ( 'NONE',  ( 0.000000000000000000, 0.000000000000000000, 3.200000000000000178 ) ) ;
#166 = EDGE_CURVE ( 'NONE', #67, #167, #107, .T. ) ;
#167 = VERTEX_POINT ( 'NONE', #80 ) ;
#168 = AXIS2_PLACEMENT_3D ( 'NONE', #17, #155, #178 ) ;
#169 = ORIENTED_EDGE ( 'NONE', *, *, #142, .F. ) ;
#170 = DIRECTION ( 'NONE',  ( -0.000000000000000000, -0.000000000000000000, -1.000000000000000000 ) ) ;
#171 = VERTEX_POINT ( 'NONE', #223 ) ;
#172 = APPLICATION_PROTOCOL_DEFINITION ( 'international standard', 'config_control_design', 1994, #2 ) ;
#173 = ORIENTED_EDGE ( 'NONE', *, *, #153, .T. ) ;
#174 = EDGE_CURVE ( 'NONE', #167, #29, #55, .T. ) ;
#175 = CARTESIAN_POINT ( 'NONE',  ( -4.041451884327383226, -8.544729626952345127E-16, 3.200000000000000178 ) ) ;
#176 = ORIENTED_EDGE ( 'NONE', *, *, #257, .F. ) ;
#177 = LINE ( 'NONE', #118, #127 ) ;
#178 = DIRECTION ( 'NONE',  ( 0.000000000000000000, -0.000000000000000000, -1.000000000000000000 ) ) ;
#179 = DATE_AND_TIME ( #91, #146 ) ;
#180 = EDGE_CURVE ( 'NONE', #145, #322, #52, .T. ) ;
#181 = LINE ( 'NONE', #12, #338 ) ;
#182 = CARTESIAN_POINT ( 'NONE',  ( 2.020725942163688504, 3.500000000000003109, 0.000000000000000000 ) ) ;
#183 = ORIENTED_EDGE ( 'NONE', *, *, #330, .F. ) ;
#184 = FACE_OUTER_BOUND ( 'NONE', #98, .T. ) ;
#185 = DIRECTION ( 'NONE',  ( -0.8660254037844385966, -0.5000000000000001110, 0.000000000000000000 ) ) ;
#186 = CALENDAR_DATE ( 2024, 26, 9 ) ;
#187 = ADVANCED_FACE ( 'NONE', ( #82, #343 ), #291, .F. ) ;
#188 =( GEOMETRIC_REPRESENTATION_CONTEXT ( 3 ) GLOBAL_UNCERTAINTY_ASSIGNED_CONTEXT ( ( #54 ) ) GLOBAL_UNIT_ASSIGNED_CONTEXT ( ( #239, #204, #351 ) ) REPRESENTATION_CONTEXT ( 'NONE', 'WORKASPACE' ) );
#189 = DIRECTION ( 'NONE',  ( 1.000000000000000000, 0.000000000000000000, 0.000000000000000000 ) ) ;
#190 = DIRECTION ( 'NONE',  ( 1.000000000000000000, 0.000000000000000000, 0.000000000000000000 ) ) ;
#191 = DIRECTION ( 'NONE',  ( -0.000000000000000000, -0.000000000000000000, -1.000000000000000000 ) ) ;
#192 = APPROVAL ( #243, 'UNSPECIFIED' ) ;
#193 = FACE_OUTER_BOUND ( 'NONE', #63, .T. ) ;
#194 = VECTOR ( 'NONE', #36, 1000.000000000000000 ) ;
#195 = AXIS2_PLACEMENT_3D ( 'NONE', #301, #363, #208 ) ;
#196 = CC_DESIGN_DATE_AND_TIME_ASSIGNMENT ( #333, #13, ( #38 ) ) ;
#197 = ORIENTED_EDGE ( 'NONE', *, *, #78, .F. ) ;
#198 = VECTOR ( 'NONE', #189, 1000.000000000000000 ) ;
#199 = LINE ( 'NONE', #320, #58 ) ;
#200 = ORIENTED_EDGE ( 'NONE', *, *, #180, .T. ) ;
#201 = APPLICATION_PROTOCOL_DEFINITION ( 'international standard', 'config_control_design', 1994, #45 ) ;
#202 = VERTEX_POINT ( 'NONE', #336 ) ;
#203 = CC_DESIGN_PERSON_AND_ORGANIZATION_ASSIGNMENT ( #327, #329, ( #256 ) ) ;
#204 =( NAMED_UNIT ( * ) PLANE_ANGLE_UNIT ( ) SI_UNIT ( $, .RADIAN. ) );
#205 = VERTEX_POINT ( 'NONE', #315 ) ;
#206 = VECTOR ( 'NONE', #191, 1000.000000000000000 ) ;
#207 = PERSON_AND_ORGANIZATION ( #341, #225 ) ;
#208 = DIRECTION ( 'NONE',  ( -1.000000000000000000, 0.000000000000000000, 0.000000000000000000 ) ) ;
#209 = LINE ( 'NONE', #9, #288 ) ;
#210 = CARTESIAN_POINT ( 'NONE',  ( -4.041451884327383226, -8.544729626952345127E-16, 3.200000000000000178 ) ) ;
#211 = COORDINATED_UNIVERSAL_TIME_OFFSET ( 9, 0, .AHEAD. ) ;
#212 = VECTOR ( 'NONE', #108, 1000.000000000000000 ) ;
#213 = ORIENTED_EDGE ( 'NONE', *, *, #344, .T. ) ;
#214 = DIRECTION ( 'NONE',  ( -0.000000000000000000, -0.000000000000000000, -1.000000000000000000 ) ) ;
#215 = EDGE_CURVE ( 'NONE', #353, #85, #216, .T. ) ;
#216 = LINE ( 'NONE', #161, #206 ) ;
#217 = SHAPE_DEFINITION_REPRESENTATION ( #8, #81 ) ;
#218 = AXIS2_PLACEMENT_3D ( 'NONE', #10, #122, #285 ) ;
#219 = CARTESIAN_POINT ( 'NONE',  ( -2.020725942163690725, 3.500000000000003109, 3.200000000000000178 ) ) ;
#220 = DATE_AND_TIME ( #186, #258 ) ;
#221 = EDGE_CURVE ( 'NONE', #373, #67, #56, .T. ) ;
#222 = PLANE ( 'NONE',  #348 ) ;
#223 = CARTESIAN_POINT ( 'NONE',  ( -2.020725942163690725, 3.500000000000003109, 0.000000000000000000 ) ) ;
#224 = DIRECTION ( 'NONE',  ( -1.000000000000000000, 0.000000000000000000, 0.000000000000000000 ) ) ;
#225 = ORGANIZATION ( 'UNSPECIFIED', 'UNSPECIFIED', '' ) ;
#226 = EDGE_CURVE ( 'NONE', #289, #322, #310, .T. ) ;
#227 = EDGE_LOOP ( 'NONE', ( #307, #292, #347, #228 ) ) ;
#228 = ORIENTED_EDGE ( 'NONE', *, *, #97, .T. ) ;
#229 = VECTOR ( 'NONE', #43, 1000.000000000000000 ) ;
#230 = CARTESIAN_POINT ( 'NONE',  ( 0.000000000000000000, 0.000000000000000000, 3.200000000000000178 ) ) ;
#231 = ADVANCED_FACE ( 'NONE', ( #193 ), #281, .F. ) ;
#232 = ORIENTED_EDGE ( 'NONE', *, *, #174, .T. ) ;
#233 = CARTESIAN_POINT ( 'NONE',  ( 0.000000000000000000, 0.000000000000000000, 0.000000000000000000 ) ) ;
#234 = ORIENTED_EDGE ( 'NONE', *, *, #215, .F. ) ;
#235 = CARTESIAN_POINT ( 'NONE',  ( -2.020725942163691613, -3.500000000000002220, 3.200000000000000178 ) ) ;
#236 = ORIENTED_EDGE ( 'NONE', *, *, #316, .T. ) ;
#237 = EDGE_CURVE ( 'NONE', #267, #289, #250, .T. ) ;
#238 = APPROVAL_PERSON_ORGANIZATION ( #123, #337, #311 ) ;
#239 =( LENGTH_UNIT ( ) NAMED_UNIT ( * ) SI_UNIT ( .MILLI., .METRE. ) );
#240 = FACE_OUTER_BOUND ( 'NONE', #265, .T. ) ;
#241 = DIRECTION ( 'NONE',  ( 0.000000000000000000, 1.000000000000000000, 0.000000000000000000 ) ) ;
#242 = CARTESIAN_POINT ( 'NONE',  ( 2.020725942163690725, -3.500000000000002220, 0.000000000000000000 ) ) ;
#243 = APPROVAL_STATUS ( 'not_yet_approved' ) ;
#244 = CARTESIAN_POINT ( 'NONE',  ( -2.000000000000000000, 0.000000000000000000, 0.000000000000000000 ) ) ;
#245 = PERSON_AND_ORGANIZATION_ROLE ( 'creator' ) ;
#246 = CLOSED_SHELL ( 'NONE', ( #102, #86, #187, #32, #94, #57, #164, #117, #377, #231 ) ) ;
#247 = CC_DESIGN_PERSON_AND_ORGANIZATION_ASSIGNMENT ( #362, #245, ( #371 ) ) ;
#248 = ORIENTED_EDGE ( 'NONE', *, *, #16, .F. ) ;
#249 = CYLINDRICAL_SURFACE ( 'NONE', #195, 2.000000000000000000 ) ;
#250 = LINE ( 'NONE', #366, #163 ) ;
#251 = EDGE_CURVE ( 'NONE', #171, #67, #312, .T. ) ;
#252 = AXIS2_PLACEMENT_3D ( 'NONE', #165, #286, #224 ) ;
#253 = DIRECTION ( 'NONE',  ( 0.000000000000000000, 0.000000000000000000, 1.000000000000000000 ) ) ;
#254 = CARTESIAN_POINT ( 'NONE',  ( 4.041451884327380562, 8.792377742361624244E-16, 3.200000000000000178 ) ) ;
#255 = DIRECTION ( 'NONE',  ( -0.5000000000000001110, 0.8660254037844385966, 0.000000000000000000 ) ) ;
#256 = PRODUCT ( '너트 m4', '너트 m4', '', ( #296 ) ) ;
#257 = EDGE_CURVE ( 'NONE', #263, #359, #104, .T. ) ;
#258 = LOCAL_TIME ( 23, 18, 46.00000000000000000, #131 ) ;
#259 = ORIENTED_EDGE ( 'NONE', *, *, #261, .F. ) ;
#260 = ORIENTED_EDGE ( 'NONE', *, *, #111, .T. ) ;
#261 = EDGE_CURVE ( 'NONE', #263, #353, #34, .T. ) ;
#262 = DIRECTION ( 'NONE',  ( 0.8660254037844385966, -0.5000000000000001110, 0.000000000000000000 ) ) ;
#263 = VERTEX_POINT ( 'NONE', #106 ) ;
#264 = DIRECTION ( 'NONE',  ( -1.000000000000000000, 0.000000000000000000, 0.000000000000000000 ) ) ;
#265 = EDGE_LOOP ( 'NONE', ( #200, #128, #319, #37 ) ) ;
#266 = DIRECTION ( 'NONE',  ( 1.000000000000000000, 0.000000000000000000, 0.000000000000000000 ) ) ;
#267 = VERTEX_POINT ( 'NONE', #84 ) ;
#268 = CARTESIAN_POINT ( 'NONE',  ( -2.020725942163691613, -3.500000000000002220, 3.200000000000000178 ) ) ;
#269 = FACE_OUTER_BOUND ( 'NONE', #143, .T. ) ;
#270 = EDGE_CURVE ( 'NONE', #154, #373, #199, .T. ) ;
#271 = CIRCLE ( 'NONE', #105, 2.000000000000000000 ) ;
#272 = DIRECTION ( 'NONE',  ( 0.000000000000000000, 0.000000000000000000, 1.000000000000000000 ) ) ;
#273 = PLANE ( 'NONE',  #218 ) ;
#274 = PERSON_AND_ORGANIZATION_ROLE ( 'design_supplier' ) ;
#275 = CARTESIAN_POINT ( 'NONE',  ( 2.020725942163690725, -3.500000000000002220, 0.000000000000000000 ) ) ;
#276 = PERSON_AND_ORGANIZATION ( #341, #225 ) ;
#277 = EDGE_CURVE ( 'NONE', #85, #359, #22, .T. ) ;
#278 = CARTESIAN_POINT ( 'NONE',  ( -4.041451884327383226, -8.544729626952345127E-16, 0.000000000000000000 ) ) ;
#279 = CC_DESIGN_APPROVAL ( #282, ( #38 ) ) ;
#280 = FACE_BOUND ( 'NONE', #90, .T. ) ;
#281 = CYLINDRICAL_SURFACE ( 'NONE', #252, 2.000000000000000000 ) ;
#282 = APPROVAL ( #68, 'UNSPECIFIED' ) ;
#283 = DATE_AND_TIME ( #49, #25 ) ;
#284 = CARTESIAN_POINT ( 'NONE',  ( 2.000000000000000000, 2.449293598294706414E-16, 3.200000000000000178 ) ) ;
#285 = DIRECTION ( 'NONE',  ( -0.5000000000000001110, 0.8660254037844385966, 0.000000000000000000 ) ) ;
#286 = DIRECTION ( 'NONE',  ( -0.000000000000000000, -0.000000000000000000, -1.000000000000000000 ) ) ;
#287 = EDGE_CURVE ( 'NONE', #202, #167, #355, .T. ) ;
#288 = VECTOR ( 'NONE', #300, 1000.000000000000000 ) ;
#289 = VERTEX_POINT ( 'NONE', #5 ) ;
#290 = ORIENTED_EDGE ( 'NONE', *, *, #364, .F. ) ;
#291 = PLANE ( 'NONE',  #135 ) ;
#292 = ORIENTED_EDGE ( 'NONE', *, *, #221, .F. ) ;
#293 = CARTESIAN_POINT ( 'NONE',  ( 2.000000000000000000, 2.449293598294706414E-16, 0.000000000000000000 ) ) ;
#294 = ORIENTED_EDGE ( 'NONE', *, *, #166, .T. ) ;
#295 = AXIS2_PLACEMENT_3D ( 'NONE', #230, #40, #349 ) ;
#296 = MECHANICAL_CONTEXT ( 'NONE', #45, 'mechanical' ) ;
#297 = ORIENTED_EDGE ( 'NONE', *, *, #270, .T. ) ;
#298 = PLANE ( 'NONE',  #324 ) ;
#299 = FACE_OUTER_BOUND ( 'NONE', #112, .T. ) ;
#300 = DIRECTION ( 'NONE',  ( 0.4999999999999995559, 0.8660254037844389297, 0.000000000000000000 ) ) ;
#301 = CARTESIAN_POINT ( 'NONE',  ( 0.000000000000000000, 0.000000000000000000, 3.200000000000000178 ) ) ;
#302 = AXIS2_PLACEMENT_3D ( 'NONE', #335, #185, #152 ) ;
#303 = CARTESIAN_POINT ( 'NONE',  ( -2.020725942163691613, -3.500000000000002220, 3.200000000000000178 ) ) ;
#304 = EDGE_LOOP ( 'NONE', ( #1, #31, #28, #234 ) ) ;
#305 = PRODUCT_RELATED_PRODUCT_CATEGORY ( 'detail', '', ( #256 ) ) ;
#306 = ORIENTED_EDGE ( 'NONE', *, *, #16, .T. ) ;
#307 = ORIENTED_EDGE ( 'NONE', *, *, #251, .T. ) ;
#308 = VECTOR ( 'NONE', #370, 1000.000000000000114 ) ;
#309 = EDGE_CURVE ( 'NONE', #205, #267, #209, .T. ) ;
#310 = LINE ( 'NONE', #162, #42 ) ;
#311 = APPROVAL_ROLE ( '' ) ;
#312 = LINE ( 'NONE', #24, #308 ) ;
#313 = PERSON_AND_ORGANIZATION ( #341, #225 ) ;
#314 = CARTESIAN_POINT ( 'NONE',  ( -4.041451884327383226, -8.544729626952345127E-16, 3.200000000000000178 ) ) ;
#315 = CARTESIAN_POINT ( 'NONE',  ( 2.020725942163690725, -3.500000000000002220, 3.200000000000000178 ) ) ;
#316 = EDGE_CURVE ( 'NONE', #202, #205, #64, .T. ) ;
#317 = ORIENTED_EDGE ( 'NONE', *, *, #97, .F. ) ;
#318 = VECTOR ( 'NONE', #159, 1000.000000000000114 ) ;
#319 = ORIENTED_EDGE ( 'NONE', *, *, #237, .F. ) ;
#320 = CARTESIAN_POINT ( 'NONE',  ( -2.020725942163690725, 3.500000000000003109, 3.200000000000000178 ) ) ;
#321 = EDGE_LOOP ( 'NONE', ( #248, #116, #110, #35, #148, #375 ) ) ;
#322 = VERTEX_POINT ( 'NONE', #182 ) ;
#323 = EDGE_LOOP ( 'NONE', ( #70, #173 ) ) ;
#324 = AXIS2_PLACEMENT_3D ( 'NONE', #235, #241, #356 ) ;
#325 = CARTESIAN_POINT ( 'NONE',  ( 0.000000000000000000, 0.000000000000000000, 0.000000000000000000 ) ) ;
#326 = LINE ( 'NONE', #210, #83 ) ;
#327 = PERSON_AND_ORGANIZATION ( #341, #225 ) ;
#328 = DIRECTION ( 'NONE',  ( 0.5000000000000002220, -0.8660254037844385966, 0.000000000000000000 ) ) ;
#329 = PERSON_AND_ORGANIZATION_ROLE ( 'design_owner' ) ;
#330 = EDGE_CURVE ( 'NONE', #353, #263, #345, .T. ) ;
#331 = FACE_OUTER_BOUND ( 'NONE', #304, .T. ) ;
#332 = VECTOR ( 'NONE', #170, 1000.000000000000000 ) ;
#333 = DATE_AND_TIME ( #126, #157 ) ;
#334 = DIRECTION ( 'NONE',  ( 0.4999999999999995559, 0.8660254037844389297, 0.000000000000000000 ) ) ;
#335 = CARTESIAN_POINT ( 'NONE',  ( 4.041451884327380562, 8.792377742361624244E-16, 3.200000000000000178 ) ) ;
#336 = CARTESIAN_POINT ( 'NONE',  ( -2.020725942163691613, -3.500000000000002220, 3.200000000000000178 ) ) ;
#337 = APPROVAL ( #11, 'UNSPECIFIED' ) ;
#338 = VECTOR ( 'NONE', #214, 1000.000000000000000 ) ;
#339 = DIRECTION ( 'NONE',  ( 0.000000000000000000, -0.000000000000000000, 1.000000000000000000 ) ) ;
#340 = COORDINATED_UNIVERSAL_TIME_OFFSET ( 9, 0, .AHEAD. ) ;
#341 = PERSON ( 'UNSPECIFIED', 'UNSPECIFIED', 'UNSPECIFIED', ('UNSPECIFIED'), ('UNSPECIFIED'), ('UNSPECIFIED') ) ;
#342 = CARTESIAN_POINT ( 'NONE',  ( -4.041451884327383226, -8.544729626952345127E-16, 0.000000000000000000 ) ) ;
#343 = FACE_BOUND ( 'NONE', #323, .T. ) ;
#344 = EDGE_CURVE ( 'NONE', #322, #171, #376, .T. ) ;
#345 = CIRCLE ( 'NONE', #295, 2.000000000000000000 ) ;
#346 = DIRECTION ( 'NONE',  ( -0.000000000000000000, -0.000000000000000000, -1.000000000000000000 ) ) ;
#347 = ORIENTED_EDGE ( 'NONE', *, *, #270, .F. ) ;
#348 = AXIS2_PLACEMENT_3D ( 'NONE', #369, #262, #139 ) ;
#349 = DIRECTION ( 'NONE',  ( 1.000000000000000000, 0.000000000000000000, 0.000000000000000000 ) ) ;
#350 = ORIENTED_EDGE ( 'NONE', *, *, #261, .T. ) ;
#351 =( NAMED_UNIT ( * ) SI_UNIT ( $, .STERADIAN. ) SOLID_ANGLE_UNIT ( ) );
#352 = COORDINATED_UNIVERSAL_TIME_OFFSET ( 9, 0, .AHEAD. ) ;
#353 = VERTEX_POINT ( 'NONE', #66 ) ;
#354 = SECURITY_CLASSIFICATION ( '', '', #133 ) ;
#355 = LINE ( 'NONE', #268, #194 ) ;
#356 = DIRECTION ( 'NONE',  ( 0.000000000000000000, -0.000000000000000000, 1.000000000000000000 ) ) ;
#357 = PLANE ( 'NONE',  #302 ) ;
#358 = DATE_AND_TIME ( #19, #77 ) ;
#359 = VERTEX_POINT ( 'NONE', #293 ) ;
#360 = AXIS2_PLACEMENT_3D ( 'NONE', #39, #6, #120 ) ;
#361 = ORIENTED_EDGE ( 'NONE', *, *, #287, .T. ) ;
#362 = PERSON_AND_ORGANIZATION ( #341, #225 ) ;
#363 = DIRECTION ( 'NONE',  ( -0.000000000000000000, -0.000000000000000000, -1.000000000000000000 ) ) ;
#364 = EDGE_CURVE ( 'NONE', #289, #154, #177, .T. ) ;
#365 = COORDINATED_UNIVERSAL_TIME_OFFSET ( 9, 0, .AHEAD. ) ;
#366 = CARTESIAN_POINT ( 'NONE',  ( 4.041451884327380562, 8.792377742361624244E-16, 3.200000000000000178 ) ) ;
#367 = VECTOR ( 'NONE', #334, 1000.000000000000000 ) ;
#368 = CARTESIAN_POINT ( 'NONE',  ( 0.000000000000000000, 0.000000000000000000, 0.000000000000000000 ) ) ;
#369 = CARTESIAN_POINT ( 'NONE',  ( -2.020725942163690725, 3.500000000000003109, 3.200000000000000178 ) ) ;
#370 = DIRECTION ( 'NONE',  ( -0.5000000000000001110, -0.8660254037844385966, 0.000000000000000000 ) ) ;
#371 = PRODUCT_DEFINITION_FORMATION_WITH_SPECIFIED_SOURCE ( 'ANY', '', #256, .NOT_KNOWN. ) ;
#372 = ORIENTED_EDGE ( 'NONE', *, *, #215, .T. ) ;
#373 = VERTEX_POINT ( 'NONE', #175 ) ;
#374 = AXIS2_PLACEMENT_3D ( 'NONE', #96, #44, #75 ) ;
#375 = ORIENTED_EDGE ( 'NONE', *, *, #180, .F. ) ;
#376 = LINE ( 'NONE', #150, #71 ) ;
#377 = ADVANCED_FACE ( 'NONE', ( #121 ), #298, .F. ) ;
ENDSEC;
END-ISO-10303-21;
