ISO-10303-21;
HEADER;
FILE_DESCRIPTION (( 'STEP AP203' ),
    '1' );
FILE_NAME ('너트 m3.STEP',
    '2024-09-26T14:18:51',
    ( '' ),
    ( '' ),
    'SwSTEP 2.0',
    'SolidWorks 2022',
    '' );
FILE_SCHEMA (( 'CONFIG_CONTROL_DESIGN' ));
ENDSEC;

DATA;
#1 = PERSON_AND_ORGANIZATION ( #111, #127 ) ;
#2 = CARTESIAN_POINT ( 'NONE',  ( -3.175426480542943519, -1.738966774381063010E-15, 0.000000000000000000 ) ) ;
#3 = PRODUCT ( '너트 m3', '너트 m3', '', ( #374 ) ) ;
#4 = PRODUCT_DEFINITION_FORMATION_WITH_SPECIFIED_SOURCE ( 'ANY', '', #3, .NOT_KNOWN. ) ;
#5 = CARTESIAN_POINT ( 'NONE',  ( 0.000000000000000000, 0.000000000000000000, 2.399999999999999911 ) ) ;
#6 = APPROVAL_DATE_TIME ( #227, #243 ) ;
#7 = CARTESIAN_POINT ( 'NONE',  ( -1.500000000000000222, 0.000000000000000000, 0.000000000000000000 ) ) ;
#8 = DIRECTION ( 'NONE',  ( 1.000000000000000000, 0.000000000000000000, 0.000000000000000000 ) ) ;
#9 = VECTOR ( 'NONE', #43, 1000.000000000000000 ) ;
#10 = DIRECTION ( 'NONE',  ( -0.000000000000000000, -0.000000000000000000, -1.000000000000000000 ) ) ;
#11 = EDGE_CURVE ( 'NONE', #139, #366, #228, .T. ) ;
#12 = FACE_OUTER_BOUND ( 'NONE', #74, .T. ) ;
#13 = DIRECTION ( 'NONE',  ( -1.000000000000000000, 1.365740544306509353E-16, 0.000000000000000000 ) ) ;
#14 = CC_DESIGN_SECURITY_CLASSIFICATION ( #18, ( #4 ) ) ;
#15 = DIRECTION ( 'NONE',  ( -0.000000000000000000, -0.000000000000000000, -1.000000000000000000 ) ) ;
#16 = FACE_OUTER_BOUND ( 'NONE', #61, .T. ) ;
#17 = CARTESIAN_POINT ( 'NONE',  ( -1.587713240271471760, -2.750000000000000888, 0.000000000000000000 ) ) ;
#18 = SECURITY_CLASSIFICATION ( '', '', #202 ) ;
#19 =( NAMED_UNIT ( * ) PLANE_ANGLE_UNIT ( ) SI_UNIT ( $, .RADIAN. ) );
#20 = VERTEX_POINT ( 'NONE', #265 ) ;
#21 = ORIENTED_EDGE ( 'NONE', *, *, #292, .F. ) ;
#22 = DIRECTION ( 'NONE',  ( -0.000000000000000000, -0.000000000000000000, -1.000000000000000000 ) ) ;
#23 = VERTEX_POINT ( 'NONE', #30 ) ;
#24 = DIRECTION ( 'NONE',  ( 1.000000000000000000, 0.000000000000000000, 0.000000000000000000 ) ) ;
#25 = ORIENTED_EDGE ( 'NONE', *, *, #84, .T. ) ;
#26 = VECTOR ( 'NONE', #201, 1000.000000000000227 ) ;
#27 = PERSON_AND_ORGANIZATION_ROLE ( 'design_supplier' ) ;
#28 = CARTESIAN_POINT ( 'NONE',  ( 0.000000000000000000, 0.000000000000000000, 0.000000000000000000 ) ) ;
#29 = ADVANCED_BREP_SHAPE_REPRESENTATION ( '너트 m3', ( #155, #365 ), #32 ) ;
#30 = CARTESIAN_POINT ( 'NONE',  ( -1.587713240271471760, -2.750000000000000888, 2.399999999999999911 ) ) ;
#31 = DIRECTION ( 'NONE',  ( 0.4999999999999996114, 0.8660254037844388186, 0.000000000000000000 ) ) ;
#32 =( GEOMETRIC_REPRESENTATION_CONTEXT ( 3 ) GLOBAL_UNCERTAINTY_ASSIGNED_CONTEXT ( ( #93 ) ) GLOBAL_UNIT_ASSIGNED_CONTEXT ( ( #221, #19, #342 ) ) REPRESENTATION_CONTEXT ( 'NONE', 'WORKASPACE' ) );
#33 = LINE ( 'NONE', #170, #182 ) ;
#34 = DIRECTION ( 'NONE',  ( -0.000000000000000000, -0.000000000000000000, -1.000000000000000000 ) ) ;
#35 = DIRECTION ( 'NONE',  ( 1.000000000000000000, 0.000000000000000000, -0.000000000000000000 ) ) ;
#36 = APPROVAL_PERSON_ORGANIZATION ( #104, #299, #335 ) ;
#37 = EDGE_CURVE ( 'NONE', #112, #249, #188, .T. ) ;
#38 = LINE ( 'NONE', #328, #306 ) ;
#39 = FACE_OUTER_BOUND ( 'NONE', #100, .T. ) ;
#40 = CARTESIAN_POINT ( 'NONE',  ( 1.587713240271470427, -2.750000000000001776, 2.399999999999999911 ) ) ;
#41 = CARTESIAN_POINT ( 'NONE',  ( 0.000000000000000000, 0.000000000000000000, 2.399999999999999911 ) ) ;
#42 = COORDINATED_UNIVERSAL_TIME_OFFSET ( 9, 0, .AHEAD. ) ;
#43 = DIRECTION ( 'NONE',  ( -0.5000000000000004441, 0.8660254037844383745, 0.000000000000000000 ) ) ;
#44 = EDGE_LOOP ( 'NONE', ( #72, #246, #206, #282 ) ) ;
#45 = CC_DESIGN_APPROVAL ( #137, ( #4 ) ) ;
#46 = ORIENTED_EDGE ( 'NONE', *, *, #67, .F. ) ;
#47 = CARTESIAN_POINT ( 'NONE',  ( -3.175426480542943519, -1.738966774381063010E-15, 2.399999999999999911 ) ) ;
#48 = VERTEX_POINT ( 'NONE', #377 ) ;
#49 = EDGE_LOOP ( 'NONE', ( #146, #166, #375, #297 ) ) ;
#50 = EDGE_CURVE ( 'NONE', #105, #20, #235, .T. ) ;
#51 = COORDINATED_UNIVERSAL_TIME_OFFSET ( 9, 0, .AHEAD. ) ;
#52 = CC_DESIGN_PERSON_AND_ORGANIZATION_ASSIGNMENT ( #290, #320, ( #4 ) ) ;
#53 = VERTEX_POINT ( 'NONE', #355 ) ;
#54 = AXIS2_PLACEMENT_3D ( 'NONE', #136, #99, #165 ) ;
#55 = ORIENTED_EDGE ( 'NONE', *, *, #69, .F. ) ;
#56 = PERSON_AND_ORGANIZATION ( #111, #127 ) ;
#57 = PLANE ( 'NONE',  #70 ) ;
#58 = DATE_TIME_ROLE ( 'classification_date' ) ;
#59 = LINE ( 'NONE', #291, #204 ) ;
#60 = VECTOR ( 'NONE', #15, 1000.000000000000000 ) ;
#61 = EDGE_LOOP ( 'NONE', ( #268, #276, #318, #316 ) ) ;
#62 = DIRECTION ( 'NONE',  ( -1.000000000000000000, 0.000000000000000000, 0.000000000000000000 ) ) ;
#63 = CARTESIAN_POINT ( 'NONE',  ( 1.587713240271468429, 2.750000000000001776, 2.399999999999999911 ) ) ;
#64 = AXIS2_PLACEMENT_3D ( 'NONE', #154, #125, #302 ) ;
#65 = CARTESIAN_POINT ( 'NONE',  ( -1.500000000000000222, 0.000000000000000000, 2.399999999999999911 ) ) ;
#66 = DIRECTION ( 'NONE',  ( -0.000000000000000000, -0.000000000000000000, -1.000000000000000000 ) ) ;
#67 = EDGE_CURVE ( 'NONE', #20, #315, #203, .T. ) ;
#68 = DIRECTION ( 'NONE',  ( 0.4999999999999997780, 0.8660254037844388186, 0.000000000000000000 ) ) ;
#69 = EDGE_CURVE ( 'NONE', #48, #315, #33, .T. ) ;
#70 = AXIS2_PLACEMENT_3D ( 'NONE', #296, #174, #31 ) ;
#71 = DATE_AND_TIME ( #158, #160 ) ;
#72 = ORIENTED_EDGE ( 'NONE', *, *, #354, .T. ) ;
#73 = CARTESIAN_POINT ( 'NONE',  ( -1.587713240271471760, -2.750000000000000888, 2.399999999999999911 ) ) ;
#74 = EDGE_LOOP ( 'NONE', ( #288, #350, #131, #310 ) ) ;
#75 = AXIS2_PLACEMENT_3D ( 'NONE', #97, #242, #332 ) ;
#76 = LINE ( 'NONE', #275, #9 ) ;
#77 = ORIENTED_EDGE ( 'NONE', *, *, #69, .T. ) ;
#78 = ORIENTED_EDGE ( 'NONE', *, *, #152, .F. ) ;
#79 = EDGE_CURVE ( 'NONE', #249, #112, #98, .T. ) ;
#80 = COORDINATED_UNIVERSAL_TIME_OFFSET ( 9, 0, .AHEAD. ) ;
#81 = EDGE_LOOP ( 'NONE', ( #278, #253, #135, #216, #46, #370 ) ) ;
#82 = DIRECTION ( 'NONE',  ( 0.000000000000000000, 0.000000000000000000, 1.000000000000000000 ) ) ;
#83 = VECTOR ( 'NONE', #147, 1000.000000000000227 ) ;
#84 = EDGE_CURVE ( 'NONE', #23, #139, #59, .T. ) ;
#85 = VERTEX_POINT ( 'NONE', #2 ) ;
#86 = APPROVAL_ROLE ( '' ) ;
#87 = DIRECTION ( 'NONE',  ( -0.5000000000000004441, 0.8660254037844383745, 0.000000000000000000 ) ) ;
#88 = FACE_OUTER_BOUND ( 'NONE', #192, .T. ) ;
#89 = ORIENTED_EDGE ( 'NONE', *, *, #341, .F. ) ;
#90 = EDGE_CURVE ( 'NONE', #103, #23, #177, .T. ) ;
#91 = DIRECTION ( 'NONE',  ( -0.000000000000000000, -0.000000000000000000, -1.000000000000000000 ) ) ;
#92 = FACE_OUTER_BOUND ( 'NONE', #234, .T. ) ;
#93 = UNCERTAINTY_MEASURE_WITH_UNIT (LENGTH_MEASURE( 1.000000000000000082E-05 ), #221, 'distance_accuracy_value', 'NONE');
#94 = VECTOR ( 'NONE', #116, 1000.000000000000000 ) ;
#95 = DIRECTION ( 'NONE',  ( 1.000000000000000000, -1.365740544306509353E-16, 0.000000000000000000 ) ) ;
#96 = FACE_BOUND ( 'NONE', #312, .T. ) ;
#97 = CARTESIAN_POINT ( 'NONE',  ( 0.000000000000000000, 0.000000000000000000, 0.000000000000000000 ) ) ;
#98 = CIRCLE ( 'NONE', #373, 1.500000000000000222 ) ;
#99 = DIRECTION ( 'NONE',  ( -0.8660254037844388186, 0.4999999999999998335, 0.000000000000000000 ) ) ;
#100 = EDGE_LOOP ( 'NONE', ( #294, #336, #251, #219, #343, #25 ) ) ;
#101 = EDGE_CURVE ( 'NONE', #85, #195, #179, .T. ) ;
#102 = APPLICATION_PROTOCOL_DEFINITION ( 'international standard', 'config_control_design', 1994, #281 ) ;
#103 = VERTEX_POINT ( 'NONE', #267 ) ;
#104 = PERSON_AND_ORGANIZATION ( #111, #127 ) ;
#105 = VERTEX_POINT ( 'NONE', #321 ) ;
#106 = AXIS2_PLACEMENT_3D ( 'NONE', #73, #338, #108 ) ;
#107 = ORIENTED_EDGE ( 'NONE', *, *, #264, .F. ) ;
#108 = DIRECTION ( 'NONE',  ( -1.000000000000000000, 2.731481088613016734E-16, 0.000000000000000000 ) ) ;
#109 = ORIENTED_EDGE ( 'NONE', *, *, #376, .T. ) ;
#110 = PERSON_AND_ORGANIZATION ( #111, #127 ) ;
#111 = PERSON ( 'UNSPECIFIED', 'UNSPECIFIED', 'UNSPECIFIED', ('UNSPECIFIED'), ('UNSPECIFIED'), ('UNSPECIFIED') ) ;
#112 = VERTEX_POINT ( 'NONE', #7 ) ;
#113 = VECTOR ( 'NONE', #256, 1000.000000000000000 ) ;
#114 = CARTESIAN_POINT ( 'NONE',  ( -3.175426480542943519, -1.738966774381063010E-15, 2.399999999999999911 ) ) ;
#115 = PERSON_AND_ORGANIZATION_ROLE ( 'creator' ) ;
#116 = DIRECTION ( 'NONE',  ( -0.000000000000000000, -0.000000000000000000, -1.000000000000000000 ) ) ;
#117 = SHAPE_DEFINITION_REPRESENTATION ( #254, #29 ) ;
#118 = CARTESIAN_POINT ( 'NONE',  ( 0.000000000000000000, 0.000000000000000000, 0.000000000000000000 ) ) ;
#119 = ADVANCED_FACE ( 'NONE', ( #88 ), #57, .F. ) ;
#120 = LINE ( 'NONE', #237, #94 ) ;
#121 = AXIS2_PLACEMENT_3D ( 'NONE', #124, #123, #362 ) ;
#122 = PRODUCT_DEFINITION ( 'UNKNOWN', '', #4, #126 ) ;
#123 = DIRECTION ( 'NONE',  ( -0.8660254037844383745, -0.5000000000000004441, 0.000000000000000000 ) ) ;
#124 = CARTESIAN_POINT ( 'NONE',  ( 3.175426480542941743, 8.964843213796632289E-16, 2.399999999999999911 ) ) ;
#125 = DIRECTION ( 'NONE',  ( 0.000000000000000000, 0.000000000000000000, 1.000000000000000000 ) ) ;
#126 = DESIGN_CONTEXT ( 'detailed design', #347, 'design' ) ;
#127 = ORGANIZATION ( 'UNSPECIFIED', 'UNSPECIFIED', '' ) ;
#128 = CARTESIAN_POINT ( 'NONE',  ( -1.587713240271471760, -2.750000000000000888, 0.000000000000000000 ) ) ;
#129 = CARTESIAN_POINT ( 'NONE',  ( -1.587713240271471760, -2.750000000000000888, 2.399999999999999911 ) ) ;
#130 = DIRECTION ( 'NONE',  ( -0.4999999999999996669, -0.8660254037844388186, 0.000000000000000000 ) ) ;
#131 = ORIENTED_EDGE ( 'NONE', *, *, #218, .T. ) ;
#132 = APPROVAL_PERSON_ORGANIZATION ( #145, #137, #86 ) ;
#133 = CC_DESIGN_APPROVAL ( #299, ( #122 ) ) ;
#134 = LINE ( 'NONE', #252, #325 ) ;
#135 = ORIENTED_EDGE ( 'NONE', *, *, #101, .F. ) ;
#136 = CARTESIAN_POINT ( 'NONE',  ( 1.587713240271470427, -2.750000000000001776, 2.399999999999999911 ) ) ;
#137 = APPROVAL ( #349, 'UNSPECIFIED' ) ;
#138 = VECTOR ( 'NONE', #199, 1000.000000000000000 ) ;
#139 = VERTEX_POINT ( 'NONE', #144 ) ;
#140 = DIRECTION ( 'NONE',  ( 1.000000000000000000, 0.000000000000000000, 0.000000000000000000 ) ) ;
#141 = EDGE_LOOP ( 'NONE', ( #190, #107, #259, #286 ) ) ;
#142 = COORDINATED_UNIVERSAL_TIME_OFFSET ( 9, 0, .AHEAD. ) ;
#143 = AXIS2_PLACEMENT_3D ( 'NONE', #270, #180, #35 ) ;
#144 = CARTESIAN_POINT ( 'NONE',  ( 1.587713240271470427, -2.750000000000001776, 2.399999999999999911 ) ) ;
#145 = PERSON_AND_ORGANIZATION ( #111, #127 ) ;
#146 = ORIENTED_EDGE ( 'NONE', *, *, #101, .T. ) ;
#147 = DIRECTION ( 'NONE',  ( 0.5000000000000003331, -0.8660254037844383745, 0.000000000000000000 ) ) ;
#148 = LINE ( 'NONE', #304, #169 ) ;
#149 = AXIS2_PLACEMENT_3D ( 'NONE', #209, #330, #95 ) ;
#150 = EDGE_CURVE ( 'NONE', #197, #284, #255, .T. ) ;
#151 = DIRECTION ( 'NONE',  ( -0.4999999999999996669, -0.8660254037844388186, 0.000000000000000000 ) ) ;
#152 = EDGE_CURVE ( 'NONE', #334, #105, #120, .T. ) ;
#153 = LINE ( 'NONE', #63, #273 ) ;
#154 = CARTESIAN_POINT ( 'NONE',  ( 0.000000000000000000, 0.000000000000000000, 2.399999999999999911 ) ) ;
#155 = MANIFOLD_SOLID_BREP ( '보스-돌출1', #247 ) ;
#156 = LOCAL_TIME ( 23, 18, 51.00000000000000000, #51 ) ;
#157 = PLANE ( 'NONE',  #300 ) ;
#158 = CALENDAR_DATE ( 2024, 26, 9 ) ;
#159 = EDGE_LOOP ( 'NONE', ( #109, #78, #225, #372 ) ) ;
#160 = LOCAL_TIME ( 23, 18, 51.00000000000000000, #42 ) ;
#161 = FACE_OUTER_BOUND ( 'NONE', #159, .T. ) ;
#162 = EDGE_CURVE ( 'NONE', #315, #85, #38, .T. ) ;
#163 = ORIENTED_EDGE ( 'NONE', *, *, #37, .T. ) ;
#164 = ADVANCED_FACE ( 'NONE', ( #241, #298 ), #186, .F. ) ;
#165 = DIRECTION ( 'NONE',  ( -0.4999999999999997780, -0.8660254037844387076, 0.000000000000000000 ) ) ;
#166 = ORIENTED_EDGE ( 'NONE', *, *, #258, .F. ) ;
#167 = CARTESIAN_POINT ( 'NONE',  ( 0.000000000000000000, 0.000000000000000000, 0.000000000000000000 ) ) ;
#168 = ORIENTED_EDGE ( 'NONE', *, *, #162, .T. ) ;
#169 = VECTOR ( 'NONE', #10, 1000.000000000000000 ) ;
#170 = CARTESIAN_POINT ( 'NONE',  ( -1.587713240271471760, 2.750000000000002220, 2.399999999999999911 ) ) ;
#171 = CC_DESIGN_DATE_AND_TIME_ASSIGNMENT ( #230, #233, ( #122 ) ) ;
#172 = ORIENTED_EDGE ( 'NONE', *, *, #150, .F. ) ;
#173 = APPROVAL_STATUS ( 'not_yet_approved' ) ;
#174 = DIRECTION ( 'NONE',  ( 0.8660254037844388186, -0.4999999999999996114, 0.000000000000000000 ) ) ;
#175 = CALENDAR_DATE ( 2024, 26, 9 ) ;
#176 = VECTOR ( 'NONE', #231, 1000.000000000000000 ) ;
#177 = LINE ( 'NONE', #114, #26 ) ;
#178 = ADVANCED_FACE ( 'NONE', ( #240 ), #157, .F. ) ;
#179 = LINE ( 'NONE', #352, #83 ) ;
#180 = DIRECTION ( 'NONE',  ( 0.000000000000000000, -0.000000000000000000, 1.000000000000000000 ) ) ;
#181 = PLANE ( 'NONE',  #121 ) ;
#182 = VECTOR ( 'NONE', #34, 1000.000000000000000 ) ;
#183 = ADVANCED_FACE ( 'NONE', ( #269 ), #181, .F. ) ;
#184 = DIRECTION ( 'NONE',  ( -0.5000000000000003331, 0.8660254037844383745, 0.000000000000000000 ) ) ;
#185 = CARTESIAN_POINT ( 'NONE',  ( 3.175426480542941743, 8.964843213796632289E-16, 2.399999999999999911 ) ) ;
#186 = PLANE ( 'NONE',  #75 ) ;
#187 = EDGE_CURVE ( 'NONE', #139, #334, #212, .T. ) ;
#188 = CIRCLE ( 'NONE', #353, 1.500000000000000222 ) ;
#189 = PERSON_AND_ORGANIZATION ( #111, #127 ) ;
#190 = ORIENTED_EDGE ( 'NONE', *, *, #50, .T. ) ;
#191 = DIRECTION ( 'NONE',  ( 0.4999999999999997780, 0.8660254037844388186, 0.000000000000000000 ) ) ;
#192 = EDGE_LOOP ( 'NONE', ( #168, #368, #89, #77 ) ) ;
#193 = CARTESIAN_POINT ( 'NONE',  ( 1.587713240271470427, -2.750000000000001776, 0.000000000000000000 ) ) ;
#194 = CARTESIAN_POINT ( 'NONE',  ( 1.500000000000000222, 1.836970198721030181E-16, 2.399999999999999911 ) ) ;
#195 = VERTEX_POINT ( 'NONE', #128 ) ;
#196 = PERSON_AND_ORGANIZATION_ROLE ( 'classification_officer' ) ;
#197 = VERTEX_POINT ( 'NONE', #274 ) ;
#198 = VECTOR ( 'NONE', #66, 1000.000000000000000 ) ;
#199 = DIRECTION ( 'NONE',  ( -1.000000000000000000, 1.365740544306509353E-16, 0.000000000000000000 ) ) ;
#200 = CALENDAR_DATE ( 2024, 26, 9 ) ;
#201 = DIRECTION ( 'NONE',  ( 0.5000000000000003331, -0.8660254037844383745, 0.000000000000000000 ) ) ;
#202 = SECURITY_CLASSIFICATION_LEVEL ( 'unclassified' ) ;
#203 = LINE ( 'NONE', #344, #138 ) ;
#204 = VECTOR ( 'NONE', #261, 1000.000000000000000 ) ;
#205 = DIRECTION ( 'NONE',  ( 0.000000000000000000, 0.000000000000000000, 1.000000000000000000 ) ) ;
#206 = ORIENTED_EDGE ( 'NONE', *, *, #84, .F. ) ;
#207 = LINE ( 'NONE', #303, #198 ) ;
#208 = ADVANCED_FACE ( 'NONE', ( #16 ), #210, .F. ) ;
#209 = CARTESIAN_POINT ( 'NONE',  ( 1.587713240271468429, 2.750000000000001776, 2.399999999999999911 ) ) ;
#210 = CYLINDRICAL_SURFACE ( 'NONE', #220, 1.500000000000000222 ) ;
#211 = LINE ( 'NONE', #129, #60 ) ;
#212 = LINE ( 'NONE', #40, #333 ) ;
#213 = VECTOR ( 'NONE', #311, 1000.000000000000000 ) ;
#214 = EDGE_LOOP ( 'NONE', ( #163, #339 ) ) ;
#215 = APPLICATION_PROTOCOL_DEFINITION ( 'international standard', 'config_control_design', 1994, #347 ) ;
#216 = ORIENTED_EDGE ( 'NONE', *, *, #162, .F. ) ;
#217 = CC_DESIGN_PERSON_AND_ORGANIZATION_ASSIGNMENT ( #189, #250, ( #3 ) ) ;
#218 = EDGE_CURVE ( 'NONE', #284, #112, #207, .T. ) ;
#219 = ORIENTED_EDGE ( 'NONE', *, *, #341, .T. ) ;
#220 = AXIS2_PLACEMENT_3D ( 'NONE', #356, #91, #62 ) ;
#221 =( LENGTH_UNIT ( ) NAMED_UNIT ( * ) SI_UNIT ( .MILLI., .METRE. ) );
#222 = ORIENTED_EDGE ( 'NONE', *, *, #67, .T. ) ;
#223 = PRODUCT_RELATED_PRODUCT_CATEGORY ( 'detail', '', ( #3 ) ) ;
#224 = APPROVAL_DATE_TIME ( #323, #137 ) ;
#225 = ORIENTED_EDGE ( 'NONE', *, *, #187, .F. ) ;
#226 = CC_DESIGN_DATE_AND_TIME_ASSIGNMENT ( #351, #58, ( #18 ) ) ;
#227 = DATE_AND_TIME ( #175, #340 ) ;
#228 = LINE ( 'NONE', #327, #176 ) ;
#229 = APPROVAL_PERSON_ORGANIZATION ( #56, #243, #293 ) ;
#230 = DATE_AND_TIME ( #260, #301 ) ;
#231 = DIRECTION ( 'NONE',  ( -0.000000000000000000, -0.000000000000000000, -1.000000000000000000 ) ) ;
#232 = ADVANCED_FACE ( 'NONE', ( #39, #96 ), #271, .T. ) ;
#233 = DATE_TIME_ROLE ( 'creation_date' ) ;
#234 = EDGE_LOOP ( 'NONE', ( #222, #55, #257, #309 ) ) ;
#235 = LINE ( 'NONE', #324, #236 ) ;
#236 = VECTOR ( 'NONE', #87, 1000.000000000000000 ) ;
#237 = CARTESIAN_POINT ( 'NONE',  ( 3.175426480542941743, 8.964843213796632289E-16, 2.399999999999999911 ) ) ;
#238 = CC_DESIGN_PERSON_AND_ORGANIZATION_ASSIGNMENT ( #110, #115, ( #122 ) ) ;
#239 = DIRECTION ( 'NONE',  ( 0.8660254037844384856, 0.5000000000000004441, -0.000000000000000000 ) ) ;
#240 = FACE_OUTER_BOUND ( 'NONE', #49, .T. ) ;
#241 = FACE_OUTER_BOUND ( 'NONE', #81, .T. ) ;
#242 = DIRECTION ( 'NONE',  ( 0.000000000000000000, -0.000000000000000000, 1.000000000000000000 ) ) ;
#243 = APPROVAL ( #173, 'UNSPECIFIED' ) ;
#244 = CARTESIAN_POINT ( 'NONE',  ( -1.587713240271471760, 2.750000000000002220, 0.000000000000000000 ) ) ;
#245 = PLANE ( 'NONE',  #106 ) ;
#246 = ORIENTED_EDGE ( 'NONE', *, *, #11, .F. ) ;
#247 = CLOSED_SHELL ( 'NONE', ( #208, #232, #164, #359, #183, #319, #119, #178, #357, #314 ) ) ;
#248 = LINE ( 'NONE', #280, #279 ) ;
#249 = VERTEX_POINT ( 'NONE', #305 ) ;
#250 = PERSON_AND_ORGANIZATION_ROLE ( 'design_owner' ) ;
#251 = ORIENTED_EDGE ( 'NONE', *, *, #289, .T. ) ;
#252 = CARTESIAN_POINT ( 'NONE',  ( 1.587713240271470427, -2.750000000000001776, 0.000000000000000000 ) ) ;
#253 = ORIENTED_EDGE ( 'NONE', *, *, #354, .F. ) ;
#254 = PRODUCT_DEFINITION_SHAPE ( 'NONE', 'NONE',  #122 ) ;
#255 = CIRCLE ( 'NONE', #287, 1.500000000000000222 ) ;
#256 = DIRECTION ( 'NONE',  ( -0.000000000000000000, -0.000000000000000000, -1.000000000000000000 ) ) ;
#257 = ORIENTED_EDGE ( 'NONE', *, *, #289, .F. ) ;
#258 = EDGE_CURVE ( 'NONE', #23, #195, #211, .T. ) ;
#259 = ORIENTED_EDGE ( 'NONE', *, *, #337, .F. ) ;
#260 = CALENDAR_DATE ( 2024, 26, 9 ) ;
#261 = DIRECTION ( 'NONE',  ( 1.000000000000000000, -2.731481088613016734E-16, 0.000000000000000000 ) ) ;
#262 = CC_DESIGN_APPROVAL ( #243, ( #18 ) ) ;
#263 = PERSON_AND_ORGANIZATION ( #111, #127 ) ;
#264 = EDGE_CURVE ( 'NONE', #53, #20, #148, .T. ) ;
#265 = CARTESIAN_POINT ( 'NONE',  ( 1.587713240271468429, 2.750000000000001776, 0.000000000000000000 ) ) ;
#266 = CALENDAR_DATE ( 2024, 26, 9 ) ;
#267 = CARTESIAN_POINT ( 'NONE',  ( -3.175426480542943519, -1.738966774381063010E-15, 2.399999999999999911 ) ) ;
#268 = ORIENTED_EDGE ( 'NONE', *, *, #292, .T. ) ;
#269 = FACE_OUTER_BOUND ( 'NONE', #141, .T. ) ;
#270 = CARTESIAN_POINT ( 'NONE',  ( 0.000000000000000000, 0.000000000000000000, 2.399999999999999911 ) ) ;
#271 = PLANE ( 'NONE',  #143 ) ;
#272 = CYLINDRICAL_SURFACE ( 'NONE', #360, 1.500000000000000222 ) ;
#273 = VECTOR ( 'NONE', #13, 1000.000000000000000 ) ;
#274 = CARTESIAN_POINT ( 'NONE',  ( 1.500000000000000222, 1.836970198721030181E-16, 2.399999999999999911 ) ) ;
#275 = CARTESIAN_POINT ( 'NONE',  ( 3.175426480542941743, 8.964843213796632289E-16, 2.399999999999999911 ) ) ;
#276 = ORIENTED_EDGE ( 'NONE', *, *, #369, .T. ) ;
#277 = LINE ( 'NONE', #17, #213 ) ;
#278 = ORIENTED_EDGE ( 'NONE', *, *, #376, .F. ) ;
#279 = VECTOR ( 'NONE', #130, 1000.000000000000000 ) ;
#280 = CARTESIAN_POINT ( 'NONE',  ( -1.587713240271471760, 2.750000000000002220, 2.399999999999999911 ) ) ;
#281 = APPLICATION_CONTEXT ( 'configuration controlled 3d designs of mechanical parts and assemblies' ) ;
#282 = ORIENTED_EDGE ( 'NONE', *, *, #258, .T. ) ;
#283 = LINE ( 'NONE', #194, #329 ) ;
#284 = VERTEX_POINT ( 'NONE', #65 ) ;
#285 = DIRECTION ( 'NONE',  ( 0.000000000000000000, 0.000000000000000000, 1.000000000000000000 ) ) ;
#286 = ORIENTED_EDGE ( 'NONE', *, *, #152, .T. ) ;
#287 = AXIS2_PLACEMENT_3D ( 'NONE', #5, #205, #8 ) ;
#288 = ORIENTED_EDGE ( 'NONE', *, *, #369, .F. ) ;
#289 = EDGE_CURVE ( 'NONE', #53, #48, #153, .T. ) ;
#290 = PERSON_AND_ORGANIZATION ( #111, #127 ) ;
#291 = CARTESIAN_POINT ( 'NONE',  ( -1.587713240271471760, -2.750000000000000888, 2.399999999999999911 ) ) ;
#292 = EDGE_CURVE ( 'NONE', #284, #197, #317, .T. ) ;
#293 = APPROVAL_ROLE ( '' ) ;
#294 = ORIENTED_EDGE ( 'NONE', *, *, #187, .T. ) ;
#295 = COORDINATED_UNIVERSAL_TIME_OFFSET ( 9, 0, .AHEAD. ) ;
#296 = CARTESIAN_POINT ( 'NONE',  ( -1.587713240271471760, 2.750000000000002220, 2.399999999999999911 ) ) ;
#297 = ORIENTED_EDGE ( 'NONE', *, *, #345, .T. ) ;
#298 = FACE_BOUND ( 'NONE', #214, .T. ) ;
#299 = APPROVAL ( #307, 'UNSPECIFIED' ) ;
#300 = AXIS2_PLACEMENT_3D ( 'NONE', #331, #239, #184 ) ;
#301 = LOCAL_TIME ( 23, 18, 51.00000000000000000, #142 ) ;
#302 = DIRECTION ( 'NONE',  ( 1.000000000000000000, 0.000000000000000000, 0.000000000000000000 ) ) ;
#303 = CARTESIAN_POINT ( 'NONE',  ( -1.500000000000000222, 0.000000000000000000, 2.399999999999999911 ) ) ;
#304 = CARTESIAN_POINT ( 'NONE',  ( 1.587713240271468429, 2.750000000000001776, 2.399999999999999911 ) ) ;
#305 = CARTESIAN_POINT ( 'NONE',  ( 1.500000000000000222, 1.836970198721030181E-16, 0.000000000000000000 ) ) ;
#306 = VECTOR ( 'NONE', #151, 1000.000000000000000 ) ;
#307 = APPROVAL_STATUS ( 'not_yet_approved' ) ;
#308 = APPROVAL_DATE_TIME ( #71, #299 ) ;
#309 = ORIENTED_EDGE ( 'NONE', *, *, #264, .T. ) ;
#310 = ORIENTED_EDGE ( 'NONE', *, *, #79, .F. ) ;
#311 = DIRECTION ( 'NONE',  ( 1.000000000000000000, -2.731481088613016734E-16, 0.000000000000000000 ) ) ;
#312 = EDGE_LOOP ( 'NONE', ( #21, #172 ) ) ;
#313 = CC_DESIGN_PERSON_AND_ORGANIZATION_ASSIGNMENT ( #1, #196, ( #18 ) ) ;
#314 = ADVANCED_FACE ( 'NONE', ( #12 ), #272, .F. ) ;
#315 = VERTEX_POINT ( 'NONE', #244 ) ;
#316 = ORIENTED_EDGE ( 'NONE', *, *, #218, .F. ) ;
#317 = CIRCLE ( 'NONE', #64, 1.500000000000000222 ) ;
#318 = ORIENTED_EDGE ( 'NONE', *, *, #37, .F. ) ;
#319 = ADVANCED_FACE ( 'NONE', ( #92 ), #363, .F. ) ;
#320 = PERSON_AND_ORGANIZATION_ROLE ( 'creator' ) ;
#321 = CARTESIAN_POINT ( 'NONE',  ( 3.175426480542941743, 8.964843213796632289E-16, 0.000000000000000000 ) ) ;
#322 = CC_DESIGN_PERSON_AND_ORGANIZATION_ASSIGNMENT ( #263, #27, ( #4 ) ) ;
#323 = DATE_AND_TIME ( #266, #346 ) ;
#324 = CARTESIAN_POINT ( 'NONE',  ( 3.175426480542941743, 8.964843213796632289E-16, 0.000000000000000000 ) ) ;
#325 = VECTOR ( 'NONE', #191, 1000.000000000000114 ) ;
#326 = DIRECTION ( 'NONE',  ( 1.000000000000000000, 0.000000000000000000, 0.000000000000000000 ) ) ;
#327 = CARTESIAN_POINT ( 'NONE',  ( 1.587713240271470427, -2.750000000000001776, 2.399999999999999911 ) ) ;
#328 = CARTESIAN_POINT ( 'NONE',  ( -1.587713240271471760, 2.750000000000002220, 0.000000000000000000 ) ) ;
#329 = VECTOR ( 'NONE', #22, 1000.000000000000000 ) ;
#330 = DIRECTION ( 'NONE',  ( -1.365740544306509353E-16, -1.000000000000000000, 0.000000000000000000 ) ) ;
#331 = CARTESIAN_POINT ( 'NONE',  ( -3.175426480542943519, -1.738966774381063010E-15, 2.399999999999999911 ) ) ;
#332 = DIRECTION ( 'NONE',  ( 1.000000000000000000, 0.000000000000000000, -0.000000000000000000 ) ) ;
#333 = VECTOR ( 'NONE', #68, 1000.000000000000114 ) ;
#334 = VERTEX_POINT ( 'NONE', #185 ) ;
#335 = APPROVAL_ROLE ( '' ) ;
#336 = ORIENTED_EDGE ( 'NONE', *, *, #337, .T. ) ;
#337 = EDGE_CURVE ( 'NONE', #334, #53, #76, .T. ) ;
#338 = DIRECTION ( 'NONE',  ( 2.731481088613016734E-16, 1.000000000000000000, -0.000000000000000000 ) ) ;
#339 = ORIENTED_EDGE ( 'NONE', *, *, #79, .T. ) ;
#340 = LOCAL_TIME ( 23, 18, 51.00000000000000000, #295 ) ;
#341 = EDGE_CURVE ( 'NONE', #48, #103, #248, .T. ) ;
#342 =( NAMED_UNIT ( * ) SI_UNIT ( $, .STERADIAN. ) SOLID_ANGLE_UNIT ( ) );
#343 = ORIENTED_EDGE ( 'NONE', *, *, #90, .T. ) ;
#344 = CARTESIAN_POINT ( 'NONE',  ( 1.587713240271468429, 2.750000000000001776, 0.000000000000000000 ) ) ;
#345 = EDGE_CURVE ( 'NONE', #103, #85, #371, .T. ) ;
#346 = LOCAL_TIME ( 23, 18, 51.00000000000000000, #80 ) ;
#347 = APPLICATION_CONTEXT ( 'configuration controlled 3d designs of mechanical parts and assemblies' ) ;
#348 = DIRECTION ( 'NONE',  ( 0.000000000000000000, 0.000000000000000000, 1.000000000000000000 ) ) ;
#349 = APPROVAL_STATUS ( 'not_yet_approved' ) ;
#350 = ORIENTED_EDGE ( 'NONE', *, *, #150, .T. ) ;
#351 = DATE_AND_TIME ( #200, #156 ) ;
#352 = CARTESIAN_POINT ( 'NONE',  ( -3.175426480542943519, -1.738966774381063010E-15, 0.000000000000000000 ) ) ;
#353 = AXIS2_PLACEMENT_3D ( 'NONE', #28, #348, #140 ) ;
#354 = EDGE_CURVE ( 'NONE', #195, #366, #277, .T. ) ;
#355 = CARTESIAN_POINT ( 'NONE',  ( 1.587713240271468429, 2.750000000000001776, 2.399999999999999911 ) ) ;
#356 = CARTESIAN_POINT ( 'NONE',  ( 0.000000000000000000, 0.000000000000000000, 2.399999999999999911 ) ) ;
#357 = ADVANCED_FACE ( 'NONE', ( #367 ), #245, .F. ) ;
#358 = DIRECTION ( 'NONE',  ( -1.000000000000000000, 0.000000000000000000, 0.000000000000000000 ) ) ;
#359 = ADVANCED_FACE ( 'NONE', ( #161 ), #364, .F. ) ;
#360 = AXIS2_PLACEMENT_3D ( 'NONE', #41, #361, #358 ) ;
#361 = DIRECTION ( 'NONE',  ( -0.000000000000000000, -0.000000000000000000, -1.000000000000000000 ) ) ;
#362 = DIRECTION ( 'NONE',  ( 0.5000000000000004441, -0.8660254037844383745, 0.000000000000000000 ) ) ;
#363 = PLANE ( 'NONE',  #149 ) ;
#364 = PLANE ( 'NONE',  #54 ) ;
#365 = AXIS2_PLACEMENT_3D ( 'NONE', #167, #285, #24 ) ;
#366 = VERTEX_POINT ( 'NONE', #193 ) ;
#367 = FACE_OUTER_BOUND ( 'NONE', #44, .T. ) ;
#368 = ORIENTED_EDGE ( 'NONE', *, *, #345, .F. ) ;
#369 = EDGE_CURVE ( 'NONE', #197, #249, #283, .T. ) ;
#370 = ORIENTED_EDGE ( 'NONE', *, *, #50, .F. ) ;
#371 = LINE ( 'NONE', #47, #113 ) ;
#372 = ORIENTED_EDGE ( 'NONE', *, *, #11, .T. ) ;
#373 = AXIS2_PLACEMENT_3D ( 'NONE', #118, #82, #326 ) ;
#374 = MECHANICAL_CONTEXT ( 'NONE', #281, 'mechanical' ) ;
#375 = ORIENTED_EDGE ( 'NONE', *, *, #90, .F. ) ;
#376 = EDGE_CURVE ( 'NONE', #366, #105, #134, .T. ) ;
#377 = CARTESIAN_POINT ( 'NONE',  ( -1.587713240271471760, 2.750000000000002220, 2.399999999999999911 ) ) ;
ENDSEC;
END-ISO-10303-21;
