ISO-10303-21;
HEADER;
FILE_DESCRIPTION (( 'STEP AP203' ),
    '1' );
FILE_NAME ('¸µÅ©_ºÕ.STEP',
    '2024-09-26T14:18:34',
    ( '' ),
    ( '' ),
    'SwSTEP 2.0',
    'SolidWorks 2022',
    '' );
FILE_SCHEMA (( 'CONFIG_CONTROL_DESIGN' ));
ENDSEC;

DATA;
#1 = VERTEX_POINT ( 'NONE', #323 ) ;
#2 = ORIENTED_EDGE ( 'NONE', *, *, #585, .F. ) ;
#3 = CARTESIAN_POINT ( 'NONE',  ( 0.000000000000000000, 0.000000000000000000, -0.9999999999999998890 ) ) ;
#4 = DIRECTION ( 'NONE',  ( 2.775557561562891351E-15, 0.000000000000000000, 1.000000000000000000 ) ) ;
#5 = DIRECTION ( 'NONE',  ( 0.9099560968359980961, 0.000000000000000000, -0.4147045958643281738 ) ) ;
#6 = DIRECTION ( 'NONE',  ( 0.000000000000000000, 0.000000000000000000, 1.000000000000000000 ) ) ;
#7 = ORIENTED_EDGE ( 'NONE', *, *, #776, .T. ) ;
#8 = CARTESIAN_POINT ( 'NONE',  ( 0.9953973941206709641, 0.5999999999999999778, 0.09583333333333179938 ) ) ;
#9 = DIRECTION ( 'NONE',  ( -0.000000000000000000, -1.000000000000000000, -0.000000000000000000 ) ) ;
#10 = DIRECTION ( 'NONE',  ( 3.469446951953613400E-15, 0.000000000000000000, 1.000000000000000000 ) ) ;
#11 = EDGE_CURVE ( 'NONE', #939, #216, #263, .T. ) ;
#12 = EDGE_CURVE ( 'NONE', #863, #768, #307, .T. ) ;
#13 = VERTEX_POINT ( 'NONE', #1087 ) ;
#14 = AXIS2_PLACEMENT_3D ( 'NONE', #1039, #1043, #641 ) ;
#15 = CIRCLE ( 'NONE', #821, 0.9999999999999998890 ) ;
#16 = DIRECTION ( 'NONE',  ( -0.000000000000000000, -1.000000000000000000, -0.000000000000000000 ) ) ;
#17 = AXIS2_PLACEMENT_3D ( 'NONE', #1112, #617, #1018 ) ;
#18 = AXIS2_PLACEMENT_3D ( 'NONE', #171, #61, #1164 ) ;
#19 = CARTESIAN_POINT ( 'NONE',  ( 10.29236416940693033, 0.5999999999999999778, 1.041143539611474989 ) ) ;
#20 = CARTESIAN_POINT ( 'NONE',  ( 1.639431539046683151, 0.5999999999999999778, -0.5273658756902391831 ) ) ;
#21 = ORIENTED_EDGE ( 'NONE', *, *, #121, .T. ) ;
#22 = CARTESIAN_POINT ( 'NONE',  ( 0.9582842399004025680, 0.5999999999999999778, -1.755474669586122527 ) ) ;
#23 = FACE_OUTER_BOUND ( 'NONE', #252, .T. ) ;
#24 = ORIENTED_EDGE ( 'NONE', *, *, #1178, .T. ) ;
#25 = DIRECTION ( 'NONE',  ( 0.000000000000000000, 0.000000000000000000, 1.000000000000000000 ) ) ;
#26 = ORIENTED_EDGE ( 'NONE', *, *, #815, .F. ) ;
#27 = DIRECTION ( 'NONE',  ( 0.000000000000000000, 0.000000000000000000, -1.000000000000000000 ) ) ;
#28 = CC_DESIGN_PERSON_AND_ORGANIZATION_ASSIGNMENT ( #297, #192, ( #313 ) ) ;
#29 = DIRECTION ( 'NONE',  ( -0.000000000000000000, -1.000000000000000000, -0.000000000000000000 ) ) ;
#30 = DIRECTION ( 'NONE',  ( 0.000000000000000000, 1.000000000000000000, 0.000000000000000000 ) ) ;
#31 = ORIENTED_EDGE ( 'NONE', *, *, #72, .T. ) ;
#32 = CARTESIAN_POINT ( 'NONE',  ( 1.690696317417499150, 0.2999999999999999889, -0.2210431181716487892 ) ) ;
#33 = CIRCLE ( 'NONE', #266, 0.9999999999999998890 ) ;
#34 = ADVANCED_FACE ( 'NONE', ( #208 ), #301, .F. ) ;
#35 = CARTESIAN_POINT ( 'NONE',  ( 11.14618208470346694, 0.5999999999999999778, 0.5205717698057377163 ) ) ;
#36 = AXIS2_PLACEMENT_3D ( 'NONE', #858, #962, #765 ) ;
#37 = EDGE_CURVE ( 'NONE', #586, #943, #794, .T. ) ;
#38 = ORIENTED_EDGE ( 'NONE', *, *, #579, .F. ) ;
#39 = FACE_OUTER_BOUND ( 'NONE', #949, .T. ) ;
#40 = DATE_AND_TIME ( #828, #1016 ) ;
#41 = VERTEX_POINT ( 'NONE', #20 ) ;
#42 = DIRECTION ( 'NONE',  ( -0.9953973941206707421, 0.000000000000000000, -0.09583333333333389492 ) ) ;
#43 = CARTESIAN_POINT ( 'NONE',  ( 0.000000000000000000, 0.5999999999999999778, 0.000000000000000000 ) ) ;
#44 = VERTEX_POINT ( 'NONE', #107 ) ;
#45 = DIRECTION ( 'NONE',  ( 0.000000000000000000, 1.000000000000000000, 0.000000000000000000 ) ) ;
#46 = EDGE_CURVE ( 'NONE', #170, #250, #402, .T. ) ;
#47 = ORIENTED_EDGE ( 'NONE', *, *, #999, .T. ) ;
#48 = CARTESIAN_POINT ( 'NONE',  ( 10.82696301973748021, 0.5999999999999999778, -1.619871674836183884 ) ) ;
#49 = CARTESIAN_POINT ( 'NONE',  ( 2.711772175812837915, 0.2999999999999999889, -0.3919257127409968011 ) ) ;
#50 = CARTESIAN_POINT ( 'NONE',  ( -0.2073522979321639759, 0.2999999999999999889, -0.4549780484179988260 ) ) ;
#51 = EDGE_CURVE ( 'NONE', #626, #813, #1102, .T. ) ;
#52 = ORIENTED_EDGE ( 'NONE', *, *, #1273, .T. ) ;
#53 = DIRECTION ( 'NONE',  ( -0.09583333333333264592, 0.000000000000000000, 0.9953973941206709641 ) ) ;
#54 = ORIENTED_EDGE ( 'NONE', *, *, #403, .T. ) ;
#55 = CARTESIAN_POINT ( 'NONE',  ( 0.000000000000000000, 0.2999999999999999889, 0.000000000000000000 ) ) ;
#56 = CIRCLE ( 'NONE', #903, 1.999999999999999778 ) ;
#57 = VECTOR ( 'NONE', #29, 100.0000000000000000 ) ;
#58 = DIRECTION ( 'NONE',  ( 0.9099560968359979851, 0.000000000000000000, -0.4147045958643281738 ) ) ;
#59 = AXIS2_PLACEMENT_3D ( 'NONE', #521, #916, #27 ) ;
#60 = ORIENTED_EDGE ( 'NONE', *, *, #105, .F. ) ;
#61 = DIRECTION ( 'NONE',  ( 0.000000000000000000, 1.000000000000000000, 0.000000000000000000 ) ) ;
#62 = DIRECTION ( 'NONE',  ( 0.000000000000000000, 0.000000000000000000, 1.000000000000000000 ) ) ;
#63 = DIRECTION ( 'NONE',  ( 0.000000000000000000, 0.000000000000000000, 1.000000000000000000 ) ) ;
#64 = EDGE_LOOP ( 'NONE', ( #1103, #95, #52, #1276, #1225, #518 ) ) ;
#65 = DIRECTION ( 'NONE',  ( 0.000000000000000000, 1.000000000000000000, 0.000000000000000000 ) ) ;
#66 = EDGE_CURVE ( 'NONE', #1277, #1240, #1030, .T. ) ;
#67 = DIRECTION ( 'NONE',  ( -0.000000000000000000, -1.000000000000000000, -0.000000000000000000 ) ) ;
#68 = CARTESIAN_POINT ( 'NONE',  ( 10.29236416940693033, 0.5999999999999999778, 1.041143539611474989 ) ) ;
#69 = ORIENTED_EDGE ( 'NONE', *, *, #684, .T. ) ;
#70 = DIRECTION ( 'NONE',  ( -0.000000000000000000, -1.000000000000000000, -0.000000000000000000 ) ) ;
#71 = CARTESIAN_POINT ( 'NONE',  ( 0.5817018743110377033, 0.000000000000000000, -1.913536759360275452 ) ) ;
#72 = EDGE_CURVE ( 'NONE', #1017, #1149, #134, .T. ) ;
#73 = CARTESIAN_POINT ( 'NONE',  ( 0.9129078309520110013, 0.5999999999999999778, 0.4081657655738591961 ) ) ;
#74 = VECTOR ( 'NONE', #1193, 100.0000000000000000 ) ;
#75 = EDGE_CURVE ( 'NONE', #780, #512, #329, .T. ) ;
#76 = CIRCLE ( 'NONE', #635, 1.999999999999999778 ) ;
#77 = ORIENTED_EDGE ( 'NONE', *, *, #588, .T. ) ;
#78 = AXIS2_PLACEMENT_3D ( 'NONE', #989, #99, #386 ) ;
#79 = ORIENTED_EDGE ( 'NONE', *, *, #1145, .F. ) ;
#80 = CARTESIAN_POINT ( 'NONE',  ( 0.5817018743110377033, 0.2999999999999999889, -1.913536759360275452 ) ) ;
#81 = CARTESIAN_POINT ( 'NONE',  ( 2.660507397442019695, 0.5999999999999999778, -0.6982484702595869175 ) ) ;
#82 = ORIENTED_EDGE ( 'NONE', *, *, #855, .F. ) ;
#83 = ORIENTED_EDGE ( 'NONE', *, *, #957, .T. ) ;
#84 = CARTESIAN_POINT ( 'NONE',  ( 1.825815661904021558, 0.2999999999999999889, 0.8163315311477181702 ) ) ;
#85 = DIRECTION ( 'NONE',  ( 0.9953973941206709641, 0.000000000000000000, 0.09583333333333264592 ) ) ;
#86 = CARTESIAN_POINT ( 'NONE',  ( 12.00000000000000178, 0.5999999999999999778, 0.000000000000000000 ) ) ;
#87 = ORIENTED_EDGE ( 'NONE', *, *, #183, .F. ) ;
#88 = EDGE_CURVE ( 'NONE', #319, #488, #546, .T. ) ;
#89 = CALENDAR_DATE ( 2024, 26, 9 ) ;
#90 = DIRECTION ( 'NONE',  ( -0.4147045958643280628, 0.000000000000000000, -0.9099560968359980961 ) ) ;
#91 = FACE_OUTER_BOUND ( 'NONE', #537, .T. ) ;
#92 = VECTOR ( 'NONE', #365, 100.0000000000000000 ) ;
#93 = DIRECTION ( 'NONE',  ( 0.000000000000000000, 0.000000000000000000, 1.000000000000000000 ) ) ;
#94 = AXIS2_PLACEMENT_3D ( 'NONE', #1239, #812, #327 ) ;
#95 = ORIENTED_EDGE ( 'NONE', *, *, #270, .T. ) ;
#96 = AXIS2_PLACEMENT_3D ( 'NONE', #869, #173, #571 ) ;
#97 = DIRECTION ( 'NONE',  ( -0.000000000000000000, -1.000000000000000000, -0.000000000000000000 ) ) ;
#98 = CIRCLE ( 'NONE', #991, 0.6500000000000000222 ) ;
#99 = DIRECTION ( 'NONE',  ( -0.000000000000000000, 1.000000000000000000, -0.000000000000000000 ) ) ;
#100 = ADVANCED_FACE ( 'NONE', ( #827 ), #229, .F. ) ;
#101 = DIRECTION ( 'NONE',  ( 0.000000000000000000, 0.000000000000000000, -1.000000000000000000 ) ) ;
#102 = VERTEX_POINT ( 'NONE', #1220 ) ;
#103 = ORIENTED_EDGE ( 'NONE', *, *, #987, .T. ) ;
#104 = CARTESIAN_POINT ( 'NONE',  ( 10.52236416940693076, 0.5999999999999999778, -1.347810206278140299 ) ) ;
#105 = EDGE_CURVE ( 'NONE', #720, #1279, #773, .T. ) ;
#106 = CYLINDRICAL_SURFACE ( 'NONE', #1173, 0.9999999999999991118 ) ;
#107 = CARTESIAN_POINT ( 'NONE',  ( 12.00000000000000178, 0.5999999999999999778, -0.9999999999999991118 ) ) ;
#108 = ORIENTED_EDGE ( 'NONE', *, *, #403, .F. ) ;
#109 = FACE_OUTER_BOUND ( 'NONE', #395, .T. ) ;
#110 = DIRECTION ( 'NONE',  ( 0.9099560968359980961, 0.000000000000000000, -0.4147045958643281183 ) ) ;
#111 = ORIENTED_EDGE ( 'NONE', *, *, #979, .F. ) ;
#112 = CARTESIAN_POINT ( 'NONE',  ( 10.52236416940693076, 0.5999999999999999778, -1.347810206278140299 ) ) ;
#113 = EDGE_CURVE ( 'NONE', #209, #257, #468, .T. ) ;
#114 = ORIENTED_EDGE ( 'NONE', *, *, #957, .F. ) ;
#115 = AXIS2_PLACEMENT_3D ( 'NONE', #150, #451, #946 ) ;
#116 = FACE_BOUND ( 'NONE', #1086, .T. ) ;
#117 = AXIS2_PLACEMENT_3D ( 'NONE', #1191, #304, #998 ) ;
#118 = LINE ( 'NONE', #241, #819 ) ;
#119 = ORIENTED_EDGE ( 'NONE', *, *, #495, .T. ) ;
#120 = DIRECTION ( 'NONE',  ( 0.000000000000000000, 0.000000000000000000, 1.000000000000000000 ) ) ;
#121 = EDGE_CURVE ( 'NONE', #1248, #1075, #817, .T. ) ;
#122 = ORIENTED_EDGE ( 'NONE', *, *, #12, .T. ) ;
#123 = FACE_OUTER_BOUND ( 'NONE', #701, .T. ) ;
#124 = PLANE ( 'NONE',  #1134 ) ;
#125 = VERTEX_POINT ( 'NONE', #527 ) ;
#126 = LINE ( 'NONE', #920, #1090 ) ;
#127 = EDGE_LOOP ( 'NONE', ( #164, #417, #1025, #54 ) ) ;
#128 = EDGE_CURVE ( 'NONE', #319, #912, #924, .T. ) ;
#129 = DIRECTION ( 'NONE',  ( 0.000000000000000000, 0.000000000000000000, -1.000000000000000000 ) ) ;
#130 = EDGE_CURVE ( 'NONE', #170, #925, #1026, .T. ) ;
#131 = CARTESIAN_POINT ( 'NONE',  ( 0.000000000000000000, 0.000000000000000000, 0.000000000000000000 ) ) ;
#132 = LINE ( 'NONE', #1141, #1214 ) ;
#133 = ORIENTED_EDGE ( 'NONE', *, *, #573, .F. ) ;
#134 = CIRCLE ( 'NONE', #196, 2.000000000000000444 ) ;
#135 = DIRECTION ( 'NONE',  ( 0.000000000000000000, 0.000000000000000000, -1.000000000000000000 ) ) ;
#136 = CIRCLE ( 'NONE', #115, 2.000000000000000888 ) ;
#137 = CARTESIAN_POINT ( 'NONE',  ( 2.400487692947605112, 0.2999999999999999889, 0.8841159746236264549 ) ) ;
#138 = VECTOR ( 'NONE', #873, 99.99999999999998579 ) ;
#139 = CIRCLE ( 'NONE', #18, 0.9999999999999998890 ) ;
#140 = LINE ( 'NONE', #426, #864 ) ;
#141 = ORIENTED_EDGE ( 'NONE', *, *, #314, .F. ) ;
#142 = CYLINDRICAL_SURFACE ( 'NONE', #990, 1.999999999999999778 ) ;
#143 = CARTESIAN_POINT ( 'NONE',  ( 12.00000000000000178, 0.5999999999999999778, 0.6500000000000000222 ) ) ;
#144 = EDGE_CURVE ( 'NONE', #985, #1277, #353, .T. ) ;
#145 = EDGE_CURVE ( 'NONE', #216, #1020, #633, .T. ) ;
#146 = ORIENTED_EDGE ( 'NONE', *, *, #1243, .F. ) ;
#147 = CARTESIAN_POINT ( 'NONE',  ( 0.4791421199502012840, 0.5999999999999999778, -0.8777373347930612635 ) ) ;
#148 = ORIENTED_EDGE ( 'NONE', *, *, #809, .T. ) ;
#149 = DIRECTION ( 'NONE',  ( 0.000000000000000000, 0.000000000000000000, -1.000000000000000000 ) ) ;
#150 = CARTESIAN_POINT ( 'NONE',  ( 2.468840730775344827, 0.5999999999999999778, 1.292546317981754456 ) ) ;
#151 = CARTESIAN_POINT ( 'NONE',  ( 0.000000000000000000, 0.5999999999999999778, -0.9999999999999998890 ) ) ;
#152 = ORIENTED_EDGE ( 'NONE', *, *, #585, .T. ) ;
#153 = LINE ( 'NONE', #551, #596 ) ;
#154 = CARTESIAN_POINT ( 'NONE',  ( 10.73112968640414877, 0.2999999999999999889, -0.6244742807155130304 ) ) ;
#155 = CLOSED_SHELL ( 'NONE', ( #1000, #627, #393, #203, #435, #1131, #728, #1107, #1099, #951, #900, #1065, #670, #1285, #533, #366, #1082, #764, #284, #100, #1251, #1053, #1186, #549, #356, #964, #418, #743, #272, #934, #1091, #166, #309, #1244, #621, #34 ) ) ;
#156 = CIRCLE ( 'NONE', #1051, 2.000000000000000444 ) ;
#157 = PLANE ( 'NONE',  #348 ) ;
#158 = VECTOR ( 'NONE', #414, 100.0000000000000000 ) ;
#159 = ORIENTED_EDGE ( 'NONE', *, *, #160, .F. ) ;
#160 = EDGE_CURVE ( 'NONE', #13, #244, #140, .T. ) ;
#161 = CARTESIAN_POINT ( 'NONE',  ( 10.82696301973748021, 0.000000000000000000, -1.619871674836183884 ) ) ;
#162 = LINE ( 'NONE', #958, #1013 ) ;
#163 = DIRECTION ( 'NONE',  ( -0.000000000000000000, -1.000000000000000000, -0.000000000000000000 ) ) ;
#164 = ORIENTED_EDGE ( 'NONE', *, *, #212, .T. ) ;
#165 = CARTESIAN_POINT ( 'NONE',  ( 0.2073522979321638371, 0.2999999999999999889, 0.4549780484179987705 ) ) ;
#166 = ADVANCED_FACE ( 'NONE', ( #935 ), #745, .F. ) ;
#167 = CARTESIAN_POINT ( 'NONE',  ( 11.26118208470346715, 0.5999999999999999778, -0.6739051031390704827 ) ) ;
#168 = EDGE_CURVE ( 'NONE', #943, #540, #132, .T. ) ;
#169 = FACE_OUTER_BOUND ( 'NONE', #466, .T. ) ;
#170 = VERTEX_POINT ( 'NONE', #833 ) ;
#171 = CARTESIAN_POINT ( 'NONE',  ( 0.000000000000000000, 0.5999999999999999778, 0.000000000000000000 ) ) ;
#172 = CYLINDRICAL_SURFACE ( 'NONE', #676, 2.000000000000000000 ) ;
#173 = DIRECTION ( 'NONE',  ( 0.000000000000000000, 1.000000000000000000, 0.000000000000000000 ) ) ;
#174 = AXIS2_PLACEMENT_3D ( 'NONE', #947, #476, #267 ) ;
#175 = AXIS2_PLACEMENT_3D ( 'NONE', #1236, #736, #838 ) ;
#176 = ORIENTED_EDGE ( 'NONE', *, *, #791, .F. ) ;
#177 = AXIS2_PLACEMENT_3D ( 'NONE', #274, #259, #1151 ) ;
#178 = EDGE_LOOP ( 'NONE', ( #82, #583, #1167, #888 ) ) ;
#179 = APPROVAL_DATE_TIME ( #1190, #202 ) ;
#180 = CARTESIAN_POINT ( 'NONE',  ( 2.592154359614277315, 0.5999999999999999778, -1.106678813617714585 ) ) ;
#181 = LINE ( 'NONE', #1247, #427 ) ;
#182 = CC_DESIGN_PERSON_AND_ORGANIZATION_ASSIGNMENT ( #575, #975, ( #483 ) ) ;
#183 = EDGE_CURVE ( 'NONE', #189, #985, #528, .T. ) ;
#184 = ORIENTED_EDGE ( 'NONE', *, *, #629, .F. ) ;
#185 = ORIENTED_EDGE ( 'NONE', *, *, #853, .F. ) ;
#186 = DIRECTION ( 'NONE',  ( 0.000000000000000000, 0.000000000000000000, -1.000000000000000000 ) ) ;
#187 = LINE ( 'NONE', #1176, #656 ) ;
#188 = CARTESIAN_POINT ( 'NONE',  ( 0.5806927982563431234, 0.000000000000000000, -0.8141227635026661025 ) ) ;
#189 = VERTEX_POINT ( 'NONE', #147 ) ;
#190 = DIRECTION ( 'NONE',  ( 0.000000000000000000, 1.000000000000000000, 0.000000000000000000 ) ) ;
#191 = ORIENTED_EDGE ( 'NONE', *, *, #835, .T. ) ;
#192 = PERSON_AND_ORGANIZATION_ROLE ( 'design_supplier' ) ;
#193 = DIRECTION ( 'NONE',  ( -0.000000000000000000, 1.000000000000000000, -0.000000000000000000 ) ) ;
#194 = CARTESIAN_POINT ( 'NONE',  ( 0.000000000000000000, 0.5999999999999999778, 0.000000000000000000 ) ) ;
#195 = EDGE_LOOP ( 'NONE', ( #1008, #421, #578, #1194 ) ) ;
#196 = AXIS2_PLACEMENT_3D ( 'NONE', #602, #1096, #10 ) ;
#197 = ORIENTED_EDGE ( 'NONE', *, *, #1243, .T. ) ;
#198 = VECTOR ( 'NONE', #235, 100.0000000000000000 ) ;
#199 = VERTEX_POINT ( 'NONE', #820 ) ;
#200 = AXIS2_PLACEMENT_3D ( 'NONE', #637, #722, #129 ) ;
#201 = MECHANICAL_CONTEXT ( 'NONE', #824, 'mechanical' ) ;
#202 = APPROVAL ( #681, 'UNSPECIFIED' ) ;
#203 = ADVANCED_FACE ( 'NONE', ( #39 ), #619, .T. ) ;
#204 = VECTOR ( 'NONE', #70, 100.0000000000000000 ) ;
#205 = PLANE ( 'NONE',  #225 ) ;
#206 = DIRECTION ( 'NONE',  ( 0.000000000000000000, 1.000000000000000000, -0.000000000000000000 ) ) ;
#207 = ORIENTED_EDGE ( 'NONE', *, *, #892, .F. ) ;
#208 = FACE_OUTER_BOUND ( 'NONE', #750, .T. ) ;
#209 = VERTEX_POINT ( 'NONE', #1021 ) ;
#210 = FACE_OUTER_BOUND ( 'NONE', #914, .T. ) ;
#211 = CARTESIAN_POINT ( 'NONE',  ( 12.00000000000000178, 0.000000000000000000, 0.9999999999999991118 ) ) ;
#212 = EDGE_CURVE ( 'NONE', #261, #404, #126, .T. ) ;
#213 = LINE ( 'NONE', #188, #1280 ) ;
#214 = EDGE_LOOP ( 'NONE', ( #945, #148, #961, #455, #491, #159, #1172, #919, #609, #1118, #7, #349, #1253, #907, #328, #724, #739, #706 ) ) ;
#215 = VERTEX_POINT ( 'NONE', #243 ) ;
#216 = VERTEX_POINT ( 'NONE', #1232 ) ;
#217 = CARTESIAN_POINT ( 'NONE',  ( -0.08294091917286568194, 0.2999999999999999889, -0.1819912193671996692 ) ) ;
#218 = FACE_OUTER_BOUND ( 'NONE', #1210, .T. ) ;
#219 = ORIENTED_EDGE ( 'NONE', *, *, #233, .F. ) ;
#220 = ORIENTED_EDGE ( 'NONE', *, *, #105, .T. ) ;
#221 = ORIENTED_EDGE ( 'NONE', *, *, #605, .F. ) ;
#222 = AXIS2_PLACEMENT_3D ( 'NONE', #68, #767, #1066 ) ;
#223 = AXIS2_PLACEMENT_3D ( 'NONE', #43, #630, #444 ) ;
#224 = DIRECTION ( 'NONE',  ( 0.000000000000000000, 0.000000000000000000, 1.000000000000000000 ) ) ;
#225 = AXIS2_PLACEMENT_3D ( 'NONE', #8, #90, #689 ) ;
#226 = AXIS2_PLACEMENT_3D ( 'NONE', #474, #97, #186 ) ;
#227 = DIRECTION ( 'NONE',  ( 0.000000000000000000, 0.000000000000000000, 1.000000000000000000 ) ) ;
#228 = ORIENTED_EDGE ( 'NONE', *, *, #494, .T. ) ;
#229 = CYLINDRICAL_SURFACE ( 'NONE', #14, 0.6500000000000000222 ) ;
#230 = EDGE_CURVE ( 'NONE', #244, #1122, #652, .T. ) ;
#231 = EDGE_CURVE ( 'NONE', #512, #517, #1135, .T. ) ;
#232 = ORIENTED_EDGE ( 'NONE', *, *, #442, .T. ) ;
#233 = EDGE_CURVE ( 'NONE', #1020, #497, #181, .T. ) ;
#234 = DIRECTION ( 'NONE',  ( 0.000000000000000000, 0.000000000000000000, 1.000000000000000000 ) ) ;
#235 = DIRECTION ( 'NONE',  ( -0.000000000000000000, 1.000000000000000000, -0.000000000000000000 ) ) ;
#236 = ORIENTED_EDGE ( 'NONE', *, *, #791, .T. ) ;
#237 = CARTESIAN_POINT ( 'NONE',  ( 12.00000000000000178, 0.000000000000000000, 0.000000000000000000 ) ) ;
#238 = VERTEX_POINT ( 'NONE', #81 ) ;
#239 = EDGE_CURVE ( 'NONE', #560, #44, #756, .T. ) ;
#240 = FACE_OUTER_BOUND ( 'NONE', #642, .T. ) ;
#241 = CARTESIAN_POINT ( 'NONE',  ( 1.538870674110461856, 0.2999999999999999889, -0.4815361340157250924 ) ) ;
#242 = ORIENTED_EDGE ( 'NONE', *, *, #510, .T. ) ;
#243 = CARTESIAN_POINT ( 'NONE',  ( 0.000000000000000000, 0.5999999999999999778, -0.6500000000000000222 ) ) ;
#244 = VERTEX_POINT ( 'NONE', #960 ) ;
#245 = AXIS2_PLACEMENT_3D ( 'NONE', #1032, #45, #344 ) ;
#246 = DIRECTION ( 'NONE',  ( 0.000000000000000000, 0.000000000000000000, 1.000000000000000000 ) ) ;
#247 = VECTOR ( 'NONE', #399, 100.0000000000000000 ) ;
#248 = DIRECTION ( 'NONE',  ( 0.000000000000000000, 1.000000000000000000, 0.000000000000000000 ) ) ;
#249 = AXIS2_PLACEMENT_3D ( 'NONE', #982, #493, #315 ) ;
#250 = VERTEX_POINT ( 'NONE', #1252 ) ;
#251 = CARTESIAN_POINT ( 'NONE',  ( 10.42653083607359754, 0.2999999999999999889, -0.3524128121574692796 ) ) ;
#252 = EDGE_LOOP ( 'NONE', ( #1115, #282, #26, #288 ) ) ;
#253 = LINE ( 'NONE', #751, #352 ) ;
#254 = CARTESIAN_POINT ( 'NONE',  ( 0.1293749999999986022, 0.5999999999999999778, -1.343786482062901078 ) ) ;
#255 = EDGE_CURVE ( 'NONE', #912, #1040, #861, .T. ) ;
#256 = DIRECTION ( 'NONE',  ( -0.000000000000000000, -1.000000000000000000, -0.000000000000000000 ) ) ;
#257 = VERTEX_POINT ( 'NONE', #753 ) ;
#258 = PLANE ( 'NONE',  #1138 ) ;
#259 = DIRECTION ( 'NONE',  ( -0.000000000000000000, -1.000000000000000000, -0.000000000000000000 ) ) ;
#260 = CYLINDRICAL_SURFACE ( 'NONE', #508, 1.000000000000000000 ) ;
#261 = VERTEX_POINT ( 'NONE', #658 ) ;
#262 = DIRECTION ( 'NONE',  ( -0.000000000000000000, -1.000000000000000000, -0.000000000000000000 ) ) ;
#263 = CIRCLE ( 'NONE', #1011, 0.9999999999999991118 ) ;
#264 = DIRECTION ( 'NONE',  ( 0.000000000000000000, 0.000000000000000000, 1.000000000000000000 ) ) ;
#265 = CIRCLE ( 'NONE', #654, 1.000000000000000000 ) ;
#266 = AXIS2_PLACEMENT_3D ( 'NONE', #696, #406, #1275 ) ;
#267 = DIRECTION ( 'NONE',  ( 0.000000000000000000, 0.000000000000000000, -1.000000000000000000 ) ) ;
#268 = CIRCLE ( 'NONE', #906, 1.000000000000000000 ) ;
#269 = ORIENTED_EDGE ( 'NONE', *, *, #358, .F. ) ;
#270 = EDGE_CURVE ( 'NONE', #574, #1240, #1060, .T. ) ;
#271 = LOCAL_TIME ( 23, 18, 34.00000000000000000, #1004 ) ;
#272 = ADVANCED_FACE ( 'NONE', ( #1047 ), #454, .F. ) ;
#273 = CARTESIAN_POINT ( 'NONE',  ( 2.520105509146162159, 0.2999999999999999889, -0.4011309244996558721 ) ) ;
#274 = CARTESIAN_POINT ( 'NONE',  ( 0.9582842399004025680, 0.5999999999999999778, -1.755474669586122527 ) ) ;
#275 = FACE_BOUND ( 'NONE', #295, .T. ) ;
#276 = EDGE_LOOP ( 'NONE', ( #111, #786, #133, #60 ) ) ;
#277 = EDGE_LOOP ( 'NONE', ( #693, #1044, #428, #47 ) ) ;
#278 = CARTESIAN_POINT ( 'NONE',  ( 12.00000000000000178, 0.2999999999999999889, 0.000000000000000000 ) ) ;
#279 = CARTESIAN_POINT ( 'NONE',  ( 12.00000000000000178, 0.5999999999999999778, 0.000000000000000000 ) ) ;
#280 = DIRECTION ( 'NONE',  ( 0.4147045958643282293, 0.000000000000000000, 0.9099560968359980961 ) ) ;
#281 = ORIENTED_EDGE ( 'NONE', *, *, #734, .T. ) ;
#282 = ORIENTED_EDGE ( 'NONE', *, *, #1088, .F. ) ;
#283 = FACE_OUTER_BOUND ( 'NONE', #361, .T. ) ;
#284 = ADVANCED_FACE ( 'NONE', ( #169 ), #285, .F. ) ;
#285 = CYLINDRICAL_SURFACE ( 'NONE', #174, 0.6500000000000000222 ) ;
#286 = AXIS2_PLACEMENT_3D ( 'NONE', #899, #1014, #798 ) ;
#287 = VECTOR ( 'NONE', #1268, 100.0000000000000000 ) ;
#288 = ORIENTED_EDGE ( 'NONE', *, *, #726, .F. ) ;
#289 = CIRCLE ( 'NONE', #200, 2.000000000000000888 ) ;
#290 = CC_DESIGN_APPROVAL ( #202, ( #483 ) ) ;
#291 = APPROVAL_STATUS ( 'not_yet_approved' ) ;
#292 = CYLINDRICAL_SURFACE ( 'NONE', #432, 0.6500000000000000222 ) ;
#293 = DIRECTION ( 'NONE',  ( -0.000000000000000000, -1.000000000000000000, -0.000000000000000000 ) ) ;
#294 = EDGE_CURVE ( 'NONE', #930, #1154, #56, .T. ) ;
#295 = EDGE_LOOP ( 'NONE', ( #197, #921 ) ) ;
#296 = ORIENTED_EDGE ( 'NONE', *, *, #1015, .T. ) ;
#297 = PERSON_AND_ORGANIZATION ( #915, #390 ) ;
#298 = CARTESIAN_POINT ( 'NONE',  ( 12.00000000000000178, 0.5999999999999999778, 0.000000000000000000 ) ) ;
#299 = DIRECTION ( 'NONE',  ( 1.387778780781445676E-15, 0.000000000000000000, 1.000000000000000000 ) ) ;
#300 = ORIENTED_EDGE ( 'NONE', *, *, #1217, .F. ) ;
#301 = CYLINDRICAL_SURFACE ( 'NONE', #882, 1.000000000000000000 ) ;
#302 = APPROVAL ( #840, 'UNSPECIFIED' ) ;
#303 = ORIENTED_EDGE ( 'NONE', *, *, #1148, .T. ) ;
#304 = DIRECTION ( 'NONE',  ( 0.000000000000000000, 1.000000000000000000, 0.000000000000000000 ) ) ;
#305 = LINE ( 'NONE', #886, #950 ) ;
#306 = AXIS2_PLACEMENT_3D ( 'NONE', #1211, #927, #1116 ) ;
#307 = LINE ( 'NONE', #1187, #369 ) ;
#308 = VECTOR ( 'NONE', #9, 100.0000000000000000 ) ;
#309 = ADVANCED_FACE ( 'NONE', ( #1056 ), #260, .F. ) ;
#310 = ORIENTED_EDGE ( 'NONE', *, *, #294, .F. ) ;
#311 = CIRCLE ( 'NONE', #471, 1.000000000000000000 ) ;
#312 = APPLICATION_PROTOCOL_DEFINITION ( 'international standard', 'config_control_design', 1994, #981 ) ;
#313 = PRODUCT_DEFINITION_FORMATION_WITH_SPECIFIED_SOURCE ( 'ANY', '', #831, .NOT_KNOWN. ) ;
#314 = EDGE_CURVE ( 'NONE', #524, #1057, #1068, .T. ) ;
#315 = DIRECTION ( 'NONE',  ( 0.000000000000000000, 0.000000000000000000, 1.000000000000000000 ) ) ;
#316 = CARTESIAN_POINT ( 'NONE',  ( 11.41348150986874010, 0.2999999999999999889, -0.8099358374180914977 ) ) ;
#317 = ORIENTED_EDGE ( 'NONE', *, *, #88, .T. ) ;
#318 = ORIENTED_EDGE ( 'NONE', *, *, #684, .F. ) ;
#319 = VERTEX_POINT ( 'NONE', #1166 ) ;
#320 = CARTESIAN_POINT ( 'NONE',  ( 2.400487692947605112, 0.2999999999999999889, 0.8841159746236264549 ) ) ;
#321 = EDGE_CURVE ( 'NONE', #1259, #598, #1237, .T. ) ;
#322 = CARTESIAN_POINT ( 'NONE',  ( 0.9582842399004025680, 0.2999999999999999889, -1.755474669586122527 ) ) ;
#323 = CARTESIAN_POINT ( 'NONE',  ( 2.520105509146162159, 0.000000000000000000, -0.4011309244996558721 ) ) ;
#324 = ORIENTED_EDGE ( 'NONE', *, *, #113, .T. ) ;
#325 = DIRECTION ( 'NONE',  ( -0.000000000000000000, -1.000000000000000000, -0.000000000000000000 ) ) ;
#326 = DIRECTION ( 'NONE',  ( -0.000000000000000000, 1.000000000000000000, -0.000000000000000000 ) ) ;
#327 = DIRECTION ( 'NONE',  ( 0.000000000000000000, 0.000000000000000000, -1.000000000000000000 ) ) ;
#328 = ORIENTED_EDGE ( 'NONE', *, *, #88, .F. ) ;
#329 = CIRCLE ( 'NONE', #1153, 1.000000000000000000 ) ;
#330 = AXIS2_PLACEMENT_3D ( 'NONE', #1224, #639, #227 ) ;
#331 = DIRECTION ( 'NONE',  ( 0.000000000000000000, 0.000000000000000000, -1.000000000000000000 ) ) ;
#332 = CIRCLE ( 'NONE', #1219, 1.000000000000000000 ) ;
#333 = DIRECTION ( 'NONE',  ( -0.09583333333333311777, 0.000000000000000000, 0.9953973941206709641 ) ) ;
#334 = CARTESIAN_POINT ( 'NONE',  ( 1.953575269974790141, 0.5999999999999999778, 0.4284199628202725596 ) ) ;
#335 = ORIENTED_EDGE ( 'NONE', *, *, #144, .T. ) ;
#336 = CARTESIAN_POINT ( 'NONE',  ( 1.571078501218942103, 0.2999999999999999889, -0.9357962190483662956 ) ) ;
#337 = DIRECTION ( 'NONE',  ( 0.000000000000000000, 0.000000000000000000, 1.000000000000000000 ) ) ;
#338 = CARTESIAN_POINT ( 'NONE',  ( 1.825815661904021558, 0.000000000000000000, 0.8163315311477181702 ) ) ;
#339 = PRODUCT_RELATED_PRODUCT_CATEGORY ( 'detail', '', ( #831 ) ) ;
#340 = ORIENTED_EDGE ( 'NONE', *, *, #1145, .T. ) ;
#341 = CYLINDRICAL_SURFACE ( 'NONE', #741, 1.000000000000000222 ) ;
#342 = CARTESIAN_POINT ( 'NONE',  ( 1.639431539046683151, 0.2999999999999999889, -0.5273658756902391831 ) ) ;
#343 = ORIENTED_EDGE ( 'NONE', *, *, #502, .F. ) ;
#344 = DIRECTION ( 'NONE',  ( 0.000000000000000000, 0.000000000000000000, 1.000000000000000000 ) ) ;
#345 = ORIENTED_EDGE ( 'NONE', *, *, #494, .F. ) ;
#346 = LINE ( 'NONE', #165, #1156 ) ;
#347 = EDGE_CURVE ( 'NONE', #1149, #1, #1073, .T. ) ;
#348 = AXIS2_PLACEMENT_3D ( 'NONE', #1264, #280, #58 ) ;
#349 = ORIENTED_EDGE ( 'NONE', *, *, #212, .F. ) ;
#350 = DIRECTION ( 'NONE',  ( 0.000000000000000000, 1.000000000000000000, 0.000000000000000000 ) ) ;
#351 = AXIS2_PLACEMENT_3D ( 'NONE', #464, #370, #4 ) ;
#352 = VECTOR ( 'NONE', #1062, 100.0000000000000000 ) ;
#353 = LINE ( 'NONE', #151, #986 ) ;
#354 = ORIENTED_EDGE ( 'NONE', *, *, #457, .F. ) ;
#355 = CARTESIAN_POINT ( 'NONE',  ( 2.540889581243478190, 0.2999999999999999889, -1.413001571136311085 ) ) ;
#356 = ADVANCED_FACE ( 'NONE', ( #1146 ), #157, .T. ) ;
#357 = CARTESIAN_POINT ( 'NONE',  ( 1.372988835764731297, 0.5999999999999999778, -0.8455185727501248749 ) ) ;
#358 = EDGE_CURVE ( 'NONE', #215, #125, #552, .T. ) ;
#359 = CARTESIAN_POINT ( 'NONE',  ( 10.53946301973748056, 0.5999999999999999778, 1.366320507525827788 ) ) ;
#360 = CALENDAR_DATE ( 2024, 26, 9 ) ;
#361 = EDGE_LOOP ( 'NONE', ( #665, #615, #1212, #1089 ) ) ;
#362 = DIRECTION ( 'NONE',  ( 0.000000000000000000, 1.000000000000000000, 0.000000000000000000 ) ) ;
#363 = CARTESIAN_POINT ( 'NONE',  ( 10.63529635307081378, 0.2999999999999999889, 0.3709231134051567125 ) ) ;
#364 = EDGE_CURVE ( 'NONE', #497, #712, #388, .T. ) ;
#365 = DIRECTION ( 'NONE',  ( -0.000000000000000000, -1.000000000000000000, -0.000000000000000000 ) ) ;
#366 = ADVANCED_FACE ( 'NONE', ( #664, #1160, #275 ), #472, .F. ) ;
#367 = ORIENTED_EDGE ( 'NONE', *, *, #520, .T. ) ;
#368 = FACE_OUTER_BOUND ( 'NONE', #477, .T. ) ;
#369 = VECTOR ( 'NONE', #894, 100.0000000000000000 ) ;
#370 = DIRECTION ( 'NONE',  ( -0.000000000000000000, -1.000000000000000000, 0.000000000000000000 ) ) ;
#371 = CIRCLE ( 'NONE', #1258, 0.9999999999999991118 ) ;
#372 = AXIS2_PLACEMENT_3D ( 'NONE', #1250, #963, #558 ) ;
#373 = DIRECTION ( 'NONE',  ( -0.000000000000000000, -1.000000000000000000, 0.000000000000000000 ) ) ;
#374 = AXIS2_PLACEMENT_3D ( 'NONE', #84, #580, #702 ) ;
#375 = ORIENTED_EDGE ( 'NONE', *, *, #1178, .F. ) ;
#376 = CYLINDRICAL_SURFACE ( 'NONE', #413, 1.000000000000000222 ) ;
#377 = DIRECTION ( 'NONE',  ( 0.000000000000000000, 0.000000000000000000, 1.000000000000000000 ) ) ;
#378 = DIRECTION ( 'NONE',  ( 0.000000000000000000, 1.000000000000000000, 0.000000000000000000 ) ) ;
#379 = ORIENTED_EDGE ( 'NONE', *, *, #847, .F. ) ;
#380 = APPLICATION_PROTOCOL_DEFINITION ( 'international standard', 'config_control_design', 1994, #824 ) ;
#381 = CARTESIAN_POINT ( 'NONE',  ( 12.00000000000000178, 0.5999999999999999778, 0.9999999999999991118 ) ) ;
#382 = CARTESIAN_POINT ( 'NONE',  ( 12.00000000000000178, 0.5999999999999999778, 0.000000000000000000 ) ) ;
#383 = EDGE_LOOP ( 'NONE', ( #505, #228, #473, #1097, #818, #1189, #698, #973, #727, #880, #1061, #909, #691, #220, #191, #631 ) ) ;
#384 = ORIENTED_EDGE ( 'NONE', *, *, #645, .F. ) ;
#385 = DATE_AND_TIME ( #1272, #908 ) ;
#386 = DIRECTION ( 'NONE',  ( 0.000000000000000000, 0.000000000000000000, 1.000000000000000000 ) ) ;
#387 = DIRECTION ( 'NONE',  ( -0.000000000000000000, -1.000000000000000000, -0.000000000000000000 ) ) ;
#388 = CIRCLE ( 'NONE', #865, 1.000000000000000000 ) ;
#389 = ORIENTED_EDGE ( 'NONE', *, *, #535, .F. ) ;
#390 = ORGANIZATION ( 'UNSPECIFIED', 'UNSPECIFIED', '' ) ;
#391 = APPROVAL_DATE_TIME ( #482, #1106 ) ;
#392 = DIRECTION ( 'NONE',  ( -0.000000000000000000, -1.000000000000000000, -0.000000000000000000 ) ) ;
#393 = ADVANCED_FACE ( 'NONE', ( #1108 ), #106, .T. ) ;
#394 = CARTESIAN_POINT ( 'NONE',  ( 10.42653083607359754, 0.2999999999999999889, -0.3524128121574692796 ) ) ;
#395 = EDGE_LOOP ( 'NONE', ( #806, #672, #146, #1049 ) ) ;
#396 = ORIENTED_EDGE ( 'NONE', *, *, #75, .F. ) ;
#397 = DIRECTION ( 'NONE',  ( 1.000000000000000000, 0.000000000000000000, 0.000000000000000000 ) ) ;
#398 = CARTESIAN_POINT ( 'NONE',  ( 12.00000000000000178, 0.5999999999999999778, 0.6500000000000000222 ) ) ;
#399 = DIRECTION ( 'NONE',  ( -0.000000000000000000, -1.000000000000000000, -0.000000000000000000 ) ) ;
#400 = EDGE_CURVE ( 'NONE', #1142, #640, #156, .T. ) ;
#401 = ORIENTED_EDGE ( 'NONE', *, *, #1203, .T. ) ;
#402 = LINE ( 'NONE', #790, #74 ) ;
#403 = EDGE_CURVE ( 'NONE', #626, #261, #601, .T. ) ;
#404 = VERTEX_POINT ( 'NONE', #485 ) ;
#405 = CARTESIAN_POINT ( 'NONE',  ( 0.000000000000000000, 0.5999999999999999778, -0.9999999999999998890 ) ) ;
#406 = DIRECTION ( 'NONE',  ( 0.000000000000000000, 1.000000000000000000, -0.000000000000000000 ) ) ;
#407 = VECTOR ( 'NONE', #770, 100.0000000000000000 ) ;
#408 = ORIENTED_EDGE ( 'NONE', *, *, #815, .T. ) ;
#409 = VECTOR ( 'NONE', #683, 100.0000000000000000 ) ;
#410 = ORIENTED_EDGE ( 'NONE', *, *, #892, .T. ) ;
#411 = CIRCLE ( 'NONE', #697, 1.000000000000000000 ) ;
#412 = PERSON_AND_ORGANIZATION_ROLE ( 'classification_officer' ) ;
#413 = AXIS2_PLACEMENT_3D ( 'NONE', #48, #262, #149 ) ;
#414 = DIRECTION ( 'NONE',  ( 0.9953973941206709641, 0.000000000000000000, 0.09583333333333342308 ) ) ;
#415 = CARTESIAN_POINT ( 'NONE',  ( 0.4791421199502013395, 0.5999999999999999778, -0.8777373347930614855 ) ) ;
#416 = EDGE_LOOP ( 'NONE', ( #269, #384 ) ) ;
#417 = ORIENTED_EDGE ( 'NONE', *, *, #1188, .T. ) ;
#418 = ADVANCED_FACE ( 'NONE', ( #480 ), #878, .T. ) ;
#419 = DIRECTION ( 'NONE',  ( 0.09583333333333390880, 0.000000000000000000, -0.9953973941206708531 ) ) ;
#420 = FACE_OUTER_BOUND ( 'NONE', #901, .T. ) ;
#421 = ORIENTED_EDGE ( 'NONE', *, *, #573, .T. ) ;
#422 = DIRECTION ( 'NONE',  ( -0.9953973941206709641, 0.000000000000000000, -0.09583333333333313164 ) ) ;
#423 = EDGE_LOOP ( 'NONE', ( #114, #318, #345, #2 ) ) ;
#424 = CARTESIAN_POINT ( 'NONE',  ( 2.349222914576804655, 0.000000000000000000, -1.422206782894970045 ) ) ;
#425 = LINE ( 'NONE', #918, #1031 ) ;
#426 = CARTESIAN_POINT ( 'NONE',  ( 11.18587723649733690, 0.000000000000000000, -0.5806927982563437896 ) ) ;
#427 = VECTOR ( 'NONE', #378, 100.0000000000000000 ) ;
#428 = ORIENTED_EDGE ( 'NONE', *, *, #987, .F. ) ;
#429 = AXIS2_PLACEMENT_3D ( 'NONE', #131, #350, #539 ) ;
#430 = CIRCLE ( 'NONE', #531, 2.000000000000000444 ) ;
#431 = CARTESIAN_POINT ( 'NONE',  ( 7.960204194457796709E-17, 0.000000000000000000, 0.6500000000000000222 ) ) ;
#432 = AXIS2_PLACEMENT_3D ( 'NONE', #298, #1098, #1119 ) ;
#433 = CIRCLE ( 'NONE', #616, 1.000000000000000000 ) ;
#434 = CARTESIAN_POINT ( 'NONE',  ( 0.9964064701753659881, 0.000000000000000000, -1.003580662524277578 ) ) ;
#435 = ADVANCED_FACE ( 'NONE', ( #710 ), #898, .T. ) ;
#436 = DIRECTION ( 'NONE',  ( -0.000000000000000000, -1.000000000000000000, -0.000000000000000000 ) ) ;
#437 = ORIENTED_EDGE ( 'NONE', *, *, #11, .T. ) ;
#438 = DIRECTION ( 'NONE',  ( 0.000000000000000000, 1.000000000000000000, 0.000000000000000000 ) ) ;
#439 = CARTESIAN_POINT ( 'NONE',  ( 12.00000000000000178, 0.5999999999999999778, 0.9999999999999991118 ) ) ;
#440 = CARTESIAN_POINT ( 'NONE',  ( 2.468840730775344827, 0.2999999999999999889, 1.292546317981754456 ) ) ;
#441 = ORIENTED_EDGE ( 'NONE', *, *, #231, .F. ) ;
#442 = EDGE_CURVE ( 'NONE', #871, #1277, #15, .T. ) ;
#443 = DIRECTION ( 'NONE',  ( 0.000000000000000000, 1.000000000000000000, 0.000000000000000000 ) ) ;
#444 = DIRECTION ( 'NONE',  ( 0.000000000000000000, 0.000000000000000000, -1.000000000000000000 ) ) ;
#445 = ORIENTED_EDGE ( 'NONE', *, *, #145, .T. ) ;
#446 = DIRECTION ( 'NONE',  ( -0.9099560968359980961, 0.000000000000000000, 0.4147045958643281738 ) ) ;
#447 = ORIENTED_EDGE ( 'NONE', *, *, #1286, .T. ) ;
#448 = CARTESIAN_POINT ( 'NONE',  ( 0.1293749999999986022, 0.2999999999999999889, -1.343786482062901078 ) ) ;
#449 = AXIS2_PLACEMENT_3D ( 'NONE', #19, #387, #299 ) ;
#450 = ORIENTED_EDGE ( 'NONE', *, *, #1163, .T. ) ;
#451 = DIRECTION ( 'NONE',  ( 0.000000000000000000, 1.000000000000000000, -0.000000000000000000 ) ) ;
#452 = AXIS2_PLACEMENT_3D ( 'NONE', #709, #1105, #246 ) ;
#453 = CIRCLE ( 'NONE', #1158, 0.9999999999999998890 ) ;
#454 = CYLINDRICAL_SURFACE ( 'NONE', #222, 1.000000000000000000 ) ;
#455 = ORIENTED_EDGE ( 'NONE', *, *, #563, .F. ) ;
#456 = LINE ( 'NONE', #643, #204 ) ;
#457 = EDGE_CURVE ( 'NONE', #640, #1122, #305, .T. ) ;
#458 = EDGE_CURVE ( 'NONE', #1040, #257, #33, .T. ) ;
#459 = CARTESIAN_POINT ( 'NONE',  ( 2.520105509146162159, 0.2999999999999999889, 1.598869075500344739 ) ) ;
#460 = EDGE_CURVE ( 'NONE', #189, #1259, #1287, .T. ) ;
#461 = CARTESIAN_POINT ( 'NONE',  ( 0.000000000000000000, 0.000000000000000000, 0.000000000000000000 ) ) ;
#462 = ORIENTED_EDGE ( 'NONE', *, *, #37, .T. ) ;
#463 = DIRECTION ( 'NONE',  ( 0.000000000000000000, 0.000000000000000000, 1.000000000000000000 ) ) ;
#464 = CARTESIAN_POINT ( 'NONE',  ( 10.53946301973748056, 0.2999999999999999889, 1.366320507525827788 ) ) ;
#465 = DIRECTION ( 'NONE',  ( 0.000000000000000000, 0.000000000000000000, 1.000000000000000000 ) ) ;
#466 = EDGE_LOOP ( 'NONE', ( #379, #1111, #77, #221 ) ) ;
#467 = CARTESIAN_POINT ( 'NONE',  ( 0.09104166666666657637, 0.2999999999999999889, -0.9456275244146353787 ) ) ;
#468 = CIRCLE ( 'NONE', #550, 1.000000000000000222 ) ;
#469 = CARTESIAN_POINT ( 'NONE',  ( 0.9964064701753656550, 0.5999999999999999778, -1.003580662524277356 ) ) ;
#470 = CIRCLE ( 'NONE', #429, 0.6500000000000000222 ) ;
#471 = AXIS2_PLACEMENT_3D ( 'NONE', #484, #1284, #500 ) ;
#472 = PLANE ( 'NONE',  #96 ) ;
#473 = ORIENTED_EDGE ( 'NONE', *, *, #1169, .T. ) ;
#474 = CARTESIAN_POINT ( 'NONE',  ( 2.349222914576804655, 0.5999999999999999778, 0.5777932171050300658 ) ) ;
#475 = PLANE ( 'NONE',  #843 ) ;
#476 = DIRECTION ( 'NONE',  ( -0.000000000000000000, -1.000000000000000000, -0.000000000000000000 ) ) ;
#477 = EDGE_LOOP ( 'NONE', ( #1095, #122, #450, #607 ) ) ;
#478 = COORDINATED_UNIVERSAL_TIME_OFFSET ( 9, 0, .AHEAD. ) ;
#479 = LINE ( 'NONE', #1196, #721 ) ;
#480 = FACE_OUTER_BOUND ( 'NONE', #822, .T. ) ;
#481 = ORIENTED_EDGE ( 'NONE', *, *, #726, .T. ) ;
#482 = DATE_AND_TIME ( #89, #1117 ) ;
#483 = PRODUCT_DEFINITION ( 'UNKNOWN', '', #313, #1078 ) ;
#484 = CARTESIAN_POINT ( 'NONE',  ( 10.29236416940693033, 0.2999999999999999889, 1.041143539611474989 ) ) ;
#485 = CARTESIAN_POINT ( 'NONE',  ( 10.63529635307081556, 0.000000000000000000, 0.3709231134051569900 ) ) ;
#486 = AXIS2_PLACEMENT_3D ( 'NONE', #440, #731, #1226 ) ;
#487 = AXIS2_PLACEMENT_3D ( 'NONE', #940, #248, #1012 ) ;
#488 = VERTEX_POINT ( 'NONE', #1100 ) ;
#489 = AXIS2_PLACEMENT_3D ( 'NONE', #713, #419, #42 ) ;
#490 = AXIS2_PLACEMENT_3D ( 'NONE', #448, #53, #845 ) ;
#491 = ORIENTED_EDGE ( 'NONE', *, *, #230, .F. ) ;
#492 = CYLINDRICAL_SURFACE ( 'NONE', #226, 2.000000000000000000 ) ;
#493 = DIRECTION ( 'NONE',  ( 0.000000000000000000, 1.000000000000000000, 0.000000000000000000 ) ) ;
#494 = EDGE_CURVE ( 'NONE', #680, #913, #777, .T. ) ;
#495 = EDGE_CURVE ( 'NONE', #199, #780, #690, .T. ) ;
#496 = LINE ( 'NONE', #904, #719 ) ;
#497 = VERTEX_POINT ( 'NONE', #316 ) ;
#498 = ORIENTED_EDGE ( 'NONE', *, *, #703, .F. ) ;
#499 = ORIENTED_EDGE ( 'NONE', *, *, #959, .T. ) ;
#500 = DIRECTION ( 'NONE',  ( 0.000000000000000000, 0.000000000000000000, 1.000000000000000000 ) ) ;
#501 = CARTESIAN_POINT ( 'NONE',  ( 2.711772175812837471, 0.5999999999999999778, -0.3919257127409970232 ) ) ;
#502 = EDGE_CURVE ( 'NONE', #1142, #244, #778, .T. ) ;
#503 = ORIENTED_EDGE ( 'NONE', *, *, #460, .F. ) ;
#504 = ORIENTED_EDGE ( 'NONE', *, *, #1286, .F. ) ;
#505 = ORIENTED_EDGE ( 'NONE', *, *, #1050, .T. ) ;
#506 = FACE_OUTER_BOUND ( 'NONE', #1271, .T. ) ;
#507 = CARTESIAN_POINT ( 'NONE',  ( 0.5806927982563431234, 0.5999999999999999778, -0.8141227635026661025 ) ) ;
#508 = AXIS2_PLACEMENT_3D ( 'NONE', #359, #650, #749 ) ;
#509 = ORIENTED_EDGE ( 'NONE', *, *, #364, .F. ) ;
#510 = EDGE_CURVE ( 'NONE', #250, #624, #213, .T. ) ;
#511 = CIRCLE ( 'NONE', #757, 0.6500000000000000222 ) ;
#512 = VERTEX_POINT ( 'NONE', #606 ) ;
#513 = VECTOR ( 'NONE', #85, 100.0000000000000000 ) ;
#514 = CIRCLE ( 'NONE', #887, 0.6500000000000000222 ) ;
#515 = CARTESIAN_POINT ( 'NONE',  ( 1.411111066039693718, 0.2999999999999999889, -0.09362456568827969006 ) ) ;
#516 = CARTESIAN_POINT ( 'NONE',  ( 1.224646799147352961E-16, 0.5999999999999999778, 0.9999999999999998890 ) ) ;
#517 = VERTEX_POINT ( 'NONE', #394 ) ;
#518 = ORIENTED_EDGE ( 'NONE', *, *, #979, .T. ) ;
#519 = ORIENTED_EDGE ( 'NONE', *, *, #605, .T. ) ;
#520 = EDGE_CURVE ( 'NONE', #1259, #863, #265, .T. ) ;
#521 = CARTESIAN_POINT ( 'NONE',  ( 2.520105509146162159, 0.5999999999999999778, 1.598869075500344739 ) ) ;
#522 = CARTESIAN_POINT ( 'NONE',  ( 0.5817018743110377033, 0.5999999999999999778, -1.913536759360275452 ) ) ;
#523 = CARTESIAN_POINT ( 'NONE',  ( 12.00000000000000178, 0.5999999999999999778, 0.000000000000000000 ) ) ;
#524 = VERTEX_POINT ( 'NONE', #983 ) ;
#525 = FACE_OUTER_BOUND ( 'NONE', #1235, .T. ) ;
#526 = CARTESIAN_POINT ( 'NONE',  ( 11.18587723649733690, 0.5999999999999999778, -0.5806927982563437896 ) ) ;
#527 = CARTESIAN_POINT ( 'NONE',  ( 7.960204194457796709E-17, 0.5999999999999999778, 0.6500000000000000222 ) ) ;
#528 = CIRCLE ( 'NONE', #306, 0.9999999999999998890 ) ;
#529 = ORIENTED_EDGE ( 'NONE', *, *, #1169, .F. ) ;
#530 = PRODUCT_DEFINITION_SHAPE ( 'NONE', 'NONE',  #483 ) ;
#531 = AXIS2_PLACEMENT_3D ( 'NONE', #459, #849, #377 ) ;
#532 = CARTESIAN_POINT ( 'NONE',  ( 0.000000000000000000, 0.5999999999999999778, 0.000000000000000000 ) ) ;
#533 = ADVANCED_FACE ( 'NONE', ( #91 ), #1185, .F. ) ;
#534 = CARTESIAN_POINT ( 'NONE',  ( 12.00000000000000178, 0.000000000000000000, -0.6500000000000000222 ) ) ;
#535 = EDGE_CURVE ( 'NONE', #209, #1075, #496, .T. ) ;
#536 = DIRECTION ( 'NONE',  ( -0.000000000000000000, -1.000000000000000000, -0.000000000000000000 ) ) ;
#537 = EDGE_LOOP ( 'NONE', ( #242, #481, #556, #685 ) ) ;
#538 = FACE_OUTER_BOUND ( 'NONE', #127, .T. ) ;
#539 = DIRECTION ( 'NONE',  ( 0.000000000000000000, 0.000000000000000000, 1.000000000000000000 ) ) ;
#540 = VERTEX_POINT ( 'NONE', #789 ) ;
#541 = DIRECTION ( 'NONE',  ( 0.000000000000000000, 0.000000000000000000, -1.000000000000000000 ) ) ;
#542 = ORIENTED_EDGE ( 'NONE', *, *, #400, .T. ) ;
#543 = CARTESIAN_POINT ( 'NONE',  ( 2.660507397442019695, 0.2999999999999999889, -0.6982484702595869175 ) ) ;
#544 = ORIENTED_EDGE ( 'NONE', *, *, #579, .T. ) ;
#545 = DIRECTION ( 'NONE',  ( 0.000000000000000000, 1.000000000000000000, 0.000000000000000000 ) ) ;
#546 = LINE ( 'NONE', #632, #612 ) ;
#547 = CC_DESIGN_DATE_AND_TIME_ASSIGNMENT ( #936, #1104, ( #799 ) ) ;
#548 = ORIENTED_EDGE ( 'NONE', *, *, #321, .T. ) ;
#549 = ADVANCED_FACE ( 'NONE', ( #1205 ), #1132, .T. ) ;
#550 = AXIS2_PLACEMENT_3D ( 'NONE', #625, #941, #737 ) ;
#551 = CARTESIAN_POINT ( 'NONE',  ( 0.1581249999999994049, 0.2999999999999999889, -1.642405700299104376 ) ) ;
#552 = CIRCLE ( 'NONE', #884, 0.6500000000000000222 ) ;
#553 = LINE ( 'NONE', #254, #287 ) ;
#554 = CC_DESIGN_APPROVAL ( #1106, ( #313 ) ) ;
#555 = DIRECTION ( 'NONE',  ( 0.000000000000000000, 1.000000000000000000, 0.000000000000000000 ) ) ;
#556 = ORIENTED_EDGE ( 'NONE', *, *, #130, .F. ) ;
#557 = CARTESIAN_POINT ( 'NONE',  ( -0.08294091917286568194, 0.2999999999999999889, -0.1819912193671996692 ) ) ;
#558 = DIRECTION ( 'NONE',  ( 0.000000000000000000, 0.000000000000000000, -1.000000000000000000 ) ) ;
#559 = DIRECTION ( 'NONE',  ( 0.000000000000000000, 1.000000000000000000, 0.000000000000000000 ) ) ;
#560 = VERTEX_POINT ( 'NONE', #439 ) ;
#561 = CARTESIAN_POINT ( 'NONE',  ( 2.592154359614277315, 0.2999999999999999889, -1.106678813617714585 ) ) ;
#562 = FACE_OUTER_BOUND ( 'NONE', #829, .T. ) ;
#563 = EDGE_CURVE ( 'NONE', #1122, #250, #614, .T. ) ;
#564 = CARTESIAN_POINT ( 'NONE',  ( 2.520105509146162159, 0.5999999999999999778, -0.4011309244996558721 ) ) ;
#565 = ORIENTED_EDGE ( 'NONE', *, *, #160, .T. ) ;
#566 = LINE ( 'NONE', #467, #931 ) ;
#567 = AXIS2_PLACEMENT_3D ( 'NONE', #523, #436, #541 ) ;
#568 = DIRECTION ( 'NONE',  ( 0.000000000000000000, 0.000000000000000000, -1.000000000000000000 ) ) ;
#569 = VECTOR ( 'NONE', #759, 100.0000000000000000 ) ;
#570 = VECTOR ( 'NONE', #325, 100.0000000000000000 ) ;
#571 = DIRECTION ( 'NONE',  ( 0.000000000000000000, -0.000000000000000000, 1.000000000000000000 ) ) ;
#572 = CC_DESIGN_APPROVAL ( #302, ( #799 ) ) ;
#573 = EDGE_CURVE ( 'NONE', #1279, #209, #118, .T. ) ;
#574 = VERTEX_POINT ( 'NONE', #516 ) ;
#575 = PERSON_AND_ORGANIZATION ( #915, #390 ) ;
#576 = FACE_OUTER_BOUND ( 'NONE', #613, .T. ) ;
#577 = DIRECTION ( 'NONE',  ( 0.000000000000000000, 0.000000000000000000, 1.000000000000000000 ) ) ;
#578 = ORIENTED_EDGE ( 'NONE', *, *, #535, .T. ) ;
#579 = EDGE_CURVE ( 'NONE', #1206, #1007, #76, .T. ) ;
#580 = DIRECTION ( 'NONE',  ( -0.000000000000000000, -1.000000000000000000, 0.000000000000000000 ) ) ;
#581 = CARTESIAN_POINT ( 'NONE',  ( 0.9964064701753659881, 0.2999999999999999889, -1.003580662524277578 ) ) ;
#582 = DIRECTION ( 'NONE',  ( 0.000000000000000000, 1.000000000000000000, -0.000000000000000000 ) ) ;
#583 = ORIENTED_EDGE ( 'NONE', *, *, #862, .T. ) ;
#584 = VERTEX_POINT ( 'NONE', #143 ) ;
#585 = EDGE_CURVE ( 'NONE', #102, #680, #425, .T. ) ;
#586 = VERTEX_POINT ( 'NONE', #933 ) ;
#587 = CARTESIAN_POINT ( 'NONE',  ( 1.538870674110462522, 0.5999999999999999778, -0.4815361340157253700 ) ) ;
#588 = EDGE_CURVE ( 'NONE', #215, #524, #744, .T. ) ;
#589 = CYLINDRICAL_SURFACE ( 'NONE', #1093, 2.000000000000000888 ) ;
#590 = AXIS2_PLACEMENT_3D ( 'NONE', #334, #536, #725 ) ;
#591 = DIRECTION ( 'NONE',  ( -0.9099560968359980961, -0.000000000000000000, 0.4147045958643281183 ) ) ;
#592 = CIRCLE ( 'NONE', #740, 1.000000000000000000 ) ;
#593 = VECTOR ( 'NONE', #16, 100.0000000000000000 ) ;
#594 = ORIENTED_EDGE ( 'NONE', *, *, #1063, .T. ) ;
#595 = CARTESIAN_POINT ( 'NONE',  ( 1.825815661904021558, 0.5999999999999999778, 0.8163315311477181702 ) ) ;
#596 = VECTOR ( 'NONE', #1058, 100.0000000000000000 ) ;
#597 = VECTOR ( 'NONE', #662, 100.0000000000000000 ) ;
#598 = VERTEX_POINT ( 'NONE', #911 ) ;
#599 = PERSON_AND_ORGANIZATION ( #915, #390 ) ;
#600 = CARTESIAN_POINT ( 'NONE',  ( 0.2908509371555190737, 0.000000000000000000, -0.9567683796801377261 ) ) ;
#601 = LINE ( 'NONE', #501, #247 ) ;
#602 = CARTESIAN_POINT ( 'NONE',  ( 2.520105509146162159, 0.2999999999999999889, 1.598869075500344739 ) ) ;
#603 = ORIENTED_EDGE ( 'NONE', *, *, #457, .T. ) ;
#604 = CARTESIAN_POINT ( 'NONE',  ( 0.9767876349873952924, 0.5999999999999999778, 0.2142099814101363353 ) ) ;
#605 = EDGE_CURVE ( 'NONE', #1057, #524, #470, .T. ) ;
#606 = CARTESIAN_POINT ( 'NONE',  ( 10.42653083607359754, 0.5999999999999999778, -0.3524128121574692796 ) ) ;
#607 = ORIENTED_EDGE ( 'NONE', *, *, #959, .F. ) ;
#608 = VERTEX_POINT ( 'NONE', #534 ) ;
#609 = ORIENTED_EDGE ( 'NONE', *, *, #11, .F. ) ;
#610 = LINE ( 'NONE', #932, #570 ) ;
#611 = DIRECTION ( 'NONE',  ( -0.000000000000000000, -1.000000000000000000, -0.000000000000000000 ) ) ;
#612 = VECTOR ( 'NONE', #1123, 100.0000000000000142 ) ;
#613 = EDGE_LOOP ( 'NONE', ( #281, #889, #978, #24 ) ) ;
#614 = CIRCLE ( 'NONE', #487, 2.000000000000000444 ) ;
#615 = ORIENTED_EDGE ( 'NONE', *, *, #72, .F. ) ;
#616 = AXIS2_PLACEMENT_3D ( 'NONE', #161, #65, #463 ) ;
#617 = DIRECTION ( 'NONE',  ( 0.000000000000000000, 1.000000000000000000, 0.000000000000000000 ) ) ;
#618 = DIRECTION ( 'NONE',  ( 0.000000000000000000, 1.000000000000000000, -0.000000000000000000 ) ) ;
#619 = CYLINDRICAL_SURFACE ( 'NONE', #567, 0.9999999999999991118 ) ;
#620 = VERTEX_POINT ( 'NONE', #1029 ) ;
#621 = ADVANCED_FACE ( 'NONE', ( #23 ), #816, .F. ) ;
#622 = CARTESIAN_POINT ( 'NONE',  ( 0.9129078309520107792, 0.2999999999999999889, 0.4081657655738590851 ) ) ;
#623 = DIRECTION ( 'NONE',  ( 0.9953973941206709641, 0.000000000000000000, 0.09583333333333311777 ) ) ;
#624 = VERTEX_POINT ( 'NONE', #434 ) ;
#625 = CARTESIAN_POINT ( 'NONE',  ( 1.953575269974790141, 0.2999999999999999889, 0.4284199628202725596 ) ) ;
#626 = VERTEX_POINT ( 'NONE', #49 ) ;
#627 = ADVANCED_FACE ( 'NONE', ( #420 ), #1113, .F. ) ;
#628 = DIRECTION ( 'NONE',  ( -0.000000000000000000, -1.000000000000000000, -0.000000000000000000 ) ) ;
#629 = EDGE_CURVE ( 'NONE', #517, #199, #592, .T. ) ;
#630 = DIRECTION ( 'NONE',  ( -0.000000000000000000, -1.000000000000000000, -0.000000000000000000 ) ) ;
#631 = ORIENTED_EDGE ( 'NONE', *, *, #734, .F. ) ;
#632 = CARTESIAN_POINT ( 'NONE',  ( 0.9953973941206709641, 0.000000000000000000, 0.09583333333333179938 ) ) ;
#633 = CIRCLE ( 'NONE', #717, 0.9999999999999991118 ) ;
#634 = ORIENTED_EDGE ( 'NONE', *, *, #1227, .T. ) ;
#635 = AXIS2_PLACEMENT_3D ( 'NONE', #137, #1036, #337 ) ;
#636 = VECTOR ( 'NONE', #193, 100.0000000000000000 ) ;
#637 = CARTESIAN_POINT ( 'NONE',  ( 2.520105509146162159, 0.000000000000000000, 1.598869075500344739 ) ) ;
#638 =( GEOMETRIC_REPRESENTATION_CONTEXT ( 3 ) GLOBAL_UNCERTAINTY_ASSIGNED_CONTEXT ( ( #1183 ) ) GLOBAL_UNIT_ASSIGNED_CONTEXT ( ( #969, #896, #890 ) ) REPRESENTATION_CONTEXT ( 'NONE', 'WORKASPACE' ) );
#639 = DIRECTION ( 'NONE',  ( 0.000000000000000000, 1.000000000000000000, -0.000000000000000000 ) ) ;
#640 = VERTEX_POINT ( 'NONE', #1209 ) ;
#641 = DIRECTION ( 'NONE',  ( 0.000000000000000000, 0.000000000000000000, -1.000000000000000000 ) ) ;
#642 = EDGE_LOOP ( 'NONE', ( #1002, #87, #811, #548, #966, #232 ) ) ;
#643 = CARTESIAN_POINT ( 'NONE',  ( 12.00000000000000178, 0.5999999999999999778, -0.6500000000000000222 ) ) ;
#644 = CARTESIAN_POINT ( 'NONE',  ( 12.00000000000000178, 0.5999999999999999778, 0.000000000000000000 ) ) ;
#645 = EDGE_CURVE ( 'NONE', #125, #215, #511, .T. ) ;
#646 = DIRECTION ( 'NONE',  ( -0.000000000000000000, -1.000000000000000000, -0.000000000000000000 ) ) ;
#647 = ORIENTED_EDGE ( 'NONE', *, *, #763, .F. ) ;
#648 = DIRECTION ( 'NONE',  ( 0.4147045958643282293, 0.000000000000000000, 0.9099560968359980961 ) ) ;
#649 = DIRECTION ( 'NONE',  ( 0.000000000000000000, 0.000000000000000000, 1.000000000000000000 ) ) ;
#650 = DIRECTION ( 'NONE',  ( -0.000000000000000000, -1.000000000000000000, -0.000000000000000000 ) ) ;
#651 = ORIENTED_EDGE ( 'NONE', *, *, #563, .T. ) ;
#652 = CIRCLE ( 'NONE', #245, 2.000000000000000444 ) ;
#653 = PLANE ( 'NONE',  #490 ) ;
#654 = AXIS2_PLACEMENT_3D ( 'NONE', #322, #582, #784 ) ;
#655 = LINE ( 'NONE', #1055, #138 ) ;
#656 = VECTOR ( 'NONE', #392, 100.0000000000000000 ) ;
#657 = CIRCLE ( 'NONE', #36, 0.9999999999999991118 ) ;
#658 = CARTESIAN_POINT ( 'NONE',  ( 2.711772175812837471, 0.000000000000000000, -0.3919257127409970232 ) ) ;
#659 = ORIENTED_EDGE ( 'NONE', *, *, #862, .F. ) ;
#660 = EDGE_CURVE ( 'NONE', #1075, #41, #1019, .T. ) ;
#661 = EDGE_CURVE ( 'NONE', #620, #584, #926, .T. ) ;
#662 = DIRECTION ( 'NONE',  ( 0.9099560968359979851, 0.000000000000000000, -0.4147045958643282293 ) ) ;
#663 = CARTESIAN_POINT ( 'NONE',  ( 2.349222914576804655, 0.5999999999999999778, 0.5777932171050300658 ) ) ;
#664 = FACE_OUTER_BOUND ( 'NONE', #214, .T. ) ;
#665 = ORIENTED_EDGE ( 'NONE', *, *, #347, .F. ) ;
#666 = ADVANCED_BREP_SHAPE_REPRESENTATION ( '¸µÅ©_ºÕ', ( #1121, #868 ), #638 ) ;
#667 = ORIENTED_EDGE ( 'NONE', *, *, #358, .T. ) ;
#668 = DIRECTION ( 'NONE',  ( 0.9953973941206709641, 0.000000000000000000, 0.09583333333333342308 ) ) ;
#669 = LINE ( 'NONE', #469, #1238 ) ;
#670 = ADVANCED_FACE ( 'NONE', ( #218 ), #124, .F. ) ;
#671 = CARTESIAN_POINT ( 'NONE',  ( 0.000000000000000000, 0.5999999999999999778, 0.000000000000000000 ) ) ;
#672 = ORIENTED_EDGE ( 'NONE', *, *, #855, .T. ) ;
#673 = COORDINATED_UNIVERSAL_TIME_OFFSET ( 9, 0, .AHEAD. ) ;
#674 = AXIS2_PLACEMENT_3D ( 'NONE', #856, #1269, #678 ) ;
#675 = DIRECTION ( 'NONE',  ( 0.000000000000000000, 0.000000000000000000, -1.000000000000000000 ) ) ;
#676 = AXIS2_PLACEMENT_3D ( 'NONE', #663, #766, #568 ) ;
#677 = AXIS2_PLACEMENT_3D ( 'NONE', #279, #1255, #1064 ) ;
#678 = DIRECTION ( 'NONE',  ( 0.000000000000000000, 0.000000000000000000, 1.000000000000000000 ) ) ;
#679 = CC_DESIGN_SECURITY_CLASSIFICATION ( #799, ( #313 ) ) ;
#680 = VERTEX_POINT ( 'NONE', #1024 ) ;
#681 = APPROVAL_STATUS ( 'not_yet_approved' ) ;
#682 = LINE ( 'NONE', #398, #593 ) ;
#683 = DIRECTION ( 'NONE',  ( -0.000000000000000000, -1.000000000000000000, -0.000000000000000000 ) ) ;
#684 = EDGE_CURVE ( 'NONE', #913, #586, #923, .T. ) ;
#685 = ORIENTED_EDGE ( 'NONE', *, *, #46, .T. ) ;
#686 = EDGE_CURVE ( 'NONE', #560, #939, #1126, .T. ) ;
#687 = VERTEX_POINT ( 'NONE', #1246 ) ;
#688 = CALENDAR_DATE ( 2024, 26, 9 ) ;
#689 = DIRECTION ( 'NONE',  ( -0.9099560968359980961, 0.000000000000000000, 0.4147045958643280628 ) ) ;
#690 = LINE ( 'NONE', #1179, #988 ) ;
#691 = ORIENTED_EDGE ( 'NONE', *, *, #917, .T. ) ;
#692 = ORIENTED_EDGE ( 'NONE', *, *, #168, .F. ) ;
#693 = ORIENTED_EDGE ( 'NONE', *, *, #715, .T. ) ;
#694 = DIRECTION ( 'NONE',  ( -0.000000000000000000, -1.000000000000000000, -0.000000000000000000 ) ) ;
#695 = AXIS2_PLACEMENT_3D ( 'NONE', #1200, #707, #6 ) ;
#696 = CARTESIAN_POINT ( 'NONE',  ( 0.000000000000000000, 0.2999999999999999889, 0.000000000000000000 ) ) ;
#697 = AXIS2_PLACEMENT_3D ( 'NONE', #71, #1263, #649 ) ;
#698 = ORIENTED_EDGE ( 'NONE', *, *, #715, .F. ) ;
#699 = DIRECTION ( 'NONE',  ( 0.9953973941206707421, 0.000000000000000000, 0.09583333333333389492 ) ) ;
#700 = APPROVAL_PERSON_ORGANIZATION ( #1174, #1106, #1077 ) ;
#701 = EDGE_LOOP ( 'NONE', ( #647, #879, #296, #108 ) ) ;
#702 = DIRECTION ( 'NONE',  ( 0.000000000000000000, 0.000000000000000000, 1.000000000000000000 ) ) ;
#703 = EDGE_CURVE ( 'NONE', #44, #780, #371, .T. ) ;
#704 = CARTESIAN_POINT ( 'NONE',  ( 11.26973150986874117, 0.2999999999999999889, 0.6831602537629131167 ) ) ;
#705 = DIRECTION ( 'NONE',  ( -0.09583333333333342308, 0.000000000000000000, 0.9953973941206709641 ) ) ;
#706 = ORIENTED_EDGE ( 'NONE', *, *, #66, .F. ) ;
#707 = DIRECTION ( 'NONE',  ( 0.000000000000000000, 1.000000000000000000, -0.000000000000000000 ) ) ;
#708 = ORIENTED_EDGE ( 'NONE', *, *, #520, .F. ) ;
#709 = CARTESIAN_POINT ( 'NONE',  ( 2.349222914576804655, 0.2999999999999999889, 0.5777932171050300658 ) ) ;
#710 = FACE_OUTER_BOUND ( 'NONE', #64, .T. ) ;
#711 = CARTESIAN_POINT ( 'NONE',  ( 0.06229166666666766800, 0.2999999999999999889, -0.6470083061784426270 ) ) ;
#712 = VERTEX_POINT ( 'NONE', #154 ) ;
#713 = CARTESIAN_POINT ( 'NONE',  ( 11.09004390316400190, 0.5999999999999999778, 0.4147045958643266750 ) ) ;
#714 = DIRECTION ( 'NONE',  ( -0.000000000000000000, -1.000000000000000000, -0.000000000000000000 ) ) ;
#715 = EDGE_CURVE ( 'NONE', #930, #512, #553, .T. ) ;
#716 = ORIENTED_EDGE ( 'NONE', *, *, #853, .T. ) ;
#717 = AXIS2_PLACEMENT_3D ( 'NONE', #237, #839, #25 ) ;
#718 = DIRECTION ( 'NONE',  ( 0.000000000000000000, 0.000000000000000000, 1.000000000000000000 ) ) ;
#719 = VECTOR ( 'NONE', #5, 99.99999999999998579 ) ;
#720 = VERTEX_POINT ( 'NONE', #1042 ) ;
#721 = VECTOR ( 'NONE', #775, 100.0000000000000000 ) ;
#722 = DIRECTION ( 'NONE',  ( -0.000000000000000000, -1.000000000000000000, 0.000000000000000000 ) ) ;
#723 = DIRECTION ( 'NONE',  ( 0.000000000000000000, -1.000000000000000000, 0.000000000000000000 ) ) ;
#724 = ORIENTED_EDGE ( 'NONE', *, *, #128, .T. ) ;
#725 = DIRECTION ( 'NONE',  ( 0.000000000000000000, 0.000000000000000000, 1.000000000000000000 ) ) ;
#726 = EDGE_CURVE ( 'NONE', #624, #925, #669, .T. ) ;
#727 = ORIENTED_EDGE ( 'NONE', *, *, #1163, .F. ) ;
#728 = ADVANCED_FACE ( 'NONE', ( #953 ), #172, .T. ) ;
#729 = PLANE ( 'NONE',  #489 ) ;
#730 = CARTESIAN_POINT ( 'NONE',  ( 0.000000000000000000, 0.5999999999999999778, 0.000000000000000000 ) ) ;
#731 = DIRECTION ( 'NONE',  ( 0.000000000000000000, 1.000000000000000000, -0.000000000000000000 ) ) ;
#732 = COORDINATED_UNIVERSAL_TIME_OFFSET ( 9, 0, .AHEAD. ) ;
#733 = ORIENTED_EDGE ( 'NONE', *, *, #130, .T. ) ;
#734 = EDGE_CURVE ( 'NONE', #238, #41, #136, .T. ) ;
#735 = DIRECTION ( 'NONE',  ( 0.000000000000000000, 0.000000000000000000, -1.000000000000000000 ) ) ;
#736 = DIRECTION ( 'NONE',  ( 0.000000000000000000, 1.000000000000000000, 0.000000000000000000 ) ) ;
#737 = DIRECTION ( 'NONE',  ( 0.000000000000000000, 0.000000000000000000, 1.000000000000000000 ) ) ;
#738 = SECURITY_CLASSIFICATION_LEVEL ( 'unclassified' ) ;
#739 = ORIENTED_EDGE ( 'NONE', *, *, #1273, .F. ) ;
#740 = AXIS2_PLACEMENT_3D ( 'NONE', #832, #618, #1120 ) ;
#741 = AXIS2_PLACEMENT_3D ( 'NONE', #22, #1230, #735 ) ;
#742 = DIRECTION ( 'NONE',  ( 0.000000000000000000, 1.000000000000000000, -0.000000000000000000 ) ) ;
#743 = ADVANCED_FACE ( 'NONE', ( #859 ), #475, .T. ) ;
#744 = LINE ( 'NONE', #826, #57 ) ;
#745 = CYLINDRICAL_SURFACE ( 'NONE', #94, 1.000000000000000000 ) ;
#746 = ORIENTED_EDGE ( 'NONE', *, *, #233, .T. ) ;
#747 = LINE ( 'NONE', #1143, #597 ) ;
#748 = CARTESIAN_POINT ( 'NONE',  ( 10.53946301973748056, 0.000000000000000000, 1.366320507525827788 ) ) ;
#749 = DIRECTION ( 'NONE',  ( 0.000000000000000000, 0.000000000000000000, -1.000000000000000000 ) ) ;
#750 = EDGE_LOOP ( 'NONE', ( #504, #1199, #1171, #207 ) ) ;
#751 = CARTESIAN_POINT ( 'NONE',  ( 2.660507397442019695, 0.2999999999999999889, -0.6982484702595869175 ) ) ;
#752 = DIRECTION ( 'NONE',  ( -0.000000000000000000, -1.000000000000000000, -0.000000000000000000 ) ) ;
#753 = CARTESIAN_POINT ( 'NONE',  ( 0.9767876349873952924, 0.2999999999999999889, 0.2142099814101363353 ) ) ;
#754 = CC_DESIGN_PERSON_AND_ORGANIZATION_ASSIGNMENT ( #942, #412, ( #799 ) ) ;
#755 = ORIENTED_EDGE ( 'NONE', *, *, #321, .F. ) ;
#756 = CIRCLE ( 'NONE', #1257, 0.9999999999999991118 ) ;
#757 = AXIS2_PLACEMENT_3D ( 'NONE', #730, #1231, #810 ) ;
#758 = LINE ( 'NONE', #956, #760 ) ;
#759 = DIRECTION ( 'NONE',  ( -0.000000000000000000, -1.000000000000000000, -0.000000000000000000 ) ) ;
#760 = VECTOR ( 'NONE', #443, 100.0000000000000000 ) ;
#761 = DIRECTION ( 'NONE',  ( 0.000000000000000000, 0.000000000000000000, 1.000000000000000000 ) ) ;
#762 = ORIENTED_EDGE ( 'NONE', *, *, #686, .T. ) ;
#763 = EDGE_CURVE ( 'NONE', #1149, #626, #430, .T. ) ;
#764 = ADVANCED_FACE ( 'NONE', ( #562 ), #1059, .T. ) ;
#765 = DIRECTION ( 'NONE',  ( 0.000000000000000000, 0.000000000000000000, 1.000000000000000000 ) ) ;
#766 = DIRECTION ( 'NONE',  ( -0.000000000000000000, -1.000000000000000000, -0.000000000000000000 ) ) ;
#767 = DIRECTION ( 'NONE',  ( -0.000000000000000000, -1.000000000000000000, -0.000000000000000000 ) ) ;
#768 = VERTEX_POINT ( 'NONE', #357 ) ;
#769 = LINE ( 'NONE', #604, #1136 ) ;
#770 = DIRECTION ( 'NONE',  ( -0.000000000000000000, -1.000000000000000000, -0.000000000000000000 ) ) ;
#771 = ORIENTED_EDGE ( 'NONE', *, *, #495, .F. ) ;
#772 = DATE_TIME_ROLE ( 'creation_date' ) ;
#773 = CIRCLE ( 'NONE', #590, 1.000000000000000222 ) ;
#774 = CC_DESIGN_PERSON_AND_ORGANIZATION_ASSIGNMENT ( #782, #1182, ( #313 ) ) ;
#775 = DIRECTION ( 'NONE',  ( -0.000000000000000000, 1.000000000000000000, -0.000000000000000000 ) ) ;
#776 = EDGE_CURVE ( 'NONE', #540, #404, #268, .T. ) ;
#777 = CIRCLE ( 'NONE', #449, 1.000000000000000000 ) ;
#778 = LINE ( 'NONE', #804, #409 ) ;
#779 = CIRCLE ( 'NONE', #374, 1.000000000000000222 ) ;
#780 = VERTEX_POINT ( 'NONE', #167 ) ;
#781 = DIRECTION ( 'NONE',  ( 0.000000000000000000, 0.000000000000000000, -1.000000000000000000 ) ) ;
#782 = PERSON_AND_ORGANIZATION ( #915, #390 ) ;
#783 = CYLINDRICAL_SURFACE ( 'NONE', #78, 2.000000000000000888 ) ;
#784 = DIRECTION ( 'NONE',  ( 0.000000000000000000, 0.000000000000000000, 1.000000000000000000 ) ) ;
#785 = ORIENTED_EDGE ( 'NONE', *, *, #661, .F. ) ;
#786 = ORIENTED_EDGE ( 'NONE', *, *, #113, .F. ) ;
#787 = APPROVAL_ROLE ( '' ) ;
#788 = CARTESIAN_POINT ( 'NONE',  ( 1.372988835764731297, 0.2999999999999999889, -0.8455185727501248749 ) ) ;
#789 = CARTESIAN_POINT ( 'NONE',  ( 11.26973150986874117, 0.000000000000000000, 0.6831602537629133387 ) ) ;
#790 = CARTESIAN_POINT ( 'NONE',  ( 1.519813722848142090, 0.5999999999999999778, -1.242118976566963351 ) ) ;
#791 = EDGE_CURVE ( 'NONE', #712, #13, #970, .T. ) ;
#792 = ORIENTED_EDGE ( 'NONE', *, *, #1050, .F. ) ;
#793 = CARTESIAN_POINT ( 'NONE',  ( 0.1293749999999986022, 0.2999999999999999889, -1.343786482062901078 ) ) ;
#794 = CIRCLE ( 'NONE', #695, 0.9999999999999991118 ) ;
#795 = DIRECTION ( 'NONE',  ( 0.9953973941206709641, 0.000000000000000000, 0.09583333333333342308 ) ) ;
#796 = AXIS2_PLACEMENT_3D ( 'NONE', #522, #714, #1215 ) ;
#797 = CIRCLE ( 'NONE', #372, 2.000000000000000888 ) ;
#798 = DIRECTION ( 'NONE',  ( 0.000000000000000000, 0.000000000000000000, 1.000000000000000000 ) ) ;
#799 = SECURITY_CLASSIFICATION ( '', '', #738 ) ;
#800 = ORIENTED_EDGE ( 'NONE', *, *, #502, .T. ) ;
#801 = APPROVAL_ROLE ( '' ) ;
#802 = EDGE_CURVE ( 'NONE', #768, #189, #1155, .T. ) ;
#803 = DIRECTION ( 'NONE',  ( 0.9099560968359979851, 0.000000000000000000, -0.4147045958643282293 ) ) ;
#804 = CARTESIAN_POINT ( 'NONE',  ( 2.540889581243478190, 0.5999999999999999778, -1.413001571136311085 ) ) ;
#805 = DIRECTION ( 'NONE',  ( -0.000000000000000000, -1.000000000000000000, -0.000000000000000000 ) ) ;
#806 = ORIENTED_EDGE ( 'NONE', *, *, #661, .T. ) ;
#807 = FACE_OUTER_BOUND ( 'NONE', #383, .T. ) ;
#808 = EDGE_CURVE ( 'NONE', #488, #1, #797, .T. ) ;
#809 = EDGE_CURVE ( 'NONE', #871, #624, #411, .T. ) ;
#810 = DIRECTION ( 'NONE',  ( 0.000000000000000000, 0.000000000000000000, 1.000000000000000000 ) ) ;
#811 = ORIENTED_EDGE ( 'NONE', *, *, #460, .T. ) ;
#812 = DIRECTION ( 'NONE',  ( -0.000000000000000000, -1.000000000000000000, -0.000000000000000000 ) ) ;
#813 = VERTEX_POINT ( 'NONE', #363 ) ;
#814 = CYLINDRICAL_SURFACE ( 'NONE', #993, 0.9999999999999998890 ) ;
#815 = EDGE_CURVE ( 'NONE', #925, #598, #332, .T. ) ;
#816 = CYLINDRICAL_SURFACE ( 'NONE', #796, 0.9999999999999998890 ) ;
#817 = CIRCLE ( 'NONE', #486, 2.000000000000000888 ) ;
#818 = ORIENTED_EDGE ( 'NONE', *, *, #703, .T. ) ;
#819 = VECTOR ( 'NONE', #723, 100.0000000000000000 ) ;
#820 = CARTESIAN_POINT ( 'NONE',  ( 11.26118208470346715, 0.2999999999999999889, -0.6739051031390702606 ) ) ;
#821 = AXIS2_PLACEMENT_3D ( 'NONE', #1192, #893, #1198 ) ;
#822 = EDGE_LOOP ( 'NONE', ( #634, #152, #792, #375 ) ) ;
#823 = CIRCLE ( 'NONE', #929, 0.6500000000000000222 ) ;
#824 = APPLICATION_CONTEXT ( 'configuration controlled 3d designs of mechanical parts and assemblies' ) ;
#825 = DIRECTION ( 'NONE',  ( -0.000000000000000000, 1.000000000000000000, -0.000000000000000000 ) ) ;
#826 = CARTESIAN_POINT ( 'NONE',  ( 0.000000000000000000, 0.5999999999999999778, -0.6500000000000000222 ) ) ;
#827 = FACE_OUTER_BOUND ( 'NONE', #178, .T. ) ;
#828 = CALENDAR_DATE ( 2024, 26, 9 ) ;
#829 = EDGE_LOOP ( 'NONE', ( #895, #529, #69, #462, #1110, #1038 ) ) ;
#830 = FACE_OUTER_BOUND ( 'NONE', #1081, .T. ) ;
#831 = PRODUCT ( '¸µÅ©_ºÕ', '¸µÅ©_ºÕ', '', ( #201 ) ) ;
#832 = CARTESIAN_POINT ( 'NONE',  ( 10.52236416940693076, 0.2999999999999999889, -1.347810206278140299 ) ) ;
#833 = CARTESIAN_POINT ( 'NONE',  ( 1.519813722848142090, 0.2999999999999999889, -1.242118976566963351 ) ) ;
#834 = ORIENTED_EDGE ( 'NONE', *, *, #51, .T. ) ;
#835 = EDGE_CURVE ( 'NONE', #1279, #41, #655, .T. ) ;
#836 = LINE ( 'NONE', #1139, #1197 ) ;
#837 = EDGE_LOOP ( 'NONE', ( #310, #851, #544, #499 ) ) ;
#838 = DIRECTION ( 'NONE',  ( 0.000000000000000000, 0.000000000000000000, 1.000000000000000000 ) ) ;
#839 = DIRECTION ( 'NONE',  ( 0.000000000000000000, 1.000000000000000000, 0.000000000000000000 ) ) ;
#840 = APPROVAL_STATUS ( 'not_yet_approved' ) ;
#841 = VECTOR ( 'NONE', #163, 100.0000000000000000 ) ;
#842 = EDGE_LOOP ( 'NONE', ( #1222, #692, #185, #1009 ) ) ;
#843 = AXIS2_PLACEMENT_3D ( 'NONE', #55, #1165, #62 ) ;
#844 = VECTOR ( 'NONE', #803, 100.0000000000000000 ) ;
#845 = DIRECTION ( 'NONE',  ( 0.9953973941206709641, 0.000000000000000000, 0.09583333333333264592 ) ) ;
#846 = APPROVAL_PERSON_ORGANIZATION ( #1281, #202, #787 ) ;
#847 = EDGE_CURVE ( 'NONE', #125, #1057, #162, .T. ) ;
#848 = EDGE_LOOP ( 'NONE', ( #955, #519 ) ) ;
#849 = DIRECTION ( 'NONE',  ( -0.000000000000000000, -1.000000000000000000, 0.000000000000000000 ) ) ;
#850 = DIRECTION ( 'NONE',  ( 0.000000000000000000, 0.000000000000000000, 1.000000000000000000 ) ) ;
#851 = ORIENTED_EDGE ( 'NONE', *, *, #999, .F. ) ;
#852 = CARTESIAN_POINT ( 'NONE',  ( 12.00000000000000178, 0.000000000000000000, 0.000000000000000000 ) ) ;
#853 = EDGE_CURVE ( 'NONE', #813, #943, #1114, .T. ) ;
#854 = DIRECTION ( 'NONE',  ( 0.000000000000000000, 1.000000000000000000, 0.000000000000000000 ) ) ;
#855 = EDGE_CURVE ( 'NONE', #584, #687, #682, .T. ) ;
#856 = CARTESIAN_POINT ( 'NONE',  ( 0.000000000000000000, 0.2999999999999999889, 0.000000000000000000 ) ) ;
#857 = ORIENTED_EDGE ( 'NONE', *, *, #802, .F. ) ;
#858 = CARTESIAN_POINT ( 'NONE',  ( 12.00000000000000178, 0.5999999999999999778, 0.000000000000000000 ) ) ;
#859 = FACE_OUTER_BOUND ( 'NONE', #974, .T. ) ;
#860 = EDGE_CURVE ( 'NONE', #540, #939, #1071, .T. ) ;
#861 = LINE ( 'NONE', #73, #967 ) ;
#862 = EDGE_CURVE ( 'NONE', #584, #620, #98, .T. ) ;
#863 = VERTEX_POINT ( 'NONE', #788 ) ;
#864 = VECTOR ( 'NONE', #422, 100.0000000000000142 ) ;
#865 = AXIS2_PLACEMENT_3D ( 'NONE', #1256, #373, #761 ) ;
#866 = DIRECTION ( 'NONE',  ( -0.000000000000000000, -1.000000000000000000, -0.000000000000000000 ) ) ;
#867 = DIRECTION ( 'NONE',  ( 0.000000000000000000, 0.000000000000000000, 1.000000000000000000 ) ) ;
#868 = AXIS2_PLACEMENT_3D ( 'NONE', #1267, #1070, #397 ) ;
#869 = CARTESIAN_POINT ( 'NONE',  ( 0.000000000000000000, 0.000000000000000000, 0.000000000000000000 ) ) ;
#870 = ORIENTED_EDGE ( 'NONE', *, *, #847, .T. ) ;
#871 = VERTEX_POINT ( 'NONE', #600 ) ;
#872 = CARTESIAN_POINT ( 'NONE',  ( 0.000000000000000000, 0.000000000000000000, 0.000000000000000000 ) ) ;
#873 = DIRECTION ( 'NONE',  ( 0.9099560968359980961, 0.000000000000000000, -0.4147045958643281738 ) ) ;
#874 = DIRECTION ( 'NONE',  ( 0.000000000000000000, 1.000000000000000000, -0.000000000000000000 ) ) ;
#875 = ORIENTED_EDGE ( 'NONE', *, *, #1229, .F. ) ;
#876 = ORIENTED_EDGE ( 'NONE', *, *, #629, .T. ) ;
#877 = CYLINDRICAL_SURFACE ( 'NONE', #1033, 1.000000000000000000 ) ;
#878 = PLANE ( 'NONE',  #968 ) ;
#879 = ORIENTED_EDGE ( 'NONE', *, *, #347, .T. ) ;
#880 = ORIENTED_EDGE ( 'NONE', *, *, #802, .T. ) ;
#881 = PERSON_AND_ORGANIZATION_ROLE ( 'design_owner' ) ;
#882 = AXIS2_PLACEMENT_3D ( 'NONE', #595, #995, #781 ) ;
#883 = LINE ( 'NONE', #1274, #636 ) ;
#884 = AXIS2_PLACEMENT_3D ( 'NONE', #671, #555, #954 ) ;
#885 = CIRCLE ( 'NONE', #452, 2.000000000000000444 ) ;
#886 = CARTESIAN_POINT ( 'NONE',  ( 2.349222914576804655, 0.5999999999999999778, -1.422206782894970045 ) ) ;
#887 = AXIS2_PLACEMENT_3D ( 'NONE', #852, #362, #1041 ) ;
#888 = ORIENTED_EDGE ( 'NONE', *, *, #1037, .F. ) ;
#889 = ORIENTED_EDGE ( 'NONE', *, *, #660, .F. ) ;
#890 =( NAMED_UNIT ( * ) SI_UNIT ( $, .STERADIAN. ) SOLID_ANGLE_UNIT ( ) );
#891 = DIRECTION ( 'NONE',  ( 0.000000000000000000, 1.000000000000000000, 0.000000000000000000 ) ) ;
#892 = EDGE_CURVE ( 'NONE', #1022, #319, #187, .T. ) ;
#893 = DIRECTION ( 'NONE',  ( 0.000000000000000000, 1.000000000000000000, 0.000000000000000000 ) ) ;
#894 = DIRECTION ( 'NONE',  ( 0.000000000000000000, 1.000000000000000000, -0.000000000000000000 ) ) ;
#895 = ORIENTED_EDGE ( 'NONE', *, *, #686, .F. ) ;
#896 =( NAMED_UNIT ( * ) PLANE_ANGLE_UNIT ( ) SI_UNIT ( $, .RADIAN. ) );
#897 = DIRECTION ( 'NONE',  ( 0.000000000000000000, 0.000000000000000000, -1.000000000000000000 ) ) ;
#898 = CYLINDRICAL_SURFACE ( 'NONE', #1216, 0.9999999999999998890 ) ;
#899 = CARTESIAN_POINT ( 'NONE',  ( 0.000000000000000000, 0.000000000000000000, 0.000000000000000000 ) ) ;
#900 = ADVANCED_FACE ( 'NONE', ( #283 ), #589, .F. ) ;
#901 = EDGE_LOOP ( 'NONE', ( #667, #870, #141, #1101 ) ) ;
#902 = DIRECTION ( 'NONE',  ( 0.000000000000000000, 1.000000000000000000, 0.000000000000000000 ) ) ;
#903 = AXIS2_PLACEMENT_3D ( 'NONE', #1170, #874, #850 ) ;
#904 = CARTESIAN_POINT ( 'NONE',  ( 0.08294091917286566806, 0.2999999999999999889, 0.1819912193671996692 ) ) ;
#905 = VECTOR ( 'NONE', #611, 100.0000000000000000 ) ;
#906 = AXIS2_PLACEMENT_3D ( 'NONE', #748, #854, #867 ) ;
#907 = ORIENTED_EDGE ( 'NONE', *, *, #808, .F. ) ;
#908 = LOCAL_TIME ( 23, 18, 34.00000000000000000, #478 ) ;
#909 = ORIENTED_EDGE ( 'NONE', *, *, #1217, .T. ) ;
#910 = CYLINDRICAL_SURFACE ( 'NONE', #1175, 0.9999999999999998890 ) ;
#911 = CARTESIAN_POINT ( 'NONE',  ( 0.2908509371555187961, 0.2999999999999999889, -0.9567683796801375040 ) ) ;
#912 = VERTEX_POINT ( 'NONE', #1184 ) ;
#913 = VERTEX_POINT ( 'NONE', #1168 ) ;
#914 = EDGE_LOOP ( 'NONE', ( #354, #1245, #800, #1027 ) ) ;
#915 = PERSON ( 'UNSPECIFIED', 'UNSPECIFIED', 'UNSPECIFIED', ('UNSPECIFIED'), ('UNSPECIFIED'), ('UNSPECIFIED') ) ;
#916 = DIRECTION ( 'NONE',  ( -0.000000000000000000, -1.000000000000000000, -0.000000000000000000 ) ) ;
#917 = EDGE_CURVE ( 'NONE', #574, #720, #1052, .T. ) ;
#918 = CARTESIAN_POINT ( 'NONE',  ( 10.38819750274026532, 0.2999999999999999889, 0.04574614549080428111 ) ) ;
#919 = ORIENTED_EDGE ( 'NONE', *, *, #145, .F. ) ;
#920 = CARTESIAN_POINT ( 'NONE',  ( 11.09004390316400190, 0.000000000000000000, 0.4147045958643266750 ) ) ;
#921 = ORIENTED_EDGE ( 'NONE', *, *, #1037, .T. ) ;
#922 = DIRECTION ( 'NONE',  ( -0.000000000000000000, -1.000000000000000000, -0.000000000000000000 ) ) ;
#923 = LINE ( 'NONE', #35, #905 ) ;
#924 = CIRCLE ( 'NONE', #1195, 1.000000000000000222 ) ;
#925 = VERTEX_POINT ( 'NONE', #581 ) ;
#926 = CIRCLE ( 'NONE', #175, 0.6500000000000000222 ) ;
#927 = DIRECTION ( 'NONE',  ( 0.000000000000000000, 1.000000000000000000, 0.000000000000000000 ) ) ;
#928 = APPROVAL_DATE_TIME ( #40, #302 ) ;
#929 = AXIS2_PLACEMENT_3D ( 'NONE', #938, #438, #224 ) ;
#930 = VERTEX_POINT ( 'NONE', #180 ) ;
#931 = VECTOR ( 'NONE', #668, 100.0000000000000000 ) ;
#932 = CARTESIAN_POINT ( 'NONE',  ( 0.2908509371555188516, 0.5999999999999999778, -0.9567683796801377261 ) ) ;
#933 = CARTESIAN_POINT ( 'NONE',  ( 11.14618208470346694, 0.2999999999999999889, 0.5205717698057377163 ) ) ;
#934 = ADVANCED_FACE ( 'NONE', ( #506 ), #877, .F. ) ;
#935 = FACE_OUTER_BOUND ( 'NONE', #276, .T. ) ;
#936 = DATE_AND_TIME ( #360, #271 ) ;
#937 = ORIENTED_EDGE ( 'NONE', *, *, #1177, .F. ) ;
#938 = CARTESIAN_POINT ( 'NONE',  ( 12.00000000000000178, 0.000000000000000000, 0.000000000000000000 ) ) ;
#939 = VERTEX_POINT ( 'NONE', #211 ) ;
#940 = CARTESIAN_POINT ( 'NONE',  ( 2.349222914576804655, 0.000000000000000000, 0.5777932171050300658 ) ) ;
#941 = DIRECTION ( 'NONE',  ( 0.000000000000000000, 1.000000000000000000, -0.000000000000000000 ) ) ;
#942 = PERSON_AND_ORGANIZATION ( #915, #390 ) ;
#943 = VERTEX_POINT ( 'NONE', #704 ) ;
#944 = FACE_OUTER_BOUND ( 'NONE', #277, .T. ) ;
#945 = ORIENTED_EDGE ( 'NONE', *, *, #442, .F. ) ;
#946 = DIRECTION ( 'NONE',  ( 0.000000000000000000, 0.000000000000000000, 1.000000000000000000 ) ) ;
#947 = CARTESIAN_POINT ( 'NONE',  ( 0.000000000000000000, 0.5999999999999999778, 0.000000000000000000 ) ) ;
#948 = AXIS2_PLACEMENT_3D ( 'NONE', #461, #965, #465 ) ;
#949 = EDGE_LOOP ( 'NONE', ( #498, #340, #445, #746, #1133, #119 ) ) ;
#950 = VECTOR ( 'NONE', #977, 100.0000000000000000 ) ;
#951 = ADVANCED_FACE ( 'NONE', ( #1092 ), #205, .F. ) ;
#952 = LINE ( 'NONE', #1242, #1282 ) ;
#953 = FACE_OUTER_BOUND ( 'NONE', #1034, .T. ) ;
#954 = DIRECTION ( 'NONE',  ( 0.000000000000000000, 0.000000000000000000, 1.000000000000000000 ) ) ;
#955 = ORIENTED_EDGE ( 'NONE', *, *, #314, .T. ) ;
#956 = CARTESIAN_POINT ( 'NONE',  ( 10.63529635307081556, 0.5999999999999999778, 0.3709231134051569345 ) ) ;
#957 = EDGE_CURVE ( 'NONE', #586, #102, #311, .T. ) ;
#958 = CARTESIAN_POINT ( 'NONE',  ( 7.960204194457796709E-17, 0.5999999999999999778, 0.6500000000000000222 ) ) ;
#959 = EDGE_CURVE ( 'NONE', #1007, #1154, #883, .T. ) ;
#960 = CARTESIAN_POINT ( 'NONE',  ( 2.540889581243478190, 0.000000000000000000, -1.413001571136311085 ) ) ;
#961 = ORIENTED_EDGE ( 'NONE', *, *, #510, .F. ) ;
#962 = DIRECTION ( 'NONE',  ( 0.000000000000000000, 1.000000000000000000, 0.000000000000000000 ) ) ;
#963 = DIRECTION ( 'NONE',  ( -0.000000000000000000, -1.000000000000000000, 0.000000000000000000 ) ) ;
#964 = ADVANCED_FACE ( 'NONE', ( #576 ), #783, .F. ) ;
#965 = DIRECTION ( 'NONE',  ( 0.000000000000000000, 1.000000000000000000, 0.000000000000000000 ) ) ;
#966 = ORIENTED_EDGE ( 'NONE', *, *, #1088, .T. ) ;
#967 = VECTOR ( 'NONE', #972, 100.0000000000000000 ) ;
#968 = AXIS2_PLACEMENT_3D ( 'NONE', #1080, #705, #795 ) ;
#969 =( LENGTH_UNIT ( ) NAMED_UNIT ( * ) SI_UNIT ( .CENTI., .METRE. ) );
#970 = LINE ( 'NONE', #1144, #1260 ) ;
#971 = APPROVAL_PERSON_ORGANIZATION ( #1147, #302, #801 ) ;
#972 = DIRECTION ( 'NONE',  ( 0.000000000000000000, 1.000000000000000000, 0.000000000000000000 ) ) ;
#973 = ORIENTED_EDGE ( 'NONE', *, *, #294, .T. ) ;
#974 = EDGE_LOOP ( 'NONE', ( #834, #716, #1233, #83, #1181, #21, #389, #324, #1076, #447, #303, #31, #1109 ) ) ;
#975 = PERSON_AND_ORGANIZATION_ROLE ( 'creator' ) ;
#976 = LINE ( 'NONE', #793, #513 ) ;
#977 = DIRECTION ( 'NONE',  ( -0.000000000000000000, -1.000000000000000000, -0.000000000000000000 ) ) ;
#978 = ORIENTED_EDGE ( 'NONE', *, *, #121, .F. ) ;
#979 = EDGE_CURVE ( 'NONE', #257, #720, #769, .T. ) ;
#980 = COORDINATED_UNIVERSAL_TIME_OFFSET ( 9, 0, .AHEAD. ) ;
#981 = APPLICATION_CONTEXT ( 'configuration controlled 3d designs of mechanical parts and assemblies' ) ;
#982 = CARTESIAN_POINT ( 'NONE',  ( 12.00000000000000178, 0.000000000000000000, 0.000000000000000000 ) ) ;
#983 = CARTESIAN_POINT ( 'NONE',  ( 0.000000000000000000, 0.000000000000000000, -0.6500000000000000222 ) ) ;
#984 = CARTESIAN_POINT ( 'NONE',  ( 12.00000000000000178, 0.000000000000000000, 0.000000000000000000 ) ) ;
#985 = VERTEX_POINT ( 'NONE', #405 ) ;
#986 = VECTOR ( 'NONE', #646, 100.0000000000000000 ) ;
#987 = EDGE_CURVE ( 'NONE', #1206, #517, #976, .T. ) ;
#988 = VECTOR ( 'NONE', #1094, 100.0000000000000000 ) ;
#989 = CARTESIAN_POINT ( 'NONE',  ( 2.468840730775344827, 0.2999999999999999889, 1.292546317981754456 ) ) ;
#990 = AXIS2_PLACEMENT_3D ( 'NONE', #320, #825, #234 ) ;
#991 = AXIS2_PLACEMENT_3D ( 'NONE', #1084, #891, #1079 ) ;
#992 = DIRECTION ( 'NONE',  ( 0.4147045958643281183, -0.000000000000000000, 0.9099560968359980961 ) ) ;
#993 = AXIS2_PLACEMENT_3D ( 'NONE', #1213, #922, #331 ) ;
#994 = ORIENTED_EDGE ( 'NONE', *, *, #12, .F. ) ;
#995 = DIRECTION ( 'NONE',  ( -0.000000000000000000, -1.000000000000000000, -0.000000000000000000 ) ) ;
#996 = ORIENTED_EDGE ( 'NONE', *, *, #66, .T. ) ;
#997 = DIRECTION ( 'NONE',  ( 0.000000000000000000, 1.000000000000000000, 0.000000000000000000 ) ) ;
#998 = DIRECTION ( 'NONE',  ( 0.000000000000000000, 0.000000000000000000, 1.000000000000000000 ) ) ;
#999 = EDGE_CURVE ( 'NONE', #1206, #930, #479, .T. ) ;
#1000 = ADVANCED_FACE ( 'NONE', ( #109 ), #292, .F. ) ;
#1001 = DIRECTION ( 'NONE',  ( -0.000000000000000000, -1.000000000000000000, -0.000000000000000000 ) ) ;
#1002 = ORIENTED_EDGE ( 'NONE', *, *, #144, .F. ) ;
#1003 = ORIENTED_EDGE ( 'NONE', *, *, #270, .F. ) ;
#1004 = COORDINATED_UNIVERSAL_TIME_OFFSET ( 9, 0, .AHEAD. ) ;
#1005 = CARTESIAN_POINT ( 'NONE',  ( 2.520105509146162159, 0.5999999999999999778, 1.598869075500344739 ) ) ;
#1006 = CARTESIAN_POINT ( 'NONE',  ( 2.349222914576804655, 0.2999999999999999889, 0.5777932171050300658 ) ) ;
#1007 = VERTEX_POINT ( 'NONE', #336 ) ;
#1008 = ORIENTED_EDGE ( 'NONE', *, *, #835, .F. ) ;
#1009 = ORIENTED_EDGE ( 'NONE', *, *, #1188, .F. ) ;
#1010 = FACE_BOUND ( 'NONE', #416, .T. ) ;
#1011 = AXIS2_PLACEMENT_3D ( 'NONE', #984, #190, #93 ) ;
#1012 = DIRECTION ( 'NONE',  ( 0.000000000000000000, 0.000000000000000000, 1.000000000000000000 ) ) ;
#1013 = VECTOR ( 'NONE', #67, 100.0000000000000000 ) ;
#1014 = DIRECTION ( 'NONE',  ( 0.000000000000000000, 1.000000000000000000, 0.000000000000000000 ) ) ;
#1015 = EDGE_CURVE ( 'NONE', #1, #261, #289, .T. ) ;
#1016 = LOCAL_TIME ( 23, 18, 34.00000000000000000, #732 ) ;
#1017 = VERTEX_POINT ( 'NONE', #32 ) ;
#1018 = DIRECTION ( 'NONE',  ( 0.000000000000000000, -0.000000000000000000, 1.000000000000000000 ) ) ;
#1019 = LINE ( 'NONE', #342, #198 ) ;
#1020 = VERTEX_POINT ( 'NONE', #1130 ) ;
#1021 = CARTESIAN_POINT ( 'NONE',  ( 1.538870674110462522, 0.2999999999999999889, -0.4815361340157253700 ) ) ;
#1022 = VERTEX_POINT ( 'NONE', #515 ) ;
#1023 = CYLINDRICAL_SURFACE ( 'NONE', #59, 2.000000000000000888 ) ;
#1024 = CARTESIAN_POINT ( 'NONE',  ( 10.38819750274026532, 0.5999999999999999778, 0.04574614549080428111 ) ) ;
#1025 = ORIENTED_EDGE ( 'NONE', *, *, #51, .F. ) ;
#1026 = LINE ( 'NONE', #50, #1048 ) ;
#1027 = ORIENTED_EDGE ( 'NONE', *, *, #230, .T. ) ;
#1028 = LINE ( 'NONE', #217, #844 ) ;
#1029 = CARTESIAN_POINT ( 'NONE',  ( 12.00000000000000178, 0.5999999999999999778, -0.6500000000000000222 ) ) ;
#1030 = CIRCLE ( 'NONE', #286, 0.9999999999999998890 ) ;
#1031 = VECTOR ( 'NONE', #326, 100.0000000000000000 ) ;
#1032 = CARTESIAN_POINT ( 'NONE',  ( 2.349222914576804655, 0.000000000000000000, 0.5777932171050300658 ) ) ;
#1033 = AXIS2_PLACEMENT_3D ( 'NONE', #104, #694, #897 ) ;
#1034 = EDGE_LOOP ( 'NONE', ( #1137, #603, #651, #1161 ) ) ;
#1035 = FACE_OUTER_BOUND ( 'NONE', #837, .T. ) ;
#1036 = DIRECTION ( 'NONE',  ( 0.000000000000000000, 1.000000000000000000, -0.000000000000000000 ) ) ;
#1037 = EDGE_CURVE ( 'NONE', #687, #608, #823, .T. ) ;
#1038 = ORIENTED_EDGE ( 'NONE', *, *, #860, .T. ) ;
#1039 = CARTESIAN_POINT ( 'NONE',  ( 12.00000000000000178, 0.5999999999999999778, 0.000000000000000000 ) ) ;
#1040 = VERTEX_POINT ( 'NONE', #622 ) ;
#1041 = DIRECTION ( 'NONE',  ( 0.000000000000000000, 0.000000000000000000, 1.000000000000000000 ) ) ;
#1042 = CARTESIAN_POINT ( 'NONE',  ( 0.9767876349873952924, 0.5999999999999999778, 0.2142099814101363353 ) ) ;
#1043 = DIRECTION ( 'NONE',  ( -0.000000000000000000, -1.000000000000000000, -0.000000000000000000 ) ) ;
#1044 = ORIENTED_EDGE ( 'NONE', *, *, #231, .T. ) ;
#1045 = DIRECTION ( 'NONE',  ( 0.9099560968359979851, 0.000000000000000000, -0.4147045958643281738 ) ) ;
#1046 = DIRECTION ( 'NONE',  ( 0.000000000000000000, 1.000000000000000000, 0.000000000000000000 ) ) ;
#1047 = FACE_OUTER_BOUND ( 'NONE', #423, .T. ) ;
#1048 = VECTOR ( 'NONE', #446, 99.99999999999998579 ) ;
#1049 = ORIENTED_EDGE ( 'NONE', *, *, #1218, .F. ) ;
#1050 = EDGE_CURVE ( 'NONE', #238, #680, #1204, .T. ) ;
#1051 = AXIS2_PLACEMENT_3D ( 'NONE', #1006, #206, #577 ) ;
#1052 = CIRCLE ( 'NONE', #117, 0.9999999999999998890 ) ;
#1053 = ADVANCED_FACE ( 'NONE', ( #1035 ), #142, .T. ) ;
#1054 = CARTESIAN_POINT ( 'NONE',  ( 0.4791421199502013395, 0.2999999999999999889, -0.8777373347930614855 ) ) ;
#1055 = CARTESIAN_POINT ( 'NONE',  ( 0.08294091917286566806, 0.5999999999999999778, 0.1819912193671996692 ) ) ;
#1056 = FACE_OUTER_BOUND ( 'NONE', #842, .T. ) ;
#1057 = VERTEX_POINT ( 'NONE', #431 ) ;
#1058 = DIRECTION ( 'NONE',  ( -0.9953973941206709641, 0.000000000000000000, -0.09583333333333313164 ) ) ;
#1059 = CYLINDRICAL_SURFACE ( 'NONE', #677, 0.9999999999999991118 ) ;
#1060 = LINE ( 'NONE', #1152, #407 ) ;
#1061 = ORIENTED_EDGE ( 'NONE', *, *, #183, .T. ) ;
#1062 = DIRECTION ( 'NONE',  ( -0.000000000000000000, 1.000000000000000000, -0.000000000000000000 ) ) ;
#1063 = EDGE_CURVE ( 'NONE', #640, #170, #885, .T. ) ;
#1064 = DIRECTION ( 'NONE',  ( 0.000000000000000000, 0.000000000000000000, -1.000000000000000000 ) ) ;
#1065 = ADVANCED_FACE ( 'NONE', ( #538 ), #729, .F. ) ;
#1066 = DIRECTION ( 'NONE',  ( 0.000000000000000000, 0.000000000000000000, -1.000000000000000000 ) ) ;
#1067 = ORIENTED_EDGE ( 'NONE', *, *, #1074, .T. ) ;
#1068 = CIRCLE ( 'NONE', #948, 0.6500000000000000222 ) ;
#1069 = AXIS2_PLACEMENT_3D ( 'NONE', #507, #992, #110 ) ;
#1070 = DIRECTION ( 'NONE',  ( 0.000000000000000000, 0.000000000000000000, 1.000000000000000000 ) ) ;
#1071 = CIRCLE ( 'NONE', #249, 0.9999999999999991118 ) ;
#1072 = DIRECTION ( 'NONE',  ( -0.000000000000000000, -1.000000000000000000, -0.000000000000000000 ) ) ;
#1073 = LINE ( 'NONE', #564, #841 ) ;
#1074 = EDGE_CURVE ( 'NONE', #863, #1007, #1028, .T. ) ;
#1075 = VERTEX_POINT ( 'NONE', #1125 ) ;
#1076 = ORIENTED_EDGE ( 'NONE', *, *, #458, .F. ) ;
#1077 = APPROVAL_ROLE ( '' ) ;
#1078 = DESIGN_CONTEXT ( 'detailed design', #981, 'design' ) ;
#1079 = DIRECTION ( 'NONE',  ( 0.000000000000000000, 0.000000000000000000, 1.000000000000000000 ) ) ;
#1080 = CARTESIAN_POINT ( 'NONE',  ( 0.09104166666666657637, 0.2999999999999999889, -0.9456275244146353787 ) ) ;
#1081 = EDGE_LOOP ( 'NONE', ( #708, #503, #857, #994 ) ) ;
#1082 = ADVANCED_FACE ( 'NONE', ( #240 ), #910, .T. ) ;
#1083 = DIRECTION ( 'NONE',  ( 0.000000000000000000, 0.000000000000000000, 1.000000000000000000 ) ) ;
#1084 = CARTESIAN_POINT ( 'NONE',  ( 12.00000000000000178, 0.5999999999999999778, 0.000000000000000000 ) ) ;
#1085 = DIRECTION ( 'NONE',  ( 0.000000000000000000, 0.000000000000000000, -1.000000000000000000 ) ) ;
#1086 = EDGE_LOOP ( 'NONE', ( #785, #659 ) ) ;
#1087 = CARTESIAN_POINT ( 'NONE',  ( 10.73112968640414699, 0.000000000000000000, -0.6244742807155132525 ) ) ;
#1088 = EDGE_CURVE ( 'NONE', #598, #871, #610, .T. ) ;
#1089 = ORIENTED_EDGE ( 'NONE', *, *, #808, .T. ) ;
#1090 = VECTOR ( 'NONE', #1128, 100.0000000000000142 ) ;
#1091 = ADVANCED_FACE ( 'NONE', ( #830 ), #341, .F. ) ;
#1092 = FACE_OUTER_BOUND ( 'NONE', #1127, .T. ) ;
#1093 = AXIS2_PLACEMENT_3D ( 'NONE', #1005, #1072, #675 ) ;
#1094 = DIRECTION ( 'NONE',  ( 0.000000000000000000, 1.000000000000000000, 0.000000000000000000 ) ) ;
#1095 = ORIENTED_EDGE ( 'NONE', *, *, #1074, .F. ) ;
#1096 = DIRECTION ( 'NONE',  ( -0.000000000000000000, -1.000000000000000000, 0.000000000000000000 ) ) ;
#1097 = ORIENTED_EDGE ( 'NONE', *, *, #239, .T. ) ;
#1098 = DIRECTION ( 'NONE',  ( -0.000000000000000000, -1.000000000000000000, -0.000000000000000000 ) ) ;
#1099 = ADVANCED_FACE ( 'NONE', ( #1010, #116, #807 ), #1208, .T. ) ;
#1100 = CARTESIAN_POINT ( 'NONE',  ( 1.690696317417499817, 0.000000000000000000, -0.2210431181716490112 ) ) ;
#1101 = ORIENTED_EDGE ( 'NONE', *, *, #588, .F. ) ;
#1102 = LINE ( 'NONE', #711, #1278 ) ;
#1103 = ORIENTED_EDGE ( 'NONE', *, *, #917, .F. ) ;
#1104 = DATE_TIME_ROLE ( 'classification_date' ) ;
#1105 = DIRECTION ( 'NONE',  ( 0.000000000000000000, 1.000000000000000000, -0.000000000000000000 ) ) ;
#1106 = APPROVAL ( #291, 'UNSPECIFIED' ) ;
#1107 = ADVANCED_FACE ( 'NONE', ( #123 ), #1023, .F. ) ;
#1108 = FACE_OUTER_BOUND ( 'NONE', #1270, .T. ) ;
#1109 = ORIENTED_EDGE ( 'NONE', *, *, #763, .T. ) ;
#1110 = ORIENTED_EDGE ( 'NONE', *, *, #168, .T. ) ;
#1111 = ORIENTED_EDGE ( 'NONE', *, *, #645, .T. ) ;
#1112 = CARTESIAN_POINT ( 'NONE',  ( 0.000000000000000000, 0.5999999999999999778, 0.000000000000000000 ) ) ;
#1113 = CYLINDRICAL_SURFACE ( 'NONE', #223, 0.6500000000000000222 ) ;
#1114 = CIRCLE ( 'NONE', #351, 1.000000000000000000 ) ;
#1115 = ORIENTED_EDGE ( 'NONE', *, *, #809, .F. ) ;
#1116 = DIRECTION ( 'NONE',  ( 0.000000000000000000, 0.000000000000000000, 1.000000000000000000 ) ) ;
#1117 = LOCAL_TIME ( 23, 18, 34.00000000000000000, #980 ) ;
#1118 = ORIENTED_EDGE ( 'NONE', *, *, #860, .F. ) ;
#1119 = DIRECTION ( 'NONE',  ( 0.000000000000000000, 0.000000000000000000, -1.000000000000000000 ) ) ;
#1120 = DIRECTION ( 'NONE',  ( 0.000000000000000000, 0.000000000000000000, 1.000000000000000000 ) ) ;
#1121 = MANIFOLD_SOLID_BREP ( 'ÇÊ·¿2', #155 ) ;
#1122 = VERTEX_POINT ( 'NONE', #424 ) ;
#1123 = DIRECTION ( 'NONE',  ( 0.9099560968359980961, 0.000000000000000000, -0.4147045958643279517 ) ) ;
#1124 = ORIENTED_EDGE ( 'NONE', *, *, #1148, .F. ) ;
#1125 = CARTESIAN_POINT ( 'NONE',  ( 1.639431539046683151, 0.2999999999999999889, -0.5273658756902391831 ) ) ;
#1126 = LINE ( 'NONE', #381, #569 ) ;
#1127 = EDGE_LOOP ( 'NONE', ( #1124, #410, #317, #875 ) ) ;
#1128 = DIRECTION ( 'NONE',  ( 0.9953973941206707421, -0.000000000000000000, 0.09583333333333389492 ) ) ;
#1129 = EDGE_LOOP ( 'NONE', ( #103, #876, #937, #1180, #401, #542, #594, #733, #408, #755, #367, #1067, #38 ) ) ;
#1130 = CARTESIAN_POINT ( 'NONE',  ( 11.41348150986878451, 0.000000000000000000, -0.8099358374181226949 ) ) ;
#1131 = ADVANCED_FACE ( 'NONE', ( #525 ), #814, .T. ) ;
#1132 = PLANE ( 'NONE',  #330 ) ;
#1133 = ORIENTED_EDGE ( 'NONE', *, *, #1177, .T. ) ;
#1134 = AXIS2_PLACEMENT_3D ( 'NONE', #526, #333, #623 ) ;
#1135 = LINE ( 'NONE', #251, #92 ) ;
#1136 = VECTOR ( 'NONE', #902, 100.0000000000000000 ) ;
#1137 = ORIENTED_EDGE ( 'NONE', *, *, #1063, .F. ) ;
#1138 = AXIS2_PLACEMENT_3D ( 'NONE', #557, #648, #1045 ) ;
#1139 = CARTESIAN_POINT ( 'NONE',  ( 1.690696317417499817, 0.5999999999999999778, -0.2210431181716490112 ) ) ;
#1140 = DIRECTION ( 'NONE',  ( 0.000000000000000000, 0.000000000000000000, 1.000000000000000000 ) ) ;
#1141 = CARTESIAN_POINT ( 'NONE',  ( 11.26973150986874117, 0.5999999999999999778, 0.6831602537629136718 ) ) ;
#1142 = VERTEX_POINT ( 'NONE', #355 ) ;
#1143 = CARTESIAN_POINT ( 'NONE',  ( -0.08294091917286568194, 0.5999999999999999778, -0.1819912193671996692 ) ) ;
#1144 = CARTESIAN_POINT ( 'NONE',  ( 10.73112968640414699, 0.5999999999999999778, -0.6244742807155132525 ) ) ;
#1145 = EDGE_CURVE ( 'NONE', #44, #216, #952, .T. ) ;
#1146 = FACE_OUTER_BOUND ( 'NONE', #195, .T. ) ;
#1147 = PERSON_AND_ORGANIZATION ( #915, #390 ) ;
#1148 = EDGE_CURVE ( 'NONE', #1022, #1017, #346, .T. ) ;
#1149 = VERTEX_POINT ( 'NONE', #273 ) ;
#1150 = FACE_OUTER_BOUND ( 'NONE', #1207, .T. ) ;
#1151 = DIRECTION ( 'NONE',  ( 0.000000000000000000, 0.000000000000000000, 1.000000000000000000 ) ) ;
#1152 = CARTESIAN_POINT ( 'NONE',  ( 1.224646799147352961E-16, 0.5999999999999999778, 0.9999999999999998890 ) ) ;
#1153 = AXIS2_PLACEMENT_3D ( 'NONE', #112, #805, #120 ) ;
#1154 = VERTEX_POINT ( 'NONE', #1157 ) ;
#1155 = CIRCLE ( 'NONE', #177, 1.000000000000000000 ) ;
#1156 = VECTOR ( 'NONE', #1249, 100.0000000000000142 ) ;
#1157 = CARTESIAN_POINT ( 'NONE',  ( 1.571078501218942103, 0.5999999999999999778, -0.9357962190483662956 ) ) ;
#1158 = AXIS2_PLACEMENT_3D ( 'NONE', #872, #997, #1083 ) ;
#1159 = DIRECTION ( 'NONE',  ( -0.000000000000000000, -1.000000000000000000, 0.000000000000000000 ) ) ;
#1160 = FACE_BOUND ( 'NONE', #848, .T. ) ;
#1161 = ORIENTED_EDGE ( 'NONE', *, *, #46, .F. ) ;
#1162 = CC_DESIGN_DATE_AND_TIME_ASSIGNMENT ( #385, #772, ( #483 ) ) ;
#1163 = EDGE_CURVE ( 'NONE', #768, #1154, #747, .T. ) ;
#1164 = DIRECTION ( 'NONE',  ( 0.000000000000000000, 0.000000000000000000, 1.000000000000000000 ) ) ;
#1165 = DIRECTION ( 'NONE',  ( 0.000000000000000000, 1.000000000000000000, -0.000000000000000000 ) ) ;
#1166 = CARTESIAN_POINT ( 'NONE',  ( 1.411111066039693718, 0.000000000000000000, -0.09362456568827966230 ) ) ;
#1167 = ORIENTED_EDGE ( 'NONE', *, *, #1218, .T. ) ;
#1168 = CARTESIAN_POINT ( 'NONE',  ( 11.14618208470346694, 0.5999999999999999778, 0.5205717698057379383 ) ) ;
#1169 = EDGE_CURVE ( 'NONE', #913, #560, #657, .T. ) ;
#1170 = CARTESIAN_POINT ( 'NONE',  ( 2.400487692947605112, 0.5999999999999999778, 0.8841159746236264549 ) ) ;
#1171 = ORIENTED_EDGE ( 'NONE', *, *, #128, .F. ) ;
#1172 = ORIENTED_EDGE ( 'NONE', *, *, #1266, .T. ) ;
#1173 = AXIS2_PLACEMENT_3D ( 'NONE', #86, #1001, #1085 ) ;
#1174 = PERSON_AND_ORGANIZATION ( #915, #390 ) ;
#1175 = AXIS2_PLACEMENT_3D ( 'NONE', #532, #628, #135 ) ;
#1176 = CARTESIAN_POINT ( 'NONE',  ( 1.411111066039693718, 0.5999999999999999778, -0.09362456568827960679 ) ) ;
#1177 = EDGE_CURVE ( 'NONE', #497, #199, #1241, .T. ) ;
#1178 = EDGE_CURVE ( 'NONE', #1248, #238, #253, .T. ) ;
#1179 = CARTESIAN_POINT ( 'NONE',  ( 11.26118208470346715, 0.5999999999999999778, -0.6739051031390702606 ) ) ;
#1180 = ORIENTED_EDGE ( 'NONE', *, *, #364, .T. ) ;
#1181 = ORIENTED_EDGE ( 'NONE', *, *, #1227, .F. ) ;
#1182 = PERSON_AND_ORGANIZATION_ROLE ( 'creator' ) ;
#1183 = UNCERTAINTY_MEASURE_WITH_UNIT (LENGTH_MEASURE( 1.000000000000000082E-05 ), #969, 'distance_accuracy_value', 'NONE');
#1184 = CARTESIAN_POINT ( 'NONE',  ( 0.9129078309519887968, 0.000000000000000000, 0.4081657655739083790 ) ) ;
#1185 = PLANE ( 'NONE',  #1069 ) ;
#1186 = ADVANCED_FACE ( 'NONE', ( #368 ), #258, .F. ) ;
#1187 = CARTESIAN_POINT ( 'NONE',  ( 1.372988835764730631, 0.5999999999999999778, -0.8455185727501245418 ) ) ;
#1188 = EDGE_CURVE ( 'NONE', #404, #813, #758, .T. ) ;
#1189 = ORIENTED_EDGE ( 'NONE', *, *, #75, .T. ) ;
#1190 = DATE_AND_TIME ( #688, #1221 ) ;
#1191 = CARTESIAN_POINT ( 'NONE',  ( 0.000000000000000000, 0.5999999999999999778, 0.000000000000000000 ) ) ;
#1192 = CARTESIAN_POINT ( 'NONE',  ( 0.000000000000000000, 0.000000000000000000, 0.000000000000000000 ) ) ;
#1193 = DIRECTION ( 'NONE',  ( -0.000000000000000000, -1.000000000000000000, -0.000000000000000000 ) ) ;
#1194 = ORIENTED_EDGE ( 'NONE', *, *, #660, .T. ) ;
#1195 = AXIS2_PLACEMENT_3D ( 'NONE', #338, #30, #718 ) ;
#1196 = CARTESIAN_POINT ( 'NONE',  ( 2.592154359614277315, 0.2999999999999999889, -1.106678813617714585 ) ) ;
#1197 = VECTOR ( 'NONE', #866, 100.0000000000000000 ) ;
#1198 = DIRECTION ( 'NONE',  ( 0.000000000000000000, 0.000000000000000000, 1.000000000000000000 ) ) ;
#1199 = ORIENTED_EDGE ( 'NONE', *, *, #255, .F. ) ;
#1200 = CARTESIAN_POINT ( 'NONE',  ( 12.00000000000000178, 0.2999999999999999889, 0.000000000000000000 ) ) ;
#1201 = ORIENTED_EDGE ( 'NONE', *, *, #1203, .F. ) ;
#1202 = SHAPE_DEFINITION_REPRESENTATION ( #530, #666 ) ;
#1203 = EDGE_CURVE ( 'NONE', #712, #1142, #153, .T. ) ;
#1204 = LINE ( 'NONE', #1223, #158 ) ;
#1205 = FACE_OUTER_BOUND ( 'NONE', #1129, .T. ) ;
#1206 = VERTEX_POINT ( 'NONE', #561 ) ;
#1207 = EDGE_LOOP ( 'NONE', ( #509, #219, #1228, #176 ) ) ;
#1208 = PLANE ( 'NONE',  #17 ) ;
#1209 = CARTESIAN_POINT ( 'NONE',  ( 2.349222914576804655, 0.2999999999999999889, -1.422206782894970045 ) ) ;
#1210 = EDGE_LOOP ( 'NONE', ( #1201, #236, #565, #343 ) ) ;
#1211 = CARTESIAN_POINT ( 'NONE',  ( 0.000000000000000000, 0.5999999999999999778, 0.000000000000000000 ) ) ;
#1212 = ORIENTED_EDGE ( 'NONE', *, *, #1229, .T. ) ;
#1213 = CARTESIAN_POINT ( 'NONE',  ( 0.000000000000000000, 0.5999999999999999778, 0.000000000000000000 ) ) ;
#1214 = VECTOR ( 'NONE', #256, 100.0000000000000000 ) ;
#1215 = DIRECTION ( 'NONE',  ( 0.000000000000000000, 0.000000000000000000, -1.000000000000000000 ) ) ;
#1216 = AXIS2_PLACEMENT_3D ( 'NONE', #194, #293, #101 ) ;
#1217 = EDGE_CURVE ( 'NONE', #985, #574, #139, .T. ) ;
#1218 = EDGE_CURVE ( 'NONE', #620, #608, #456, .T. ) ;
#1219 = AXIS2_PLACEMENT_3D ( 'NONE', #80, #1159, #264 ) ;
#1220 = CARTESIAN_POINT ( 'NONE',  ( 10.38819750274026532, 0.2999999999999999889, 0.04574614549080428111 ) ) ;
#1221 = LOCAL_TIME ( 23, 18, 34.00000000000000000, #673 ) ;
#1222 = ORIENTED_EDGE ( 'NONE', *, *, #776, .F. ) ;
#1223 = CARTESIAN_POINT ( 'NONE',  ( 0.09104166666666657637, 0.5999999999999999778, -0.9456275244146353787 ) ) ;
#1224 = CARTESIAN_POINT ( 'NONE',  ( 0.000000000000000000, 0.2999999999999999889, 0.000000000000000000 ) ) ;
#1225 = ORIENTED_EDGE ( 'NONE', *, *, #458, .T. ) ;
#1226 = DIRECTION ( 'NONE',  ( 0.000000000000000000, 0.000000000000000000, 1.000000000000000000 ) ) ;
#1227 = EDGE_CURVE ( 'NONE', #1248, #102, #566, .T. ) ;
#1228 = ORIENTED_EDGE ( 'NONE', *, *, #1266, .F. ) ;
#1229 = EDGE_CURVE ( 'NONE', #1017, #488, #836, .T. ) ;
#1230 = DIRECTION ( 'NONE',  ( -0.000000000000000000, -1.000000000000000000, -0.000000000000000000 ) ) ;
#1231 = DIRECTION ( 'NONE',  ( 0.000000000000000000, 1.000000000000000000, 0.000000000000000000 ) ) ;
#1232 = CARTESIAN_POINT ( 'NONE',  ( 12.00000000000000178, 0.000000000000000000, -0.9999999999999991118 ) ) ;
#1233 = ORIENTED_EDGE ( 'NONE', *, *, #37, .F. ) ;
#1234 = DIRECTION ( 'NONE',  ( 0.000000000000000000, 0.000000000000000000, 1.000000000000000000 ) ) ;
#1235 = EDGE_LOOP ( 'NONE', ( #1003, #300, #335, #996 ) ) ;
#1236 = CARTESIAN_POINT ( 'NONE',  ( 12.00000000000000178, 0.5999999999999999778, 0.000000000000000000 ) ) ;
#1237 = CIRCLE ( 'NONE', #674, 0.9999999999999998890 ) ;
#1238 = VECTOR ( 'NONE', #1046, 100.0000000000000000 ) ;
#1239 = CARTESIAN_POINT ( 'NONE',  ( 1.953575269974790141, 0.5999999999999999778, 0.4284199628202725596 ) ) ;
#1240 = VERTEX_POINT ( 'NONE', #1262 ) ;
#1241 = CIRCLE ( 'NONE', #1261, 0.9999999999999991118 ) ;
#1242 = CARTESIAN_POINT ( 'NONE',  ( 12.00000000000000178, 0.5999999999999999778, -0.9999999999999991118 ) ) ;
#1243 = EDGE_CURVE ( 'NONE', #608, #687, #514, .T. ) ;
#1244 = ADVANCED_FACE ( 'NONE', ( #1150 ), #376, .F. ) ;
#1245 = ORIENTED_EDGE ( 'NONE', *, *, #400, .F. ) ;
#1246 = CARTESIAN_POINT ( 'NONE',  ( 12.00000000000000178, 0.000000000000000000, 0.6500000000000000222 ) ) ;
#1247 = CARTESIAN_POINT ( 'NONE',  ( 11.41348150986874010, 0.5999999999999999778, -0.8099358374180914977 ) ) ;
#1248 = VERTEX_POINT ( 'NONE', #543 ) ;
#1249 = DIRECTION ( 'NONE',  ( 0.9099560968359980961, 0.000000000000000000, -0.4147045958643278962 ) ) ;
#1250 = CARTESIAN_POINT ( 'NONE',  ( 2.520105509146162159, 0.000000000000000000, 1.598869075500344739 ) ) ;
#1251 = ADVANCED_FACE ( 'NONE', ( #944 ), #653, .F. ) ;
#1252 = CARTESIAN_POINT ( 'NONE',  ( 1.519813722848142090, 0.000000000000000000, -1.242118976566963351 ) ) ;
#1253 = ORIENTED_EDGE ( 'NONE', *, *, #1015, .F. ) ;
#1254 = DIRECTION ( 'NONE',  ( -0.000000000000000000, -1.000000000000000000, -0.000000000000000000 ) ) ;
#1255 = DIRECTION ( 'NONE',  ( -0.000000000000000000, -1.000000000000000000, -0.000000000000000000 ) ) ;
#1256 = CARTESIAN_POINT ( 'NONE',  ( 10.82696301973748021, 0.2999999999999999889, -1.619871674836183884 ) ) ;
#1257 = AXIS2_PLACEMENT_3D ( 'NONE', #382, #559, #63 ) ;
#1258 = AXIS2_PLACEMENT_3D ( 'NONE', #644, #545, #1140 ) ;
#1259 = VERTEX_POINT ( 'NONE', #1054 ) ;
#1260 = VECTOR ( 'NONE', #752, 100.0000000000000000 ) ;
#1261 = AXIS2_PLACEMENT_3D ( 'NONE', #278, #742, #1234 ) ;
#1262 = CARTESIAN_POINT ( 'NONE',  ( 1.224646799147352961E-16, 0.000000000000000000, 0.9999999999999998890 ) ) ;
#1263 = DIRECTION ( 'NONE',  ( 0.000000000000000000, 1.000000000000000000, 0.000000000000000000 ) ) ;
#1264 = CARTESIAN_POINT ( 'NONE',  ( 0.08294091917286566806, 0.2999999999999999889, 0.1819912193671996692 ) ) ;
#1265 = ORIENTED_EDGE ( 'NONE', *, *, #239, .F. ) ;
#1266 = EDGE_CURVE ( 'NONE', #13, #1020, #433, .T. ) ;
#1267 = CARTESIAN_POINT ( 'NONE',  ( 0.000000000000000000, 0.000000000000000000, 0.000000000000000000 ) ) ;
#1268 = DIRECTION ( 'NONE',  ( 0.9953973941206709641, 0.000000000000000000, 0.09583333333333264592 ) ) ;
#1269 = DIRECTION ( 'NONE',  ( 0.000000000000000000, 1.000000000000000000, -0.000000000000000000 ) ) ;
#1270 = EDGE_LOOP ( 'NONE', ( #1265, #762, #437, #79 ) ) ;
#1271 = EDGE_LOOP ( 'NONE', ( #771, #184, #441, #396 ) ) ;
#1272 = CALENDAR_DATE ( 2024, 26, 9 ) ;
#1273 = EDGE_CURVE ( 'NONE', #1240, #912, #453, .T. ) ;
#1274 = CARTESIAN_POINT ( 'NONE',  ( 1.571078501218942103, 0.2999999999999999889, -0.9357962190483662956 ) ) ;
#1275 = DIRECTION ( 'NONE',  ( 0.000000000000000000, 0.000000000000000000, 1.000000000000000000 ) ) ;
#1276 = ORIENTED_EDGE ( 'NONE', *, *, #255, .T. ) ;
#1277 = VERTEX_POINT ( 'NONE', #3 ) ;
#1278 = VECTOR ( 'NONE', #699, 100.0000000000000142 ) ;
#1279 = VERTEX_POINT ( 'NONE', #587 ) ;
#1280 = VECTOR ( 'NONE', #591, 100.0000000000000142 ) ;
#1281 = PERSON_AND_ORGANIZATION ( #915, #390 ) ;
#1282 = VECTOR ( 'NONE', #1254, 100.0000000000000000 ) ;
#1283 = CC_DESIGN_PERSON_AND_ORGANIZATION_ASSIGNMENT ( #599, #881, ( #831 ) ) ;
#1284 = DIRECTION ( 'NONE',  ( 0.000000000000000000, 1.000000000000000000, -0.000000000000000000 ) ) ;
#1285 = ADVANCED_FACE ( 'NONE', ( #210 ), #492, .T. ) ;
#1286 = EDGE_CURVE ( 'NONE', #1040, #1022, #779, .T. ) ;
#1287 = LINE ( 'NONE', #415, #308 ) ;
ENDSEC;
END-ISO-10303-21;
