ISO-10303-21;
HEADER;
FILE_DESCRIPTION (( 'STEP AP203' ),
    '1' );
FILE_NAME ('링크_암.STEP',
    '2024-09-26T14:18:28',
    ( '' ),
    ( '' ),
    'SwSTEP 2.0',
    'SolidWorks 2022',
    '' );
FILE_SCHEMA (( 'CONFIG_CONTROL_DESIGN' ));
ENDSEC;

DATA;
#1 = CYLINDRICAL_SURFACE ( 'NONE', #142, 1.000000000000000222 ) ;
#2 = FACE_OUTER_BOUND ( 'NONE', #699, .T. ) ;
#3 = VERTEX_POINT ( 'NONE', #74 ) ;
#4 = DIRECTION ( 'NONE',  ( 0.000000000000000000, 0.000000000000000000, -1.000000000000000000 ) ) ;
#5 = ADVANCED_FACE ( 'NONE', ( #516 ), #357, .F. ) ;
#6 = EDGE_LOOP ( 'NONE', ( #678, #349, #471, #558 ) ) ;
#7 = DIRECTION ( 'NONE',  ( -0.000000000000000000, -1.000000000000000000, -0.000000000000000000 ) ) ;
#8 = CALENDAR_DATE ( 2024, 26, 9 ) ;
#9 = VERTEX_POINT ( 'NONE', #647 ) ;
#10 = CARTESIAN_POINT ( 'NONE',  ( 11.39999999999999858, 0.2999999999999999889, -2.242814658491186552 ) ) ;
#11 = DIRECTION ( 'NONE',  ( -0.000000000000000000, 1.000000000000000000, -0.000000000000000000 ) ) ;
#12 = DIRECTION ( 'NONE',  ( 0.000000000000000000, 0.000000000000000000, 1.000000000000000000 ) ) ;
#13 = EDGE_LOOP ( 'NONE', ( #263, #657, #18, #282 ) ) ;
#14 = AXIS2_PLACEMENT_3D ( 'NONE', #107, #329, #750 ) ;
#15 = ADVANCED_FACE ( 'NONE', ( #436 ), #502, .F. ) ;
#16 = CARTESIAN_POINT ( 'NONE',  ( 2.322875655532296246, 0.000000000000000000, -1.542814658491186153 ) ) ;
#17 = CYLINDRICAL_SURFACE ( 'NONE', #48, 0.6500000000000005773 ) ;
#18 = ORIENTED_EDGE ( 'NONE', *, *, #539, .T. ) ;
#19 = EDGE_CURVE ( 'NONE', #568, #794, #137, .T. ) ;
#20 = ORIENTED_EDGE ( 'NONE', *, *, #625, .F. ) ;
#21 = CARTESIAN_POINT ( 'NONE',  ( 0.9999999999999995559, 0.5999999999999999778, -2.042814658491186819 ) ) ;
#22 = EDGE_LOOP ( 'NONE', ( #401, #941, #767, #574 ) ) ;
#23 = CARTESIAN_POINT ( 'NONE',  ( 2.322875655532296246, 0.5999999999999999778, 0.4571853415088132921 ) ) ;
#24 = CARTESIAN_POINT ( 'NONE',  ( 0.9999999999999995559, 0.5999999999999999778, -1.042814658491186375 ) ) ;
#25 = ORIENTED_EDGE ( 'NONE', *, *, #86, .F. ) ;
#26 = AXIS2_PLACEMENT_3D ( 'NONE', #864, #515, #305 ) ;
#27 = CYLINDRICAL_SURFACE ( 'NONE', #846, 1.000000000000000000 ) ;
#28 = AXIS2_PLACEMENT_3D ( 'NONE', #680, #102, #393 ) ;
#29 = PLANE ( 'NONE',  #223 ) ;
#30 = EDGE_CURVE ( 'NONE', #363, #641, #810, .T. ) ;
#31 = DIRECTION ( 'NONE',  ( 0.000000000000000000, 0.000000000000000000, -1.000000000000000000 ) ) ;
#32 = VERTEX_POINT ( 'NONE', #351 ) ;
#33 = DIRECTION ( 'NONE',  ( -0.000000000000000000, -1.000000000000000000, -0.000000000000000000 ) ) ;
#34 = ORIENTED_EDGE ( 'NONE', *, *, #56, .T. ) ;
#35 = ADVANCED_FACE ( 'NONE', ( #419 ), #1, .F. ) ;
#36 = AXIS2_PLACEMENT_3D ( 'NONE', #24, #529, #94 ) ;
#37 = CIRCLE ( 'NONE', #101, 0.6500000000000004663 ) ;
#38 = LINE ( 'NONE', #333, #708 ) ;
#39 = AXIS2_PLACEMENT_3D ( 'NONE', #167, #239, #737 ) ;
#40 = ORIENTED_EDGE ( 'NONE', *, *, #781, .T. ) ;
#41 = EDGE_CURVE ( 'NONE', #226, #70, #415, .T. ) ;
#42 = DIRECTION ( 'NONE',  ( -0.000000000000000000, -1.000000000000000000, 0.000000000000000000 ) ) ;
#43 = ORIENTED_EDGE ( 'NONE', *, *, #122, .F. ) ;
#44 = DIRECTION ( 'NONE',  ( -0.000000000000000000, -1.000000000000000000, -0.000000000000000000 ) ) ;
#45 = ORIENTED_EDGE ( 'NONE', *, *, #886, .F. ) ;
#46 = CYLINDRICAL_SURFACE ( 'NONE', #669, 0.9999999999999998890 ) ;
#47 = DIRECTION ( 'NONE',  ( -1.000000000000000000, 0.000000000000000000, 3.708953083594429689E-17 ) ) ;
#48 = AXIS2_PLACEMENT_3D ( 'NONE', #716, #498, #510 ) ;
#49 = CIRCLE ( 'NONE', #593, 1.000000000000000666 ) ;
#50 = EDGE_CURVE ( 'NONE', #918, #292, #820, .T. ) ;
#51 = LOCAL_TIME ( 23, 18, 28.00000000000000000, #817 ) ;
#52 = ORIENTED_EDGE ( 'NONE', *, *, #539, .F. ) ;
#53 = ORIENTED_EDGE ( 'NONE', *, *, #473, .T. ) ;
#54 = CARTESIAN_POINT ( 'NONE',  ( 1.661437827766147901, 0.000000000000000000, -1.792814658491186375 ) ) ;
#55 = DIRECTION ( 'NONE',  ( -0.000000000000000000, -1.000000000000000000, -0.000000000000000000 ) ) ;
#56 = EDGE_CURVE ( 'NONE', #701, #189, #87, .T. ) ;
#57 = ORIENTED_EDGE ( 'NONE', *, *, #403, .F. ) ;
#58 = VERTEX_POINT ( 'NONE', #16 ) ;
#59 = DIRECTION ( 'NONE',  ( -0.000000000000000000, -1.000000000000000000, 0.000000000000000000 ) ) ;
#60 = DIRECTION ( 'NONE',  ( 0.000000000000000000, 0.000000000000000000, 1.000000000000000000 ) ) ;
#61 = ORIENTED_EDGE ( 'NONE', *, *, #752, .F. ) ;
#62 = CARTESIAN_POINT ( 'NONE',  ( 13.00000000000000000, 0.5999999999999999778, -1.042814658491186375 ) ) ;
#63 = EDGE_CURVE ( 'NONE', #292, #668, #159, .T. ) ;
#64 = DIRECTION ( 'NONE',  ( -0.000000000000000000, -1.000000000000000000, -0.000000000000000000 ) ) ;
#65 = CARTESIAN_POINT ( 'NONE',  ( 2.600000000000000089, 0.2999999999999999889, -1.242814658491186552 ) ) ;
#66 = CIRCLE ( 'NONE', #378, 0.9999999999999998890 ) ;
#67 = ORIENTED_EDGE ( 'NONE', *, *, #852, .F. ) ;
#68 = FACE_OUTER_BOUND ( 'NONE', #396, .T. ) ;
#69 = AXIS2_PLACEMENT_3D ( 'NONE', #406, #266, #920 ) ;
#70 = VERTEX_POINT ( 'NONE', #829 ) ;
#71 = CARTESIAN_POINT ( 'NONE',  ( 11.67712434446770331, 0.000000000000000000, 0.4571853415088136252 ) ) ;
#72 = EDGE_CURVE ( 'NONE', #474, #638, #684, .T. ) ;
#73 = CARTESIAN_POINT ( 'NONE',  ( 13.00000000000000000, 0.5999999999999999778, -0.04281465849118575723 ) ) ;
#74 = CARTESIAN_POINT ( 'NONE',  ( 11.39999999999999858, 0.2999999999999999889, -1.242814658491186552 ) ) ;
#75 = CARTESIAN_POINT ( 'NONE',  ( 2.600000000000000977, 0.2999999999999999889, -0.8428146584911871964 ) ) ;
#76 = CALENDAR_DATE ( 2024, 26, 9 ) ;
#77 = VERTEX_POINT ( 'NONE', #452 ) ;
#78 = FACE_OUTER_BOUND ( 'NONE', #854, .T. ) ;
#79 = DIRECTION ( 'NONE',  ( 0.000000000000000000, 0.000000000000000000, -1.000000000000000000 ) ) ;
#80 = DIRECTION ( 'NONE',  ( 0.000000000000000000, 1.000000000000000000, 0.000000000000000000 ) ) ;
#81 = EDGE_CURVE ( 'NONE', #88, #526, #480, .T. ) ;
#82 = ORIENTED_EDGE ( 'NONE', *, *, #477, .F. ) ;
#83 = DIRECTION ( 'NONE',  ( 0.000000000000000000, -1.000000000000000000, -0.000000000000000000 ) ) ;
#84 = DIRECTION ( 'NONE',  ( 1.000000000000000000, 0.000000000000000000, -3.708953083594429689E-17 ) ) ;
#85 = APPROVAL_STATUS ( 'not_yet_approved' ) ;
#86 = EDGE_CURVE ( 'NONE', #119, #618, #848, .T. ) ;
#87 = CIRCLE ( 'NONE', #938, 1.000000000000000222 ) ;
#88 = VERTEX_POINT ( 'NONE', #834 ) ;
#89 = AXIS2_PLACEMENT_3D ( 'NONE', #489, #621, #917 ) ;
#90 =( LENGTH_UNIT ( ) NAMED_UNIT ( * ) SI_UNIT ( .CENTI., .METRE. ) );
#91 = FACE_OUTER_BOUND ( 'NONE', #567, .T. ) ;
#92 = ORIENTED_EDGE ( 'NONE', *, *, #63, .F. ) ;
#93 = MECHANICAL_CONTEXT ( 'NONE', #832, 'mechanical' ) ;
#94 = DIRECTION ( 'NONE',  ( 0.000000000000000000, 0.000000000000000000, -1.000000000000000000 ) ) ;
#95 = ORIENTED_EDGE ( 'NONE', *, *, #225, .T. ) ;
#96 = EDGE_CURVE ( 'NONE', #618, #444, #269, .T. ) ;
#97 = DIRECTION ( 'NONE',  ( -0.000000000000000000, -1.000000000000000000, -0.000000000000000000 ) ) ;
#98 = CARTESIAN_POINT ( 'NONE',  ( 0.9999999999999995559, 0.5999999999999999778, -1.042814658491186375 ) ) ;
#99 = AXIS2_PLACEMENT_3D ( 'NONE', #405, #191, #411 ) ;
#100 = CIRCLE ( 'NONE', #14, 1.000000000000000444 ) ;
#101 = AXIS2_PLACEMENT_3D ( 'NONE', #607, #316, #743 ) ;
#102 = DIRECTION ( 'NONE',  ( 0.000000000000000000, 0.000000000000000000, 1.000000000000000000 ) ) ;
#103 = VECTOR ( 'NONE', #97, 100.0000000000000000 ) ;
#104 = DIRECTION ( 'NONE',  ( 0.000000000000000000, 0.000000000000000000, -1.000000000000000000 ) ) ;
#105 = ORIENTED_EDGE ( 'NONE', *, *, #632, .T. ) ;
#106 = DIRECTION ( 'NONE',  ( 0.000000000000000000, 0.000000000000000000, 1.000000000000000000 ) ) ;
#107 = CARTESIAN_POINT ( 'NONE',  ( 0.9999999999999995559, 0.000000000000000000, -1.042814658491186375 ) ) ;
#108 = ORIENTED_EDGE ( 'NONE', *, *, #232, .F. ) ;
#109 = FACE_OUTER_BOUND ( 'NONE', #268, .T. ) ;
#110 = EDGE_CURVE ( 'NONE', #580, #9, #633, .T. ) ;
#111 = ORIENTED_EDGE ( 'NONE', *, *, #488, .T. ) ;
#112 = AXIS2_PLACEMENT_3D ( 'NONE', #205, #790, #79 ) ;
#113 = CARTESIAN_POINT ( 'NONE',  ( 12.33856217223385165, 0.5999999999999999778, -0.2928146584911857087 ) ) ;
#114 = VECTOR ( 'NONE', #828, 100.0000000000000000 ) ;
#115 = AXIS2_PLACEMENT_3D ( 'NONE', #273, #841, #188 ) ;
#116 = CARTESIAN_POINT ( 'NONE',  ( 11.67712434446770331, 0.000000000000000000, -0.5428146584911861527 ) ) ;
#117 = CC_DESIGN_SECURITY_CLASSIFICATION ( #468, ( #623 ) ) ;
#118 = LINE ( 'NONE', #407, #670 ) ;
#119 = VERTEX_POINT ( 'NONE', #692 ) ;
#120 = CARTESIAN_POINT ( 'NONE',  ( 2.600000000000000089, 0.2999999999999999889, -1.242814658491186552 ) ) ;
#121 = VERTEX_POINT ( 'NONE', #332 ) ;
#122 = EDGE_CURVE ( 'NONE', #369, #618, #256, .T. ) ;
#123 = CARTESIAN_POINT ( 'NONE',  ( 0.9999999999999995559, 0.5999999999999999778, -0.3928146584911859640 ) ) ;
#124 = FACE_OUTER_BOUND ( 'NONE', #181, .T. ) ;
#125 = CLOSED_SHELL ( 'NONE', ( #833, #278, #711, #528, #455, #911, #776, #694, #870, #5, #330, #748, #310, #589, #733, #825, #893, #15, #564, #738, #906, #134, #690, #241, #176, #35 ) ) ;
#126 = CARTESIAN_POINT ( 'NONE',  ( 2.322875655532296246, 0.000000000000000000, -2.542814658491185931 ) ) ;
#127 = EDGE_CURVE ( 'NONE', #497, #58, #651, .T. ) ;
#128 = VECTOR ( 'NONE', #703, 100.0000000000000000 ) ;
#129 =( GEOMETRIC_REPRESENTATION_CONTEXT ( 3 ) GLOBAL_UNCERTAINTY_ASSIGNED_CONTEXT ( ( #352 ) ) GLOBAL_UNIT_ASSIGNED_CONTEXT ( ( #90, #312, #458 ) ) REPRESENTATION_CONTEXT ( 'NONE', 'WORKASPACE' ) );
#130 = VERTEX_POINT ( 'NONE', #487 ) ;
#131 = CARTESIAN_POINT ( 'NONE',  ( 1.661437827766148345, 0.000000000000000000, -0.2928146584911864858 ) ) ;
#132 = ORIENTED_EDGE ( 'NONE', *, *, #717, .T. ) ;
#133 = DIRECTION ( 'NONE',  ( -0.000000000000000000, -1.000000000000000000, -0.000000000000000000 ) ) ;
#134 = ADVANCED_FACE ( 'NONE', ( #124 ), #46, .F. ) ;
#135 = ORIENTED_EDGE ( 'NONE', *, *, #757, .T. ) ;
#136 = ORIENTED_EDGE ( 'NONE', *, *, #225, .F. ) ;
#137 = LINE ( 'NONE', #441, #590 ) ;
#138 = PLANE ( 'NONE',  #493 ) ;
#139 = COORDINATED_UNIVERSAL_TIME_OFFSET ( 9, 0, .AHEAD. ) ;
#140 = DIRECTION ( 'NONE',  ( -0.000000000000000000, 1.000000000000000000, -0.000000000000000000 ) ) ;
#141 = DIRECTION ( 'NONE',  ( -0.000000000000000000, -1.000000000000000000, -0.000000000000000000 ) ) ;
#142 = AXIS2_PLACEMENT_3D ( 'NONE', #665, #11, #307 ) ;
#143 = VERTEX_POINT ( 'NONE', #210 ) ;
#144 = CIRCLE ( 'NONE', #685, 1.000000000000000666 ) ;
#145 = DIRECTION ( 'NONE',  ( 0.000000000000000000, 0.000000000000000000, 1.000000000000000000 ) ) ;
#146 = APPROVAL_DATE_TIME ( #525, #148 ) ;
#147 = AXIS2_PLACEMENT_3D ( 'NONE', #235, #172, #170 ) ;
#148 = APPROVAL ( #85, 'UNSPECIFIED' ) ;
#149 = DIRECTION ( 'NONE',  ( 0.000000000000000000, 0.000000000000000000, 1.000000000000000000 ) ) ;
#150 = CARTESIAN_POINT ( 'NONE',  ( 2.322875655532296246, 0.5999999999999999778, -0.5428146584911867079 ) ) ;
#151 = CARTESIAN_POINT ( 'NONE',  ( 13.00000000000000000, 0.000000000000000000, -1.042814658491186375 ) ) ;
#152 = SHAPE_DEFINITION_REPRESENTATION ( #306, #507 ) ;
#153 = EDGE_LOOP ( 'NONE', ( #208, #318, #385, #92 ) ) ;
#154 = DIRECTION ( 'NONE',  ( -0.000000000000000000, -1.000000000000000000, -0.000000000000000000 ) ) ;
#155 = DIRECTION ( 'NONE',  ( 0.000000000000000000, 1.000000000000000000, 0.000000000000000000 ) ) ;
#156 = PERSON_AND_ORGANIZATION_ROLE ( 'creator' ) ;
#157 = ORIENTED_EDGE ( 'NONE', *, *, #315, .F. ) ;
#158 = ORIENTED_EDGE ( 'NONE', *, *, #800, .T. ) ;
#159 = LINE ( 'NONE', #749, #532 ) ;
#160 = LINE ( 'NONE', #250, #863 ) ;
#161 = PRODUCT_DEFINITION ( 'UNKNOWN', '', #623, #491 ) ;
#162 = FACE_OUTER_BOUND ( 'NONE', #734, .T. ) ;
#163 = COORDINATED_UNIVERSAL_TIME_OFFSET ( 9, 0, .AHEAD. ) ;
#164 = ORIENTED_EDGE ( 'NONE', *, *, #610, .T. ) ;
#165 = CIRCLE ( 'NONE', #897, 0.6500000000000015765 ) ;
#166 = VECTOR ( 'NONE', #849, 100.0000000000000000 ) ;
#167 = CARTESIAN_POINT ( 'NONE',  ( 0.9999999999999995559, 0.2999999999999999889, -1.042814658491186375 ) ) ;
#168 = CARTESIAN_POINT ( 'NONE',  ( 13.00000000000000000, 0.5999999999999999778, -1.692814658491188062 ) ) ;
#169 = ORIENTED_EDGE ( 'NONE', *, *, #382, .F. ) ;
#170 = DIRECTION ( 'NONE',  ( 0.000000000000000000, 0.000000000000000000, 1.000000000000000000 ) ) ;
#171 = CARTESIAN_POINT ( 'NONE',  ( 0.9999999999999995559, 0.000000000000000000, -2.042814658491186819 ) ) ;
#172 = DIRECTION ( 'NONE',  ( 0.000000000000000000, 1.000000000000000000, 0.000000000000000000 ) ) ;
#173 = ORIENTED_EDGE ( 'NONE', *, *, #561, .F. ) ;
#174 = CIRCLE ( 'NONE', #686, 1.000000000000000444 ) ;
#175 = FACE_OUTER_BOUND ( 'NONE', #331, .T. ) ;
#176 = ADVANCED_FACE ( 'NONE', ( #298 ), #359, .T. ) ;
#177 = CARTESIAN_POINT ( 'NONE',  ( 13.00000000000000000, 0.5999999999999999778, -0.04281465849118575723 ) ) ;
#178 = ORIENTED_EDGE ( 'NONE', *, *, #597, .T. ) ;
#179 = DIRECTION ( 'NONE',  ( 0.000000000000000000, 0.000000000000000000, 1.000000000000000000 ) ) ;
#180 = EDGE_CURVE ( 'NONE', #226, #701, #725, .T. ) ;
#181 = EDGE_LOOP ( 'NONE', ( #43, #612, #158, #203 ) ) ;
#182 = PLANE ( 'NONE',  #744 ) ;
#183 = DIRECTION ( 'NONE',  ( 0.000000000000000000, 1.000000000000000000, 0.000000000000000000 ) ) ;
#184 = ORIENTED_EDGE ( 'NONE', *, *, #610, .F. ) ;
#185 = VECTOR ( 'NONE', #216, 100.0000000000000000 ) ;
#186 = CIRCLE ( 'NONE', #270, 1.000000000000000666 ) ;
#187 = VECTOR ( 'NONE', #687, 100.0000000000000000 ) ;
#188 = DIRECTION ( 'NONE',  ( 0.000000000000000000, -0.000000000000000000, 1.000000000000000000 ) ) ;
#189 = VERTEX_POINT ( 'NONE', #713 ) ;
#190 = EDGE_CURVE ( 'NONE', #638, #526, #66, .T. ) ;
#191 = DIRECTION ( 'NONE',  ( 0.000000000000000000, 1.000000000000000000, 0.000000000000000000 ) ) ;
#192 = CARTESIAN_POINT ( 'NONE',  ( 11.67712434446770331, 0.000000000000000000, -1.542814658491186597 ) ) ;
#193 = CARTESIAN_POINT ( 'NONE',  ( 1.800000000000000933, 0.2999999999999999889, -0.4428146584911867301 ) ) ;
#194 = EDGE_CURVE ( 'NONE', #751, #818, #492, .T. ) ;
#195 = DIRECTION ( 'NONE',  ( -0.000000000000000000, -1.000000000000000000, -0.000000000000000000 ) ) ;
#196 = AXIS2_PLACEMENT_3D ( 'NONE', #355, #645, #872 ) ;
#197 = FACE_OUTER_BOUND ( 'NONE', #296, .T. ) ;
#198 = VECTOR ( 'NONE', #221, 100.0000000000000000 ) ;
#199 = EDGE_CURVE ( 'NONE', #70, #189, #500, .T. ) ;
#200 = ORIENTED_EDGE ( 'NONE', *, *, #619, .T. ) ;
#201 = CARTESIAN_POINT ( 'NONE',  ( 13.00000000000000000, 0.000000000000000000, -1.042814658491186375 ) ) ;
#202 = ORIENTED_EDGE ( 'NONE', *, *, #431, .T. ) ;
#203 = ORIENTED_EDGE ( 'NONE', *, *, #86, .T. ) ;
#204 = FACE_BOUND ( 'NONE', #804, .T. ) ;
#205 = CARTESIAN_POINT ( 'NONE',  ( 13.00000000000000000, 0.5999999999999999778, -1.042814658491186375 ) ) ;
#206 = LINE ( 'NONE', #75, #707 ) ;
#207 = PERSON_AND_ORGANIZATION_ROLE ( 'design_owner' ) ;
#208 = ORIENTED_EDGE ( 'NONE', *, *, #50, .F. ) ;
#209 = ORIENTED_EDGE ( 'NONE', *, *, #248, .F. ) ;
#210 = CARTESIAN_POINT ( 'NONE',  ( 11.39999999999999858, 0.5999999999999999778, -1.242814658491186552 ) ) ;
#211 = CARTESIAN_POINT ( 'NONE',  ( 11.67712434446770331, 0.2999999999999999889, 0.4571853415088136252 ) ) ;
#212 = VERTEX_POINT ( 'NONE', #426 ) ;
#213 = CARTESIAN_POINT ( 'NONE',  ( 0.9999999999999995559, 0.000000000000000000, -1.042814658491186375 ) ) ;
#214 = CC_DESIGN_DATE_AND_TIME_ASSIGNMENT ( #504, #236, ( #161 ) ) ;
#215 = ORIENTED_EDGE ( 'NONE', *, *, #127, .F. ) ;
#216 = DIRECTION ( 'NONE',  ( -0.000000000000000000, 1.000000000000000000, -0.000000000000000000 ) ) ;
#217 = CYLINDRICAL_SURFACE ( 'NONE', #26, 1.000000000000000222 ) ;
#218 = AXIS2_PLACEMENT_3D ( 'NONE', #260, #366, #929 ) ;
#219 = EDGE_LOOP ( 'NONE', ( #851, #588 ) ) ;
#220 = AXIS2_PLACEMENT_3D ( 'NONE', #943, #274, #554 ) ;
#221 = DIRECTION ( 'NONE',  ( -0.000000000000000000, 1.000000000000000000, -0.000000000000000000 ) ) ;
#222 = PERSON_AND_ORGANIZATION_ROLE ( 'classification_officer' ) ;
#223 = AXIS2_PLACEMENT_3D ( 'NONE', #614, #240, #745 ) ;
#224 = APPROVAL_PERSON_ORGANIZATION ( #663, #688, #792 ) ;
#225 = EDGE_CURVE ( 'NONE', #121, #701, #722, .T. ) ;
#226 = VERTEX_POINT ( 'NONE', #193 ) ;
#227 = DIRECTION ( 'NONE',  ( -0.000000000000000000, -1.000000000000000000, -0.000000000000000000 ) ) ;
#228 = DIRECTION ( 'NONE',  ( 0.000000000000000000, 0.000000000000000000, 1.000000000000000000 ) ) ;
#229 = DIRECTION ( 'NONE',  ( 0.000000000000000000, 1.000000000000000000, 0.000000000000000000 ) ) ;
#230 = APPROVAL_DATE_TIME ( #806, #617 ) ;
#231 = ORIENTED_EDGE ( 'NONE', *, *, #842, .T. ) ;
#232 = EDGE_CURVE ( 'NONE', #931, #88, #940, .T. ) ;
#233 = DIRECTION ( 'NONE',  ( -0.000000000000000000, -1.000000000000000000, -0.000000000000000000 ) ) ;
#234 = DIRECTION ( 'NONE',  ( 0.000000000000000000, 0.000000000000000000, 1.000000000000000000 ) ) ;
#235 = CARTESIAN_POINT ( 'NONE',  ( 0.9999999999999995559, 0.000000000000000000, -1.042814658491186375 ) ) ;
#236 = DATE_TIME_ROLE ( 'creation_date' ) ;
#237 = ORIENTED_EDGE ( 'NONE', *, *, #180, .T. ) ;
#238 = ORIENTED_EDGE ( 'NONE', *, *, #473, .F. ) ;
#239 = DIRECTION ( 'NONE',  ( 0.000000000000000000, 1.000000000000000000, 0.000000000000000000 ) ) ;
#240 = DIRECTION ( 'NONE',  ( -0.000000000000000000, 1.000000000000000000, 0.000000000000000000 ) ) ;
#241 = ADVANCED_FACE ( 'NONE', ( #766 ), #485, .F. ) ;
#242 = AXIS2_PLACEMENT_3D ( 'NONE', #908, #914, #106 ) ;
#243 = ORIENTED_EDGE ( 'NONE', *, *, #190, .F. ) ;
#244 = AXIS2_PLACEMENT_3D ( 'NONE', #288, #575, #31 ) ;
#245 = CIRCLE ( 'NONE', #325, 1.000000000000000000 ) ;
#246 = FACE_OUTER_BOUND ( 'NONE', #13, .T. ) ;
#247 = LINE ( 'NONE', #470, #879 ) ;
#248 = EDGE_CURVE ( 'NONE', #668, #58, #118, .T. ) ;
#249 = ORIENTED_EDGE ( 'NONE', *, *, #653, .F. ) ;
#250 = CARTESIAN_POINT ( 'NONE',  ( 11.39999999999999325, 0.2999999999999999889, -0.8428146584911930805 ) ) ;
#251 = CARTESIAN_POINT ( 'NONE',  ( 1.661437827766148345, 0.2999999999999999889, -1.792814658491186819 ) ) ;
#252 = ORIENTED_EDGE ( 'NONE', *, *, #395, .T. ) ;
#253 = EDGE_CURVE ( 'NONE', #70, #907, #206, .T. ) ;
#254 = DIRECTION ( 'NONE',  ( -0.000000000000000000, -1.000000000000000000, -0.000000000000000000 ) ) ;
#255 = DIRECTION ( 'NONE',  ( -1.000000000000000000, -0.000000000000000000, -0.000000000000000000 ) ) ;
#256 = CIRCLE ( 'NONE', #218, 0.9999999999999995559 ) ;
#257 = ORIENTED_EDGE ( 'NONE', *, *, #637, .T. ) ;
#258 = AXIS2_PLACEMENT_3D ( 'NONE', #447, #133, #423 ) ;
#259 = AXIS2_PLACEMENT_3D ( 'NONE', #728, #785, #149 ) ;
#260 = CARTESIAN_POINT ( 'NONE',  ( 2.600000000000000089, 0.5999999999999999778, -2.242814658491186552 ) ) ;
#261 = APPROVAL_PERSON_ORGANIZATION ( #740, #617, #430 ) ;
#262 = DIRECTION ( 'NONE',  ( 0.000000000000000000, 0.000000000000000000, -1.000000000000000000 ) ) ;
#263 = ORIENTED_EDGE ( 'NONE', *, *, #505, .F. ) ;
#264 = CARTESIAN_POINT ( 'NONE',  ( 11.39999999999999858, 0.2999999999999999889, -1.242814658491186552 ) ) ;
#265 = EDGE_LOOP ( 'NONE', ( #52, #408, #25, #200, #290, #885 ) ) ;
#266 = DIRECTION ( 'NONE',  ( -0.000000000000000000, -1.000000000000000000, 0.000000000000000000 ) ) ;
#267 = EDGE_CURVE ( 'NONE', #469, #212, #186, .T. ) ;
#268 = EDGE_LOOP ( 'NONE', ( #509, #209, #157, #723, #704, #169, #243, #661, #314, #334, #450, #45 ) ) ;
#269 = CIRCLE ( 'NONE', #99, 1.000000000000000444 ) ;
#270 = AXIS2_PLACEMENT_3D ( 'NONE', #662, #875, #666 ) ;
#271 = DIRECTION ( 'NONE',  ( -0.000000000000000000, 1.000000000000000000, -0.000000000000000000 ) ) ;
#272 = AXIS2_PLACEMENT_3D ( 'NONE', #835, #599, #377 ) ;
#273 = CARTESIAN_POINT ( 'NONE',  ( 7.000000000000000888, 0.2999999999999999889, -1.042814658491186375 ) ) ;
#274 = DIRECTION ( 'NONE',  ( 0.000000000000000000, 1.000000000000000000, 0.000000000000000000 ) ) ;
#275 = LINE ( 'NONE', #264, #823 ) ;
#276 = ORIENTED_EDGE ( 'NONE', *, *, #395, .F. ) ;
#277 = VERTEX_POINT ( 'NONE', #370 ) ;
#278 = ADVANCED_FACE ( 'NONE', ( #811 ), #17, .F. ) ;
#279 = CARTESIAN_POINT ( 'NONE',  ( 13.00000000000000000, 0.000000000000000000, -1.692814658491188062 ) ) ;
#280 = ORIENTED_EDGE ( 'NONE', *, *, #852, .T. ) ;
#281 = VERTEX_POINT ( 'NONE', #884 ) ;
#282 = ORIENTED_EDGE ( 'NONE', *, *, #354, .T. ) ;
#283 = CARTESIAN_POINT ( 'NONE',  ( 2.600000000000000089, 0.2999999999999999889, -2.242814658491186552 ) ) ;
#284 = DIRECTION ( 'NONE',  ( -0.000000000000000000, -1.000000000000000000, 0.000000000000000000 ) ) ;
#285 = CIRCLE ( 'NONE', #821, 0.6500000000000015765 ) ;
#286 = AXIS2_PLACEMENT_3D ( 'NONE', #546, #534, #836 ) ;
#287 = ORIENTED_EDGE ( 'NONE', *, *, #320, .F. ) ;
#288 = CARTESIAN_POINT ( 'NONE',  ( 11.39999999999999325, 0.2999999999999999889, 0.1571853415088071415 ) ) ;
#289 = CALENDAR_DATE ( 2024, 26, 9 ) ;
#290 = ORIENTED_EDGE ( 'NONE', *, *, #19, .T. ) ;
#291 = FACE_OUTER_BOUND ( 'NONE', #924, .T. ) ;
#292 = VERTEX_POINT ( 'NONE', #791 ) ;
#293 = DIRECTION ( 'NONE',  ( 3.708953083594429689E-17, -0.000000000000000000, 1.000000000000000000 ) ) ;
#294 = APPROVAL_STATUS ( 'not_yet_approved' ) ;
#295 = MANIFOLD_SOLID_BREP ( '컷-돌출2', #125 ) ;
#296 = EDGE_LOOP ( 'NONE', ( #238, #57, #287, #655, #831, #813 ) ) ;
#297 = ORIENTED_EDGE ( 'NONE', *, *, #550, .F. ) ;
#298 = FACE_OUTER_BOUND ( 'NONE', #775, .T. ) ;
#299 = FACE_OUTER_BOUND ( 'NONE', #838, .T. ) ;
#300 = ORIENTED_EDGE ( 'NONE', *, *, #619, .F. ) ;
#301 = DIRECTION ( 'NONE',  ( 1.000000000000000000, 0.000000000000000000, -6.308085367188395171E-16 ) ) ;
#302 = DATE_AND_TIME ( #380, #760 ) ;
#303 = EDGE_CURVE ( 'NONE', #918, #212, #429, .T. ) ;
#304 = ORIENTED_EDGE ( 'NONE', *, *, #199, .F. ) ;
#305 = DIRECTION ( 'NONE',  ( 0.000000000000000000, 0.000000000000000000, -1.000000000000000000 ) ) ;
#306 = PRODUCT_DEFINITION_SHAPE ( 'NONE', 'NONE',  #161 ) ;
#307 = DIRECTION ( 'NONE',  ( 0.000000000000000000, 0.000000000000000000, 1.000000000000000000 ) ) ;
#308 = CARTESIAN_POINT ( 'NONE',  ( 1.661437827766148345, 0.5999999999999999778, -0.2928146584911864858 ) ) ;
#309 = CIRCLE ( 'NONE', #89, 1.000000000000000666 ) ;
#310 = ADVANCED_FACE ( 'NONE', ( #2 ), #138, .F. ) ;
#311 = ORIENTED_EDGE ( 'NONE', *, *, #190, .T. ) ;
#312 =( NAMED_UNIT ( * ) PLANE_ANGLE_UNIT ( ) SI_UNIT ( $, .RADIAN. ) );
#313 = CARTESIAN_POINT ( 'NONE',  ( 2.322875655532296246, 0.5999999999999999778, -1.542814658491186153 ) ) ;
#314 = ORIENTED_EDGE ( 'NONE', *, *, #194, .F. ) ;
#315 = EDGE_CURVE ( 'NONE', #212, #668, #756, .T. ) ;
#316 = DIRECTION ( 'NONE',  ( 0.000000000000000000, 1.000000000000000000, 0.000000000000000000 ) ) ;
#317 = LINE ( 'NONE', #397, #915 ) ;
#318 = ORIENTED_EDGE ( 'NONE', *, *, #303, .T. ) ;
#319 = DIRECTION ( 'NONE',  ( 0.000000000000000000, 0.000000000000000000, -1.000000000000000000 ) ) ;
#320 = EDGE_CURVE ( 'NONE', #931, #847, #805, .T. ) ;
#321 = DIRECTION ( 'NONE',  ( 1.000000000000000000, 0.000000000000000000, 3.708953083594430305E-17 ) ) ;
#322 = AXIS2_PLACEMENT_3D ( 'NONE', #437, #720, #866 ) ;
#323 = ORIENTED_EDGE ( 'NONE', *, *, #800, .F. ) ;
#324 = AXIS2_PLACEMENT_3D ( 'NONE', #350, #141, #4 ) ;
#325 = AXIS2_PLACEMENT_3D ( 'NONE', #936, #660, #803 ) ;
#326 = PLANE ( 'NONE',  #272 ) ;
#327 = CARTESIAN_POINT ( 'NONE',  ( 13.00000000000000000, 0.000000000000000000, -2.042814658491186819 ) ) ;
#328 = APPLICATION_PROTOCOL_DEFINITION ( 'international standard', 'config_control_design', 1994, #832 ) ;
#329 = DIRECTION ( 'NONE',  ( 0.000000000000000000, 1.000000000000000000, 0.000000000000000000 ) ) ;
#330 = ADVANCED_FACE ( 'NONE', ( #68 ), #586, .F. ) ;
#331 = EDGE_LOOP ( 'NONE', ( #890, #184, #788, #649 ) ) ;
#332 = CARTESIAN_POINT ( 'NONE',  ( 0.9999999999999996669, 0.5999999999999999778, -0.04281465849118593070 ) ) ;
#333 = CARTESIAN_POINT ( 'NONE',  ( 2.322875655532296246, 0.2999999999999999889, -1.542814658491186153 ) ) ;
#334 = ORIENTED_EDGE ( 'NONE', *, *, #448, .F. ) ;
#335 = CIRCLE ( 'NONE', #258, 1.000000000000000222 ) ;
#336 = AXIS2_PLACEMENT_3D ( 'NONE', #372, #867, #60 ) ;
#337 = FACE_OUTER_BOUND ( 'NONE', #375, .T. ) ;
#338 = VERTEX_POINT ( 'NONE', #858 ) ;
#339 = EDGE_CURVE ( 'NONE', #277, #751, #739, .T. ) ;
#340 = FACE_OUTER_BOUND ( 'NONE', #536, .T. ) ;
#341 = EDGE_LOOP ( 'NONE', ( #691, #105, #761, #410 ) ) ;
#342 = DIRECTION ( 'NONE',  ( 0.000000000000000000, 0.000000000000000000, -1.000000000000000000 ) ) ;
#343 = AXIS2_PLACEMENT_3D ( 'NONE', #869, #229, #442 ) ;
#344 = VECTOR ( 'NONE', #844, 100.0000000000000000 ) ;
#345 = APPROVAL_PERSON_ORGANIZATION ( #731, #148, #798 ) ;
#346 = CARTESIAN_POINT ( 'NONE',  ( 13.00000000000000000, 0.5999999999999999778, -1.042814658491186375 ) ) ;
#347 = DIRECTION ( 'NONE',  ( -1.000000000000000000, -0.000000000000000000, 3.708953083594430305E-17 ) ) ;
#348 = EDGE_CURVE ( 'NONE', #865, #874, #926, .T. ) ;
#349 = ORIENTED_EDGE ( 'NONE', *, *, #877, .T. ) ;
#350 = CARTESIAN_POINT ( 'NONE',  ( 13.00000000000000000, 0.5999999999999999778, -1.042814658491186375 ) ) ;
#351 = CARTESIAN_POINT ( 'NONE',  ( 12.19999999999999929, 0.2999999999999999889, -1.642814658491186686 ) ) ;
#352 = UNCERTAINTY_MEASURE_WITH_UNIT (LENGTH_MEASURE( 1.000000000000000082E-05 ), #90, 'distance_accuracy_value', 'NONE');
#353 = VERTEX_POINT ( 'NONE', #581 ) ;
#354 = EDGE_CURVE ( 'NONE', #871, #365, #557, .T. ) ;
#355 = CARTESIAN_POINT ( 'NONE',  ( 2.322875655532296246, 0.000000000000000000, 0.4571853415088132921 ) ) ;
#356 = LINE ( 'NONE', #646, #391 ) ;
#357 = PLANE ( 'NONE',  #513 ) ;
#358 = CARTESIAN_POINT ( 'NONE',  ( 11.67712434446770331, 0.5999999999999999778, 0.4571853415088136252 ) ) ;
#359 = PLANE ( 'NONE',  #547 ) ;
#360 = CARTESIAN_POINT ( 'NONE',  ( 12.19999999999999751, 0.5999999999999999778, -0.4428146584911897277 ) ) ;
#361 = AXIS2_PLACEMENT_3D ( 'NONE', #627, #706, #476 ) ;
#362 = VECTOR ( 'NONE', #154, 100.0000000000000000 ) ;
#363 = VERTEX_POINT ( 'NONE', #503 ) ;
#364 = DIRECTION ( 'NONE',  ( 0.000000000000000000, 0.000000000000000000, -1.000000000000000000 ) ) ;
#365 = VERTEX_POINT ( 'NONE', #524 ) ;
#366 = DIRECTION ( 'NONE',  ( -0.000000000000000000, -1.000000000000000000, 0.000000000000000000 ) ) ;
#367 = CYLINDRICAL_SURFACE ( 'NONE', #324, 1.000000000000000444 ) ;
#368 = EDGE_CURVE ( 'NONE', #281, #641, #466, .T. ) ;
#369 = VERTEX_POINT ( 'NONE', #730 ) ;
#370 = CARTESIAN_POINT ( 'NONE',  ( 1.661437827766148345, 0.2999999999999999889, -0.2928146584911862638 ) ) ;
#371 = COORDINATED_UNIVERSAL_TIME_OFFSET ( 9, 0, .AHEAD. ) ;
#372 = CARTESIAN_POINT ( 'NONE',  ( 13.00000000000000000, 0.5999999999999999778, -1.042814658491186375 ) ) ;
#373 = ORIENTED_EDGE ( 'NONE', *, *, #923, .T. ) ;
#374 = DIRECTION ( 'NONE',  ( -0.000000000000000000, -1.000000000000000000, -0.000000000000000000 ) ) ;
#375 = EDGE_LOOP ( 'NONE', ( #695, #895, #135, #108, #942, #763, #902, #381 ) ) ;
#376 = CARTESIAN_POINT ( 'NONE',  ( 2.600000000000001421, 0.5999999999999999778, 0.1571853415088128592 ) ) ;
#377 = DIRECTION ( 'NONE',  ( -1.000000000000000000, 0.000000000000000000, -0.000000000000000000 ) ) ;
#378 = AXIS2_PLACEMENT_3D ( 'NONE', #71, #59, #659 ) ;
#379 = CARTESIAN_POINT ( 'NONE',  ( 12.33856217223385165, 0.5999999999999999778, -1.792814658491186819 ) ) ;
#380 = CALENDAR_DATE ( 2024, 26, 9 ) ;
#381 = ORIENTED_EDGE ( 'NONE', *, *, #919, .F. ) ;
#382 = EDGE_CURVE ( 'NONE', #526, #602, #144, .T. ) ;
#383 = LINE ( 'NONE', #462, #103 ) ;
#384 = CARTESIAN_POINT ( 'NONE',  ( 11.39999999999999858, 0.2999999999999999889, -2.242814658491186552 ) ) ;
#385 = ORIENTED_EDGE ( 'NONE', *, *, #315, .T. ) ;
#386 = LINE ( 'NONE', #177, #569 ) ;
#387 = ORIENTED_EDGE ( 'NONE', *, *, #679, .T. ) ;
#388 = CARTESIAN_POINT ( 'NONE',  ( 11.39999999999999325, 0.2999999999999999889, -0.8428146584911930805 ) ) ;
#389 = LINE ( 'NONE', #394, #187 ) ;
#390 = AXIS2_PLACEMENT_3D ( 'NONE', #490, #183, #420 ) ;
#391 = VECTOR ( 'NONE', #227, 100.0000000000000000 ) ;
#392 = ORGANIZATION ( 'UNSPECIFIED', 'UNSPECIFIED', '' ) ;
#393 = DIRECTION ( 'NONE',  ( 1.000000000000000000, 0.000000000000000000, 0.000000000000000000 ) ) ;
#394 = CARTESIAN_POINT ( 'NONE',  ( 2.322875655532296246, 0.2999999999999999889, -0.5428146584911867079 ) ) ;
#395 = EDGE_CURVE ( 'NONE', #874, #865, #165, .T. ) ;
#396 = EDGE_LOOP ( 'NONE', ( #676, #460, #311, #715 ) ) ;
#397 = CARTESIAN_POINT ( 'NONE',  ( 2.322875655532296246, 0.000000000000000000, -0.5428146584911867079 ) ) ;
#398 = EDGE_CURVE ( 'NONE', #353, #143, #335, .T. ) ;
#399 = ORIENTED_EDGE ( 'NONE', *, *, #320, .T. ) ;
#400 = DIRECTION ( 'NONE',  ( 0.000000000000000000, -1.000000000000000000, 0.000000000000000000 ) ) ;
#401 = ORIENTED_EDGE ( 'NONE', *, *, #56, .F. ) ;
#402 = CIRCLE ( 'NONE', #533, 1.000000000000000222 ) ;
#403 = EDGE_CURVE ( 'NONE', #847, #819, #859, .T. ) ;
#404 = CIRCLE ( 'NONE', #535, 1.000000000000000888 ) ;
#405 = CARTESIAN_POINT ( 'NONE',  ( 0.9999999999999995559, 0.5999999999999999778, -1.042814658491186375 ) ) ;
#406 = CARTESIAN_POINT ( 'NONE',  ( 2.322875655532296246, 0.000000000000000000, -2.542814658491185931 ) ) ;
#407 = CARTESIAN_POINT ( 'NONE',  ( 2.322875655532296246, 0.000000000000000000, -1.542814658491186153 ) ) ;
#408 = ORIENTED_EDGE ( 'NONE', *, *, #96, .F. ) ;
#409 = DIRECTION ( 'NONE',  ( 0.000000000000000000, 1.000000000000000000, 0.000000000000000000 ) ) ;
#410 = ORIENTED_EDGE ( 'NONE', *, *, #30, .F. ) ;
#411 = DIRECTION ( 'NONE',  ( 0.000000000000000000, 0.000000000000000000, 1.000000000000000000 ) ) ;
#412 = DIRECTION ( 'NONE',  ( 0.000000000000000000, 0.000000000000000000, 1.000000000000000000 ) ) ;
#413 = EDGE_CURVE ( 'NONE', #907, #931, #514, .T. ) ;
#414 = ORIENTED_EDGE ( 'NONE', *, *, #488, .F. ) ;
#415 = CIRCLE ( 'NONE', #697, 1.000000000000000222 ) ;
#416 = DIRECTION ( 'NONE',  ( 1.000000000000000000, 0.000000000000000000, -6.308085367188395171E-16 ) ) ;
#417 = AXIS2_PLACEMENT_3D ( 'NONE', #700, #42, #262 ) ;
#418 = LINE ( 'NONE', #922, #128 ) ;
#419 = FACE_OUTER_BOUND ( 'NONE', #22, .T. ) ;
#420 = DIRECTION ( 'NONE',  ( 0.000000000000000000, 0.000000000000000000, 1.000000000000000000 ) ) ;
#421 = FACE_OUTER_BOUND ( 'NONE', #265, .T. ) ;
#422 = EDGE_LOOP ( 'NONE', ( #499, #300, #323, #786, #414, #868, #457, #577 ) ) ;
#423 = DIRECTION ( 'NONE',  ( 0.000000000000000000, 0.000000000000000000, 1.000000000000000000 ) ) ;
#424 = ORIENTED_EDGE ( 'NONE', *, *, #573, .T. ) ;
#425 = ORIENTED_EDGE ( 'NONE', *, *, #579, .F. ) ;
#426 = CARTESIAN_POINT ( 'NONE',  ( 12.33856217223385165, 0.000000000000000000, -1.792814658491186819 ) ) ;
#427 = DIRECTION ( 'NONE',  ( -0.000000000000000000, 1.000000000000000000, -0.000000000000000000 ) ) ;
#428 = DIRECTION ( 'NONE',  ( -0.000000000000000000, -1.000000000000000000, -0.000000000000000000 ) ) ;
#429 = LINE ( 'NONE', #379, #608 ) ;
#430 = APPROVAL_ROLE ( '' ) ;
#431 = EDGE_CURVE ( 'NONE', #338, #818, #247, .T. ) ;
#432 = CARTESIAN_POINT ( 'NONE',  ( 2.600000000000000977, 0.2999999999999999889, -0.8428146584911871964 ) ) ;
#433 = AXIS2_PLACEMENT_3D ( 'NONE', #201, #595, #656 ) ;
#434 = FACE_OUTER_BOUND ( 'NONE', #153, .T. ) ;
#435 = CIRCLE ( 'NONE', #548, 0.6500000000000004663 ) ;
#436 = FACE_OUTER_BOUND ( 'NONE', #615, .T. ) ;
#437 = CARTESIAN_POINT ( 'NONE',  ( 11.67712434446770331, 0.000000000000000000, -2.542814658491186819 ) ) ;
#438 = PERSON_AND_ORGANIZATION_ROLE ( 'creator' ) ;
#439 = AXIS2_PLACEMENT_3D ( 'NONE', #814, #604, #453 ) ;
#440 = DIRECTION ( 'NONE',  ( 0.000000000000000000, 0.000000000000000000, -1.000000000000000000 ) ) ;
#441 = CARTESIAN_POINT ( 'NONE',  ( 1.661437827766147901, 0.5999999999999999778, -1.792814658491186375 ) ) ;
#442 = DIRECTION ( 'NONE',  ( 0.000000000000000000, 0.000000000000000000, 1.000000000000000000 ) ) ;
#443 = PERSON_AND_ORGANIZATION ( #768, #392 ) ;
#444 = VERTEX_POINT ( 'NONE', #762 ) ;
#445 = DIRECTION ( 'NONE',  ( 0.000000000000000000, 0.000000000000000000, 1.000000000000000000 ) ) ;
#446 = CC_DESIGN_PERSON_AND_ORGANIZATION_ASSIGNMENT ( #511, #207, ( #809 ) ) ;
#447 = CARTESIAN_POINT ( 'NONE',  ( 11.39999999999999858, 0.5999999999999999778, -2.242814658491186552 ) ) ;
#448 = EDGE_CURVE ( 'NONE', #365, #751, #100, .T. ) ;
#449 = PERSON_AND_ORGANIZATION_ROLE ( 'design_supplier' ) ;
#450 = ORIENTED_EDGE ( 'NONE', *, *, #354, .F. ) ;
#451 = ORIENTED_EDGE ( 'NONE', *, *, #248, .T. ) ;
#452 = CARTESIAN_POINT ( 'NONE',  ( 13.00000000000000000, 0.5999999999999999778, -2.042814658491186819 ) ) ;
#453 = DIRECTION ( 'NONE',  ( 0.000000000000000000, 0.000000000000000000, -1.000000000000000000 ) ) ;
#454 = DIRECTION ( 'NONE',  ( 0.000000000000000000, 1.000000000000000000, 0.000000000000000000 ) ) ;
#455 = ADVANCED_FACE ( 'NONE', ( #91 ), #616, .T. ) ;
#456 = CC_DESIGN_APPROVAL ( #148, ( #161 ) ) ;
#457 = ORIENTED_EDGE ( 'NONE', *, *, #50, .T. ) ;
#458 =( NAMED_UNIT ( * ) SI_UNIT ( $, .STERADIAN. ) SOLID_ANGLE_UNIT ( ) );
#459 = CARTESIAN_POINT ( 'NONE',  ( 11.67712434446770331, 0.2999999999999999889, -0.5428146584911861527 ) ) ;
#460 = ORIENTED_EDGE ( 'NONE', *, *, #72, .T. ) ;
#461 = DIRECTION ( 'NONE',  ( -0.000000000000000000, -1.000000000000000000, -0.000000000000000000 ) ) ;
#462 = CARTESIAN_POINT ( 'NONE',  ( 13.00000000000000000, 0.5999999999999999778, -2.042814658491186819 ) ) ;
#463 = DIRECTION ( 'NONE',  ( -0.000000000000000000, -1.000000000000000000, -0.000000000000000000 ) ) ;
#464 = EDGE_CURVE ( 'NONE', #818, #638, #317, .T. ) ;
#465 = CARTESIAN_POINT ( 'NONE',  ( 2.322875655532296246, 0.2999999999999999889, -1.542814658491186153 ) ) ;
#466 = CIRCLE ( 'NONE', #783, 0.6500000000000004663 ) ;
#467 = VECTOR ( 'NONE', #605, 100.0000000000000000 ) ;
#468 = SECURITY_CLASSIFICATION ( '', '', #576 ) ;
#469 = VERTEX_POINT ( 'NONE', #327 ) ;
#470 = CARTESIAN_POINT ( 'NONE',  ( 2.322875655532296246, 0.5999999999999999778, -0.5428146584911867079 ) ) ;
#471 = ORIENTED_EDGE ( 'NONE', *, *, #30, .T. ) ;
#472 = CARTESIAN_POINT ( 'NONE',  ( 2.600000000000000977, 0.5999999999999999778, -0.8428146584911871964 ) ) ;
#473 = EDGE_CURVE ( 'NONE', #819, #602, #386, .T. ) ;
#474 = VERTEX_POINT ( 'NONE', #459 ) ;
#475 = DIRECTION ( 'NONE',  ( 0.000000000000000000, -0.000000000000000000, -1.000000000000000000 ) ) ;
#476 = DIRECTION ( 'NONE',  ( 0.000000000000000000, 0.000000000000000000, 1.000000000000000000 ) ) ;
#477 = EDGE_CURVE ( 'NONE', #9, #580, #285, .T. ) ;
#478 = ORIENTED_EDGE ( 'NONE', *, *, #773, .T. ) ;
#479 = CIRCLE ( 'NONE', #286, 0.9999999999999998890 ) ;
#480 = LINE ( 'NONE', #113, #683 ) ;
#481 = CIRCLE ( 'NONE', #39, 1.000000000000000888 ) ;
#482 = DIRECTION ( 'NONE',  ( -0.000000000000000000, 1.000000000000000000, -0.000000000000000000 ) ) ;
#483 = ORIENTED_EDGE ( 'NONE', *, *, #431, .F. ) ;
#484 = CARTESIAN_POINT ( 'NONE',  ( 2.322875655532296246, 0.5999999999999999778, -2.542814658491185931 ) ) ;
#485 = CYLINDRICAL_SURFACE ( 'NONE', #361, 1.000000000000000222 ) ;
#486 = ORIENTED_EDGE ( 'NONE', *, *, #339, .T. ) ;
#487 = CARTESIAN_POINT ( 'NONE',  ( 0.9999999999999995559, 0.5999999999999999778, -0.3928146584911859640 ) ) ;
#488 = EDGE_CURVE ( 'NONE', #32, #3, #402, .T. ) ;
#489 = CARTESIAN_POINT ( 'NONE',  ( 13.00000000000000000, 0.000000000000000000, -1.042814658491186375 ) ) ;
#490 = CARTESIAN_POINT ( 'NONE',  ( 13.00000000000000000, 0.2999999999999999889, -1.042814658491186375 ) ) ;
#491 = DESIGN_CONTEXT ( 'detailed design', #903, 'design' ) ;
#492 = CIRCLE ( 'NONE', #196, 1.000000000000000000 ) ;
#493 = AXIS2_PLACEMENT_3D ( 'NONE', #313, #293, #84 ) ;
#494 = CIRCLE ( 'NONE', #570, 0.9999999999999995559 ) ;
#495 = LOCAL_TIME ( 23, 18, 28.00000000000000000, #163 ) ;
#496 = DIRECTION ( 'NONE',  ( 0.000000000000000000, 0.000000000000000000, -1.000000000000000000 ) ) ;
#497 = VERTEX_POINT ( 'NONE', #465 ) ;
#498 = DIRECTION ( 'NONE',  ( -0.000000000000000000, -1.000000000000000000, -0.000000000000000000 ) ) ;
#499 = ORIENTED_EDGE ( 'NONE', *, *, #579, .T. ) ;
#500 = LINE ( 'NONE', #584, #185 ) ;
#501 = LINE ( 'NONE', #65, #771 ) ;
#502 = CYLINDRICAL_SURFACE ( 'NONE', #112, 0.6500000000000015765 ) ;
#503 = CARTESIAN_POINT ( 'NONE',  ( 0.9999999999999995559, 0.5999999999999999778, -1.692814658491186952 ) ) ;
#504 = DATE_AND_TIME ( #8, #635 ) ;
#505 = EDGE_CURVE ( 'NONE', #121, #365, #600, .T. ) ;
#506 = ORIENTED_EDGE ( 'NONE', *, *, #398, .F. ) ;
#507 = ADVANCED_BREP_SHAPE_REPRESENTATION ( '링크_암', ( #295, #28 ), #129 ) ;
#508 = PLANE ( 'NONE',  #916 ) ;
#509 = ORIENTED_EDGE ( 'NONE', *, *, #597, .F. ) ;
#510 = DIRECTION ( 'NONE',  ( 0.000000000000000000, 0.000000000000000000, -1.000000000000000000 ) ) ;
#511 = PERSON_AND_ORGANIZATION ( #768, #392 ) ;
#512 = CARTESIAN_POINT ( 'NONE',  ( 2.322875655532296246, 0.5999999999999999778, -1.542814658491186153 ) ) ;
#513 = AXIS2_PLACEMENT_3D ( 'NONE', #150, #523, #729 ) ;
#514 = CIRCLE ( 'NONE', #244, 1.000000000000000222 ) ;
#515 = DIRECTION ( 'NONE',  ( -0.000000000000000000, -1.000000000000000000, -0.000000000000000000 ) ) ;
#516 = FACE_OUTER_BOUND ( 'NONE', #934, .T. ) ;
#517 = CARTESIAN_POINT ( 'NONE',  ( 13.00000000000000000, 0.000000000000000000, -1.042814658491186375 ) ) ;
#518 = CALENDAR_DATE ( 2024, 26, 9 ) ;
#519 = ORIENTED_EDGE ( 'NONE', *, *, #667, .F. ) ;
#520 = CC_DESIGN_DATE_AND_TIME_ASSIGNMENT ( #601, #582, ( #468 ) ) ;
#521 = EDGE_CURVE ( 'NONE', #641, #281, #770, .T. ) ;
#522 = CARTESIAN_POINT ( 'NONE',  ( 2.600000000000000089, 0.2999999999999999889, -2.242814658491186552 ) ) ;
#523 = DIRECTION ( 'NONE',  ( 3.708953083594429689E-17, 0.000000000000000000, -1.000000000000000000 ) ) ;
#524 = CARTESIAN_POINT ( 'NONE',  ( 0.9999999999999996669, 0.000000000000000000, -0.04281465849118593070 ) ) ;
#525 = DATE_AND_TIME ( #76, #571 ) ;
#526 = VERTEX_POINT ( 'NONE', #888 ) ;
#527 = CARTESIAN_POINT ( 'NONE',  ( 0.9999999999999995559, 0.5999999999999999778, -1.042814658491186375 ) ) ;
#528 = ADVANCED_FACE ( 'NONE', ( #162 ), #830, .T. ) ;
#529 = DIRECTION ( 'NONE',  ( -0.000000000000000000, -1.000000000000000000, -0.000000000000000000 ) ) ;
#530 = APPROVAL_DATE_TIME ( #302, #688 ) ;
#531 = ORIENTED_EDGE ( 'NONE', *, *, #945, .F. ) ;
#532 = VECTOR ( 'NONE', #461, 100.0000000000000000 ) ;
#533 = AXIS2_PLACEMENT_3D ( 'NONE', #384, #901, #693 ) ;
#534 = DIRECTION ( 'NONE',  ( 0.000000000000000000, -1.000000000000000000, -0.000000000000000000 ) ) ;
#535 = AXIS2_PLACEMENT_3D ( 'NONE', #553, #556, #774 ) ;
#536 = EDGE_LOOP ( 'NONE', ( #425, #933, #178, #543 ) ) ;
#537 = CYLINDRICAL_SURFACE ( 'NONE', #837, 1.000000000000000444 ) ;
#538 = CARTESIAN_POINT ( 'NONE',  ( 0.9999999999999996669, 0.5999999999999999778, -0.04281465849118593070 ) ) ;
#539 = EDGE_CURVE ( 'NONE', #444, #871, #910, .T. ) ;
#540 = DIRECTION ( 'NONE',  ( 1.387778780781445281E-15, 0.000000000000000000, 1.000000000000000000 ) ) ;
#541 = DIRECTION ( 'NONE',  ( -0.000000000000000000, 1.000000000000000000, -0.000000000000000000 ) ) ;
#542 = LINE ( 'NONE', #689, #758 ) ;
#543 = ORIENTED_EDGE ( 'NONE', *, *, #19, .F. ) ;
#544 = CARTESIAN_POINT ( 'NONE',  ( 1.800000000000000266, 0.2999999999999999889, -1.642814658491186686 ) ) ;
#545 = CYLINDRICAL_SURFACE ( 'NONE', #439, 0.6500000000000005773 ) ;
#546 = CARTESIAN_POINT ( 'NONE',  ( 2.322875655532296246, 0.2999999999999999889, -2.542814658491185931 ) ) ;
#547 = AXIS2_PLACEMENT_3D ( 'NONE', #432, #639, #416 ) ;
#548 = AXIS2_PLACEMENT_3D ( 'NONE', #98, #454, #824 ) ;
#549 = ORIENTED_EDGE ( 'NONE', *, *, #842, .F. ) ;
#550 = EDGE_CURVE ( 'NONE', #363, #130, #435, .T. ) ;
#551 = CARTESIAN_POINT ( 'NONE',  ( 0.9999999999999995559, 0.000000000000000000, -1.692814658491186952 ) ) ;
#552 = VERTEX_POINT ( 'NONE', #677 ) ;
#553 = CARTESIAN_POINT ( 'NONE',  ( 0.9999999999999995559, 0.2999999999999999889, -1.042814658491186375 ) ) ;
#554 = DIRECTION ( 'NONE',  ( 0.000000000000000000, 0.000000000000000000, 1.000000000000000000 ) ) ;
#555 = VERTEX_POINT ( 'NONE', #894 ) ;
#556 = DIRECTION ( 'NONE',  ( 0.000000000000000000, 1.000000000000000000, 0.000000000000000000 ) ) ;
#557 = CIRCLE ( 'NONE', #343, 1.000000000000000444 ) ;
#558 = ORIENTED_EDGE ( 'NONE', *, *, #368, .F. ) ;
#559 = CIRCLE ( 'NONE', #336, 1.000000000000000666 ) ;
#560 = CARTESIAN_POINT ( 'NONE',  ( 0.9999999999999995559, 0.5999999999999999778, -1.042814658491186375 ) ) ;
#561 = EDGE_CURVE ( 'NONE', #338, #474, #389, .T. ) ;
#562 = DIRECTION ( 'NONE',  ( 0.000000000000000000, 1.000000000000000000, 0.000000000000000000 ) ) ;
#563 = ORIENTED_EDGE ( 'NONE', *, *, #96, .T. ) ;
#564 = ADVANCED_FACE ( 'NONE', ( #759 ), #29, .T. ) ;
#565 = CARTESIAN_POINT ( 'NONE',  ( 1.800000000000000933, 0.2999999999999999889, -0.4428146584911865635 ) ) ;
#566 = DIRECTION ( 'NONE',  ( 0.000000000000000000, -0.000000000000000000, -1.000000000000000000 ) ) ;
#567 = EDGE_LOOP ( 'NONE', ( #136, #857, #712, #736, #921, #237 ) ) ;
#568 = VERTEX_POINT ( 'NONE', #251 ) ;
#569 = VECTOR ( 'NONE', #33, 100.0000000000000000 ) ;
#570 = AXIS2_PLACEMENT_3D ( 'NONE', #522, #284, #440 ) ;
#571 = LOCAL_TIME ( 23, 18, 28.00000000000000000, #889 ) ;
#572 = CYLINDRICAL_SURFACE ( 'NONE', #611, 1.000000000000000444 ) ;
#573 = EDGE_CURVE ( 'NONE', #143, #369, #542, .T. ) ;
#574 = ORIENTED_EDGE ( 'NONE', *, *, #199, .T. ) ;
#575 = DIRECTION ( 'NONE',  ( -0.000000000000000000, -1.000000000000000000, 0.000000000000000000 ) ) ;
#576 = SECURITY_CLASSIFICATION_LEVEL ( 'unclassified' ) ;
#577 = ORIENTED_EDGE ( 'NONE', *, *, #653, .T. ) ;
#578 = CARTESIAN_POINT ( 'NONE',  ( 2.322875655532296246, 0.000000000000000000, -0.5428146584911867079 ) ) ;
#579 = EDGE_CURVE ( 'NONE', #497, #568, #479, .T. ) ;
#580 = VERTEX_POINT ( 'NONE', #168 ) ;
#581 = CARTESIAN_POINT ( 'NONE',  ( 12.19999999999999929, 0.5999999999999999778, -1.642814658491186686 ) ) ;
#582 = DATE_TIME_ROLE ( 'classification_date' ) ;
#583 = EDGE_LOOP ( 'NONE', ( #772, #252 ) ) ;
#584 = CARTESIAN_POINT ( 'NONE',  ( 2.600000000000000977, 0.2999999999999999889, -0.8428146584911871964 ) ) ;
#585 = ORIENTED_EDGE ( 'NONE', *, *, #267, .T. ) ;
#586 = CYLINDRICAL_SURFACE ( 'NONE', #845, 0.9999999999999998890 ) ;
#587 = PERSON_AND_ORGANIZATION ( #768, #392 ) ;
#588 = ORIENTED_EDGE ( 'NONE', *, *, #368, .T. ) ;
#589 = ADVANCED_FACE ( 'NONE', ( #780, #109, #769 ), #182, .T. ) ;
#590 = VECTOR ( 'NONE', #428, 100.0000000000000000 ) ;
#591 = VECTOR ( 'NONE', #7, 100.0000000000000000 ) ;
#592 = DIRECTION ( 'NONE',  ( 0.000000000000000000, -1.000000000000000000, -0.000000000000000000 ) ) ;
#593 = AXIS2_PLACEMENT_3D ( 'NONE', #346, #409, #179 ) ;
#594 = CARTESIAN_POINT ( 'NONE',  ( 2.600000000000001421, 0.2999999999999999889, 0.1571853415088128592 ) ) ;
#595 = DIRECTION ( 'NONE',  ( 0.000000000000000000, 1.000000000000000000, 0.000000000000000000 ) ) ;
#596 = EDGE_LOOP ( 'NONE', ( #935, #53, #132, #642 ) ) ;
#597 = EDGE_CURVE ( 'NONE', #58, #794, #724, .T. ) ;
#598 = CARTESIAN_POINT ( 'NONE',  ( 11.67712434446770331, 0.5999999999999999778, -0.5428146584911861527 ) ) ;
#599 = DIRECTION ( 'NONE',  ( 0.000000000000000000, 0.000000000000000000, -1.000000000000000000 ) ) ;
#600 = LINE ( 'NONE', #538, #114 ) ;
#601 = DATE_AND_TIME ( #518, #495 ) ;
#602 = VERTEX_POINT ( 'NONE', #705 ) ;
#603 = CC_DESIGN_PERSON_AND_ORGANIZATION_ASSIGNMENT ( #876, #449, ( #623 ) ) ;
#604 = DIRECTION ( 'NONE',  ( -0.000000000000000000, -1.000000000000000000, -0.000000000000000000 ) ) ;
#605 = DIRECTION ( 'NONE',  ( -0.000000000000000000, -1.000000000000000000, -0.000000000000000000 ) ) ;
#606 = ORIENTED_EDGE ( 'NONE', *, *, #702, .T. ) ;
#607 = CARTESIAN_POINT ( 'NONE',  ( 0.9999999999999995559, 0.5999999999999999778, -1.042814658491186375 ) ) ;
#608 = VECTOR ( 'NONE', #797, 100.0000000000000000 ) ;
#609 = CARTESIAN_POINT ( 'NONE',  ( 13.00000000000000000, 0.5999999999999999778, -1.042814658491186375 ) ) ;
#610 = EDGE_CURVE ( 'NONE', #3, #143, #275, .T. ) ;
#611 = AXIS2_PLACEMENT_3D ( 'NONE', #654, #944, #496 ) ;
#612 = ORIENTED_EDGE ( 'NONE', *, *, #644, .F. ) ;
#613 = CARTESIAN_POINT ( 'NONE',  ( 0.9999999999999995559, 0.000000000000000000, -1.042814658491186375 ) ) ;
#614 = CARTESIAN_POINT ( 'NONE',  ( 7.000000000000000888, 0.2999999999999999889, -1.042814658491186375 ) ) ;
#615 = EDGE_LOOP ( 'NONE', ( #67, #860, #231, #276 ) ) ;
#616 = CYLINDRICAL_SURFACE ( 'NONE', #36, 1.000000000000000444 ) ;
#617 = APPROVAL ( #746, 'UNSPECIFIED' ) ;
#618 = VERTEX_POINT ( 'NONE', #631 ) ;
#619 = EDGE_CURVE ( 'NONE', #119, #568, #404, .T. ) ;
#620 = DIRECTION ( 'NONE',  ( -0.000000000000000000, -1.000000000000000000, -0.000000000000000000 ) ) ;
#621 = DIRECTION ( 'NONE',  ( 0.000000000000000000, 1.000000000000000000, 0.000000000000000000 ) ) ;
#622 = VECTOR ( 'NONE', #271, 100.0000000000000000 ) ;
#623 = PRODUCT_DEFINITION_FORMATION_WITH_SPECIFIED_SOURCE ( 'ANY', '', #809, .NOT_KNOWN. ) ;
#624 = EDGE_LOOP ( 'NONE', ( #937, #82 ) ) ;
#625 = EDGE_CURVE ( 'NONE', #189, #555, #764, .T. ) ;
#626 = CYLINDRICAL_SURFACE ( 'NONE', #799, 1.000000000000000222 ) ;
#627 = CARTESIAN_POINT ( 'NONE',  ( 11.39999999999999325, 0.2999999999999999889, 0.1571853415088071415 ) ) ;
#628 = ORIENTED_EDGE ( 'NONE', *, *, #303, .F. ) ;
#629 = LINE ( 'NONE', #120, #880 ) ;
#630 = ORIENTED_EDGE ( 'NONE', *, *, #464, .T. ) ;
#631 = CARTESIAN_POINT ( 'NONE',  ( 1.800000000000000266, 0.5999999999999999778, -1.642814658491186686 ) ) ;
#632 = EDGE_CURVE ( 'NONE', #130, #281, #777, .T. ) ;
#633 = CIRCLE ( 'NONE', #242, 0.6500000000000015765 ) ;
#634 = AXIS2_PLACEMENT_3D ( 'NONE', #753, #463, #104 ) ;
#635 = LOCAL_TIME ( 23, 18, 28.00000000000000000, #371 ) ;
#636 = FACE_OUTER_BOUND ( 'NONE', #596, .T. ) ;
#637 = EDGE_CURVE ( 'NONE', #32, #353, #418, .T. ) ;
#638 = VERTEX_POINT ( 'NONE', #116 ) ;
#639 = DIRECTION ( 'NONE',  ( 6.308085367188395171E-16, 0.000000000000000000, 1.000000000000000000 ) ) ;
#640 = LINE ( 'NONE', #808, #362 ) ;
#641 = VERTEX_POINT ( 'NONE', #551 ) ;
#642 = ORIENTED_EDGE ( 'NONE', *, *, #923, .F. ) ;
#643 = ORIENTED_EDGE ( 'NONE', *, *, #122, .T. ) ;
#644 = EDGE_CURVE ( 'NONE', #552, #369, #629, .T. ) ;
#645 = DIRECTION ( 'NONE',  ( -0.000000000000000000, -1.000000000000000000, -0.000000000000000000 ) ) ;
#646 = CARTESIAN_POINT ( 'NONE',  ( 13.00000000000000000, 0.5999999999999999778, -1.692814658491188062 ) ) ;
#647 = CARTESIAN_POINT ( 'NONE',  ( 13.00000000000000000, 0.5999999999999999778, -0.3928146584911849648 ) ) ;
#648 = DIRECTION ( 'NONE',  ( 0.000000000000000000, 1.000000000000000000, 0.000000000000000000 ) ) ;
#649 = ORIENTED_EDGE ( 'NONE', *, *, #644, .T. ) ;
#650 = VECTOR ( 'NONE', #233, 100.0000000000000000 ) ;
#651 = LINE ( 'NONE', #512, #913 ) ;
#652 = AXIS2_PLACEMENT_3D ( 'NONE', #853, #195, #709 ) ;
#653 = EDGE_CURVE ( 'NONE', #292, #497, #38, .T. ) ;
#654 = CARTESIAN_POINT ( 'NONE',  ( 0.9999999999999995559, 0.5999999999999999778, -1.042814658491186375 ) ) ;
#655 = ORIENTED_EDGE ( 'NONE', *, *, #232, .T. ) ;
#656 = DIRECTION ( 'NONE',  ( 0.000000000000000000, 0.000000000000000000, 1.000000000000000000 ) ) ;
#657 = ORIENTED_EDGE ( 'NONE', *, *, #702, .F. ) ;
#658 = ORIENTED_EDGE ( 'NONE', *, *, #637, .F. ) ;
#659 = DIRECTION ( 'NONE',  ( 0.000000000000000000, 0.000000000000000000, -1.000000000000000000 ) ) ;
#660 = DIRECTION ( 'NONE',  ( 0.000000000000000000, -1.000000000000000000, -0.000000000000000000 ) ) ;
#661 = ORIENTED_EDGE ( 'NONE', *, *, #464, .F. ) ;
#662 = CARTESIAN_POINT ( 'NONE',  ( 13.00000000000000000, 0.000000000000000000, -1.042814658491186375 ) ) ;
#663 = PERSON_AND_ORGANIZATION ( #768, #392 ) ;
#664 = DIRECTION ( 'NONE',  ( -0.000000000000000000, -1.000000000000000000, -0.000000000000000000 ) ) ;
#665 = CARTESIAN_POINT ( 'NONE',  ( 2.600000000000001421, 0.2999999999999999889, 0.1571853415088128592 ) ) ;
#666 = DIRECTION ( 'NONE',  ( 0.000000000000000000, 0.000000000000000000, 1.000000000000000000 ) ) ;
#667 = EDGE_CURVE ( 'NONE', #77, #353, #49, .T. ) ;
#668 = VERTEX_POINT ( 'NONE', #192 ) ;
#669 = AXIS2_PLACEMENT_3D ( 'NONE', #283, #140, #801 ) ;
#670 = VECTOR ( 'NONE', #347, 100.0000000000000000 ) ;
#671 = DIRECTION ( 'NONE',  ( -0.000000000000000000, -1.000000000000000000, -0.000000000000000000 ) ) ;
#672 = CARTESIAN_POINT ( 'NONE',  ( 12.19999999999999751, 0.2999999999999999889, -0.4428146584911897277 ) ) ;
#673 = AXIS2_PLACEMENT_3D ( 'NONE', #211, #592, #445 ) ;
#674 = CARTESIAN_POINT ( 'NONE',  ( 12.19999999999999751, 0.2999999999999999889, -0.4428146584911897277 ) ) ;
#675 = PERSON_AND_ORGANIZATION ( #768, #392 ) ;
#676 = ORIENTED_EDGE ( 'NONE', *, *, #757, .F. ) ;
#677 = CARTESIAN_POINT ( 'NONE',  ( 2.600000000000000089, 0.2999999999999999889, -1.242814658491186552 ) ) ;
#678 = ORIENTED_EDGE ( 'NONE', *, *, #632, .F. ) ;
#679 = EDGE_CURVE ( 'NONE', #555, #847, #784, .T. ) ;
#680 = CARTESIAN_POINT ( 'NONE',  ( 0.000000000000000000, 0.000000000000000000, 0.000000000000000000 ) ) ;
#681 = DIRECTION ( 'NONE',  ( -0.000000000000000000, -1.000000000000000000, -0.000000000000000000 ) ) ;
#682 = ORIENTED_EDGE ( 'NONE', *, *, #110, .T. ) ;
#683 = VECTOR ( 'NONE', #620, 100.0000000000000000 ) ;
#684 = LINE ( 'NONE', #598, #650 ) ;
#685 = AXIS2_PLACEMENT_3D ( 'NONE', #517, #155, #735 ) ;
#686 = AXIS2_PLACEMENT_3D ( 'NONE', #560, #562, #412 ) ;
#687 = DIRECTION ( 'NONE',  ( 1.000000000000000000, 0.000000000000000000, 3.708953083594429689E-17 ) ) ;
#688 = APPROVAL ( #294, 'UNSPECIFIED' ) ;
#689 = CARTESIAN_POINT ( 'NONE',  ( 2.600000000000000089, 0.5999999999999999778, -1.242814658491186552 ) ) ;
#690 = ADVANCED_FACE ( 'NONE', ( #337 ), #925, .T. ) ;
#691 = ORIENTED_EDGE ( 'NONE', *, *, #550, .T. ) ;
#692 = CARTESIAN_POINT ( 'NONE',  ( 1.800000000000000266, 0.2999999999999999889, -1.642814658491186686 ) ) ;
#693 = DIRECTION ( 'NONE',  ( 0.000000000000000000, 0.000000000000000000, 1.000000000000000000 ) ) ;
#694 = ADVANCED_FACE ( 'NONE', ( #340 ), #626, .F. ) ;
#695 = ORIENTED_EDGE ( 'NONE', *, *, #752, .T. ) ;
#696 = DIRECTION ( 'NONE',  ( -0.000000000000000000, 1.000000000000000000, -0.000000000000000000 ) ) ;
#697 = AXIS2_PLACEMENT_3D ( 'NONE', #594, #883, #228 ) ;
#698 = AXIS2_PLACEMENT_3D ( 'NONE', #62, #648, #939 ) ;
#699 = EDGE_LOOP ( 'NONE', ( #249, #826, #451, #215 ) ) ;
#700 = CARTESIAN_POINT ( 'NONE',  ( 11.39999999999999325, 0.5999999999999999778, 0.1571853415088071415 ) ) ;
#701 = VERTEX_POINT ( 'NONE', #839 ) ;
#702 = EDGE_CURVE ( 'NONE', #444, #121, #174, .T. ) ;
#703 = DIRECTION ( 'NONE',  ( -0.000000000000000000, 1.000000000000000000, -0.000000000000000000 ) ) ;
#704 = ORIENTED_EDGE ( 'NONE', *, *, #717, .F. ) ;
#705 = CARTESIAN_POINT ( 'NONE',  ( 13.00000000000000000, 0.000000000000000000, -0.04281465849118575723 ) ) ;
#706 = DIRECTION ( 'NONE',  ( -0.000000000000000000, 1.000000000000000000, -0.000000000000000000 ) ) ;
#707 = VECTOR ( 'NONE', #301, 100.0000000000000000 ) ;
#708 = VECTOR ( 'NONE', #47, 100.0000000000000000 ) ;
#709 = DIRECTION ( 'NONE',  ( 0.000000000000000000, 0.000000000000000000, -1.000000000000000000 ) ) ;
#710 = CARTESIAN_POINT ( 'NONE',  ( 11.67712434446770331, 0.2999999999999999889, -2.542814658491186819 ) ) ;
#711 = ADVANCED_FACE ( 'NONE', ( #636 ), #930, .T. ) ;
#712 = ORIENTED_EDGE ( 'NONE', *, *, #448, .T. ) ;
#713 = CARTESIAN_POINT ( 'NONE',  ( 2.600000000000000977, 0.5999999999999999778, -0.8428146584911871964 ) ) ;
#714 = CYLINDRICAL_SURFACE ( 'NONE', #726, 1.000000000000000222 ) ;
#715 = ORIENTED_EDGE ( 'NONE', *, *, #81, .F. ) ;
#716 = CARTESIAN_POINT ( 'NONE',  ( 0.9999999999999995559, 0.5999999999999999778, -1.042814658491186375 ) ) ;
#717 = EDGE_CURVE ( 'NONE', #602, #469, #309, .T. ) ;
#718 = FACE_BOUND ( 'NONE', #624, .T. ) ;
#719 = CARTESIAN_POINT ( 'NONE',  ( 0.9999999999999995559, 0.5999999999999999778, -1.692814658491186952 ) ) ;
#720 = DIRECTION ( 'NONE',  ( -0.000000000000000000, -1.000000000000000000, -0.000000000000000000 ) ) ;
#721 = APPLICATION_PROTOCOL_DEFINITION ( 'international standard', 'config_control_design', 1994, #903 ) ;
#722 = CIRCLE ( 'NONE', #220, 1.000000000000000444 ) ;
#723 = ORIENTED_EDGE ( 'NONE', *, *, #267, .F. ) ;
#724 = CIRCLE ( 'NONE', #69, 1.000000000000000222 ) ;
#725 = LINE ( 'NONE', #565, #782 ) ;
#726 = AXIS2_PLACEMENT_3D ( 'NONE', #10, #427, #873 ) ;
#727 = CC_DESIGN_APPROVAL ( #617, ( #468 ) ) ;
#728 = CARTESIAN_POINT ( 'NONE',  ( 13.00000000000000000, 0.2999999999999999889, -1.042814658491186375 ) ) ;
#729 = DIRECTION ( 'NONE',  ( -1.000000000000000000, 0.000000000000000000, -3.708953083594429689E-17 ) ) ;
#730 = CARTESIAN_POINT ( 'NONE',  ( 2.600000000000000089, 0.5999999999999999778, -1.242814658491186552 ) ) ;
#731 = PERSON_AND_ORGANIZATION ( #768, #392 ) ;
#732 = CYLINDRICAL_SURFACE ( 'NONE', #927, 0.6500000000000015765 ) ;
#733 = ADVANCED_FACE ( 'NONE', ( #421 ), #572, .T. ) ;
#734 = EDGE_LOOP ( 'NONE', ( #519, #373, #585, #628, #40, #257 ) ) ;
#735 = DIRECTION ( 'NONE',  ( 0.000000000000000000, 0.000000000000000000, 1.000000000000000000 ) ) ;
#736 = ORIENTED_EDGE ( 'NONE', *, *, #339, .F. ) ;
#737 = DIRECTION ( 'NONE',  ( 0.000000000000000000, 0.000000000000000000, 1.000000000000000000 ) ) ;
#738 = ADVANCED_FACE ( 'NONE', ( #78 ), #714, .F. ) ;
#739 = LINE ( 'NONE', #308, #591 ) ;
#740 = PERSON_AND_ORGANIZATION ( #768, #392 ) ;
#741 = EDGE_LOOP ( 'NONE', ( #793, #531, #796, #399 ) ) ;
#742 = ORIENTED_EDGE ( 'NONE', *, *, #945, .T. ) ;
#743 = DIRECTION ( 'NONE',  ( 0.000000000000000000, 0.000000000000000000, 1.000000000000000000 ) ) ;
#744 = AXIS2_PLACEMENT_3D ( 'NONE', #126, #400, #475 ) ;
#745 = DIRECTION ( 'NONE',  ( 0.000000000000000000, -0.000000000000000000, 1.000000000000000000 ) ) ;
#746 = APPROVAL_STATUS ( 'not_yet_approved' ) ;
#747 = EDGE_LOOP ( 'NONE', ( #61, #486, #840, #483 ) ) ;
#748 = ADVANCED_FACE ( 'NONE', ( #434 ), #217, .F. ) ;
#749 = CARTESIAN_POINT ( 'NONE',  ( 11.67712434446770331, 0.5999999999999999778, -1.542814658491186597 ) ) ;
#750 = DIRECTION ( 'NONE',  ( 0.000000000000000000, 0.000000000000000000, 1.000000000000000000 ) ) ;
#751 = VERTEX_POINT ( 'NONE', #131 ) ;
#752 = EDGE_CURVE ( 'NONE', #277, #338, #245, .T. ) ;
#753 = CARTESIAN_POINT ( 'NONE',  ( 13.00000000000000000, 0.5999999999999999778, -1.042814658491186375 ) ) ;
#754 = AXIS2_PLACEMENT_3D ( 'NONE', #710, #83, #540 ) ;
#755 = DIRECTION ( 'NONE',  ( 0.000000000000000000, 0.000000000000000000, 1.000000000000000000 ) ) ;
#756 = CIRCLE ( 'NONE', #322, 1.000000000000000222 ) ;
#757 = EDGE_CURVE ( 'NONE', #474, #88, #861, .T. ) ;
#758 = VECTOR ( 'NONE', #255, 100.0000000000000000 ) ;
#759 = FACE_OUTER_BOUND ( 'NONE', #422, .T. ) ;
#760 = LOCAL_TIME ( 23, 18, 28.00000000000000000, #139 ) ;
#761 = ORIENTED_EDGE ( 'NONE', *, *, #521, .F. ) ;
#762 = CARTESIAN_POINT ( 'NONE',  ( 0.9999999999999995559, 0.5999999999999999778, -2.042814658491186819 ) ) ;
#763 = ORIENTED_EDGE ( 'NONE', *, *, #253, .F. ) ;
#764 = LINE ( 'NONE', #472, #166 ) ;
#765 = CC_DESIGN_PERSON_AND_ORGANIZATION_ASSIGNMENT ( #587, #156, ( #623 ) ) ;
#766 = FACE_OUTER_BOUND ( 'NONE', #741, .T. ) ;
#767 = ORIENTED_EDGE ( 'NONE', *, *, #41, .T. ) ;
#768 = PERSON ( 'UNSPECIFIED', 'UNSPECIFIED', 'UNSPECIFIED', ('UNSPECIFIED'), ('UNSPECIFIED'), ('UNSPECIFIED') ) ;
#769 = FACE_BOUND ( 'NONE', #583, .T. ) ;
#770 = CIRCLE ( 'NONE', #147, 0.6500000000000004663 ) ;
#771 = VECTOR ( 'NONE', #795, 100.0000000000000000 ) ;
#772 = ORIENTED_EDGE ( 'NONE', *, *, #348, .T. ) ;
#773 = EDGE_CURVE ( 'NONE', #819, #77, #559, .T. ) ;
#774 = DIRECTION ( 'NONE',  ( 0.000000000000000000, 0.000000000000000000, 1.000000000000000000 ) ) ;
#775 = EDGE_LOOP ( 'NONE', ( #20, #304, #812, #742 ) ) ;
#776 = ADVANCED_FACE ( 'NONE', ( #204, #718, #291 ), #508, .F. ) ;
#777 = LINE ( 'NONE', #123, #344 ) ;
#778 = ORIENTED_EDGE ( 'NONE', *, *, #398, .T. ) ;
#779 = CC_DESIGN_PERSON_AND_ORGANIZATION_ASSIGNMENT ( #675, #222, ( #468 ) ) ;
#780 = FACE_BOUND ( 'NONE', #219, .T. ) ;
#781 = EDGE_CURVE ( 'NONE', #918, #32, #899, .T. ) ;
#782 = VECTOR ( 'NONE', #855, 100.0000000000000000 ) ;
#783 = AXIS2_PLACEMENT_3D ( 'NONE', #213, #787, #145 ) ;
#784 = CIRCLE ( 'NONE', #417, 1.000000000000000222 ) ;
#785 = DIRECTION ( 'NONE',  ( 0.000000000000000000, 1.000000000000000000, 0.000000000000000000 ) ) ;
#786 = ORIENTED_EDGE ( 'NONE', *, *, #816, .F. ) ;
#787 = DIRECTION ( 'NONE',  ( 0.000000000000000000, 1.000000000000000000, 0.000000000000000000 ) ) ;
#788 = ORIENTED_EDGE ( 'NONE', *, *, #816, .T. ) ;
#789 = CARTESIAN_POINT ( 'NONE',  ( 13.00000000000000000, 0.5999999999999999778, -1.042814658491186375 ) ) ;
#790 = DIRECTION ( 'NONE',  ( -0.000000000000000000, -1.000000000000000000, -0.000000000000000000 ) ) ;
#791 = CARTESIAN_POINT ( 'NONE',  ( 11.67712434446770331, 0.2999999999999999889, -1.542814658491186597 ) ) ;
#792 = APPROVAL_ROLE ( '' ) ;
#793 = ORIENTED_EDGE ( 'NONE', *, *, #679, .F. ) ;
#794 = VERTEX_POINT ( 'NONE', #54 ) ;
#795 = DIRECTION ( 'NONE',  ( -1.000000000000000000, -0.000000000000000000, -0.000000000000000000 ) ) ;
#796 = ORIENTED_EDGE ( 'NONE', *, *, #413, .T. ) ;
#797 = DIRECTION ( 'NONE',  ( -0.000000000000000000, -1.000000000000000000, -0.000000000000000000 ) ) ;
#798 = APPROVAL_ROLE ( '' ) ;
#799 = AXIS2_PLACEMENT_3D ( 'NONE', #484, #44, #342 ) ;
#800 = EDGE_CURVE ( 'NONE', #552, #119, #494, .T. ) ;
#801 = DIRECTION ( 'NONE',  ( 0.000000000000000000, 0.000000000000000000, 1.000000000000000000 ) ) ;
#802 = CIRCLE ( 'NONE', #928, 1.000000000000000444 ) ;
#803 = DIRECTION ( 'NONE',  ( 1.734723475976807094E-15, 0.000000000000000000, 1.000000000000000000 ) ) ;
#804 = EDGE_LOOP ( 'NONE', ( #297, #891 ) ) ;
#805 = LINE ( 'NONE', #674, #198 ) ;
#806 = DATE_AND_TIME ( #289, #51 ) ;
#807 = ORIENTED_EDGE ( 'NONE', *, *, #348, .F. ) ;
#808 = CARTESIAN_POINT ( 'NONE',  ( 13.00000000000000000, 0.5999999999999999778, -0.3928146584911849648 ) ) ;
#809 = PRODUCT ( '링크_암', '링크_암', '', ( #93 ) ) ;
#810 = LINE ( 'NONE', #719, #896 ) ;
#811 = FACE_OUTER_BOUND ( 'NONE', #341, .T. ) ;
#812 = ORIENTED_EDGE ( 'NONE', *, *, #253, .T. ) ;
#813 = ORIENTED_EDGE ( 'NONE', *, *, #382, .T. ) ;
#814 = CARTESIAN_POINT ( 'NONE',  ( 0.9999999999999995559, 0.5999999999999999778, -1.042814658491186375 ) ) ;
#815 = DIRECTION ( 'NONE',  ( 0.000000000000000000, 1.000000000000000000, 0.000000000000000000 ) ) ;
#816 = EDGE_CURVE ( 'NONE', #3, #552, #501, .T. ) ;
#817 = COORDINATED_UNIVERSAL_TIME_OFFSET ( 9, 0, .AHEAD. ) ;
#818 = VERTEX_POINT ( 'NONE', #578 ) ;
#819 = VERTEX_POINT ( 'NONE', #73 ) ;
#820 = CIRCLE ( 'NONE', #754, 1.000000000000000222 ) ;
#821 = AXIS2_PLACEMENT_3D ( 'NONE', #609, #815, #905 ) ;
#822 = FACE_OUTER_BOUND ( 'NONE', #747, .T. ) ;
#823 = VECTOR ( 'NONE', #696, 100.0000000000000000 ) ;
#824 = DIRECTION ( 'NONE',  ( 0.000000000000000000, 0.000000000000000000, 1.000000000000000000 ) ) ;
#825 = ADVANCED_FACE ( 'NONE', ( #197 ), #367, .T. ) ;
#826 = ORIENTED_EDGE ( 'NONE', *, *, #63, .T. ) ;
#827 = DIRECTION ( 'NONE',  ( 0.000000000000000000, 0.000000000000000000, -1.000000000000000000 ) ) ;
#828 = DIRECTION ( 'NONE',  ( -0.000000000000000000, -1.000000000000000000, -0.000000000000000000 ) ) ;
#829 = CARTESIAN_POINT ( 'NONE',  ( 2.600000000000000977, 0.2999999999999999889, -0.8428146584911871964 ) ) ;
#830 = CYLINDRICAL_SURFACE ( 'NONE', #634, 1.000000000000000444 ) ;
#831 = ORIENTED_EDGE ( 'NONE', *, *, #81, .T. ) ;
#832 = APPLICATION_CONTEXT ( 'configuration controlled 3d designs of mechanical parts and assemblies' ) ;
#833 = ADVANCED_FACE ( 'NONE', ( #299 ), #732, .F. ) ;
#834 = CARTESIAN_POINT ( 'NONE',  ( 12.33856217223385165, 0.2999999999999999889, -0.2928146584911857087 ) ) ;
#835 = CARTESIAN_POINT ( 'NONE',  ( 2.600000000000000089, 0.2999999999999999889, -1.242814658491186552 ) ) ;
#836 = DIRECTION ( 'NONE',  ( 0.000000000000000000, 0.000000000000000000, 1.000000000000000000 ) ) ;
#837 = AXIS2_PLACEMENT_3D ( 'NONE', #527, #904, #827 ) ;
#838 = EDGE_LOOP ( 'NONE', ( #682, #280, #807, #549 ) ) ;
#839 = CARTESIAN_POINT ( 'NONE',  ( 1.800000000000000933, 0.5999999999999999778, -0.4428146584911865635 ) ) ;
#840 = ORIENTED_EDGE ( 'NONE', *, *, #194, .T. ) ;
#841 = DIRECTION ( 'NONE',  ( -0.000000000000000000, 1.000000000000000000, 0.000000000000000000 ) ) ;
#842 = EDGE_CURVE ( 'NONE', #580, #865, #356, .T. ) ;
#843 = ORIENTED_EDGE ( 'NONE', *, *, #72, .F. ) ;
#844 = DIRECTION ( 'NONE',  ( -0.000000000000000000, -1.000000000000000000, -0.000000000000000000 ) ) ;
#845 = AXIS2_PLACEMENT_3D ( 'NONE', #358, #374, #364 ) ;
#846 = AXIS2_PLACEMENT_3D ( 'NONE', #23, #254, #319 ) ;
#847 = VERTEX_POINT ( 'NONE', #360 ) ;
#848 = LINE ( 'NONE', #544, #622 ) ;
#849 = DIRECTION ( 'NONE',  ( 1.000000000000000000, 0.000000000000000000, -6.308085367188395171E-16 ) ) ;
#850 = CC_DESIGN_PERSON_AND_ORGANIZATION_ASSIGNMENT ( #443, #438, ( #161 ) ) ;
#851 = ORIENTED_EDGE ( 'NONE', *, *, #521, .T. ) ;
#852 = EDGE_CURVE ( 'NONE', #9, #874, #640, .T. ) ;
#853 = CARTESIAN_POINT ( 'NONE',  ( 13.00000000000000000, 0.5999999999999999778, -1.042814658491186375 ) ) ;
#854 = EDGE_LOOP ( 'NONE', ( #506, #658, #111, #164 ) ) ;
#855 = DIRECTION ( 'NONE',  ( -0.000000000000000000, 1.000000000000000000, -0.000000000000000000 ) ) ;
#856 = CARTESIAN_POINT ( 'NONE',  ( 2.322875655532296246, 0.5999999999999999778, -2.542814658491185931 ) ) ;
#857 = ORIENTED_EDGE ( 'NONE', *, *, #505, .T. ) ;
#858 = CARTESIAN_POINT ( 'NONE',  ( 2.322875655532296246, 0.2999999999999999889, -0.5428146584911867079 ) ) ;
#859 = CIRCLE ( 'NONE', #698, 1.000000000000000666 ) ;
#860 = ORIENTED_EDGE ( 'NONE', *, *, #477, .T. ) ;
#861 = CIRCLE ( 'NONE', #673, 0.9999999999999998890 ) ;
#862 = ORIENTED_EDGE ( 'NONE', *, *, #667, .T. ) ;
#863 = VECTOR ( 'NONE', #541, 100.0000000000000000 ) ;
#864 = CARTESIAN_POINT ( 'NONE',  ( 11.67712434446770331, 0.5999999999999999778, -2.542814658491186819 ) ) ;
#865 = VERTEX_POINT ( 'NONE', #279 ) ;
#866 = DIRECTION ( 'NONE',  ( 0.000000000000000000, 0.000000000000000000, 1.000000000000000000 ) ) ;
#867 = DIRECTION ( 'NONE',  ( 0.000000000000000000, 1.000000000000000000, 0.000000000000000000 ) ) ;
#868 = ORIENTED_EDGE ( 'NONE', *, *, #781, .F. ) ;
#869 = CARTESIAN_POINT ( 'NONE',  ( 0.9999999999999995559, 0.000000000000000000, -1.042814658491186375 ) ) ;
#870 = ADVANCED_FACE ( 'NONE', ( #822 ), #27, .F. ) ;
#871 = VERTEX_POINT ( 'NONE', #171 ) ;
#872 = DIRECTION ( 'NONE',  ( 0.000000000000000000, 0.000000000000000000, 1.000000000000000000 ) ) ;
#873 = DIRECTION ( 'NONE',  ( 0.000000000000000000, 0.000000000000000000, 1.000000000000000000 ) ) ;
#874 = VERTEX_POINT ( 'NONE', #909 ) ;
#875 = DIRECTION ( 'NONE',  ( 0.000000000000000000, 1.000000000000000000, 0.000000000000000000 ) ) ;
#876 = PERSON_AND_ORGANIZATION ( #768, #392 ) ;
#877 = EDGE_CURVE ( 'NONE', #130, #363, #37, .T. ) ;
#878 = ORIENTED_EDGE ( 'NONE', *, *, #625, .T. ) ;
#879 = VECTOR ( 'NONE', #681, 100.0000000000000000 ) ;
#880 = VECTOR ( 'NONE', #482, 100.0000000000000000 ) ;
#881 = CC_DESIGN_APPROVAL ( #688, ( #623 ) ) ;
#882 = DIRECTION ( 'NONE',  ( 0.000000000000000000, 0.000000000000000000, -1.000000000000000000 ) ) ;
#883 = DIRECTION ( 'NONE',  ( -0.000000000000000000, -1.000000000000000000, -0.000000000000000000 ) ) ;
#884 = CARTESIAN_POINT ( 'NONE',  ( 0.9999999999999995559, 0.000000000000000000, -0.3928146584911859640 ) ) ;
#885 = ORIENTED_EDGE ( 'NONE', *, *, #886, .T. ) ;
#886 = EDGE_CURVE ( 'NONE', #794, #871, #802, .T. ) ;
#887 = CARTESIAN_POINT ( 'NONE',  ( 12.33856217223385165, 0.2999999999999999889, -1.792814658491187041 ) ) ;
#888 = CARTESIAN_POINT ( 'NONE',  ( 12.33856217223385165, 0.000000000000000000, -0.2928146584911857087 ) ) ;
#889 = COORDINATED_UNIVERSAL_TIME_OFFSET ( 9, 0, .AHEAD. ) ;
#890 = ORIENTED_EDGE ( 'NONE', *, *, #573, .F. ) ;
#891 = ORIENTED_EDGE ( 'NONE', *, *, #877, .F. ) ;
#892 = FACE_OUTER_BOUND ( 'NONE', #6, .T. ) ;
#893 = ADVANCED_FACE ( 'NONE', ( #892 ), #545, .F. ) ;
#894 = CARTESIAN_POINT ( 'NONE',  ( 11.39999999999999325, 0.5999999999999999778, -0.8428146584911930805 ) ) ;
#895 = ORIENTED_EDGE ( 'NONE', *, *, #561, .T. ) ;
#896 = VECTOR ( 'NONE', #55, 100.0000000000000000 ) ;
#897 = AXIS2_PLACEMENT_3D ( 'NONE', #151, #80, #12 ) ;
#898 = DIRECTION ( 'NONE',  ( 0.000000000000000000, 1.000000000000000000, 0.000000000000000000 ) ) ;
#899 = CIRCLE ( 'NONE', #259, 1.000000000000000888 ) ;
#900 = PRODUCT_RELATED_PRODUCT_CATEGORY ( 'detail', '', ( #809 ) ) ;
#901 = DIRECTION ( 'NONE',  ( -0.000000000000000000, -1.000000000000000000, -0.000000000000000000 ) ) ;
#902 = ORIENTED_EDGE ( 'NONE', *, *, #41, .F. ) ;
#903 = APPLICATION_CONTEXT ( 'configuration controlled 3d designs of mechanical parts and assemblies' ) ;
#904 = DIRECTION ( 'NONE',  ( -0.000000000000000000, -1.000000000000000000, -0.000000000000000000 ) ) ;
#905 = DIRECTION ( 'NONE',  ( 0.000000000000000000, 0.000000000000000000, 1.000000000000000000 ) ) ;
#906 = ADVANCED_FACE ( 'NONE', ( #175 ), #326, .T. ) ;
#907 = VERTEX_POINT ( 'NONE', #388 ) ;
#908 = CARTESIAN_POINT ( 'NONE',  ( 13.00000000000000000, 0.5999999999999999778, -1.042814658491186375 ) ) ;
#909 = CARTESIAN_POINT ( 'NONE',  ( 13.00000000000000000, 0.000000000000000000, -0.3928146584911849648 ) ) ;
#910 = LINE ( 'NONE', #21, #467 ) ;
#911 = ADVANCED_FACE ( 'NONE', ( #246 ), #537, .T. ) ;
#912 = ORIENTED_EDGE ( 'NONE', *, *, #403, .T. ) ;
#913 = VECTOR ( 'NONE', #64, 100.0000000000000000 ) ;
#914 = DIRECTION ( 'NONE',  ( 0.000000000000000000, 1.000000000000000000, 0.000000000000000000 ) ) ;
#915 = VECTOR ( 'NONE', #321, 100.0000000000000000 ) ;
#916 = AXIS2_PLACEMENT_3D ( 'NONE', #856, #932, #566 ) ;
#917 = DIRECTION ( 'NONE',  ( 0.000000000000000000, 0.000000000000000000, 1.000000000000000000 ) ) ;
#918 = VERTEX_POINT ( 'NONE', #887 ) ;
#919 = EDGE_CURVE ( 'NONE', #277, #226, #481, .T. ) ;
#920 = DIRECTION ( 'NONE',  ( 0.000000000000000000, 0.000000000000000000, -1.000000000000000000 ) ) ;
#921 = ORIENTED_EDGE ( 'NONE', *, *, #919, .T. ) ;
#922 = CARTESIAN_POINT ( 'NONE',  ( 12.19999999999999929, 0.2999999999999999889, -1.642814658491186686 ) ) ;
#923 = EDGE_CURVE ( 'NONE', #77, #469, #383, .T. ) ;
#924 = EDGE_LOOP ( 'NONE', ( #387, #912, #478, #862, #778, #424, #643, #563, #606, #95, #34, #878 ) ) ;
#925 = PLANE ( 'NONE',  #115 ) ;
#926 = CIRCLE ( 'NONE', #433, 0.6500000000000015765 ) ;
#927 = AXIS2_PLACEMENT_3D ( 'NONE', #789, #664, #882 ) ;
#928 = AXIS2_PLACEMENT_3D ( 'NONE', #613, #898, #234 ) ;
#929 = DIRECTION ( 'NONE',  ( 0.000000000000000000, 0.000000000000000000, -1.000000000000000000 ) ) ;
#930 = CYLINDRICAL_SURFACE ( 'NONE', #652, 1.000000000000000444 ) ;
#931 = VERTEX_POINT ( 'NONE', #672 ) ;
#932 = DIRECTION ( 'NONE',  ( 0.000000000000000000, -1.000000000000000000, 0.000000000000000000 ) ) ;
#933 = ORIENTED_EDGE ( 'NONE', *, *, #127, .T. ) ;
#934 = EDGE_LOOP ( 'NONE', ( #173, #202, #630, #843 ) ) ;
#935 = ORIENTED_EDGE ( 'NONE', *, *, #773, .F. ) ;
#936 = CARTESIAN_POINT ( 'NONE',  ( 2.322875655532296246, 0.2999999999999999889, 0.4571853415088132921 ) ) ;
#937 = ORIENTED_EDGE ( 'NONE', *, *, #110, .F. ) ;
#938 = AXIS2_PLACEMENT_3D ( 'NONE', #376, #671, #755 ) ;
#939 = DIRECTION ( 'NONE',  ( 0.000000000000000000, 0.000000000000000000, 1.000000000000000000 ) ) ;
#940 = CIRCLE ( 'NONE', #390, 1.000000000000000888 ) ;
#941 = ORIENTED_EDGE ( 'NONE', *, *, #180, .F. ) ;
#942 = ORIENTED_EDGE ( 'NONE', *, *, #413, .F. ) ;
#943 = CARTESIAN_POINT ( 'NONE',  ( 0.9999999999999995559, 0.5999999999999999778, -1.042814658491186375 ) ) ;
#944 = DIRECTION ( 'NONE',  ( -0.000000000000000000, -1.000000000000000000, -0.000000000000000000 ) ) ;
#945 = EDGE_CURVE ( 'NONE', #907, #555, #160, .T. ) ;
ENDSEC;
END-ISO-10303-21;
