ISO-10303-21;
HEADER;
FILE_DESCRIPTION (( 'STEP AP203' ),
    '1' );
FILE_NAME ('링크_암컨트롤.STEP',
    '2024-09-26T14:19:10',
    ( '' ),
    ( '' ),
    'SwSTEP 2.0',
    'SolidWorks 2022',
    '' );
FILE_SCHEMA (( 'CONFIG_CONTROL_DESIGN' ));
ENDSEC;

DATA;
#1 = ORIENTED_EDGE ( 'NONE', *, *, #829, .T. ) ;
#2 = DIRECTION ( 'NONE',  ( -0.000000000000000000, -1.000000000000000000, -0.000000000000000000 ) ) ;
#3 = CC_DESIGN_PERSON_AND_ORGANIZATION_ASSIGNMENT ( #865, #282, ( #393 ) ) ;
#4 = DIRECTION ( 'NONE',  ( 0.000000000000000000, 0.000000000000000000, -1.000000000000000000 ) ) ;
#5 = EDGE_CURVE ( 'NONE', #958, #106, #944, .T. ) ;
#6 = ORIENTED_EDGE ( 'NONE', *, *, #489, .F. ) ;
#7 = FACE_OUTER_BOUND ( 'NONE', #291, .T. ) ;
#8 = CARTESIAN_POINT ( 'NONE',  ( 0.000000000000000000, 1.000000000000000000, 0.000000000000000000 ) ) ;
#9 = EDGE_CURVE ( 'NONE', #196, #1047, #527, .T. ) ;
#10 = ORIENTED_EDGE ( 'NONE', *, *, #1019, .F. ) ;
#11 = VECTOR ( 'NONE', #779, 1000.000000000000000 ) ;
#12 = CIRCLE ( 'NONE', #408, 1.500000000000000444 ) ;
#13 = ORIENTED_EDGE ( 'NONE', *, *, #396, .T. ) ;
#14 = DIRECTION ( 'NONE',  ( -0.000000000000000000, -1.000000000000000000, -0.000000000000000000 ) ) ;
#15 = CARTESIAN_POINT ( 'NONE',  ( 0.000000000000000000, 6.000000000000000000, 13.50000000000000000 ) ) ;
#16 = ADVANCED_FACE ( 'NONE', ( #142 ), #394, .F. ) ;
#17 = ORIENTED_EDGE ( 'NONE', *, *, #75, .T. ) ;
#18 = CALENDAR_DATE ( 2024, 26, 9 ) ;
#19 = ORIENTED_EDGE ( 'NONE', *, *, #792, .F. ) ;
#20 = DIRECTION ( 'NONE',  ( 0.000000000000000000, 1.000000000000000000, 0.000000000000000000 ) ) ;
#21 = DIRECTION ( 'NONE',  ( 0.000000000000000000, 0.000000000000000000, -1.000000000000000000 ) ) ;
#22 = ORIENTED_EDGE ( 'NONE', *, *, #368, .T. ) ;
#23 = ORIENTED_EDGE ( 'NONE', *, *, #87, .F. ) ;
#24 = ADVANCED_FACE ( 'NONE', ( #551 ), #462, .T. ) ;
#25 = DIRECTION ( 'NONE',  ( 0.000000000000000000, 1.000000000000000000, 0.000000000000000000 ) ) ;
#26 = CARTESIAN_POINT ( 'NONE',  ( 7.199102425303749442E-14, 6.000000000000000000, -50.13333333333371655 ) ) ;
#27 = ORIENTED_EDGE ( 'NONE', *, *, #662, .T. ) ;
#28 = AXIS2_PLACEMENT_3D ( 'NONE', #97, #351, #269 ) ;
#29 = VERTEX_POINT ( 'NONE', #744 ) ;
#30 = AXIS2_PLACEMENT_3D ( 'NONE', #331, #501, #428 ) ;
#31 = DIRECTION ( 'NONE',  ( 0.000000000000000000, -1.000000000000000000, 0.000000000000000000 ) ) ;
#32 = AXIS2_PLACEMENT_3D ( 'NONE', #475, #729, #667 ) ;
#33 = EDGE_CURVE ( 'NONE', #597, #767, #733, .T. ) ;
#34 = CARTESIAN_POINT ( 'NONE',  ( 7.071067811865463959, 0.000000000000000000, 8.571067811865493269 ) ) ;
#35 = DIRECTION ( 'NONE',  ( 0.000000000000000000, 1.000000000000000000, 0.000000000000000000 ) ) ;
#36 = ORIENTED_EDGE ( 'NONE', *, *, #70, .T. ) ;
#37 = DIRECTION ( 'NONE',  ( 0.000000000000000000, 0.000000000000000000, -1.000000000000000000 ) ) ;
#38 = FACE_BOUND ( 'NONE', #654, .T. ) ;
#39 = EDGE_CURVE ( 'NONE', #157, #454, #307, .T. ) ;
#40 = APPLICATION_CONTEXT ( 'configuration controlled 3d designs of mechanical parts and assemblies' ) ;
#41 = CARTESIAN_POINT ( 'NONE',  ( -39.50000000000000711, 0.000000000000000000, 0.000000000000000000 ) ) ;
#42 = ORIENTED_EDGE ( 'NONE', *, *, #278, .T. ) ;
#43 = DIRECTION ( 'NONE',  ( 0.000000000000000000, 1.000000000000000000, 0.000000000000000000 ) ) ;
#44 = DIRECTION ( 'NONE',  ( 0.000000000000000000, 0.000000000000000000, 1.000000000000000000 ) ) ;
#45 = DESIGN_CONTEXT ( 'detailed design', #557, 'design' ) ;
#46 = CARTESIAN_POINT ( 'NONE',  ( -11.50754242809270878, 6.000000000000000000, -4.881236243580350909 ) ) ;
#47 = EDGE_LOOP ( 'NONE', ( #22, #112, #410, #917 ) ) ;
#48 = LINE ( 'NONE', #148, #608 ) ;
#49 = VECTOR ( 'NONE', #478, 1000.000000000000000 ) ;
#50 = CYLINDRICAL_SURFACE ( 'NONE', #140, 1.499999999999999556 ) ;
#51 = AXIS2_PLACEMENT_3D ( 'NONE', #537, #113, #554 ) ;
#52 = DIRECTION ( 'NONE',  ( 0.000000000000000000, 1.000000000000000000, 0.000000000000000000 ) ) ;
#53 = ORIENTED_EDGE ( 'NONE', *, *, #760, .F. ) ;
#54 = DIRECTION ( 'NONE',  ( -0.000000000000000000, -1.000000000000000000, -0.000000000000000000 ) ) ;
#55 = EDGE_CURVE ( 'NONE', #106, #832, #1000, .T. ) ;
#56 = DIRECTION ( 'NONE',  ( -0.000000000000000000, -1.000000000000000000, -0.000000000000000000 ) ) ;
#57 = CARTESIAN_POINT ( 'NONE',  ( 7.071067811865463959, 6.000000000000000000, 7.071067811865491493 ) ) ;
#58 = VERTEX_POINT ( 'NONE', #205 ) ;
#59 = CARTESIAN_POINT ( 'NONE',  ( -13.34874921658756186, 2.000000000000000000, 5.662234042553222046 ) ) ;
#60 = EDGE_CURVE ( 'NONE', #699, #189, #568, .T. ) ;
#61 = DIRECTION ( 'NONE',  ( 0.000000000000000000, 0.000000000000000000, -1.000000000000000000 ) ) ;
#62 = VERTEX_POINT ( 'NONE', #223 ) ;
#63 = CYLINDRICAL_SURFACE ( 'NONE', #191, 1.499999999999999556 ) ;
#64 = DIRECTION ( 'NONE',  ( -0.000000000000000000, -1.000000000000000000, -0.000000000000000000 ) ) ;
#65 = CIRCLE ( 'NONE', #693, 2.000000000000003109 ) ;
#66 = CIRCLE ( 'NONE', #732, 6.500000000000000888 ) ;
#67 = AXIS2_PLACEMENT_3D ( 'NONE', #59, #43, #574 ) ;
#68 = EDGE_LOOP ( 'NONE', ( #585, #602, #828, #565 ) ) ;
#69 = FACE_OUTER_BOUND ( 'NONE', #161, .T. ) ;
#70 = EDGE_CURVE ( 'NONE', #699, #366, #653, .T. ) ;
#71 = ORIENTED_EDGE ( 'NONE', *, *, #768, .T. ) ;
#72 = DIRECTION ( 'NONE',  ( 0.000000000000000000, 0.000000000000000000, 1.000000000000000000 ) ) ;
#73 = CYLINDRICAL_SURFACE ( 'NONE', #283, 108.7666666666674757 ) ;
#74 = CARTESIAN_POINT ( 'NONE',  ( 0.000000000000000000, 0.000000000000000000, 0.000000000000000000 ) ) ;
#75 = EDGE_CURVE ( 'NONE', #703, #1014, #531, .T. ) ;
#76 = VERTEX_POINT ( 'NONE', #46 ) ;
#77 = DIRECTION ( 'NONE',  ( 0.000000000000000000, 0.000000000000000000, -1.000000000000000000 ) ) ;
#78 = CARTESIAN_POINT ( 'NONE',  ( -39.50000000000000711, 6.000000000000000000, 0.000000000000000000 ) ) ;
#79 = DIRECTION ( 'NONE',  ( -0.000000000000000000, -1.000000000000000000, -0.000000000000000000 ) ) ;
#80 = CIRCLE ( 'NONE', #933, 1.500000000000001332 ) ;
#81 = AXIS2_PLACEMENT_3D ( 'NONE', #816, #883, #316 ) ;
#82 = AXIS2_PLACEMENT_3D ( 'NONE', #672, #576, #841 ) ;
#83 = ORIENTED_EDGE ( 'NONE', *, *, #596, .F. ) ;
#84 = AXIS2_PLACEMENT_3D ( 'NONE', #984, #660, #1057 ) ;
#85 = COORDINATED_UNIVERSAL_TIME_OFFSET ( 9, 0, .AHEAD. ) ;
#86 = LOCAL_TIME ( 23, 19, 10.00000000000000000, #758 ) ;
#87 = EDGE_CURVE ( 'NONE', #874, #454, #80, .T. ) ;
#88 = CARTESIAN_POINT ( 'NONE',  ( 1.439820485060749888E-13, 2.000000000000000000, 100.2666666666674331 ) ) ;
#89 = DIRECTION ( 'NONE',  ( 0.000000000000000000, 0.000000000000000000, 1.000000000000000000 ) ) ;
#90 = EDGE_LOOP ( 'NONE', ( #782, #95, #404, #503 ) ) ;
#91 = CYLINDRICAL_SURFACE ( 'NONE', #698, 6.500000000000000888 ) ;
#92 = DIRECTION ( 'NONE',  ( 0.000000000000000000, 0.000000000000000000, 1.000000000000000000 ) ) ;
#93 = CARTESIAN_POINT ( 'NONE',  ( 0.000000000000000000, 6.000000000000000000, 13.50000000000000000 ) ) ;
#94 = ORIENTED_EDGE ( 'NONE', *, *, #55, .F. ) ;
#95 = ORIENTED_EDGE ( 'NONE', *, *, #143, .F. ) ;
#96 = DIRECTION ( 'NONE',  ( 0.000000000000000000, 0.000000000000000000, 1.000000000000000000 ) ) ;
#97 = CARTESIAN_POINT ( 'NONE',  ( -13.34874921658756186, 2.000000000000000000, 5.662234042553222046 ) ) ;
#98 = CIRCLE ( 'NONE', #319, 6.500000000000000888 ) ;
#99 = DIRECTION ( 'NONE',  ( -0.000000000000000000, -1.000000000000000000, -0.000000000000000000 ) ) ;
#100 = SHAPE_DEFINITION_REPRESENTATION ( #637, #815 ) ;
#101 = CIRCLE ( 'NONE', #802, 108.7666666666674757 ) ;
#102 = EDGE_LOOP ( 'NONE', ( #635, #356, #361, #1027 ) ) ;
#103 = CYLINDRICAL_SURFACE ( 'NONE', #121, 2.000000000000003109 ) ;
#104 = CARTESIAN_POINT ( 'NONE',  ( -32.43052914325537728, 2.000000000000000000, 2.504512288976880718 ) ) ;
#105 = EDGE_CURVE ( 'NONE', #62, #767, #915, .T. ) ;
#106 = VERTEX_POINT ( 'NONE', #966 ) ;
#107 = ORIENTED_EDGE ( 'NONE', *, *, #555, .T. ) ;
#108 = DIRECTION ( 'NONE',  ( -0.000000000000000000, -1.000000000000000000, -0.000000000000000000 ) ) ;
#109 = PLANE ( 'NONE',  #153 ) ;
#110 = ORIENTED_EDGE ( 'NONE', *, *, #365, .F. ) ;
#111 = EDGE_CURVE ( 'NONE', #983, #689, #1018, .T. ) ;
#112 = ORIENTED_EDGE ( 'NONE', *, *, #342, .T. ) ;
#113 = DIRECTION ( 'NONE',  ( -0.000000000000000000, -1.000000000000000000, -0.000000000000000000 ) ) ;
#114 = DIRECTION ( 'NONE',  ( 0.000000000000000000, 1.000000000000000000, 0.000000000000000000 ) ) ;
#115 = DIRECTION ( 'NONE',  ( 0.000000000000000000, 0.000000000000000000, -1.000000000000000000 ) ) ;
#116 = AXIS2_PLACEMENT_3D ( 'NONE', #513, #859, #4 ) ;
#117 = APPROVAL ( #1091, 'UNSPECIFIED' ) ;
#118 = EDGE_LOOP ( 'NONE', ( #798, #894 ) ) ;
#119 = AXIS2_PLACEMENT_3D ( 'NONE', #548, #887, #21 ) ;
#120 = DIRECTION ( 'NONE',  ( 0.000000000000000000, 0.000000000000000000, 1.000000000000000000 ) ) ;
#121 = AXIS2_PLACEMENT_3D ( 'NONE', #784, #14, #701 ) ;
#122 = EDGE_CURVE ( 'NONE', #1014, #1038, #1065, .T. ) ;
#123 = DIRECTION ( 'NONE',  ( 0.000000000000000000, 0.000000000000000000, 1.000000000000000000 ) ) ;
#124 = AXIS2_PLACEMENT_3D ( 'NONE', #383, #397, #975 ) ;
#125 = DIRECTION ( 'NONE',  ( 0.000000000000000000, 1.000000000000000000, 0.000000000000000000 ) ) ;
#126 = VERTEX_POINT ( 'NONE', #468 ) ;
#127 = DIRECTION ( 'NONE',  ( -0.000000000000000000, 1.000000000000000000, -0.000000000000000000 ) ) ;
#128 = DIRECTION ( 'NONE',  ( 0.000000000000000000, 1.000000000000000000, 0.000000000000000000 ) ) ;
#129 = FACE_OUTER_BOUND ( 'NONE', #267, .T. ) ;
#130 = ORIENTED_EDGE ( 'NONE', *, *, #1084, .T. ) ;
#131 = CARTESIAN_POINT ( 'NONE',  ( 1.439820485060749888E-13, 0.000000000000000000, -100.2666666666674331 ) ) ;
#132 = DIRECTION ( 'NONE',  ( 0.000000000000000000, 1.000000000000000000, 0.000000000000000000 ) ) ;
#133 = UNCERTAINTY_MEASURE_WITH_UNIT (LENGTH_MEASURE( 1.000000000000000082E-05 ), #844, 'distance_accuracy_value', 'NONE');
#134 = ADVANCED_FACE ( 'NONE', ( #381 ), #978, .F. ) ;
#135 = DIRECTION ( 'NONE',  ( 0.000000000000000000, 0.000000000000000000, -1.000000000000000000 ) ) ;
#136 = ORIENTED_EDGE ( 'NONE', *, *, #612, .T. ) ;
#137 = DIRECTION ( 'NONE',  ( -0.000000000000000000, -1.000000000000000000, -0.000000000000000000 ) ) ;
#138 = VECTOR ( 'NONE', #1061, 1000.000000000000000 ) ;
#139 = DIRECTION ( 'NONE',  ( 0.000000000000000000, 0.000000000000000000, 1.000000000000000000 ) ) ;
#140 = AXIS2_PLACEMENT_3D ( 'NONE', #228, #146, #61 ) ;
#141 = VECTOR ( 'NONE', #31, 1000.000000000000000 ) ;
#142 = FACE_OUTER_BOUND ( 'NONE', #534, .T. ) ;
#143 = EDGE_CURVE ( 'NONE', #619, #464, #218, .T. ) ;
#144 = VERTEX_POINT ( 'NONE', #727 ) ;
#145 = CARTESIAN_POINT ( 'NONE',  ( 0.000000000000000000, 1.000000000000000000, -7.500000000000000000 ) ) ;
#146 = DIRECTION ( 'NONE',  ( -0.000000000000000000, -1.000000000000000000, -0.000000000000000000 ) ) ;
#147 = ORIENTED_EDGE ( 'NONE', *, *, #111, .F. ) ;
#148 = CARTESIAN_POINT ( 'NONE',  ( 1.439820485060749888E-13, 6.000000000000000000, -13.50000000000002665 ) ) ;
#149 = CARTESIAN_POINT ( 'NONE',  ( 1.439820485060749888E-13, 6.000000000000000000, -100.2666666666674331 ) ) ;
#150 = ORIENTED_EDGE ( 'NONE', *, *, #992, .T. ) ;
#151 = APPROVAL_ROLE ( '' ) ;
#152 = CARTESIAN_POINT ( 'NONE',  ( -32.73146198405267171, 2.000000000000000000, -3.458157624166915856 ) ) ;
#153 = AXIS2_PLACEMENT_3D ( 'NONE', #26, #467, #730 ) ;
#154 = EDGE_CURVE ( 'NONE', #632, #144, #886, .T. ) ;
#155 = CIRCLE ( 'NONE', #372, 113.7666666666674615 ) ;
#156 = CC_DESIGN_APPROVAL ( #117, ( #266 ) ) ;
#157 = VERTEX_POINT ( 'NONE', #640 ) ;
#158 = DIRECTION ( 'NONE',  ( 0.000000000000000000, 0.000000000000000000, 1.000000000000000000 ) ) ;
#159 = CARTESIAN_POINT ( 'NONE',  ( -32.73146198405265750, 2.000000000000000000, -3.458157624166888322 ) ) ;
#160 = ADVANCED_FACE ( 'NONE', ( #129 ), #827, .F. ) ;
#161 = EDGE_LOOP ( 'NONE', ( #811, #265, #924, #232 ) ) ;
#162 = CALENDAR_DATE ( 2024, 26, 9 ) ;
#163 = FACE_OUTER_BOUND ( 'NONE', #1020, .T. ) ;
#164 = FACE_OUTER_BOUND ( 'NONE', #718, .T. ) ;
#165 = EDGE_CURVE ( 'NONE', #275, #950, #479, .T. ) ;
#166 = ORIENTED_EDGE ( 'NONE', *, *, #33, .T. ) ;
#167 = PERSON_AND_ORGANIZATION ( #168, #212 ) ;
#168 = PERSON ( 'UNSPECIFIED', 'UNSPECIFIED', 'UNSPECIFIED', ('UNSPECIFIED'), ('UNSPECIFIED'), ('UNSPECIFIED') ) ;
#169 = LINE ( 'NONE', #505, #955 ) ;
#170 = CYLINDRICAL_SURFACE ( 'NONE', #116, 7.500000000000000000 ) ;
#171 = CIRCLE ( 'NONE', #800, 7.500000000000000000 ) ;
#172 = CIRCLE ( 'NONE', #1001, 1.499999999999999556 ) ;
#173 = AXIS2_PLACEMENT_3D ( 'NONE', #131, #980, #741 ) ;
#174 = EDGE_LOOP ( 'NONE', ( #622, #673 ) ) ;
#175 = CC_DESIGN_APPROVAL ( #323, ( #618 ) ) ;
#176 = EDGE_CURVE ( 'NONE', #989, #665, #663, .T. ) ;
#177 = CARTESIAN_POINT ( 'NONE',  ( -13.34874921658756186, 2.000000000000000000, 5.662234042553222046 ) ) ;
#178 = CARTESIAN_POINT ( 'NONE',  ( -7.071067811865463959, 6.000000000000000000, -5.571067811865485275 ) ) ;
#179 = EDGE_LOOP ( 'NONE', ( #382, #545 ) ) ;
#180 = ORIENTED_EDGE ( 'NONE', *, *, #450, .T. ) ;
#181 = CARTESIAN_POINT ( 'NONE',  ( -39.50000000000000711, 6.000000000000000000, 0.000000000000000000 ) ) ;
#182 = DIRECTION ( 'NONE',  ( -0.000000000000000000, -1.000000000000000000, -0.000000000000000000 ) ) ;
#183 = CARTESIAN_POINT ( 'NONE',  ( 0.000000000000000000, 6.000000000000000000, -6.500000000000000888 ) ) ;
#184 = ORIENTED_EDGE ( 'NONE', *, *, #768, .F. ) ;
#185 = FACE_OUTER_BOUND ( 'NONE', #219, .T. ) ;
#186 = DIRECTION ( 'NONE',  ( 0.000000000000000000, 1.000000000000000000, 0.000000000000000000 ) ) ;
#187 = EDGE_CURVE ( 'NONE', #253, #1024, #417, .T. ) ;
#188 = AXIS2_PLACEMENT_3D ( 'NONE', #1054, #558, #893 ) ;
#189 = VERTEX_POINT ( 'NONE', #159 ) ;
#190 = AXIS2_PLACEMENT_3D ( 'NONE', #813, #204, #279 ) ;
#191 = AXIS2_PLACEMENT_3D ( 'NONE', #899, #137, #482 ) ;
#192 = ORIENTED_EDGE ( 'NONE', *, *, #797, .F. ) ;
#193 = DIRECTION ( 'NONE',  ( 0.000000000000000000, 0.000000000000000000, 1.000000000000000000 ) ) ;
#194 = AXIS2_PLACEMENT_3D ( 'NONE', #854, #333, #77 ) ;
#195 = DIRECTION ( 'NONE',  ( -0.000000000000000000, -1.000000000000000000, -0.000000000000000000 ) ) ;
#196 = VERTEX_POINT ( 'NONE', #335 ) ;
#197 = ORIENTED_EDGE ( 'NONE', *, *, #992, .F. ) ;
#198 = DIRECTION ( 'NONE',  ( 0.000000000000000000, 1.000000000000000000, 0.000000000000000000 ) ) ;
#199 = DIRECTION ( 'NONE',  ( 0.000000000000000000, 0.000000000000000000, 1.000000000000000000 ) ) ;
#200 = ORIENTED_EDGE ( 'NONE', *, *, #60, .T. ) ;
#201 = EDGE_CURVE ( 'NONE', #126, #275, #262, .T. ) ;
#202 = ORIENTED_EDGE ( 'NONE', *, *, #756, .T. ) ;
#203 = DIRECTION ( 'NONE',  ( 0.000000000000000000, 0.000000000000000000, 1.000000000000000000 ) ) ;
#204 = DIRECTION ( 'NONE',  ( 0.000000000000000000, -1.000000000000000000, 0.000000000000000000 ) ) ;
#205 = CARTESIAN_POINT ( 'NONE',  ( -32.73146198405267171, 6.000000000000000000, 3.458157624166888322 ) ) ;
#206 = CIRCLE ( 'NONE', #604, 6.000000000000031086 ) ;
#207 = EDGE_LOOP ( 'NONE', ( #500, #1039, #19, #659 ) ) ;
#208 = AXIS2_PLACEMENT_3D ( 'NONE', #149, #238, #831 ) ;
#209 = DIRECTION ( 'NONE',  ( 0.000000000000000000, 1.000000000000000000, 0.000000000000000000 ) ) ;
#210 = VECTOR ( 'NONE', #346, 1000.000000000000000 ) ;
#211 = DIRECTION ( 'NONE',  ( 0.000000000000000000, 1.000000000000000000, 0.000000000000000000 ) ) ;
#212 = ORGANIZATION ( 'UNSPECIFIED', 'UNSPECIFIED', '' ) ;
#213 = DIRECTION ( 'NONE',  ( 0.000000000000000000, -1.000000000000000000, 0.000000000000000000 ) ) ;
#214 = ORIENTED_EDGE ( 'NONE', *, *, #342, .F. ) ;
#215 = CARTESIAN_POINT ( 'NONE',  ( -39.50000000000000711, 6.000000000000000000, 2.000000000000003109 ) ) ;
#216 = APPROVAL ( #611, 'UNSPECIFIED' ) ;
#217 = LINE ( 'NONE', #152, #11 ) ;
#218 = LINE ( 'NONE', #722, #138 ) ;
#219 = EDGE_LOOP ( 'NONE', ( #764, #817, #878, #542 ) ) ;
#220 = DIRECTION ( 'NONE',  ( 0.000000000000000000, 0.000000000000000000, -1.000000000000000000 ) ) ;
#221 = CARTESIAN_POINT ( 'NONE',  ( 0.000000000000000000, 1.000000000000000000, -7.500000000000000000 ) ) ;
#222 = EDGE_CURVE ( 'NONE', #689, #632, #868, .T. ) ;
#223 = CARTESIAN_POINT ( 'NONE',  ( -39.50000000000000711, 0.000000000000000000, 2.000000000000003109 ) ) ;
#224 = VERTEX_POINT ( 'NONE', #93 ) ;
#225 = CARTESIAN_POINT ( 'NONE',  ( -33.37312525748799885, 2.000000000000000000, -2.170577317113294491 ) ) ;
#226 = AXIS2_PLACEMENT_3D ( 'NONE', #294, #485, #805 ) ;
#227 = AXIS2_PLACEMENT_3D ( 'NONE', #104, #873, #790 ) ;
#228 = CARTESIAN_POINT ( 'NONE',  ( -7.071067811865463959, 6.000000000000000000, -7.071067811865485275 ) ) ;
#229 = AXIS2_PLACEMENT_3D ( 'NONE', #598, #422, #260 ) ;
#230 = CIRCLE ( 'NONE', #305, 1.000000000000000000 ) ;
#231 = LOCAL_TIME ( 23, 19, 10.00000000000000000, #444 ) ;
#232 = ORIENTED_EDGE ( 'NONE', *, *, #222, .F. ) ;
#233 = DIRECTION ( 'NONE',  ( -0.000000000000000000, 1.000000000000000000, -0.000000000000000000 ) ) ;
#234 = CARTESIAN_POINT ( 'NONE',  ( 7.071067811865463959, 6.000000000000000000, -5.571067811865484387 ) ) ;
#235 = ORIENTED_EDGE ( 'NONE', *, *, #9, .T. ) ;
#236 = CARTESIAN_POINT ( 'NONE',  ( -7.071067811865456854, 0.000000000000000000, 5.571067811865492381 ) ) ;
#237 = EDGE_CURVE ( 'NONE', #196, #373, #986, .T. ) ;
#238 = DIRECTION ( 'NONE',  ( 0.000000000000000000, 1.000000000000000000, 0.000000000000000000 ) ) ;
#239 = ORIENTED_EDGE ( 'NONE', *, *, #324, .T. ) ;
#240 = PERSON_AND_ORGANIZATION_ROLE ( 'design_owner' ) ;
#241 = EDGE_LOOP ( 'NONE', ( #610, #329, #837, #359 ) ) ;
#242 = CYLINDRICAL_SURFACE ( 'NONE', #483, 2.000000000000003109 ) ;
#243 = VECTOR ( 'NONE', #821, 1000.000000000000000 ) ;
#244 = CARTESIAN_POINT ( 'NONE',  ( -7.071067811865456854, 6.000000000000000000, 7.071067811865491493 ) ) ;
#245 = CIRCLE ( 'NONE', #902, 2.000000000000003109 ) ;
#246 = AXIS2_PLACEMENT_3D ( 'NONE', #876, #108, #964 ) ;
#247 = VERTEX_POINT ( 'NONE', #615 ) ;
#248 = CARTESIAN_POINT ( 'NONE',  ( -32.73146198405267171, 2.000000000000000000, 3.458157624166888322 ) ) ;
#249 = VERTEX_POINT ( 'NONE', #1094 ) ;
#250 = DIRECTION ( 'NONE',  ( 0.000000000000000000, 1.000000000000000000, 0.000000000000000000 ) ) ;
#251 = DIRECTION ( 'NONE',  ( 0.000000000000000000, 0.000000000000000000, -1.000000000000000000 ) ) ;
#252 = EDGE_CURVE ( 'NONE', #1046, #597, #65, .T. ) ;
#253 = VERTEX_POINT ( 'NONE', #785 ) ;
#254 = PERSON_AND_ORGANIZATION ( #168, #212 ) ;
#255 = CARTESIAN_POINT ( 'NONE',  ( 7.071067811865463959, 6.000000000000000000, -8.571067811865486163 ) ) ;
#256 = LINE ( 'NONE', #15, #571 ) ;
#257 = EDGE_CURVE ( 'NONE', #1082, #58, #943, .T. ) ;
#258 = ORIENTED_EDGE ( 'NONE', *, *, #835, .T. ) ;
#259 = APPROVAL_STATUS ( 'not_yet_approved' ) ;
#260 = DIRECTION ( 'NONE',  ( 0.000000000000000000, 0.000000000000000000, 1.000000000000000000 ) ) ;
#261 = LINE ( 'NONE', #607, #749 ) ;
#262 = CIRCLE ( 'NONE', #970, 13.50000000000000000 ) ;
#263 = CIRCLE ( 'NONE', #440, 6.000000000000031086 ) ;
#264 = CIRCLE ( 'NONE', #246, 6.499999999999872102 ) ;
#265 = ORIENTED_EDGE ( 'NONE', *, *, #477, .T. ) ;
#266 = PRODUCT_DEFINITION_FORMATION_WITH_SPECIFIED_SOURCE ( 'ANY', '', #303, .NOT_KNOWN. ) ;
#267 = EDGE_LOOP ( 'NONE', ( #871, #355, #963, #10 ) ) ;
#268 = CARTESIAN_POINT ( 'NONE',  ( 7.071067811865463959, 6.000000000000000000, -7.071067811865485275 ) ) ;
#269 = DIRECTION ( 'NONE',  ( 0.000000000000000000, 0.000000000000000000, 1.000000000000000000 ) ) ;
#270 = VERTEX_POINT ( 'NONE', #1012 ) ;
#271 = ORIENTED_EDGE ( 'NONE', *, *, #1055, .F. ) ;
#272 = EDGE_CURVE ( 'NONE', #224, #126, #256, .T. ) ;
#273 = CARTESIAN_POINT ( 'NONE',  ( -7.071067811865463959, 6.000000000000000000, -8.571067811865484387 ) ) ;
#274 = DIRECTION ( 'NONE',  ( 0.000000000000000000, 0.000000000000000000, 1.000000000000000000 ) ) ;
#275 = VERTEX_POINT ( 'NONE', #683 ) ;
#276 = ORIENTED_EDGE ( 'NONE', *, *, #650, .T. ) ;
#277 = CARTESIAN_POINT ( 'NONE',  ( -39.50000000000000711, 2.000000000000000000, 0.000000000000000000 ) ) ;
#278 = EDGE_CURVE ( 'NONE', #247, #157, #460, .T. ) ;
#279 = DIRECTION ( 'NONE',  ( 0.000000000000000000, 0.000000000000000000, -1.000000000000000000 ) ) ;
#280 = AXIS2_PLACEMENT_3D ( 'NONE', #41, #125, #647 ) ;
#281 = ORIENTED_EDGE ( 'NONE', *, *, #154, .T. ) ;
#282 = PERSON_AND_ORGANIZATION_ROLE ( 'classification_officer' ) ;
#283 = AXIS2_PLACEMENT_3D ( 'NONE', #88, #942, #96 ) ;
#284 = VECTOR ( 'NONE', #292, 1000.000000000000000 ) ;
#285 = EDGE_LOOP ( 'NONE', ( #180, #974 ) ) ;
#286 = CARTESIAN_POINT ( 'NONE',  ( 1.439820485060749888E-13, 6.000000000000000000, -100.2666666666674331 ) ) ;
#287 = CARTESIAN_POINT ( 'NONE',  ( -7.071067811865463959, 6.000000000000000000, -5.571067811865485275 ) ) ;
#288 = EDGE_CURVE ( 'NONE', #1024, #968, #171, .T. ) ;
#289 = EDGE_CURVE ( 'NONE', #832, #106, #98, .T. ) ;
#290 = EDGE_LOOP ( 'NONE', ( #572, #184, #700, #474 ) ) ;
#291 = EDGE_LOOP ( 'NONE', ( #13, #136, #430, #36 ) ) ;
#292 = DIRECTION ( 'NONE',  ( -0.000000000000000000, -1.000000000000000000, -0.000000000000000000 ) ) ;
#293 = FACE_BOUND ( 'NONE', #796, .T. ) ;
#294 = CARTESIAN_POINT ( 'NONE',  ( 1.439820485060749888E-13, 2.000000000000000000, 100.2666666666674331 ) ) ;
#295 = ORIENTED_EDGE ( 'NONE', *, *, #434, .F. ) ;
#296 = DIRECTION ( 'NONE',  ( 0.000000000000000000, 0.000000000000000000, 1.000000000000000000 ) ) ;
#297 = CARTESIAN_POINT ( 'NONE',  ( 0.000000000000000000, 1.000000000000000000, 0.000000000000000000 ) ) ;
#298 = CARTESIAN_POINT ( 'NONE',  ( -13.59880383819084315, 2.000000000000000000, -7.646540643412788718 ) ) ;
#299 = ADVANCED_FACE ( 'NONE', ( #164 ), #506, .F. ) ;
#300 = VECTOR ( 'NONE', #770, 1000.000000000000000 ) ;
#301 = VERTEX_POINT ( 'NONE', #599 ) ;
#302 = CIRCLE ( 'NONE', #766, 1.000000000000000000 ) ;
#303 = PRODUCT ( '링크_암컨트롤', '링크_암컨트롤', '', ( #997 ) ) ;
#304 = CARTESIAN_POINT ( 'NONE',  ( 1.439820485060749888E-13, 2.000000000000000000, -100.2666666666674331 ) ) ;
#305 = AXIS2_PLACEMENT_3D ( 'NONE', #1052, #1031, #120 ) ;
#306 = CARTESIAN_POINT ( 'NONE',  ( 1.439820485060749888E-13, 6.000000000000000000, 100.2666666666674331 ) ) ;
#307 = LINE ( 'NONE', #897, #49 ) ;
#308 = ORIENTED_EDGE ( 'NONE', *, *, #814, .T. ) ;
#309 = DIRECTION ( 'NONE',  ( -0.000000000000000000, -1.000000000000000000, -0.000000000000000000 ) ) ;
#310 = FACE_OUTER_BOUND ( 'NONE', #487, .T. ) ;
#311 = DIRECTION ( 'NONE',  ( -0.000000000000000000, -1.000000000000000000, -0.000000000000000000 ) ) ;
#312 = ORIENTED_EDGE ( 'NONE', *, *, #829, .F. ) ;
#313 = CARTESIAN_POINT ( 'NONE',  ( -7.071067811865463959, 6.000000000000000000, -7.071067811865485275 ) ) ;
#314 = DIRECTION ( 'NONE',  ( 0.000000000000000000, 0.000000000000000000, 1.000000000000000000 ) ) ;
#315 = ADVANCED_FACE ( 'NONE', ( #931 ), #170, .F. ) ;
#316 = DIRECTION ( 'NONE',  ( 0.000000000000000000, 0.000000000000000000, -1.000000000000000000 ) ) ;
#317 = ORIENTED_EDGE ( 'NONE', *, *, #387, .F. ) ;
#318 = CARTESIAN_POINT ( 'NONE',  ( 0.000000000000000000, 2.000000000000000000, 0.000000000000000000 ) ) ;
#319 = AXIS2_PLACEMENT_3D ( 'NONE', #8, #776, #926 ) ;
#320 = AXIS2_PLACEMENT_3D ( 'NONE', #581, #834, #398 ) ;
#321 = CARTESIAN_POINT ( 'NONE',  ( -39.50000000000000711, 6.000000000000000000, -2.000000000000003109 ) ) ;
#322 =( GEOMETRIC_REPRESENTATION_CONTEXT ( 3 ) GLOBAL_UNCERTAINTY_ASSIGNED_CONTEXT ( ( #133 ) ) GLOBAL_UNIT_ASSIGNED_CONTEXT ( ( #844, #1004, #593 ) ) REPRESENTATION_CONTEXT ( 'NONE', 'WORKASPACE' ) );
#323 = APPROVAL ( #259, 'UNSPECIFIED' ) ;
#324 = EDGE_CURVE ( 'NONE', #787, #619, #206, .T. ) ;
#325 = ORIENTED_EDGE ( 'NONE', *, *, #1013, .F. ) ;
#326 = DIRECTION ( 'NONE',  ( 0.000000000000000000, 0.000000000000000000, -1.000000000000000000 ) ) ;
#327 = CARTESIAN_POINT ( 'NONE',  ( -41.69919579338077398, 6.000000000000000000, -5.582431178472040401 ) ) ;
#328 = EDGE_CURVE ( 'NONE', #1062, #665, #261, .T. ) ;
#329 = ORIENTED_EDGE ( 'NONE', *, *, #525, .T. ) ;
#330 = ORIENTED_EDGE ( 'NONE', *, *, #742, .F. ) ;
#331 = CARTESIAN_POINT ( 'NONE',  ( 7.071067811865463959, 6.000000000000000000, 7.071067811865491493 ) ) ;
#332 = VERTEX_POINT ( 'NONE', #178 ) ;
#333 = DIRECTION ( 'NONE',  ( 0.000000000000000000, 1.000000000000000000, -0.000000000000000000 ) ) ;
#334 = FACE_BOUND ( 'NONE', #559, .T. ) ;
#335 = CARTESIAN_POINT ( 'NONE',  ( -13.34874921658756186, 2.000000000000000000, 7.662234042553222046 ) ) ;
#336 = AXIS2_PLACEMENT_3D ( 'NONE', #297, #369, #714 ) ;
#337 = CIRCLE ( 'NONE', #716, 2.000000000000003109 ) ;
#338 = LOCAL_TIME ( 23, 19, 10.00000000000000000, #879 ) ;
#339 = ORIENTED_EDGE ( 'NONE', *, *, #721, .T. ) ;
#340 = APPROVAL_ROLE ( '' ) ;
#341 = CARTESIAN_POINT ( 'NONE',  ( 7.071067811865463959, 0.000000000000000000, -8.571067811865486163 ) ) ;
#342 = EDGE_CURVE ( 'NONE', #332, #592, #433, .T. ) ;
#343 = CARTESIAN_POINT ( 'NONE',  ( 0.000000000000000000, 0.000000000000000000, 0.000000000000000000 ) ) ;
#344 = EDGE_LOOP ( 'NONE', ( #946, #962, #670, #708, #853, #150, #922, #200, #649 ) ) ;
#345 = CARTESIAN_POINT ( 'NONE',  ( -33.37312525748799885, 6.000000000000000000, 2.170577317113296267 ) ) ;
#346 = DIRECTION ( 'NONE',  ( 0.000000000000000000, -1.000000000000000000, 0.000000000000000000 ) ) ;
#347 = CARTESIAN_POINT ( 'NONE',  ( -39.50000000000000711, 6.000000000000000000, 0.000000000000000000 ) ) ;
#348 = CC_DESIGN_PERSON_AND_ORGANIZATION_ASSIGNMENT ( #849, #240, ( #303 ) ) ;
#349 = EDGE_LOOP ( 'NONE', ( #214, #723, #880, #295 ) ) ;
#350 = FACE_BOUND ( 'NONE', #118, .T. ) ;
#351 = DIRECTION ( 'NONE',  ( 0.000000000000000000, 1.000000000000000000, 0.000000000000000000 ) ) ;
#352 = AXIS2_PLACEMENT_3D ( 'NONE', #851, #79, #424 ) ;
#353 = VECTOR ( 'NONE', #233, 1000.000000000000000 ) ;
#354 = ADVANCED_FACE ( 'NONE', ( #639, #707, #1037, #375, #38, #293, #892, #948 ), #109, .T. ) ;
#355 = ORIENTED_EDGE ( 'NONE', *, *, #688, .T. ) ;
#356 = ORIENTED_EDGE ( 'NONE', *, *, #507, .F. ) ;
#357 = DIRECTION ( 'NONE',  ( -0.000000000000000000, -1.000000000000000000, -0.000000000000000000 ) ) ;
#358 = CARTESIAN_POINT ( 'NONE',  ( 7.071067811865463959, 6.000000000000000000, 7.071067811865491493 ) ) ;
#359 = ORIENTED_EDGE ( 'NONE', *, *, #55, .T. ) ;
#360 = EDGE_CURVE ( 'NONE', #1076, #1047, #783, .T. ) ;
#361 = ORIENTED_EDGE ( 'NONE', *, *, #1084, .F. ) ;
#362 = DIRECTION ( 'NONE',  ( -0.000000000000000000, -1.000000000000000000, -0.000000000000000000 ) ) ;
#363 = CARTESIAN_POINT ( 'NONE',  ( -33.37312525748799885, 6.000000000000000000, -2.170577317113294491 ) ) ;
#364 = EDGE_LOOP ( 'NONE', ( #192, #330, #843, #494 ) ) ;
#365 = EDGE_CURVE ( 'NONE', #968, #1024, #731, .T. ) ;
#366 = VERTEX_POINT ( 'NONE', #801 ) ;
#367 = CARTESIAN_POINT ( 'NONE',  ( -32.43052914325536307, 2.000000000000000000, -2.504512288976882939 ) ) ;
#368 = EDGE_CURVE ( 'NONE', #1056, #332, #750, .T. ) ;
#369 = DIRECTION ( 'NONE',  ( -0.000000000000000000, -1.000000000000000000, -0.000000000000000000 ) ) ;
#370 = CIRCLE ( 'NONE', #1088, 6.500000000000000888 ) ;
#371 = ORIENTED_EDGE ( 'NONE', *, *, #122, .T. ) ;
#372 = AXIS2_PLACEMENT_3D ( 'NONE', #286, #20, #724 ) ;
#373 = VERTEX_POINT ( 'NONE', #808 ) ;
#374 = DIRECTION ( 'NONE',  ( 0.000000000000000000, 0.000000000000000000, 1.000000000000000000 ) ) ;
#375 = FACE_OUTER_BOUND ( 'NONE', #546, .T. ) ;
#376 = ADVANCED_FACE ( 'NONE', ( #795 ), #634, .F. ) ;
#377 = CARTESIAN_POINT ( 'NONE',  ( -7.071067811865456854, 6.000000000000000000, 5.571067811865492381 ) ) ;
#378 = ORIENTED_EDGE ( 'NONE', *, *, #457, .T. ) ;
#379 = CARTESIAN_POINT ( 'NONE',  ( 7.960204194457796463E-16, 1.000000000000000000, 6.500000000000000888 ) ) ;
#380 = DIRECTION ( 'NONE',  ( 0.000000000000000000, 1.000000000000000000, 0.000000000000000000 ) ) ;
#381 = FACE_OUTER_BOUND ( 'NONE', #940, .T. ) ;
#382 = ORIENTED_EDGE ( 'NONE', *, *, #712, .F. ) ;
#383 = CARTESIAN_POINT ( 'NONE',  ( 1.439820485060749888E-13, 2.000000000000000000, -100.2666666666674331 ) ) ;
#384 = DIRECTION ( 'NONE',  ( 0.000000000000000000, 1.000000000000000000, 0.000000000000000000 ) ) ;
#385 = CARTESIAN_POINT ( 'NONE',  ( 7.071067811865463959, 6.000000000000000000, -7.071067811865485275 ) ) ;
#386 = VECTOR ( 'NONE', #99, 1000.000000000000000 ) ;
#387 = EDGE_CURVE ( 'NONE', #189, #989, #916, .T. ) ;
#388 = ORIENTED_EDGE ( 'NONE', *, *, #987, .F. ) ;
#389 = AXIS2_PLACEMENT_3D ( 'NONE', #985, #747, #652 ) ;
#390 = FACE_OUTER_BOUND ( 'NONE', #553, .T. ) ;
#391 = AXIS2_PLACEMENT_3D ( 'NONE', #1072, #309, #220 ) ;
#392 = LINE ( 'NONE', #221, #953 ) ;
#393 = SECURITY_CLASSIFICATION ( '', '', #1028 ) ;
#394 = CYLINDRICAL_SURFACE ( 'NONE', #406, 2.000000000000000000 ) ;
#395 = ORIENTED_EDGE ( 'NONE', *, *, #932, .F. ) ;
#396 = EDGE_CURVE ( 'NONE', #366, #528, #101, .T. ) ;
#397 = DIRECTION ( 'NONE',  ( 0.000000000000000000, 1.000000000000000000, 0.000000000000000000 ) ) ;
#398 = DIRECTION ( 'NONE',  ( 0.000000000000000000, -0.000000000000000000, -1.000000000000000000 ) ) ;
#399 = DIRECTION ( 'NONE',  ( -0.000000000000000000, 1.000000000000000000, -0.000000000000000000 ) ) ;
#400 = ORIENTED_EDGE ( 'NONE', *, *, #525, .F. ) ;
#401 = DIRECTION ( 'NONE',  ( 0.000000000000000000, 0.000000000000000000, 1.000000000000000000 ) ) ;
#402 = DIRECTION ( 'NONE',  ( 0.000000000000000000, 0.000000000000000000, 1.000000000000000000 ) ) ;
#403 = EDGE_CURVE ( 'NONE', #144, #632, #836, .T. ) ;
#404 = ORIENTED_EDGE ( 'NONE', *, *, #324, .F. ) ;
#405 = CARTESIAN_POINT ( 'NONE',  ( 0.000000000000000000, 6.000000000000000000, -6.500000000000000888 ) ) ;
#406 = AXIS2_PLACEMENT_3D ( 'NONE', #564, #399, #810 ) ;
#407 = DIRECTION ( 'NONE',  ( 0.000000000000000000, 0.000000000000000000, -1.000000000000000000 ) ) ;
#408 = AXIS2_PLACEMENT_3D ( 'NONE', #452, #25, #203 ) ;
#409 = EDGE_CURVE ( 'NONE', #1038, #29, #1074, .T. ) ;
#410 = ORIENTED_EDGE ( 'NONE', *, *, #569, .F. ) ;
#411 = APPROVAL_DATE_TIME ( #603, #323 ) ;
#412 = FACE_BOUND ( 'NONE', #623, .T. ) ;
#413 = CC_DESIGN_PERSON_AND_ORGANIZATION_ASSIGNMENT ( #167, #509, ( #266 ) ) ;
#414 = ORIENTED_EDGE ( 'NONE', *, *, #961, .T. ) ;
#415 = DIRECTION ( 'NONE',  ( 1.000000000000000000, 0.000000000000000000, 0.000000000000000000 ) ) ;
#416 = DIRECTION ( 'NONE',  ( 0.000000000000000000, 0.000000000000000000, 1.000000000000000000 ) ) ;
#417 = LINE ( 'NONE', #526, #901 ) ;
#418 = ORIENTED_EDGE ( 'NONE', *, *, #961, .F. ) ;
#419 = DATE_AND_TIME ( #162, #86 ) ;
#420 = ADVANCED_FACE ( 'NONE', ( #530 ), #1049, .F. ) ;
#421 = ORIENTED_EDGE ( 'NONE', *, *, #1045, .F. ) ;
#422 = DIRECTION ( 'NONE',  ( -0.000000000000000000, 1.000000000000000000, -0.000000000000000000 ) ) ;
#423 = AXIS2_PLACEMENT_3D ( 'NONE', #358, #429, #702 ) ;
#424 = DIRECTION ( 'NONE',  ( 0.000000000000000000, 0.000000000000000000, -1.000000000000000000 ) ) ;
#425 = AXIS2_PLACEMENT_3D ( 'NONE', #277, #952, #374 ) ;
#426 = VERTEX_POINT ( 'NONE', #363 ) ;
#427 = DIRECTION ( 'NONE',  ( 0.000000000000000000, 0.000000000000000000, 1.000000000000000000 ) ) ;
#428 = DIRECTION ( 'NONE',  ( 0.000000000000000000, 0.000000000000000000, 1.000000000000000000 ) ) ;
#429 = DIRECTION ( 'NONE',  ( 0.000000000000000000, 1.000000000000000000, 0.000000000000000000 ) ) ;
#430 = ORIENTED_EDGE ( 'NONE', *, *, #60, .F. ) ;
#431 = CARTESIAN_POINT ( 'NONE',  ( -11.50754242809270700, 6.000000000000000000, 4.881236243580355350 ) ) ;
#432 = CYLINDRICAL_SURFACE ( 'NONE', #533, 1.499999999999999556 ) ;
#433 = LINE ( 'NONE', #287, #439 ) ;
#434 = EDGE_CURVE ( 'NONE', #592, #249, #172, .T. ) ;
#435 = ORIENTED_EDGE ( 'NONE', *, *, #5, .F. ) ;
#436 = ORIENTED_EDGE ( 'NONE', *, *, #143, .T. ) ;
#437 = DIRECTION ( 'NONE',  ( -0.000000000000000000, 1.000000000000000000, -0.000000000000000000 ) ) ;
#438 = DIRECTION ( 'NONE',  ( 0.000000000000000000, 0.000000000000000000, -1.000000000000000000 ) ) ;
#439 = VECTOR ( 'NONE', #195, 1000.000000000000000 ) ;
#440 = AXIS2_PLACEMENT_3D ( 'NONE', #644, #211, #471 ) ;
#441 = ADVANCED_FACE ( 'NONE', ( #1053 ), #877, .F. ) ;
#442 = AXIS2_PLACEMENT_3D ( 'NONE', #633, #885, #624 ) ;
#443 = CARTESIAN_POINT ( 'NONE',  ( -13.34874921658756186, 2.000000000000000000, 7.662234042553222046 ) ) ;
#444 = COORDINATED_UNIVERSAL_TIME_OFFSET ( 9, 0, .AHEAD. ) ;
#445 = ORIENTED_EDGE ( 'NONE', *, *, #612, .F. ) ;
#446 = DIRECTION ( 'NONE',  ( -0.000000000000000000, -1.000000000000000000, -0.000000000000000000 ) ) ;
#447 = DIRECTION ( 'NONE',  ( 0.000000000000000000, 0.000000000000000000, 1.000000000000000000 ) ) ;
#448 = EDGE_CURVE ( 'NONE', #950, #464, #263, .T. ) ;
#449 = ORIENTED_EDGE ( 'NONE', *, *, #257, .F. ) ;
#450 = EDGE_CURVE ( 'NONE', #767, #62, #245, .T. ) ;
#451 = VERTEX_POINT ( 'NONE', #459 ) ;
#452 = CARTESIAN_POINT ( 'NONE',  ( 7.071067811865463959, 6.000000000000000000, -7.071067811865485275 ) ) ;
#453 = CARTESIAN_POINT ( 'NONE',  ( -39.50000000000000711, 0.000000000000000000, 0.000000000000000000 ) ) ;
#454 = VERTEX_POINT ( 'NONE', #34 ) ;
#455 = PERSON_AND_ORGANIZATION ( #168, #212 ) ;
#456 = ORIENTED_EDGE ( 'NONE', *, *, #201, .F. ) ;
#457 = EDGE_CURVE ( 'NONE', #366, #76, #461, .T. ) ;
#458 = CARTESIAN_POINT ( 'NONE',  ( -13.59880383819082539, 2.000000000000000000, 7.646540643412788718 ) ) ;
#459 = CARTESIAN_POINT ( 'NONE',  ( 7.960204194457796463E-16, 6.000000000000000000, 6.500000000000000888 ) ) ;
#460 = CIRCLE ( 'NONE', #423, 1.500000000000001332 ) ;
#461 = CIRCLE ( 'NONE', #888, 2.000000000000000000 ) ;
#462 = CYLINDRICAL_SURFACE ( 'NONE', #81, 13.50000000000000000 ) ;
#463 = AXIS2_PLACEMENT_3D ( 'NONE', #367, #437, #706 ) ;
#464 = VERTEX_POINT ( 'NONE', #476 ) ;
#465 = DIRECTION ( 'NONE',  ( 0.000000000000000000, 0.000000000000000000, -1.000000000000000000 ) ) ;
#466 = CC_DESIGN_DATE_AND_TIME_ASSIGNMENT ( #419, #495, ( #618 ) ) ;
#467 = DIRECTION ( 'NONE',  ( 0.000000000000000000, 1.000000000000000000, 0.000000000000000000 ) ) ;
#468 = CARTESIAN_POINT ( 'NONE',  ( 0.000000000000000000, 0.000000000000000000, 13.50000000000000000 ) ) ;
#469 = EDGE_LOOP ( 'NONE', ( #777, #378, #912, #540, #308, #83, #414, #717, #276 ) ) ;
#470 = DIRECTION ( 'NONE',  ( 0.000000000000000000, -1.000000000000000000, 0.000000000000000000 ) ) ;
#471 = DIRECTION ( 'NONE',  ( 0.000000000000000000, 0.000000000000000000, 1.000000000000000000 ) ) ;
#472 = ADVANCED_FACE ( 'NONE', ( #69 ), #1064, .F. ) ;
#473 = DIRECTION ( 'NONE',  ( -0.000000000000000000, 1.000000000000000000, -0.000000000000000000 ) ) ;
#474 = ORIENTED_EDGE ( 'NONE', *, *, #365, .T. ) ;
#475 = CARTESIAN_POINT ( 'NONE',  ( -32.43052914325537728, 6.000000000000000000, 2.504512288976880718 ) ) ;
#476 = CARTESIAN_POINT ( 'NONE',  ( -41.69919579338077398, 0.000000000000000000, 5.582431178472038624 ) ) ;
#477 = EDGE_CURVE ( 'NONE', #983, #144, #991, .T. ) ;
#478 = DIRECTION ( 'NONE',  ( -0.000000000000000000, -1.000000000000000000, -0.000000000000000000 ) ) ;
#479 = CIRCLE ( 'NONE', #1087, 113.7666666666674615 ) ;
#480 = ORIENTED_EDGE ( 'NONE', *, *, #596, .T. ) ;
#481 = AXIS2_PLACEMENT_3D ( 'NONE', #668, #656, #402 ) ;
#482 = DIRECTION ( 'NONE',  ( 0.000000000000000000, 0.000000000000000000, -1.000000000000000000 ) ) ;
#483 = AXIS2_PLACEMENT_3D ( 'NONE', #181, #2, #769 ) ;
#484 = DIRECTION ( 'NONE',  ( -0.000000000000000000, -1.000000000000000000, -0.000000000000000000 ) ) ;
#485 = DIRECTION ( 'NONE',  ( 0.000000000000000000, 1.000000000000000000, 0.000000000000000000 ) ) ;
#486 = ADVANCED_FACE ( 'NONE', ( #412, #310 ), #738, .T. ) ;
#487 = EDGE_LOOP ( 'NONE', ( #71, #890 ) ) ;
#488 = LINE ( 'NONE', #746, #353 ) ;
#489 = EDGE_CURVE ( 'NONE', #979, #968, #392, .T. ) ;
#490 = FACE_OUTER_BOUND ( 'NONE', #102, .T. ) ;
#491 = ORIENTED_EDGE ( 'NONE', *, *, #39, .T. ) ;
#492 = FACE_OUTER_BOUND ( 'NONE', #349, .T. ) ;
#493 = DIRECTION ( 'NONE',  ( 0.000000000000000000, 1.000000000000000000, 0.000000000000000000 ) ) ;
#494 = ORIENTED_EDGE ( 'NONE', *, *, #70, .F. ) ;
#495 = DATE_TIME_ROLE ( 'creation_date' ) ;
#496 = VECTOR ( 'NONE', #696, 1000.000000000000000 ) ;
#497 = CIRCLE ( 'NONE', #208, 108.7666666666674615 ) ;
#498 = CARTESIAN_POINT ( 'NONE',  ( 0.000000000000000000, 6.000000000000000000, 0.000000000000000000 ) ) ;
#499 = CIRCLE ( 'NONE', #84, 1.499999999999999556 ) ;
#500 = ORIENTED_EDGE ( 'NONE', *, *, #201, .T. ) ;
#501 = DIRECTION ( 'NONE',  ( 0.000000000000000000, 1.000000000000000000, 0.000000000000000000 ) ) ;
#502 = CARTESIAN_POINT ( 'NONE',  ( -32.73146198405267882, 2.000000000000000000, 3.458157624166902089 ) ) ;
#503 = ORIENTED_EDGE ( 'NONE', *, *, #507, .T. ) ;
#504 = APPLICATION_PROTOCOL_DEFINITION ( 'international standard', 'config_control_design', 1994, #40 ) ;
#505 = CARTESIAN_POINT ( 'NONE',  ( -11.50754242809270700, 2.000000000000000000, 4.881236243580355350 ) ) ;
#506 = CYLINDRICAL_SURFACE ( 'NONE', #352, 6.500000000000000888 ) ;
#507 = EDGE_CURVE ( 'NONE', #787, #950, #981, .T. ) ;
#508 = ORIENTED_EDGE ( 'NONE', *, *, #742, .T. ) ;
#509 = PERSON_AND_ORGANIZATION_ROLE ( 'design_supplier' ) ;
#510 = AXIS2_PLACEMENT_3D ( 'NONE', #57, #1070, #1086 ) ;
#511 = LINE ( 'NONE', #857, #210 ) ;
#512 = AXIS2_PLACEMENT_3D ( 'NONE', #177, #850, #416 ) ;
#513 = CARTESIAN_POINT ( 'NONE',  ( 0.000000000000000000, 1.000000000000000000, 0.000000000000000000 ) ) ;
#514 = AXIS2_PLACEMENT_3D ( 'NONE', #304, #127, #651 ) ;
#515 = AXIS2_PLACEMENT_3D ( 'NONE', #313, #895, #427 ) ;
#516 = ORIENTED_EDGE ( 'NONE', *, *, #721, .F. ) ;
#517 = PERSON_AND_ORGANIZATION ( #168, #212 ) ;
#518 = ORIENTED_EDGE ( 'NONE', *, *, #712, .T. ) ;
#519 = ADVANCED_FACE ( 'NONE', ( #743 ), #896, .T. ) ;
#520 = CARTESIAN_POINT ( 'NONE',  ( -33.37312525748799885, 2.000000000000000000, 2.170577317113296267 ) ) ;
#521 = CARTESIAN_POINT ( 'NONE',  ( -39.50000000000000711, 6.000000000000000000, 0.000000000000000000 ) ) ;
#522 = ORIENTED_EDGE ( 'NONE', *, *, #932, .T. ) ;
#523 = ORIENTED_EDGE ( 'NONE', *, *, #792, .T. ) ;
#524 = DIRECTION ( 'NONE',  ( -0.000000000000000000, -1.000000000000000000, -0.000000000000000000 ) ) ;
#525 = EDGE_CURVE ( 'NONE', #451, #958, #370, .T. ) ;
#526 = CARTESIAN_POINT ( 'NONE',  ( 9.184850993605147944E-16, 1.000000000000000000, 7.500000000000000000 ) ) ;
#527 = LINE ( 'NONE', #443, #626 ) ;
#528 = VERTEX_POINT ( 'NONE', #1059 ) ;
#529 = LINE ( 'NONE', #620, #575 ) ;
#530 = FACE_OUTER_BOUND ( 'NONE', #884, .T. ) ;
#531 = CIRCLE ( 'NONE', #1040, 1.499999999999999556 ) ;
#532 = CIRCLE ( 'NONE', #1042, 12.49999999999984901 ) ;
#533 = AXIS2_PLACEMENT_3D ( 'NONE', #694, #446, #37 ) ;
#534 = EDGE_LOOP ( 'NONE', ( #1030, #325, #704, #616 ) ) ;
#535 = APPROVAL_ROLE ( '' ) ;
#536 = ORIENTED_EDGE ( 'NONE', *, *, #601, .T. ) ;
#537 = CARTESIAN_POINT ( 'NONE',  ( -13.34874921658756186, 6.000000000000000000, 5.662234042553222046 ) ) ;
#538 = DIRECTION ( 'NONE',  ( 0.000000000000000000, 1.000000000000000000, 0.000000000000000000 ) ) ;
#539 = ADVANCED_FACE ( 'NONE', ( #490 ), #1068, .T. ) ;
#540 = ORIENTED_EDGE ( 'NONE', *, *, #360, .T. ) ;
#541 = DATE_TIME_ROLE ( 'classification_date' ) ;
#542 = ORIENTED_EDGE ( 'NONE', *, *, #1017, .T. ) ;
#543 = CARTESIAN_POINT ( 'NONE',  ( 0.000000000000000000, 1.000000000000000000, 0.000000000000000000 ) ) ;
#544 = CARTESIAN_POINT ( 'NONE',  ( -13.34874921658756186, 6.000000000000000000, 5.662234042553222046 ) ) ;
#545 = ORIENTED_EDGE ( 'NONE', *, *, #252, .F. ) ;
#546 = EDGE_LOOP ( 'NONE', ( #1, #523, #130, #239 ) ) ;
#547 = DIRECTION ( 'NONE',  ( 0.000000000000000000, -1.000000000000000000, 0.000000000000000000 ) ) ;
#548 = CARTESIAN_POINT ( 'NONE',  ( -7.071067811865456854, 6.000000000000000000, 7.071067811865491493 ) ) ;
#549 = AXIS2_PLACEMENT_3D ( 'NONE', #973, #311, #135 ) ;
#550 = VECTOR ( 'NONE', #1078, 1000.000000000000000 ) ;
#551 = FACE_OUTER_BOUND ( 'NONE', #207, .T. ) ;
#552 = CIRCLE ( 'NONE', #67, 2.000000000000000000 ) ;
#553 = EDGE_LOOP ( 'NONE', ( #949, #993, #312, #436 ) ) ;
#554 = DIRECTION ( 'NONE',  ( 0.000000000000000000, 0.000000000000000000, 1.000000000000000000 ) ) ;
#555 = EDGE_CURVE ( 'NONE', #958, #451, #66, .T. ) ;
#556 = DIRECTION ( 'NONE',  ( 0.000000000000000000, 0.000000000000000000, 1.000000000000000000 ) ) ;
#557 = APPLICATION_CONTEXT ( 'configuration controlled 3d designs of mechanical parts and assemblies' ) ;
#558 = DIRECTION ( 'NONE',  ( 0.000000000000000000, 1.000000000000000000, 0.000000000000000000 ) ) ;
#559 = EDGE_LOOP ( 'NONE', ( #110, #848 ) ) ;
#560 = CARTESIAN_POINT ( 'NONE',  ( -13.34874921658756186, 6.000000000000000000, 7.662234042553222046 ) ) ;
#561 = CARTESIAN_POINT ( 'NONE',  ( 0.000000000000000000, 6.000000000000000000, 0.000000000000000000 ) ) ;
#562 = ADVANCED_FACE ( 'NONE', ( #755 ), #661, .T. ) ;
#563 = MANIFOLD_SOLID_BREP ( '필렛2', #645 ) ;
#564 = CARTESIAN_POINT ( 'NONE',  ( -13.34874921658756186, 2.000000000000000000, 5.662234042553222046 ) ) ;
#565 = ORIENTED_EDGE ( 'NONE', *, *, #403, .F. ) ;
#566 = CARTESIAN_POINT ( 'NONE',  ( -13.59880383819082539, 2.000000000000000000, 7.646540643412788718 ) ) ;
#567 = DIRECTION ( 'NONE',  ( 0.000000000000000000, 0.000000000000000000, 1.000000000000000000 ) ) ;
#568 = CIRCLE ( 'NONE', #226, 108.7666666666674757 ) ;
#569 = EDGE_CURVE ( 'NONE', #249, #592, #628, .T. ) ;
#570 = DIRECTION ( 'NONE',  ( 0.000000000000000000, 0.000000000000000000, 1.000000000000000000 ) ) ;
#571 = VECTOR ( 'NONE', #591, 1000.000000000000000 ) ;
#572 = ORIENTED_EDGE ( 'NONE', *, *, #187, .F. ) ;
#573 = AXIS2_PLACEMENT_3D ( 'NONE', #971, #114, #44 ) ;
#574 = DIRECTION ( 'NONE',  ( 0.000000000000000000, 0.000000000000000000, 1.000000000000000000 ) ) ;
#575 = VECTOR ( 'NONE', #357, 1000.000000000000000 ) ;
#576 = DIRECTION ( 'NONE',  ( -0.000000000000000000, -1.000000000000000000, -0.000000000000000000 ) ) ;
#577 = CIRCLE ( 'NONE', #515, 1.499999999999999556 ) ;
#578 = ADVANCED_FACE ( 'NONE', ( #819 ), #50, .F. ) ;
#579 = EDGE_LOOP ( 'NONE', ( #898, #258 ) ) ;
#580 = CYLINDRICAL_SURFACE ( 'NONE', #697, 6.000000000000031086 ) ;
#581 = CARTESIAN_POINT ( 'NONE',  ( 0.000000000000000000, 1.000000000000000000, 0.000000000000000000 ) ) ;
#582 = ORIENTED_EDGE ( 'NONE', *, *, #809, .T. ) ;
#583 = FACE_OUTER_BOUND ( 'NONE', #996, .T. ) ;
#584 = LINE ( 'NONE', #914, #646 ) ;
#585 = ORIENTED_EDGE ( 'NONE', *, *, #477, .F. ) ;
#586 = CARTESIAN_POINT ( 'NONE',  ( 0.000000000000000000, 6.000000000000000000, 0.000000000000000000 ) ) ;
#587 = VECTOR ( 'NONE', #739, 1000.000000000000000 ) ;
#588 = AXIS2_PLACEMENT_3D ( 'NONE', #268, #675, #690 ) ;
#589 = ORIENTED_EDGE ( 'NONE', *, *, #976, .F. ) ;
#590 = CARTESIAN_POINT ( 'NONE',  ( -41.69919579338077398, 6.000000000000000000, 5.582431178472038624 ) ) ;
#591 = DIRECTION ( 'NONE',  ( -0.000000000000000000, -1.000000000000000000, -0.000000000000000000 ) ) ;
#592 = VERTEX_POINT ( 'NONE', #911 ) ;
#593 =( NAMED_UNIT ( * ) SI_UNIT ( $, .STERADIAN. ) SOLID_ANGLE_UNIT ( ) );
#594 = DIRECTION ( 'NONE',  ( 0.000000000000000000, -0.000000000000000000, 1.000000000000000000 ) ) ;
#595 = CARTESIAN_POINT ( 'NONE',  ( -39.50000000000000711, 2.000000000000000000, 0.000000000000000000 ) ) ;
#596 = EDGE_CURVE ( 'NONE', #58, #270, #497, .T. ) ;
#597 = VERTEX_POINT ( 'NONE', #321 ) ;
#598 = CARTESIAN_POINT ( 'NONE',  ( -13.34874921658757785, 2.000000000000000000, -5.662234042553222046 ) ) ;
#599 = CARTESIAN_POINT ( 'NONE',  ( -11.50754242809270878, 2.000000000000000000, -4.881236243580350909 ) ) ;
#600 = CC_DESIGN_PERSON_AND_ORGANIZATION_ASSIGNMENT ( #517, #923, ( #618 ) ) ;
#601 = EDGE_CURVE ( 'NONE', #1046, #62, #584, .T. ) ;
#602 = ORIENTED_EDGE ( 'NONE', *, *, #111, .T. ) ;
#603 = DATE_AND_TIME ( #935, #823 ) ;
#604 = AXIS2_PLACEMENT_3D ( 'NONE', #347, #691, #1016 ) ;
#605 = FACE_OUTER_BOUND ( 'NONE', #68, .T. ) ;
#606 = VECTOR ( 'NONE', #64, 1000.000000000000000 ) ;
#607 = CARTESIAN_POINT ( 'NONE',  ( -33.37312525748799885, 2.000000000000000000, 2.170577317113295823 ) ) ;
#608 = VECTOR ( 'NONE', #990, 1000.000000000000000 ) ;
#609 = LOCAL_TIME ( 23, 19, 10.00000000000000000, #685 ) ;
#610 = ORIENTED_EDGE ( 'NONE', *, *, #756, .F. ) ;
#611 = APPROVAL_STATUS ( 'not_yet_approved' ) ;
#612 = EDGE_CURVE ( 'NONE', #528, #189, #217, .T. ) ;
#613 = EDGE_LOOP ( 'NONE', ( #317, #445, #642, #1071 ) ) ;
#614 = CARTESIAN_POINT ( 'NONE',  ( 0.000000000000000000, 6.000000000000000000, 0.000000000000000000 ) ) ;
#615 = CARTESIAN_POINT ( 'NONE',  ( 7.071067811865463959, 6.000000000000000000, 5.571067811865491493 ) ) ;
#616 = ORIENTED_EDGE ( 'NONE', *, *, #814, .F. ) ;
#617 = DATE_AND_TIME ( #631, #231 ) ;
#618 = PRODUCT_DEFINITION ( 'UNKNOWN', '', #266, #45 ) ;
#619 = VERTEX_POINT ( 'NONE', #590 ) ;
#620 = CARTESIAN_POINT ( 'NONE',  ( 7.960204194457796463E-16, 6.000000000000000000, 6.500000000000000888 ) ) ;
#621 = CARTESIAN_POINT ( 'NONE',  ( 1.439820485060749888E-13, 6.000000000000000000, 100.2666666666674331 ) ) ;
#622 = ORIENTED_EDGE ( 'NONE', *, *, #278, .F. ) ;
#623 = EDGE_LOOP ( 'NONE', ( #94, #1079 ) ) ;
#624 = DIRECTION ( 'NONE',  ( 0.000000000000000000, 0.000000000000000000, 1.000000000000000000 ) ) ;
#625 = DIRECTION ( 'NONE',  ( 0.000000000000000000, 0.000000000000000000, 1.000000000000000000 ) ) ;
#626 = VECTOR ( 'NONE', #473, 1000.000000000000000 ) ;
#627 = ADVANCED_FACE ( 'NONE', ( #1025 ), #1093, .F. ) ;
#628 = CIRCLE ( 'NONE', #695, 1.499999999999999556 ) ;
#629 = CIRCLE ( 'NONE', #858, 2.000000000000000000 ) ;
#630 = ORIENTED_EDGE ( 'NONE', *, *, #187, .T. ) ;
#631 = CALENDAR_DATE ( 2024, 26, 9 ) ;
#632 = VERTEX_POINT ( 'NONE', #341 ) ;
#633 = CARTESIAN_POINT ( 'NONE',  ( 0.000000000000000000, 6.000000000000000000, 0.000000000000000000 ) ) ;
#634 = CYLINDRICAL_SURFACE ( 'NONE', #119, 1.499999999999999556 ) ;
#635 = ORIENTED_EDGE ( 'NONE', *, *, #165, .T. ) ;
#636 = ORIENTED_EDGE ( 'NONE', *, *, #775, .F. ) ;
#637 = PRODUCT_DEFINITION_SHAPE ( 'NONE', 'NONE',  #618 ) ;
#638 = CYLINDRICAL_SURFACE ( 'NONE', #463, 1.000000000000000000 ) ;
#639 = FACE_BOUND ( 'NONE', #179, .T. ) ;
#640 = CARTESIAN_POINT ( 'NONE',  ( 7.071067811865463959, 6.000000000000000000, 8.571067811865493269 ) ) ;
#641 = ADVANCED_FACE ( 'NONE', ( #919 ), #686, .F. ) ;
#642 = ORIENTED_EDGE ( 'NONE', *, *, #650, .F. ) ;
#643 = FACE_OUTER_BOUND ( 'NONE', #793, .T. ) ;
#644 = CARTESIAN_POINT ( 'NONE',  ( -39.50000000000000711, 0.000000000000000000, 0.000000000000000000 ) ) ;
#645 = CLOSED_SHELL ( 'NONE', ( #627, #441, #726, #376, #134, #472, #578, #299, #1069, #354, #705, #1029, #24, #539, #956, #1036, #657, #160, #748, #842, #669, #519, #941, #910, #562, #315, #486, #16, #641, #420, #822 ) ) ;
#646 = VECTOR ( 'NONE', #977, 1000.000000000000000 ) ;
#647 = DIRECTION ( 'NONE',  ( 0.000000000000000000, 0.000000000000000000, 1.000000000000000000 ) ) ;
#648 = CIRCLE ( 'NONE', #803, 7.500000000000000000 ) ;
#649 = ORIENTED_EDGE ( 'NONE', *, *, #387, .T. ) ;
#650 = EDGE_CURVE ( 'NONE', #426, #528, #302, .T. ) ;
#651 = DIRECTION ( 'NONE',  ( 0.000000000000000000, 0.000000000000000000, 1.000000000000000000 ) ) ;
#652 = DIRECTION ( 'NONE',  ( 0.000000000000000000, -0.000000000000000000, 1.000000000000000000 ) ) ;
#653 = LINE ( 'NONE', #298, #243 ) ;
#654 = EDGE_LOOP ( 'NONE', ( #674, #400 ) ) ;
#655 = FACE_OUTER_BOUND ( 'NONE', #90, .T. ) ;
#656 = DIRECTION ( 'NONE',  ( -0.000000000000000000, 1.000000000000000000, -0.000000000000000000 ) ) ;
#657 = ADVANCED_FACE ( 'NONE', ( #605 ), #845, .F. ) ;
#658 = CARTESIAN_POINT ( 'NONE',  ( 0.000000000000000000, 1.000000000000000000, 0.000000000000000000 ) ) ;
#659 = ORIENTED_EDGE ( 'NONE', *, *, #272, .T. ) ;
#660 = DIRECTION ( 'NONE',  ( 0.000000000000000000, 1.000000000000000000, 0.000000000000000000 ) ) ;
#661 = PLANE ( 'NONE',  #389 ) ;
#662 = EDGE_CURVE ( 'NONE', #1076, #76, #532, .T. ) ;
#663 = CIRCLE ( 'NONE', #852, 6.499999999999872102 ) ;
#664 = CARTESIAN_POINT ( 'NONE',  ( 7.071067811865463959, 0.000000000000000000, 7.071067811865491493 ) ) ;
#665 = VERTEX_POINT ( 'NONE', #520 ) ;
#666 = AXIS2_PLACEMENT_3D ( 'NONE', #825, #470, #818 ) ;
#667 = DIRECTION ( 'NONE',  ( 0.000000000000000000, 0.000000000000000000, 1.000000000000000000 ) ) ;
#668 = CARTESIAN_POINT ( 'NONE',  ( 0.000000000000000000, 2.000000000000000000, 0.000000000000000000 ) ) ;
#669 = ADVANCED_FACE ( 'NONE', ( #7 ), #73, .F. ) ;
#670 = ORIENTED_EDGE ( 'NONE', *, *, #1045, .T. ) ;
#671 = DIRECTION ( 'NONE',  ( 0.000000000000000000, 0.000000000000000000, 1.000000000000000000 ) ) ;
#672 = CARTESIAN_POINT ( 'NONE',  ( 7.071067811865463959, 6.000000000000000000, -7.071067811865485275 ) ) ;
#673 = ORIENTED_EDGE ( 'NONE', *, *, #688, .F. ) ;
#674 = ORIENTED_EDGE ( 'NONE', *, *, #555, .F. ) ;
#675 = DIRECTION ( 'NONE',  ( -0.000000000000000000, -1.000000000000000000, -0.000000000000000000 ) ) ;
#676 = ORIENTED_EDGE ( 'NONE', *, *, #847, .F. ) ;
#677 = DIRECTION ( 'NONE',  ( 0.000000000000000000, 0.000000000000000000, -1.000000000000000000 ) ) ;
#678 = AXIS2_PLACEMENT_3D ( 'NONE', #385, #35, #999 ) ;
#679 = CIRCLE ( 'NONE', #30, 1.500000000000001332 ) ;
#680 = FACE_OUTER_BOUND ( 'NONE', #1089, .T. ) ;
#681 = CIRCLE ( 'NONE', #124, 108.7666666666674615 ) ;
#682 = CIRCLE ( 'NONE', #194, 113.7666666666674615 ) ;
#683 = CARTESIAN_POINT ( 'NONE',  ( 1.439820485060749888E-13, 0.000000000000000000, -13.50000000000002665 ) ) ;
#684 = EDGE_LOOP ( 'NONE', ( #197, #339, #27, #508 ) ) ;
#685 = COORDINATED_UNIVERSAL_TIME_OFFSET ( 9, 0, .AHEAD. ) ;
#686 = CYLINDRICAL_SURFACE ( 'NONE', #229, 2.000000000000000000 ) ;
#687 = DIRECTION ( 'NONE',  ( 0.000000000000000000, 0.000000000000000000, 1.000000000000000000 ) ) ;
#688 = EDGE_CURVE ( 'NONE', #157, #247, #679, .T. ) ;
#689 = VERTEX_POINT ( 'NONE', #255 ) ;
#690 = DIRECTION ( 'NONE',  ( 0.000000000000000000, 0.000000000000000000, -1.000000000000000000 ) ) ;
#691 = DIRECTION ( 'NONE',  ( 0.000000000000000000, 1.000000000000000000, 0.000000000000000000 ) ) ;
#692 = ORIENTED_EDGE ( 'NONE', *, *, #448, .F. ) ;
#693 = AXIS2_PLACEMENT_3D ( 'NONE', #521, #863, #687 ) ;
#694 = CARTESIAN_POINT ( 'NONE',  ( -7.071067811865456854, 6.000000000000000000, 7.071067811865491493 ) ) ;
#695 = AXIS2_PLACEMENT_3D ( 'NONE', #995, #132, #906 ) ;
#696 = DIRECTION ( 'NONE',  ( -0.000000000000000000, 1.000000000000000000, -0.000000000000000000 ) ) ;
#697 = AXIS2_PLACEMENT_3D ( 'NONE', #753, #54, #326 ) ;
#698 = AXIS2_PLACEMENT_3D ( 'NONE', #586, #839, #677 ) ;
#699 = VERTEX_POINT ( 'NONE', #1085 ) ;
#700 = ORIENTED_EDGE ( 'NONE', *, *, #489, .T. ) ;
#701 = DIRECTION ( 'NONE',  ( 0.000000000000000000, 0.000000000000000000, -1.000000000000000000 ) ) ;
#702 = DIRECTION ( 'NONE',  ( 0.000000000000000000, 0.000000000000000000, 1.000000000000000000 ) ) ;
#703 = VERTEX_POINT ( 'NONE', #1081 ) ;
#704 = ORIENTED_EDGE ( 'NONE', *, *, #809, .F. ) ;
#705 = ADVANCED_FACE ( 'NONE', ( #334, #680, #350, #930, #774, #1006, #998 ), #862, .F. ) ;
#706 = DIRECTION ( 'NONE',  ( 0.000000000000000000, 0.000000000000000000, 1.000000000000000000 ) ) ;
#707 = FACE_BOUND ( 'NONE', #174, .T. ) ;
#708 = ORIENTED_EDGE ( 'NONE', *, *, #1013, .T. ) ;
#709 = APPROVAL_DATE_TIME ( #945, #216 ) ;
#710 = ORIENTED_EDGE ( 'NONE', *, *, #450, .F. ) ;
#711 = CARTESIAN_POINT ( 'NONE',  ( 7.071067811865463959, 6.000000000000000000, 5.571067811865491493 ) ) ;
#712 = EDGE_CURVE ( 'NONE', #597, #1046, #337, .T. ) ;
#713 = AXIS2_PLACEMENT_3D ( 'NONE', #658, #213, #115 ) ;
#714 = DIRECTION ( 'NONE',  ( 0.000000000000000000, 0.000000000000000000, -1.000000000000000000 ) ) ;
#715 = AXIS2_PLACEMENT_3D ( 'NONE', #720, #960, #274 ) ;
#716 = AXIS2_PLACEMENT_3D ( 'NONE', #78, #925, #92 ) ;
#717 = ORIENTED_EDGE ( 'NONE', *, *, #920, .F. ) ;
#718 = EDGE_LOOP ( 'NONE', ( #107, #202, #824, #435 ) ) ;
#719 = CARTESIAN_POINT ( 'NONE',  ( -13.34874921658757785, 2.000000000000000000, -5.662234042553222046 ) ) ;
#720 = CARTESIAN_POINT ( 'NONE',  ( -32.43052914325536307, 2.000000000000000000, -2.504512288976882939 ) ) ;
#721 = EDGE_CURVE ( 'NONE', #373, #1076, #169, .T. ) ;
#722 = CARTESIAN_POINT ( 'NONE',  ( -41.69919579338077398, 6.000000000000000000, 5.582431178472038624 ) ) ;
#723 = ORIENTED_EDGE ( 'NONE', *, *, #1055, .T. ) ;
#724 = DIRECTION ( 'NONE',  ( 0.000000000000000000, 0.000000000000000000, 1.000000000000000000 ) ) ;
#725 = CARTESIAN_POINT ( 'NONE',  ( 7.071067811865463959, 0.000000000000000000, -7.071067811865485275 ) ) ;
#726 = ADVANCED_FACE ( 'NONE', ( #163 ), #242, .F. ) ;
#727 = CARTESIAN_POINT ( 'NONE',  ( 7.071067811865463959, 0.000000000000000000, -5.571067811865484387 ) ) ;
#728 = ORIENTED_EDGE ( 'NONE', *, *, #409, .F. ) ;
#729 = DIRECTION ( 'NONE',  ( -0.000000000000000000, -1.000000000000000000, -0.000000000000000000 ) ) ;
#730 = DIRECTION ( 'NONE',  ( 0.000000000000000000, -0.000000000000000000, 1.000000000000000000 ) ) ;
#731 = CIRCLE ( 'NONE', #190, 7.500000000000000000 ) ;
#732 = AXIS2_PLACEMENT_3D ( 'NONE', #561, #493, #314 ) ;
#733 = LINE ( 'NONE', #982, #951 ) ;
#734 = CIRCLE ( 'NONE', #666, 7.500000000000000000 ) ;
#735 = PRODUCT_RELATED_PRODUCT_CATEGORY ( 'detail', '', ( #303 ) ) ;
#736 = ORIENTED_EDGE ( 'NONE', *, *, #165, .F. ) ;
#737 = CYLINDRICAL_SURFACE ( 'NONE', #391, 113.7666666666674757 ) ;
#738 = PLANE ( 'NONE',  #320 ) ;
#739 = DIRECTION ( 'NONE',  ( -0.000000000000000000, -1.000000000000000000, -0.000000000000000000 ) ) ;
#740 = ORIENTED_EDGE ( 'NONE', *, *, #601, .F. ) ;
#741 = DIRECTION ( 'NONE',  ( 0.000000000000000000, 0.000000000000000000, 1.000000000000000000 ) ) ;
#742 = EDGE_CURVE ( 'NONE', #76, #301, #511, .T. ) ;
#743 = FACE_OUTER_BOUND ( 'NONE', #684, .T. ) ;
#744 = CARTESIAN_POINT ( 'NONE',  ( -7.071067811865456854, 0.000000000000000000, 8.571067811865491493 ) ) ;
#745 = EDGE_LOOP ( 'NONE', ( #281, #870 ) ) ;
#746 = CARTESIAN_POINT ( 'NONE',  ( -33.37312525748799885, 2.000000000000000000, -2.170577317113294047 ) ) ;
#747 = DIRECTION ( 'NONE',  ( 0.000000000000000000, 1.000000000000000000, 0.000000000000000000 ) ) ;
#748 = ADVANCED_FACE ( 'NONE', ( #1015 ), #432, .F. ) ;
#749 = VECTOR ( 'NONE', #938, 1000.000000000000000 ) ;
#750 = CIRCLE ( 'NONE', #820, 1.499999999999999556 ) ;
#751 = VERTEX_POINT ( 'NONE', #1048 ) ;
#752 = CIRCLE ( 'NONE', #51, 2.000000000000000000 ) ;
#753 = CARTESIAN_POINT ( 'NONE',  ( -39.50000000000000711, 6.000000000000000000, 0.000000000000000000 ) ) ;
#754 = AXIS2_PLACEMENT_3D ( 'NONE', #1021, #72, #415 ) ;
#755 = FACE_OUTER_BOUND ( 'NONE', #344, .T. ) ;
#756 = EDGE_CURVE ( 'NONE', #451, #832, #529, .T. ) ;
#757 = EDGE_LOOP ( 'NONE', ( #522, #806, #728, #791 ) ) ;
#758 = COORDINATED_UNIVERSAL_TIME_OFFSET ( 9, 0, .AHEAD. ) ;
#759 = DIRECTION ( 'NONE',  ( -0.000000000000000000, -1.000000000000000000, -0.000000000000000000 ) ) ;
#760 = EDGE_CURVE ( 'NONE', #703, #29, #881, .T. ) ;
#761 = ORIENTED_EDGE ( 'NONE', *, *, #252, .T. ) ;
#762 = CARTESIAN_POINT ( 'NONE',  ( -32.43052914325536307, 6.000000000000000000, -2.504512288976882939 ) ) ;
#763 = DIRECTION ( 'NONE',  ( 0.000000000000000000, 1.000000000000000000, -0.000000000000000000 ) ) ;
#764 = ORIENTED_EDGE ( 'NONE', *, *, #920, .T. ) ;
#765 = PERSON_AND_ORGANIZATION ( #168, #212 ) ;
#766 = AXIS2_PLACEMENT_3D ( 'NONE', #762, #524, #1011 ) ;
#767 = VERTEX_POINT ( 'NONE', #794 ) ;
#768 = EDGE_CURVE ( 'NONE', #979, #253, #648, .T. ) ;
#769 = DIRECTION ( 'NONE',  ( 0.000000000000000000, 0.000000000000000000, -1.000000000000000000 ) ) ;
#770 = DIRECTION ( 'NONE',  ( -0.000000000000000000, -1.000000000000000000, -0.000000000000000000 ) ) ;
#771 = ORIENTED_EDGE ( 'NONE', *, *, #360, .F. ) ;
#772 = CALENDAR_DATE ( 2024, 26, 9 ) ;
#773 = ORIENTED_EDGE ( 'NONE', *, *, #237, .F. ) ;
#774 = FACE_BOUND ( 'NONE', #866, .T. ) ;
#775 = EDGE_CURVE ( 'NONE', #665, #1082, #230, .T. ) ;
#776 = DIRECTION ( 'NONE',  ( 0.000000000000000000, -1.000000000000000000, 0.000000000000000000 ) ) ;
#777 = ORIENTED_EDGE ( 'NONE', *, *, #396, .F. ) ;
#778 = CARTESIAN_POINT ( 'NONE',  ( -7.071067811865463959, 6.000000000000000000, -8.571067811865484387 ) ) ;
#779 = DIRECTION ( 'NONE',  ( 0.000000000000000000, -1.000000000000000000, 0.000000000000000000 ) ) ;
#780 = DIRECTION ( 'NONE',  ( 0.000000000000000000, 1.000000000000000000, 0.000000000000000000 ) ) ;
#781 = ORIENTED_EDGE ( 'NONE', *, *, #927, .F. ) ;
#782 = ORIENTED_EDGE ( 'NONE', *, *, #448, .T. ) ;
#783 = CIRCLE ( 'NONE', #1058, 2.000000000000000000 ) ;
#784 = CARTESIAN_POINT ( 'NONE',  ( -39.50000000000000711, 6.000000000000000000, 0.000000000000000000 ) ) ;
#785 = CARTESIAN_POINT ( 'NONE',  ( 9.184850993605147944E-16, 1.000000000000000000, 7.500000000000000000 ) ) ;
#786 = AXIS2_PLACEMENT_3D ( 'NONE', #833, #909, #671 ) ;
#787 = VERTEX_POINT ( 'NONE', #969 ) ;
#788 = ORIENTED_EDGE ( 'NONE', *, *, #288, .T. ) ;
#789 = CARTESIAN_POINT ( 'NONE',  ( -7.071067811865456854, 6.000000000000000000, 8.571067811865491493 ) ) ;
#790 = DIRECTION ( 'NONE',  ( 0.000000000000000000, 0.000000000000000000, 1.000000000000000000 ) ) ;
#791 = ORIENTED_EDGE ( 'NONE', *, *, #122, .F. ) ;
#792 = EDGE_CURVE ( 'NONE', #224, #751, #1090, .T. ) ;
#793 = EDGE_LOOP ( 'NONE', ( #740, #761, #166, #1009 ) ) ;
#794 = CARTESIAN_POINT ( 'NONE',  ( -39.50000000000000711, 0.000000000000000000, -2.000000000000003109 ) ) ;
#795 = FACE_OUTER_BOUND ( 'NONE', #757, .T. ) ;
#796 = EDGE_LOOP ( 'NONE', ( #781, #147 ) ) ;
#797 = EDGE_CURVE ( 'NONE', #301, #699, #629, .T. ) ;
#798 = ORIENTED_EDGE ( 'NONE', *, *, #569, .T. ) ;
#799 = LINE ( 'NONE', #273, #284 ) ;
#800 = AXIS2_PLACEMENT_3D ( 'NONE', #74, #1026, #251 ) ;
#801 = CARTESIAN_POINT ( 'NONE',  ( -13.59880383819084138, 6.000000000000000000, -7.646540643412788718 ) ) ;
#802 = AXIS2_PLACEMENT_3D ( 'NONE', #621, #186, #447 ) ;
#803 = AXIS2_PLACEMENT_3D ( 'NONE', #543, #547, #465 ) ;
#804 = APPROVAL_PERSON_ORGANIZATION ( #765, #117, #340 ) ;
#805 = DIRECTION ( 'NONE',  ( 0.000000000000000000, 0.000000000000000000, 1.000000000000000000 ) ) ;
#806 = ORIENTED_EDGE ( 'NONE', *, *, #760, .T. ) ;
#807 = CARTESIAN_POINT ( 'NONE',  ( -7.071067811865456854, 0.000000000000000000, 7.071067811865491493 ) ) ;
#808 = CARTESIAN_POINT ( 'NONE',  ( -11.50754242809270700, 2.000000000000000000, 4.881236243580355350 ) ) ;
#809 = EDGE_CURVE ( 'NONE', #270, #1033, #959, .T. ) ;
#810 = DIRECTION ( 'NONE',  ( 0.000000000000000000, 0.000000000000000000, 1.000000000000000000 ) ) ;
#811 = ORIENTED_EDGE ( 'NONE', *, *, #927, .T. ) ;
#812 = DIRECTION ( 'NONE',  ( -0.000000000000000000, -1.000000000000000000, -0.000000000000000000 ) ) ;
#813 = CARTESIAN_POINT ( 'NONE',  ( 0.000000000000000000, 0.000000000000000000, 0.000000000000000000 ) ) ;
#814 = EDGE_CURVE ( 'NONE', #1047, #270, #752, .T. ) ;
#815 = ADVANCED_BREP_SHAPE_REPRESENTATION ( '링크_암컨트롤', ( #563, #754 ), #322 ) ;
#816 = CARTESIAN_POINT ( 'NONE',  ( 0.000000000000000000, 6.000000000000000000, 0.000000000000000000 ) ) ;
#817 = ORIENTED_EDGE ( 'NONE', *, *, #328, .T. ) ;
#818 = DIRECTION ( 'NONE',  ( 0.000000000000000000, 0.000000000000000000, -1.000000000000000000 ) ) ;
#819 = FACE_OUTER_BOUND ( 'NONE', #47, .T. ) ;
#820 = AXIS2_PLACEMENT_3D ( 'NONE', #1043, #380, #556 ) ;
#821 = DIRECTION ( 'NONE',  ( -0.000000000000000000, 1.000000000000000000, -0.000000000000000000 ) ) ;
#822 = ADVANCED_FACE ( 'NONE', ( #1041 ), #638, .F. ) ;
#823 = LOCAL_TIME ( 23, 19, 10.00000000000000000, #85 ) ;
#824 = ORIENTED_EDGE ( 'NONE', *, *, #289, .T. ) ;
#825 = CARTESIAN_POINT ( 'NONE',  ( 0.000000000000000000, 1.000000000000000000, 0.000000000000000000 ) ) ;
#826 = DIRECTION ( 'NONE',  ( -0.000000000000000000, -1.000000000000000000, -0.000000000000000000 ) ) ;
#827 = CYLINDRICAL_SURFACE ( 'NONE', #510, 1.500000000000000444 ) ;
#828 = ORIENTED_EDGE ( 'NONE', *, *, #222, .T. ) ;
#829 = EDGE_CURVE ( 'NONE', #619, #224, #155, .T. ) ;
#830 = CARTESIAN_POINT ( 'NONE',  ( 0.000000000000000000, 0.000000000000000000, -7.500000000000000000 ) ) ;
#831 = DIRECTION ( 'NONE',  ( 0.000000000000000000, 0.000000000000000000, 1.000000000000000000 ) ) ;
#832 = VERTEX_POINT ( 'NONE', #379 ) ;
#833 = CARTESIAN_POINT ( 'NONE',  ( 7.071067811865463959, 0.000000000000000000, 7.071067811865491493 ) ) ;
#834 = DIRECTION ( 'NONE',  ( 0.000000000000000000, -1.000000000000000000, 0.000000000000000000 ) ) ;
#835 = EDGE_CURVE ( 'NONE', #29, #1038, #936, .T. ) ;
#836 = CIRCLE ( 'NONE', #855, 1.500000000000000444 ) ;
#837 = ORIENTED_EDGE ( 'NONE', *, *, #5, .T. ) ;
#838 = CIRCLE ( 'NONE', #1075, 12.49999999999984901 ) ;
#839 = DIRECTION ( 'NONE',  ( -0.000000000000000000, -1.000000000000000000, -0.000000000000000000 ) ) ;
#840 = APPROVAL_PERSON_ORGANIZATION ( #455, #216, #535 ) ;
#841 = DIRECTION ( 'NONE',  ( 0.000000000000000000, 0.000000000000000000, -1.000000000000000000 ) ) ;
#842 = ADVANCED_FACE ( 'NONE', ( #643 ), #103, .F. ) ;
#843 = ORIENTED_EDGE ( 'NONE', *, *, #457, .F. ) ;
#844 =( LENGTH_UNIT ( ) NAMED_UNIT ( * ) SI_UNIT ( .MILLI., .METRE. ) );
#845 = CYLINDRICAL_SURFACE ( 'NONE', #588, 1.500000000000001332 ) ;
#846 = CARTESIAN_POINT ( 'NONE',  ( 1.439820485060749888E-13, 0.000000000000000000, 100.2666666666674331 ) ) ;
#847 = EDGE_CURVE ( 'NONE', #247, #874, #872, .T. ) ;
#848 = ORIENTED_EDGE ( 'NONE', *, *, #288, .F. ) ;
#849 = PERSON_AND_ORGANIZATION ( #168, #212 ) ;
#850 = DIRECTION ( 'NONE',  ( -0.000000000000000000, 1.000000000000000000, -0.000000000000000000 ) ) ;
#851 = CARTESIAN_POINT ( 'NONE',  ( 0.000000000000000000, 6.000000000000000000, 0.000000000000000000 ) ) ;
#852 = AXIS2_PLACEMENT_3D ( 'NONE', #595, #182, #89 ) ;
#853 = ORIENTED_EDGE ( 'NONE', *, *, #237, .T. ) ;
#854 = CARTESIAN_POINT ( 'NONE',  ( 1.439820485060749888E-13, 6.000000000000000000, 100.2666666666674331 ) ) ;
#855 = AXIS2_PLACEMENT_3D ( 'NONE', #725, #128, #625 ) ;
#856 = VECTOR ( 'NONE', #362, 1000.000000000000000 ) ;
#857 = CARTESIAN_POINT ( 'NONE',  ( -11.50754242809270878, 2.000000000000000000, -4.881236243580350909 ) ) ;
#858 = AXIS2_PLACEMENT_3D ( 'NONE', #719, #209, #296 ) ;
#859 = DIRECTION ( 'NONE',  ( -0.000000000000000000, -1.000000000000000000, -0.000000000000000000 ) ) ;
#860 = EDGE_LOOP ( 'NONE', ( #53, #17, #371, #1034 ) ) ;
#861 = APPROVAL_DATE_TIME ( #1010, #117 ) ;
#862 = PLANE ( 'NONE',  #1003 ) ;
#863 = DIRECTION ( 'NONE',  ( 0.000000000000000000, 1.000000000000000000, 0.000000000000000000 ) ) ;
#864 = ORIENTED_EDGE ( 'NONE', *, *, #33, .F. ) ;
#865 = PERSON_AND_ORGANIZATION ( #168, #212 ) ;
#866 = EDGE_LOOP ( 'NONE', ( #1002, #928 ) ) ;
#867 = DIRECTION ( 'NONE',  ( -0.000000000000000000, 1.000000000000000000, -0.000000000000000000 ) ) ;
#868 = LINE ( 'NONE', #921, #300 ) ;
#869 = EDGE_CURVE ( 'NONE', #1056, #249, #799, .T. ) ;
#870 = ORIENTED_EDGE ( 'NONE', *, *, #403, .T. ) ;
#871 = ORIENTED_EDGE ( 'NONE', *, *, #39, .F. ) ;
#872 = LINE ( 'NONE', #711, #856 ) ;
#873 = DIRECTION ( 'NONE',  ( -0.000000000000000000, 1.000000000000000000, -0.000000000000000000 ) ) ;
#874 = VERTEX_POINT ( 'NONE', #947 ) ;
#875 = ORIENTED_EDGE ( 'NONE', *, *, #368, .F. ) ;
#876 = CARTESIAN_POINT ( 'NONE',  ( -39.50000000000000711, 6.000000000000000000, 0.000000000000000000 ) ) ;
#877 = CYLINDRICAL_SURFACE ( 'NONE', #336, 7.500000000000000000 ) ;
#878 = ORIENTED_EDGE ( 'NONE', *, *, #176, .F. ) ;
#879 = COORDINATED_UNIVERSAL_TIME_OFFSET ( 9, 0, .AHEAD. ) ;
#880 = ORIENTED_EDGE ( 'NONE', *, *, #869, .T. ) ;
#881 = LINE ( 'NONE', #789, #918 ) ;
#882 = DIRECTION ( 'NONE',  ( -0.000000000000000000, -1.000000000000000000, -0.000000000000000000 ) ) ;
#883 = DIRECTION ( 'NONE',  ( -0.000000000000000000, -1.000000000000000000, -0.000000000000000000 ) ) ;
#884 = EDGE_LOOP ( 'NONE', ( #636, #904, #418, #449 ) ) ;
#885 = DIRECTION ( 'NONE',  ( 0.000000000000000000, 1.000000000000000000, 0.000000000000000000 ) ) ;
#886 = CIRCLE ( 'NONE', #188, 1.500000000000000444 ) ;
#887 = DIRECTION ( 'NONE',  ( -0.000000000000000000, -1.000000000000000000, -0.000000000000000000 ) ) ;
#888 = AXIS2_PLACEMENT_3D ( 'NONE', #900, #484, #139 ) ;
#889 = DIRECTION ( 'NONE',  ( -0.000000000000000000, -1.000000000000000000, -0.000000000000000000 ) ) ;
#890 = ORIENTED_EDGE ( 'NONE', *, *, #976, .T. ) ;
#891 = DIRECTION ( 'NONE',  ( -0.000000000000000000, -1.000000000000000000, -0.000000000000000000 ) ) ;
#892 = FACE_BOUND ( 'NONE', #1066, .T. ) ;
#893 = DIRECTION ( 'NONE',  ( 0.000000000000000000, 0.000000000000000000, 1.000000000000000000 ) ) ;
#894 = ORIENTED_EDGE ( 'NONE', *, *, #434, .T. ) ;
#895 = DIRECTION ( 'NONE',  ( 0.000000000000000000, 1.000000000000000000, 0.000000000000000000 ) ) ;
#896 = CYLINDRICAL_SURFACE ( 'NONE', #481, 12.49999999999984901 ) ;
#897 = CARTESIAN_POINT ( 'NONE',  ( 7.071067811865463959, 6.000000000000000000, 8.571067811865493269 ) ) ;
#898 = ORIENTED_EDGE ( 'NONE', *, *, #409, .T. ) ;
#899 = CARTESIAN_POINT ( 'NONE',  ( -7.071067811865463959, 6.000000000000000000, -7.071067811865485275 ) ) ;
#900 = CARTESIAN_POINT ( 'NONE',  ( -13.34874921658757785, 6.000000000000000000, -5.662234042553222046 ) ) ;
#901 = VECTOR ( 'NONE', #1008, 1000.000000000000000 ) ;
#902 = AXIS2_PLACEMENT_3D ( 'NONE', #453, #384, #199 ) ;
#903 = DIRECTION ( 'NONE',  ( 0.000000000000000000, 0.000000000000000000, 1.000000000000000000 ) ) ;
#904 = ORIENTED_EDGE ( 'NONE', *, *, #328, .F. ) ;
#905 = CYLINDRICAL_SURFACE ( 'NONE', #514, 108.7666666666674615 ) ;
#906 = DIRECTION ( 'NONE',  ( 0.000000000000000000, 0.000000000000000000, 1.000000000000000000 ) ) ;
#907 = CC_DESIGN_DATE_AND_TIME_ASSIGNMENT ( #617, #541, ( #393 ) ) ;
#908 = ORIENTED_EDGE ( 'NONE', *, *, #75, .F. ) ;
#909 = DIRECTION ( 'NONE',  ( 0.000000000000000000, 1.000000000000000000, 0.000000000000000000 ) ) ;
#910 = ADVANCED_FACE ( 'NONE', ( #185 ), #1035, .T. ) ;
#911 = CARTESIAN_POINT ( 'NONE',  ( -7.071067811865463959, 0.000000000000000000, -5.571067811865485275 ) ) ;
#912 = ORIENTED_EDGE ( 'NONE', *, *, #662, .F. ) ;
#913 = PERSON_AND_ORGANIZATION ( #168, #212 ) ;
#914 = CARTESIAN_POINT ( 'NONE',  ( -39.50000000000000711, 6.000000000000000000, 2.000000000000003109 ) ) ;
#915 = CIRCLE ( 'NONE', #280, 2.000000000000003109 ) ;
#916 = CIRCLE ( 'NONE', #715, 1.000000000000000000 ) ;
#917 = ORIENTED_EDGE ( 'NONE', *, *, #869, .F. ) ;
#918 = VECTOR ( 'NONE', #891, 1000.000000000000000 ) ;
#919 = FACE_OUTER_BOUND ( 'NONE', #364, .T. ) ;
#920 = EDGE_CURVE ( 'NONE', #426, #1062, #264, .T. ) ;
#921 = CARTESIAN_POINT ( 'NONE',  ( 7.071067811865463959, 6.000000000000000000, -8.571067811865486163 ) ) ;
#922 = ORIENTED_EDGE ( 'NONE', *, *, #797, .T. ) ;
#923 = PERSON_AND_ORGANIZATION_ROLE ( 'creator' ) ;
#924 = ORIENTED_EDGE ( 'NONE', *, *, #154, .F. ) ;
#925 = DIRECTION ( 'NONE',  ( 0.000000000000000000, 1.000000000000000000, 0.000000000000000000 ) ) ;
#926 = DIRECTION ( 'NONE',  ( 0.000000000000000000, 0.000000000000000000, -1.000000000000000000 ) ) ;
#927 = EDGE_CURVE ( 'NONE', #689, #983, #12, .T. ) ;
#928 = ORIENTED_EDGE ( 'NONE', *, *, #1019, .T. ) ;
#929 = PERSON_AND_ORGANIZATION_ROLE ( 'creator' ) ;
#930 = FACE_BOUND ( 'NONE', #745, .T. ) ;
#931 = FACE_OUTER_BOUND ( 'NONE', #290, .T. ) ;
#932 = EDGE_CURVE ( 'NONE', #1014, #703, #499, .T. ) ;
#933 = AXIS2_PLACEMENT_3D ( 'NONE', #664, #1050, #570 ) ;
#934 = EDGE_LOOP ( 'NONE', ( #773, #235, #771, #516 ) ) ;
#935 = CALENDAR_DATE ( 2024, 26, 9 ) ;
#936 = CIRCLE ( 'NONE', #1060, 1.499999999999999556 ) ;
#937 = CARTESIAN_POINT ( 'NONE',  ( 7.199102425303749442E-14, 0.000000000000000000, -50.13333333333371655 ) ) ;
#938 = DIRECTION ( 'NONE',  ( 0.000000000000000000, -1.000000000000000000, 0.000000000000000000 ) ) ;
#939 = EDGE_LOOP ( 'NONE', ( #875, #271 ) ) ;
#940 = EDGE_LOOP ( 'NONE', ( #42, #491, #23, #676 ) ) ;
#941 = ADVANCED_FACE ( 'NONE', ( #583 ), #905, .F. ) ;
#942 = DIRECTION ( 'NONE',  ( -0.000000000000000000, 1.000000000000000000, -0.000000000000000000 ) ) ;
#943 = LINE ( 'NONE', #502, #496 ) ;
#944 = LINE ( 'NONE', #183, #386 ) ;
#945 = DATE_AND_TIME ( #18, #338 ) ;
#946 = ORIENTED_EDGE ( 'NONE', *, *, #176, .T. ) ;
#947 = CARTESIAN_POINT ( 'NONE',  ( 7.071067811865463959, 0.000000000000000000, 5.571067811865491493 ) ) ;
#948 = FACE_BOUND ( 'NONE', #469, .T. ) ;
#949 = ORIENTED_EDGE ( 'NONE', *, *, #987, .T. ) ;
#950 = VERTEX_POINT ( 'NONE', #1063 ) ;
#951 = VECTOR ( 'NONE', #889, 1000.000000000000000 ) ;
#952 = DIRECTION ( 'NONE',  ( -0.000000000000000000, 1.000000000000000000, -0.000000000000000000 ) ) ;
#953 = VECTOR ( 'NONE', #826, 1000.000000000000000 ) ;
#954 = CARTESIAN_POINT ( 'NONE',  ( -7.071067811865463959, 0.000000000000000000, -7.071067811865485275 ) ) ;
#955 = VECTOR ( 'NONE', #867, 1000.000000000000000 ) ;
#956 = ADVANCED_FACE ( 'NONE', ( #655 ), #580, .T. ) ;
#957 = EDGE_LOOP ( 'NONE', ( #589, #630, #788, #6 ) ) ;
#958 = VERTEX_POINT ( 'NONE', #405 ) ;
#959 = LINE ( 'NONE', #458, #141 ) ;
#960 = DIRECTION ( 'NONE',  ( 0.000000000000000000, 1.000000000000000000, 0.000000000000000000 ) ) ;
#961 = EDGE_CURVE ( 'NONE', #58, #1062, #1044, .T. ) ;
#962 = ORIENTED_EDGE ( 'NONE', *, *, #775, .T. ) ;
#963 = ORIENTED_EDGE ( 'NONE', *, *, #847, .T. ) ;
#964 = DIRECTION ( 'NONE',  ( 0.000000000000000000, 0.000000000000000000, 1.000000000000000000 ) ) ;
#965 = DIRECTION ( 'NONE',  ( -1.734723475976807094E-15, 0.000000000000000000, 1.000000000000000000 ) ) ;
#966 = CARTESIAN_POINT ( 'NONE',  ( 0.000000000000000000, 1.000000000000000000, -6.500000000000000888 ) ) ;
#967 = CC_DESIGN_PERSON_AND_ORGANIZATION_ASSIGNMENT ( #254, #929, ( #266 ) ) ;
#968 = VERTEX_POINT ( 'NONE', #830 ) ;
#969 = CARTESIAN_POINT ( 'NONE',  ( -41.69919579338077398, 6.000000000000000000, -5.582431178472040401 ) ) ;
#970 = AXIS2_PLACEMENT_3D ( 'NONE', #343, #780, #1032 ) ;
#971 = CARTESIAN_POINT ( 'NONE',  ( -7.071067811865456854, 0.000000000000000000, 7.071067811865491493 ) ) ;
#972 = CIRCLE ( 'NONE', #786, 1.500000000000001332 ) ;
#973 = CARTESIAN_POINT ( 'NONE',  ( 7.071067811865463959, 6.000000000000000000, 7.071067811865491493 ) ) ;
#974 = ORIENTED_EDGE ( 'NONE', *, *, #105, .T. ) ;
#975 = DIRECTION ( 'NONE',  ( 0.000000000000000000, 0.000000000000000000, 1.000000000000000000 ) ) ;
#976 = EDGE_CURVE ( 'NONE', #253, #979, #734, .T. ) ;
#977 = DIRECTION ( 'NONE',  ( -0.000000000000000000, -1.000000000000000000, -0.000000000000000000 ) ) ;
#978 = CYLINDRICAL_SURFACE ( 'NONE', #549, 1.500000000000000444 ) ;
#979 = VERTEX_POINT ( 'NONE', #145 ) ;
#980 = DIRECTION ( 'NONE',  ( 0.000000000000000000, 1.000000000000000000, 0.000000000000000000 ) ) ;
#981 = LINE ( 'NONE', #327, #606 ) ;
#982 = CARTESIAN_POINT ( 'NONE',  ( -39.50000000000000711, 6.000000000000000000, -2.000000000000003109 ) ) ;
#983 = VERTEX_POINT ( 'NONE', #1077 ) ;
#984 = CARTESIAN_POINT ( 'NONE',  ( -7.071067811865456854, 6.000000000000000000, 7.071067811865491493 ) ) ;
#985 = CARTESIAN_POINT ( 'NONE',  ( -19.74999999999993250, 2.000000000000000000, 50.13333333333371655 ) ) ;
#986 = CIRCLE ( 'NONE', #28, 2.000000000000000000 ) ;
#987 = EDGE_CURVE ( 'NONE', #464, #126, #1023, .T. ) ;
#988 = CC_DESIGN_SECURITY_CLASSIFICATION ( #393, ( #266 ) ) ;
#989 = VERTEX_POINT ( 'NONE', #225 ) ;
#990 = DIRECTION ( 'NONE',  ( -0.000000000000000000, -1.000000000000000000, -0.000000000000000000 ) ) ;
#991 = LINE ( 'NONE', #234, #550 ) ;
#992 = EDGE_CURVE ( 'NONE', #373, #301, #838, .T. ) ;
#993 = ORIENTED_EDGE ( 'NONE', *, *, #272, .F. ) ;
#994 = CARTESIAN_POINT ( 'NONE',  ( 9.184850993605147944E-16, 0.000000000000000000, 7.500000000000000000 ) ) ;
#995 = CARTESIAN_POINT ( 'NONE',  ( -7.071067811865463959, 0.000000000000000000, -7.071067811865485275 ) ) ;
#996 = EDGE_LOOP ( 'NONE', ( #421, #1051, #480, #582 ) ) ;
#997 = MECHANICAL_CONTEXT ( 'NONE', #40, 'mechanical' ) ;
#998 = FACE_BOUND ( 'NONE', #285, .T. ) ;
#999 = DIRECTION ( 'NONE',  ( 0.000000000000000000, 0.000000000000000000, 1.000000000000000000 ) ) ;
#1000 = CIRCLE ( 'NONE', #713, 6.500000000000000888 ) ;
#1001 = AXIS2_PLACEMENT_3D ( 'NONE', #954, #538, #123 ) ;
#1002 = ORIENTED_EDGE ( 'NONE', *, *, #87, .T. ) ;
#1003 = AXIS2_PLACEMENT_3D ( 'NONE', #937, #250, #594 ) ;
#1004 =( NAMED_UNIT ( * ) PLANE_ANGLE_UNIT ( ) SI_UNIT ( $, .RADIAN. ) );
#1005 = APPROVAL_PERSON_ORGANIZATION ( #913, #323, #151 ) ;
#1006 = FACE_BOUND ( 'NONE', #579, .T. ) ;
#1007 = EDGE_CURVE ( 'NONE', #751, #275, #48, .T. ) ;
#1008 = DIRECTION ( 'NONE',  ( -0.000000000000000000, -1.000000000000000000, -0.000000000000000000 ) ) ;
#1009 = ORIENTED_EDGE ( 'NONE', *, *, #105, .F. ) ;
#1010 = DATE_AND_TIME ( #772, #609 ) ;
#1011 = DIRECTION ( 'NONE',  ( -6.938893903907228378E-15, 0.000000000000000000, 1.000000000000000000 ) ) ;
#1012 = CARTESIAN_POINT ( 'NONE',  ( -13.59880383819082539, 6.000000000000000000, 7.646540643412788718 ) ) ;
#1013 = EDGE_CURVE ( 'NONE', #1033, #196, #552, .T. ) ;
#1014 = VERTEX_POINT ( 'NONE', #1067 ) ;
#1015 = FACE_OUTER_BOUND ( 'NONE', #860, .T. ) ;
#1016 = DIRECTION ( 'NONE',  ( 0.000000000000000000, 0.000000000000000000, 1.000000000000000000 ) ) ;
#1017 = EDGE_CURVE ( 'NONE', #989, #426, #488, .T. ) ;
#1018 = CIRCLE ( 'NONE', #678, 1.500000000000000444 ) ;
#1019 = EDGE_CURVE ( 'NONE', #454, #874, #972, .T. ) ;
#1020 = EDGE_LOOP ( 'NONE', ( #518, #536, #710, #864 ) ) ;
#1021 = CARTESIAN_POINT ( 'NONE',  ( 0.000000000000000000, 0.000000000000000000, 0.000000000000000000 ) ) ;
#1022 = AXIS2_PLACEMENT_3D ( 'NONE', #306, #56, #407 ) ;
#1023 = CIRCLE ( 'NONE', #173, 113.7666666666674615 ) ;
#1024 = VERTEX_POINT ( 'NONE', #994 ) ;
#1025 = FACE_OUTER_BOUND ( 'NONE', #934, .T. ) ;
#1026 = DIRECTION ( 'NONE',  ( 0.000000000000000000, -1.000000000000000000, 0.000000000000000000 ) ) ;
#1027 = ORIENTED_EDGE ( 'NONE', *, *, #1007, .T. ) ;
#1028 = SECURITY_CLASSIFICATION_LEVEL ( 'unclassified' ) ;
#1029 = ADVANCED_FACE ( 'NONE', ( #390 ), #737, .T. ) ;
#1030 = ORIENTED_EDGE ( 'NONE', *, *, #9, .F. ) ;
#1031 = DIRECTION ( 'NONE',  ( 0.000000000000000000, 1.000000000000000000, 0.000000000000000000 ) ) ;
#1032 = DIRECTION ( 'NONE',  ( 0.000000000000000000, 0.000000000000000000, 1.000000000000000000 ) ) ;
#1033 = VERTEX_POINT ( 'NONE', #566 ) ;
#1034 = ORIENTED_EDGE ( 'NONE', *, *, #835, .F. ) ;
#1035 = CYLINDRICAL_SURFACE ( 'NONE', #425, 6.499999999999872102 ) ;
#1036 = ADVANCED_FACE ( 'NONE', ( #492 ), #63, .F. ) ;
#1037 = FACE_BOUND ( 'NONE', #939, .T. ) ;
#1038 = VERTEX_POINT ( 'NONE', #236 ) ;
#1039 = ORIENTED_EDGE ( 'NONE', *, *, #1007, .F. ) ;
#1040 = AXIS2_PLACEMENT_3D ( 'NONE', #244, #52, #903 ) ;
#1041 = FACE_OUTER_BOUND ( 'NONE', #613, .T. ) ;
#1042 = AXIS2_PLACEMENT_3D ( 'NONE', #614, #759, #158 ) ;
#1043 = CARTESIAN_POINT ( 'NONE',  ( -7.071067811865463959, 6.000000000000000000, -7.071067811865485275 ) ) ;
#1044 = CIRCLE ( 'NONE', #32, 1.000000000000000000 ) ;
#1045 = EDGE_CURVE ( 'NONE', #1082, #1033, #681, .T. ) ;
#1046 = VERTEX_POINT ( 'NONE', #215 ) ;
#1047 = VERTEX_POINT ( 'NONE', #560 ) ;
#1048 = CARTESIAN_POINT ( 'NONE',  ( 1.439820485060749888E-13, 6.000000000000000000, -13.50000000000002665 ) ) ;
#1049 = CYLINDRICAL_SURFACE ( 'NONE', #227, 1.000000000000000000 ) ;
#1050 = DIRECTION ( 'NONE',  ( 0.000000000000000000, 1.000000000000000000, 0.000000000000000000 ) ) ;
#1051 = ORIENTED_EDGE ( 'NONE', *, *, #257, .T. ) ;
#1052 = CARTESIAN_POINT ( 'NONE',  ( -32.43052914325537728, 2.000000000000000000, 2.504512288976880718 ) ) ;
#1053 = FACE_OUTER_BOUND ( 'NONE', #957, .T. ) ;
#1054 = CARTESIAN_POINT ( 'NONE',  ( 7.071067811865463959, 0.000000000000000000, -7.071067811865485275 ) ) ;
#1055 = EDGE_CURVE ( 'NONE', #332, #1056, #577, .T. ) ;
#1056 = VERTEX_POINT ( 'NONE', #778 ) ;
#1057 = DIRECTION ( 'NONE',  ( 0.000000000000000000, 0.000000000000000000, 1.000000000000000000 ) ) ;
#1058 = AXIS2_PLACEMENT_3D ( 'NONE', #544, #882, #965 ) ;
#1059 = CARTESIAN_POINT ( 'NONE',  ( -32.73146198405265750, 6.000000000000000000, -3.458157624166888322 ) ) ;
#1060 = AXIS2_PLACEMENT_3D ( 'NONE', #807, #198, #193 ) ;
#1061 = DIRECTION ( 'NONE',  ( -0.000000000000000000, -1.000000000000000000, -0.000000000000000000 ) ) ;
#1062 = VERTEX_POINT ( 'NONE', #345 ) ;
#1063 = CARTESIAN_POINT ( 'NONE',  ( -41.69919579338077398, 0.000000000000000000, -5.582431178472040401 ) ) ;
#1064 = CYLINDRICAL_SURFACE ( 'NONE', #82, 1.500000000000001332 ) ;
#1065 = LINE ( 'NONE', #377, #587 ) ;
#1066 = EDGE_LOOP ( 'NONE', ( #395, #908 ) ) ;
#1067 = CARTESIAN_POINT ( 'NONE',  ( -7.071067811865456854, 6.000000000000000000, 5.571067811865492381 ) ) ;
#1068 = CYLINDRICAL_SURFACE ( 'NONE', #1022, 113.7666666666674615 ) ;
#1069 = ADVANCED_FACE ( 'NONE', ( #1080 ), #91, .F. ) ;
#1070 = DIRECTION ( 'NONE',  ( -0.000000000000000000, -1.000000000000000000, -0.000000000000000000 ) ) ;
#1071 = ORIENTED_EDGE ( 'NONE', *, *, #1017, .F. ) ;
#1072 = CARTESIAN_POINT ( 'NONE',  ( 1.439820485060749888E-13, 6.000000000000000000, -100.2666666666674331 ) ) ;
#1073 = DIRECTION ( 'NONE',  ( 0.000000000000000000, 1.000000000000000000, 0.000000000000000000 ) ) ;
#1074 = CIRCLE ( 'NONE', #573, 1.499999999999999556 ) ;
#1075 = AXIS2_PLACEMENT_3D ( 'NONE', #318, #812, #401 ) ;
#1076 = VERTEX_POINT ( 'NONE', #431 ) ;
#1077 = CARTESIAN_POINT ( 'NONE',  ( 7.071067811865463959, 6.000000000000000000, -5.571067811865484387 ) ) ;
#1078 = DIRECTION ( 'NONE',  ( -0.000000000000000000, -1.000000000000000000, -0.000000000000000000 ) ) ;
#1079 = ORIENTED_EDGE ( 'NONE', *, *, #289, .F. ) ;
#1080 = FACE_OUTER_BOUND ( 'NONE', #241, .T. ) ;
#1081 = CARTESIAN_POINT ( 'NONE',  ( -7.071067811865456854, 6.000000000000000000, 8.571067811865491493 ) ) ;
#1082 = VERTEX_POINT ( 'NONE', #248 ) ;
#1083 = APPLICATION_PROTOCOL_DEFINITION ( 'international standard', 'config_control_design', 1994, #557 ) ;
#1084 = EDGE_CURVE ( 'NONE', #751, #787, #682, .T. ) ;
#1085 = CARTESIAN_POINT ( 'NONE',  ( -13.59880383819084138, 2.000000000000000000, -7.646540643412788718 ) ) ;
#1086 = DIRECTION ( 'NONE',  ( 0.000000000000000000, 0.000000000000000000, -1.000000000000000000 ) ) ;
#1087 = AXIS2_PLACEMENT_3D ( 'NONE', #846, #763, #438 ) ;
#1088 = AXIS2_PLACEMENT_3D ( 'NONE', #498, #1073, #567 ) ;
#1089 = EDGE_LOOP ( 'NONE', ( #388, #692, #736, #456 ) ) ;
#1090 = CIRCLE ( 'NONE', #442, 13.50000000000000000 ) ;
#1091 = APPROVAL_STATUS ( 'not_yet_approved' ) ;
#1092 = CC_DESIGN_APPROVAL ( #216, ( #393 ) ) ;
#1093 = CYLINDRICAL_SURFACE ( 'NONE', #512, 2.000000000000000000 ) ;
#1094 = CARTESIAN_POINT ( 'NONE',  ( -7.071067811865463959, 0.000000000000000000, -8.571067811865484387 ) ) ;
ENDSEC;
END-ISO-10303-21;
