ISO-10303-21;
HEADER;
FILE_DESCRIPTION (( 'STEP AP203' ),
    '1' );
FILE_NAME ('무두나사 m3 8.STEP',
    '2024-09-26T14:18:01',
    ( '' ),
    ( '' ),
    'SwSTEP 2.0',
    'SolidWorks 2022',
    '' );
FILE_SCHEMA (( 'CONFIG_CONTROL_DESIGN' ));
ENDSEC;

DATA;
#1 = DIRECTION ( 'NONE',  ( -0.8660254037844345998, -0.5000000000000071054, 0.000000000000000000 ) ) ;
#2 = EDGE_CURVE ( 'NONE', #370, #80, #207, .T. ) ;
#3 = FACE_OUTER_BOUND ( 'NONE', #305, .T. ) ;
#4 = AXIS2_PLACEMENT_3D ( 'NONE', #225, #14, #218 ) ;
#5 = APPROVAL ( #42, 'UNSPECIFIED' ) ;
#6 = DIRECTION ( 'NONE',  ( -1.000000000000000000, -3.320855350148575381E-15, 0.000000000000000000 ) ) ;
#7 = CARTESIAN_POINT ( 'NONE',  ( 0.6203173310846954447, -1.074421134254188503, 7.000000000000000000 ) ) ;
#8 = ORIENTED_EDGE ( 'NONE', *, *, #61, .F. ) ;
#9 = AXIS2_PLACEMENT_3D ( 'NONE', #147, #90, #248 ) ;
#10 = ORIENTED_EDGE ( 'NONE', *, *, #61, .T. ) ;
#11 =( LENGTH_UNIT ( ) NAMED_UNIT ( * ) SI_UNIT ( .MILLI., .METRE. ) );
#12 = ORIENTED_EDGE ( 'NONE', *, *, #309, .T. ) ;
#13 = EDGE_CURVE ( 'NONE', #377, #335, #347, .T. ) ;
#14 = DIRECTION ( 'NONE',  ( 1.048691163204813411E-14, -1.000000000000000000, 0.000000000000000000 ) ) ;
#15 = ORIENTED_EDGE ( 'NONE', *, *, #70, .T. ) ;
#16 = CIRCLE ( 'NONE', #175, 1.500000000000000222 ) ;
#17 = VERTEX_POINT ( 'NONE', #73 ) ;
#18 = COORDINATED_UNIVERSAL_TIME_OFFSET ( 9, 0, .AHEAD. ) ;
#19 = ORIENTED_EDGE ( 'NONE', *, *, #352, .T. ) ;
#20 = DIRECTION ( 'NONE',  ( 0.8660254037844414832, -0.4999999999999951150, 0.000000000000000000 ) ) ;
#21 = PERSON_AND_ORGANIZATION_ROLE ( 'design_supplier' ) ;
#22 = AXIS2_PLACEMENT_3D ( 'NONE', #267, #268, #119 ) ;
#23 = DIRECTION ( 'NONE',  ( 1.000000000000000000, 0.000000000000000000, 0.000000000000000000 ) ) ;
#24 = PERSON_AND_ORGANIZATION ( #212, #106 ) ;
#25 = DIRECTION ( 'NONE',  ( 1.000000000000000000, 0.000000000000000000, -0.000000000000000000 ) ) ;
#26 = DATE_AND_TIME ( #348, #215 ) ;
#27 = DIRECTION ( 'NONE',  ( 1.000000000000000000, 0.000000000000000000, 0.000000000000000000 ) ) ;
#28 = DIRECTION ( 'NONE',  ( -0.000000000000000000, -0.000000000000000000, -1.000000000000000000 ) ) ;
#29 = DIRECTION ( 'NONE',  ( -0.5000000000000011102, 0.8660254037844380415, 0.000000000000000000 ) ) ;
#30 = PLANE ( 'NONE',  #259 ) ;
#31 = DIRECTION ( 'NONE',  ( -0.000000000000000000, -0.000000000000000000, 1.000000000000000000 ) ) ;
#32 = CLOSED_SHELL ( 'NONE', ( #261, #269, #74, #78, #48, #363, #178, #321, #127, #342, #108 ) ) ;
#33 = DIRECTION ( 'NONE',  ( -1.000000000000000000, 0.000000000000000000, 0.000000000000000000 ) ) ;
#34 = LINE ( 'NONE', #128, #63 ) ;
#35 = AXIS2_PLACEMENT_3D ( 'NONE', #134, #374, #27 ) ;
#36 = CARTESIAN_POINT ( 'NONE',  ( -1.240634662169366020, -8.663305542572594500E-15, 7.000000000000000000 ) ) ;
#37 = EDGE_CURVE ( 'NONE', #377, #159, #16, .T. ) ;
#38 = ORIENTED_EDGE ( 'NONE', *, *, #380, .T. ) ;
#39 = COORDINATED_UNIVERSAL_TIME_OFFSET ( 9, 0, .AHEAD. ) ;
#40 = VERTEX_POINT ( 'NONE', #135 ) ;
#41 = AXIS2_PLACEMENT_3D ( 'NONE', #171, #202, #25 ) ;
#42 = APPROVAL_STATUS ( 'not_yet_approved' ) ;
#43 = ORIENTED_EDGE ( 'NONE', *, *, #37, .F. ) ;
#44 = EDGE_CURVE ( 'NONE', #335, #255, #375, .T. ) ;
#45 = EDGE_LOOP ( 'NONE', ( #191, #188, #91, #65 ) ) ;
#46 = CARTESIAN_POINT ( 'NONE',  ( 0.000000000000000000, 0.000000000000000000, 7.000000000000000000 ) ) ;
#47 = PLANE ( 'NONE',  #41 ) ;
#48 = ADVANCED_FACE ( 'NONE', ( #51 ), #138, .F. ) ;
#49 = SECURITY_CLASSIFICATION_LEVEL ( 'unclassified' ) ;
#50 = CARTESIAN_POINT ( 'NONE',  ( 1.500000000000000222, 1.836970198721030181E-16, 8.000000000000000000 ) ) ;
#51 = FACE_OUTER_BOUND ( 'NONE', #96, .T. ) ;
#52 = CARTESIAN_POINT ( 'NONE',  ( 1.240634662169366242, 0.000000000000000000, 7.000000000000000000 ) ) ;
#53 = CIRCLE ( 'NONE', #9, 1.500000000000000222 ) ;
#54 = LINE ( 'NONE', #272, #341 ) ;
#55 = LINE ( 'NONE', #56, #239 ) ;
#56 = CARTESIAN_POINT ( 'NONE',  ( -0.6203173310846730182, -1.074421134254201604, 8.000000000000000000 ) ) ;
#57 = VECTOR ( 'NONE', #324, 1000.000000000000000 ) ;
#58 = DIRECTION ( 'NONE',  ( 0.4999999999999951150, 0.8660254037844414832, 0.000000000000000000 ) ) ;
#59 = ORIENTED_EDGE ( 'NONE', *, *, #120, .T. ) ;
#60 = CARTESIAN_POINT ( 'NONE',  ( 1.240634662169366242, 0.000000000000000000, 8.000000000000000000 ) ) ;
#61 = EDGE_CURVE ( 'NONE', #159, #255, #143, .T. ) ;
#62 = VERTEX_POINT ( 'NONE', #236 ) ;
#63 = VECTOR ( 'NONE', #58, 1000.000000000000000 ) ;
#64 =( NAMED_UNIT ( * ) PLANE_ANGLE_UNIT ( ) SI_UNIT ( $, .RADIAN. ) );
#65 = ORIENTED_EDGE ( 'NONE', *, *, #192, .T. ) ;
#66 = DIRECTION ( 'NONE',  ( 0.000000000000000000, 0.000000000000000000, 1.000000000000000000 ) ) ;
#67 = VERTEX_POINT ( 'NONE', #286 ) ;
#68 = COORDINATED_UNIVERSAL_TIME_OFFSET ( 9, 0, .AHEAD. ) ;
#69 = EDGE_LOOP ( 'NONE', ( #367, #164 ) ) ;
#70 = EDGE_CURVE ( 'NONE', #233, #40, #264, .T. ) ;
#71 = AXIS2_PLACEMENT_3D ( 'NONE', #356, #83, #118 ) ;
#72 = DATE_AND_TIME ( #371, #181 ) ;
#73 = CARTESIAN_POINT ( 'NONE',  ( 0.6203173310846954447, -1.074421134254188503, 8.000000000000000000 ) ) ;
#74 = ADVANCED_FACE ( 'NONE', ( #230, #257 ), #47, .T. ) ;
#75 = PERSON_AND_ORGANIZATION ( #212, #106 ) ;
#76 = DIRECTION ( 'NONE',  ( -0.4999999999999950040, -0.8660254037844415942, 0.000000000000000000 ) ) ;
#77 = DIRECTION ( 'NONE',  ( 0.000000000000000000, 0.000000000000000000, 1.000000000000000000 ) ) ;
#78 = ADVANCED_FACE ( 'NONE', ( #113 ), #351, .F. ) ;
#79 = CALENDAR_DATE ( 2024, 26, 9 ) ;
#80 = VERTEX_POINT ( 'NONE', #198 ) ;
#81 = APPROVAL ( #282, 'UNSPECIFIED' ) ;
#82 = EDGE_LOOP ( 'NONE', ( #8, #43, #126, #110 ) ) ;
#83 = DIRECTION ( 'NONE',  ( -3.320855350148575381E-15, 1.000000000000000000, 0.000000000000000000 ) ) ;
#84 = CYLINDRICAL_SURFACE ( 'NONE', #303, 1.500000000000000222 ) ;
#85 = VECTOR ( 'NONE', #210, 1000.000000000000000 ) ;
#86 = LINE ( 'NONE', #7, #169 ) ;
#87 = LINE ( 'NONE', #174, #57 ) ;
#88 = DIRECTION ( 'NONE',  ( -0.000000000000000000, -0.000000000000000000, 1.000000000000000000 ) ) ;
#89 = CC_DESIGN_APPROVAL ( #81, ( #162 ) ) ;
#90 = DIRECTION ( 'NONE',  ( 0.000000000000000000, 0.000000000000000000, 1.000000000000000000 ) ) ;
#91 = ORIENTED_EDGE ( 'NONE', *, *, #136, .F. ) ;
#92 = APPROVAL_STATUS ( 'not_yet_approved' ) ;
#93 = ORIENTED_EDGE ( 'NONE', *, *, #358, .T. ) ;
#94 = CC_DESIGN_PERSON_AND_ORGANIZATION_ASSIGNMENT ( #163, #346, ( #105 ) ) ;
#95 = CARTESIAN_POINT ( 'NONE',  ( 0.6203173310846804567, 1.074421134254197163, 7.000000000000000000 ) ) ;
#96 = EDGE_LOOP ( 'NONE', ( #288, #276, #172, #122 ) ) ;
#97 = CC_DESIGN_APPROVAL ( #223, ( #105 ) ) ;
#98 = DIRECTION ( 'NONE',  ( -0.4999999999999950040, -0.8660254037844415942, 0.000000000000000000 ) ) ;
#99 = ORIENTED_EDGE ( 'NONE', *, *, #44, .F. ) ;
#100 = CARTESIAN_POINT ( 'NONE',  ( -0.6203173310846878952, 1.074421134254193166, 7.000000000000000000 ) ) ;
#101 = ORIENTED_EDGE ( 'NONE', *, *, #206, .T. ) ;
#102 = EDGE_CURVE ( 'NONE', #62, #80, #314, .T. ) ;
#103 = DATE_AND_TIME ( #79, #196 ) ;
#104 = CARTESIAN_POINT ( 'NONE',  ( 0.000000000000000000, 0.000000000000000000, 0.000000000000000000 ) ) ;
#105 = PRODUCT_DEFINITION ( 'UNKNOWN', '', #162, #273 ) ;
#106 = ORGANIZATION ( 'UNSPECIFIED', 'UNSPECIFIED', '' ) ;
#107 = CARTESIAN_POINT ( 'NONE',  ( 0.000000000000000000, 0.000000000000000000, 8.000000000000000000 ) ) ;
#108 = ADVANCED_FACE ( 'NONE', ( #199 ), #315, .T. ) ;
#109 = DATE_TIME_ROLE ( 'creation_date' ) ;
#110 = ORIENTED_EDGE ( 'NONE', *, *, #44, .T. ) ;
#111 = ORIENTED_EDGE ( 'NONE', *, *, #293, .F. ) ;
#112 = VECTOR ( 'NONE', #88, 1000.000000000000000 ) ;
#113 = FACE_OUTER_BOUND ( 'NONE', #129, .T. ) ;
#114 = CARTESIAN_POINT ( 'NONE',  ( -1.240634662169366020, -8.663305542572594500E-15, 8.000000000000000000 ) ) ;
#115 = LINE ( 'NONE', #238, #189 ) ;
#116 = LINE ( 'NONE', #152, #291 ) ;
#117 = EDGE_CURVE ( 'NONE', #67, #62, #317, .T. ) ;
#118 = DIRECTION ( 'NONE',  ( -1.000000000000000000, -3.320855350148575381E-15, 0.000000000000000000 ) ) ;
#119 = DIRECTION ( 'NONE',  ( 1.000000000000000000, 0.000000000000000000, 0.000000000000000000 ) ) ;
#120 = EDGE_CURVE ( 'NONE', #376, #338, #115, .T. ) ;
#121 = LINE ( 'NONE', #100, #327 ) ;
#122 = ORIENTED_EDGE ( 'NONE', *, *, #146, .T. ) ;
#123 = VECTOR ( 'NONE', #294, 1000.000000000000000 ) ;
#124 = VECTOR ( 'NONE', #271, 1000.000000000000000 ) ;
#125 = CARTESIAN_POINT ( 'NONE',  ( -0.6203173310846878952, 1.074421134254193166, 7.000000000000000000 ) ) ;
#126 = ORIENTED_EDGE ( 'NONE', *, *, #13, .T. ) ;
#127 = ADVANCED_FACE ( 'NONE', ( #289 ), #208, .F. ) ;
#128 = CARTESIAN_POINT ( 'NONE',  ( 0.6203173310846954447, -1.074421134254188503, 7.000000000000000000 ) ) ;
#129 = EDGE_LOOP ( 'NONE', ( #99, #252 ) ) ;
#130 = AXIS2_PLACEMENT_3D ( 'NONE', #125, #182, #331 ) ;
#131 = CARTESIAN_POINT ( 'NONE',  ( 0.000000000000000000, 0.000000000000000000, 0.000000000000000000 ) ) ;
#132 = EDGE_CURVE ( 'NONE', #338, #62, #116, .T. ) ;
#133 = ORIENTED_EDGE ( 'NONE', *, *, #173, .F. ) ;
#134 = CARTESIAN_POINT ( 'NONE',  ( 0.000000000000000000, 0.000000000000000000, 0.000000000000000000 ) ) ;
#135 = CARTESIAN_POINT ( 'NONE',  ( 0.6203173310846954447, -1.074421134254188503, 7.000000000000000000 ) ) ;
#136 = EDGE_CURVE ( 'NONE', #274, #376, #54, .T. ) ;
#137 = VECTOR ( 'NONE', #320, 1000.000000000000000 ) ;
#138 = PLANE ( 'NONE',  #235 ) ;
#139 = MANIFOLD_SOLID_BREP ( '컷-돌출1', #32 ) ;
#140 = CALENDAR_DATE ( 2024, 26, 9 ) ;
#141 = CARTESIAN_POINT ( 'NONE',  ( -1.240634662169366020, -8.663305542572594500E-15, 7.000000000000000000 ) ) ;
#142 = COORDINATED_UNIVERSAL_TIME_OFFSET ( 9, 0, .AHEAD. ) ;
#143 = LINE ( 'NONE', #50, #355 ) ;
#144 = LOCAL_TIME ( 23, 18, 1.000000000000000000, #142 ) ;
#145 = CARTESIAN_POINT ( 'NONE',  ( 0.000000000000000000, 0.000000000000000000, 8.000000000000000000 ) ) ;
#146 = EDGE_CURVE ( 'NONE', #40, #17, #86, .T. ) ;
#147 = CARTESIAN_POINT ( 'NONE',  ( 0.000000000000000000, 0.000000000000000000, 0.000000000000000000 ) ) ;
#148 = CARTESIAN_POINT ( 'NONE',  ( -0.6203173310846730182, -1.074421134254201604, 8.000000000000000000 ) ) ;
#149 = EDGE_CURVE ( 'NONE', #233, #245, #177, .T. ) ;
#150 = CARTESIAN_POINT ( 'NONE',  ( -1.240634662169366020, -8.663305542572594500E-15, 7.000000000000000000 ) ) ;
#151 = CC_DESIGN_PERSON_AND_ORGANIZATION_ASSIGNMENT ( #229, #200, ( #312 ) ) ;
#152 = CARTESIAN_POINT ( 'NONE',  ( -0.6203173310846878952, 1.074421134254193166, 7.000000000000000000 ) ) ;
#153 = CARTESIAN_POINT ( 'NONE',  ( -0.6203173310846878952, 1.074421134254193166, 7.000000000000000000 ) ) ;
#154 = DIRECTION ( 'NONE',  ( 0.5000000000000069944, -0.8660254037844345998, 0.000000000000000000 ) ) ;
#155 = ORIENTED_EDGE ( 'NONE', *, *, #102, .F. ) ;
#156 = CC_DESIGN_APPROVAL ( #5, ( #312 ) ) ;
#157 = LINE ( 'NONE', #300, #228 ) ;
#158 = EDGE_LOOP ( 'NONE', ( #330, #263, #278, #332 ) ) ;
#159 = VERTEX_POINT ( 'NONE', #214 ) ;
#160 = CARTESIAN_POINT ( 'NONE',  ( -1.500000000000000222, 0.000000000000000000, 0.000000000000000000 ) ) ;
#161 = EDGE_LOOP ( 'NONE', ( #93, #344, #59, #19, #38, #15 ) ) ;
#162 = PRODUCT_DEFINITION_FORMATION_WITH_SPECIFIED_SOURCE ( 'ANY', '', #345, .NOT_KNOWN. ) ;
#163 = PERSON_AND_ORGANIZATION ( #212, #106 ) ;
#164 = ORIENTED_EDGE ( 'NONE', *, *, #173, .T. ) ;
#165 = APPROVAL_DATE_TIME ( #72, #223 ) ;
#166 = PRODUCT_DEFINITION_SHAPE ( 'NONE', 'NONE',  #105 ) ;
#167 = CARTESIAN_POINT ( 'NONE',  ( -1.500000000000000222, 0.000000000000000000, 8.000000000000000000 ) ) ;
#168 = DIRECTION ( 'NONE',  ( 0.000000000000000000, -0.000000000000000000, 1.000000000000000000 ) ) ;
#169 = VECTOR ( 'NONE', #31, 1000.000000000000000 ) ;
#170 = COORDINATED_UNIVERSAL_TIME_OFFSET ( 9, 0, .AHEAD. ) ;
#171 = CARTESIAN_POINT ( 'NONE',  ( 0.000000000000000000, 0.000000000000000000, 8.000000000000000000 ) ) ;
#172 = ORIENTED_EDGE ( 'NONE', *, *, #358, .F. ) ;
#173 = EDGE_CURVE ( 'NONE', #159, #377, #209, .T. ) ;
#174 = CARTESIAN_POINT ( 'NONE',  ( 0.6203173310846954447, -1.074421134254188503, 8.000000000000000000 ) ) ;
#175 = AXIS2_PLACEMENT_3D ( 'NONE', #107, #77, #23 ) ;
#176 = LINE ( 'NONE', #292, #203 ) ;
#177 = LINE ( 'NONE', #382, #221 ) ;
#178 = ADVANCED_FACE ( 'NONE', ( #3 ), #30, .F. ) ;
#179 = DIRECTION ( 'NONE',  ( -1.000000000000000000, 0.000000000000000000, 0.000000000000000000 ) ) ;
#180 = CARTESIAN_POINT ( 'NONE',  ( 0.000000000000000000, 0.000000000000000000, 8.000000000000000000 ) ) ;
#181 = LOCAL_TIME ( 23, 18, 1.000000000000000000, #39 ) ;
#182 = DIRECTION ( 'NONE',  ( -0.8660254037844415942, 0.4999999999999949485, 0.000000000000000000 ) ) ;
#183 = EDGE_CURVE ( 'NONE', #80, #245, #242, .T. ) ;
#184 = CARTESIAN_POINT ( 'NONE',  ( -1.500000000000000222, 0.000000000000000000, 8.000000000000000000 ) ) ;
#185 = ORIENTED_EDGE ( 'NONE', *, *, #102, .T. ) ;
#186 = FACE_OUTER_BOUND ( 'NONE', #306, .T. ) ;
#187 = CC_DESIGN_DATE_AND_TIME_ASSIGNMENT ( #232, #109, ( #105 ) ) ;
#188 = ORIENTED_EDGE ( 'NONE', *, *, #206, .F. ) ;
#189 = VECTOR ( 'NONE', #6, 1000.000000000000000 ) ;
#190 = PERSON_AND_ORGANIZATION ( #212, #106 ) ;
#191 = ORIENTED_EDGE ( 'NONE', *, *, #293, .T. ) ;
#192 = EDGE_CURVE ( 'NONE', #274, #378, #359, .T. ) ;
#193 = APPLICATION_PROTOCOL_DEFINITION ( 'international standard', 'config_control_design', 1994, #265 ) ;
#194 = EDGE_LOOP ( 'NONE', ( #133, #10, #12, #285 ) ) ;
#195 = ORIENTED_EDGE ( 'NONE', *, *, #149, .F. ) ;
#196 = LOCAL_TIME ( 23, 18, 1.000000000000000000, #68 ) ;
#197 = PERSON_AND_ORGANIZATION_ROLE ( 'creator' ) ;
#198 = CARTESIAN_POINT ( 'NONE',  ( -1.240634662169366020, -8.663305542572594500E-15, 8.000000000000000000 ) ) ;
#199 = FACE_OUTER_BOUND ( 'NONE', #161, .T. ) ;
#200 = PERSON_AND_ORGANIZATION_ROLE ( 'classification_officer' ) ;
#201 = CC_DESIGN_PERSON_AND_ORGANIZATION_ASSIGNMENT ( #343, #197, ( #162 ) ) ;
#202 = DIRECTION ( 'NONE',  ( 0.000000000000000000, 0.000000000000000000, 1.000000000000000000 ) ) ;
#203 = VECTOR ( 'NONE', #29, 1000.000000000000114 ) ;
#204 = SHAPE_DEFINITION_REPRESENTATION ( #166, #290 ) ;
#205 = DIRECTION ( 'NONE',  ( 0.4999999999999951150, 0.8660254037844414832, 0.000000000000000000 ) ) ;
#206 = EDGE_CURVE ( 'NONE', #376, #67, #328, .T. ) ;
#207 = LINE ( 'NONE', #141, #296 ) ;
#208 = PLANE ( 'NONE',  #71 ) ;
#209 = CIRCLE ( 'NONE', #22, 1.500000000000000222 ) ;
#210 = DIRECTION ( 'NONE',  ( 0.5000000000000069944, -0.8660254037844345998, 0.000000000000000000 ) ) ;
#211 = DIRECTION ( 'NONE',  ( -0.000000000000000000, -0.000000000000000000, 1.000000000000000000 ) ) ;
#212 = PERSON ( 'UNSPECIFIED', 'UNSPECIFIED', 'UNSPECIFIED', ('UNSPECIFIED'), ('UNSPECIFIED'), ('UNSPECIFIED') ) ;
#213 = CARTESIAN_POINT ( 'NONE',  ( 1.500000000000000222, 1.836970198721030181E-16, 0.000000000000000000 ) ) ;
#214 = CARTESIAN_POINT ( 'NONE',  ( 1.500000000000000222, 1.836970198721030181E-16, 8.000000000000000000 ) ) ;
#215 = LOCAL_TIME ( 23, 18, 1.000000000000000000, #170 ) ;
#216 = CARTESIAN_POINT ( 'NONE',  ( 1.240634662169366242, 0.000000000000000000, 7.000000000000000000 ) ) ;
#217 = ORIENTED_EDGE ( 'NONE', *, *, #2, .F. ) ;
#218 = DIRECTION ( 'NONE',  ( 1.000000000000000000, 1.048691163204813411E-14, 0.000000000000000000 ) ) ;
#219 = ORIENTED_EDGE ( 'NONE', *, *, #120, .F. ) ;
#220 = ORIENTED_EDGE ( 'NONE', *, *, #2, .T. ) ;
#221 = VECTOR ( 'NONE', #211, 1000.000000000000000 ) ;
#222 = PERSON_AND_ORGANIZATION_ROLE ( 'design_owner' ) ;
#223 = APPROVAL ( #92, 'UNSPECIFIED' ) ;
#224 = ORIENTED_EDGE ( 'NONE', *, *, #352, .F. ) ;
#225 = CARTESIAN_POINT ( 'NONE',  ( -0.6203173310846730182, -1.074421134254201604, 7.000000000000000000 ) ) ;
#226 = ORIENTED_EDGE ( 'NONE', *, *, #380, .F. ) ;
#227 = DIRECTION ( 'NONE',  ( 0.000000000000000000, 0.000000000000000000, 1.000000000000000000 ) ) ;
#228 = VECTOR ( 'NONE', #154, 1000.000000000000000 ) ;
#229 = PERSON_AND_ORGANIZATION ( #212, #106 ) ;
#230 = FACE_BOUND ( 'NONE', #308, .T. ) ;
#231 = DATE_AND_TIME ( #373, #144 ) ;
#232 = DATE_AND_TIME ( #140, #350 ) ;
#233 = VERTEX_POINT ( 'NONE', #325 ) ;
#234 = EDGE_CURVE ( 'NONE', #17, #378, #87, .T. ) ;
#235 = AXIS2_PLACEMENT_3D ( 'NONE', #319, #20, #205 ) ;
#236 = CARTESIAN_POINT ( 'NONE',  ( -0.6203173310846878952, 1.074421134254193166, 8.000000000000000000 ) ) ;
#237 = DIRECTION ( 'NONE',  ( -0.000000000000000000, -0.000000000000000000, 1.000000000000000000 ) ) ;
#238 = CARTESIAN_POINT ( 'NONE',  ( 0.6203173310846804567, 1.074421134254197163, 7.000000000000000000 ) ) ;
#239 = VECTOR ( 'NONE', #270, 1000.000000000000000 ) ;
#240 = DIRECTION ( 'NONE',  ( 0.5000000000000069944, -0.8660254037844344888, 0.000000000000000000 ) ) ;
#241 = CARTESIAN_POINT ( 'NONE',  ( 0.6203173310846804567, 1.074421134254197163, 7.000000000000000000 ) ) ;
#242 = LINE ( 'NONE', #114, #85 ) ;
#243 = PLANE ( 'NONE',  #4 ) ;
#244 = VECTOR ( 'NONE', #76, 1000.000000000000114 ) ;
#245 = VERTEX_POINT ( 'NONE', #148 ) ;
#246 = ORIENTED_EDGE ( 'NONE', *, *, #183, .F. ) ;
#247 = EDGE_CURVE ( 'NONE', #245, #17, #55, .T. ) ;
#248 = DIRECTION ( 'NONE',  ( 1.000000000000000000, 0.000000000000000000, 0.000000000000000000 ) ) ;
#249 = ORIENTED_EDGE ( 'NONE', *, *, #247, .F. ) ;
#250 = PRODUCT_RELATED_PRODUCT_CATEGORY ( 'detail', '', ( #345 ) ) ;
#251 =( NAMED_UNIT ( * ) SI_UNIT ( $, .STERADIAN. ) SOLID_ANGLE_UNIT ( ) );
#252 = ORIENTED_EDGE ( 'NONE', *, *, #309, .F. ) ;
#253 = AXIS2_PLACEMENT_3D ( 'NONE', #216, #366, #329 ) ;
#254 = APPLICATION_PROTOCOL_DEFINITION ( 'international standard', 'config_control_design', 1994, #298 ) ;
#255 = VERTEX_POINT ( 'NONE', #213 ) ;
#256 = APPROVAL_ROLE ( '' ) ;
#257 = FACE_OUTER_BOUND ( 'NONE', #69, .T. ) ;
#258 = DIRECTION ( 'NONE',  ( -0.000000000000000000, -0.000000000000000000, -1.000000000000000000 ) ) ;
#259 = AXIS2_PLACEMENT_3D ( 'NONE', #150, #1, #240 ) ;
#260 = DIRECTION ( 'NONE',  ( 1.000000000000000000, 0.000000000000000000, -0.000000000000000000 ) ) ;
#261 = ADVANCED_FACE ( 'NONE', ( #322 ), #326, .T. ) ;
#262 = PERSON_AND_ORGANIZATION ( #212, #106 ) ;
#263 = ORIENTED_EDGE ( 'NONE', *, *, #146, .F. ) ;
#264 = LINE ( 'NONE', #379, #368 ) ;
#265 = APPLICATION_CONTEXT ( 'configuration controlled 3d designs of mechanical parts and assemblies' ) ;
#266 = AXIS2_PLACEMENT_3D ( 'NONE', #46, #168, #260 ) ;
#267 = CARTESIAN_POINT ( 'NONE',  ( 0.000000000000000000, 0.000000000000000000, 8.000000000000000000 ) ) ;
#268 = DIRECTION ( 'NONE',  ( 0.000000000000000000, 0.000000000000000000, 1.000000000000000000 ) ) ;
#269 = ADVANCED_FACE ( 'NONE', ( #297 ), #84, .T. ) ;
#270 = DIRECTION ( 'NONE',  ( 1.000000000000000000, 1.048691163204813253E-14, 0.000000000000000000 ) ) ;
#271 = DIRECTION ( 'NONE',  ( -1.000000000000000000, -3.320855350148575381E-15, 0.000000000000000000 ) ) ;
#272 = CARTESIAN_POINT ( 'NONE',  ( 1.240634662169366242, 0.000000000000000000, 7.000000000000000000 ) ) ;
#273 = DESIGN_CONTEXT ( 'detailed design', #265, 'design' ) ;
#274 = VERTEX_POINT ( 'NONE', #52 ) ;
#275 = ORIENTED_EDGE ( 'NONE', *, *, #117, .T. ) ;
#276 = ORIENTED_EDGE ( 'NONE', *, *, #192, .F. ) ;
#277 = FACE_OUTER_BOUND ( 'NONE', #158, .T. ) ;
#278 = ORIENTED_EDGE ( 'NONE', *, *, #70, .F. ) ;
#279 = AXIS2_PLACEMENT_3D ( 'NONE', #180, #28, #179 ) ;
#280 = APPROVAL_DATE_TIME ( #26, #81 ) ;
#281 = DIRECTION ( 'NONE',  ( 1.000000000000000000, 1.048691163204813253E-14, 0.000000000000000000 ) ) ;
#282 = APPROVAL_STATUS ( 'not_yet_approved' ) ;
#283 = CC_DESIGN_PERSON_AND_ORGANIZATION_ASSIGNMENT ( #190, #222, ( #345 ) ) ;
#284 = CARTESIAN_POINT ( 'NONE',  ( -0.6203173310846878952, 1.074421134254193166, 8.000000000000000000 ) ) ;
#285 = ORIENTED_EDGE ( 'NONE', *, *, #13, .F. ) ;
#286 = CARTESIAN_POINT ( 'NONE',  ( 0.6203173310846804567, 1.074421134254197163, 8.000000000000000000 ) ) ;
#287 = CC_DESIGN_PERSON_AND_ORGANIZATION_ASSIGNMENT ( #75, #21, ( #162 ) ) ;
#288 = ORIENTED_EDGE ( 'NONE', *, *, #234, .T. ) ;
#289 = FACE_OUTER_BOUND ( 'NONE', #311, .T. ) ;
#290 = ADVANCED_BREP_SHAPE_REPRESENTATION ( '무두나사 m3 8', ( #139, #333 ), #318 ) ;
#291 = VECTOR ( 'NONE', #237, 1000.000000000000000 ) ;
#292 = CARTESIAN_POINT ( 'NONE',  ( 1.240634662169366242, 0.000000000000000000, 8.000000000000000000 ) ) ;
#293 = EDGE_CURVE ( 'NONE', #378, #67, #176, .T. ) ;
#294 = DIRECTION ( 'NONE',  ( -0.000000000000000000, -0.000000000000000000, 1.000000000000000000 ) ) ;
#295 = DIRECTION ( 'NONE',  ( -0.000000000000000000, -0.000000000000000000, -1.000000000000000000 ) ) ;
#296 = VECTOR ( 'NONE', #349, 1000.000000000000000 ) ;
#297 = FACE_OUTER_BOUND ( 'NONE', #82, .T. ) ;
#298 = APPLICATION_CONTEXT ( 'configuration controlled 3d designs of mechanical parts and assemblies' ) ;
#299 = UNCERTAINTY_MEASURE_WITH_UNIT (LENGTH_MEASURE( 1.000000000000000082E-05 ), #11, 'distance_accuracy_value', 'NONE');
#300 = CARTESIAN_POINT ( 'NONE',  ( -1.240634662169366020, -8.663305542572594500E-15, 7.000000000000000000 ) ) ;
#301 = ORIENTED_EDGE ( 'NONE', *, *, #132, .F. ) ;
#302 = CC_DESIGN_SECURITY_CLASSIFICATION ( #312, ( #162 ) ) ;
#303 = AXIS2_PLACEMENT_3D ( 'NONE', #145, #295, #33 ) ;
#304 = PLANE ( 'NONE',  #253 ) ;
#305 = EDGE_LOOP ( 'NONE', ( #337, #195, #226, #220 ) ) ;
#306 = EDGE_LOOP ( 'NONE', ( #185, #217, #224, #365 ) ) ;
#307 = APPROVAL_ROLE ( '' ) ;
#308 = EDGE_LOOP ( 'NONE', ( #372, #249, #246, #155, #362, #111 ) ) ;
#309 = EDGE_CURVE ( 'NONE', #255, #335, #53, .T. ) ;
#310 = APPROVAL_DATE_TIME ( #103, #5 ) ;
#311 = EDGE_LOOP ( 'NONE', ( #275, #301, #219, #101 ) ) ;
#312 = SECURITY_CLASSIFICATION ( '', '', #49 ) ;
#313 = APPROVAL_ROLE ( '' ) ;
#314 = LINE ( 'NONE', #284, #244 ) ;
#315 = PLANE ( 'NONE',  #266 ) ;
#316 = DATE_TIME_ROLE ( 'classification_date' ) ;
#317 = LINE ( 'NONE', #353, #124 ) ;
#318 =( GEOMETRIC_REPRESENTATION_CONTEXT ( 3 ) GLOBAL_UNCERTAINTY_ASSIGNED_CONTEXT ( ( #299 ) ) GLOBAL_UNIT_ASSIGNED_CONTEXT ( ( #11, #64, #251 ) ) REPRESENTATION_CONTEXT ( 'NONE', 'WORKASPACE' ) );
#319 = CARTESIAN_POINT ( 'NONE',  ( 0.6203173310846954447, -1.074421134254188503, 7.000000000000000000 ) ) ;
#320 = DIRECTION ( 'NONE',  ( -0.000000000000000000, -0.000000000000000000, -1.000000000000000000 ) ) ;
#321 = ADVANCED_FACE ( 'NONE', ( #186 ), #336, .F. ) ;
#322 = FACE_OUTER_BOUND ( 'NONE', #194, .T. ) ;
#323 = APPROVAL_PERSON_ORGANIZATION ( #364, #223, #307 ) ;
#324 = DIRECTION ( 'NONE',  ( 0.4999999999999951150, 0.8660254037844414832, 0.000000000000000000 ) ) ;
#325 = CARTESIAN_POINT ( 'NONE',  ( -0.6203173310846730182, -1.074421134254201604, 7.000000000000000000 ) ) ;
#326 = CYLINDRICAL_SURFACE ( 'NONE', #279, 1.500000000000000222 ) ;
#327 = VECTOR ( 'NONE', #98, 1000.000000000000114 ) ;
#328 = LINE ( 'NONE', #241, #123 ) ;
#329 = DIRECTION ( 'NONE',  ( -0.5000000000000012212, 0.8660254037844380415, 0.000000000000000000 ) ) ;
#330 = ORIENTED_EDGE ( 'NONE', *, *, #247, .T. ) ;
#331 = DIRECTION ( 'NONE',  ( -0.4999999999999949485, -0.8660254037844415942, 0.000000000000000000 ) ) ;
#332 = ORIENTED_EDGE ( 'NONE', *, *, #149, .T. ) ;
#333 = AXIS2_PLACEMENT_3D ( 'NONE', #131, #66, #369 ) ;
#334 = MECHANICAL_CONTEXT ( 'NONE', #298, 'mechanical' ) ;
#335 = VERTEX_POINT ( 'NONE', #160 ) ;
#336 = PLANE ( 'NONE',  #130 ) ;
#337 = ORIENTED_EDGE ( 'NONE', *, *, #183, .T. ) ;
#338 = VERTEX_POINT ( 'NONE', #153 ) ;
#339 = AXIS2_PLACEMENT_3D ( 'NONE', #104, #227, #340 ) ;
#340 = DIRECTION ( 'NONE',  ( 1.000000000000000000, 0.000000000000000000, -0.000000000000000000 ) ) ;
#341 = VECTOR ( 'NONE', #354, 1000.000000000000114 ) ;
#342 = ADVANCED_FACE ( 'NONE', ( #361 ), #304, .F. ) ;
#343 = PERSON_AND_ORGANIZATION ( #212, #106 ) ;
#344 = ORIENTED_EDGE ( 'NONE', *, *, #136, .T. ) ;
#345 = PRODUCT ( '무두나사 m3 8', '무두나사 m3 8', '', ( #334 ) ) ;
#346 = PERSON_AND_ORGANIZATION_ROLE ( 'creator' ) ;
#347 = LINE ( 'NONE', #167, #137 ) ;
#348 = CALENDAR_DATE ( 2024, 26, 9 ) ;
#349 = DIRECTION ( 'NONE',  ( -0.000000000000000000, -0.000000000000000000, 1.000000000000000000 ) ) ;
#350 = LOCAL_TIME ( 23, 18, 1.000000000000000000, #18 ) ;
#351 = PLANE ( 'NONE',  #339 ) ;
#352 = EDGE_CURVE ( 'NONE', #338, #370, #121, .T. ) ;
#353 = CARTESIAN_POINT ( 'NONE',  ( 0.6203173310846804567, 1.074421134254197163, 8.000000000000000000 ) ) ;
#354 = DIRECTION ( 'NONE',  ( -0.5000000000000011102, 0.8660254037844380415, 0.000000000000000000 ) ) ;
#355 = VECTOR ( 'NONE', #258, 1000.000000000000000 ) ;
#356 = CARTESIAN_POINT ( 'NONE',  ( 0.6203173310846804567, 1.074421134254197163, 7.000000000000000000 ) ) ;
#357 = CARTESIAN_POINT ( 'NONE',  ( 1.240634662169366242, 0.000000000000000000, 7.000000000000000000 ) ) ;
#358 = EDGE_CURVE ( 'NONE', #40, #274, #34, .T. ) ;
#359 = LINE ( 'NONE', #357, #112 ) ;
#360 = APPROVAL_PERSON_ORGANIZATION ( #24, #5, #256 ) ;
#361 = FACE_OUTER_BOUND ( 'NONE', #45, .T. ) ;
#362 = ORIENTED_EDGE ( 'NONE', *, *, #117, .F. ) ;
#363 = ADVANCED_FACE ( 'NONE', ( #277 ), #243, .F. ) ;
#364 = PERSON_AND_ORGANIZATION ( #212, #106 ) ;
#365 = ORIENTED_EDGE ( 'NONE', *, *, #132, .T. ) ;
#366 = DIRECTION ( 'NONE',  ( 0.8660254037844380415, 0.5000000000000012212, 0.000000000000000000 ) ) ;
#367 = ORIENTED_EDGE ( 'NONE', *, *, #37, .T. ) ;
#368 = VECTOR ( 'NONE', #281, 1000.000000000000000 ) ;
#369 = DIRECTION ( 'NONE',  ( 1.000000000000000000, 0.000000000000000000, 0.000000000000000000 ) ) ;
#370 = VERTEX_POINT ( 'NONE', #36 ) ;
#371 = CALENDAR_DATE ( 2024, 26, 9 ) ;
#372 = ORIENTED_EDGE ( 'NONE', *, *, #234, .F. ) ;
#373 = CALENDAR_DATE ( 2024, 26, 9 ) ;
#374 = DIRECTION ( 'NONE',  ( 0.000000000000000000, 0.000000000000000000, 1.000000000000000000 ) ) ;
#375 = CIRCLE ( 'NONE', #35, 1.500000000000000222 ) ;
#376 = VERTEX_POINT ( 'NONE', #95 ) ;
#377 = VERTEX_POINT ( 'NONE', #184 ) ;
#378 = VERTEX_POINT ( 'NONE', #60 ) ;
#379 = CARTESIAN_POINT ( 'NONE',  ( -0.6203173310846730182, -1.074421134254201604, 7.000000000000000000 ) ) ;
#380 = EDGE_CURVE ( 'NONE', #370, #233, #157, .T. ) ;
#381 = APPROVAL_PERSON_ORGANIZATION ( #262, #81, #313 ) ;
#382 = CARTESIAN_POINT ( 'NONE',  ( -0.6203173310846730182, -1.074421134254201604, 7.000000000000000000 ) ) ;
#383 = CC_DESIGN_DATE_AND_TIME_ASSIGNMENT ( #231, #316, ( #312 ) ) ;
ENDSEC;
END-ISO-10303-21;
