ISO-10303-21;
HEADER;
FILE_DESCRIPTION (( 'STEP AP203' ),
    '1' );
FILE_NAME ('바디_엔드이펙터.STEP',
    '2024-09-26T14:17:23',
    ( '' ),
    ( '' ),
    'SwSTEP 2.0',
    'SolidWorks 2022',
    '' );
FILE_SCHEMA (( 'CONFIG_CONTROL_DESIGN' ));
ENDSEC;

DATA;
#1 = VERTEX_POINT ( 'NONE', #952 ) ;
#2 = FACE_BOUND ( 'NONE', #548, .T. ) ;
#3 = DIRECTION ( 'NONE',  ( -0.000000000000000000, 1.000000000000000000, -0.000000000000000000 ) ) ;
#4 = FACE_OUTER_BOUND ( 'NONE', #1263, .T. ) ;
#5 = ORIENTED_EDGE ( 'NONE', *, *, #303, .T. ) ;
#6 = EDGE_CURVE ( 'NONE', #817, #310, #787, .T. ) ;
#7 = ORIENTED_EDGE ( 'NONE', *, *, #1327, .F. ) ;
#8 = DIRECTION ( 'NONE',  ( -1.000000000000000000, 0.000000000000000000, 0.000000000000000000 ) ) ;
#9 = DIRECTION ( 'NONE',  ( -1.000000000000000000, 0.000000000000000000, 0.000000000000000000 ) ) ;
#10 = ORIENTED_EDGE ( 'NONE', *, *, #821, .F. ) ;
#11 = AXIS2_PLACEMENT_3D ( 'NONE', #1042, #1273, #340 ) ;
#12 = ORIENTED_EDGE ( 'NONE', *, *, #278, .F. ) ;
#13 = ADVANCED_FACE ( 'NONE', ( #1276 ), #862, .F. ) ;
#14 = CARTESIAN_POINT ( 'NONE',  ( 0.000000000000000000, 5.999999999999998224, -30.00000000000000000 ) ) ;
#15 = EDGE_CURVE ( 'NONE', #667, #102, #239, .T. ) ;
#16 = AXIS2_PLACEMENT_3D ( 'NONE', #998, #347, #761 ) ;
#17 = LINE ( 'NONE', #38, #878 ) ;
#18 = DATE_AND_TIME ( #630, #635 ) ;
#19 = ORIENTED_EDGE ( 'NONE', *, *, #1285, .F. ) ;
#20 = VERTEX_POINT ( 'NONE', #66 ) ;
#21 = CYLINDRICAL_SURFACE ( 'NONE', #180, 2.000000000000003109 ) ;
#22 = EDGE_CURVE ( 'NONE', #69, #1200, #123, .T. ) ;
#23 = DIRECTION ( 'NONE',  ( -1.000000000000000000, -1.269309860470834724E-16, 0.000000000000000000 ) ) ;
#24 = APPROVAL_DATE_TIME ( #39, #54 ) ;
#25 = ORIENTED_EDGE ( 'NONE', *, *, #98, .T. ) ;
#26 = ORIENTED_EDGE ( 'NONE', *, *, #1093, .T. ) ;
#27 = CARTESIAN_POINT ( 'NONE',  ( 5.999999999999999112, 21.19565161264574371, -14.40580515651606852 ) ) ;
#28 = DIRECTION ( 'NONE',  ( 1.000000000000000000, -0.000000000000000000, -0.000000000000000000 ) ) ;
#29 = EDGE_CURVE ( 'NONE', #338, #219, #988, .T. ) ;
#30 = EDGE_LOOP ( 'NONE', ( #1324, #1277, #709, #658 ) ) ;
#31 = ORIENTED_EDGE ( 'NONE', *, *, #22, .T. ) ;
#32 = CIRCLE ( 'NONE', #764, 2.000000000000001776 ) ;
#33 = CIRCLE ( 'NONE', #203, 2.000000000000002665 ) ;
#34 = DIRECTION ( 'NONE',  ( -1.000000000000000000, -0.000000000000000000, -0.000000000000000000 ) ) ;
#35 = CC_DESIGN_APPROVAL ( #72, ( #1108 ) ) ;
#36 = AXIS2_PLACEMENT_3D ( 'NONE', #1060, #644, #1274 ) ;
#37 = CIRCLE ( 'NONE', #245, 27.76312667066044426 ) ;
#38 = CARTESIAN_POINT ( 'NONE',  ( 0.000000000000000000, 11.50000000000000355, -18.00000000000000000 ) ) ;
#39 = DATE_AND_TIME ( #553, #462 ) ;
#40 = VERTEX_POINT ( 'NONE', #51 ) ;
#41 = ORIENTED_EDGE ( 'NONE', *, *, #552, .F. ) ;
#42 = ORIENTED_EDGE ( 'NONE', *, *, #708, .T. ) ;
#43 = CARTESIAN_POINT ( 'NONE',  ( 43.00000000000000000, 5.999999999999998224, -32.00000000000000000 ) ) ;
#44 = CARTESIAN_POINT ( 'NONE',  ( 6.189772683907823314, 12.62004110346230945, -33.13774054064774077 ) ) ;
#45 = ORIENTED_EDGE ( 'NONE', *, *, #1073, .T. ) ;
#46 = FACE_OUTER_BOUND ( 'NONE', #1167, .T. ) ;
#47 = EDGE_LOOP ( 'NONE', ( #81, #733, #1036, #1133 ) ) ;
#48 = EDGE_CURVE ( 'NONE', #382, #508, #1316, .T. ) ;
#49 = DIRECTION ( 'NONE',  ( -1.000000000000000000, 0.000000000000000000, -0.000000000000000000 ) ) ;
#50 = DIRECTION ( 'NONE',  ( 0.000000000000000000, 0.000000000000000000, -1.000000000000000000 ) ) ;
#51 = CARTESIAN_POINT ( 'NONE',  ( 0.000000000000000000, 26.00000000000000355, -12.00000000000000355 ) ) ;
#52 = FACE_OUTER_BOUND ( 'NONE', #758, .T. ) ;
#53 = ORIENTED_EDGE ( 'NONE', *, *, #821, .T. ) ;
#54 = APPROVAL ( #1142, 'UNSPECIFIED' ) ;
#55 = CARTESIAN_POINT ( 'NONE',  ( 0.000000000000000000, 16.85508969826349102, -11.15857494074755962 ) ) ;
#56 = VECTOR ( 'NONE', #716, 1000.000000000000000 ) ;
#57 = FACE_OUTER_BOUND ( 'NONE', #551, .T. ) ;
#58 = CIRCLE ( 'NONE', #399, 5.420791621782350411 ) ;
#59 = CIRCLE ( 'NONE', #1194, 2.000000000000005329 ) ;
#60 = DIRECTION ( 'NONE',  ( 1.000000000000000000, 0.000000000000000000, -0.000000000000000000 ) ) ;
#61 = CARTESIAN_POINT ( 'NONE',  ( 7.652292305736828837, 11.52887070948299453, -12.16855701327082073 ) ) ;
#62 = LINE ( 'NONE', #880, #376 ) ;
#63 = EDGE_LOOP ( 'NONE', ( #1035, #747, #541, #590, #53 ) ) ;
#64 = CARTESIAN_POINT ( 'NONE',  ( 6.500000000000000888, 0.000000000000000000, -4.999999999999997335 ) ) ;
#65 = EDGE_CURVE ( 'NONE', #969, #1333, #387, .T. ) ;
#66 = CARTESIAN_POINT ( 'NONE',  ( 12.99999999999999822, 5.999999999999998224, -30.00000000000000000 ) ) ;
#67 = LINE ( 'NONE', #765, #744 ) ;
#68 = DIRECTION ( 'NONE',  ( -1.000000000000000000, -0.000000000000000000, -0.000000000000000000 ) ) ;
#69 = VERTEX_POINT ( 'NONE', #801 ) ;
#70 = LINE ( 'NONE', #175, #1175 ) ;
#71 = DIRECTION ( 'NONE',  ( 0.000000000000000000, 0.8704663212435229669, -0.4922279792746119820 ) ) ;
#72 = APPROVAL ( #138, 'UNSPECIFIED' ) ;
#73 = CARTESIAN_POINT ( 'NONE',  ( 12.99999999999999467, -4.347496136973103281E-15, -35.50000000000000000 ) ) ;
#74 = LINE ( 'NONE', #282, #330 ) ;
#75 = EDGE_LOOP ( 'NONE', ( #1137, #1270, #31, #525, #1255, #502 ) ) ;
#76 = CYLINDRICAL_SURFACE ( 'NONE', #956, 2.000000000000005329 ) ;
#77 = VECTOR ( 'NONE', #800, 1000.000000000000000 ) ;
#78 = CIRCLE ( 'NONE', #100, 2.000000000000001776 ) ;
#79 = CARTESIAN_POINT ( 'NONE',  ( 36.50000000000000000, 0.000000000000000000, -5.000000000000000000 ) ) ;
#80 = VECTOR ( 'NONE', #260, 1000.000000000000000 ) ;
#81 = ORIENTED_EDGE ( 'NONE', *, *, #839, .F. ) ;
#82 = DIRECTION ( 'NONE',  ( -1.000000000000000000, -0.000000000000000000, -0.000000000000000000 ) ) ;
#83 = ORIENTED_EDGE ( 'NONE', *, *, #402, .F. ) ;
#84 = DIRECTION ( 'NONE',  ( 1.600064711034245952E-16, -1.000000000000000000, 0.000000000000000000 ) ) ;
#85 = CARTESIAN_POINT ( 'NONE',  ( 43.00000000000000000, 4.999999999999999112, -12.00000000000000000 ) ) ;
#86 = CARTESIAN_POINT ( 'NONE',  ( 12.99999999999999822, 0.000000000000000000, -18.00000000000000000 ) ) ;
#87 = ORIENTED_EDGE ( 'NONE', *, *, #906, .T. ) ;
#88 = CYLINDRICAL_SURFACE ( 'NONE', #1193, 27.76312667066044426 ) ;
#89 = ORIENTED_EDGE ( 'NONE', *, *, #569, .T. ) ;
#90 = EDGE_CURVE ( 'NONE', #111, #412, #777, .T. ) ;
#91 = PLANE ( 'NONE',  #1048 ) ;
#92 = DIRECTION ( 'NONE',  ( -0.7071067811865479058, 5.110978055611244662E-17, 0.7071067811865472397 ) ) ;
#93 = CARTESIAN_POINT ( 'NONE',  ( 36.99999999999999289, 11.50000000000001066, -34.59663343302555916 ) ) ;
#94 = VERTEX_POINT ( 'NONE', #566 ) ;
#95 = ORIENTED_EDGE ( 'NONE', *, *, #6, .T. ) ;
#96 = EDGE_CURVE ( 'NONE', #1291, #521, #1299, .T. ) ;
#97 = CARTESIAN_POINT ( 'NONE',  ( 0.000000000000000000, 0.000000000000000000, 0.000000000000000000 ) ) ;
#98 = EDGE_CURVE ( 'NONE', #1103, #653, #586, .T. ) ;
#99 = LINE ( 'NONE', #210, #1309 ) ;
#100 = AXIS2_PLACEMENT_3D ( 'NONE', #186, #82, #604 ) ;
#101 = LINE ( 'NONE', #1336, #576 ) ;
#102 = VERTEX_POINT ( 'NONE', #1095 ) ;
#103 = APPROVAL_PERSON_ORGANIZATION ( #1247, #72, #651 ) ;
#104 = AXIS2_PLACEMENT_3D ( 'NONE', #819, #824, #1322 ) ;
#105 = EDGE_LOOP ( 'NONE', ( #589, #1303, #500, #633 ) ) ;
#106 = CARTESIAN_POINT ( 'NONE',  ( 0.000000000000000000, 0.000000000000000000, -18.00000000000000000 ) ) ;
#107 = DIRECTION ( 'NONE',  ( 0.000000000000000000, -1.000000000000000000, 0.000000000000000000 ) ) ;
#108 = ADVANCED_FACE ( 'NONE', ( #993 ), #795, .F. ) ;
#109 = APPLICATION_PROTOCOL_DEFINITION ( 'international standard', 'config_control_design', 1994, #543 ) ;
#110 = ORIENTED_EDGE ( 'NONE', *, *, #441, .F. ) ;
#111 = VERTEX_POINT ( 'NONE', #364 ) ;
#112 = LINE ( 'NONE', #949, #241 ) ;
#113 = LINE ( 'NONE', #933, #444 ) ;
#114 = COORDINATED_UNIVERSAL_TIME_OFFSET ( 9, 0, .AHEAD. ) ;
#115 = EDGE_CURVE ( 'NONE', #264, #688, #59, .T. ) ;
#116 = VERTEX_POINT ( 'NONE', #460 ) ;
#117 = ORIENTED_EDGE ( 'NONE', *, *, #237, .F. ) ;
#118 = CARTESIAN_POINT ( 'NONE',  ( 19.99999999999997513, 0.000000000000000000, 19.99999999999999289 ) ) ;
#119 = CARTESIAN_POINT ( 'NONE',  ( 7.342059894278514243, 11.60436306631961401, -34.45211179876645247 ) ) ;
#120 = ORIENTED_EDGE ( 'NONE', *, *, #1147, .F. ) ;
#121 = AXIS2_PLACEMENT_3D ( 'NONE', #447, #420, #1164 ) ;
#122 = AXIS2_PLACEMENT_3D ( 'NONE', #1092, #865, #578 ) ;
#123 = CIRCLE ( 'NONE', #876, 6.000000000000005329 ) ;
#124 = ORIENTED_EDGE ( 'NONE', *, *, #475, .F. ) ;
#125 = EDGE_CURVE ( 'NONE', #1227, #412, #875, .T. ) ;
#126 = DIRECTION ( 'NONE',  ( -1.000000000000000000, -0.000000000000000000, -0.000000000000000000 ) ) ;
#127 = FACE_BOUND ( 'NONE', #240, .T. ) ;
#128 = DATE_TIME_ROLE ( 'creation_date' ) ;
#129 = ORIENTED_EDGE ( 'NONE', *, *, #1073, .F. ) ;
#130 = ORIENTED_EDGE ( 'NONE', *, *, #708, .F. ) ;
#131 = PLANE ( 'NONE',  #834 ) ;
#132 = CARTESIAN_POINT ( 'NONE',  ( 6.000000000000000000, 32.00000000000000000, -38.00002500000000794 ) ) ;
#133 = DIRECTION ( 'NONE',  ( 0.000000000000000000, 0.000000000000000000, 1.000000000000000000 ) ) ;
#134 = ORIENTED_EDGE ( 'NONE', *, *, #656, .T. ) ;
#135 = EDGE_LOOP ( 'NONE', ( #1012, #713 ) ) ;
#136 = CARTESIAN_POINT ( 'NONE',  ( 43.00000000000000000, 0.000000000000000000, -17.99999999999997513 ) ) ;
#137 = DIRECTION ( 'NONE',  ( -0.000000000000000000, -1.000000000000000000, 7.228014483236695816E-17 ) ) ;
#138 = APPROVAL_STATUS ( 'not_yet_approved' ) ;
#139 = EDGE_LOOP ( 'NONE', ( #855, #281, #324, #1314 ) ) ;
#140 = ORIENTED_EDGE ( 'NONE', *, *, #385, .F. ) ;
#141 = VECTOR ( 'NONE', #591, 1000.000000000000000 ) ;
#142 = FACE_OUTER_BOUND ( 'NONE', #729, .T. ) ;
#143 = VECTOR ( 'NONE', #1286, 1000.000000000000000 ) ;
#144 = CARTESIAN_POINT ( 'NONE',  ( 7.198149754745817752, 11.66203504619304532, -34.37291230222462701 ) ) ;
#145 = VERTEX_POINT ( 'NONE', #1180 ) ;
#146 = EDGE_CURVE ( 'NONE', #382, #953, #33, .T. ) ;
#147 = CARTESIAN_POINT ( 'NONE',  ( 36.50000000000000000, 0.000000000000000000, -5.000000000000000000 ) ) ;
#148 = ORIENTED_EDGE ( 'NONE', *, *, #98, .F. ) ;
#149 = CARTESIAN_POINT ( 'NONE',  ( 29.99999999999999289, 11.50000000000001066, -34.59663343302555916 ) ) ;
#150 = CARTESIAN_POINT ( 'NONE',  ( 0.000000000000000000, 26.00000000000000355, -18.00000000000000355 ) ) ;
#151 = CARTESIAN_POINT ( 'NONE',  ( 30.00000000000000355, 11.50000000000000355, -5.204170427930422072E-15 ) ) ;
#152 = CARTESIAN_POINT ( 'NONE',  ( 22.00000000000000355, 5.000000000000000000, -2.999999999999994227 ) ) ;
#153 = EDGE_CURVE ( 'NONE', #301, #230, #244, .T. ) ;
#154 = ORIENTED_EDGE ( 'NONE', *, *, #434, .T. ) ;
#155 = EDGE_CURVE ( 'NONE', #94, #222, #1195, .T. ) ;
#156 = LINE ( 'NONE', #480, #575 ) ;
#157 = DIRECTION ( 'NONE',  ( 0.000000000000000000, 0.000000000000000000, 1.000000000000000000 ) ) ;
#158 = DIRECTION ( 'NONE',  ( 1.734723475976807341E-16, 0.000000000000000000, 1.000000000000000000 ) ) ;
#159 = DIRECTION ( 'NONE',  ( 0.000000000000000000, -1.000000000000000000, 0.000000000000000000 ) ) ;
#160 = CYLINDRICAL_SURFACE ( 'NONE', #122, 2.000000000000005329 ) ;
#161 = EDGE_CURVE ( 'NONE', #313, #1210, #982, .T. ) ;
#162 = CIRCLE ( 'NONE', #465, 1.999999999999999556 ) ;
#163 = PLANE ( 'NONE',  #422 ) ;
#164 = AXIS2_PLACEMENT_3D ( 'NONE', #1329, #807, #1110 ) ;
#165 = DIRECTION ( 'NONE',  ( 0.000000000000000000, 0.000000000000000000, 1.000000000000000000 ) ) ;
#166 = CARTESIAN_POINT ( 'NONE',  ( 6.772016900885406976, 11.90387270493791583, -13.39317589630223893 ) ) ;
#167 = ORIENTED_EDGE ( 'NONE', *, *, #339, .T. ) ;
#168 = LINE ( 'NONE', #582, #659 ) ;
#169 = ADVANCED_FACE ( 'NONE', ( #274 ), #883, .T. ) ;
#170 = CARTESIAN_POINT ( 'NONE',  ( 6.500000000000000888, 0.000000000000000000, -2.999999999999997780 ) ) ;
#171 = CARTESIAN_POINT ( 'NONE',  ( 43.00000000000000000, 11.50000000000000355, -38.00002500000000794 ) ) ;
#172 = CARTESIAN_POINT ( 'NONE',  ( 43.00000000000000000, 4.999999999999999112, -12.00000000000000000 ) ) ;
#173 = FACE_OUTER_BOUND ( 'NONE', #253, .T. ) ;
#174 = EDGE_LOOP ( 'NONE', ( #432, #1272, #1074, #746 ) ) ;
#175 = CARTESIAN_POINT ( 'NONE',  ( 6.000000000000002665, 13.50000000000000355, -34.59663343302555916 ) ) ;
#176 = CARTESIAN_POINT ( 'NONE',  ( 5.999999999999998224, 26.00000000000000355, -12.00000000000000355 ) ) ;
#177 = CARTESIAN_POINT ( 'NONE',  ( 5.999999999999998224, 26.00000000000000355, -18.00000000000000355 ) ) ;
#178 = DIRECTION ( 'NONE',  ( -0.000000000000000000, 1.000000000000000000, -0.000000000000000000 ) ) ;
#179 = CARTESIAN_POINT ( 'NONE',  ( 22.00000000000000355, 0.000000000000000000, -7.000000000000000888 ) ) ;
#180 = AXIS2_PLACEMENT_3D ( 'NONE', #628, #1037, #1064 ) ;
#181 = AXIS2_PLACEMENT_3D ( 'NONE', #147, #970, #567 ) ;
#182 = DIRECTION ( 'NONE',  ( -1.000000000000000000, -0.000000000000000000, -0.000000000000000000 ) ) ;
#183 = CIRCLE ( 'NONE', #355, 2.000000000000003109 ) ;
#184 = CARTESIAN_POINT ( 'NONE',  ( 6.232878296446118682, 12.55429214080950651, -14.46358691818478448 ) ) ;
#185 = EDGE_CURVE ( 'NONE', #463, #1, #1242, .T. ) ;
#186 = CARTESIAN_POINT ( 'NONE',  ( 29.99999999999999289, 5.999999999999998224, -32.00000000000000000 ) ) ;
#187 = VERTEX_POINT ( 'NONE', #176 ) ;
#188 = DIRECTION ( 'NONE',  ( -1.000000000000000000, -0.000000000000000000, -0.000000000000000000 ) ) ;
#189 = CARTESIAN_POINT ( 'NONE',  ( 22.00000000000000355, 0.000000000000000000, -2.999999999999994227 ) ) ;
#190 = CYLINDRICAL_SURFACE ( 'NONE', #680, 5.420791621782349523 ) ;
#191 = ORIENTED_EDGE ( 'NONE', *, *, #1320, .F. ) ;
#192 = ADVANCED_FACE ( 'NONE', ( #592 ), #1208, .F. ) ;
#193 = EDGE_LOOP ( 'NONE', ( #496, #337, #129, #924 ) ) ;
#194 = FACE_OUTER_BOUND ( 'NONE', #436, .T. ) ;
#195 = LINE ( 'NONE', #1236, #333 ) ;
#196 = ORIENTED_EDGE ( 'NONE', *, *, #257, .T. ) ;
#197 = VERTEX_POINT ( 'NONE', #927 ) ;
#198 = EDGE_CURVE ( 'NONE', #521, #1333, #99, .T. ) ;
#199 = DIRECTION ( 'NONE',  ( -0.7071067811865475727, 0.000000000000000000, 0.7071067811865475727 ) ) ;
#200 = DIRECTION ( 'NONE',  ( 0.000000000000000000, 0.000000000000000000, -1.000000000000000000 ) ) ;
#201 = AXIS2_PLACEMENT_3D ( 'NONE', #273, #685, #1099 ) ;
#202 = AXIS2_PLACEMENT_3D ( 'NONE', #471, #275, #456 ) ;
#203 = AXIS2_PLACEMENT_3D ( 'NONE', #79, #261, #783 ) ;
#204 = ORIENTED_EDGE ( 'NONE', *, *, #257, .F. ) ;
#205 = CIRCLE ( 'NONE', #164, 27.76312667066044426 ) ;
#206 = AXIS2_PLACEMENT_3D ( 'NONE', #150, #565, #50 ) ;
#207 = EDGE_LOOP ( 'NONE', ( #858, #640, #344, #234 ) ) ;
#208 = FACE_OUTER_BOUND ( 'NONE', #139, .T. ) ;
#209 = EDGE_CURVE ( 'NONE', #1112, #219, #288, .T. ) ;
#210 = CARTESIAN_POINT ( 'NONE',  ( 30.00000000000000000, 0.000000000000000000, -18.00000000000000000 ) ) ;
#211 = DATE_TIME_ROLE ( 'classification_date' ) ;
#212 = ORIENTED_EDGE ( 'NONE', *, *, #321, .F. ) ;
#213 = ORIENTED_EDGE ( 'NONE', *, *, #372, .T. ) ;
#214 = FACE_OUTER_BOUND ( 'NONE', #47, .T. ) ;
#215 = CARTESIAN_POINT ( 'NONE',  ( 7.577677406338660937, 11.54341502391395657, -34.53629945568254556 ) ) ;
#216 = APPROVAL_ROLE ( '' ) ;
#217 = EDGE_LOOP ( 'NONE', ( #124, #5, #683, #903 ) ) ;
#218 = EDGE_CURVE ( 'NONE', #230, #910, #195, .T. ) ;
#219 = VERTEX_POINT ( 'NONE', #1038 ) ;
#220 = DIRECTION ( 'NONE',  ( -0.000000000000000000, 1.000000000000000000, -0.000000000000000000 ) ) ;
#221 = CARTESIAN_POINT ( 'NONE',  ( 12.99999999999999467, 5.999999999999998224, -32.00000000000000000 ) ) ;
#222 = VERTEX_POINT ( 'NONE', #421 ) ;
#223 = VECTOR ( 'NONE', #791, 1000.000000000000000 ) ;
#224 = EDGE_CURVE ( 'NONE', #219, #102, #1024, .T. ) ;
#225 = ORIENTED_EDGE ( 'NONE', *, *, #296, .F. ) ;
#226 = AXIS2_PLACEMENT_3D ( 'NONE', #1084, #165, #60 ) ;
#227 = DIRECTION ( 'NONE',  ( 0.000000000000000000, 0.000000000000000000, 1.000000000000000000 ) ) ;
#228 = FACE_OUTER_BOUND ( 'NONE', #193, .T. ) ;
#229 = PERSON_AND_ORGANIZATION ( #742, #511 ) ;
#230 = VERTEX_POINT ( 'NONE', #1224 ) ;
#231 = ORIENTED_EDGE ( 'NONE', *, *, #1013, .F. ) ;
#232 = FACE_OUTER_BOUND ( 'NONE', #519, .T. ) ;
#233 = CARTESIAN_POINT ( 'NONE',  ( 7.660580848155666089, 11.52720642851377164, -34.55879742129292964 ) ) ;
#234 = ORIENTED_EDGE ( 'NONE', *, *, #552, .T. ) ;
#235 = EDGE_LOOP ( 'NONE', ( #816, #1148, #1241, #867 ) ) ;
#236 = DIRECTION ( 'NONE',  ( -0.000000000000000000, 1.000000000000000000, -0.000000000000000000 ) ) ;
#237 = EDGE_CURVE ( 'NONE', #1103, #941, #1288, .T. ) ;
#238 = CARTESIAN_POINT ( 'NONE',  ( 43.00000000000000000, 27.43094833523408127, -23.82686767156170049 ) ) ;
#239 = LINE ( 'NONE', #901, #703 ) ;
#240 = EDGE_LOOP ( 'NONE', ( #931, #1233 ) ) ;
#241 = VECTOR ( 'NONE', #220, 1000.000000000000000 ) ;
#242 = CIRCLE ( 'NONE', #442, 2.000000000000003109 ) ;
#243 = FACE_BOUND ( 'NONE', #1026, .T. ) ;
#244 = CIRCLE ( 'NONE', #812, 2.000000000000001776 ) ;
#245 = AXIS2_PLACEMENT_3D ( 'NONE', #636, #840, #320 ) ;
#246 = LINE ( 'NONE', #454, #80 ) ;
#247 = EDGE_CURVE ( 'NONE', #187, #40, #294, .T. ) ;
#248 = DIRECTION ( 'NONE',  ( -1.000000000000000000, 0.000000000000000000, 0.000000000000000000 ) ) ;
#249 = ADVANCED_FACE ( 'NONE', ( #409 ), #619, .T. ) ;
#250 = CARTESIAN_POINT ( 'NONE',  ( 7.899778164586134466, 11.50000000000000178, -12.00000000000000178 ) ) ;
#251 = ORIENTED_EDGE ( 'NONE', *, *, #96, .T. ) ;
#252 = CARTESIAN_POINT ( 'NONE',  ( 36.99999999999999289, -15.21060968079681075, -26.89876238288274379 ) ) ;
#253 = EDGE_LOOP ( 'NONE', ( #1283, #1222, #332, #212, #1143, #396 ) ) ;
#254 = LINE ( 'NONE', #572, #307 ) ;
#255 = DIRECTION ( 'NONE',  ( -0.000000000000000000, 1.000000000000000000, -0.000000000000000000 ) ) ;
#256 = DIRECTION ( 'NONE',  ( 1.000000000000000000, 0.000000000000000000, 0.000000000000000000 ) ) ;
#257 = EDGE_CURVE ( 'NONE', #20, #817, #908, .T. ) ;
#258 = ORIENTED_EDGE ( 'NONE', *, *, #503, .T. ) ;
#259 = DIRECTION ( 'NONE',  ( -0.000000000000000000, -1.000000000000000000, 7.228014483236695816E-17 ) ) ;
#260 = DIRECTION ( 'NONE',  ( -1.000000000000000000, -0.000000000000000000, -0.000000000000000000 ) ) ;
#261 = DIRECTION ( 'NONE',  ( 0.000000000000000000, -1.000000000000000000, 0.000000000000000000 ) ) ;
#262 = CARTESIAN_POINT ( 'NONE',  ( 0.000000000000000000, 10.98512153638723099, -35.33894643075450404 ) ) ;
#263 = DIRECTION ( 'NONE',  ( 1.734723475976807094E-16, 0.000000000000000000, 1.000000000000000000 ) ) ;
#264 = VERTEX_POINT ( 'NONE', #1231 ) ;
#265 = CIRCLE ( 'NONE', #308, 27.76312667066044426 ) ;
#266 = VECTOR ( 'NONE', #895, 1000.000000000000000 ) ;
#267 = DIRECTION ( 'NONE',  ( 0.000000000000000000, -0.4922279792746119820, -0.8704663212435229669 ) ) ;
#268 =( GEOMETRIC_REPRESENTATION_CONTEXT ( 3 ) GLOBAL_UNCERTAINTY_ASSIGNED_CONTEXT ( ( #408 ) ) GLOBAL_UNIT_ASSIGNED_CONTEXT ( ( #1317, #1123, #1209 ) ) REPRESENTATION_CONTEXT ( 'NONE', 'WORKASPACE' ) );
#269 = CARTESIAN_POINT ( 'NONE',  ( 22.00000000000000355, 0.000000000000000000, -2.999999999999994227 ) ) ;
#270 = CARTESIAN_POINT ( 'NONE',  ( 6.500000000000000888, 0.000000000000000000, -4.999999999999997335 ) ) ;
#271 = CARTESIAN_POINT ( 'NONE',  ( 43.00000000000000000, 4.999999999999999112, -12.00000000000000000 ) ) ;
#272 = ADVANCED_FACE ( 'NONE', ( #1335 ), #279, .F. ) ;
#273 = CARTESIAN_POINT ( 'NONE',  ( 0.000000000000000000, 5.999999999999998224, -32.00000000000000000 ) ) ;
#274 = FACE_OUTER_BOUND ( 'NONE', #1156, .T. ) ;
#275 = DIRECTION ( 'NONE',  ( -1.000000000000000000, 0.000000000000000000, 0.000000000000000000 ) ) ;
#276 = DIRECTION ( 'NONE',  ( 0.000000000000000000, 0.000000000000000000, 1.000000000000000000 ) ) ;
#277 = PLANE ( 'NONE',  #830 ) ;
#278 = EDGE_CURVE ( 'NONE', #1112, #740, #113, .T. ) ;
#279 = CYLINDRICAL_SURFACE ( 'NONE', #1004, 2.000000000000001776 ) ;
#280 = DIRECTION ( 'NONE',  ( -1.000000000000000000, 0.000000000000000000, 0.000000000000000000 ) ) ;
#281 = ORIENTED_EDGE ( 'NONE', *, *, #385, .T. ) ;
#282 = CARTESIAN_POINT ( 'NONE',  ( 43.00000000000000000, 4.999999999999999112, -12.00000000000000000 ) ) ;
#283 = ORIENTED_EDGE ( 'NONE', *, *, #29, .T. ) ;
#284 = CARTESIAN_POINT ( 'NONE',  ( 30.00000000000000355, 0.000000000000000000, -5.204170427930422072E-15 ) ) ;
#285 = AXIS2_PLACEMENT_3D ( 'NONE', #1154, #28, #951 ) ;
#286 = VECTOR ( 'NONE', #1025, 1000.000000000000114 ) ;
#287 = VECTOR ( 'NONE', #158, 1000.000000000000000 ) ;
#288 = LINE ( 'NONE', #85, #790 ) ;
#289 = CC_DESIGN_DATE_AND_TIME_ASSIGNMENT ( #322, #128, ( #1108 ) ) ;
#290 = DIRECTION ( 'NONE',  ( -1.000000000000000000, 0.000000000000000000, -0.000000000000000000 ) ) ;
#291 = ORIENTED_EDGE ( 'NONE', *, *, #419, .F. ) ;
#292 = EDGE_LOOP ( 'NONE', ( #1166, #361 ) ) ;
#293 = DIRECTION ( 'NONE',  ( 0.000000000000000000, 0.000000000000000000, -1.000000000000000000 ) ) ;
#294 = LINE ( 'NONE', #601, #1198 ) ;
#295 = ORIENTED_EDGE ( 'NONE', *, *, #913, .T. ) ;
#296 = EDGE_CURVE ( 'NONE', #609, #463, #1116, .T. ) ;
#297 = ORIENTED_EDGE ( 'NONE', *, *, #392, .F. ) ;
#298 = PLANE ( 'NONE',  #762 ) ;
#299 = DIRECTION ( 'NONE',  ( 0.000000000000000000, -1.000000000000000000, 0.000000000000000000 ) ) ;
#300 = DIRECTION ( 'NONE',  ( 0.000000000000000000, 0.000000000000000000, 1.000000000000000000 ) ) ;
#301 = VERTEX_POINT ( 'NONE', #1328 ) ;
#302 = VERTEX_POINT ( 'NONE', #1214 ) ;
#303 = EDGE_CURVE ( 'NONE', #738, #609, #1091, .T. ) ;
#304 = DIRECTION ( 'NONE',  ( -1.000000000000000000, -1.269309860470834724E-16, -0.000000000000000000 ) ) ;
#305 = CC_DESIGN_APPROVAL ( #1057, ( #1150 ) ) ;
#306 = DIRECTION ( 'NONE',  ( -1.000000000000000000, 0.000000000000000000, 0.000000000000000000 ) ) ;
#307 = VECTOR ( 'NONE', #1202, 1000.000000000000000 ) ;
#308 = AXIS2_PLACEMENT_3D ( 'NONE', #668, #467, #1292 ) ;
#309 = LINE ( 'NONE', #1217, #1331 ) ;
#310 = VERTEX_POINT ( 'NONE', #518 ) ;
#311 = B_SPLINE_CURVE_WITH_KNOTS ( 'NONE', 3,
 ( #1135, #335, #751, #44, #833, #732, #1252, #144, #119, #215, #233, #1159, #861, #629 ),
 .UNSPECIFIED., .F., .F.,
 ( 4, 2, 2, 2, 2, 2, 4 ),
 ( 0.000000000000000000, 0.001016722157579181109, 0.002033444315158362218, 0.003050166472737543544, 0.003558527551527132255, 0.003812708090921926394, 0.004066888630316723569 ),
 .UNSPECIFIED. ) ;
#312 = CIRCLE ( 'NONE', #1000, 2.000000000000001776 ) ;
#313 = VERTEX_POINT ( 'NONE', #189 ) ;
#314 = DIRECTION ( 'NONE',  ( 0.000000000000000000, 0.000000000000000000, -1.000000000000000000 ) ) ;
#315 = DIRECTION ( 'NONE',  ( 0.4788521306805736955, 0.000000000000000000, 0.8778955729143841369 ) ) ;
#316 = PERSON_AND_ORGANIZATION ( #742, #511 ) ;
#317 = ORIENTED_EDGE ( 'NONE', *, *, #475, .T. ) ;
#318 = ORIENTED_EDGE ( 'NONE', *, *, #631, .T. ) ;
#319 = DIRECTION ( 'NONE',  ( -1.000000000000000000, 0.000000000000000000, 0.000000000000000000 ) ) ;
#320 = DIRECTION ( 'NONE',  ( 0.000000000000000000, 0.000000000000000000, -1.000000000000000000 ) ) ;
#321 = EDGE_CURVE ( 'NONE', #715, #843, #1018, .T. ) ;
#322 = DATE_AND_TIME ( #946, #1304 ) ;
#323 = EDGE_LOOP ( 'NONE', ( #868, #417 ) ) ;
#324 = ORIENTED_EDGE ( 'NONE', *, *, #198, .F. ) ;
#325 = LINE ( 'NONE', #429, #874 ) ;
#326 = LINE ( 'NONE', #743, #793 ) ;
#327 = EDGE_CURVE ( 'NONE', #431, #1219, #914, .T. ) ;
#328 = APPROVAL_PERSON_ORGANIZATION ( #316, #1057, #645 ) ;
#329 = ORIENTED_EDGE ( 'NONE', *, *, #303, .F. ) ;
#330 = VECTOR ( 'NONE', #596, 1000.000000000000000 ) ;
#331 = VECTOR ( 'NONE', #888, 1000.000000000000000 ) ;
#332 = ORIENTED_EDGE ( 'NONE', *, *, #828, .F. ) ;
#333 = VECTOR ( 'NONE', #9, 1000.000000000000000 ) ;
#334 = CARTESIAN_POINT ( 'NONE',  ( 0.000000000000000000, 4.999999999999999112, -12.00000000000000000 ) ) ;
#335 = CARTESIAN_POINT ( 'NONE',  ( 6.000000000000002665, 13.26883844478052232, -32.37799365184458367 ) ) ;
#336 = SHAPE_DEFINITION_REPRESENTATION ( #358, #570 ) ;
#337 = ORIENTED_EDGE ( 'NONE', *, *, #673, .T. ) ;
#338 = VERTEX_POINT ( 'NONE', #612 ) ;
#339 = EDGE_CURVE ( 'NONE', #953, #382, #446, .T. ) ;
#340 = DIRECTION ( 'NONE',  ( 0.000000000000000000, 0.000000000000000000, 1.000000000000000000 ) ) ;
#341 = PLANE ( 'NONE',  #36 ) ;
#342 = DIRECTION ( 'NONE',  ( -0.000000000000000000, 1.000000000000000000, -0.000000000000000000 ) ) ;
#343 = PRODUCT ( '바디_엔드이펙터', '바디_엔드이펙터', '', ( #539 ) ) ;
#344 = ORIENTED_EDGE ( 'NONE', *, *, #1327, .T. ) ;
#345 = EDGE_CURVE ( 'NONE', #1149, #667, #311, .T. ) ;
#346 = CARTESIAN_POINT ( 'NONE',  ( 36.50000000000000000, 5.000000000000000000, -5.000000000000000000 ) ) ;
#347 = DIRECTION ( 'NONE',  ( -1.000000000000000000, -0.000000000000000000, -0.000000000000000000 ) ) ;
#348 = EDGE_LOOP ( 'NONE', ( #45, #283, #879, #1191, #1083, #318 ) ) ;
#349 = CARTESIAN_POINT ( 'NONE',  ( 30.00000000000000000, -4.347496136973103281E-15, -35.50000000000000000 ) ) ;
#350 = ORIENTED_EDGE ( 'NONE', *, *, #1126, .T. ) ;
#351 = CIRCLE ( 'NONE', #1284, 2.000000000000003553 ) ;
#352 = CIRCLE ( 'NONE', #556, 2.000000000000003553 ) ;
#353 = DIRECTION ( 'NONE',  ( 0.000000000000000000, 0.000000000000000000, -1.000000000000000000 ) ) ;
#354 = ORIENTED_EDGE ( 'NONE', *, *, #889, .T. ) ;
#355 = AXIS2_PLACEMENT_3D ( 'NONE', #1066, #137, #1246 ) ;
#356 = CARTESIAN_POINT ( 'NONE',  ( 22.00000000000000355, 5.000000000000000000, -4.999999999999997335 ) ) ;
#357 = ADVANCED_FACE ( 'NONE', ( #228 ), #655, .F. ) ;
#358 = PRODUCT_DEFINITION_SHAPE ( 'NONE', 'NONE',  #1108 ) ;
#359 = CARTESIAN_POINT ( 'NONE',  ( 37.00000000000002132, 5.999999999999998224, -32.00000000000000000 ) ) ;
#360 = DIRECTION ( 'NONE',  ( 0.000000000000000000, 0.000000000000000000, 1.000000000000000000 ) ) ;
#361 = ORIENTED_EDGE ( 'NONE', *, *, #922, .F. ) ;
#362 = DIRECTION ( 'NONE',  ( -1.000000000000000000, -0.000000000000000000, -0.000000000000000000 ) ) ;
#363 = CARTESIAN_POINT ( 'NONE',  ( 6.500000000000000888, 5.000000000000000000, -2.999999999999997780 ) ) ;
#364 = CARTESIAN_POINT ( 'NONE',  ( 36.99999999999999289, 0.000000000000000000, -28.99999999999999645 ) ) ;
#365 = EDGE_CURVE ( 'NONE', #1210, #384, #183, .T. ) ;
#366 = DIRECTION ( 'NONE',  ( -1.000000000000000000, -0.000000000000000000, -0.000000000000000000 ) ) ;
#367 = CYLINDRICAL_SURFACE ( 'NONE', #1113, 2.000000000000000000 ) ;
#368 = ORIENTED_EDGE ( 'NONE', *, *, #1215, .T. ) ;
#369 = DIRECTION ( 'NONE',  ( -0.000000000000000000, -1.000000000000000000, 7.228014483236695816E-17 ) ) ;
#370 = CARTESIAN_POINT ( 'NONE',  ( 13.00000000000000178, 11.50000000000000355, -2.255140518769849223E-15 ) ) ;
#371 = CARTESIAN_POINT ( 'NONE',  ( 6.439465124387649730, 12.24301148058748190, -14.01284013919805815 ) ) ;
#372 = EDGE_CURVE ( 'NONE', #1041, #740, #968, .T. ) ;
#373 = AXIS2_PLACEMENT_3D ( 'NONE', #356, #369, #157 ) ;
#374 = CARTESIAN_POINT ( 'NONE',  ( 43.00000000000000000, 0.000000000000000000, -3.000000000000007994 ) ) ;
#375 = ORIENTED_EDGE ( 'NONE', *, *, #6, .F. ) ;
#376 = VECTOR ( 'NONE', #559, 1000.000000000000000 ) ;
#377 = CARTESIAN_POINT ( 'NONE',  ( 43.00000000000000000, 0.000000000000000000, -3.000000000000007994 ) ) ;
#378 = VECTOR ( 'NONE', #306, 1000.000000000000000 ) ;
#379 = AXIS2_PLACEMENT_3D ( 'NONE', #132, #23, #846 ) ;
#380 = CARTESIAN_POINT ( 'NONE',  ( 0.000000000000000000, 0.000000000000000000, -18.00000000000000000 ) ) ;
#381 = DIRECTION ( 'NONE',  ( 0.000000000000000000, 0.000000000000000000, 1.000000000000000000 ) ) ;
#382 = VERTEX_POINT ( 'NONE', #550 ) ;
#383 = DIRECTION ( 'NONE',  ( 0.000000000000000000, 7.228014483236695816E-17, 1.000000000000000000 ) ) ;
#384 = VERTEX_POINT ( 'NONE', #957 ) ;
#385 = EDGE_CURVE ( 'NONE', #653, #1333, #17, .T. ) ;
#386 = CARTESIAN_POINT ( 'NONE',  ( 36.50000000000000000, 0.000000000000000000, -2.999999999999996891 ) ) ;
#387 = LINE ( 'NONE', #151, #287 ) ;
#388 = LINE ( 'NONE', #802, #809 ) ;
#389 = ORIENTED_EDGE ( 'NONE', *, *, #477, .T. ) ;
#390 = ADVANCED_FACE ( 'NONE', ( #1072, #736, #1146 ), #341, .F. ) ;
#391 = DIRECTION ( 'NONE',  ( 1.000000000000000000, 0.000000000000000000, -0.000000000000000000 ) ) ;
#392 = EDGE_CURVE ( 'NONE', #941, #626, #513, .T. ) ;
#393 = DIRECTION ( 'NONE',  ( 0.000000000000000000, -1.000000000000000000, 0.000000000000000000 ) ) ;
#394 = CARTESIAN_POINT ( 'NONE',  ( 6.296515026342675903, 12.44480893651384079, -14.31571271277907265 ) ) ;
#395 = ORIENTED_EDGE ( 'NONE', *, *, #656, .F. ) ;
#396 = ORIENTED_EDGE ( 'NONE', *, *, #278, .T. ) ;
#397 = ORIENTED_EDGE ( 'NONE', *, *, #1147, .T. ) ;
#398 = DIRECTION ( 'NONE',  ( 0.000000000000000000, 0.000000000000000000, 1.000000000000000000 ) ) ;
#399 = AXIS2_PLACEMENT_3D ( 'NONE', #55, #49, #1081 ) ;
#400 = CIRCLE ( 'NONE', #745, 2.000000000000001776 ) ;
#401 = DIRECTION ( 'NONE',  ( -1.000000000000000000, -0.000000000000000000, -0.000000000000000000 ) ) ;
#402 = EDGE_CURVE ( 'NONE', #1200, #1219, #435, .T. ) ;
#403 = VECTOR ( 'NONE', #1033, 1000.000000000000000 ) ;
#404 = DIRECTION ( 'NONE',  ( -1.000000000000000000, -0.000000000000000000, -0.000000000000000000 ) ) ;
#405 = VERTEX_POINT ( 'NONE', #945 ) ;
#406 = EDGE_LOOP ( 'NONE', ( #997, #1124, #83, #527 ) ) ;
#407 = PLANE ( 'NONE',  #595 ) ;
#408 = UNCERTAINTY_MEASURE_WITH_UNIT (LENGTH_MEASURE( 1.000000000000000082E-05 ), #1317, 'distance_accuracy_value', 'NONE');
#409 = FACE_OUTER_BOUND ( 'NONE', #105, .T. ) ;
#410 = CARTESIAN_POINT ( 'NONE',  ( 0.000000000000000000, 32.00000000000000000, 0.000000000000000000 ) ) ;
#411 = EDGE_CURVE ( 'NONE', #886, #473, #1140, .T. ) ;
#412 = VERTEX_POINT ( 'NONE', #430 ) ;
#413 = EDGE_LOOP ( 'NONE', ( #1006, #154, #916, #204 ) ) ;
#414 = FACE_OUTER_BOUND ( 'NONE', #905, .T. ) ;
#415 = CARTESIAN_POINT ( 'NONE',  ( 43.00000000000000000, 11.50000000000000355, -12.00000000000000178 ) ) ;
#416 = CARTESIAN_POINT ( 'NONE',  ( 30.00000000000000000, 11.50000000000000355, -18.00000000000000000 ) ) ;
#417 = ORIENTED_EDGE ( 'NONE', *, *, #963, .T. ) ;
#418 = ORIENTED_EDGE ( 'NONE', *, *, #864, .F. ) ;
#419 = EDGE_CURVE ( 'NONE', #1162, #473, #37, .T. ) ;
#420 = DIRECTION ( 'NONE',  ( 1.000000000000000000, 1.269309860470834724E-16, 0.000000000000000000 ) ) ;
#421 = CARTESIAN_POINT ( 'NONE',  ( -6.000000000000000999E-06, 3.046632124352323778, -37.22279792746113714 ) ) ;
#422 = AXIS2_PLACEMENT_3D ( 'NONE', #881, #267, #1298 ) ;
#423 = AXIS2_PLACEMENT_3D ( 'NONE', #877, #478, #1182 ) ;
#424 = PERSON_AND_ORGANIZATION ( #742, #511 ) ;
#425 = ORIENTED_EDGE ( 'NONE', *, *, #153, .F. ) ;
#426 = VECTOR ( 'NONE', #1122, 1000.000000000000000 ) ;
#427 = ORIENTED_EDGE ( 'NONE', *, *, #411, .F. ) ;
#428 = ADVANCED_FACE ( 'NONE', ( #1053, #127 ), #538, .F. ) ;
#429 = CARTESIAN_POINT ( 'NONE',  ( 43.00000000000000000, 5.000000000000000000, -2.168404344971008868E-16 ) ) ;
#430 = CARTESIAN_POINT ( 'NONE',  ( 36.99999999999999289, 11.50000000000000355, -28.99999999999999645 ) ) ;
#431 = VERTEX_POINT ( 'NONE', #1259 ) ;
#432 = ORIENTED_EDGE ( 'NONE', *, *, #569, .F. ) ;
#433 = FACE_OUTER_BOUND ( 'NONE', #30, .T. ) ;
#434 = EDGE_CURVE ( 'NONE', #555, #310, #326, .T. ) ;
#435 = LINE ( 'NONE', #529, #748 ) ;
#436 = EDGE_LOOP ( 'NONE', ( #1174, #41, #507, #251, #694, #972, #547, #563, #568, #1105, #1047, #962 ) ) ;
#437 = EDGE_LOOP ( 'NONE', ( #583, #557, #822, #792 ) ) ;
#438 = CARTESIAN_POINT ( 'NONE',  ( 29.99999999999999289, 5.999999999999998224, -32.00000000000000000 ) ) ;
#439 = CARTESIAN_POINT ( 'NONE',  ( 0.000000000000000000, 26.00000000000000355, -20.00000000000000711 ) ) ;
#440 = ORIENTED_EDGE ( 'NONE', *, *, #642, .T. ) ;
#441 = EDGE_CURVE ( 'NONE', #1227, #116, #1311, .T. ) ;
#442 = AXIS2_PLACEMENT_3D ( 'NONE', #1290, #1187, #796 ) ;
#443 = LOCAL_TIME ( 23, 17, 23.00000000000000000, #114 ) ;
#444 = VECTOR ( 'NONE', #512, 1000.000000000000000 ) ;
#445 = VERTEX_POINT ( 'NONE', #439 ) ;
#446 = CIRCLE ( 'NONE', #1173, 2.000000000000002665 ) ;
#447 = CARTESIAN_POINT ( 'NONE',  ( 5.999999999999998224, 26.00000000000000355, -18.00000000000000355 ) ) ;
#448 = DIRECTION ( 'NONE',  ( 2.891205793294675861E-16, 0.000000000000000000, 1.000000000000000000 ) ) ;
#449 = DATE_AND_TIME ( #1136, #850 ) ;
#450 = CARTESIAN_POINT ( 'NONE',  ( 22.00000000000000355, 0.000000000000000000, -4.999999999999997335 ) ) ;
#451 = ADVANCED_FACE ( 'NONE', ( #57 ), #691, .F. ) ;
#452 = ORIENTED_EDGE ( 'NONE', *, *, #218, .F. ) ;
#453 = DIRECTION ( 'NONE',  ( -1.000000000000000000, -0.000000000000000000, -0.000000000000000000 ) ) ;
#454 = CARTESIAN_POINT ( 'NONE',  ( 43.00000000000000000, 10.98512153638723099, -35.33894643075450404 ) ) ;
#455 = ORIENTED_EDGE ( 'NONE', *, *, #494, .F. ) ;
#456 = DIRECTION ( 'NONE',  ( 0.000000000000000000, 0.000000000000000000, 1.000000000000000000 ) ) ;
#457 = ORIENTED_EDGE ( 'NONE', *, *, #603, .T. ) ;
#458 = CARTESIAN_POINT ( 'NONE',  ( 6.500000000000000888, 5.000000000000000000, -4.999999999999997335 ) ) ;
#459 = LINE ( 'NONE', #474, #143 ) ;
#460 = CARTESIAN_POINT ( 'NONE',  ( 36.99999999999999289, 10.98512153638723099, -35.33894643075450404 ) ) ;
#461 = DIRECTION ( 'NONE',  ( -1.000000000000000000, -0.000000000000000000, -0.000000000000000000 ) ) ;
#462 = LOCAL_TIME ( 23, 17, 23.00000000000000000, #1061 ) ;
#463 = VERTEX_POINT ( 'NONE', #363 ) ;
#464 = VECTOR ( 'NONE', #1121, 1000.000000000000000 ) ;
#465 = AXIS2_PLACEMENT_3D ( 'NONE', #458, #259, #775 ) ;
#466 = VECTOR ( 'NONE', #483, 1000.000000000000000 ) ;
#467 = DIRECTION ( 'NONE',  ( -1.000000000000000000, -1.269309860470834724E-16, -0.000000000000000000 ) ) ;
#468 = EDGE_CURVE ( 'NONE', #197, #445, #721, .T. ) ;
#469 = DIRECTION ( 'NONE',  ( -0.000000000000000000, 1.000000000000000000, -0.000000000000000000 ) ) ;
#470 = DIRECTION ( 'NONE',  ( 0.000000000000000000, 0.000000000000000000, 1.000000000000000000 ) ) ;
#471 = CARTESIAN_POINT ( 'NONE',  ( 36.99999999999999289, 0.000000000000000000, 0.000000000000000000 ) ) ;
#472 = CARTESIAN_POINT ( 'NONE',  ( 29.99999999999999289, 5.999999999999998224, -30.00000000000000000 ) ) ;
#473 = VERTEX_POINT ( 'NONE', #894 ) ;
#474 = CARTESIAN_POINT ( 'NONE',  ( 12.99999999999999822, 0.000000000000000000, -18.00000000000000000 ) ) ;
#475 = EDGE_CURVE ( 'NONE', #738, #1, #669, .T. ) ;
#476 = DIRECTION ( 'NONE',  ( -0.000000000000000000, 1.000000000000000000, -0.000000000000000000 ) ) ;
#477 = EDGE_CURVE ( 'NONE', #384, #1210, #1071, .T. ) ;
#478 = DIRECTION ( 'NONE',  ( -1.000000000000000000, 0.000000000000000000, 0.000000000000000000 ) ) ;
#479 = ORIENTED_EDGE ( 'NONE', *, *, #365, .T. ) ;
#480 = CARTESIAN_POINT ( 'NONE',  ( 0.000000000000000000, 4.999999999999997335, 1.951563910473907981E-15 ) ) ;
#481 = ORIENTED_EDGE ( 'NONE', *, *, #673, .F. ) ;
#482 = LINE ( 'NONE', #866, #1109 ) ;
#483 = DIRECTION ( 'NONE',  ( -0.000000000000000000, 1.000000000000000000, -0.000000000000000000 ) ) ;
#484 = DIRECTION ( 'NONE',  ( 0.000000000000000000, 0.000000000000000000, 1.000000000000000000 ) ) ;
#485 = EDGE_CURVE ( 'NONE', #473, #40, #1306, .T. ) ;
#486 = VECTOR ( 'NONE', #611, 1000.000000000000114 ) ;
#487 = LINE ( 'NONE', #996, #786 ) ;
#488 = AXIS2_PLACEMENT_3D ( 'NONE', #851, #319, #735 ) ;
#489 = CARTESIAN_POINT ( 'NONE',  ( 12.99999999999999822, 11.50000000000000355, -18.00000000000000000 ) ) ;
#490 = AXIS2_PLACEMENT_3D ( 'NONE', #536, #8, #227 ) ;
#491 = DIRECTION ( 'NONE',  ( 0.000000000000000000, 0.000000000000000000, 1.000000000000000000 ) ) ;
#492 = APPLICATION_CONTEXT ( 'configuration controlled 3d designs of mechanical parts and assemblies' ) ;
#493 = CARTESIAN_POINT ( 'NONE',  ( 5.999999999999998224, 13.50000000000000355, -15.41631552976797614 ) ) ;
#494 = EDGE_CURVE ( 'NONE', #941, #1162, #246, .T. ) ;
#495 = CARTESIAN_POINT ( 'NONE',  ( 12.99999999999999467, 11.50000000000000355, -34.59663343302555916 ) ) ;
#496 = ORIENTED_EDGE ( 'NONE', *, *, #90, .T. ) ;
#497 = FACE_BOUND ( 'NONE', #1144, .T. ) ;
#498 = CARTESIAN_POINT ( 'NONE',  ( 6.500000000000000888, 0.000000000000000000, -2.999999999999997780 ) ) ;
#499 = DIRECTION ( 'NONE',  ( 1.445602896647339656E-16, -1.000000000000000000, 1.156482317317871725E-15 ) ) ;
#500 = ORIENTED_EDGE ( 'NONE', *, *, #411, .T. ) ;
#501 = ORIENTED_EDGE ( 'NONE', *, *, #1013, .T. ) ;
#502 = ORIENTED_EDGE ( 'NONE', *, *, #198, .T. ) ;
#503 = EDGE_CURVE ( 'NONE', #264, #197, #584, .T. ) ;
#504 = CARTESIAN_POINT ( 'NONE',  ( 0.000000000000000000, 0.000000000000000000, 0.000000000000000000 ) ) ;
#505 = DIRECTION ( 'NONE',  ( 0.000000000000000000, -0.000000000000000000, -1.000000000000000000 ) ) ;
#506 = CARTESIAN_POINT ( 'NONE',  ( 0.000000000000000000, 5.999999999999998224, -32.00000000000000000 ) ) ;
#507 = ORIENTED_EDGE ( 'NONE', *, *, #535, .T. ) ;
#508 = VERTEX_POINT ( 'NONE', #887 ) ;
#509 = DIRECTION ( 'NONE',  ( 0.000000000000000000, -1.000000000000000000, 0.000000000000000000 ) ) ;
#510 = AXIS2_PLACEMENT_3D ( 'NONE', #700, #1098, #276 ) ;
#511 = ORGANIZATION ( 'UNSPECIFIED', 'UNSPECIFIED', '' ) ;
#512 = DIRECTION ( 'NONE',  ( -1.000000000000000000, -0.000000000000000000, -0.000000000000000000 ) ) ;
#513 = CIRCLE ( 'NONE', #1221, 6.000000000000005329 ) ;
#514 = LINE ( 'NONE', #1001, #983 ) ;
#515 = ORIENTED_EDGE ( 'NONE', *, *, #1188, .T. ) ;
#516 = EDGE_LOOP ( 'NONE', ( #1125, #134, #749, #1249 ) ) ;
#517 = LINE ( 'NONE', #804, #464 ) ;
#518 = CARTESIAN_POINT ( 'NONE',  ( 0.000000000000000000, 5.999999999999998224, -34.00000000000000000 ) ) ;
#519 = EDGE_LOOP ( 'NONE', ( #991, #354, #457, #455 ) ) ;
#520 = EDGE_CURVE ( 'NONE', #1291, #653, #459, .T. ) ;
#521 = VERTEX_POINT ( 'NONE', #873 ) ;
#522 = FACE_OUTER_BOUND ( 'NONE', #348, .T. ) ;
#523 = DIRECTION ( 'NONE',  ( 0.000000000000000000, 0.000000000000000000, 1.000000000000000000 ) ) ;
#524 = PERSON_AND_ORGANIZATION ( #742, #511 ) ;
#525 = ORIENTED_EDGE ( 'NONE', *, *, #402, .T. ) ;
#526 = ADVANCED_FACE ( 'NONE', ( #776 ), #163, .T. ) ;
#527 = ORIENTED_EDGE ( 'NONE', *, *, #1163, .F. ) ;
#528 = FACE_OUTER_BOUND ( 'NONE', #413, .T. ) ;
#529 = CARTESIAN_POINT ( 'NONE',  ( 30.00000000000000000, -15.21060968079680897, -26.89876238288274379 ) ) ;
#530 = AXIS2_PLACEMENT_3D ( 'NONE', #704, #304, #84 ) ;
#531 = CIRCLE ( 'NONE', #1287, 2.000000000000000000 ) ;
#532 = ORIENTED_EDGE ( 'NONE', *, *, #125, .F. ) ;
#533 = VECTOR ( 'NONE', #1043, 1000.000000000000000 ) ;
#534 = ORIENTED_EDGE ( 'NONE', *, *, #29, .F. ) ;
#535 = EDGE_CURVE ( 'NONE', #1161, #1291, #254, .T. ) ;
#536 = CARTESIAN_POINT ( 'NONE',  ( 37.00000000000002132, 5.999999999999998224, -32.00000000000000000 ) ) ;
#537 = EDGE_CURVE ( 'NONE', #301, #842, #1305, .T. ) ;
#538 = PLANE ( 'NONE',  #379 ) ;
#539 = MECHANICAL_CONTEXT ( 'NONE', #543, 'mechanical' ) ;
#540 = EDGE_LOOP ( 'NONE', ( #1011, #660 ) ) ;
#541 = ORIENTED_EDGE ( 'NONE', *, *, #994, .T. ) ;
#542 = CARTESIAN_POINT ( 'NONE',  ( 39.99999999999997868, 0.000000000000000000, 0.000000000000000000 ) ) ;
#543 = APPLICATION_CONTEXT ( 'configuration controlled 3d designs of mechanical parts and assemblies' ) ;
#544 = EDGE_CURVE ( 'NONE', #948, #715, #663, .T. ) ;
#545 = DIRECTION ( 'NONE',  ( -1.000000000000000000, 0.000000000000000000, 0.000000000000000000 ) ) ;
#546 = PERSON_AND_ORGANIZATION_ROLE ( 'creator' ) ;
#547 = ORIENTED_EDGE ( 'NONE', *, *, #1271, .T. ) ;
#548 = EDGE_LOOP ( 'NONE', ( #1028, #797 ) ) ;
#549 = CARTESIAN_POINT ( 'NONE',  ( 43.00000000000000000, 5.999999999999998224, -32.00000000000000000 ) ) ;
#550 = CARTESIAN_POINT ( 'NONE',  ( 36.50000000000000000, 0.000000000000000000, -7.000000000000002665 ) ) ;
#551 = EDGE_LOOP ( 'NONE', ( #860, #718, #848, #849, #1257, #1234, #427 ) ) ;
#552 = EDGE_CURVE ( 'NONE', #1161, #94, #1185, .T. ) ;
#553 = CALENDAR_DATE ( 2024, 26, 9 ) ;
#554 = CIRCLE ( 'NONE', #558, 2.000000000000005329 ) ;
#555 = VERTEX_POINT ( 'NONE', #782 ) ;
#556 = AXIS2_PLACEMENT_3D ( 'NONE', #759, #892, #1302 ) ;
#557 = ORIENTED_EDGE ( 'NONE', *, *, #839, .T. ) ;
#558 = AXIS2_PLACEMENT_3D ( 'NONE', #845, #730, #1139 ) ;
#559 = DIRECTION ( 'NONE',  ( 1.000000000000000000, 0.000000000000000000, 0.000000000000000000 ) ) ;
#560 = DIRECTION ( 'NONE',  ( -1.000000000000000000, 0.000000000000000000, 1.734723475976807094E-16 ) ) ;
#561 = VERTEX_POINT ( 'NONE', #1179 ) ;
#562 = DIRECTION ( 'NONE',  ( 0.000000000000000000, 0.000000000000000000, -1.000000000000000000 ) ) ;
#563 = ORIENTED_EDGE ( 'NONE', *, *, #971, .T. ) ;
#564 = DIRECTION ( 'NONE',  ( 0.000000000000000000, 0.000000000000000000, 1.000000000000000000 ) ) ;
#565 = DIRECTION ( 'NONE',  ( 1.000000000000000000, -0.000000000000000000, 0.000000000000000000 ) ) ;
#566 = CARTESIAN_POINT ( 'NONE',  ( 0.000000000000000000, -4.347496136973103281E-15, -35.50000000000000000 ) ) ;
#567 = DIRECTION ( 'NONE',  ( 0.000000000000000000, 0.000000000000000000, 1.000000000000000000 ) ) ;
#568 = ORIENTED_EDGE ( 'NONE', *, *, #631, .F. ) ;
#569 = EDGE_CURVE ( 'NONE', #1227, #969, #482, .T. ) ;
#570 = ADVANCED_BREP_SHAPE_REPRESENTATION ( '바디_엔드이펙터', ( #844, #1267 ), #268 ) ;
#571 = DIRECTION ( 'NONE',  ( -1.000000000000000000, 0.000000000000000000, 0.000000000000000000 ) ) ;
#572 = CARTESIAN_POINT ( 'NONE',  ( 13.00000000000000178, 0.000000000000000000, -2.255140518769849223E-15 ) ) ;
#573 = CARTESIAN_POINT ( 'NONE',  ( 36.99999999999999289, 0.000000000000000000, -28.99999999999999645 ) ) ;
#574 = CARTESIAN_POINT ( 'NONE',  ( 7.808982157474764207, 11.50757346323110752, -12.04893588964939966 ) ) ;
#575 = VECTOR ( 'NONE', #1178, 1000.000000000000000 ) ;
#576 = VECTOR ( 'NONE', #300, 1000.000000000000000 ) ;
#577 = PRODUCT_RELATED_PRODUCT_CATEGORY ( 'detail', '', ( #343 ) ) ;
#578 = DIRECTION ( 'NONE',  ( 0.000000000000000000, 0.000000000000000000, 1.000000000000000000 ) ) ;
#579 = CYLINDRICAL_SURFACE ( 'NONE', #1007, 1.999999999999999556 ) ;
#580 = DIRECTION ( 'NONE',  ( 1.000000000000000000, 1.269309860470834724E-16, 0.000000000000000000 ) ) ;
#581 = CARTESIAN_POINT ( 'NONE',  ( 6.518938056863161634, 12.15079774346836672, -13.85771764640978709 ) ) ;
#582 = CARTESIAN_POINT ( 'NONE',  ( 43.00000000000000000, 11.50000000000001066, -34.59663343302555916 ) ) ;
#583 = ORIENTED_EDGE ( 'NONE', *, *, #814, .T. ) ;
#584 = LINE ( 'NONE', #974, #141 ) ;
#585 = ADVANCED_FACE ( 'NONE', ( #1088 ), #579, .F. ) ;
#586 = LINE ( 'NONE', #370, #639 ) ;
#587 = DIRECTION ( 'NONE',  ( 1.734723475976807094E-16, 0.000000000000000000, 1.000000000000000000 ) ) ;
#588 = FACE_BOUND ( 'NONE', #323, .T. ) ;
#589 = ORIENTED_EDGE ( 'NONE', *, *, #247, .F. ) ;
#590 = ORIENTED_EDGE ( 'NONE', *, *, #1312, .T. ) ;
#591 = DIRECTION ( 'NONE',  ( -1.000000000000000000, -0.000000000000000000, -0.000000000000000000 ) ) ;
#592 = FACE_OUTER_BOUND ( 'NONE', #1138, .T. ) ;
#593 = CC_DESIGN_PERSON_AND_ORGANIZATION_ASSIGNMENT ( #727, #1260, ( #720 ) ) ;
#594 = DIRECTION ( 'NONE',  ( -0.000000000000000000, 1.000000000000000000, -0.000000000000000000 ) ) ;
#595 = AXIS2_PLACEMENT_3D ( 'NONE', #97, #509, #920 ) ;
#596 = DIRECTION ( 'NONE',  ( -0.000000000000000000, -7.228014483236695816E-17, -1.000000000000000000 ) ) ;
#597 = ORIENTED_EDGE ( 'NONE', *, *, #1226, .T. ) ;
#598 = VECTOR ( 'NONE', #366, 1000.000000000000000 ) ;
#599 = CARTESIAN_POINT ( 'NONE',  ( 43.00000000000000000, 26.00000000000000355, -18.00000000000000355 ) ) ;
#600 = AXIS2_PLACEMENT_3D ( 'NONE', #756, #650, #315 ) ;
#601 = CARTESIAN_POINT ( 'NONE',  ( 43.00000000000000000, 26.00000000000000355, -12.00000000000000355 ) ) ;
#602 = DIRECTION ( 'NONE',  ( 0.7071067811865474617, 0.000000000000000000, 0.7071067811865474617 ) ) ;
#603 = EDGE_CURVE ( 'NONE', #222, #1162, #899, .T. ) ;
#604 = DIRECTION ( 'NONE',  ( 0.000000000000000000, 0.000000000000000000, -1.000000000000000000 ) ) ;
#605 = ORIENTED_EDGE ( 'NONE', *, *, #950, .F. ) ;
#606 = DIRECTION ( 'NONE',  ( -0.000000000000000000, -0.000000000000000000, -1.000000000000000000 ) ) ;
#607 = CARTESIAN_POINT ( 'NONE',  ( 19.99999999999997513, 5.000000000000001776, 19.99999999999999289 ) ) ;
#608 = CARTESIAN_POINT ( 'NONE',  ( 1.499999999999999778, 5.000000000000000000, -1.500000000000000222 ) ) ;
#609 = VERTEX_POINT ( 'NONE', #170 ) ;
#610 = EDGE_CURVE ( 'NONE', #955, #1149, #70, .T. ) ;
#611 = DIRECTION ( 'NONE',  ( 0.4788521306805736955, 0.000000000000000000, 0.8778955729143841369 ) ) ;
#612 = CARTESIAN_POINT ( 'NONE',  ( 42.99999999999999289, 11.50000000000000355, -18.00000000000000711 ) ) ;
#613 = FACE_OUTER_BOUND ( 'NONE', #1040, .T. ) ;
#614 = EDGE_LOOP ( 'NONE', ( #837, #1062, #1228, #130, #893, #291, #936, #1337, #440, #621 ) ) ;
#615 = ORIENTED_EDGE ( 'NONE', *, *, #153, .T. ) ;
#616 = DIRECTION ( 'NONE',  ( 0.7071067811865474617, 0.000000000000000000, 0.7071067811865474617 ) ) ;
#617 = VECTOR ( 'NONE', #1289, 1000.000000000000000 ) ;
#618 = VECTOR ( 'NONE', #71, 1000.000000000000000 ) ;
#619 = CYLINDRICAL_SURFACE ( 'NONE', #705, 5.999999999999998224 ) ;
#620 = EDGE_LOOP ( 'NONE', ( #167, #1218, #1279, #1238 ) ) ;
#621 = ORIENTED_EDGE ( 'NONE', *, *, #1320, .T. ) ;
#622 = FACE_OUTER_BOUND ( 'NONE', #1045, .T. ) ;
#623 = CARTESIAN_POINT ( 'NONE',  ( 43.00000000000000000, 26.00000000000000355, -18.00000000000000355 ) ) ;
#624 = ADVANCED_FACE ( 'NONE', ( #622 ), #76, .F. ) ;
#625 = APPROVAL_STATUS ( 'not_yet_approved' ) ;
#626 = VERTEX_POINT ( 'NONE', #1207 ) ;
#627 = VERTEX_POINT ( 'NONE', #179 ) ;
#628 = CARTESIAN_POINT ( 'NONE',  ( 22.00000000000000355, 0.000000000000000000, -4.999999999999997335 ) ) ;
#629 = CARTESIAN_POINT ( 'NONE',  ( 8.000000000000000000, 11.50000000000001066, -34.59663343302555916 ) ) ;
#630 = CALENDAR_DATE ( 2024, 26, 9 ) ;
#631 = EDGE_CURVE ( 'NONE', #948, #820, #1115, .T. ) ;
#632 = ORIENTED_EDGE ( 'NONE', *, *, #146, .T. ) ;
#633 = ORIENTED_EDGE ( 'NONE', *, *, #485, .T. ) ;
#634 = LINE ( 'NONE', #831, #638 ) ;
#635 = LOCAL_TIME ( 23, 17, 23.00000000000000000, #1039 ) ;
#636 = CARTESIAN_POINT ( 'NONE',  ( 0.000000000000000000, 34.05221498361325416, -50.78887854801894264 ) ) ;
#637 = CIRCLE ( 'NONE', #530, 5.420791621782348635 ) ;
#638 = VECTOR ( 'NONE', #236, 1000.000000000000000 ) ;
#639 = VECTOR ( 'NONE', #676, 1000.000000000000000 ) ;
#640 = ORIENTED_EDGE ( 'NONE', *, *, #889, .F. ) ;
#641 = VERTEX_POINT ( 'NONE', #723 ) ;
#642 = EDGE_CURVE ( 'NONE', #94, #1248, #823, .T. ) ;
#643 = PLANE ( 'NONE',  #724 ) ;
#644 = DIRECTION ( 'NONE',  ( 1.000000000000000000, -0.000000000000000000, 0.000000000000000000 ) ) ;
#645 = APPROVAL_ROLE ( '' ) ;
#646 = EDGE_LOOP ( 'NONE', ( #1155, #942, #191, #766 ) ) ;
#647 = ORIENTED_EDGE ( 'NONE', *, *, #979, .T. ) ;
#648 = ADVANCED_FACE ( 'NONE', ( #208 ), #91, .F. ) ;
#649 = CYLINDRICAL_SURFACE ( 'NONE', #958, 6.000000000000005329 ) ;
#650 = DIRECTION ( 'NONE',  ( -0.8778955729143841369, 0.000000000000000000, 0.4788521306805736955 ) ) ;
#651 = APPROVAL_ROLE ( '' ) ;
#652 = DIRECTION ( 'NONE',  ( -1.000000000000000000, 0.000000000000000000, 0.000000000000000000 ) ) ;
#653 = VERTEX_POINT ( 'NONE', #489 ) ;
#654 = CYLINDRICAL_SURFACE ( 'NONE', #1307, 6.000000000000005329 ) ;
#655 = PLANE ( 'NONE',  #600 ) ;
#656 = EDGE_CURVE ( 'NONE', #688, #445, #517, .T. ) ;
#657 = VECTOR ( 'NONE', #1192, 1000.000000000000000 ) ;
#658 = ORIENTED_EDGE ( 'NONE', *, *, #1046, .T. ) ;
#659 = VECTOR ( 'NONE', #1318, 1000.000000000000000 ) ;
#660 = ORIENTED_EDGE ( 'NONE', *, *, #146, .F. ) ;
#661 = VECTOR ( 'NONE', #940, 1000.000000000000000 ) ;
#662 = DIRECTION ( 'NONE',  ( 0.4788521306805736955, 0.000000000000000000, 0.8778955729143841369 ) ) ;
#663 = LINE ( 'NONE', #377, #767 ) ;
#664 = DIRECTION ( 'NONE',  ( 0.000000000000000000, 0.000000000000000000, 1.000000000000000000 ) ) ;
#665 = ADVANCED_FACE ( 'NONE', ( #414 ), #818, .T. ) ;
#666 = CYLINDRICAL_SURFACE ( 'NONE', #832, 1.999999999999999556 ) ;
#667 = VERTEX_POINT ( 'NONE', #1315 ) ;
#668 = CARTESIAN_POINT ( 'NONE',  ( 5.999999999999998224, 34.05221498361325416, -50.78887854801894264 ) ) ;
#669 = LINE ( 'NONE', #1082, #726 ) ;
#670 = CARTESIAN_POINT ( 'NONE',  ( 36.50000000000000000, 0.000000000000000000, -7.000000000000002665 ) ) ;
#671 = FACE_BOUND ( 'NONE', #1097, .T. ) ;
#672 = CC_DESIGN_PERSON_AND_ORGANIZATION_ASSIGNMENT ( #854, #934, ( #1150 ) ) ;
#673 = EDGE_CURVE ( 'NONE', #412, #338, #912, .T. ) ;
#674 = CARTESIAN_POINT ( 'NONE',  ( 43.00000000000000000, 21.19565161264574371, -14.40580515651606852 ) ) ;
#675 = DIRECTION ( 'NONE',  ( -1.000000000000000000, -0.000000000000000000, -0.000000000000000000 ) ) ;
#676 = DIRECTION ( 'NONE',  ( 1.734723475976807341E-16, 0.000000000000000000, 1.000000000000000000 ) ) ;
#677 = DIRECTION ( 'NONE',  ( -1.000000000000000000, -0.000000000000000000, -0.000000000000000000 ) ) ;
#678 = EDGE_LOOP ( 'NONE', ( #375, #19 ) ) ;
#679 = AXIS2_PLACEMENT_3D ( 'NONE', #1297, #1190, #263 ) ;
#680 = AXIS2_PLACEMENT_3D ( 'NONE', #1117, #404, #1019 ) ;
#681 = AXIS2_PLACEMENT_3D ( 'NONE', #753, #652, #1068 ) ;
#682 = DIRECTION ( 'NONE',  ( -0.000000000000000000, -1.000000000000000000, 7.228014483236695816E-17 ) ) ;
#683 = ORIENTED_EDGE ( 'NONE', *, *, #296, .T. ) ;
#684 = EDGE_CURVE ( 'NONE', #953, #145, #1326, .T. ) ;
#685 = DIRECTION ( 'NONE',  ( 1.000000000000000000, -0.000000000000000000, 0.000000000000000000 ) ) ;
#686 = DIRECTION ( 'NONE',  ( -0.000000000000000000, -1.000000000000000000, 7.228014483236695816E-17 ) ) ;
#687 = LINE ( 'NONE', #869, #598 ) ;
#688 = VERTEX_POINT ( 'NONE', #811 ) ;
#689 = FACE_OUTER_BOUND ( 'NONE', #620, .T. ) ;
#690 = ADVANCED_FACE ( 'NONE', ( #1008, #2 ), #277, .T. ) ;
#691 = CYLINDRICAL_SURFACE ( 'NONE', #16, 27.76312667066044426 ) ;
#692 = DIRECTION ( 'NONE',  ( -1.000000000000000000, 0.000000000000000000, 1.734723475976807094E-16 ) ) ;
#693 = CYLINDRICAL_SURFACE ( 'NONE', #181, 2.000000000000003109 ) ;
#694 = ORIENTED_EDGE ( 'NONE', *, *, #1141, .F. ) ;
#695 = DIRECTION ( 'NONE',  ( 0.7071067811865479058, 0.000000000000000000, -0.7071067811865472397 ) ) ;
#696 = DIRECTION ( 'NONE',  ( -1.000000000000000000, 0.000000000000000000, 1.734723475976807094E-16 ) ) ;
#697 = CARTESIAN_POINT ( 'NONE',  ( 37.00000000000002132, 5.999999999999998224, -32.00000000000000000 ) ) ;
#698 = DIRECTION ( 'NONE',  ( 0.000000000000000000, 0.000000000000000000, 1.000000000000000000 ) ) ;
#699 = CIRCLE ( 'NONE', #121, 5.999999999999998224 ) ;
#700 = CARTESIAN_POINT ( 'NONE',  ( 36.50000000000000000, 0.000000000000000000, -5.000000000000000000 ) ) ;
#701 = EDGE_LOOP ( 'NONE', ( #1177, #515, #196, #95 ) ) ;
#702 = AXIS2_PLACEMENT_3D ( 'NONE', #1085, #1280, #159 ) ;
#703 = VECTOR ( 'NONE', #491, 1000.000000000000000 ) ;
#704 = CARTESIAN_POINT ( 'NONE',  ( 5.999999999999998224, 16.85508969826349102, -11.15857494074755962 ) ) ;
#705 = AXIS2_PLACEMENT_3D ( 'NONE', #623, #1107, #523 ) ;
#706 = DIRECTION ( 'NONE',  ( 0.000000000000000000, 0.000000000000000000, 1.000000000000000000 ) ) ;
#707 = CARTESIAN_POINT ( 'NONE',  ( 2.168404344971008868E-16, 0.000000000000000000, -2.999999999999999112 ) ) ;
#708 = EDGE_CURVE ( 'NONE', #40, #302, #1216, .T. ) ;
#709 = ORIENTED_EDGE ( 'NONE', *, *, #1093, .F. ) ;
#710 = ORIENTED_EDGE ( 'NONE', *, *, #537, .T. ) ;
#711 = CARTESIAN_POINT ( 'NONE',  ( 43.00000000000000000, 5.000000000000000000, -3.000000000000007105 ) ) ;
#712 = CARTESIAN_POINT ( 'NONE',  ( 37.00000000000002132, 5.999999999999998224, -30.00000000000000000 ) ) ;
#713 = ORIENTED_EDGE ( 'NONE', *, *, #760, .T. ) ;
#714 = EDGE_CURVE ( 'NONE', #863, #955, #637, .T. ) ;
#715 = VERTEX_POINT ( 'NONE', #711 ) ;
#716 = DIRECTION ( 'NONE',  ( 0.000000000000000000, 0.000000000000000000, -1.000000000000000000 ) ) ;
#717 = CARTESIAN_POINT ( 'NONE',  ( 43.00000000000000000, -4.347496136973103281E-15, -35.50000000000000000 ) ) ;
#718 = ORIENTED_EDGE ( 'NONE', *, *, #345, .T. ) ;
#719 = ORIENTED_EDGE ( 'NONE', *, *, #1201, .F. ) ;
#720 = PRODUCT_DEFINITION_FORMATION_WITH_SPECIFIED_SOURCE ( 'ANY', '', #343, .NOT_KNOWN. ) ;
#721 = CIRCLE ( 'NONE', #206, 2.000000000000005329 ) ;
#722 = ADVANCED_FACE ( 'NONE', ( #497, #1334, #907, #194 ), #407, .T. ) ;
#723 = CARTESIAN_POINT ( 'NONE',  ( 36.99999999999999289, 3.046632124352323778, -37.22279792746113714 ) ) ;
#724 = AXIS2_PLACEMENT_3D ( 'NONE', #750, #944, #1158 ) ;
#725 = DIRECTION ( 'NONE',  ( 0.000000000000000000, 0.000000000000000000, -1.000000000000000000 ) ) ;
#726 = VECTOR ( 'NONE', #469, 1000.000000000000000 ) ;
#727 = PERSON_AND_ORGANIZATION ( #742, #511 ) ;
#728 = ORIENTED_EDGE ( 'NONE', *, *, #224, .F. ) ;
#729 = EDGE_LOOP ( 'NONE', ( #397, #935, #967, #418 ) ) ;
#730 = DIRECTION ( 'NONE',  ( 1.000000000000000000, -0.000000000000000000, 0.000000000000000000 ) ) ;
#731 = ADVANCED_FACE ( 'NONE', ( #1229 ), #298, .T. ) ;
#732 = CARTESIAN_POINT ( 'NONE',  ( 6.613542354109354982, 12.03817951473062919, -33.86949635178005025 ) ) ;
#733 = ORIENTED_EDGE ( 'NONE', *, *, #922, .T. ) ;
#734 = ORIENTED_EDGE ( 'NONE', *, *, #65, .T. ) ;
#735 = DIRECTION ( 'NONE',  ( 0.000000000000000000, 0.000000000000000000, 1.000000000000000000 ) ) ;
#736 = FACE_OUTER_BOUND ( 'NONE', #614, .T. ) ;
#737 = COORDINATED_UNIVERSAL_TIME_OFFSET ( 9, 0, .AHEAD. ) ;
#738 = VERTEX_POINT ( 'NONE', #1030 ) ;
#739 = ADVANCED_FACE ( 'NONE', ( #433 ), #131, .T. ) ;
#740 = VERTEX_POINT ( 'NONE', #334 ) ;
#741 = CARTESIAN_POINT ( 'NONE',  ( 39.99999999999997868, 5.000000000000000888, 0.000000000000000000 ) ) ;
#742 = PERSON ( 'UNSPECIFIED', 'UNSPECIFIED', 'UNSPECIFIED', ('UNSPECIFIED'), ('UNSPECIFIED'), ('UNSPECIFIED') ) ;
#743 = CARTESIAN_POINT ( 'NONE',  ( 37.00000000000002132, 5.999999999999998224, -34.00000000000000000 ) ) ;
#744 = VECTOR ( 'NONE', #587, 1000.000000000000000 ) ;
#745 = AXIS2_PLACEMENT_3D ( 'NONE', #506, #825, #1102 ) ;
#746 = ORIENTED_EDGE ( 'NONE', *, *, #1301, .F. ) ;
#747 = ORIENTED_EDGE ( 'NONE', *, *, #610, .T. ) ;
#748 = VECTOR ( 'NONE', #1268, 1000.000000000000000 ) ;
#749 = ORIENTED_EDGE ( 'NONE', *, *, #468, .F. ) ;
#750 = CARTESIAN_POINT ( 'NONE',  ( 43.00000000000000000, -4.347496136973103281E-15, -35.50000000000000000 ) ) ;
#751 = CARTESIAN_POINT ( 'NONE',  ( 6.038883265788740573, 13.04693074445655832, -32.63181974939950436 ) ) ;
#752 = CARTESIAN_POINT ( 'NONE',  ( 0.000000000000000000, 0.000000000000000000, 0.000000000000000000 ) ) ;
#753 = CARTESIAN_POINT ( 'NONE',  ( 0.000000000000000000, 5.999999999999998224, -32.00000000000000000 ) ) ;
#754 = ORIENTED_EDGE ( 'NONE', *, *, #224, .T. ) ;
#755 = DIRECTION ( 'NONE',  ( 0.000000000000000000, -1.000000000000000000, 0.000000000000000000 ) ) ;
#756 = CARTESIAN_POINT ( 'NONE',  ( 40.70700636942672901, 0.000000000000000000, -22.20382165605096958 ) ) ;
#757 = DIRECTION ( 'NONE',  ( 0.000000000000000000, 0.000000000000000000, 1.000000000000000000 ) ) ;
#758 = EDGE_LOOP ( 'NONE', ( #1063, #317, #763, #225 ) ) ;
#759 = CARTESIAN_POINT ( 'NONE',  ( 22.00000000000000355, 0.000000000000000000, -4.999999999999997335 ) ) ;
#760 = EDGE_CURVE ( 'NONE', #445, #197, #554, .T. ) ;
#761 = DIRECTION ( 'NONE',  ( 0.000000000000000000, 0.000000000000000000, 1.000000000000000000 ) ) ;
#762 = AXIS2_PLACEMENT_3D ( 'NONE', #1127, #199, #616 ) ;
#763 = ORIENTED_EDGE ( 'NONE', *, *, #185, .F. ) ;
#764 = AXIS2_PLACEMENT_3D ( 'NONE', #1079, #256, #1310 ) ;
#765 = CARTESIAN_POINT ( 'NONE',  ( 30.00000000000000355, 0.000000000000000000, -5.204170427930422072E-15 ) ) ;
#766 = ORIENTED_EDGE ( 'NONE', *, *, #1253, .T. ) ;
#767 = VECTOR ( 'NONE', #769, 1000.000000000000000 ) ;
#768 = CARTESIAN_POINT ( 'NONE',  ( 12.99999999999999822, 10.98512153638723099, -35.33894643075450404 ) ) ;
#769 = DIRECTION ( 'NONE',  ( -0.000000000000000000, 1.000000000000000000, -0.000000000000000000 ) ) ;
#770 = CC_DESIGN_PERSON_AND_ORGANIZATION_ASSIGNMENT ( #1269, #1160, ( #343 ) ) ;
#771 = DIRECTION ( 'NONE',  ( -1.000000000000000000, 0.000000000000000000, 0.000000000000000000 ) ) ;
#772 = ADVANCED_FACE ( 'NONE', ( #214 ), #21, .F. ) ;
#773 = DIRECTION ( 'NONE',  ( 1.000000000000000000, 0.000000000000000000, 0.000000000000000000 ) ) ;
#774 = ORIENTED_EDGE ( 'NONE', *, *, #48, .F. ) ;
#775 = DIRECTION ( 'NONE',  ( 0.000000000000000000, 0.000000000000000000, 1.000000000000000000 ) ) ;
#776 = FACE_OUTER_BOUND ( 'NONE', #406, .T. ) ;
#777 = LINE ( 'NONE', #573, #1051 ) ;
#778 = CARTESIAN_POINT ( 'NONE',  ( 7.280180145944668446, 11.63034970313162120, -12.61242352545848888 ) ) ;
#779 = EDGE_CURVE ( 'NONE', #405, #561, #112, .T. ) ;
#780 = B_SPLINE_CURVE_WITH_KNOTS ( 'NONE', 3,
 ( #1176, #250, #574, #61, #1300, #884, #778, #1090, #166, #581, #371, #394, #184, #909, #928, #493 ),
 .UNSPECIFIED., .F., .F.,
 ( 4, 2, 2, 2, 2, 2, 2, 4 ),
 ( 0.000000000000000000, 0.0002950424565453795976, 0.0005900849130907591953, 0.001180169826181521426, 0.002360339652363052827, 0.002950424565453817118, 0.003540509478544581843, 0.004720679304726111726 ),
 .UNSPECIFIED. ) ;
#781 = FACE_OUTER_BOUND ( 'NONE', #1212, .T. ) ;
#782 = CARTESIAN_POINT ( 'NONE',  ( 12.99999999999999822, 5.999999999999998224, -34.00000000000000000 ) ) ;
#783 = DIRECTION ( 'NONE',  ( 0.000000000000000000, 0.000000000000000000, -1.000000000000000000 ) ) ;
#784 = APPROVAL_PERSON_ORGANIZATION ( #524, #54, #216 ) ;
#785 = CARTESIAN_POINT ( 'NONE',  ( 12.99999999999999822, 5.999999999999998224, -32.00000000000000000 ) ) ;
#786 = VECTOR ( 'NONE', #178, 1000.000000000000000 ) ;
#787 = CIRCLE ( 'NONE', #681, 2.000000000000001776 ) ;
#788 = EDGE_CURVE ( 'NONE', #910, #842, #312, .T. ) ;
#789 = AXIS2_PLACEMENT_3D ( 'NONE', #410, #1034, #290 ) ;
#790 = VECTOR ( 'NONE', #813, 1000.000000000000000 ) ;
#791 = DIRECTION ( 'NONE',  ( 0.000000000000000000, -0.8704663212435229669, 0.4922279792746119820 ) ) ;
#792 = ORIENTED_EDGE ( 'NONE', *, *, #161, .F. ) ;
#793 = VECTOR ( 'NONE', #545, 1000.000000000000000 ) ;
#794 = DIRECTION ( 'NONE',  ( 0.000000000000000000, 0.000000000000000000, 1.000000000000000000 ) ) ;
#795 = CYLINDRICAL_SURFACE ( 'NONE', #1029, 2.000000000000001776 ) ;
#796 = DIRECTION ( 'NONE',  ( 0.000000000000000000, 0.000000000000000000, 1.000000000000000000 ) ) ;
#797 = ORIENTED_EDGE ( 'NONE', *, *, #1100, .F. ) ;
#798 = CARTESIAN_POINT ( 'NONE',  ( -6.000000000000000999E-06, 11.50000000000000355, -12.00000000000000178 ) ) ;
#799 = EDGE_CURVE ( 'NONE', #230, #301, #937, .T. ) ;
#800 = DIRECTION ( 'NONE',  ( -0.000000000000000000, -0.000000000000000000, 1.000000000000000000 ) ) ;
#801 = CARTESIAN_POINT ( 'NONE',  ( 29.99999999999999645, 10.98512153638723099, -35.33894643075450404 ) ) ;
#802 = CARTESIAN_POINT ( 'NONE',  ( 19.99999999999997513, 0.000000000000000000, 19.99999999999999289 ) ) ;
#803 = ORIENTED_EDGE ( 'NONE', *, *, #1189, .F. ) ;
#804 = CARTESIAN_POINT ( 'NONE',  ( 43.00000000000000000, 26.00000000000000355, -20.00000000000000711 ) ) ;
#805 = ADVANCED_FACE ( 'NONE', ( #528 ), #1258, .F. ) ;
#806 = CARTESIAN_POINT ( 'NONE',  ( 6.000000000000002665, 11.50000000000000355, -38.00002500000000794 ) ) ;
#807 = DIRECTION ( 'NONE',  ( 1.000000000000000000, -0.000000000000000000, -1.734723475976807094E-16 ) ) ;
#808 = ORIENTED_EDGE ( 'NONE', *, *, #979, .F. ) ;
#809 = VECTOR ( 'NONE', #695, 1000.000000000000000 ) ;
#810 = CIRCLE ( 'NONE', #853, 2.000000000000003109 ) ;
#811 = CARTESIAN_POINT ( 'NONE',  ( 5.999999999999998224, 26.00000000000000355, -20.00000000000000711 ) ) ;
#812 = AXIS2_PLACEMENT_3D ( 'NONE', #359, #771, #470 ) ;
#813 = DIRECTION ( 'NONE',  ( 0.000000000000000000, 1.000000000000000000, 0.000000000000000000 ) ) ;
#814 = EDGE_CURVE ( 'NONE', #313, #627, #351, .T. ) ;
#815 = DIRECTION ( 'NONE',  ( 8.538794311802947089E-17, -0.8704663212435229669, 0.4922279792746119820 ) ) ;
#816 = ORIENTED_EDGE ( 'NONE', *, *, #345, .F. ) ;
#817 = VERTEX_POINT ( 'NONE', #14 ) ;
#818 = CYLINDRICAL_SURFACE ( 'NONE', #1130, 5.999999999999998224 ) ;
#819 = CARTESIAN_POINT ( 'NONE',  ( 12.99999999999999112, 34.05221498361325416, -50.78887854801894264 ) ) ;
#820 = VERTEX_POINT ( 'NONE', #136 ) ;
#821 = EDGE_CURVE ( 'NONE', #187, #863, #699, .T. ) ;
#822 = ORIENTED_EDGE ( 'NONE', *, *, #365, .F. ) ;
#823 = LINE ( 'NONE', #504, #77 ) ;
#824 = DIRECTION ( 'NONE',  ( 1.000000000000000000, -0.000000000000000000, -1.734723475976807094E-16 ) ) ;
#825 = DIRECTION ( 'NONE',  ( -1.000000000000000000, 0.000000000000000000, 0.000000000000000000 ) ) ;
#826 = EDGE_LOOP ( 'NONE', ( #479, #389 ) ) ;
#827 = ORIENTED_EDGE ( 'NONE', *, *, #90, .F. ) ;
#828 = EDGE_CURVE ( 'NONE', #843, #561, #325, .T. ) ;
#829 = CC_DESIGN_SECURITY_CLASSIFICATION ( #1150, ( #720 ) ) ;
#830 = AXIS2_PLACEMENT_3D ( 'NONE', #284, #696, #1106 ) ;
#831 = CARTESIAN_POINT ( 'NONE',  ( 22.00000000000000355, 0.000000000000000000, -7.000000000000000888 ) ) ;
#832 = AXIS2_PLACEMENT_3D ( 'NONE', #270, #976, #484 ) ;
#833 = CARTESIAN_POINT ( 'NONE',  ( 6.303529299761660099, 12.41318304290250474, -33.39245511684988088 ) ) ;
#834 = AXIS2_PLACEMENT_3D ( 'NONE', #118, #1266, #1058 ) ;
#835 = SECURITY_CLASSIFICATION_LEVEL ( 'unclassified' ) ;
#836 = VERTEX_POINT ( 'NONE', #838 ) ;
#837 = ORIENTED_EDGE ( 'NONE', *, *, #943, .F. ) ;
#838 = CARTESIAN_POINT ( 'NONE',  ( 6.505213034913026604E-16, 5.000000000000000000, -2.999999999999999112 ) ) ;
#839 = EDGE_CURVE ( 'NONE', #627, #384, #634, .T. ) ;
#840 = DIRECTION ( 'NONE',  ( -1.000000000000000000, 0.000000000000000000, -0.000000000000000000 ) ) ;
#841 = DATE_AND_TIME ( #960, #443 ) ;
#842 = VERTEX_POINT ( 'NONE', #1250 ) ;
#843 = VERTEX_POINT ( 'NONE', #741 ) ;
#844 = MANIFOLD_SOLID_BREP ( '컷-돌출4', #1132 ) ;
#845 = CARTESIAN_POINT ( 'NONE',  ( 0.000000000000000000, 26.00000000000000355, -18.00000000000000355 ) ) ;
#846 = DIRECTION ( 'NONE',  ( 1.269309860470834724E-16, -1.000000000000000000, 0.000000000000000000 ) ) ;
#847 = APPLICATION_PROTOCOL_DEFINITION ( 'international standard', 'config_control_design', 1994, #492 ) ;
#848 = ORIENTED_EDGE ( 'NONE', *, *, #1032, .F. ) ;
#849 = ORIENTED_EDGE ( 'NONE', *, *, #237, .T. ) ;
#850 = LOCAL_TIME ( 23, 17, 23.00000000000000000, #737 ) ;
#851 = CARTESIAN_POINT ( 'NONE',  ( 43.00000000000000000, 32.00000000000000000, 0.000000000000000000 ) ) ;
#852 = CARTESIAN_POINT ( 'NONE',  ( 0.000000000000000000, 32.00000000000000000, -12.00000000000000000 ) ) ;
#853 = AXIS2_PLACEMENT_3D ( 'NONE', #346, #682, #1278 ) ;
#854 = PERSON_AND_ORGANIZATION ( #742, #511 ) ;
#855 = ORIENTED_EDGE ( 'NONE', *, *, #520, .T. ) ;
#856 = AXIS2_PLACEMENT_3D ( 'NONE', #921, #299, #725 ) ;
#857 = ADVANCED_FACE ( 'NONE', ( #522 ), #1244, .F. ) ;
#858 = ORIENTED_EDGE ( 'NONE', *, *, #155, .T. ) ;
#859 = DIRECTION ( 'NONE',  ( -1.000000000000000000, -0.000000000000000000, -0.000000000000000000 ) ) ;
#860 = ORIENTED_EDGE ( 'NONE', *, *, #994, .F. ) ;
#861 = CARTESIAN_POINT ( 'NONE',  ( 7.913150184166000578, 11.50000000000000355, -34.59663343302555916 ) ) ;
#862 = CYLINDRICAL_SURFACE ( 'NONE', #1172, 2.000000000000003109 ) ;
#863 = VERTEX_POINT ( 'NONE', #27 ) ;
#864 = EDGE_CURVE ( 'NONE', #116, #69, #1145, .T. ) ;
#865 = DIRECTION ( 'NONE',  ( -1.000000000000000000, -0.000000000000000000, -0.000000000000000000 ) ) ;
#866 = CARTESIAN_POINT ( 'NONE',  ( 43.00000000000000000, 11.50000000000001066, -34.59663343302555916 ) ) ;
#867 = ORIENTED_EDGE ( 'NONE', *, *, #15, .F. ) ;
#868 = ORIENTED_EDGE ( 'NONE', *, *, #185, .T. ) ;
#869 = CARTESIAN_POINT ( 'NONE',  ( 43.00000000000000000, 3.046632124352323778, -37.22279792746113714 ) ) ;
#870 = VERTEX_POINT ( 'NONE', #542 ) ;
#871 = ADVANCED_FACE ( 'NONE', ( #1152 ), #643, .T. ) ;
#872 = DIRECTION ( 'NONE',  ( 0.000000000000000000, 0.000000000000000000, 1.000000000000000000 ) ) ;
#873 = CARTESIAN_POINT ( 'NONE',  ( 30.00000000000000000, 0.000000000000000000, -18.00000000000000000 ) ) ;
#874 = VECTOR ( 'NONE', #859, 1000.000000000000000 ) ;
#875 = LINE ( 'NONE', #1186, #617 ) ;
#876 = AXIS2_PLACEMENT_3D ( 'NONE', #999, #692, #975 ) ;
#877 = CARTESIAN_POINT ( 'NONE',  ( 36.99999999999999289, 5.999999999999998224, -32.00000000000000000 ) ) ;
#878 = VECTOR ( 'NONE', #1165, 1000.000000000000000 ) ;
#879 = ORIENTED_EDGE ( 'NONE', *, *, #209, .F. ) ;
#880 = CARTESIAN_POINT ( 'NONE',  ( 0.000000000000000000, 0.000000000000000000, 0.000000000000000000 ) ) ;
#881 = CARTESIAN_POINT ( 'NONE',  ( 43.00000000000000000, -4.347496136973103281E-15, -35.50000000000000000 ) ) ;
#882 = ADVANCED_FACE ( 'NONE', ( #232 ), #649, .T. ) ;
#883 = PLANE ( 'NONE',  #226 ) ;
#884 = CARTESIAN_POINT ( 'NONE',  ( 7.393396155203268982, 11.58968154951944385, -12.45564655881584315 ) ) ;
#885 = FACE_OUTER_BOUND ( 'NONE', #235, .T. ) ;
#886 = VERTEX_POINT ( 'NONE', #1076 ) ;
#887 = CARTESIAN_POINT ( 'NONE',  ( 36.50000000000000000, 5.000000000000000000, -7.000000000000002665 ) ) ;
#888 = DIRECTION ( 'NONE',  ( 1.000000000000000000, -0.000000000000000000, 0.000000000000000000 ) ) ;
#889 = EDGE_CURVE ( 'NONE', #626, #222, #1184, .T. ) ;
#890 = CARTESIAN_POINT ( 'NONE',  ( 6.500000000000000888, 0.000000000000000000, -4.999999999999997335 ) ) ;
#891 = ORIENTED_EDGE ( 'NONE', *, *, #209, .T. ) ;
#892 = DIRECTION ( 'NONE',  ( 0.000000000000000000, -1.000000000000000000, 0.000000000000000000 ) ) ;
#893 = ORIENTED_EDGE ( 'NONE', *, *, #485, .F. ) ;
#894 = CARTESIAN_POINT ( 'NONE',  ( 0.000000000000000000, 27.43094833523408127, -23.82686767156170049 ) ) ;
#895 = DIRECTION ( 'NONE',  ( -0.000000000000000000, -0.000000000000000000, 1.000000000000000000 ) ) ;
#896 = PLANE ( 'NONE',  #202 ) ;
#897 = FACE_BOUND ( 'NONE', #1281, .T. ) ;
#898 = ORIENTED_EDGE ( 'NONE', *, *, #520, .F. ) ;
#899 = CIRCLE ( 'NONE', #201, 6.000000000000005329 ) ;
#900 = DIRECTION ( 'NONE',  ( -1.000000000000000000, -0.000000000000000000, -0.000000000000000000 ) ) ;
#901 = CARTESIAN_POINT ( 'NONE',  ( 8.000000000000001776, 11.50000000000000355, -12.00000000000001776 ) ) ;
#902 = CARTESIAN_POINT ( 'NONE',  ( 0.000000000000000000, 0.000000000000000000, -2.999999999999999112 ) ) ;
#903 = ORIENTED_EDGE ( 'NONE', *, *, #963, .F. ) ;
#904 = CYLINDRICAL_SURFACE ( 'NONE', #510, 2.000000000000003109 ) ;
#905 = EDGE_LOOP ( 'NONE', ( #10, #1120, #42, #231 ) ) ;
#906 = EDGE_CURVE ( 'NONE', #302, #1041, #58, .T. ) ;
#907 = FACE_BOUND ( 'NONE', #540, .T. ) ;
#908 = LINE ( 'NONE', #712, #378 ) ;
#909 = CARTESIAN_POINT ( 'NONE',  ( 6.070804635983888531, 12.91132765660164949, -14.89644207899802808 ) ) ;
#910 = VERTEX_POINT ( 'NONE', #472 ) ;
#911 = CC_DESIGN_PERSON_AND_ORGANIZATION_ASSIGNMENT ( #229, #546, ( #720 ) ) ;
#912 = LINE ( 'NONE', #1134, #486 ) ;
#913 = EDGE_CURVE ( 'NONE', #405, #870, #62, .T. ) ;
#914 = LINE ( 'NONE', #717, #1031 ) ;
#915 = CYLINDRICAL_SURFACE ( 'NONE', #1050, 2.000000000000001776 ) ;
#916 = ORIENTED_EDGE ( 'NONE', *, *, #1285, .T. ) ;
#917 = VECTOR ( 'NONE', #362, 1000.000000000000000 ) ;
#918 = ORIENTED_EDGE ( 'NONE', *, *, #1188, .F. ) ;
#919 = VECTOR ( 'NONE', #594, 1000.000000000000000 ) ;
#920 = DIRECTION ( 'NONE',  ( 0.000000000000000000, -0.000000000000000000, -1.000000000000000000 ) ) ;
#921 = CARTESIAN_POINT ( 'NONE',  ( 6.500000000000000888, 0.000000000000000000, -4.999999999999997335 ) ) ;
#922 = EDGE_CURVE ( 'NONE', #627, #313, #352, .T. ) ;
#923 = FACE_OUTER_BOUND ( 'NONE', #1020, .T. ) ;
#924 = ORIENTED_EDGE ( 'NONE', *, *, #971, .F. ) ;
#925 = ORIENTED_EDGE ( 'NONE', *, *, #1271, .F. ) ;
#926 = DIRECTION ( 'NONE',  ( 0.000000000000000000, 0.000000000000000000, 1.000000000000000000 ) ) ;
#927 = CARTESIAN_POINT ( 'NONE',  ( 0.000000000000000000, 26.00000000000000355, -15.99999999999999645 ) ) ;
#928 = CARTESIAN_POINT ( 'NONE',  ( 6.000000000000001776, 13.19014014637960486, -15.17214668456681359 ) ) ;
#929 = CC_DESIGN_PERSON_AND_ORGANIZATION_ASSIGNMENT ( #424, #1054, ( #1108 ) ) ;
#930 = EDGE_LOOP ( 'NONE', ( #425, #710, #1056, #452 ) ) ;
#931 = ORIENTED_EDGE ( 'NONE', *, *, #115, .F. ) ;
#932 = DIRECTION ( 'NONE',  ( 0.000000000000000000, 0.000000000000000000, -1.000000000000000000 ) ) ;
#933 = CARTESIAN_POINT ( 'NONE',  ( 43.00000000000000000, 4.999999999999999112, -12.00000000000000000 ) ) ;
#934 = PERSON_AND_ORGANIZATION_ROLE ( 'classification_officer' ) ;
#935 = ORIENTED_EDGE ( 'NONE', *, *, #1163, .T. ) ;
#936 = ORIENTED_EDGE ( 'NONE', *, *, #603, .F. ) ;
#937 = CIRCLE ( 'NONE', #11, 2.000000000000001776 ) ;
#938 = CARTESIAN_POINT ( 'NONE',  ( 22.00000000000000355, 0.000000000000000000, -4.999999999999997335 ) ) ;
#939 = CIRCLE ( 'NONE', #702, 2.000000000000005329 ) ;
#940 = DIRECTION ( 'NONE',  ( -1.000000000000000000, -0.000000000000000000, -0.000000000000000000 ) ) ;
#941 = VERTEX_POINT ( 'NONE', #768 ) ;
#942 = ORIENTED_EDGE ( 'NONE', *, *, #1251, .T. ) ;
#943 = EDGE_CURVE ( 'NONE', #740, #836, #156, .T. ) ;
#944 = DIRECTION ( 'NONE',  ( 0.000000000000000000, -0.4922279792746119820, -0.8704663212435229669 ) ) ;
#945 = CARTESIAN_POINT ( 'NONE',  ( 2.999999999999999112, 0.000000000000000000, -2.168404344971008868E-16 ) ) ;
#946 = CALENDAR_DATE ( 2024, 26, 9 ) ;
#947 = ORIENTED_EDGE ( 'NONE', *, *, #799, .T. ) ;
#948 = VERTEX_POINT ( 'NONE', #374 ) ;
#949 = CARTESIAN_POINT ( 'NONE',  ( 2.999999999999999112, 0.000000000000000000, -2.168404344971008868E-16 ) ) ;
#950 = EDGE_CURVE ( 'NONE', #641, #431, #990, .T. ) ;
#951 = DIRECTION ( 'NONE',  ( 0.000000000000000000, 1.074707619957392142E-14, 1.000000000000000000 ) ) ;
#952 = CARTESIAN_POINT ( 'NONE',  ( 6.500000000000000888, 5.000000000000000000, -6.999999999999997335 ) ) ;
#953 = VERTEX_POINT ( 'NONE', #1199 ) ;
#954 = DIRECTION ( 'NONE',  ( -1.000000000000000000, -0.000000000000000000, -0.000000000000000000 ) ) ;
#955 = VERTEX_POINT ( 'NONE', #978 ) ;
#956 = AXIS2_PLACEMENT_3D ( 'NONE', #1321, #188, #398 ) ;
#957 = CARTESIAN_POINT ( 'NONE',  ( 22.00000000000000355, 5.000000000000000000, -7.000000000000000888 ) ) ;
#958 = AXIS2_PLACEMENT_3D ( 'NONE', #549, #954, #564 ) ;
#959 = AXIS2_PLACEMENT_3D ( 'NONE', #177, #1237, #499 ) ;
#960 = CALENDAR_DATE ( 2024, 26, 9 ) ;
#961 = AXIS2_PLACEMENT_3D ( 'NONE', #1295, #686, #1101 ) ;
#962 = ORIENTED_EDGE ( 'NONE', *, *, #1253, .F. ) ;
#963 = EDGE_CURVE ( 'NONE', #1, #463, #162, .T. ) ;
#964 = AXIS2_PLACEMENT_3D ( 'NONE', #1293, #1170, #987 ) ;
#965 = EDGE_LOOP ( 'NONE', ( #774, #632, #1330, #808 ) ) ;
#966 = LINE ( 'NONE', #1070, #1220 ) ;
#967 = ORIENTED_EDGE ( 'NONE', *, *, #22, .F. ) ;
#968 = LINE ( 'NONE', #852, #533 ) ;
#969 = VERTEX_POINT ( 'NONE', #149 ) ;
#970 = DIRECTION ( 'NONE',  ( -0.000000000000000000, 1.000000000000000000, -0.000000000000000000 ) ) ;
#971 = EDGE_CURVE ( 'NONE', #111, #820, #966, .T. ) ;
#972 = ORIENTED_EDGE ( 'NONE', *, *, #327, .F. ) ;
#973 = CARTESIAN_POINT ( 'NONE',  ( 43.00000000000000000, 3.046632124352323778, -37.22279792746113714 ) ) ;
#974 = CARTESIAN_POINT ( 'NONE',  ( 43.00000000000000000, 26.00000000000000355, -15.99999999999999645 ) ) ;
#975 = DIRECTION ( 'NONE',  ( 0.000000000000000000, 0.000000000000000000, 1.000000000000000000 ) ) ;
#976 = DIRECTION ( 'NONE',  ( -0.000000000000000000, 1.000000000000000000, -0.000000000000000000 ) ) ;
#977 = ORIENTED_EDGE ( 'NONE', *, *, #760, .F. ) ;
#978 = CARTESIAN_POINT ( 'NONE',  ( 5.999999999999998224, 13.50000000000000355, -15.41631552976797614 ) ) ;
#979 = EDGE_CURVE ( 'NONE', #508, #145, #810, .T. ) ;
#980 = DIRECTION ( 'NONE',  ( -1.000000000000000000, -0.000000000000000000, -0.000000000000000000 ) ) ;
#981 = AXIS2_PLACEMENT_3D ( 'NONE', #271, #1205, #383 ) ;
#982 = LINE ( 'NONE', #269, #1052 ) ;
#983 = VECTOR ( 'NONE', #815, 1000.000000000000000 ) ;
#984 = LINE ( 'NONE', #1204, #1171 ) ;
#985 = PLANE ( 'NONE',  #679 ) ;
#986 = ADVANCED_FACE ( 'NONE', ( #142 ), #654, .T. ) ;
#987 = DIRECTION ( 'NONE',  ( 0.000000000000000000, 0.000000000000000000, -1.000000000000000000 ) ) ;
#988 = LINE ( 'NONE', #171, #266 ) ;
#989 = CARTESIAN_POINT ( 'NONE',  ( 6.000000000000000888, 13.50000000000000178, -32.12346503000440379 ) ) ;
#990 = LINE ( 'NONE', #252, #223 ) ;
#991 = ORIENTED_EDGE ( 'NONE', *, *, #392, .T. ) ;
#992 = CARTESIAN_POINT ( 'NONE',  ( 37.00000000000002132, 5.999999999999998224, -34.00000000000000000 ) ) ;
#993 = FACE_OUTER_BOUND ( 'NONE', #701, .T. ) ;
#994 = EDGE_CURVE ( 'NONE', #1149, #886, #265, .T. ) ;
#995 = CARTESIAN_POINT ( 'NONE',  ( 43.00000000000000000, 34.05221498361325416, -50.78887854801894264 ) ) ;
#996 = CARTESIAN_POINT ( 'NONE',  ( 43.00000000000000000, 0.000000000000000000, -17.99999999999997513 ) ) ;
#997 = ORIENTED_EDGE ( 'NONE', *, *, #950, .T. ) ;
#998 = CARTESIAN_POINT ( 'NONE',  ( 43.00000000000000000, 34.05221498361325416, -50.78887854801894264 ) ) ;
#999 = CARTESIAN_POINT ( 'NONE',  ( 30.00000000000000000, 5.999999999999998224, -32.00000000000000000 ) ) ;
#1000 = AXIS2_PLACEMENT_3D ( 'NONE', #438, #34, #932 ) ;
#1001 = CARTESIAN_POINT ( 'NONE',  ( 12.99999999999999645, -15.21060968079681075, -26.89876238288274735 ) ) ;
#1002 = ADVANCED_FACE ( 'NONE', ( #885 ), #367, .F. ) ;
#1003 = CIRCLE ( 'NONE', #423, 6.000000000000005329 ) ;
#1004 = AXIS2_PLACEMENT_3D ( 'NONE', #697, #1009, #706 ) ;
#1005 = CARTESIAN_POINT ( 'NONE',  ( 39.99999999999997868, 0.000000000000000000, 0.000000000000000000 ) ) ;
#1006 = ORIENTED_EDGE ( 'NONE', *, *, #1201, .T. ) ;
#1007 = AXIS2_PLACEMENT_3D ( 'NONE', #64, #1094, #794 ) ;
#1008 = FACE_OUTER_BOUND ( 'NONE', #75, .T. ) ;
#1009 = DIRECTION ( 'NONE',  ( -1.000000000000000000, 0.000000000000000000, 0.000000000000000000 ) ) ;
#1010 = PLANE ( 'NONE',  #789 ) ;
#1011 = ORIENTED_EDGE ( 'NONE', *, *, #339, .F. ) ;
#1012 = ORIENTED_EDGE ( 'NONE', *, *, #468, .T. ) ;
#1013 = EDGE_CURVE ( 'NONE', #863, #302, #1168, .T. ) ;
#1014 = FACE_OUTER_BOUND ( 'NONE', #174, .T. ) ;
#1015 = ORIENTED_EDGE ( 'NONE', *, *, #535, .F. ) ;
#1016 = ADVANCED_FACE ( 'NONE', ( #1087 ), #160, .F. ) ;
#1017 = CARTESIAN_POINT ( 'NONE',  ( 43.00000000000000000, 0.000000000000000000, 0.000000000000000000 ) ) ;
#1018 = LINE ( 'NONE', #607, #1332 ) ;
#1019 = DIRECTION ( 'NONE',  ( 0.000000000000000000, 0.000000000000000000, 1.000000000000000000 ) ) ;
#1020 = EDGE_LOOP ( 'NONE', ( #1069, #501, #87, #1261, #597 ) ) ;
#1021 = ORIENTED_EDGE ( 'NONE', *, *, #799, .F. ) ;
#1022 = ADVANCED_FACE ( 'NONE', ( #781, #243 ), #985, .F. ) ;
#1023 = DIRECTION ( 'NONE',  ( -0.000000000000000000, 1.000000000000000000, -0.000000000000000000 ) ) ;
#1024 = LINE ( 'NONE', #415, #403 ) ;
#1025 = DIRECTION ( 'NONE',  ( -0.7071067811865474617, -5.110978055611246511E-17, -0.7071067811865474617 ) ) ;
#1026 = EDGE_LOOP ( 'NONE', ( #719, #918 ) ) ;
#1027 = AXIS2_PLACEMENT_3D ( 'NONE', #785, #773, #360 ) ;
#1028 = ORIENTED_EDGE ( 'NONE', *, *, #788, .F. ) ;
#1029 = AXIS2_PLACEMENT_3D ( 'NONE', #1203, #248, #664 ) ;
#1030 = CARTESIAN_POINT ( 'NONE',  ( 6.500000000000000888, 0.000000000000000000, -6.999999999999997335 ) ) ;
#1031 = VECTOR ( 'NONE', #401, 1000.000000000000000 ) ;
#1032 = EDGE_CURVE ( 'NONE', #1103, #667, #168, .T. ) ;
#1033 = DIRECTION ( 'NONE',  ( -1.000000000000000000, -0.000000000000000000, -0.000000000000000000 ) ) ;
#1034 = DIRECTION ( 'NONE',  ( 0.000000000000000000, 0.000000000000000000, -1.000000000000000000 ) ) ;
#1035 = ORIENTED_EDGE ( 'NONE', *, *, #714, .T. ) ;
#1036 = ORIENTED_EDGE ( 'NONE', *, *, #161, .T. ) ;
#1037 = DIRECTION ( 'NONE',  ( -0.000000000000000000, 1.000000000000000000, -0.000000000000000000 ) ) ;
#1038 = CARTESIAN_POINT ( 'NONE',  ( 43.00000000000000000, 11.50000000000000355, -12.00000000000001776 ) ) ;
#1039 = COORDINATED_UNIVERSAL_TIME_OFFSET ( 9, 0, .AHEAD. ) ;
#1040 = EDGE_LOOP ( 'NONE', ( #1256, #1021, #1055, #1118 ) ) ;
#1041 = VERTEX_POINT ( 'NONE', #798 ) ;
#1042 = CARTESIAN_POINT ( 'NONE',  ( 37.00000000000002132, 5.999999999999998224, -32.00000000000000000 ) ) ;
#1043 = DIRECTION ( 'NONE',  ( -0.000000000000000000, -1.000000000000000000, 0.000000000000000000 ) ) ;
#1044 = APPROVAL_DATE_TIME ( #18, #1057 ) ;
#1045 = EDGE_LOOP ( 'NONE', ( #395, #368, #258, #977 ) ) ;
#1046 = EDGE_CURVE ( 'NONE', #870, #948, #388, .T. ) ;
#1047 = ORIENTED_EDGE ( 'NONE', *, *, #913, .F. ) ;
#1048 = AXIS2_PLACEMENT_3D ( 'NONE', #106, #926, #391 ) ;
#1049 = CARTESIAN_POINT ( 'NONE',  ( 43.00000000000000000, 10.98512153638723099, -35.33894643075450404 ) ) ;
#1050 = AXIS2_PLACEMENT_3D ( 'NONE', #1323, #280, #698 ) ;
#1051 = VECTOR ( 'NONE', #476, 1000.000000000000000 ) ;
#1052 = VECTOR ( 'NONE', #255, 1000.000000000000000 ) ;
#1053 = FACE_OUTER_BOUND ( 'NONE', #63, .T. ) ;
#1054 = PERSON_AND_ORGANIZATION_ROLE ( 'creator' ) ;
#1055 = ORIENTED_EDGE ( 'NONE', *, *, #218, .T. ) ;
#1056 = ORIENTED_EDGE ( 'NONE', *, *, #1100, .T. ) ;
#1057 = APPROVAL ( #625, 'UNSPECIFIED' ) ;
#1058 = DIRECTION ( 'NONE',  ( 0.7071067811865479058, 0.000000000000000000, -0.7071067811865472397 ) ) ;
#1059 = ADVANCED_FACE ( 'NONE', ( #689 ), #904, .F. ) ;
#1060 = CARTESIAN_POINT ( 'NONE',  ( 0.000000000000000000, 32.00000000000000000, 0.000000000000000000 ) ) ;
#1061 = COORDINATED_UNIVERSAL_TIME_OFFSET ( 9, 0, .AHEAD. ) ;
#1062 = ORIENTED_EDGE ( 'NONE', *, *, #372, .F. ) ;
#1063 = ORIENTED_EDGE ( 'NONE', *, *, #1189, .T. ) ;
#1064 = DIRECTION ( 'NONE',  ( 0.000000000000000000, 0.000000000000000000, 1.000000000000000000 ) ) ;
#1065 = ADVANCED_FACE ( 'NONE', ( #173, #588, #1104, #897 ), #1211, .T. ) ;
#1066 = CARTESIAN_POINT ( 'NONE',  ( 22.00000000000000355, 5.000000000000000000, -4.999999999999997335 ) ) ;
#1067 = DIRECTION ( 'NONE',  ( 1.000000000000000000, 0.000000000000000000, 0.000000000000000000 ) ) ;
#1068 = DIRECTION ( 'NONE',  ( 0.000000000000000000, 0.000000000000000000, 1.000000000000000000 ) ) ;
#1069 = ORIENTED_EDGE ( 'NONE', *, *, #714, .F. ) ;
#1070 = CARTESIAN_POINT ( 'NONE',  ( 40.70700636942672901, 0.000000000000000000, -22.20382165605096958 ) ) ;
#1071 = CIRCLE ( 'NONE', #373, 2.000000000000003109 ) ;
#1072 = FACE_BOUND ( 'NONE', #135, .T. ) ;
#1073 = EDGE_CURVE ( 'NONE', #820, #338, #487, .T. ) ;
#1074 = ORIENTED_EDGE ( 'NONE', *, *, #864, .T. ) ;
#1075 = ORIENTED_EDGE ( 'NONE', *, *, #828, .T. ) ;
#1076 = CARTESIAN_POINT ( 'NONE',  ( 5.999999999999998224, 27.43094833523408127, -23.82686767156170049 ) ) ;
#1077 = CARTESIAN_POINT ( 'NONE',  ( 43.00000000000000000, -4.347496136973103281E-15, -35.50000000000000000 ) ) ;
#1078 = DIRECTION ( 'NONE',  ( 0.000000000000000000, -1.000000000000000000, 0.000000000000000000 ) ) ;
#1079 = CARTESIAN_POINT ( 'NONE',  ( 12.99999999999999822, 5.999999999999998224, -32.00000000000000000 ) ) ;
#1080 = ORIENTED_EDGE ( 'NONE', *, *, #1157, .T. ) ;
#1081 = DIRECTION ( 'NONE',  ( 0.000000000000000000, 0.000000000000000000, -1.000000000000000000 ) ) ;
#1082 = CARTESIAN_POINT ( 'NONE',  ( 6.500000000000000888, 0.000000000000000000, -6.999999999999997335 ) ) ;
#1083 = ORIENTED_EDGE ( 'NONE', *, *, #544, .F. ) ;
#1084 = CARTESIAN_POINT ( 'NONE',  ( 43.00000000000000000, 4.999999999999999112, -12.00000000000000000 ) ) ;
#1085 = CARTESIAN_POINT ( 'NONE',  ( 5.999999999999998224, 26.00000000000000355, -18.00000000000000355 ) ) ;
#1086 = EDGE_CURVE ( 'NONE', #715, #1112, #74, .T. ) ;
#1087 = FACE_OUTER_BOUND ( 'NONE', #516, .T. ) ;
#1088 = FACE_OUTER_BOUND ( 'NONE', #217, .T. ) ;
#1089 = CARTESIAN_POINT ( 'NONE',  ( 0.000000000000000000, 9.036162044618619049, -40.60973448951648379 ) ) ;
#1090 = CARTESIAN_POINT ( 'NONE',  ( 6.960044322108488224, 11.77563820283844542, -13.07965848428574596 ) ) ;
#1091 = CIRCLE ( 'NONE', #856, 2.000000000000000000 ) ;
#1092 = CARTESIAN_POINT ( 'NONE',  ( 43.00000000000000000, 26.00000000000000355, -18.00000000000000355 ) ) ;
#1093 = EDGE_CURVE ( 'NONE', #870, #843, #1114, .T. ) ;
#1094 = DIRECTION ( 'NONE',  ( -0.000000000000000000, 1.000000000000000000, -0.000000000000000000 ) ) ;
#1095 = CARTESIAN_POINT ( 'NONE',  ( 8.000000000000000000, 11.50000000000000355, -12.00000000000000178 ) ) ;
#1096 = DIRECTION ( 'NONE',  ( 0.000000000000000000, -1.000000000000000000, 0.000000000000000000 ) ) ;
#1097 = EDGE_LOOP ( 'NONE', ( #947, #615 ) ) ;
#1098 = DIRECTION ( 'NONE',  ( -0.000000000000000000, 1.000000000000000000, -0.000000000000000000 ) ) ;
#1099 = DIRECTION ( 'NONE',  ( 0.000000000000000000, 0.000000000000000000, -1.000000000000000000 ) ) ;
#1100 = EDGE_CURVE ( 'NONE', #842, #910, #78, .T. ) ;
#1101 = DIRECTION ( 'NONE',  ( 0.000000000000000000, 0.000000000000000000, 1.000000000000000000 ) ) ;
#1102 = DIRECTION ( 'NONE',  ( 0.000000000000000000, 0.000000000000000000, 1.000000000000000000 ) ) ;
#1103 = VERTEX_POINT ( 'NONE', #495 ) ;
#1104 = FACE_BOUND ( 'NONE', #826, .T. ) ;
#1105 = ORIENTED_EDGE ( 'NONE', *, *, #1046, .F. ) ;
#1106 = DIRECTION ( 'NONE',  ( 1.734723475976807094E-16, 0.000000000000000000, 1.000000000000000000 ) ) ;
#1107 = DIRECTION ( 'NONE',  ( -1.000000000000000000, -0.000000000000000000, -0.000000000000000000 ) ) ;
#1108 = PRODUCT_DEFINITION ( 'UNKNOWN', '', #720, #1230 ) ;
#1109 = VECTOR ( 'NONE', #980, 1000.000000000000000 ) ;
#1110 = DIRECTION ( 'NONE',  ( 1.249660023206270001E-16, 1.074707619957392142E-14, 1.000000000000000000 ) ) ;
#1111 = ADVANCED_FACE ( 'NONE', ( #1014 ), #88, .F. ) ;
#1112 = VERTEX_POINT ( 'NONE', #172 ) ;
#1113 = AXIS2_PLACEMENT_3D ( 'NONE', #1282, #353, #571 ) ;
#1114 = LINE ( 'NONE', #1005, #1151 ) ;
#1115 = LINE ( 'NONE', #1017, #56 ) ;
#1116 = LINE ( 'NONE', #498, #426 ) ;
#1117 = CARTESIAN_POINT ( 'NONE',  ( 43.00000000000000000, 16.85508969826349102, -11.15857494074755962 ) ) ;
#1118 = ORIENTED_EDGE ( 'NONE', *, *, #788, .T. ) ;
#1119 = ADVANCED_FACE ( 'NONE', ( #52 ), #666, .F. ) ;
#1120 = ORIENTED_EDGE ( 'NONE', *, *, #247, .T. ) ;
#1121 = DIRECTION ( 'NONE',  ( -1.000000000000000000, -0.000000000000000000, -0.000000000000000000 ) ) ;
#1122 = DIRECTION ( 'NONE',  ( -0.000000000000000000, 1.000000000000000000, -0.000000000000000000 ) ) ;
#1123 =( NAMED_UNIT ( * ) PLANE_ANGLE_UNIT ( ) SI_UNIT ( $, .RADIAN. ) );
#1124 = ORIENTED_EDGE ( 'NONE', *, *, #327, .T. ) ;
#1125 = ORIENTED_EDGE ( 'NONE', *, *, #115, .T. ) ;
#1126 = EDGE_CURVE ( 'NONE', #145, #508, #242, .T. ) ;
#1127 = CARTESIAN_POINT ( 'NONE',  ( 1.500000000000000000, 0.000000000000000000, -1.500000000000000000 ) ) ;
#1128 = CARTESIAN_POINT ( 'NONE',  ( 36.50000000000000000, 0.000000000000000000, -5.000000000000000000 ) ) ;
#1129 = ORIENTED_EDGE ( 'NONE', *, *, #15, .T. ) ;
#1130 = AXIS2_PLACEMENT_3D ( 'NONE', #599, #900, #1213 ) ;
#1131 = VECTOR ( 'NONE', #68, 1000.000000000000000 ) ;
#1132 = CLOSED_SHELL ( 'NONE', ( #272, #1016, #665, #1119, #13, #1059, #805, #108, #857, #722, #390, #1262, #1206, #357, #1181, #772, #585, #690, #1022, #731, #739, #648, #169, #1338, #871, #526, #882, #986, #451, #1111, #249, #1065, #624, #428, #192, #1002, #1243 ) ) ;
#1133 = ORIENTED_EDGE ( 'NONE', *, *, #477, .F. ) ;
#1134 = CARTESIAN_POINT ( 'NONE',  ( 40.70700636942672901, 11.50000000000000355, -22.20382165605096958 ) ) ;
#1135 = CARTESIAN_POINT ( 'NONE',  ( 6.000000000000000888, 13.50000000000000178, -32.12346503000440379 ) ) ;
#1136 = CALENDAR_DATE ( 2024, 26, 9 ) ;
#1137 = ORIENTED_EDGE ( 'NONE', *, *, #65, .F. ) ;
#1138 = EDGE_LOOP ( 'NONE', ( #1319, #1129, #728, #534, #481, #532, #89, #734, #140, #148 ) ) ;
#1139 = DIRECTION ( 'NONE',  ( 0.000000000000000000, 0.000000000000000000, -1.000000000000000000 ) ) ;
#1140 = LINE ( 'NONE', #238, #661 ) ;
#1141 = EDGE_CURVE ( 'NONE', #1219, #521, #67, .T. ) ;
#1142 = APPROVAL_STATUS ( 'not_yet_approved' ) ;
#1143 = ORIENTED_EDGE ( 'NONE', *, *, #1086, .T. ) ;
#1144 = EDGE_LOOP ( 'NONE', ( #803, #329 ) ) ;
#1145 = LINE ( 'NONE', #1049, #1240 ) ;
#1146 = FACE_BOUND ( 'NONE', #678, .T. ) ;
#1147 = EDGE_CURVE ( 'NONE', #116, #641, #1003, .T. ) ;
#1148 = ORIENTED_EDGE ( 'NONE', *, *, #610, .F. ) ;
#1149 = VERTEX_POINT ( 'NONE', #989 ) ;
#1150 = SECURITY_CLASSIFICATION ( '', '', #835 ) ;
#1151 = VECTOR ( 'NONE', #1313, 1000.000000000000000 ) ;
#1152 = FACE_OUTER_BOUND ( 'NONE', #207, .T. ) ;
#1153 = AXIS2_PLACEMENT_3D ( 'NONE', #806, #393, #505 ) ;
#1154 = CARTESIAN_POINT ( 'NONE',  ( 36.99999999999999289, 34.05221498361325416, -50.78887854801894264 ) ) ;
#1155 = ORIENTED_EDGE ( 'NONE', *, *, #779, .T. ) ;
#1156 = EDGE_LOOP ( 'NONE', ( #213, #12, #891, #754, #1080 ) ) ;
#1157 = EDGE_CURVE ( 'NONE', #102, #1041, #984, .T. ) ;
#1158 = DIRECTION ( 'NONE',  ( 0.000000000000000000, 0.8704663212435229669, -0.4922279792746119820 ) ) ;
#1159 = CARTESIAN_POINT ( 'NONE',  ( 7.827953826204208099, 11.50562793079667401, -34.58878731194324274 ) ) ;
#1160 = PERSON_AND_ORGANIZATION_ROLE ( 'design_owner' ) ;
#1161 = VERTEX_POINT ( 'NONE', #73 ) ;
#1162 = VERTEX_POINT ( 'NONE', #262 ) ;
#1163 = EDGE_CURVE ( 'NONE', #641, #1200, #687, .T. ) ;
#1164 = DIRECTION ( 'NONE',  ( 1.445602896647339656E-16, -1.000000000000000000, 1.734723475976807686E-15 ) ) ;
#1165 = DIRECTION ( 'NONE',  ( 1.000000000000000000, 0.000000000000000000, -0.000000000000000000 ) ) ;
#1166 = ORIENTED_EDGE ( 'NONE', *, *, #814, .F. ) ;
#1167 = EDGE_LOOP ( 'NONE', ( #110, #1325, #827, #925, #605, #120 ) ) ;
#1168 = LINE ( 'NONE', #674, #917 ) ;
#1169 = VECTOR ( 'NONE', #675, 1000.000000000000000 ) ;
#1170 = DIRECTION ( 'NONE',  ( 1.000000000000000000, -0.000000000000000000, 0.000000000000000000 ) ) ;
#1171 = VECTOR ( 'NONE', #677, 1000.000000000000000 ) ;
#1172 = AXIS2_PLACEMENT_3D ( 'NONE', #450, #342, #757 ) ;
#1173 = AXIS2_PLACEMENT_3D ( 'NONE', #1128, #107, #200 ) ;
#1174 = ORIENTED_EDGE ( 'NONE', *, *, #642, .F. ) ;
#1175 = VECTOR ( 'NONE', #606, 1000.000000000000000 ) ;
#1176 = CARTESIAN_POINT ( 'NONE',  ( 8.000000000000000000, 11.50000000000000355, -12.00000000000000178 ) ) ;
#1177 = ORIENTED_EDGE ( 'NONE', *, *, #434, .F. ) ;
#1178 = DIRECTION ( 'NONE',  ( 0.000000000000000000, 7.228014483236695816E-17, 1.000000000000000000 ) ) ;
#1179 = CARTESIAN_POINT ( 'NONE',  ( 3.000000000000002665, 5.000000000000000000, -2.168404344971008868E-16 ) ) ;
#1180 = CARTESIAN_POINT ( 'NONE',  ( 36.50000000000000000, 5.000000000000000000, -2.999999999999996891 ) ) ;
#1181 = ADVANCED_FACE ( 'NONE', ( #1197 ), #693, .F. ) ;
#1182 = DIRECTION ( 'NONE',  ( 0.000000000000000000, 0.000000000000000000, 1.000000000000000000 ) ) ;
#1183 = ORIENTED_EDGE ( 'NONE', *, *, #779, .F. ) ;
#1184 = LINE ( 'NONE', #973, #1131 ) ;
#1185 = LINE ( 'NONE', #1077, #1169 ) ;
#1186 = CARTESIAN_POINT ( 'NONE',  ( 36.99999999999999289, 11.50000000000000355, 0.000000000000000000 ) ) ;
#1187 = DIRECTION ( 'NONE',  ( -0.000000000000000000, -1.000000000000000000, 7.228014483236695816E-17 ) ) ;
#1188 = EDGE_CURVE ( 'NONE', #555, #20, #32, .T. ) ;
#1189 = EDGE_CURVE ( 'NONE', #609, #738, #531, .T. ) ;
#1190 = DIRECTION ( 'NONE',  ( -1.000000000000000000, 0.000000000000000000, 1.734723475976807094E-16 ) ) ;
#1191 = ORIENTED_EDGE ( 'NONE', *, *, #1086, .F. ) ;
#1192 = DIRECTION ( 'NONE',  ( -1.000000000000000000, 0.000000000000000000, 0.000000000000000000 ) ) ;
#1193 = AXIS2_PLACEMENT_3D ( 'NONE', #995, #461, #381 ) ;
#1194 = AXIS2_PLACEMENT_3D ( 'NONE', #1308, #580, #1078 ) ;
#1195 = LINE ( 'NONE', #1089, #618 ) ;
#1196 = CIRCLE ( 'NONE', #959, 5.999999999999998224 ) ;
#1197 = FACE_OUTER_BOUND ( 'NONE', #965, .T. ) ;
#1198 = VECTOR ( 'NONE', #182, 1000.000000000000000 ) ;
#1199 = CARTESIAN_POINT ( 'NONE',  ( 36.50000000000000000, 0.000000000000000000, -2.999999999999996891 ) ) ;
#1200 = VERTEX_POINT ( 'NONE', #1296 ) ;
#1201 = EDGE_CURVE ( 'NONE', #20, #555, #1265, .T. ) ;
#1202 = DIRECTION ( 'NONE',  ( 1.734723475976807094E-16, 0.000000000000000000, 1.000000000000000000 ) ) ;
#1203 = CARTESIAN_POINT ( 'NONE',  ( 37.00000000000002132, 5.999999999999998224, -32.00000000000000000 ) ) ;
#1204 = CARTESIAN_POINT ( 'NONE',  ( 43.00000000000000000, 11.50000000000000355, -12.00000000000000178 ) ) ;
#1205 = DIRECTION ( 'NONE',  ( 0.000000000000000000, 1.000000000000000000, -7.228014483236695816E-17 ) ) ;
#1206 = ADVANCED_FACE ( 'NONE', ( #46, #671 ), #896, .F. ) ;
#1207 = CARTESIAN_POINT ( 'NONE',  ( 12.99999999999999467, 3.046632124352323778, -37.22279792746113714 ) ) ;
#1208 = PLANE ( 'NONE',  #1153 ) ;
#1209 =( NAMED_UNIT ( * ) SI_UNIT ( $, .STERADIAN. ) SOLID_ANGLE_UNIT ( ) );
#1210 = VERTEX_POINT ( 'NONE', #152 ) ;
#1211 = PLANE ( 'NONE',  #981 ) ;
#1212 = EDGE_LOOP ( 'NONE', ( #117, #25, #898, #1015, #7, #297 ) ) ;
#1213 = DIRECTION ( 'NONE',  ( 0.000000000000000000, 0.000000000000000000, 1.000000000000000000 ) ) ;
#1214 = CARTESIAN_POINT ( 'NONE',  ( 0.000000000000000000, 21.19565161264574371, -14.40580515651606852 ) ) ;
#1215 = EDGE_CURVE ( 'NONE', #688, #264, #939, .T. ) ;
#1216 = CIRCLE ( 'NONE', #1239, 5.999999999999998224 ) ;
#1217 = CARTESIAN_POINT ( 'NONE',  ( 1.500000000000000000, 0.000000000000000000, -1.500000000000000000 ) ) ;
#1218 = ORIENTED_EDGE ( 'NONE', *, *, #48, .T. ) ;
#1219 = VERTEX_POINT ( 'NONE', #349 ) ;
#1220 = VECTOR ( 'NONE', #662, 1000.000000000000000 ) ;
#1221 = AXIS2_PLACEMENT_3D ( 'NONE', #221, #560, #448 ) ;
#1222 = ORIENTED_EDGE ( 'NONE', *, *, #1251, .F. ) ;
#1223 = DIRECTION ( 'NONE',  ( 1.000000000000000000, -0.000000000000000000, 0.000000000000000000 ) ) ;
#1224 = CARTESIAN_POINT ( 'NONE',  ( 37.00000000000002132, 5.999999999999998224, -30.00000000000000000 ) ) ;
#1225 = LINE ( 'NONE', #608, #286 ) ;
#1226 = EDGE_CURVE ( 'NONE', #102, #955, #780, .T. ) ;
#1227 = VERTEX_POINT ( 'NONE', #93 ) ;
#1228 = ORIENTED_EDGE ( 'NONE', *, *, #906, .F. ) ;
#1229 = FACE_OUTER_BOUND ( 'NONE', #646, .T. ) ;
#1230 = DESIGN_CONTEXT ( 'detailed design', #492, 'design' ) ;
#1231 = CARTESIAN_POINT ( 'NONE',  ( 5.999999999999998224, 26.00000000000000355, -15.99999999999999645 ) ) ;
#1232 = LINE ( 'NONE', #707, #919 ) ;
#1233 = ORIENTED_EDGE ( 'NONE', *, *, #1215, .F. ) ;
#1234 = ORIENTED_EDGE ( 'NONE', *, *, #419, .T. ) ;
#1235 = CARTESIAN_POINT ( 'NONE',  ( 0.000000000000000000, 26.00000000000000355, -18.00000000000000355 ) ) ;
#1236 = CARTESIAN_POINT ( 'NONE',  ( 37.00000000000002132, 5.999999999999998224, -30.00000000000000000 ) ) ;
#1237 = DIRECTION ( 'NONE',  ( 1.000000000000000000, 1.269309860470834724E-16, 0.000000000000000000 ) ) ;
#1238 = ORIENTED_EDGE ( 'NONE', *, *, #684, .F. ) ;
#1239 = AXIS2_PLACEMENT_3D ( 'NONE', #1235, #1223, #293 ) ;
#1240 = VECTOR ( 'NONE', #126, 1000.000000000000000 ) ;
#1241 = ORIENTED_EDGE ( 'NONE', *, *, #1226, .F. ) ;
#1242 = CIRCLE ( 'NONE', #961, 1.999999999999999556 ) ;
#1243 = ADVANCED_FACE ( 'NONE', ( #613 ), #915, .F. ) ;
#1244 = PLANE ( 'NONE',  #488 ) ;
#1245 = VECTOR ( 'NONE', #1023, 1000.000000000000000 ) ;
#1246 = DIRECTION ( 'NONE',  ( 0.000000000000000000, 0.000000000000000000, 1.000000000000000000 ) ) ;
#1247 = PERSON_AND_ORGANIZATION ( #742, #511 ) ;
#1248 = VERTEX_POINT ( 'NONE', #902 ) ;
#1249 = ORIENTED_EDGE ( 'NONE', *, *, #503, .F. ) ;
#1250 = CARTESIAN_POINT ( 'NONE',  ( 29.99999999999999289, 5.999999999999998224, -34.00000000000000000 ) ) ;
#1251 = EDGE_CURVE ( 'NONE', #561, #836, #1225, .T. ) ;
#1252 = CARTESIAN_POINT ( 'NONE',  ( 6.812587921606188424, 11.86465034166032417, -34.09891781354745888 ) ) ;
#1253 = EDGE_CURVE ( 'NONE', #1248, #405, #309, .T. ) ;
#1254 = COORDINATED_UNIVERSAL_TIME_OFFSET ( 9, 0, .AHEAD. ) ;
#1255 = ORIENTED_EDGE ( 'NONE', *, *, #1141, .T. ) ;
#1256 = ORIENTED_EDGE ( 'NONE', *, *, #537, .F. ) ;
#1257 = ORIENTED_EDGE ( 'NONE', *, *, #494, .T. ) ;
#1258 = CYLINDRICAL_SURFACE ( 'NONE', #490, 2.000000000000001776 ) ;
#1259 = CARTESIAN_POINT ( 'NONE',  ( 36.99999999999999289, -4.347496136973103281E-15, -35.50000000000000000 ) ) ;
#1260 = PERSON_AND_ORGANIZATION_ROLE ( 'design_supplier' ) ;
#1261 = ORIENTED_EDGE ( 'NONE', *, *, #1157, .F. ) ;
#1262 = ADVANCED_FACE ( 'NONE', ( #4 ), #1010, .F. ) ;
#1263 = EDGE_LOOP ( 'NONE', ( #1075, #1183, #295, #26 ) ) ;
#1264 = CC_DESIGN_APPROVAL ( #54, ( #720 ) ) ;
#1265 = CIRCLE ( 'NONE', #1027, 2.000000000000001776 ) ;
#1266 = DIRECTION ( 'NONE',  ( 0.7071067811865472397, 0.000000000000000000, 0.7071067811865479058 ) ) ;
#1267 = AXIS2_PLACEMENT_3D ( 'NONE', #752, #133, #1067 ) ;
#1268 = DIRECTION ( 'NONE',  ( 8.538794311802947089E-17, -0.8704663212435229669, 0.4922279792746119820 ) ) ;
#1269 = PERSON_AND_ORGANIZATION ( #742, #511 ) ;
#1270 = ORIENTED_EDGE ( 'NONE', *, *, #1301, .T. ) ;
#1271 = EDGE_CURVE ( 'NONE', #431, #111, #101, .T. ) ;
#1272 = ORIENTED_EDGE ( 'NONE', *, *, #441, .T. ) ;
#1273 = DIRECTION ( 'NONE',  ( -1.000000000000000000, 0.000000000000000000, 0.000000000000000000 ) ) ;
#1274 = DIRECTION ( 'NONE',  ( 0.000000000000000000, 0.000000000000000000, -1.000000000000000000 ) ) ;
#1275 = APPROVAL_DATE_TIME ( #841, #72 ) ;
#1276 = FACE_OUTER_BOUND ( 'NONE', #437, .T. ) ;
#1277 = ORIENTED_EDGE ( 'NONE', *, *, #321, .T. ) ;
#1278 = DIRECTION ( 'NONE',  ( 0.000000000000000000, 0.000000000000000000, 1.000000000000000000 ) ) ;
#1279 = ORIENTED_EDGE ( 'NONE', *, *, #1126, .F. ) ;
#1280 = DIRECTION ( 'NONE',  ( 1.000000000000000000, 1.269309860470834724E-16, 0.000000000000000000 ) ) ;
#1281 = EDGE_LOOP ( 'NONE', ( #350, #647 ) ) ;
#1282 = CARTESIAN_POINT ( 'NONE',  ( 8.000000000000001776, 13.50000000000000355, -38.00002500000000794 ) ) ;
#1283 = ORIENTED_EDGE ( 'NONE', *, *, #943, .T. ) ;
#1284 = AXIS2_PLACEMENT_3D ( 'NONE', #938, #755, #314 ) ;
#1285 = EDGE_CURVE ( 'NONE', #310, #817, #400, .T. ) ;
#1286 = DIRECTION ( 'NONE',  ( -0.000000000000000000, 1.000000000000000000, -0.000000000000000000 ) ) ;
#1287 = AXIS2_PLACEMENT_3D ( 'NONE', #890, #1096, #562 ) ;
#1288 = CIRCLE ( 'NONE', #104, 27.76312667066044426 ) ;
#1289 = DIRECTION ( 'NONE',  ( 0.000000000000000000, 0.000000000000000000, 1.000000000000000000 ) ) ;
#1290 = CARTESIAN_POINT ( 'NONE',  ( 36.50000000000000000, 5.000000000000000000, -5.000000000000000000 ) ) ;
#1291 = VERTEX_POINT ( 'NONE', #86 ) ;
#1292 = DIRECTION ( 'NONE',  ( 1.249660023206270001E-16, -1.000000000000000000, 0.000000000000000000 ) ) ;
#1293 = CARTESIAN_POINT ( 'NONE',  ( 0.000000000000000000, 26.00000000000000355, -18.00000000000000355 ) ) ;
#1294 = CC_DESIGN_DATE_AND_TIME_ASSIGNMENT ( #449, #211, ( #1150 ) ) ;
#1295 = CARTESIAN_POINT ( 'NONE',  ( 6.500000000000000888, 5.000000000000000000, -4.999999999999997335 ) ) ;
#1296 = CARTESIAN_POINT ( 'NONE',  ( 30.00000000000000000, 3.046632124352323778, -37.22279792746113714 ) ) ;
#1297 = CARTESIAN_POINT ( 'NONE',  ( 13.00000000000000178, 0.000000000000000000, -2.255140518769849223E-15 ) ) ;
#1298 = DIRECTION ( 'NONE',  ( 0.000000000000000000, 0.8704663212435229669, -0.4922279792746119820 ) ) ;
#1299 = LINE ( 'NONE', #380, #331 ) ;
#1300 = CARTESIAN_POINT ( 'NONE',  ( 7.584865269383942454, 11.54245450700923037, -12.23856249556043707 ) ) ;
#1301 = EDGE_CURVE ( 'NONE', #969, #69, #205, .T. ) ;
#1302 = DIRECTION ( 'NONE',  ( 0.000000000000000000, 0.000000000000000000, -1.000000000000000000 ) ) ;
#1303 = ORIENTED_EDGE ( 'NONE', *, *, #1312, .F. ) ;
#1304 = LOCAL_TIME ( 23, 17, 23.00000000000000000, #1254 ) ;
#1305 = LINE ( 'NONE', #992, #657 ) ;
#1306 = CIRCLE ( 'NONE', #964, 5.999999999999998224 ) ;
#1307 = AXIS2_PLACEMENT_3D ( 'NONE', #43, #453, #872 ) ;
#1308 = CARTESIAN_POINT ( 'NONE',  ( 5.999999999999998224, 26.00000000000000355, -18.00000000000000355 ) ) ;
#1309 = VECTOR ( 'NONE', #3, 1000.000000000000000 ) ;
#1310 = DIRECTION ( 'NONE',  ( 0.000000000000000000, 0.000000000000000000, 1.000000000000000000 ) ) ;
#1311 = CIRCLE ( 'NONE', #285, 27.76312667066044426 ) ;
#1312 = EDGE_CURVE ( 'NONE', #886, #187, #1196, .T. ) ;
#1313 = DIRECTION ( 'NONE',  ( -0.000000000000000000, 1.000000000000000000, -0.000000000000000000 ) ) ;
#1314 = ORIENTED_EDGE ( 'NONE', *, *, #96, .F. ) ;
#1315 = CARTESIAN_POINT ( 'NONE',  ( 8.000000000000000000, 11.50000000000001066, -34.59663343302555916 ) ) ;
#1316 = LINE ( 'NONE', #670, #466 ) ;
#1317 =( LENGTH_UNIT ( ) NAMED_UNIT ( * ) SI_UNIT ( .MILLI., .METRE. ) );
#1318 = DIRECTION ( 'NONE',  ( -1.000000000000000000, -0.000000000000000000, -0.000000000000000000 ) ) ;
#1319 = ORIENTED_EDGE ( 'NONE', *, *, #1032, .T. ) ;
#1320 = EDGE_CURVE ( 'NONE', #1248, #836, #1232, .T. ) ;
#1321 = CARTESIAN_POINT ( 'NONE',  ( 43.00000000000000000, 26.00000000000000355, -18.00000000000000355 ) ) ;
#1322 = DIRECTION ( 'NONE',  ( 1.874490034809404755E-16, 1.074707619957392142E-14, 1.000000000000000000 ) ) ;
#1323 = CARTESIAN_POINT ( 'NONE',  ( 37.00000000000002132, 5.999999999999998224, -32.00000000000000000 ) ) ;
#1324 = ORIENTED_EDGE ( 'NONE', *, *, #544, .T. ) ;
#1325 = ORIENTED_EDGE ( 'NONE', *, *, #125, .T. ) ;
#1326 = LINE ( 'NONE', #386, #1245 ) ;
#1327 = EDGE_CURVE ( 'NONE', #626, #1161, #514, .T. ) ;
#1328 = CARTESIAN_POINT ( 'NONE',  ( 37.00000000000002132, 5.999999999999998224, -34.00000000000000000 ) ) ;
#1329 = CARTESIAN_POINT ( 'NONE',  ( 29.99999999999999289, 34.05221498361325416, -50.78887854801894264 ) ) ;
#1330 = ORIENTED_EDGE ( 'NONE', *, *, #684, .T. ) ;
#1331 = VECTOR ( 'NONE', #602, 1000.000000000000114 ) ;
#1332 = VECTOR ( 'NONE', #92, 999.9999999999998863 ) ;
#1333 = VERTEX_POINT ( 'NONE', #416 ) ;
#1334 = FACE_BOUND ( 'NONE', #292, .T. ) ;
#1335 = FACE_OUTER_BOUND ( 'NONE', #930, .T. ) ;
#1336 = CARTESIAN_POINT ( 'NONE',  ( 36.99999999999999289, 0.000000000000000000, 0.000000000000000000 ) ) ;
#1337 = ORIENTED_EDGE ( 'NONE', *, *, #155, .F. ) ;
#1338 = ADVANCED_FACE ( 'NONE', ( #923 ), #190, .F. ) ;
ENDSEC;
END-ISO-10303-21;
