ISO-10303-21;
HEADER;
FILE_DESCRIPTION (( 'STEP AP203' ),
    '1' );
FILE_NAME ('바디_프론트가드.STEP',
    '2024-09-26T14:17:02',
    ( '' ),
    ( '' ),
    'SwSTEP 2.0',
    'SolidWorks 2022',
    '' );
FILE_SCHEMA (( 'CONFIG_CONTROL_DESIGN' ));
ENDSEC;

DATA;
#1 = VECTOR ( 'NONE', #44, 99.99999999999998579 ) ;
#2 = EDGE_CURVE ( 'NONE', #884, #185, #136, .T. ) ;
#3 = DIRECTION ( 'NONE',  ( 0.000000000000000000, 1.000000000000000000, 0.000000000000000000 ) ) ;
#4 = VECTOR ( 'NONE', #111, 100.0000000000000000 ) ;
#5 = ORIENTED_EDGE ( 'NONE', *, *, #737, .F. ) ;
#6 = DIRECTION ( 'NONE',  ( 0.000000000000000000, 1.000000000000000000, 0.000000000000000000 ) ) ;
#7 = CARTESIAN_POINT ( 'NONE',  ( 6.938893903907228378E-16, 0.4000000000000000222, -0.3499999999999994227 ) ) ;
#8 = CARTESIAN_POINT ( 'NONE',  ( 4.467435336425034542, 0.3366442633927591577, -1.291787029099607409 ) ) ;
#9 = EDGE_LOOP ( 'NONE', ( #668, #913 ) ) ;
#10 = DIRECTION ( 'NONE',  ( 0.000000000000000000, 0.000000000000000000, -1.000000000000000000 ) ) ;
#11 = EDGE_CURVE ( 'NONE', #559, #474, #847, .T. ) ;
#12 = CIRCLE ( 'NONE', #322, 0.4500000000000028422 ) ;
#13 = CARTESIAN_POINT ( 'NONE',  ( 0.2158291244717630841, 0.3683417510564722663, -0.9087441906346188647 ) ) ;
#14 = CARTESIAN_POINT ( 'NONE',  ( 2.600000000000003642, 0.4000000000000000222, -0.4500000000000003997 ) ) ;
#15 = ORIENTED_EDGE ( 'NONE', *, *, #297, .F. ) ;
#16 = DIRECTION ( 'NONE',  ( 0.000000000000000000, 1.000000000000000000, 0.000000000000000000 ) ) ;
#17 = ORIENTED_EDGE ( 'NONE', *, *, #222, .F. ) ;
#18 = DIRECTION ( 'NONE',  ( 0.000000000000000000, 0.000000000000000000, 1.000000000000000000 ) ) ;
#19 = AXIS2_PLACEMENT_3D ( 'NONE', #48, #1098, #250 ) ;
#20 = CARTESIAN_POINT ( 'NONE',  ( 2.600000000000003642, 0.2000000000000000111, -0.5500000000000004885 ) ) ;
#21 = ORIENTED_EDGE ( 'NONE', *, *, #527, .F. ) ;
#22 = DIRECTION ( 'NONE',  ( 0.000000000000000000, 0.000000000000000000, -1.000000000000000000 ) ) ;
#23 = EDGE_LOOP ( 'NONE', ( #990, #844, #248, #871 ) ) ;
#24 = DIRECTION ( 'NONE',  ( 0.000000000000000000, 1.000000000000000000, 0.000000000000000000 ) ) ;
#25 = AXIS2_PLACEMENT_3D ( 'NONE', #922, #157, #656 ) ;
#26 = EDGE_CURVE ( 'NONE', #930, #301, #237, .T. ) ;
#27 = CARTESIAN_POINT ( 'NONE',  ( 0.3500000000000003109, 0.2000000000000000111, -0.3499999999999994227 ) ) ;
#28 = EDGE_LOOP ( 'NONE', ( #745, #663 ) ) ;
#29 = DIRECTION ( 'NONE',  ( 0.000000000000000000, 1.000000000000000000, 0.000000000000000000 ) ) ;
#30 = ORIENTED_EDGE ( 'NONE', *, *, #902, .T. ) ;
#31 = EDGE_CURVE ( 'NONE', #464, #1140, #942, .T. ) ;
#32 = DIRECTION ( 'NONE',  ( -0.000000000000000000, -1.000000000000000000, -0.000000000000000000 ) ) ;
#33 = LINE ( 'NONE', #118, #4 ) ;
#34 = ORIENTED_EDGE ( 'NONE', *, *, #1080, .F. ) ;
#35 = CYLINDRICAL_SURFACE ( 'NONE', #436, 0.3500000000000006439 ) ;
#36 = DIRECTION ( 'NONE',  ( -0.000000000000000000, -1.000000000000000000, -0.000000000000000000 ) ) ;
#37 = DIRECTION ( 'NONE',  ( -0.000000000000000000, -1.000000000000000000, -0.000000000000000000 ) ) ;
#38 = DIRECTION ( 'NONE',  ( 0.000000000000000000, 1.000000000000000000, 0.000000000000000000 ) ) ;
#39 = ORIENTED_EDGE ( 'NONE', *, *, #705, .T. ) ;
#40 = AXIS2_PLACEMENT_3D ( 'NONE', #538, #87, #158 ) ;
#41 = DIRECTION ( 'NONE',  ( -0.000000000000000000, -1.000000000000000000, -0.000000000000000000 ) ) ;
#42 = DIRECTION ( 'NONE',  ( 0.000000000000000000, 0.000000000000000000, 1.000000000000000000 ) ) ;
#43 = ORIENTED_EDGE ( 'NONE', *, *, #633, .F. ) ;
#44 = DIRECTION ( 'NONE',  ( 0.000000000000000000, -0.8944271909999170767, -0.4472135954999558183 ) ) ;
#45 = ORIENTED_EDGE ( 'NONE', *, *, #222, .T. ) ;
#46 = ADVANCED_FACE ( 'NONE', ( #1018 ), #647, .F. ) ;
#47 = AXIS2_PLACEMENT_3D ( 'NONE', #992, #144, #437 ) ;
#48 = CARTESIAN_POINT ( 'NONE',  ( 0.3500000000000006439, 0.2000000000000000111, -1.249999999999999334 ) ) ;
#49 = DIRECTION ( 'NONE',  ( -0.000000000000000000, -1.000000000000000000, -0.000000000000000000 ) ) ;
#50 = EDGE_LOOP ( 'NONE', ( #526, #966 ) ) ;
#51 = ORIENTED_EDGE ( 'NONE', *, *, #331, .T. ) ;
#52 = CARTESIAN_POINT ( 'NONE',  ( 0.6902097883097285669, 0.4000000000000000222, -1.332202797630313462 ) ) ;
#53 = AXIS2_PLACEMENT_3D ( 'NONE', #283, #839, #834 ) ;
#54 = ORIENTED_EDGE ( 'NONE', *, *, #297, .T. ) ;
#55 = APPLICATION_PROTOCOL_DEFINITION ( 'international standard', 'config_control_design', 1994, #572 ) ;
#56 = ORIENTED_EDGE ( 'NONE', *, *, #709, .T. ) ;
#57 = CIRCLE ( 'NONE', #962, 0.1500000000000004663 ) ;
#58 = CARTESIAN_POINT ( 'NONE',  ( 4.850000000000000533, 0.000000000000000000, -0.3500000000000001998 ) ) ;
#59 = ADVANCED_FACE ( 'NONE', ( #836 ), #1025, .F. ) ;
#60 = ORGANIZATION ( 'UNSPECIFIED', 'UNSPECIFIED', '' ) ;
#61 = VERTEX_POINT ( 'NONE', #367 ) ;
#62 = ORIENTED_EDGE ( 'NONE', *, *, #385, .F. ) ;
#63 = DIRECTION ( 'NONE',  ( 0.000000000000000000, 0.000000000000000000, -1.000000000000000000 ) ) ;
#64 = DIRECTION ( 'NONE',  ( 1.000000000000000000, -0.000000000000000000, 0.000000000000000000 ) ) ;
#65 = COORDINATED_UNIVERSAL_TIME_OFFSET ( 9, 0, .AHEAD. ) ;
#66 = AXIS2_PLACEMENT_3D ( 'NONE', #706, #37, #892 ) ;
#67 = ORIENTED_EDGE ( 'NONE', *, *, #108, .F. ) ;
#68 = DIRECTION ( 'NONE',  ( -0.000000000000000000, -1.000000000000000000, -0.000000000000000000 ) ) ;
#69 = DIRECTION ( 'NONE',  ( 0.000000000000000000, 1.000000000000000000, 0.000000000000000000 ) ) ;
#70 = AXIS2_PLACEMENT_3D ( 'NONE', #451, #467, #174 ) ;
#71 = FACE_BOUND ( 'NONE', #422, .T. ) ;
#72 = EDGE_CURVE ( 'NONE', #390, #324, #1168, .T. ) ;
#73 = ORIENTED_EDGE ( 'NONE', *, *, #808, .T. ) ;
#74 = DIRECTION ( 'NONE',  ( -0.000000000000000000, -1.000000000000000000, -0.000000000000000000 ) ) ;
#75 = CARTESIAN_POINT ( 'NONE',  ( 0.3500000000000006439, 0.4000000000000000222, -1.600000000000000089 ) ) ;
#76 = CARTESIAN_POINT ( 'NONE',  ( 0.000000000000000000, 0.000000000000000000, -1.249999999999999334 ) ) ;
#77 = ORIENTED_EDGE ( 'NONE', *, *, #918, .T. ) ;
#78 = CIRCLE ( 'NONE', #752, 0.3499999999999988121 ) ;
#79 = DIRECTION ( 'NONE',  ( 0.000000000000000000, 0.000000000000000000, 1.000000000000000000 ) ) ;
#80 = DIRECTION ( 'NONE',  ( 2.593547890057911555E-15, 0.000000000000000000, -1.000000000000000000 ) ) ;
#81 = AXIS2_PLACEMENT_3D ( 'NONE', #125, #506, #1170 ) ;
#82 = CARTESIAN_POINT ( 'NONE',  ( 0.3500000000000003109, 0.4000000000000000222, -0.3499999999999994227 ) ) ;
#83 = EDGE_LOOP ( 'NONE', ( #925, #402 ) ) ;
#84 = DIRECTION ( 'NONE',  ( 0.000000000000000000, 0.000000000000000000, -1.000000000000000000 ) ) ;
#85 = EDGE_CURVE ( 'NONE', #370, #613, #253, .T. ) ;
#86 = CARTESIAN_POINT ( 'NONE',  ( 4.509790211690269501, 0.4000000000000000222, -0.2677972023696898463 ) ) ;
#87 = DIRECTION ( 'NONE',  ( 0.000000000000000000, 1.000000000000000000, 0.000000000000000000 ) ) ;
#88 = ORIENTED_EDGE ( 'NONE', *, *, #72, .T. ) ;
#89 = CARTESIAN_POINT ( 'NONE',  ( 4.850000000000000533, 0.4000000000000000222, -0.5000000000000006661 ) ) ;
#90 = CARTESIAN_POINT ( 'NONE',  ( 4.899999999999999467, 0.2000000000000000111, -0.8027864045000390192 ) ) ;
#91 = FACE_OUTER_BOUND ( 'NONE', #396, .T. ) ;
#92 = EDGE_CURVE ( 'NONE', #809, #257, #1031, .T. ) ;
#93 = VECTOR ( 'NONE', #356, 100.0000000000000000 ) ;
#94 = ORIENTED_EDGE ( 'NONE', *, *, #503, .T. ) ;
#95 = CARTESIAN_POINT ( 'NONE',  ( 0.3500000000000003109, 0.000000000000000000, -0.1999999999999994837 ) ) ;
#96 = FACE_OUTER_BOUND ( 'NONE', #801, .T. ) ;
#97 = VECTOR ( 'NONE', #1107, 100.0000000000000000 ) ;
#98 = DIRECTION ( 'NONE',  ( 0.000000000000000000, 1.000000000000000000, 0.000000000000000000 ) ) ;
#99 = CIRCLE ( 'NONE', #360, 0.4500000000000014544 ) ;
#100 = ORIENTED_EDGE ( 'NONE', *, *, #1166, .T. ) ;
#101 = FACE_OUTER_BOUND ( 'NONE', #1106, .T. ) ;
#102 = EDGE_LOOP ( 'NONE', ( #1096, #335, #77, #478 ) ) ;
#103 = CIRCLE ( 'NONE', #758, 0.3500000000000006439 ) ;
#104 = CARTESIAN_POINT ( 'NONE',  ( 2.600000000000003642, 0.2000000000000000111, 9.650000000000021672 ) ) ;
#105 = CARTESIAN_POINT ( 'NONE',  ( 0.3500000000000006439, 0.000000000000000000, -1.249999999999999334 ) ) ;
#106 = VERTEX_POINT ( 'NONE', #444 ) ;
#107 = DIRECTION ( 'NONE',  ( 0.000000000000000000, 1.000000000000000000, 0.000000000000000000 ) ) ;
#108 = EDGE_CURVE ( 'NONE', #1205, #434, #353, .T. ) ;
#109 = EDGE_CURVE ( 'NONE', #625, #160, #228, .T. ) ;
#110 = CARTESIAN_POINT ( 'NONE',  ( 0.4268292682926780879, 0.4000000000000000222, -1.591463414634149087 ) ) ;
#111 = DIRECTION ( 'NONE',  ( -0.000000000000000000, -1.000000000000000000, -0.000000000000000000 ) ) ;
#112 = CIRCLE ( 'NONE', #376, 0.3500000000000006439 ) ;
#113 = ORIENTED_EDGE ( 'NONE', *, *, #527, .T. ) ;
#114 = DIRECTION ( 'NONE',  ( 0.000000000000000000, 1.000000000000000000, 0.000000000000000000 ) ) ;
#115 = APPROVAL ( #1013, 'UNSPECIFIED' ) ;
#116 = VERTEX_POINT ( 'NONE', #375 ) ;
#117 = FACE_OUTER_BOUND ( 'NONE', #776, .T. ) ;
#118 = CARTESIAN_POINT ( 'NONE',  ( 4.850000000000000533, 0.4000000000000000222, -1.600000000000000311 ) ) ;
#119 = AXIS2_PLACEMENT_3D ( 'NONE', #471, #380, #862 ) ;
#120 = ORIENTED_EDGE ( 'NONE', *, *, #1116, .F. ) ;
#121 = DIRECTION ( 'NONE',  ( -0.000000000000000000, -1.000000000000000000, -0.000000000000000000 ) ) ;
#122 = ORIENTED_EDGE ( 'NONE', *, *, #304, .T. ) ;
#123 = CARTESIAN_POINT ( 'NONE',  ( 0.3500000000000006439, 0.4000000000000000222, -1.249999999999999334 ) ) ;
#124 = VECTOR ( 'NONE', #430, 100.0000000000000142 ) ;
#125 = CARTESIAN_POINT ( 'NONE',  ( 4.850000000000000533, 0.2000000000000000111, -1.249999999999999778 ) ) ;
#126 = ORIENTED_EDGE ( 'NONE', *, *, #932, .T. ) ;
#127 = DIRECTION ( 'NONE',  ( -0.000000000000000000, -1.000000000000000000, 0.000000000000000000 ) ) ;
#128 = ORIENTED_EDGE ( 'NONE', *, *, #393, .F. ) ;
#129 = AXIS2_PLACEMENT_3D ( 'NONE', #27, #855, #939 ) ;
#130 = DIRECTION ( 'NONE',  ( 0.000000000000000000, 0.000000000000000000, -1.000000000000000000 ) ) ;
#131 = LINE ( 'NONE', #1074, #1178 ) ;
#132 = EDGE_CURVE ( 'NONE', #487, #190, #349, .T. ) ;
#133 = ORIENTED_EDGE ( 'NONE', *, *, #592, .T. ) ;
#134 =( LENGTH_UNIT ( ) NAMED_UNIT ( * ) SI_UNIT ( .CENTI., .METRE. ) );
#135 = ORIENTED_EDGE ( 'NONE', *, *, #769, .T. ) ;
#136 = CIRCLE ( 'NONE', #692, 10.10000000000002096 ) ;
#137 = LINE ( 'NONE', #729, #97 ) ;
#138 = EDGE_CURVE ( 'NONE', #1164, #908, #507, .T. ) ;
#139 = AXIS2_PLACEMENT_3D ( 'NONE', #104, #374, #285 ) ;
#140 = CARTESIAN_POINT ( 'NONE',  ( 4.850000000000000533, 0.4000000000000000222, -1.249999999999999778 ) ) ;
#141 = ORIENTED_EDGE ( 'NONE', *, *, #954, .T. ) ;
#142 = EDGE_LOOP ( 'NONE', ( #133, #56, #1218, #21 ) ) ;
#143 = AXIS2_PLACEMENT_3D ( 'NONE', #603, #984, #786 ) ;
#144 = DIRECTION ( 'NONE',  ( -0.000000000000000000, -1.000000000000000000, -0.000000000000000000 ) ) ;
#145 = LINE ( 'NONE', #620, #1 ) ;
#146 = ORIENTED_EDGE ( 'NONE', *, *, #109, .T. ) ;
#147 = EDGE_CURVE ( 'NONE', #1061, #559, #383, .T. ) ;
#148 = ADVANCED_FACE ( 'NONE', ( #545, #71, #826, #641, #558 ), #751, .F. ) ;
#149 = DIRECTION ( 'NONE',  ( 0.000000000000000000, 0.000000000000000000, -1.000000000000000000 ) ) ;
#150 = AXIS2_PLACEMENT_3D ( 'NONE', #1015, #560, #761 ) ;
#151 = ORIENTED_EDGE ( 'NONE', *, *, #366, .F. ) ;
#152 = APPROVAL_DATE_TIME ( #614, #486 ) ;
#153 = EDGE_CURVE ( 'NONE', #204, #884, #883, .T. ) ;
#154 = VERTEX_POINT ( 'NONE', #76 ) ;
#155 = AXIS2_PLACEMENT_3D ( 'NONE', #414, #669, #967 ) ;
#156 = AXIS2_PLACEMENT_3D ( 'NONE', #519, #332, #1087 ) ;
#157 = DIRECTION ( 'NONE',  ( -0.000000000000000000, -1.000000000000000000, -0.000000000000000000 ) ) ;
#158 = DIRECTION ( 'NONE',  ( 0.000000000000000000, 0.000000000000000000, 1.000000000000000000 ) ) ;
#159 = MECHANICAL_CONTEXT ( 'NONE', #996, 'mechanical' ) ;
#160 = VERTEX_POINT ( 'NONE', #635 ) ;
#161 = DIRECTION ( 'NONE',  ( -0.000000000000000000, -1.000000000000000000, -0.000000000000000000 ) ) ;
#162 = CONICAL_SURFACE ( 'NONE', #642, 10.19999999999998685, 0.4636476090008060935 ) ;
#163 = DIRECTION ( 'NONE',  ( -0.000000000000000000, -1.000000000000000000, -0.000000000000000000 ) ) ;
#164 = DIRECTION ( 'NONE',  ( 0.000000000000000000, 0.000000000000000000, -1.000000000000000000 ) ) ;
#165 = EDGE_LOOP ( 'NONE', ( #447, #606, #508, #999 ) ) ;
#166 = CARTESIAN_POINT ( 'NONE',  ( 0.3500000000000006439, 0.4000000000000000222, -1.249999999999999334 ) ) ;
#167 = LINE ( 'NONE', #75, #234 ) ;
#168 = DIRECTION ( 'NONE',  ( -0.000000000000000000, -1.000000000000000000, -0.000000000000000000 ) ) ;
#169 = ADVANCED_FACE ( 'NONE', ( #911 ), #262, .F. ) ;
#170 = ORIENTED_EDGE ( 'NONE', *, *, #314, .T. ) ;
#171 = DIRECTION ( 'NONE',  ( 1.458870688157565315E-15, -0.000000000000000000, 1.000000000000000000 ) ) ;
#172 = AXIS2_PLACEMENT_3D ( 'NONE', #1088, #900, #333 ) ;
#173 = CARTESIAN_POINT ( 'NONE',  ( 0.2999999999999997113, 0.2000000000000000111, -0.7972135954999584051 ) ) ;
#174 = DIRECTION ( 'NONE',  ( 0.000000000000000000, 0.000000000000000000, 1.000000000000000000 ) ) ;
#175 = ORIENTED_EDGE ( 'NONE', *, *, #239, .F. ) ;
#176 = CIRCLE ( 'NONE', #336, 0.1500000000000003830 ) ;
#177 = PLANE ( 'NONE',  #150 ) ;
#178 = CARTESIAN_POINT ( 'NONE',  ( 2.599999999999998757, 0.000000000000000000, -11.24999999999998757 ) ) ;
#179 = CARTESIAN_POINT ( 'NONE',  ( 4.773170731707320869, 0.4000000000000000222, -0.008536585365855053897 ) ) ;
#180 = ORIENTED_EDGE ( 'NONE', *, *, #648, .F. ) ;
#181 = FACE_OUTER_BOUND ( 'NONE', #940, .T. ) ;
#182 = EDGE_CURVE ( 'NONE', #579, #702, #612, .T. ) ;
#183 = CARTESIAN_POINT ( 'NONE',  ( 4.917314471282479005, 0.2346289425649627225, -0.8221445718910869171 ) ) ;
#184 = CARTESIAN_POINT ( 'NONE',  ( 0.3500000000000006439, 0.4000000000000000222, -1.249999999999999334 ) ) ;
#185 = VERTEX_POINT ( 'NONE', #14 ) ;
#186 = CARTESIAN_POINT ( 'NONE',  ( 4.850000000000000533, 0.000000000000000000, -1.249999999999999778 ) ) ;
#187 = CARTESIAN_POINT ( 'NONE',  ( 5.000000000000000888, 0.4000000000000000222, -0.9337722339831591167 ) ) ;
#188 = DIRECTION ( 'NONE',  ( 0.000000000000000000, 1.000000000000000000, 0.000000000000000000 ) ) ;
#189 = AXIS2_PLACEMENT_3D ( 'NONE', #1012, #935, #164 ) ;
#190 = VERTEX_POINT ( 'NONE', #499 ) ;
#191 = CARTESIAN_POINT ( 'NONE',  ( 0.3500000000000006439, 0.4000000000000000222, -1.249999999999999334 ) ) ;
#192 = DESIGN_CONTEXT ( 'detailed design', #572, 'design' ) ;
#193 = CARTESIAN_POINT ( 'NONE',  ( 4.967804161857758416, 0.3356083237155185195, -0.8857682364350869531 ) ) ;
#194 = ADVANCED_FACE ( 'NONE', ( #389 ), #678, .F. ) ;
#195 = DIRECTION ( 'NONE',  ( 0.000000000000000000, 0.000000000000000000, 1.000000000000000000 ) ) ;
#196 = AXIS2_PLACEMENT_3D ( 'NONE', #178, #1100, #462 ) ;
#197 = EDGE_CURVE ( 'NONE', #613, #930, #611, .T. ) ;
#198 = EDGE_LOOP ( 'NONE', ( #955, #358, #1085, #1092 ) ) ;
#199 = CARTESIAN_POINT ( 'NONE',  ( 4.850000000000000533, 0.000000000000000000, -0.3500000000000001998 ) ) ;
#200 = LINE ( 'NONE', #110, #278 ) ;
#201 = CYLINDRICAL_SURFACE ( 'NONE', #848, 0.3500000000000006439 ) ;
#202 = EDGE_LOOP ( 'NONE', ( #382, #43, #946, #899, #695 ) ) ;
#203 = FACE_OUTER_BOUND ( 'NONE', #1097, .T. ) ;
#204 = VERTEX_POINT ( 'NONE', #685 ) ;
#205 = VECTOR ( 'NONE', #276, 100.0000000000000000 ) ;
#206 = DIRECTION ( 'NONE',  ( -0.000000000000000000, -1.000000000000000000, -0.000000000000000000 ) ) ;
#207 = DIRECTION ( 'NONE',  ( 0.000000000000000000, 1.000000000000000000, 0.000000000000000000 ) ) ;
#208 = CIRCLE ( 'NONE', #470, 0.1500000000000003830 ) ;
#209 = AXIS2_PLACEMENT_3D ( 'NONE', #288, #845, #10 ) ;
#210 = VERTEX_POINT ( 'NONE', #567 ) ;
#211 = CARTESIAN_POINT ( 'NONE',  ( 4.850000000000000533, 0.000000000000000000, -0.3500000000000001998 ) ) ;
#212 = ORIENTED_EDGE ( 'NONE', *, *, #790, .F. ) ;
#213 = EDGE_CURVE ( 'NONE', #474, #204, #484, .T. ) ;
#214 = CARTESIAN_POINT ( 'NONE',  ( 0.2999999999999996558, 0.2000000000000000111, -0.8027864045000394633 ) ) ;
#215 = PRODUCT ( '바디_프론트가드', '바디_프론트가드', '', ( #159 ) ) ;
#216 = DIRECTION ( 'NONE',  ( -0.000000000000000000, -1.000000000000000000, -0.000000000000000000 ) ) ;
#217 = CIRCLE ( 'NONE', #601, 10.20000000000002238 ) ;
#218 = ORIENTED_EDGE ( 'NONE', *, *, #755, .F. ) ;
#219 = CARTESIAN_POINT ( 'NONE',  ( 4.432886842729836907, 0.2692119867847271308, -0.3488596168282327992 ) ) ;
#220 = ORIENTED_EDGE ( 'NONE', *, *, #503, .F. ) ;
#221 = PLANE ( 'NONE',  #19 ) ;
#222 = EDGE_CURVE ( 'NONE', #1078, #1205, #296, .T. ) ;
#223 = AXIS2_PLACEMENT_3D ( 'NONE', #780, #951, #945 ) ;
#224 = FACE_OUTER_BOUND ( 'NONE', #1160, .T. ) ;
#225 = ORIENTED_EDGE ( 'NONE', *, *, #11, .T. ) ;
#226 = DATE_TIME_ROLE ( 'creation_date' ) ;
#227 = ORIENTED_EDGE ( 'NONE', *, *, #446, .F. ) ;
#228 = CIRCLE ( 'NONE', #70, 0.3500000000000019762 ) ;
#229 = CARTESIAN_POINT ( 'NONE',  ( 0.3500000000000006439, 0.4000000000000000222, -1.249999999999999334 ) ) ;
#230 = LINE ( 'NONE', #617, #298 ) ;
#231 = AXIS2_PLACEMENT_3D ( 'NONE', #1169, #874, #1079 ) ;
#232 = CARTESIAN_POINT ( 'NONE',  ( 2.600000000000003642, 0.4000000000000000222, 9.650000000000021672 ) ) ;
#233 = ORIENTED_EDGE ( 'NONE', *, *, #252, .T. ) ;
#234 = VECTOR ( 'NONE', #561, 100.0000000000000000 ) ;
#235 = CARTESIAN_POINT ( 'NONE',  ( 0.4268292682926831949, 0.4000000000000000222, -0.008536585365854013063 ) ) ;
#236 = ADVANCED_FACE ( 'NONE', ( #91 ), #201, .T. ) ;
#237 = LINE ( 'NONE', #993, #93 ) ;
#238 = B_SPLINE_CURVE_WITH_KNOTS ( 'NONE', 3,
 ( #775, #8, #575, #764 ),
 .UNSPECIFIED., .F., .F.,
 ( 4, 4 ),
 ( 0.000000000000000000, 0.002578974679206895958 ),
 .UNSPECIFIED. ) ;
#239 = EDGE_CURVE ( 'NONE', #998, #980, #33, .T. ) ;
#240 = VERTEX_POINT ( 'NONE', #473 ) ;
#241 = PLANE ( 'NONE',  #143 ) ;
#242 = EDGE_CURVE ( 'NONE', #390, #976, #850, .T. ) ;
#243 = EDGE_LOOP ( 'NONE', ( #510, #895 ) ) ;
#244 = CC_DESIGN_APPROVAL ( #115, ( #334 ) ) ;
#245 = PERSON_AND_ORGANIZATION ( #1090, #60 ) ;
#246 = ORIENTED_EDGE ( 'NONE', *, *, #26, .T. ) ;
#247 = CARTESIAN_POINT ( 'NONE',  ( 0.6902097883097285669, 0.4000000000000000222, -1.332202797630313462 ) ) ;
#248 = ORIENTED_EDGE ( 'NONE', *, *, #1209, .T. ) ;
#249 = EDGE_LOOP ( 'NONE', ( #1041, #903, #113, #1187 ) ) ;
#250 = DIRECTION ( 'NONE',  ( 0.000000000000000000, -0.000000000000000000, 1.000000000000000000 ) ) ;
#251 = CIRCLE ( 'NONE', #532, 9.900000000000023448 ) ;
#252 = EDGE_CURVE ( 'NONE', #324, #889, #493, .T. ) ;
#253 = CIRCLE ( 'NONE', #415, 0.4500000000000014544 ) ;
#254 = DIRECTION ( 'NONE',  ( 0.000000000000000000, 0.000000000000000000, 1.000000000000000000 ) ) ;
#255 = DIRECTION ( 'NONE',  ( -0.000000000000000000, -1.000000000000000000, -0.000000000000000000 ) ) ;
#256 = DATE_TIME_ROLE ( 'classification_date' ) ;
#257 = VERTEX_POINT ( 'NONE', #485 ) ;
#258 = LINE ( 'NONE', #644, #710 ) ;
#259 = AXIS2_PLACEMENT_3D ( 'NONE', #543, #354, #80 ) ;
#260 = LINE ( 'NONE', #1010, #948 ) ;
#261 = EDGE_CURVE ( 'NONE', #1076, #1174, #238, .T. ) ;
#262 = PLANE ( 'NONE',  #548 ) ;
#263 = EDGE_LOOP ( 'NONE', ( #1185, #170 ) ) ;
#264 = CARTESIAN_POINT ( 'NONE',  ( 4.899999999999999467, 0.2000000000000000111, -0.8027864045000390192 ) ) ;
#265 = PRODUCT_DEFINITION ( 'UNKNOWN', '', #412, #192 ) ;
#266 = FACE_OUTER_BOUND ( 'NONE', #796, .T. ) ;
#267 = DIRECTION ( 'NONE',  ( 0.000000000000000000, 0.000000000000000000, -1.000000000000000000 ) ) ;
#268 = VERTEX_POINT ( 'NONE', #757 ) ;
#269 = DIRECTION ( 'NONE',  ( 0.000000000000000000, 0.000000000000000000, 1.000000000000000000 ) ) ;
#270 = CONICAL_SURFACE ( 'NONE', #636, 10.20000000000002238, 0.4636476090008060935 ) ;
#271 = AXIS2_PLACEMENT_3D ( 'NONE', #547, #475, #84 ) ;
#272 = CYLINDRICAL_SURFACE ( 'NONE', #25, 0.1500000000000003830 ) ;
#273 = CARTESIAN_POINT ( 'NONE',  ( 4.773170731707318204, 0.4000000000000000222, -1.591463414634146645 ) ) ;
#274 = APPROVAL_DATE_TIME ( #568, #115 ) ;
#275 = ORIENTED_EDGE ( 'NONE', *, *, #407, .F. ) ;
#276 = DIRECTION ( 'NONE',  ( 1.458870688157565315E-15, 0.000000000000000000, 1.000000000000000000 ) ) ;
#277 = EDGE_CURVE ( 'NONE', #500, #154, #639, .T. ) ;
#278 = VECTOR ( 'NONE', #302, 100.0000000000000000 ) ;
#279 = CARTESIAN_POINT ( 'NONE',  ( 4.850000000000000533, 0.4000000000000000222, -1.249999999999999778 ) ) ;
#280 = CARTESIAN_POINT ( 'NONE',  ( 4.984170875528234568, 0.3683417510564722663, -0.6912558093653812241 ) ) ;
#281 = CC_DESIGN_PERSON_AND_ORGANIZATION_ASSIGNMENT ( #717, #531, ( #412 ) ) ;
#282 = ORIENTED_EDGE ( 'NONE', *, *, #897, .F. ) ;
#283 = CARTESIAN_POINT ( 'NONE',  ( 0.3500000000000006439, 0.000000000000000000, -1.249999999999999334 ) ) ;
#284 = CIRCLE ( 'NONE', #223, 0.3500000000000006439 ) ;
#285 = DIRECTION ( 'NONE',  ( 7.993333663814682249E-15, 0.000000000000000000, 1.000000000000000000 ) ) ;
#286 = CARTESIAN_POINT ( 'NONE',  ( 4.850000000000000533, 0.2000000000000000111, -1.249999999999999778 ) ) ;
#287 = VERTEX_POINT ( 'NONE', #672 ) ;
#288 = CARTESIAN_POINT ( 'NONE',  ( 2.600000000000003642, 0.2000000000000000111, 9.650000000000021672 ) ) ;
#289 = EDGE_CURVE ( 'NONE', #980, #257, #103, .T. ) ;
#290 = CARTESIAN_POINT ( 'NONE',  ( 4.934378634500214744, 0.2687572690004280673, -0.8424582169308868496 ) ) ;
#291 = CARTESIAN_POINT ( 'NONE',  ( 4.934378634500213856, 0.2687572690004280673, -0.7575417830691122401 ) ) ;
#292 = EDGE_LOOP ( 'NONE', ( #468, #995, #320, #583 ) ) ;
#293 = DIRECTION ( 'NONE',  ( -0.000000000000000000, -1.000000000000000000, -0.000000000000000000 ) ) ;
#294 = VECTOR ( 'NONE', #1154, 100.0000000000000000 ) ;
#295 = LINE ( 'NONE', #750, #1029 ) ;
#296 = LINE ( 'NONE', #1058, #449 ) ;
#297 = EDGE_CURVE ( 'NONE', #1007, #370, #12, .T. ) ;
#298 = VECTOR ( 'NONE', #711, 100.0000000000000000 ) ;
#299 = ORIENTED_EDGE ( 'NONE', *, *, #242, .T. ) ;
#300 = DIRECTION ( 'NONE',  ( 0.000000000000000000, 0.000000000000000000, 1.000000000000000000 ) ) ;
#301 = VERTEX_POINT ( 'NONE', #582 ) ;
#302 = DIRECTION ( 'NONE',  ( -0.000000000000000000, -1.000000000000000000, -0.000000000000000000 ) ) ;
#303 = CARTESIAN_POINT ( 'NONE',  ( 4.917314471282479005, 0.2346289425649627503, -0.7778554281089119504 ) ) ;
#304 = EDGE_CURVE ( 'NONE', #739, #998, #284, .T. ) ;
#305 = VERTEX_POINT ( 'NONE', #20 ) ;
#306 = CARTESIAN_POINT ( 'NONE',  ( 0.000000000000000000, 0.4000000000000000222, -1.249999999999999334 ) ) ;
#307 = CARTESIAN_POINT ( 'NONE',  ( 2.600000000000003642, 0.000000000000000000, -0.2500000000000016098 ) ) ;
#308 = CARTESIAN_POINT ( 'NONE',  ( 6.938893903907228378E-16, 0.000000000000000000, -0.3499999999999994227 ) ) ;
#309 = CC_DESIGN_APPROVAL ( #977, ( #265 ) ) ;
#310 = ORIENTED_EDGE ( 'NONE', *, *, #461, .F. ) ;
#311 = DIRECTION ( 'NONE',  ( 0.000000000000000000, 0.000000000000000000, -1.000000000000000000 ) ) ;
#312 = AXIS2_PLACEMENT_3D ( 'NONE', #1216, #3, #1123 ) ;
#313 = EDGE_LOOP ( 'NONE', ( #175, #815, #708, #100 ) ) ;
#314 = EDGE_CURVE ( 'NONE', #637, #106, #443, .T. ) ;
#315 = DIRECTION ( 'NONE',  ( 0.000000000000000000, 0.000000000000000000, 1.000000000000000000 ) ) ;
#316 = CARTESIAN_POINT ( 'NONE',  ( 0.3500000000000004774, 0.2000000000000000111, -0.8000000000000007105 ) ) ;
#317 = CONICAL_SURFACE ( 'NONE', #1071, 0.4500000000000015099, 0.4636476090008037065 ) ;
#318 = ORIENTED_EDGE ( 'NONE', *, *, #393, .T. ) ;
#319 = APPROVAL_ROLE ( '' ) ;
#320 = ORIENTED_EDGE ( 'NONE', *, *, #197, .F. ) ;
#321 = DIRECTION ( 'NONE',  ( 0.000000000000000000, 0.000000000000000000, 1.000000000000000000 ) ) ;
#322 = AXIS2_PLACEMENT_3D ( 'NONE', #286, #406, #1040 ) ;
#323 = DIRECTION ( 'NONE',  ( 0.000000000000000000, 0.000000000000000000, -1.000000000000000000 ) ) ;
#324 = VERTEX_POINT ( 'NONE', #395 ) ;
#325 = CARTESIAN_POINT ( 'NONE',  ( 6.938893903907228378E-16, 0.4000000000000000222, -0.3499999999999994227 ) ) ;
#326 = ORIENTED_EDGE ( 'NONE', *, *, #790, .T. ) ;
#327 = AXIS2_PLACEMENT_3D ( 'NONE', #842, #551, #267 ) ;
#328 = EDGE_CURVE ( 'NONE', #563, #474, #1177, .T. ) ;
#329 = MANIFOLD_SOLID_BREP ( '모따기2', #1203 ) ;
#330 = DIRECTION ( 'NONE',  ( -0.000000000000000000, -1.000000000000000000, -0.000000000000000000 ) ) ;
#331 = EDGE_CURVE ( 'NONE', #653, #1111, #1066, .T. ) ;
#332 = DIRECTION ( 'NONE',  ( -0.000000000000000000, -1.000000000000000000, -0.000000000000000000 ) ) ;
#333 = DIRECTION ( 'NONE',  ( 1.000000000000000000, 0.000000000000000000, 0.000000000000000000 ) ) ;
#334 = SECURITY_CLASSIFICATION ( '', '', #981 ) ;
#335 = ORIENTED_EDGE ( 'NONE', *, *, #679, .T. ) ;
#336 = AXIS2_PLACEMENT_3D ( 'NONE', #400, #1142, #593 ) ;
#337 = DIRECTION ( 'NONE',  ( -0.000000000000000000, -1.000000000000000000, -0.000000000000000000 ) ) ;
#338 = ORIENTED_EDGE ( 'NONE', *, *, #696, .T. ) ;
#339 = PERSON_AND_ORGANIZATION ( #1090, #60 ) ;
#340 = ORIENTED_EDGE ( 'NONE', *, *, #31, .F. ) ;
#341 = CARTESIAN_POINT ( 'NONE',  ( 0.3500000000000006439, 0.000000000000000000, -1.099999999999999423 ) ) ;
#342 = ORIENTED_EDGE ( 'NONE', *, *, #261, .F. ) ;
#343 =( NAMED_UNIT ( * ) PLANE_ANGLE_UNIT ( ) SI_UNIT ( $, .RADIAN. ) );
#344 = EDGE_CURVE ( 'NONE', #1174, #713, #817, .T. ) ;
#345 = ORIENTED_EDGE ( 'NONE', *, *, #609, .F. ) ;
#346 = CARTESIAN_POINT ( 'NONE',  ( 0.3500000000000003109, 0.000000000000000000, -0.4999999999999993894 ) ) ;
#347 = CARTESIAN_POINT ( 'NONE',  ( 0.3500000000000003109, 0.4000000000000000222, -0.7000000000000008438 ) ) ;
#348 = ADVANCED_FACE ( 'NONE', ( #224 ), #973, .T. ) ;
#349 = LINE ( 'NONE', #179, #861 ) ;
#350 = EDGE_LOOP ( 'NONE', ( #1026, #88, #233, #212 ) ) ;
#351 = FACE_OUTER_BOUND ( 'NONE', #1053, .T. ) ;
#352 = EDGE_CURVE ( 'NONE', #185, #305, #131, .T. ) ;
#353 = CIRCLE ( 'NONE', #40, 0.3499999999999990896 ) ;
#354 = DIRECTION ( 'NONE',  ( 0.8944271909999156334, -0.4472135954999583718, 2.319739754028256039E-15 ) ) ;
#355 = CIRCLE ( 'NONE', #398, 0.3500000000000014211 ) ;
#356 = DIRECTION ( 'NONE',  ( 2.593547890057911555E-15, 0.000000000000000000, -1.000000000000000000 ) ) ;
#357 = CC_DESIGN_DATE_AND_TIME_ASSIGNMENT ( #428, #256, ( #334 ) ) ;
#358 = ORIENTED_EDGE ( 'NONE', *, *, #618, .T. ) ;
#359 = DIRECTION ( 'NONE',  ( 0.000000000000000000, 0.000000000000000000, 1.000000000000000000 ) ) ;
#360 = AXIS2_PLACEMENT_3D ( 'NONE', #1210, #163, #1113 ) ;
#361 = FACE_OUTER_BOUND ( 'NONE', #719, .T. ) ;
#362 = CARTESIAN_POINT ( 'NONE',  ( 0.2656213654997857665, 0.2687572690004280118, -0.7575417830691106857 ) ) ;
#363 = ORIENTED_EDGE ( 'NONE', *, *, #576, .T. ) ;
#364 = CARTESIAN_POINT ( 'NONE',  ( 4.850000000000000533, 0.4000000000000000222, -0.3500000000000001998 ) ) ;
#365 = LINE ( 'NONE', #835, #1211 ) ;
#366 = EDGE_CURVE ( 'NONE', #301, #1076, #703, .T. ) ;
#367 = CARTESIAN_POINT ( 'NONE',  ( 4.850000000000000533, 0.4000000000000000222, -0.1999999999999998446 ) ) ;
#368 = CIRCLE ( 'NONE', #53, 0.3500000000000006439 ) ;
#369 = ADVANCED_FACE ( 'NONE', ( #524 ), #607, .T. ) ;
#370 = VERTEX_POINT ( 'NONE', #904 ) ;
#371 = FACE_OUTER_BOUND ( 'NONE', #632, .T. ) ;
#372 = APPROVAL_PERSON_ORGANIZATION ( #539, #977, #795 ) ;
#373 = CIRCLE ( 'NONE', #807, 10.10000000000002096 ) ;
#374 = DIRECTION ( 'NONE',  ( -0.000000000000000000, -1.000000000000000000, -0.000000000000000000 ) ) ;
#375 = CARTESIAN_POINT ( 'NONE',  ( 5.200000000000000178, 0.000000000000000000, -1.249999999999999778 ) ) ;
#376 = AXIS2_PLACEMENT_3D ( 'NONE', #872, #29, #403 ) ;
#377 = ORIENTED_EDGE ( 'NONE', *, *, #472, .T. ) ;
#378 = FACE_OUTER_BOUND ( 'NONE', #416, .T. ) ;
#379 = CIRCLE ( 'NONE', #1009, 10.09999999999998543 ) ;
#380 = DIRECTION ( 'NONE',  ( -0.000000000000000000, -1.000000000000000000, -0.000000000000000000 ) ) ;
#381 = CARTESIAN_POINT ( 'NONE',  ( 4.999999999999999112, 0.4000000000000000222, -0.6662277660168386406 ) ) ;
#382 = ORIENTED_EDGE ( 'NONE', *, *, #1155, .F. ) ;
#383 = B_SPLINE_CURVE_WITH_KNOTS ( 'NONE', 3,
 ( #917, #732, #727, #362, #924, #1103 ),
 .UNSPECIFIED., .F., .F.,
 ( 4, 2, 4 ),
 ( 0.000000000000000000, 0.001295736156836924981, 0.002591472313673849961 ),
 .UNSPECIFIED. ) ;
#384 = FACE_OUTER_BOUND ( 'NONE', #811, .T. ) ;
#385 = EDGE_CURVE ( 'NONE', #399, #1138, #856, .T. ) ;
#386 = AXIS2_PLACEMENT_3D ( 'NONE', #880, #793, #323 ) ;
#387 = LOCAL_TIME ( 23, 17, 2.000000000000000000, #1104 ) ;
#388 = FACE_OUTER_BOUND ( 'NONE', #604, .T. ) ;
#389 = FACE_OUTER_BOUND ( 'NONE', #23, .T. ) ;
#390 = VERTEX_POINT ( 'NONE', #629 ) ;
#391 = FACE_OUTER_BOUND ( 'NONE', #198, .T. ) ;
#392 = CONICAL_SURFACE ( 'NONE', #921, 0.4500000000000021205, 0.4636476090008046502 ) ;
#393 = EDGE_CURVE ( 'NONE', #190, #1111, #1075, .T. ) ;
#394 = CARTESIAN_POINT ( 'NONE',  ( 4.850000000000000533, 0.4000000000000000222, -0.3500000000000001998 ) ) ;
#395 = CARTESIAN_POINT ( 'NONE',  ( 0.3500000000000003109, 0.4000000000000000222, -0.4999999999999993894 ) ) ;
#396 = EDGE_LOOP ( 'NONE', ( #724, #569, #457, #1144 ) ) ;
#397 = DIRECTION ( 'NONE',  ( -0.000000000000000000, -1.000000000000000000, -0.000000000000000000 ) ) ;
#398 = AXIS2_PLACEMENT_3D ( 'NONE', #720, #1095, #950 ) ;
#399 = VERTEX_POINT ( 'NONE', #52 ) ;
#400 = CARTESIAN_POINT ( 'NONE',  ( 4.850000000000000533, 0.4000000000000000222, -0.3500000000000001998 ) ) ;
#401 = DIRECTION ( 'NONE',  ( -0.000000000000000000, -1.000000000000000000, -0.000000000000000000 ) ) ;
#402 = ORIENTED_EDGE ( 'NONE', *, *, #1099, .T. ) ;
#403 = DIRECTION ( 'NONE',  ( 0.000000000000000000, 0.000000000000000000, 1.000000000000000000 ) ) ;
#404 = EDGE_LOOP ( 'NONE', ( #94, #377, #1126, #494, #733, #919, #585 ) ) ;
#405 = CARTESIAN_POINT ( 'NONE',  ( 0.3500000000000006439, 0.4000000000000000222, -1.099999999999999423 ) ) ;
#406 = DIRECTION ( 'NONE',  ( -0.000000000000000000, -1.000000000000000000, -0.000000000000000000 ) ) ;
#407 = EDGE_CURVE ( 'NONE', #739, #116, #230, .T. ) ;
#408 = ORIENTED_EDGE ( 'NONE', *, *, #252, .F. ) ;
#409 = CARTESIAN_POINT ( 'NONE',  ( 0.3500000000000003109, 0.4000000000000000222, -0.3499999999999994227 ) ) ;
#410 = CARTESIAN_POINT ( 'NONE',  ( 0.3500000000000003109, 0.000000000000000000, -0.3499999999999994227 ) ) ;
#411 = DIRECTION ( 'NONE',  ( 0.000000000000000000, 1.000000000000000000, 0.000000000000000000 ) ) ;
#412 = PRODUCT_DEFINITION_FORMATION_WITH_SPECIFIED_SOURCE ( 'ANY', '', #215, .NOT_KNOWN. ) ;
#413 = ORIENTED_EDGE ( 'NONE', *, *, #289, .F. ) ;
#414 = CARTESIAN_POINT ( 'NONE',  ( 0.3500000000000006439, 0.2000000000000000111, -1.249999999999999334 ) ) ;
#415 = AXIS2_PLACEMENT_3D ( 'NONE', #657, #168, #1115 ) ;
#416 = EDGE_LOOP ( 'NONE', ( #540, #643, #982, #1132, #15 ) ) ;
#417 = DIRECTION ( 'NONE',  ( 0.000000000000000000, 0.000000000000000000, -1.000000000000000000 ) ) ;
#418 = CARTESIAN_POINT ( 'NONE',  ( 5.200000000000000178, 0.4000000000000000222, -0.3500000000000001998 ) ) ;
#419 = ORIENTED_EDGE ( 'NONE', *, *, #459, .T. ) ;
#420 = CALENDAR_DATE ( 2024, 26, 9 ) ;
#421 = VECTOR ( 'NONE', #691, 100.0000000000000000 ) ;
#422 = EDGE_LOOP ( 'NONE', ( #39, #326 ) ) ;
#423 = ADVANCED_FACE ( 'NONE', ( #1086 ), #241, .T. ) ;
#424 = ADVANCED_FACE ( 'NONE', ( #518 ), #997, .T. ) ;
#425 = CARTESIAN_POINT ( 'NONE',  ( 4.773170731707318204, 0.4000000000000000222, -1.591463414634146645 ) ) ;
#426 = CARTESIAN_POINT ( 'NONE',  ( 2.600000000000003642, 0.4000000000000000222, 9.650000000000021672 ) ) ;
#427 = ORIENTED_EDGE ( 'NONE', *, *, #138, .T. ) ;
#428 = DATE_AND_TIME ( #894, #1024 ) ;
#429 = ORIENTED_EDGE ( 'NONE', *, *, #875, .F. ) ;
#430 = DIRECTION ( 'NONE',  ( 0.000000000000000000, -0.8944271909999165215, -0.4472135954999567065 ) ) ;
#431 = ORIENTED_EDGE ( 'NONE', *, *, #618, .F. ) ;
#432 = APPROVAL_DATE_TIME ( #626, #977 ) ;
#433 = CIRCLE ( 'NONE', #806, 0.3500000000000019762 ) ;
#434 = VERTEX_POINT ( 'NONE', #235 ) ;
#435 = VECTOR ( 'NONE', #1149, 100.0000000000000000 ) ;
#436 = AXIS2_PLACEMENT_3D ( 'NONE', #1145, #293, #675 ) ;
#437 = DIRECTION ( 'NONE',  ( 0.000000000000000000, 0.000000000000000000, 1.000000000000000000 ) ) ;
#438 = EDGE_CURVE ( 'NONE', #268, #487, #991, .T. ) ;
#439 = EDGE_LOOP ( 'NONE', ( #318, #778, #833, #1068 ) ) ;
#440 = AXIS2_PLACEMENT_3D ( 'NONE', #229, #978, #983 ) ;
#441 = ORIENTED_EDGE ( 'NONE', *, *, #721, .T. ) ;
#442 = DIRECTION ( 'NONE',  ( 2.593547890057911555E-15, 0.000000000000000000, -1.000000000000000000 ) ) ;
#443 = CIRCLE ( 'NONE', #797, 0.1499999999999999667 ) ;
#444 = CARTESIAN_POINT ( 'NONE',  ( 0.3500000000000006439, 0.000000000000000000, -1.399999999999999245 ) ) ;
#445 = DATE_AND_TIME ( #420, #867 ) ;
#446 = EDGE_CURVE ( 'NONE', #809, #579, #581, .T. ) ;
#447 = ORIENTED_EDGE ( 'NONE', *, *, #718, .T. ) ;
#448 = DIRECTION ( 'NONE',  ( 0.000000000000000000, 0.000000000000000000, -1.000000000000000000 ) ) ;
#449 = VECTOR ( 'NONE', #667, 100.0000000000000000 ) ;
#450 = CARTESIAN_POINT ( 'NONE',  ( 0.3500000000000006439, 0.2000000000000000111, -1.249999999999999334 ) ) ;
#451 = CARTESIAN_POINT ( 'NONE',  ( 4.850000000000000533, 0.4000000000000000222, -0.3500000000000001998 ) ) ;
#452 = ORIENTED_EDGE ( 'NONE', *, *, #1119, .T. ) ;
#453 = LINE ( 'NONE', #1037, #588 ) ;
#454 = DIRECTION ( 'NONE',  ( -0.000000000000000000, -1.000000000000000000, -0.000000000000000000 ) ) ;
#455 = CIRCLE ( 'NONE', #622, 0.1500000000000004663 ) ;
#456 = CARTESIAN_POINT ( 'NONE',  ( 0.7982535900311718002, 0.2000000000000000111, -0.3896070577570141524 ) ) ;
#457 = ORIENTED_EDGE ( 'NONE', *, *, #289, .T. ) ;
#458 = FACE_BOUND ( 'NONE', #50, .T. ) ;
#459 = EDGE_CURVE ( 'NONE', #1111, #116, #898, .T. ) ;
#460 = VECTOR ( 'NONE', #149, 100.0000000000000000 ) ;
#461 = EDGE_CURVE ( 'NONE', #154, #961, #1163, .T. ) ;
#462 = DIRECTION ( 'NONE',  ( 0.000000000000000000, 0.000000000000000000, 1.000000000000000000 ) ) ;
#463 = DIRECTION ( 'NONE',  ( 0.000000000000000000, 0.000000000000000000, 1.000000000000000000 ) ) ;
#464 = VERTEX_POINT ( 'NONE', #972 ) ;
#465 = FACE_OUTER_BOUND ( 'NONE', #959, .T. ) ;
#466 = CARTESIAN_POINT ( 'NONE',  ( 4.850000000000000533, 0.4000000000000000222, -1.400000000000000133 ) ) ;
#467 = DIRECTION ( 'NONE',  ( -0.000000000000000000, -1.000000000000000000, -0.000000000000000000 ) ) ;
#468 = ORIENTED_EDGE ( 'NONE', *, *, #1208, .F. ) ;
#469 = FACE_BOUND ( 'NONE', #674, .T. ) ;
#470 = AXIS2_PLACEMENT_3D ( 'NONE', #1042, #1159, #300 ) ;
#471 = CARTESIAN_POINT ( 'NONE',  ( 0.3500000000000003109, 0.4000000000000000222, -0.3499999999999994227 ) ) ;
#472 = EDGE_CURVE ( 'NONE', #370, #1174, #627, .T. ) ;
#473 = CARTESIAN_POINT ( 'NONE',  ( 0.3500000000000006439, 0.4000000000000000222, -1.399999999999999245 ) ) ;
#474 = VERTEX_POINT ( 'NONE', #316 ) ;
#475 = DIRECTION ( 'NONE',  ( -0.000000000000000000, -1.000000000000000000, -0.000000000000000000 ) ) ;
#476 = DIRECTION ( 'NONE',  ( 0.000000000000000000, 0.000000000000000000, -1.000000000000000000 ) ) ;
#477 = DIRECTION ( 'NONE',  ( 0.000000000000000000, 0.000000000000000000, 1.000000000000000000 ) ) ;
#478 = ORIENTED_EDGE ( 'NONE', *, *, #1099, .F. ) ;
#479 = CARTESIAN_POINT ( 'NONE',  ( 4.401746409968828821, 0.2000000000000000111, -0.3896070577570141524 ) ) ;
#480 = ADVANCED_FACE ( 'NONE', ( #699 ), #910, .T. ) ;
#481 = AXIS2_PLACEMENT_3D ( 'NONE', #140, #330, #42 ) ;
#482 = B_SPLINE_CURVE_WITH_KNOTS ( 'NONE', 3,
 ( #479, #219, #1069, #590 ),
 .UNSPECIFIED., .F., .F.,
 ( 4, 4 ),
 ( 0.000000000000000000, 0.002578974679206901596 ),
 .UNSPECIFIED. ) ;
#483 = CARTESIAN_POINT ( 'NONE',  ( 0.2826855287175183418, 0.2346289425649627503, -0.8221445718910875833 ) ) ;
#484 = CIRCLE ( 'NONE', #129, 0.4500000000000011768 ) ;
#485 = CARTESIAN_POINT ( 'NONE',  ( 4.773170731707318204, 0.000000000000000000, -1.591463414634146645 ) ) ;
#486 = APPROVAL ( #631, 'UNSPECIFIED' ) ;
#487 = VERTEX_POINT ( 'NONE', #1202 ) ;
#488 = CYLINDRICAL_SURFACE ( 'NONE', #690, 0.1499999999999999667 ) ;
#489 = ORIENTED_EDGE ( 'NONE', *, *, #808, .F. ) ;
#490 = AXIS2_PLACEMENT_3D ( 'NONE', #779, #1197, #1161 ) ;
#491 = DIRECTION ( 'NONE',  ( 0.000000000000000000, 1.000000000000000000, 0.000000000000000000 ) ) ;
#492 = VECTOR ( 'NONE', #1054, 100.0000000000000000 ) ;
#493 = LINE ( 'NONE', #869, #1005 ) ;
#494 = ORIENTED_EDGE ( 'NONE', *, *, #633, .T. ) ;
#495 = DIRECTION ( 'NONE',  ( 0.000000000000000000, -0.000000000000000000, 1.000000000000000000 ) ) ;
#496 = VERTEX_POINT ( 'NONE', #1023 ) ;
#497 = LINE ( 'NONE', #885, #550 ) ;
#498 = EDGE_CURVE ( 'NONE', #702, #1078, #734, .T. ) ;
#499 = CARTESIAN_POINT ( 'NONE',  ( 4.773170731707320869, 0.000000000000000000, -0.008536585365855053897 ) ) ;
#500 = VERTEX_POINT ( 'NONE', #556 ) ;
#501 = CARTESIAN_POINT ( 'NONE',  ( 0.3500000000000003109, 0.4000000000000000222, -0.3499999999999994227 ) ) ;
#502 = ORIENTED_EDGE ( 'NONE', *, *, #1166, .F. ) ;
#503 = EDGE_CURVE ( 'NONE', #287, #370, #99, .T. ) ;
#504 = CC_DESIGN_SECURITY_CLASSIFICATION ( #334, ( #412 ) ) ;
#505 = DIRECTION ( 'NONE',  ( -0.000000000000000000, -1.000000000000000000, -0.000000000000000000 ) ) ;
#506 = DIRECTION ( 'NONE',  ( -0.000000000000000000, -1.000000000000000000, -0.000000000000000000 ) ) ;
#507 = CIRCLE ( 'NONE', #327, 9.900000000000023448 ) ;
#508 = ORIENTED_EDGE ( 'NONE', *, *, #989, .F. ) ;
#509 = DIRECTION ( 'NONE',  ( 0.000000000000000000, 0.000000000000000000, 1.000000000000000000 ) ) ;
#510 = ORIENTED_EDGE ( 'NONE', *, *, #592, .F. ) ;
#511 = CARTESIAN_POINT ( 'NONE',  ( 2.599999999999998757, 0.2000000000000000111, -11.24999999999998757 ) ) ;
#512 = CARTESIAN_POINT ( 'NONE',  ( 4.850000000000000533, 0.2000000000000000111, -0.3500000000000001998 ) ) ;
#513 = ORIENTED_EDGE ( 'NONE', *, *, #705, .F. ) ;
#514 = CARTESIAN_POINT ( 'NONE',  ( 2.600000000000003642, 0.000000000000000000, 9.650000000000021672 ) ) ;
#515 = ORIENTED_EDGE ( 'NONE', *, *, #147, .F. ) ;
#516 = CIRCLE ( 'NONE', #557, 0.1499999999999999667 ) ;
#517 = CARTESIAN_POINT ( 'NONE',  ( 0.6902097883097344511, 0.4000000000000000222, -0.2677972023696892356 ) ) ;
#518 = FACE_OUTER_BOUND ( 'NONE', #313, .T. ) ;
#519 = CARTESIAN_POINT ( 'NONE',  ( 0.3500000000000003109, 0.2000000000000000111, -0.3499999999999994227 ) ) ;
#520 = COORDINATED_UNIVERSAL_TIME_OFFSET ( 9, 0, .AHEAD. ) ;
#521 = AXIS2_PLACEMENT_3D ( 'NONE', #928, #1215, #731 ) ;
#522 = ORIENTED_EDGE ( 'NONE', *, *, #1155, .T. ) ;
#523 = EDGE_CURVE ( 'NONE', #399, #713, #816, .T. ) ;
#524 = FACE_OUTER_BOUND ( 'NONE', #753, .T. ) ;
#525 = ORIENTED_EDGE ( 'NONE', *, *, #1093, .T. ) ;
#526 = ORIENTED_EDGE ( 'NONE', *, *, #1175, .F. ) ;
#527 = EDGE_CURVE ( 'NONE', #240, #106, #365, .T. ) ;
#528 = CIRCLE ( 'NONE', #840, 0.1499999999999999667 ) ;
#529 = DIRECTION ( 'NONE',  ( -0.000000000000000000, -1.000000000000000000, -0.000000000000000000 ) ) ;
#530 = ORIENTED_EDGE ( 'NONE', *, *, #781, .F. ) ;
#531 = PERSON_AND_ORGANIZATION_ROLE ( 'design_supplier' ) ;
#532 = AXIS2_PLACEMENT_3D ( 'NONE', #514, #802, #987 ) ;
#533 = ORIENTED_EDGE ( 'NONE', *, *, #1209, .F. ) ;
#534 = CIRCLE ( 'NONE', #155, 0.4500000000000021205 ) ;
#535 = DIRECTION ( 'NONE',  ( 0.000000000000000000, 0.000000000000000000, 1.000000000000000000 ) ) ;
#536 = ADVANCED_FACE ( 'NONE', ( #361 ), #651, .F. ) ;
#537 = B_SPLINE_CURVE_WITH_KNOTS ( 'NONE', 3,
 ( #90, #183, #290, #193, #768, #187 ),
 .UNSPECIFIED., .F., .F.,
 ( 4, 2, 4 ),
 ( 0.000000000000000000, 0.001295736156836929318, 0.002591472313673858635 ),
 .UNSPECIFIED. ) ;
#538 = CARTESIAN_POINT ( 'NONE',  ( 0.3500000000000003109, 0.4000000000000000222, -0.3499999999999994227 ) ) ;
#539 = PERSON_AND_ORGANIZATION ( #1090, #60 ) ;
#540 = ORIENTED_EDGE ( 'NONE', *, *, #737, .T. ) ;
#541 = CARTESIAN_POINT ( 'NONE',  ( 0.1999999999999997891, 0.4000000000000000222, -0.9337722339831618923 ) ) ;
#542 = CC_DESIGN_DATE_AND_TIME_ASSIGNMENT ( #445, #226, ( #265 ) ) ;
#543 = CARTESIAN_POINT ( 'NONE',  ( 4.900000000000000355, 0.2000000000000000111, -1.249999999999987566 ) ) ;
#544 = VECTOR ( 'NONE', #529, 100.0000000000000000 ) ;
#545 = FACE_OUTER_BOUND ( 'NONE', #630, .T. ) ;
#546 = ORIENTED_EDGE ( 'NONE', *, *, #555, .T. ) ;
#547 = CARTESIAN_POINT ( 'NONE',  ( 4.850000000000000533, 0.2000000000000000111, -1.249999999999999778 ) ) ;
#548 = AXIS2_PLACEMENT_3D ( 'NONE', #1212, #64, #819 ) ;
#549 = CARTESIAN_POINT ( 'NONE',  ( 0.3500000000000003109, 0.4000000000000000222, -0.3499999999999994227 ) ) ;
#550 = VECTOR ( 'NONE', #161, 100.0000000000000000 ) ;
#551 = DIRECTION ( 'NONE',  ( -0.000000000000000000, -1.000000000000000000, 0.000000000000000000 ) ) ;
#552 = ADVANCED_FACE ( 'NONE', ( #266 ), #1198, .F. ) ;
#553 = ORIENTED_EDGE ( 'NONE', *, *, #902, .F. ) ;
#554 = CARTESIAN_POINT ( 'NONE',  ( 4.509790211690266837, 0.4000000000000000222, -1.332202797630313462 ) ) ;
#555 = EDGE_CURVE ( 'NONE', #434, #1164, #260, .T. ) ;
#556 = CARTESIAN_POINT ( 'NONE',  ( 0.3500000000000006439, 0.000000000000000000, -1.600000000000000089 ) ) ;
#557 = AXIS2_PLACEMENT_3D ( 'NONE', #645, #741, #1120 ) ;
#558 = FACE_BOUND ( 'NONE', #83, .T. ) ;
#559 = VERTEX_POINT ( 'NONE', #173 ) ;
#560 = DIRECTION ( 'NONE',  ( 0.000000000000000000, 1.000000000000000000, 0.000000000000000000 ) ) ;
#561 = DIRECTION ( 'NONE',  ( -0.000000000000000000, -1.000000000000000000, -0.000000000000000000 ) ) ;
#562 = DIRECTION ( 'NONE',  ( -0.000000000000000000, -1.000000000000000000, -0.000000000000000000 ) ) ;
#563 = VERTEX_POINT ( 'NONE', #347 ) ;
#564 = CARTESIAN_POINT ( 'NONE',  ( 2.599999999999998757, 0.4000000000000000222, -11.24999999999998757 ) ) ;
#565 = EDGE_CURVE ( 'NONE', #257, #1055, #1109, .T. ) ;
#566 = DIRECTION ( 'NONE',  ( -0.000000000000000000, -1.000000000000000000, -0.000000000000000000 ) ) ;
#567 = CARTESIAN_POINT ( 'NONE',  ( 4.850000000000000533, 0.4000000000000000222, -1.099999999999999201 ) ) ;
#568 = DATE_AND_TIME ( #1124, #387 ) ;
#569 = ORIENTED_EDGE ( 'NONE', *, *, #239, .T. ) ;
#570 = CARTESIAN_POINT ( 'NONE',  ( 6.938893903907228378E-16, 0.000000000000000000, -0.3499999999999994227 ) ) ;
#571 = LOCAL_TIME ( 23, 17, 2.000000000000000000, #994 ) ;
#572 = APPLICATION_CONTEXT ( 'configuration controlled 3d designs of mechanical parts and assemblies' ) ;
#573 = DIRECTION ( 'NONE',  ( 0.000000000000000000, 0.000000000000000000, -1.000000000000000000 ) ) ;
#574 = VECTOR ( 'NONE', #255, 100.0000000000000000 ) ;
#575 = CARTESIAN_POINT ( 'NONE',  ( 4.432886842729836019, 0.2692119867847273529, -1.251140383171771342 ) ) ;
#576 = EDGE_CURVE ( 'NONE', #961, #1164, #677, .T. ) ;
#577 = EDGE_LOOP ( 'NONE', ( #54, #649, #1213 ) ) ;
#578 = CARTESIAN_POINT ( 'NONE',  ( 4.401746409968827045, 0.2000000000000000111, -1.210392942242986658 ) ) ;
#579 = VERTEX_POINT ( 'NONE', #824 ) ;
#580 = DIRECTION ( 'NONE',  ( 0.000000000000000000, 0.000000000000000000, 1.000000000000000000 ) ) ;
#581 = CIRCLE ( 'NONE', #47, 9.899999999999986144 ) ;
#582 = CARTESIAN_POINT ( 'NONE',  ( 5.000000000000000888, 0.4000000000000000222, -0.9337722339831591167 ) ) ;
#583 = ORIENTED_EDGE ( 'NONE', *, *, #85, .F. ) ;
#584 = CARTESIAN_POINT ( 'NONE',  ( 4.850000000000000533, 0.000000000000000000, -1.400000000000000133 ) ) ;
#585 = ORIENTED_EDGE ( 'NONE', *, *, #767, .T. ) ;
#586 = DIRECTION ( 'NONE',  ( -0.000000000000000000, -1.000000000000000000, -0.000000000000000000 ) ) ;
#587 = CARTESIAN_POINT ( 'NONE',  ( 4.850000000000000533, 0.4000000000000000222, -1.249999999999999778 ) ) ;
#588 = VECTOR ( 'NONE', #937, 100.0000000000000000 ) ;
#589 = ORIENTED_EDGE ( 'NONE', *, *, #328, .F. ) ;
#590 = CARTESIAN_POINT ( 'NONE',  ( 4.509790211690269501, 0.4000000000000000222, -0.2677972023696898463 ) ) ;
#591 = ORIENTED_EDGE ( 'NONE', *, *, #1141, .F. ) ;
#592 = EDGE_CURVE ( 'NONE', #240, #782, #516, .T. ) ;
#593 = DIRECTION ( 'NONE',  ( 0.000000000000000000, 0.000000000000000000, 1.000000000000000000 ) ) ;
#594 = AXIS2_PLACEMENT_3D ( 'NONE', #211, #114, #783 ) ;
#595 = CONICAL_SURFACE ( 'NONE', #209, 10.20000000000002238, 0.4636476090008060935 ) ;
#596 = DIRECTION ( 'NONE',  ( -0.000000000000000000, -1.000000000000000000, -0.000000000000000000 ) ) ;
#597 = ORIENTED_EDGE ( 'NONE', *, *, #352, .T. ) ;
#598 = AXIS2_PLACEMENT_3D ( 'NONE', #1151, #107, #777 ) ;
#599 = DIRECTION ( 'NONE',  ( -0.000000000000000000, -1.000000000000000000, -0.000000000000000000 ) ) ;
#600 = ADVANCED_FACE ( 'NONE', ( #640 ), #272, .F. ) ;
#601 = AXIS2_PLACEMENT_3D ( 'NONE', #849, #566, #580 ) ;
#602 = FACE_OUTER_BOUND ( 'NONE', #249, .T. ) ;
#603 = CARTESIAN_POINT ( 'NONE',  ( 0.3500000000000006439, 0.2000000000000000111, -1.249999999999999334 ) ) ;
#604 = EDGE_LOOP ( 'NONE', ( #1032, #687, #1179, #515 ) ) ;
#605 = DIRECTION ( 'NONE',  ( 0.000000000000000000, 0.000000000000000000, 1.000000000000000000 ) ) ;
#606 = ORIENTED_EDGE ( 'NONE', *, *, #875, .T. ) ;
#607 = CONICAL_SURFACE ( 'NONE', #386, 0.4500000000000012879, 0.4636476090008046502 ) ;
#608 = CARTESIAN_POINT ( 'NONE',  ( 0.3500000000000006439, 0.2000000000000000111, -1.249999999999999334 ) ) ;
#609 = EDGE_CURVE ( 'NONE', #613, #1007, #1030, .T. ) ;
#610 = DIRECTION ( 'NONE',  ( 0.000000000000000000, 0.000000000000000000, -1.000000000000000000 ) ) ;
#611 = B_SPLINE_CURVE_WITH_KNOTS ( 'NONE', 3,
 ( #1035, #303, #291, #770, #280, #381 ),
 .UNSPECIFIED., .F., .F.,
 ( 4, 2, 4 ),
 ( 0.000000000000000000, 0.001295736156836926932, 0.002591472313673853865 ),
 .UNSPECIFIED. ) ;
#612 = CIRCLE ( 'NONE', #1182, 0.3500000000000006439 ) ;
#613 = VERTEX_POINT ( 'NONE', #916 ) ;
#614 = DATE_AND_TIME ( #701, #571 ) ;
#615 = ORIENTED_EDGE ( 'NONE', *, *, #197, .T. ) ;
#616 = DIRECTION ( 'NONE',  ( 0.000000000000000000, 0.000000000000000000, -1.000000000000000000 ) ) ;
#617 = CARTESIAN_POINT ( 'NONE',  ( 5.200000000000000178, 0.4000000000000000222, -1.249999999999999778 ) ) ;
#618 = EDGE_CURVE ( 'NONE', #702, #500, #167, .T. ) ;
#619 = DIRECTION ( 'NONE',  ( -0.000000000000000000, -1.000000000000000000, -0.000000000000000000 ) ) ;
#620 = CARTESIAN_POINT ( 'NONE',  ( 4.850000000000000533, 0.2000000000000000111, -0.8000000000000017097 ) ) ;
#621 = ORIENTED_EDGE ( 'NONE', *, *, #108, .T. ) ;
#622 = AXIS2_PLACEMENT_3D ( 'NONE', #279, #24, #868 ) ;
#623 = PRODUCT_RELATED_PRODUCT_CATEGORY ( 'detail', '', ( #215 ) ) ;
#624 = DIRECTION ( 'NONE',  ( -0.000000000000000000, -1.000000000000000000, 0.000000000000000000 ) ) ;
#625 = VERTEX_POINT ( 'NONE', #86 ) ;
#626 = DATE_AND_TIME ( #707, #846 ) ;
#627 = CIRCLE ( 'NONE', #81, 0.4500000000000028422 ) ;
#628 = ORIENTED_EDGE ( 'NONE', *, *, #2, .T. ) ;
#629 = CARTESIAN_POINT ( 'NONE',  ( 0.3500000000000003109, 0.4000000000000000222, -0.1999999999999994837 ) ) ;
#630 = EDGE_LOOP ( 'NONE', ( #128, #533, #952, #893, #310, #1181, #700, #1194, #413, #502, #936 ) ) ;
#631 = APPROVAL_STATUS ( 'not_yet_approved' ) ;
#632 = EDGE_LOOP ( 'NONE', ( #628, #597, #860, #1153 ) ) ;
#633 = EDGE_CURVE ( 'NONE', #713, #474, #1148, .T. ) ;
#634 = CARTESIAN_POINT ( 'NONE',  ( 0.7325646635749640811, 0.3366442633927598793, -1.291787029099606299 ) ) ;
#635 = CARTESIAN_POINT ( 'NONE',  ( 4.850000000000000533, 0.4000000000000000222, -0.7000000000000021760 ) ) ;
#636 = AXIS2_PLACEMENT_3D ( 'NONE', #1172, #866, #311 ) ;
#637 = VERTEX_POINT ( 'NONE', #341 ) ;
#638 = LINE ( 'NONE', #541, #864 ) ;
#639 = CIRCLE ( 'NONE', #1125, 0.3500000000000006439 ) ;
#640 = FACE_OUTER_BOUND ( 'NONE', #789, .T. ) ;
#641 = FACE_BOUND ( 'NONE', #28, .T. ) ;
#642 = AXIS2_PLACEMENT_3D ( 'NONE', #511, #505, #448 ) ;
#643 = ORIENTED_EDGE ( 'NONE', *, *, #366, .T. ) ;
#644 = CARTESIAN_POINT ( 'NONE',  ( 4.850000000000000533, 0.4000000000000000222, -1.099999999999999201 ) ) ;
#645 = CARTESIAN_POINT ( 'NONE',  ( 0.3500000000000006439, 0.4000000000000000222, -1.249999999999999334 ) ) ;
#646 = AXIS2_PLACEMENT_3D ( 'NONE', #58, #411, #1081 ) ;
#647 = CYLINDRICAL_SURFACE ( 'NONE', #189, 9.900000000000023448 ) ;
#648 = EDGE_CURVE ( 'NONE', #563, #884, #355, .T. ) ;
#649 = ORIENTED_EDGE ( 'NONE', *, *, #85, .T. ) ;
#650 = DIRECTION ( 'NONE',  ( -0.8944271909999166326, -0.4472135954999564844, 1.304853611640886528E-15 ) ) ;
#651 = PLANE ( 'NONE',  #259 ) ;
#652 = CARTESIAN_POINT ( 'NONE',  ( 0.7671131572701623824, 0.2692119867847272974, -0.3488596168282329102 ) ) ;
#653 = VERTEX_POINT ( 'NONE', #1147 ) ;
#654 = DIRECTION ( 'NONE',  ( -0.000000000000000000, -1.000000000000000000, -0.000000000000000000 ) ) ;
#655 = CIRCLE ( 'NONE', #594, 0.1500000000000003830 ) ;
#656 = DIRECTION ( 'NONE',  ( 0.000000000000000000, 0.000000000000000000, -1.000000000000000000 ) ) ;
#657 = CARTESIAN_POINT ( 'NONE',  ( 4.850000000000000533, 0.2000000000000000111, -0.3500000000000001998 ) ) ;
#658 = ORIENTED_EDGE ( 'NONE', *, *, #932, .F. ) ;
#659 = DIRECTION ( 'NONE',  ( 0.000000000000000000, 0.000000000000000000, 1.000000000000000000 ) ) ;
#660 = ADVANCED_FACE ( 'NONE', ( #388 ), #714, .T. ) ;
#661 = CARTESIAN_POINT ( 'NONE',  ( 0.1999999999999993172, 0.4000000000000000222, -0.9337722339831618923 ) ) ;
#662 = DIRECTION ( 'NONE',  ( 0.000000000000000000, 0.000000000000000000, 1.000000000000000000 ) ) ;
#663 = ORIENTED_EDGE ( 'NONE', *, *, #31, .T. ) ;
#664 = PLANE ( 'NONE',  #1121 ) ;
#665 = EDGE_CURVE ( 'NONE', #204, #305, #1044, .T. ) ;
#666 = FACE_OUTER_BOUND ( 'NONE', #102, .T. ) ;
#667 = DIRECTION ( 'NONE',  ( -0.000000000000000000, -0.000000000000000000, 1.000000000000000000 ) ) ;
#668 = ORIENTED_EDGE ( 'NONE', *, *, #1119, .F. ) ;
#669 = DIRECTION ( 'NONE',  ( -0.000000000000000000, -1.000000000000000000, -0.000000000000000000 ) ) ;
#670 = ORIENTED_EDGE ( 'NONE', *, *, #648, .T. ) ;
#671 = CARTESIAN_POINT ( 'NONE',  ( 0.3500000000000003109, 0.2000000000000000111, -0.3499999999999994227 ) ) ;
#672 = CARTESIAN_POINT ( 'NONE',  ( 4.401746409968828821, 0.2000000000000000111, -0.3896070577570141524 ) ) ;
#673 = VECTOR ( 'NONE', #442, 100.0000000000000000 ) ;
#674 = EDGE_LOOP ( 'NONE', ( #873, #827 ) ) ;
#675 = DIRECTION ( 'NONE',  ( 0.000000000000000000, 0.000000000000000000, -1.000000000000000000 ) ) ;
#676 = CARTESIAN_POINT ( 'NONE',  ( 0.3500000000000006439, 0.4000000000000000222, -1.600000000000000089 ) ) ;
#677 = CIRCLE ( 'NONE', #927, 0.3499999999999990896 ) ;
#678 = CYLINDRICAL_SURFACE ( 'NONE', #762, 9.900000000000023448 ) ;
#679 = EDGE_CURVE ( 'NONE', #61, #1059, #176, .T. ) ;
#680 = ORIENTED_EDGE ( 'NONE', *, *, #213, .F. ) ;
#681 = CARTESIAN_POINT ( 'NONE',  ( 0.1999999999999993172, 0.4000000000000000222, -0.9337722339831618923 ) ) ;
#682 = ORIENTED_EDGE ( 'NONE', *, *, #1116, .T. ) ;
#683 = CYLINDRICAL_SURFACE ( 'NONE', #968, 0.1500000000000004663 ) ;
#684 = CC_DESIGN_PERSON_AND_ORGANIZATION_ASSIGNMENT ( #1190, #1077, ( #265 ) ) ;
#685 = CARTESIAN_POINT ( 'NONE',  ( 0.7982535900311718002, 0.2000000000000000111, -0.3896070577570141524 ) ) ;
#686 = AXIS2_PLACEMENT_3D ( 'NONE', #364, #1033, #1139 ) ;
#687 = ORIENTED_EDGE ( 'NONE', *, *, #328, .T. ) ;
#688 = DIRECTION ( 'NONE',  ( 0.000000000000000000, 1.000000000000000000, 0.000000000000000000 ) ) ;
#689 = LINE ( 'NONE', #1064, #1084 ) ;
#690 = AXIS2_PLACEMENT_3D ( 'NONE', #409, #397, #772 ) ;
#691 = DIRECTION ( 'NONE',  ( -0.000000000000000000, -0.000000000000000000, 1.000000000000000000 ) ) ;
#692 = AXIS2_PLACEMENT_3D ( 'NONE', #232, #619, #986 ) ;
#693 = ORIENTED_EDGE ( 'NONE', *, *, #26, .F. ) ;
#694 = CYLINDRICAL_SURFACE ( 'NONE', #907, 0.3500000000000006439 ) ;
#695 = ORIENTED_EDGE ( 'NONE', *, *, #781, .T. ) ;
#696 = EDGE_CURVE ( 'NONE', #765, #1140, #295, .T. ) ;
#697 = VECTOR ( 'NONE', #854, 100.0000000000000000 ) ;
#698 = FACE_OUTER_BOUND ( 'NONE', #350, .T. ) ;
#699 = FACE_OUTER_BOUND ( 'NONE', #1150, .T. ) ;
#700 = ORIENTED_EDGE ( 'NONE', *, *, #971, .F. ) ;
#701 = CALENDAR_DATE ( 2024, 26, 9 ) ;
#702 = VERTEX_POINT ( 'NONE', #676 ) ;
#703 = CIRCLE ( 'NONE', #481, 0.3500000000000027534 ) ;
#704 = CARTESIAN_POINT ( 'NONE',  ( 2.599999999999998757, 0.4000000000000000222, -11.24999999999998757 ) ) ;
#705 = EDGE_CURVE ( 'NONE', #889, #976, #1206, .T. ) ;
#706 = CARTESIAN_POINT ( 'NONE',  ( 0.3500000000000006439, 0.4000000000000000222, -1.249999999999999334 ) ) ;
#707 = CALENDAR_DATE ( 2024, 26, 9 ) ;
#708 = ORIENTED_EDGE ( 'NONE', *, *, #407, .T. ) ;
#709 = EDGE_CURVE ( 'NONE', #782, #637, #1136, .T. ) ;
#710 = VECTOR ( 'NONE', #32, 100.0000000000000000 ) ;
#711 = DIRECTION ( 'NONE',  ( -0.000000000000000000, -1.000000000000000000, -0.000000000000000000 ) ) ;
#712 = ORIENTED_EDGE ( 'NONE', *, *, #438, .T. ) ;
#713 = VERTEX_POINT ( 'NONE', #963 ) ;
#714 = CONICAL_SURFACE ( 'NONE', #870, 0.4500000000000012879, 0.4636476090008046502 ) ;
#715 = CARTESIAN_POINT ( 'NONE',  ( 4.850000000000000533, 0.4000000000000000222, -1.249999999999999778 ) ) ;
#716 = ORIENTED_EDGE ( 'NONE', *, *, #918, .F. ) ;
#717 = PERSON_AND_ORGANIZATION ( #1090, #60 ) ;
#718 = EDGE_CURVE ( 'NONE', #765, #210, #455, .T. ) ;
#719 = EDGE_LOOP ( 'NONE', ( #615, #246, #5, #345 ) ) ;
#720 = CARTESIAN_POINT ( 'NONE',  ( 0.3500000000000003109, 0.4000000000000000222, -0.3499999999999994227 ) ) ;
#721 = EDGE_CURVE ( 'NONE', #487, #653, #78, .T. ) ;
#722 = ORIENTED_EDGE ( 'NONE', *, *, #767, .F. ) ;
#723 =( NAMED_UNIT ( * ) SI_UNIT ( $, .STERADIAN. ) SOLID_ANGLE_UNIT ( ) );
#724 = ORIENTED_EDGE ( 'NONE', *, *, #1162, .F. ) ;
#725 = DIRECTION ( 'NONE',  ( 0.000000000000000000, 1.000000000000000000, 0.000000000000000000 ) ) ;
#726 = CARTESIAN_POINT ( 'NONE',  ( 0.7982535900311732435, 0.2000000000000000111, -1.210392942242987102 ) ) ;
#727 = CARTESIAN_POINT ( 'NONE',  ( 0.2321958381422409012, 0.3356083237155183530, -0.7142317635649106933 ) ) ;
#728 = ORIENTED_EDGE ( 'NONE', *, *, #565, .T. ) ;
#729 = CARTESIAN_POINT ( 'NONE',  ( 4.850000000000000533, 0.4000000000000000222, -0.1999999999999998446 ) ) ;
#730 = ADVANCED_FACE ( 'NONE', ( #666 ), #943, .F. ) ;
#731 = DIRECTION ( 'NONE',  ( 0.000000000000000000, 0.000000000000000000, 1.000000000000000000 ) ) ;
#732 = CARTESIAN_POINT ( 'NONE',  ( 0.2158291244717636947, 0.3683417510564723774, -0.6912558093653802249 ) ) ;
#733 = ORIENTED_EDGE ( 'NONE', *, *, #213, .T. ) ;
#734 = CIRCLE ( 'NONE', #891, 0.3500000000000006439 ) ;
#735 = CARTESIAN_POINT ( 'NONE',  ( 0.2999999999999989897, 0.2000000000000000111, -1.249999999999999334 ) ) ;
#736 = DIRECTION ( 'NONE',  ( -0.000000000000000000, -1.000000000000000000, -0.000000000000000000 ) ) ;
#737 = EDGE_CURVE ( 'NONE', #1007, #301, #537, .T. ) ;
#738 = CARTESIAN_POINT ( 'NONE',  ( 4.850000000000000533, 0.000000000000000000, -0.3500000000000001998 ) ) ;
#739 = VERTEX_POINT ( 'NONE', #956 ) ;
#740 = CARTESIAN_POINT ( 'NONE',  ( 4.850000000000000533, 0.000000000000000000, -1.600000000000000311 ) ) ;
#741 = DIRECTION ( 'NONE',  ( 0.000000000000000000, 1.000000000000000000, 0.000000000000000000 ) ) ;
#742 = EDGE_CURVE ( 'NONE', #1061, #563, #812, .T. ) ;
#743 = DIRECTION ( 'NONE',  ( 0.000000000000000000, 1.000000000000000000, 0.000000000000000000 ) ) ;
#744 = PERSON_AND_ORGANIZATION ( #1090, #60 ) ;
#745 = ORIENTED_EDGE ( 'NONE', *, *, #989, .T. ) ;
#746 = FACE_BOUND ( 'NONE', #243, .T. ) ;
#747 = CIRCLE ( 'NONE', #785, 0.1500000000000003830 ) ;
#748 = CONICAL_SURFACE ( 'NONE', #271, 0.4500000000000025091, 0.4636476090008054274 ) ;
#749 = CIRCLE ( 'NONE', #1002, 9.900000000000023448 ) ;
#750 = CARTESIAN_POINT ( 'NONE',  ( 4.850000000000000533, 0.4000000000000000222, -1.400000000000000133 ) ) ;
#751 = PLANE ( 'NONE',  #1019 ) ;
#752 = AXIS2_PLACEMENT_3D ( 'NONE', #394, #491, #774 ) ;
#753 = EDGE_LOOP ( 'NONE', ( #589, #670, #1050, #680 ) ) ;
#754 = DIRECTION ( 'NONE',  ( 0.000000000000000000, 0.000000000000000000, -1.000000000000000000 ) ) ;
#755 = EDGE_CURVE ( 'NONE', #579, #1055, #200, .T. ) ;
#756 = DIRECTION ( 'NONE',  ( 0.000000000000000000, 1.000000000000000000, 0.000000000000000000 ) ) ;
#757 = CARTESIAN_POINT ( 'NONE',  ( 2.600000000000003642, 0.4000000000000000222, -0.2500000000000016098 ) ) ;
#758 = AXIS2_PLACEMENT_3D ( 'NONE', #1137, #207, #195 ) ;
#759 = ADVANCED_FACE ( 'NONE', ( #96 ), #683, .F. ) ;
#760 = ORIENTED_EDGE ( 'NONE', *, *, #555, .F. ) ;
#761 = DIRECTION ( 'NONE',  ( 0.000000000000000000, -0.000000000000000000, 1.000000000000000000 ) ) ;
#762 = AXIS2_PLACEMENT_3D ( 'NONE', #863, #596, #1052 ) ;
#763 = CARTESIAN_POINT ( 'NONE',  ( 0.2656213654997855445, 0.2687572690004280673, -0.8424582169308870716 ) ) ;
#764 = CARTESIAN_POINT ( 'NONE',  ( 4.401746409968827045, 0.2000000000000000111, -1.210392942242986658 ) ) ;
#765 = VERTEX_POINT ( 'NONE', #466 ) ;
#766 = CARTESIAN_POINT ( 'NONE',  ( 0.4268292682926831949, 0.000000000000000000, -0.008536585365854013063 ) ) ;
#767 = EDGE_CURVE ( 'NONE', #305, #287, #217, .T. ) ;
#768 = CARTESIAN_POINT ( 'NONE',  ( 4.984170875528236344, 0.3683417510564722663, -0.9087441906346175324 ) ) ;
#769 = EDGE_CURVE ( 'NONE', #1205, #961, #1129, .T. ) ;
#770 = CARTESIAN_POINT ( 'NONE',  ( 4.967804161857757528, 0.3356083237155185195, -0.7142317635649123586 ) ) ;
#771 = EDGE_LOOP ( 'NONE', ( #857, #887, #17, #141 ) ) ;
#772 = DIRECTION ( 'NONE',  ( 0.000000000000000000, 0.000000000000000000, -1.000000000000000000 ) ) ;
#773 = ORIENTED_EDGE ( 'NONE', *, *, #344, .F. ) ;
#774 = DIRECTION ( 'NONE',  ( 0.000000000000000000, 0.000000000000000000, 1.000000000000000000 ) ) ;
#775 = CARTESIAN_POINT ( 'NONE',  ( 4.509790211690266837, 0.4000000000000000222, -1.332202797630313462 ) ) ;
#776 = EDGE_LOOP ( 'NONE', ( #126, #225, #522 ) ) ;
#777 = DIRECTION ( 'NONE',  ( 0.000000000000000000, 0.000000000000000000, 1.000000000000000000 ) ) ;
#778 = ORIENTED_EDGE ( 'NONE', *, *, #331, .F. ) ;
#779 = CARTESIAN_POINT ( 'NONE',  ( 0.3500000000000006439, 0.000000000000000000, -1.249999999999999334 ) ) ;
#780 = CARTESIAN_POINT ( 'NONE',  ( 4.850000000000000533, 0.4000000000000000222, -1.249999999999999778 ) ) ;
#781 = EDGE_CURVE ( 'NONE', #1138, #496, #799, .T. ) ;
#782 = VERTEX_POINT ( 'NONE', #405 ) ;
#783 = DIRECTION ( 'NONE',  ( 0.000000000000000000, 0.000000000000000000, 1.000000000000000000 ) ) ;
#784 = CARTESIAN_POINT ( 'NONE',  ( 4.850000000000000533, 0.2000000000000000111, -0.3500000000000001998 ) ) ;
#785 = AXIS2_PLACEMENT_3D ( 'NONE', #199, #688, #605 ) ;
#786 = DIRECTION ( 'NONE',  ( 0.000000000000000000, -0.000000000000000000, 1.000000000000000000 ) ) ;
#787 = ORIENTED_EDGE ( 'NONE', *, *, #92, .T. ) ;
#788 = CARTESIAN_POINT ( 'NONE',  ( 4.850000000000000533, 0.4000000000000000222, -0.3500000000000001998 ) ) ;
#789 = EDGE_LOOP ( 'NONE', ( #452, #969, #865, #716 ) ) ;
#790 = EDGE_CURVE ( 'NONE', #976, #889, #909, .T. ) ;
#791 = CARTESIAN_POINT ( 'NONE',  ( 4.999999999999999112, 0.4000000000000000222, -0.6662277660168386406 ) ) ;
#792 = AXIS2_PLACEMENT_3D ( 'NONE', #549, #1108, #63 ) ;
#793 = DIRECTION ( 'NONE',  ( -0.000000000000000000, -1.000000000000000000, -0.000000000000000000 ) ) ;
#794 = ORIENTED_EDGE ( 'NONE', *, *, #1093, .F. ) ;
#795 = APPROVAL_ROLE ( '' ) ;
#796 = EDGE_LOOP ( 'NONE', ( #419, #275, #34, #51 ) ) ;
#797 = AXIS2_PLACEMENT_3D ( 'NONE', #105, #98, #477 ) ;
#798 = FACE_OUTER_BOUND ( 'NONE', #202, .T. ) ;
#799 = B_SPLINE_CURVE_WITH_KNOTS ( 'NONE', 3,
 ( #661, #13, #938, #763, #483, #214 ),
 .UNSPECIFIED., .F., .F.,
 ( 4, 2, 4 ),
 ( 2.602085213965210256E-18, 0.001295736156836932353, 0.002591472313673862105 ),
 .UNSPECIFIED. ) ;
#800 = CARTESIAN_POINT ( 'NONE',  ( 2.599999999999998757, 0.2000000000000000111, -11.24999999999998757 ) ) ;
#801 = EDGE_LOOP ( 'NONE', ( #429, #1158, #338, #340 ) ) ;
#802 = DIRECTION ( 'NONE',  ( -0.000000000000000000, -1.000000000000000000, 0.000000000000000000 ) ) ;
#803 = ORIENTED_EDGE ( 'NONE', *, *, #1208, .T. ) ;
#804 = ADVANCED_FACE ( 'NONE', ( #890 ), #823, .F. ) ;
#805 = DIRECTION ( 'NONE',  ( 0.000000000000000000, 0.000000000000000000, -1.000000000000000000 ) ) ;
#806 = AXIS2_PLACEMENT_3D ( 'NONE', #788, #121, #509 ) ;
#807 = AXIS2_PLACEMENT_3D ( 'NONE', #1127, #654, #659 ) ;
#808 = EDGE_CURVE ( 'NONE', #1076, #399, #379, .T. ) ;
#809 = VERTEX_POINT ( 'NONE', #425 ) ;
#810 = PERSON_AND_ORGANIZATION_ROLE ( 'creator' ) ;
#811 = EDGE_LOOP ( 'NONE', ( #1196, #658, #530, #30 ) ) ;
#812 = CIRCLE ( 'NONE', #119, 0.3500000000000014211 ) ;
#813 = DIRECTION ( 'NONE',  ( -0.000000000000000000, -1.000000000000000000, -0.000000000000000000 ) ) ;
#814 = ORIENTED_EDGE ( 'NONE', *, *, #182, .T. ) ;
#815 = ORIENTED_EDGE ( 'NONE', *, *, #304, .F. ) ;
#816 = B_SPLINE_CURVE_WITH_KNOTS ( 'NONE', 3,
 ( #247, #634, #818, #726 ),
 .UNSPECIFIED., .F., .F.,
 ( 4, 4 ),
 ( 1.226634733346699156E-18, 0.002578974679206916341 ),
 .UNSPECIFIED. ) ;
#817 = CIRCLE ( 'NONE', #1135, 10.19999999999998685 ) ;
#818 = CARTESIAN_POINT ( 'NONE',  ( 0.7671131572701632706, 0.2692119867847277415, -1.251140383171769788 ) ) ;
#819 = DIRECTION ( 'NONE',  ( 0.000000000000000000, 0.000000000000000000, -1.000000000000000000 ) ) ;
#820 = PERSON_AND_ORGANIZATION ( #1090, #60 ) ;
#821 = ADVANCED_FACE ( 'NONE', ( #1201 ), #317, .T. ) ;
#822 = ORIENTED_EDGE ( 'NONE', *, *, #971, .T. ) ;
#823 = CYLINDRICAL_SURFACE ( 'NONE', #440, 0.1499999999999999667 ) ;
#824 = CARTESIAN_POINT ( 'NONE',  ( 0.4268292682926780879, 0.4000000000000000222, -1.591463414634149087 ) ) ;
#825 = ADVANCED_FACE ( 'NONE', ( #351 ), #162, .T. ) ;
#826 = FACE_BOUND ( 'NONE', #263, .T. ) ;
#827 = ORIENTED_EDGE ( 'NONE', *, *, #1000, .F. ) ;
#828 = CARTESIAN_POINT ( 'NONE',  ( 4.850000000000000533, 0.000000000000000000, -0.5000000000000006661 ) ) ;
#829 = EDGE_CURVE ( 'NONE', #61, #1014, #137, .T. ) ;
#830 = AXIS2_PLACEMENT_3D ( 'NONE', #450, #454, #1192 ) ;
#831 = CARTESIAN_POINT ( 'NONE',  ( 0.3500000000000006439, 0.4000000000000000222, -1.249999999999999334 ) ) ;
#832 = CARTESIAN_POINT ( 'NONE',  ( 0.7325646635749658575, 0.3366442633927601569, -0.3082129709003974538 ) ) ;
#833 = ORIENTED_EDGE ( 'NONE', *, *, #721, .F. ) ;
#834 = DIRECTION ( 'NONE',  ( 0.000000000000000000, 0.000000000000000000, 1.000000000000000000 ) ) ;
#835 = CARTESIAN_POINT ( 'NONE',  ( 0.3500000000000006439, 0.4000000000000000222, -1.399999999999999245 ) ) ;
#836 = FACE_OUTER_BOUND ( 'NONE', #165, .T. ) ;
#837 = SHAPE_DEFINITION_REPRESENTATION ( #1067, #1193 ) ;
#838 = ORIENTED_EDGE ( 'NONE', *, *, #2, .F. ) ;
#839 = DIRECTION ( 'NONE',  ( 0.000000000000000000, 1.000000000000000000, 0.000000000000000000 ) ) ;
#840 = AXIS2_PLACEMENT_3D ( 'NONE', #166, #1112, #79 ) ;
#841 = CARTESIAN_POINT ( 'NONE',  ( 0.3500000000000006439, 0.4000000000000000222, -1.099999999999999423 ) ) ;
#842 = CARTESIAN_POINT ( 'NONE',  ( 2.600000000000003642, 0.000000000000000000, 9.650000000000021672 ) ) ;
#843 = ADVANCED_FACE ( 'NONE', ( #698 ), #1008, .F. ) ;
#844 = ORIENTED_EDGE ( 'NONE', *, *, #897, .T. ) ;
#845 = DIRECTION ( 'NONE',  ( -0.000000000000000000, -1.000000000000000000, -0.000000000000000000 ) ) ;
#846 = LOCAL_TIME ( 23, 17, 2.000000000000000000, #912 ) ;
#847 = CIRCLE ( 'NONE', #156, 0.4500000000000011768 ) ;
#848 = AXIS2_PLACEMENT_3D ( 'NONE', #587, #957, #1143 ) ;
#849 = CARTESIAN_POINT ( 'NONE',  ( 2.600000000000003642, 0.2000000000000000111, 9.650000000000021672 ) ) ;
#850 = LINE ( 'NONE', #1045, #435 ) ;
#851 = ORIENTED_EDGE ( 'NONE', *, *, #755, .T. ) ;
#852 = CARTESIAN_POINT ( 'NONE',  ( 4.850000000000000533, 0.000000000000000000, -0.1999999999999998446 ) ) ;
#853 = UNCERTAINTY_MEASURE_WITH_UNIT (LENGTH_MEASURE( 1.000000000000000082E-05 ), #134, 'distance_accuracy_value', 'NONE');
#854 = DIRECTION ( 'NONE',  ( -0.000000000000000000, -1.000000000000000000, -0.000000000000000000 ) ) ;
#855 = DIRECTION ( 'NONE',  ( -0.000000000000000000, -1.000000000000000000, -0.000000000000000000 ) ) ;
#856 = CIRCLE ( 'NONE', #66, 0.3500000000000021982 ) ;
#857 = ORIENTED_EDGE ( 'NONE', *, *, #461, .T. ) ;
#858 = PLANE ( 'NONE',  #1167 ) ;
#859 = ADVANCED_FACE ( 'NONE', ( #798 ), #392, .T. ) ;
#860 = ORIENTED_EDGE ( 'NONE', *, *, #665, .F. ) ;
#861 = VECTOR ( 'NONE', #562, 100.0000000000000000 ) ;
#862 = DIRECTION ( 'NONE',  ( 0.000000000000000000, 0.000000000000000000, 1.000000000000000000 ) ) ;
#863 = CARTESIAN_POINT ( 'NONE',  ( 2.600000000000003642, 0.4000000000000000222, 9.650000000000021672 ) ) ;
#864 = VECTOR ( 'NONE', #879, 100.0000000000000000 ) ;
#865 = ORIENTED_EDGE ( 'NONE', *, *, #1114, .F. ) ;
#866 = DIRECTION ( 'NONE',  ( -0.000000000000000000, -1.000000000000000000, -0.000000000000000000 ) ) ;
#867 = LOCAL_TIME ( 23, 17, 2.000000000000000000, #65 ) ;
#868 = DIRECTION ( 'NONE',  ( 0.000000000000000000, 0.000000000000000000, 1.000000000000000000 ) ) ;
#869 = CARTESIAN_POINT ( 'NONE',  ( 0.3500000000000003109, 0.4000000000000000222, -0.4999999999999993894 ) ) ;
#870 = AXIS2_PLACEMENT_3D ( 'NONE', #671, #1034, #1051 ) ;
#871 = ORIENTED_EDGE ( 'NONE', *, *, #132, .F. ) ;
#872 = CARTESIAN_POINT ( 'NONE',  ( 4.850000000000000533, 0.4000000000000000222, -1.249999999999999778 ) ) ;
#873 = ORIENTED_EDGE ( 'NONE', *, *, #718, .F. ) ;
#874 = DIRECTION ( 'NONE',  ( -0.000000000000000000, -1.000000000000000000, -0.000000000000000000 ) ) ;
#875 = EDGE_CURVE ( 'NONE', #210, #464, #258, .T. ) ;
#876 = DIRECTION ( 'NONE',  ( 0.000000000000000000, 0.000000000000000000, 1.000000000000000000 ) ) ;
#877 = ORIENTED_EDGE ( 'NONE', *, *, #1046, .F. ) ;
#878 = DIRECTION ( 'NONE',  ( 0.000000000000000000, 0.000000000000000000, 1.000000000000000000 ) ) ;
#879 = DIRECTION ( 'NONE',  ( 1.458870688157565315E-15, 0.000000000000000000, 1.000000000000000000 ) ) ;
#880 = CARTESIAN_POINT ( 'NONE',  ( 0.3500000000000003109, 0.2000000000000000111, -0.3499999999999994227 ) ) ;
#881 = EDGE_CURVE ( 'NONE', #106, #637, #1022, .T. ) ;
#882 = CARTESIAN_POINT ( 'NONE',  ( 0.3500000000000006439, 0.2000000000000000111, -1.249999999999999334 ) ) ;
#883 = B_SPLINE_CURVE_WITH_KNOTS ( 'NONE', 3,
 ( #456, #652, #832, #1004 ),
 .UNSPECIFIED., .F., .F.,
 ( 4, 4 ),
 ( 0.000000000000000000, 0.002578974679206885116 ),
 .UNSPECIFIED. ) ;
#884 = VERTEX_POINT ( 'NONE', #517 ) ;
#885 = CARTESIAN_POINT ( 'NONE',  ( 2.600000000000003642, 0.4000000000000000222, -0.2500000000000016098 ) ) ;
#886 = DIRECTION ( 'NONE',  ( 0.000000000000000000, -0.8944271909999157444, -0.4472135954999578722 ) ) ;
#887 = ORIENTED_EDGE ( 'NONE', *, *, #769, .F. ) ;
#888 = APPROVAL_STATUS ( 'not_yet_approved' ) ;
#889 = VERTEX_POINT ( 'NONE', #346 ) ;
#890 = FACE_OUTER_BOUND ( 'NONE', #142, .T. ) ;
#891 = AXIS2_PLACEMENT_3D ( 'NONE', #831, #934, #535 ) ;
#892 = DIRECTION ( 'NONE',  ( 0.000000000000000000, 0.000000000000000000, 1.000000000000000000 ) ) ;
#893 = ORIENTED_EDGE ( 'NONE', *, *, #576, .F. ) ;
#894 = CALENDAR_DATE ( 2024, 26, 9 ) ;
#895 = ORIENTED_EDGE ( 'NONE', *, *, #944, .F. ) ;
#896 = ADVANCED_FACE ( 'NONE', ( #117 ), #221, .T. ) ;
#897 = EDGE_CURVE ( 'NONE', #268, #908, #497, .T. ) ;
#898 = LINE ( 'NONE', #1188, #460 ) ;
#899 = ORIENTED_EDGE ( 'NONE', *, *, #385, .T. ) ;
#900 = DIRECTION ( 'NONE',  ( 0.000000000000000000, 0.000000000000000000, 1.000000000000000000 ) ) ;
#901 = AXIS2_PLACEMENT_3D ( 'NONE', #123, #41, #417 ) ;
#902 = EDGE_CURVE ( 'NONE', #1138, #1061, #638, .T. ) ;
#903 = ORIENTED_EDGE ( 'NONE', *, *, #944, .T. ) ;
#904 = CARTESIAN_POINT ( 'NONE',  ( 4.850000000000000533, 0.2000000000000000111, -0.7999999999999969358 ) ) ;
#905 =( GEOMETRIC_REPRESENTATION_CONTEXT ( 3 ) GLOBAL_UNCERTAINTY_ASSIGNED_CONTEXT ( ( #853 ) ) GLOBAL_UNIT_ASSIGNED_CONTEXT ( ( #134, #343, #723 ) ) REPRESENTATION_CONTEXT ( 'NONE', 'WORKASPACE' ) );
#906 = ORIENTED_EDGE ( 'NONE', *, *, #1046, .T. ) ;
#907 = AXIS2_PLACEMENT_3D ( 'NONE', #191, #599, #22 ) ;
#908 = VERTEX_POINT ( 'NONE', #307 ) ;
#909 = CIRCLE ( 'NONE', #1173, 0.1499999999999999667 ) ;
#910 = CYLINDRICAL_SURFACE ( 'NONE', #792, 0.3499999999999990896 ) ;
#911 = FACE_OUTER_BOUND ( 'NONE', #771, .T. ) ;
#912 = COORDINATED_UNIVERSAL_TIME_OFFSET ( 9, 0, .AHEAD. ) ;
#913 = ORIENTED_EDGE ( 'NONE', *, *, #679, .F. ) ;
#914 = DIRECTION ( 'NONE',  ( -0.000000000000000000, -1.000000000000000000, -0.000000000000000000 ) ) ;
#915 = APPROVAL_PERSON_ORGANIZATION ( #744, #115, #1217 ) ;
#916 = CARTESIAN_POINT ( 'NONE',  ( 4.899999999999998579, 0.2000000000000000111, -0.7972135954999596263 ) ) ;
#917 = CARTESIAN_POINT ( 'NONE',  ( 0.1999999999999997058, 0.4000000000000000222, -0.6662277660168386406 ) ) ;
#918 = EDGE_CURVE ( 'NONE', #1059, #974, #689, .T. ) ;
#919 = ORIENTED_EDGE ( 'NONE', *, *, #665, .T. ) ;
#920 = CYLINDRICAL_SURFACE ( 'NONE', #1122, 9.899999999999986144 ) ;
#921 = AXIS2_PLACEMENT_3D ( 'NONE', #608, #1073, #616 ) ;
#922 = CARTESIAN_POINT ( 'NONE',  ( 4.850000000000000533, 0.4000000000000000222, -0.3500000000000001998 ) ) ;
#923 = ADVANCED_FACE ( 'NONE', ( #602 ), #970, .F. ) ;
#924 = CARTESIAN_POINT ( 'NONE',  ( 0.2826855287175185083, 0.2346289425649626670, -0.7778554281089105071 ) ) ;
#925 = ORIENTED_EDGE ( 'NONE', *, *, #1114, .T. ) ;
#926 = CARTESIAN_POINT ( 'NONE',  ( 0.2999999999999989897, 0.2000000000000000111, -1.249999999999999334 ) ) ;
#927 = AXIS2_PLACEMENT_3D ( 'NONE', #1001, #69, #254 ) ;
#928 = CARTESIAN_POINT ( 'NONE',  ( 5.200000000000000178, 0.4000000000000000222, -0.3500000000000001998 ) ) ;
#929 = DIRECTION ( 'NONE',  ( -0.000000000000000000, -1.000000000000000000, -0.000000000000000000 ) ) ;
#930 = VERTEX_POINT ( 'NONE', #791 ) ;
#931 = CARTESIAN_POINT ( 'NONE',  ( 4.850000000000000533, 0.4000000000000000222, -1.249999999999999778 ) ) ;
#932 = EDGE_CURVE ( 'NONE', #496, #559, #1176, .T. ) ;
#933 = ADVANCED_FACE ( 'NONE', ( #941, #469, #458, #465, #746, #1021 ), #177, .T. ) ;
#934 = DIRECTION ( 'NONE',  ( 0.000000000000000000, 1.000000000000000000, 0.000000000000000000 ) ) ;
#935 = DIRECTION ( 'NONE',  ( -0.000000000000000000, -1.000000000000000000, -0.000000000000000000 ) ) ;
#936 = ORIENTED_EDGE ( 'NONE', *, *, #459, .F. ) ;
#937 = DIRECTION ( 'NONE',  ( -0.000000000000000000, -1.000000000000000000, -0.000000000000000000 ) ) ;
#938 = CARTESIAN_POINT ( 'NONE',  ( 0.2321958381422405682, 0.3356083237155188526, -0.8857682364350876192 ) ) ;
#939 = DIRECTION ( 'NONE',  ( 0.000000000000000000, 0.000000000000000000, 1.000000000000000000 ) ) ;
#940 = EDGE_LOOP ( 'NONE', ( #728, #218, #227, #787 ) ) ;
#941 = FACE_BOUND ( 'NONE', #1020, .T. ) ;
#942 = CIRCLE ( 'NONE', #312, 0.1500000000000004663 ) ;
#943 = CYLINDRICAL_SURFACE ( 'NONE', #1130, 0.1500000000000003830 ) ;
#944 = EDGE_CURVE ( 'NONE', #782, #240, #528, .T. ) ;
#945 = DIRECTION ( 'NONE',  ( 0.000000000000000000, 0.000000000000000000, 1.000000000000000000 ) ) ;
#946 = ORIENTED_EDGE ( 'NONE', *, *, #523, .F. ) ;
#947 = LINE ( 'NONE', #1060, #492 ) ;
#948 = VECTOR ( 'NONE', #736, 100.0000000000000000 ) ;
#949 = ORIENTED_EDGE ( 'NONE', *, *, #182, .F. ) ;
#950 = DIRECTION ( 'NONE',  ( 0.000000000000000000, 0.000000000000000000, 1.000000000000000000 ) ) ;
#951 = DIRECTION ( 'NONE',  ( 0.000000000000000000, 1.000000000000000000, 0.000000000000000000 ) ) ;
#952 = ORIENTED_EDGE ( 'NONE', *, *, #138, .F. ) ;
#953 = FACE_OUTER_BOUND ( 'NONE', #577, .T. ) ;
#954 = EDGE_CURVE ( 'NONE', #1078, #154, #453, .T. ) ;
#955 = ORIENTED_EDGE ( 'NONE', *, *, #498, .F. ) ;
#956 = CARTESIAN_POINT ( 'NONE',  ( 5.200000000000000178, 0.4000000000000000222, -1.249999999999999778 ) ) ;
#957 = DIRECTION ( 'NONE',  ( -0.000000000000000000, -1.000000000000000000, -0.000000000000000000 ) ) ;
#958 = CC_DESIGN_PERSON_AND_ORGANIZATION_ASSIGNMENT ( #339, #810, ( #412 ) ) ;
#959 = EDGE_LOOP ( 'NONE', ( #441, #1200, #122, #1189, #1082, #814, #1094, #45, #621, #682, #712 ) ) ;
#960 = DIRECTION ( 'NONE',  ( 0.000000000000000000, 0.000000000000000000, -1.000000000000000000 ) ) ;
#961 = VERTEX_POINT ( 'NONE', #570 ) ;
#962 = AXIS2_PLACEMENT_3D ( 'NONE', #931, #6, #269 ) ;
#963 = CARTESIAN_POINT ( 'NONE',  ( 0.7982535900311732435, 0.2000000000000000111, -1.210392942242987102 ) ) ;
#964 = CIRCLE ( 'NONE', #1062, 0.1499999999999999667 ) ;
#965 = CARTESIAN_POINT ( 'NONE',  ( 0.3500000000000006439, 0.000000000000000000, -1.249999999999999334 ) ) ;
#966 = ORIENTED_EDGE ( 'NONE', *, *, #72, .F. ) ;
#967 = DIRECTION ( 'NONE',  ( 0.000000000000000000, 0.000000000000000000, 1.000000000000000000 ) ) ;
#968 = AXIS2_PLACEMENT_3D ( 'NONE', #1056, #206, #476 ) ;
#969 = ORIENTED_EDGE ( 'NONE', *, *, #829, .T. ) ;
#970 = CYLINDRICAL_SURFACE ( 'NONE', #901, 0.1499999999999999667 ) ;
#971 = EDGE_CURVE ( 'NONE', #1055, #500, #368, .T. ) ;
#972 = CARTESIAN_POINT ( 'NONE',  ( 4.850000000000000533, 0.000000000000000000, -1.099999999999999201 ) ) ;
#973 = CONICAL_SURFACE ( 'NONE', #1016, 0.4500000000000015099, 0.4636476090008037065 ) ;
#974 = VERTEX_POINT ( 'NONE', #828 ) ;
#975 = CARTESIAN_POINT ( 'NONE',  ( 2.600000000000003642, 0.4000000000000000222, 9.650000000000021672 ) ) ;
#976 = VERTEX_POINT ( 'NONE', #95 ) ;
#977 = APPROVAL ( #888, 'UNSPECIFIED' ) ;
#978 = DIRECTION ( 'NONE',  ( -0.000000000000000000, -1.000000000000000000, -0.000000000000000000 ) ) ;
#979 = DIRECTION ( 'NONE',  ( 0.000000000000000000, 0.000000000000000000, 1.000000000000000000 ) ) ;
#980 = VERTEX_POINT ( 'NONE', #740 ) ;
#981 = SECURITY_CLASSIFICATION_LEVEL ( 'unclassified' ) ;
#982 = ORIENTED_EDGE ( 'NONE', *, *, #261, .T. ) ;
#983 = DIRECTION ( 'NONE',  ( 0.000000000000000000, 0.000000000000000000, -1.000000000000000000 ) ) ;
#984 = DIRECTION ( 'NONE',  ( 0.000000000000000000, 1.000000000000000000, 0.000000000000000000 ) ) ;
#985 = ADVANCED_FACE ( 'NONE', ( #1027 ), #1214, .T. ) ;
#986 = DIRECTION ( 'NONE',  ( 0.000000000000000000, 0.000000000000000000, 1.000000000000000000 ) ) ;
#987 = DIRECTION ( 'NONE',  ( 0.000000000000000000, 0.000000000000000000, -1.000000000000000000 ) ) ;
#988 = AXIS2_PLACEMENT_3D ( 'NONE', #1221, #756, #18 ) ;
#989 = EDGE_CURVE ( 'NONE', #1140, #464, #1057, .T. ) ;
#990 = ORIENTED_EDGE ( 'NONE', *, *, #438, .F. ) ;
#991 = CIRCLE ( 'NONE', #1152, 9.900000000000023448 ) ;
#992 = CARTESIAN_POINT ( 'NONE',  ( 2.599999999999998757, 0.4000000000000000222, -11.24999999999998757 ) ) ;
#993 = CARTESIAN_POINT ( 'NONE',  ( 4.999999999999999112, 0.4000000000000000222, -0.6662277660168386406 ) ) ;
#994 = COORDINATED_UNIVERSAL_TIME_OFFSET ( 9, 0, .AHEAD. ) ;
#995 = ORIENTED_EDGE ( 'NONE', *, *, #1141, .T. ) ;
#996 = APPLICATION_CONTEXT ( 'configuration controlled 3d designs of mechanical parts and assemblies' ) ;
#997 = CYLINDRICAL_SURFACE ( 'NONE', #1049, 0.3500000000000006439 ) ;
#998 = VERTEX_POINT ( 'NONE', #1118 ) ;
#999 = ORIENTED_EDGE ( 'NONE', *, *, #696, .F. ) ;
#1000 = EDGE_CURVE ( 'NONE', #210, #765, #57, .T. ) ;
#1001 = CARTESIAN_POINT ( 'NONE',  ( 0.3500000000000003109, 0.000000000000000000, -0.3499999999999994227 ) ) ;
#1002 = AXIS2_PLACEMENT_3D ( 'NONE', #975, #127, #960 ) ;
#1003 = AXIS2_PLACEMENT_3D ( 'NONE', #1204, #929, #1199 ) ;
#1004 = CARTESIAN_POINT ( 'NONE',  ( 0.6902097883097344511, 0.4000000000000000222, -0.2677972023696892356 ) ) ;
#1005 = VECTOR ( 'NONE', #401, 100.0000000000000000 ) ;
#1006 = PERSON_AND_ORGANIZATION_ROLE ( 'design_owner' ) ;
#1007 = VERTEX_POINT ( 'NONE', #264 ) ;
#1008 = CYLINDRICAL_SURFACE ( 'NONE', #231, 0.1499999999999999667 ) ;
#1009 = AXIS2_PLACEMENT_3D ( 'NONE', #704, #914, #315 ) ;
#1010 = CARTESIAN_POINT ( 'NONE',  ( 0.4268292682926831949, 0.4000000000000000222, -0.008536585365854013063 ) ) ;
#1011 = ADVANCED_FACE ( 'NONE', ( #378 ), #748, .T. ) ;
#1012 = CARTESIAN_POINT ( 'NONE',  ( 2.600000000000003642, 0.4000000000000000222, 9.650000000000021672 ) ) ;
#1013 = APPROVAL_STATUS ( 'not_yet_approved' ) ;
#1014 = VERTEX_POINT ( 'NONE', #852 ) ;
#1015 = CARTESIAN_POINT ( 'NONE',  ( 4.850000000000000533, 0.4000000000000000222, -0.3500000000000001998 ) ) ;
#1016 = AXIS2_PLACEMENT_3D ( 'NONE', #512, #337, #610 ) ;
#1017 = CARTESIAN_POINT ( 'NONE',  ( 4.900000000000000355, 0.2000000000000000111, -1.249999999999987566 ) ) ;
#1018 = FACE_OUTER_BOUND ( 'NONE', #1072, .T. ) ;
#1019 = AXIS2_PLACEMENT_3D ( 'NONE', #738, #1110, #1131 ) ;
#1020 = EDGE_LOOP ( 'NONE', ( #62, #489, #151, #693, #591, #1036, #877, #838, #180, #1191, #553 ) ) ;
#1021 = FACE_BOUND ( 'NONE', #9, .T. ) ;
#1022 = CIRCLE ( 'NONE', #490, 0.1499999999999999667 ) ;
#1023 = CARTESIAN_POINT ( 'NONE',  ( 0.2999999999999996558, 0.2000000000000000111, -0.8027864045000394633 ) ) ;
#1024 = LOCAL_TIME ( 23, 17, 2.000000000000000000, #520 ) ;
#1025 = CYLINDRICAL_SURFACE ( 'NONE', #1003, 0.1500000000000004663 ) ;
#1026 = ORIENTED_EDGE ( 'NONE', *, *, #242, .F. ) ;
#1027 = FACE_OUTER_BOUND ( 'NONE', #439, .T. ) ;
#1028 = ADVANCED_FACE ( 'NONE', ( #371 ), #595, .T. ) ;
#1029 = VECTOR ( 'NONE', #586, 100.0000000000000000 ) ;
#1030 = LINE ( 'NONE', #1017, #673 ) ;
#1031 = LINE ( 'NONE', #273, #574 ) ;
#1032 = ORIENTED_EDGE ( 'NONE', *, *, #742, .T. ) ;
#1033 = DIRECTION ( 'NONE',  ( -0.000000000000000000, -1.000000000000000000, -0.000000000000000000 ) ) ;
#1034 = DIRECTION ( 'NONE',  ( -0.000000000000000000, -1.000000000000000000, -0.000000000000000000 ) ) ;
#1035 = CARTESIAN_POINT ( 'NONE',  ( 4.899999999999998579, 0.2000000000000000111, -0.7972135954999596263 ) ) ;
#1036 = ORIENTED_EDGE ( 'NONE', *, *, #109, .F. ) ;
#1037 = CARTESIAN_POINT ( 'NONE',  ( 0.000000000000000000, 0.4000000000000000222, -1.249999999999999334 ) ) ;
#1038 = ADVANCED_FACE ( 'NONE', ( #181 ), #920, .F. ) ;
#1039 = DIRECTION ( 'NONE',  ( -0.000000000000000000, -1.000000000000000000, -0.000000000000000000 ) ) ;
#1040 = DIRECTION ( 'NONE',  ( 4.625929269271456134E-15, 0.000000000000000000, 1.000000000000000000 ) ) ;
#1041 = ORIENTED_EDGE ( 'NONE', *, *, #709, .F. ) ;
#1042 = CARTESIAN_POINT ( 'NONE',  ( 4.850000000000000533, 0.4000000000000000222, -0.3500000000000001998 ) ) ;
#1043 = CARTESIAN_POINT ( 'NONE',  ( 4.850000000000000533, 0.4000000000000000222, -0.3500000000000001998 ) ) ;
#1044 = CIRCLE ( 'NONE', #139, 10.20000000000002238 ) ;
#1045 = CARTESIAN_POINT ( 'NONE',  ( 0.3500000000000003109, 0.4000000000000000222, -0.1999999999999994837 ) ) ;
#1046 = EDGE_CURVE ( 'NONE', #185, #625, #373, .T. ) ;
#1047 = EDGE_LOOP ( 'NONE', ( #1117, #299, #513, #408 ) ) ;
#1048 = FACE_OUTER_BOUND ( 'NONE', #1047, .T. ) ;
#1049 = AXIS2_PLACEMENT_3D ( 'NONE', #715, #49, #805 ) ;
#1050 = ORIENTED_EDGE ( 'NONE', *, *, #153, .F. ) ;
#1051 = DIRECTION ( 'NONE',  ( 0.000000000000000000, 0.000000000000000000, -1.000000000000000000 ) ) ;
#1052 = DIRECTION ( 'NONE',  ( 0.000000000000000000, 0.000000000000000000, -1.000000000000000000 ) ) ;
#1053 = EDGE_LOOP ( 'NONE', ( #1089, #773, #342, #73 ) ) ;
#1054 = DIRECTION ( 'NONE',  ( 0.000000000000000000, 0.000000000000000000, -1.000000000000000000 ) ) ;
#1055 = VERTEX_POINT ( 'NONE', #1207 ) ;
#1056 = CARTESIAN_POINT ( 'NONE',  ( 4.850000000000000533, 0.4000000000000000222, -1.249999999999999778 ) ) ;
#1057 = CIRCLE ( 'NONE', #1220, 0.1500000000000004663 ) ;
#1058 = CARTESIAN_POINT ( 'NONE',  ( 6.938893903907228378E-16, 0.4000000000000000222, -0.3499999999999994227 ) ) ;
#1059 = VERTEX_POINT ( 'NONE', #89 ) ;
#1060 = CARTESIAN_POINT ( 'NONE',  ( 5.200000000000000178, 0.4000000000000000222, -0.3500000000000001998 ) ) ;
#1061 = VERTEX_POINT ( 'NONE', #1133 ) ;
#1062 = AXIS2_PLACEMENT_3D ( 'NONE', #501, #16, #878 ) ;
#1063 = ADVANCED_FACE ( 'NONE', ( #384 ), #664, .F. ) ;
#1064 = CARTESIAN_POINT ( 'NONE',  ( 4.850000000000000533, 0.4000000000000000222, -0.5000000000000006661 ) ) ;
#1065 = CIRCLE ( 'NONE', #598, 0.3500000000000006439 ) ;
#1066 = LINE ( 'NONE', #418, #544 ) ;
#1067 = PRODUCT_DEFINITION_SHAPE ( 'NONE', 'NONE',  #265 ) ;
#1068 = ORIENTED_EDGE ( 'NONE', *, *, #132, .T. ) ;
#1069 = CARTESIAN_POINT ( 'NONE',  ( 4.467435336425036319, 0.3366442633927598238, -0.3082129709003977314 ) ) ;
#1070 = CC_DESIGN_PERSON_AND_ORGANIZATION_ASSIGNMENT ( #1180, #1083, ( #334 ) ) ;
#1071 = AXIS2_PLACEMENT_3D ( 'NONE', #784, #68, #130 ) ;
#1072 = EDGE_LOOP ( 'NONE', ( #282, #120, #546, #427 ) ) ;
#1073 = DIRECTION ( 'NONE',  ( -0.000000000000000000, -1.000000000000000000, -0.000000000000000000 ) ) ;
#1074 = CARTESIAN_POINT ( 'NONE',  ( 2.600000000000003642, 0.2000000000000000111, -0.5500000000000004885 ) ) ;
#1075 = CIRCLE ( 'NONE', #646, 0.3499999999999988121 ) ;
#1076 = VERTEX_POINT ( 'NONE', #554 ) ;
#1077 = PERSON_AND_ORGANIZATION_ROLE ( 'creator' ) ;
#1078 = VERTEX_POINT ( 'NONE', #306 ) ;
#1079 = DIRECTION ( 'NONE',  ( 0.000000000000000000, 0.000000000000000000, -1.000000000000000000 ) ) ;
#1080 = EDGE_CURVE ( 'NONE', #653, #739, #947, .T. ) ;
#1081 = DIRECTION ( 'NONE',  ( 0.000000000000000000, 0.000000000000000000, 1.000000000000000000 ) ) ;
#1082 = ORIENTED_EDGE ( 'NONE', *, *, #446, .T. ) ;
#1083 = PERSON_AND_ORGANIZATION_ROLE ( 'classification_officer' ) ;
#1084 = VECTOR ( 'NONE', #36, 100.0000000000000000 ) ;
#1085 = ORIENTED_EDGE ( 'NONE', *, *, #277, .T. ) ;
#1086 = FACE_OUTER_BOUND ( 'NONE', #404, .T. ) ;
#1087 = DIRECTION ( 'NONE',  ( 0.000000000000000000, 0.000000000000000000, 1.000000000000000000 ) ) ;
#1088 = CARTESIAN_POINT ( 'NONE',  ( 0.000000000000000000, 0.000000000000000000, 0.000000000000000000 ) ) ;
#1089 = ORIENTED_EDGE ( 'NONE', *, *, #523, .T. ) ;
#1090 = PERSON ( 'UNSPECIFIED', 'UNSPECIFIED', 'UNSPECIFIED', ('UNSPECIFIED'), ('UNSPECIFIED'), ('UNSPECIFIED') ) ;
#1091 = DIRECTION ( 'NONE',  ( 0.000000000000000000, 0.000000000000000000, -1.000000000000000000 ) ) ;
#1092 = ORIENTED_EDGE ( 'NONE', *, *, #954, .F. ) ;
#1093 = EDGE_CURVE ( 'NONE', #287, #625, #482, .T. ) ;
#1094 = ORIENTED_EDGE ( 'NONE', *, *, #498, .T. ) ;
#1095 = DIRECTION ( 'NONE',  ( -0.000000000000000000, -1.000000000000000000, -0.000000000000000000 ) ) ;
#1096 = ORIENTED_EDGE ( 'NONE', *, *, #829, .F. ) ;
#1097 = EDGE_LOOP ( 'NONE', ( #431, #949, #851, #822 ) ) ;
#1098 = DIRECTION ( 'NONE',  ( 0.000000000000000000, 1.000000000000000000, 0.000000000000000000 ) ) ;
#1099 = EDGE_CURVE ( 'NONE', #1014, #974, #655, .T. ) ;
#1100 = DIRECTION ( 'NONE',  ( -0.000000000000000000, -1.000000000000000000, -0.000000000000000000 ) ) ;
#1101 = APPROVAL_PERSON_ORGANIZATION ( #820, #486, #319 ) ;
#1102 = AXIS2_PLACEMENT_3D ( 'NONE', #82, #743, #463 ) ;
#1103 = CARTESIAN_POINT ( 'NONE',  ( 0.2999999999999997113, 0.2000000000000000111, -0.7972135954999584051 ) ) ;
#1104 = COORDINATED_UNIVERSAL_TIME_OFFSET ( 9, 0, .AHEAD. ) ;
#1105 = CC_DESIGN_PERSON_AND_ORGANIZATION_ASSIGNMENT ( #245, #1006, ( #215 ) ) ;
#1106 = EDGE_LOOP ( 'NONE', ( #1171, #906, #794, #722 ) ) ;
#1107 = DIRECTION ( 'NONE',  ( -0.000000000000000000, -1.000000000000000000, -0.000000000000000000 ) ) ;
#1108 = DIRECTION ( 'NONE',  ( -0.000000000000000000, -1.000000000000000000, -0.000000000000000000 ) ) ;
#1109 = CIRCLE ( 'NONE', #196, 9.899999999999986144 ) ;
#1110 = DIRECTION ( 'NONE',  ( 0.000000000000000000, 1.000000000000000000, 0.000000000000000000 ) ) ;
#1111 = VERTEX_POINT ( 'NONE', #1165 ) ;
#1112 = DIRECTION ( 'NONE',  ( 0.000000000000000000, 1.000000000000000000, 0.000000000000000000 ) ) ;
#1113 = DIRECTION ( 'NONE',  ( 0.000000000000000000, 0.000000000000000000, 1.000000000000000000 ) ) ;
#1114 = EDGE_CURVE ( 'NONE', #974, #1014, #747, .T. ) ;
#1115 = DIRECTION ( 'NONE',  ( 0.000000000000000000, 0.000000000000000000, 1.000000000000000000 ) ) ;
#1116 = EDGE_CURVE ( 'NONE', #434, #268, #749, .T. ) ;
#1117 = ORIENTED_EDGE ( 'NONE', *, *, #1175, .T. ) ;
#1118 = CARTESIAN_POINT ( 'NONE',  ( 4.850000000000000533, 0.4000000000000000222, -1.600000000000000311 ) ) ;
#1119 = EDGE_CURVE ( 'NONE', #1059, #61, #208, .T. ) ;
#1120 = DIRECTION ( 'NONE',  ( 0.000000000000000000, 0.000000000000000000, 1.000000000000000000 ) ) ;
#1121 = AXIS2_PLACEMENT_3D ( 'NONE', #735, #650, #171 ) ;
#1122 = AXIS2_PLACEMENT_3D ( 'NONE', #564, #74, #754 ) ;
#1123 = DIRECTION ( 'NONE',  ( 0.000000000000000000, 0.000000000000000000, 1.000000000000000000 ) ) ;
#1124 = CALENDAR_DATE ( 2024, 26, 9 ) ;
#1125 = AXIS2_PLACEMENT_3D ( 'NONE', #965, #1156, #662 ) ;
#1126 = ORIENTED_EDGE ( 'NONE', *, *, #344, .T. ) ;
#1127 = CARTESIAN_POINT ( 'NONE',  ( 2.600000000000003642, 0.4000000000000000222, 9.650000000000021672 ) ) ;
#1128 = CC_DESIGN_APPROVAL ( #486, ( #412 ) ) ;
#1129 = LINE ( 'NONE', #7, #697 ) ;
#1130 = AXIS2_PLACEMENT_3D ( 'NONE', #1043, #1039, #573 ) ;
#1131 = DIRECTION ( 'NONE',  ( 0.000000000000000000, -0.000000000000000000, 1.000000000000000000 ) ) ;
#1132 = ORIENTED_EDGE ( 'NONE', *, *, #472, .F. ) ;
#1133 = CARTESIAN_POINT ( 'NONE',  ( 0.1999999999999997058, 0.4000000000000000222, -0.6662277660168386406 ) ) ;
#1134 = ADVANCED_FACE ( 'NONE', ( #101 ), #270, .T. ) ;
#1135 = AXIS2_PLACEMENT_3D ( 'NONE', #800, #216, #979 ) ;
#1136 = LINE ( 'NONE', #841, #294 ) ;
#1137 = CARTESIAN_POINT ( 'NONE',  ( 4.850000000000000533, 0.000000000000000000, -1.249999999999999778 ) ) ;
#1138 = VERTEX_POINT ( 'NONE', #681 ) ;
#1139 = DIRECTION ( 'NONE',  ( 0.000000000000000000, 0.000000000000000000, -1.000000000000000000 ) ) ;
#1140 = VERTEX_POINT ( 'NONE', #584 ) ;
#1141 = EDGE_CURVE ( 'NONE', #160, #930, #433, .T. ) ;
#1142 = DIRECTION ( 'NONE',  ( 0.000000000000000000, 1.000000000000000000, 0.000000000000000000 ) ) ;
#1143 = DIRECTION ( 'NONE',  ( 0.000000000000000000, 0.000000000000000000, -1.000000000000000000 ) ) ;
#1144 = ORIENTED_EDGE ( 'NONE', *, *, #92, .F. ) ;
#1145 = CARTESIAN_POINT ( 'NONE',  ( 0.3500000000000006439, 0.4000000000000000222, -1.249999999999999334 ) ) ;
#1146 = ADVANCED_FACE ( 'NONE', ( #953 ), #858, .T. ) ;
#1147 = CARTESIAN_POINT ( 'NONE',  ( 5.200000000000000178, 0.4000000000000000222, -0.3500000000000001998 ) ) ;
#1148 = CIRCLE ( 'NONE', #830, 0.4500000000000021205 ) ;
#1149 = DIRECTION ( 'NONE',  ( -0.000000000000000000, -1.000000000000000000, -0.000000000000000000 ) ) ;
#1150 = EDGE_LOOP ( 'NONE', ( #363, #760, #67, #135 ) ) ;
#1151 = CARTESIAN_POINT ( 'NONE',  ( 4.850000000000000533, 0.000000000000000000, -1.249999999999999778 ) ) ;
#1152 = AXIS2_PLACEMENT_3D ( 'NONE', #426, #624, #1091 ) ;
#1153 = ORIENTED_EDGE ( 'NONE', *, *, #153, .T. ) ;
#1154 = DIRECTION ( 'NONE',  ( -0.000000000000000000, -1.000000000000000000, -0.000000000000000000 ) ) ;
#1155 = EDGE_CURVE ( 'NONE', #474, #496, #534, .T. ) ;
#1156 = DIRECTION ( 'NONE',  ( 0.000000000000000000, 1.000000000000000000, 0.000000000000000000 ) ) ;
#1157 = ADVANCED_FACE ( 'NONE', ( #203 ), #694, .T. ) ;
#1158 = ORIENTED_EDGE ( 'NONE', *, *, #1000, .T. ) ;
#1159 = DIRECTION ( 'NONE',  ( 0.000000000000000000, 1.000000000000000000, 0.000000000000000000 ) ) ;
#1160 = EDGE_LOOP ( 'NONE', ( #146, #803, #220, #525 ) ) ;
#1161 = DIRECTION ( 'NONE',  ( 0.000000000000000000, 0.000000000000000000, 1.000000000000000000 ) ) ;
#1162 = EDGE_CURVE ( 'NONE', #998, #809, #112, .T. ) ;
#1163 = LINE ( 'NONE', #308, #421 ) ;
#1164 = VERTEX_POINT ( 'NONE', #766 ) ;
#1165 = CARTESIAN_POINT ( 'NONE',  ( 5.200000000000000178, 0.000000000000000000, -0.3500000000000001998 ) ) ;
#1166 = EDGE_CURVE ( 'NONE', #116, #980, #1065, .T. ) ;
#1167 = AXIS2_PLACEMENT_3D ( 'NONE', #882, #38, #495 ) ;
#1168 = CIRCLE ( 'NONE', #1102, 0.1499999999999999667 ) ;
#1169 = CARTESIAN_POINT ( 'NONE',  ( 0.3500000000000003109, 0.4000000000000000222, -0.3499999999999994227 ) ) ;
#1170 = DIRECTION ( 'NONE',  ( 0.000000000000000000, 0.000000000000000000, 1.000000000000000000 ) ) ;
#1171 = ORIENTED_EDGE ( 'NONE', *, *, #352, .F. ) ;
#1172 = CARTESIAN_POINT ( 'NONE',  ( 2.600000000000003642, 0.2000000000000000111, 9.650000000000021672 ) ) ;
#1173 = AXIS2_PLACEMENT_3D ( 'NONE', #410, #725, #321 ) ;
#1174 = VERTEX_POINT ( 'NONE', #578 ) ;
#1175 = EDGE_CURVE ( 'NONE', #324, #390, #964, .T. ) ;
#1176 = LINE ( 'NONE', #926, #205 ) ;
#1177 = LINE ( 'NONE', #1184, #124 ) ;
#1178 = VECTOR ( 'NONE', #886, 100.0000000000000142 ) ;
#1179 = ORIENTED_EDGE ( 'NONE', *, *, #11, .F. ) ;
#1180 = PERSON_AND_ORGANIZATION ( #1090, #60 ) ;
#1181 = ORIENTED_EDGE ( 'NONE', *, *, #277, .F. ) ;
#1182 = AXIS2_PLACEMENT_3D ( 'NONE', #184, #188, #876 ) ;
#1183 = ADVANCED_FACE ( 'NONE', ( #391 ), #35, .T. ) ;
#1184 = CARTESIAN_POINT ( 'NONE',  ( 0.3500000000000003109, 0.2000000000000000111, -0.8000000000000007105 ) ) ;
#1185 = ORIENTED_EDGE ( 'NONE', *, *, #881, .T. ) ;
#1186 = APPLICATION_PROTOCOL_DEFINITION ( 'international standard', 'config_control_design', 1994, #996 ) ;
#1187 = ORIENTED_EDGE ( 'NONE', *, *, #314, .F. ) ;
#1188 = CARTESIAN_POINT ( 'NONE',  ( 5.200000000000000178, 0.000000000000000000, -0.3500000000000001998 ) ) ;
#1189 = ORIENTED_EDGE ( 'NONE', *, *, #1162, .T. ) ;
#1190 = PERSON_AND_ORGANIZATION ( #1090, #60 ) ;
#1191 = ORIENTED_EDGE ( 'NONE', *, *, #742, .F. ) ;
#1192 = DIRECTION ( 'NONE',  ( 0.000000000000000000, 0.000000000000000000, 1.000000000000000000 ) ) ;
#1193 = ADVANCED_BREP_SHAPE_REPRESENTATION ( '바디_프론트가드', ( #329, #172 ), #905 ) ;
#1194 = ORIENTED_EDGE ( 'NONE', *, *, #565, .F. ) ;
#1195 = ADVANCED_FACE ( 'NONE', ( #1048 ), #488, .F. ) ;
#1196 = ORIENTED_EDGE ( 'NONE', *, *, #147, .T. ) ;
#1197 = DIRECTION ( 'NONE',  ( 0.000000000000000000, 1.000000000000000000, 0.000000000000000000 ) ) ;
#1198 = PLANE ( 'NONE',  #521 ) ;
#1199 = DIRECTION ( 'NONE',  ( 0.000000000000000000, 0.000000000000000000, -1.000000000000000000 ) ) ;
#1200 = ORIENTED_EDGE ( 'NONE', *, *, #1080, .T. ) ;
#1201 = FACE_OUTER_BOUND ( 'NONE', #292, .T. ) ;
#1202 = CARTESIAN_POINT ( 'NONE',  ( 4.773170731707320869, 0.4000000000000000222, -0.008536585365855053897 ) ) ;
#1203 = CLOSED_SHELL ( 'NONE', ( #348, #1028, #660, #600, #59, #804, #1195, #194, #1183, #236, #896, #1146, #933, #148, #985, #552, #424, #1038, #1157, #169, #480, #46, #843, #923, #759, #730, #423, #369, #1134, #1063, #821, #859, #536, #825, #1011 ) ) ;
#1204 = CARTESIAN_POINT ( 'NONE',  ( 4.850000000000000533, 0.4000000000000000222, -1.249999999999999778 ) ) ;
#1205 = VERTEX_POINT ( 'NONE', #325 ) ;
#1206 = CIRCLE ( 'NONE', #988, 0.1499999999999999667 ) ;
#1207 = CARTESIAN_POINT ( 'NONE',  ( 0.4268292682926780879, 0.000000000000000000, -1.591463414634149087 ) ) ;
#1208 = EDGE_CURVE ( 'NONE', #160, #370, #145, .T. ) ;
#1209 = EDGE_CURVE ( 'NONE', #908, #190, #251, .T. ) ;
#1210 = CARTESIAN_POINT ( 'NONE',  ( 4.850000000000000533, 0.2000000000000000111, -0.3500000000000001998 ) ) ;
#1211 = VECTOR ( 'NONE', #813, 100.0000000000000000 ) ;
#1212 = CARTESIAN_POINT ( 'NONE',  ( 6.938893903907228378E-16, 0.4000000000000000222, -0.3499999999999994227 ) ) ;
#1213 = ORIENTED_EDGE ( 'NONE', *, *, #609, .T. ) ;
#1214 = CYLINDRICAL_SURFACE ( 'NONE', #686, 0.3499999999999988121 ) ;
#1215 = DIRECTION ( 'NONE',  ( -1.000000000000000000, 0.000000000000000000, 0.000000000000000000 ) ) ;
#1216 = CARTESIAN_POINT ( 'NONE',  ( 4.850000000000000533, 0.000000000000000000, -1.249999999999999778 ) ) ;
#1217 = APPROVAL_ROLE ( '' ) ;
#1218 = ORIENTED_EDGE ( 'NONE', *, *, #881, .F. ) ;
#1219 = DIRECTION ( 'NONE',  ( 0.000000000000000000, 1.000000000000000000, 0.000000000000000000 ) ) ;
#1220 = AXIS2_PLACEMENT_3D ( 'NONE', #186, #1219, #359 ) ;
#1221 = CARTESIAN_POINT ( 'NONE',  ( 0.3500000000000003109, 0.000000000000000000, -0.3499999999999994227 ) ) ;
ENDSEC;
END-ISO-10303-21;
