ISO-10303-21;
HEADER;
FILE_DESCRIPTION (( 'STEP AP203' ),
    '1' );
FILE_NAME ('베어링 m5f.STEP',
    '2024-09-26T14:21:51',
    ( '' ),
    ( '' ),
    'SwSTEP 2.0',
    'SolidWorks 2022',
    '' );
FILE_SCHEMA (( 'CONFIG_CONTROL_DESIGN' ));
ENDSEC;

DATA;
#1 = ORIENTED_EDGE ( 'NONE', *, *, #94, .F. ) ;
#2 = CARTESIAN_POINT ( 'NONE',  ( -7.500000000000000000, 9.184850993605147944E-16, 3.000000000000000000 ) ) ;
#3 = FACE_OUTER_BOUND ( 'NONE', #47, .T. ) ;
#4 = EDGE_LOOP ( 'NONE', ( #24, #32, #327, #69 ) ) ;
#5 = ORIENTED_EDGE ( 'NONE', *, *, #42, .F. ) ;
#6 = DATE_TIME_ROLE ( 'creation_date' ) ;
#7 = PERSON_AND_ORGANIZATION_ROLE ( 'creator' ) ;
#8 = COORDINATED_UNIVERSAL_TIME_OFFSET ( 9, 0, .AHEAD. ) ;
#9 = DIRECTION ( 'NONE',  ( 1.000000000000000000, 0.000000000000000000, -0.000000000000000000 ) ) ;
#10 = VECTOR ( 'NONE', #150, 1000.000000000000000 ) ;
#11 = CC_DESIGN_APPROVAL ( #264, ( #287 ) ) ;
#12 = CYLINDRICAL_SURFACE ( 'NONE', #193, 6.500000000000000888 ) ;
#13 = CARTESIAN_POINT ( 'NONE',  ( -6.500000000000000888, 0.000000000000000000, 3.000000000000000000 ) ) ;
#14 = APPLICATION_CONTEXT ( 'configuration controlled 3d designs of mechanical parts and assemblies' ) ;
#15 = FACE_OUTER_BOUND ( 'NONE', #156, .T. ) ;
#16 = AXIS2_PLACEMENT_3D ( 'NONE', #242, #90, #189 ) ;
#17 = ADVANCED_FACE ( 'NONE', ( #102, #148 ), #151, .F. ) ;
#18 = DIRECTION ( 'NONE',  ( 0.000000000000000000, 0.000000000000000000, 1.000000000000000000 ) ) ;
#19 = DIRECTION ( 'NONE',  ( 0.000000000000000000, 0.000000000000000000, 1.000000000000000000 ) ) ;
#20 = ORIENTED_EDGE ( 'NONE', *, *, #246, .T. ) ;
#21 = AXIS2_PLACEMENT_3D ( 'NONE', #120, #249, #68 ) ;
#22 = VECTOR ( 'NONE', #304, 1000.000000000000000 ) ;
#23 = DATE_AND_TIME ( #176, #269 ) ;
#24 = ORIENTED_EDGE ( 'NONE', *, *, #101, .F. ) ;
#25 = DIRECTION ( 'NONE',  ( -1.000000000000000000, 0.000000000000000000, 0.000000000000000000 ) ) ;
#26 = VERTEX_POINT ( 'NONE', #316 ) ;
#27 =( LENGTH_UNIT ( ) NAMED_UNIT ( * ) SI_UNIT ( .MILLI., .METRE. ) );
#28 = ORIENTED_EDGE ( 'NONE', *, *, #36, .F. ) ;
#29 = CARTESIAN_POINT ( 'NONE',  ( 0.000000000000000000, 0.000000000000000000, 3.000000000000000000 ) ) ;
#30 = EDGE_LOOP ( 'NONE', ( #105, #1 ) ) ;
#31 = APPLICATION_PROTOCOL_DEFINITION ( 'international standard', 'config_control_design', 1994, #277 ) ;
#32 = ORIENTED_EDGE ( 'NONE', *, *, #220, .F. ) ;
#33 = CC_DESIGN_DATE_AND_TIME_ASSIGNMENT ( #111, #37, ( #223 ) ) ;
#34 = APPROVAL_STATUS ( 'not_yet_approved' ) ;
#35 = LINE ( 'NONE', #244, #303 ) ;
#36 = EDGE_CURVE ( 'NONE', #81, #280, #35, .T. ) ;
#37 = DATE_TIME_ROLE ( 'classification_date' ) ;
#38 = CARTESIAN_POINT ( 'NONE',  ( 2.500000000000000000, 3.061616997868383141E-16, 4.000000000000000000 ) ) ;
#39 = AXIS2_PLACEMENT_3D ( 'NONE', #155, #73, #257 ) ;
#40 = APPROVAL_PERSON_ORGANIZATION ( #108, #200, #214 ) ;
#41 = PLANE ( 'NONE',  #21 ) ;
#42 = EDGE_CURVE ( 'NONE', #178, #131, #207, .T. ) ;
#43 = AXIS2_PLACEMENT_3D ( 'NONE', #208, #79, #9 ) ;
#44 = CARTESIAN_POINT ( 'NONE',  ( 6.500000000000000888, 7.960204194457796463E-16, 0.000000000000000000 ) ) ;
#45 = EDGE_CURVE ( 'NONE', #298, #154, #286, .T. ) ;
#46 = FACE_BOUND ( 'NONE', #262, .T. ) ;
#47 = EDGE_LOOP ( 'NONE', ( #125, #186, #236, #302 ) ) ;
#48 = EDGE_LOOP ( 'NONE', ( #52, #228 ) ) ;
#49 = DIRECTION ( 'NONE',  ( -0.000000000000000000, -0.000000000000000000, -1.000000000000000000 ) ) ;
#50 = ORIENTED_EDGE ( 'NONE', *, *, #301, .F. ) ;
#51 = CARTESIAN_POINT ( 'NONE',  ( 2.500000000000000000, 3.061616997868383141E-16, 4.000000000000000000 ) ) ;
#52 = ORIENTED_EDGE ( 'NONE', *, *, #246, .F. ) ;
#53 = APPROVAL_STATUS ( 'not_yet_approved' ) ;
#54 = AXIS2_PLACEMENT_3D ( 'NONE', #165, #18, #66 ) ;
#55 = CC_DESIGN_SECURITY_CLASSIFICATION ( #223, ( #115 ) ) ;
#56 = EDGE_LOOP ( 'NONE', ( #300, #74, #181, #273 ) ) ;
#57 = APPROVAL_DATE_TIME ( #308, #240 ) ;
#58 = CARTESIAN_POINT ( 'NONE',  ( -6.500000000000000888, 0.000000000000000000, 4.000000000000000000 ) ) ;
#59 = CLOSED_SHELL ( 'NONE', ( #318, #129, #179, #107, #174, #17, #250, #307, #163 ) ) ;
#60 = CARTESIAN_POINT ( 'NONE',  ( 7.500000000000000000, 0.000000000000000000, 3.000000000000000000 ) ) ;
#61 = CC_DESIGN_PERSON_AND_ORGANIZATION_ASSIGNMENT ( #162, #138, ( #223 ) ) ;
#62 = LINE ( 'NONE', #83, #75 ) ;
#63 = DIRECTION ( 'NONE',  ( 1.000000000000000000, 0.000000000000000000, 0.000000000000000000 ) ) ;
#64 = CIRCLE ( 'NONE', #252, 6.500000000000000888 ) ;
#65 = LOCAL_TIME ( 23, 21, 51.00000000000000000, #71 ) ;
#66 = DIRECTION ( 'NONE',  ( 1.000000000000000000, 0.000000000000000000, 0.000000000000000000 ) ) ;
#67 = PRODUCT_RELATED_PRODUCT_CATEGORY ( 'detail', '', ( #177 ) ) ;
#68 = DIRECTION ( 'NONE',  ( 1.000000000000000000, 0.000000000000000000, -0.000000000000000000 ) ) ;
#69 = ORIENTED_EDGE ( 'NONE', *, *, #217, .T. ) ;
#70 = PRODUCT_DEFINITION_SHAPE ( 'NONE', 'NONE',  #287 ) ;
#71 = COORDINATED_UNIVERSAL_TIME_OFFSET ( 9, 0, .AHEAD. ) ;
#72 = ORIENTED_EDGE ( 'NONE', *, *, #78, .F. ) ;
#73 = DIRECTION ( 'NONE',  ( 0.000000000000000000, 0.000000000000000000, 1.000000000000000000 ) ) ;
#74 = ORIENTED_EDGE ( 'NONE', *, *, #190, .T. ) ;
#75 = VECTOR ( 'NONE', #113, 1000.000000000000000 ) ;
#76 = CARTESIAN_POINT ( 'NONE',  ( -6.500000000000000888, 0.000000000000000000, 0.000000000000000000 ) ) ;
#77 = DIRECTION ( 'NONE',  ( 1.000000000000000000, 0.000000000000000000, 0.000000000000000000 ) ) ;
#78 = EDGE_CURVE ( 'NONE', #184, #298, #62, .T. ) ;
#79 = DIRECTION ( 'NONE',  ( 0.000000000000000000, 0.000000000000000000, 1.000000000000000000 ) ) ;
#80 = CARTESIAN_POINT ( 'NONE',  ( 0.000000000000000000, 0.000000000000000000, 0.000000000000000000 ) ) ;
#81 = VERTEX_POINT ( 'NONE', #60 ) ;
#82 = LOCAL_TIME ( 23, 21, 51.00000000000000000, #86 ) ;
#83 = CARTESIAN_POINT ( 'NONE',  ( -2.500000000000000000, 0.000000000000000000, 4.000000000000000000 ) ) ;
#84 = LINE ( 'NONE', #58, #10 ) ;
#85 = CC_DESIGN_PERSON_AND_ORGANIZATION_ASSIGNMENT ( #263, #265, ( #115 ) ) ;
#86 = COORDINATED_UNIVERSAL_TIME_OFFSET ( 9, 0, .AHEAD. ) ;
#87 = CALENDAR_DATE ( 2024, 26, 9 ) ;
#88 = DATE_AND_TIME ( #180, #65 ) ;
#89 = VECTOR ( 'NONE', #284, 1000.000000000000000 ) ;
#90 = DIRECTION ( 'NONE',  ( 0.000000000000000000, 0.000000000000000000, 1.000000000000000000 ) ) ;
#91 = CARTESIAN_POINT ( 'NONE',  ( 0.000000000000000000, 0.000000000000000000, 3.000000000000000000 ) ) ;
#92 = CARTESIAN_POINT ( 'NONE',  ( 0.000000000000000000, 0.000000000000000000, 4.000000000000000000 ) ) ;
#93 = DIRECTION ( 'NONE',  ( 0.000000000000000000, 0.000000000000000000, 1.000000000000000000 ) ) ;
#94 = EDGE_CURVE ( 'NONE', #26, #81, #248, .T. ) ;
#95 = DIRECTION ( 'NONE',  ( 1.000000000000000000, 0.000000000000000000, 0.000000000000000000 ) ) ;
#96 = EDGE_CURVE ( 'NONE', #282, #154, #216, .T. ) ;
#97 = CIRCLE ( 'NONE', #310, 6.500000000000000888 ) ;
#98 = EDGE_LOOP ( 'NONE', ( #50, #234, #230, #274 ) ) ;
#99 = DIRECTION ( 'NONE',  ( 0.000000000000000000, 0.000000000000000000, 1.000000000000000000 ) ) ;
#100 = ORIENTED_EDGE ( 'NONE', *, *, #45, .F. ) ;
#101 = EDGE_CURVE ( 'NONE', #135, #178, #140, .T. ) ;
#102 = FACE_OUTER_BOUND ( 'NONE', #305, .T. ) ;
#103 = CARTESIAN_POINT ( 'NONE',  ( 2.500000000000000000, 3.061616997868383141E-16, 0.000000000000000000 ) ) ;
#104 = MECHANICAL_CONTEXT ( 'NONE', #277, 'mechanical' ) ;
#105 = ORIENTED_EDGE ( 'NONE', *, *, #292, .F. ) ;
#106 = EDGE_LOOP ( 'NONE', ( #254, #260, #306, #28 ) ) ;
#107 = ADVANCED_FACE ( 'NONE', ( #195 ), #12, .T. ) ;
#108 = PERSON_AND_ORGANIZATION ( #191, #324 ) ;
#109 = CIRCLE ( 'NONE', #114, 2.500000000000000000 ) ;
#110 =( GEOMETRIC_REPRESENTATION_CONTEXT ( 3 ) GLOBAL_UNCERTAINTY_ASSIGNED_CONTEXT ( ( #130 ) ) GLOBAL_UNIT_ASSIGNED_CONTEXT ( ( #27, #232, #203 ) ) REPRESENTATION_CONTEXT ( 'NONE', 'WORKASPACE' ) );
#111 = DATE_AND_TIME ( #238, #294 ) ;
#112 = EDGE_CURVE ( 'NONE', #202, #280, #275, .T. ) ;
#113 = DIRECTION ( 'NONE',  ( -0.000000000000000000, -0.000000000000000000, -1.000000000000000000 ) ) ;
#114 = AXIS2_PLACEMENT_3D ( 'NONE', #245, #145, #95 ) ;
#115 = PRODUCT_DEFINITION_FORMATION_WITH_SPECIFIED_SOURCE ( 'ANY', '', #177, .NOT_KNOWN. ) ;
#116 = CARTESIAN_POINT ( 'NONE',  ( 0.000000000000000000, 0.000000000000000000, 4.000000000000000000 ) ) ;
#117 = CC_DESIGN_PERSON_AND_ORGANIZATION_ASSIGNMENT ( #134, #279, ( #177 ) ) ;
#118 = CARTESIAN_POINT ( 'NONE',  ( -2.500000000000000000, 0.000000000000000000, 4.000000000000000000 ) ) ;
#119 = CC_DESIGN_DATE_AND_TIME_ASSIGNMENT ( #88, #6, ( #287 ) ) ;
#120 = CARTESIAN_POINT ( 'NONE',  ( 0.000000000000000000, 0.000000000000000000, 4.000000000000000000 ) ) ;
#121 = CARTESIAN_POINT ( 'NONE',  ( 0.000000000000000000, 0.000000000000000000, 3.000000000000000000 ) ) ;
#122 = CIRCLE ( 'NONE', #283, 6.500000000000000888 ) ;
#123 = CC_DESIGN_APPROVAL ( #200, ( #115 ) ) ;
#124 = PERSON_AND_ORGANIZATION_ROLE ( 'creator' ) ;
#125 = ORIENTED_EDGE ( 'NONE', *, *, #315, .F. ) ;
#126 = DIRECTION ( 'NONE',  ( 0.000000000000000000, 0.000000000000000000, 1.000000000000000000 ) ) ;
#127 = CYLINDRICAL_SURFACE ( 'NONE', #54, 7.500000000000000000 ) ;
#128 = ORIENTED_EDGE ( 'NONE', *, *, #112, .T. ) ;
#129 = ADVANCED_FACE ( 'NONE', ( #212 ), #309, .F. ) ;
#130 = UNCERTAINTY_MEASURE_WITH_UNIT (LENGTH_MEASURE( 1.000000000000000082E-05 ), #27, 'distance_accuracy_value', 'NONE');
#131 = VERTEX_POINT ( 'NONE', #76 ) ;
#132 = PLANE ( 'NONE',  #188 ) ;
#133 = ORIENTED_EDGE ( 'NONE', *, *, #217, .F. ) ;
#134 = PERSON_AND_ORGANIZATION ( #191, #324 ) ;
#135 = VERTEX_POINT ( 'NONE', #237 ) ;
#136 = SHAPE_DEFINITION_REPRESENTATION ( #70, #295 ) ;
#137 = VECTOR ( 'NONE', #266, 1000.000000000000000 ) ;
#138 = PERSON_AND_ORGANIZATION_ROLE ( 'classification_officer' ) ;
#139 = DIRECTION ( 'NONE',  ( 0.000000000000000000, 0.000000000000000000, 1.000000000000000000 ) ) ;
#140 = LINE ( 'NONE', #164, #137 ) ;
#141 = CIRCLE ( 'NONE', #293, 2.500000000000000000 ) ;
#142 = DIRECTION ( 'NONE',  ( 1.000000000000000000, 0.000000000000000000, 0.000000000000000000 ) ) ;
#143 = CC_DESIGN_PERSON_AND_ORGANIZATION_ASSIGNMENT ( #267, #7, ( #115 ) ) ;
#144 = DIRECTION ( 'NONE',  ( 0.000000000000000000, 0.000000000000000000, 1.000000000000000000 ) ) ;
#145 = DIRECTION ( 'NONE',  ( 0.000000000000000000, 0.000000000000000000, 1.000000000000000000 ) ) ;
#146 = DIRECTION ( 'NONE',  ( -0.000000000000000000, -0.000000000000000000, -1.000000000000000000 ) ) ;
#147 = LINE ( 'NONE', #2, #22 ) ;
#148 = FACE_BOUND ( 'NONE', #278, .T. ) ;
#149 = CARTESIAN_POINT ( 'NONE',  ( 0.000000000000000000, 0.000000000000000000, 3.000000000000000000 ) ) ;
#150 = DIRECTION ( 'NONE',  ( -0.000000000000000000, -0.000000000000000000, -1.000000000000000000 ) ) ;
#151 = PLANE ( 'NONE',  #43 ) ;
#152 = DIRECTION ( 'NONE',  ( -0.000000000000000000, -0.000000000000000000, -1.000000000000000000 ) ) ;
#153 = DIRECTION ( 'NONE',  ( 1.000000000000000000, 0.000000000000000000, -0.000000000000000000 ) ) ;
#154 = VERTEX_POINT ( 'NONE', #103 ) ;
#155 = CARTESIAN_POINT ( 'NONE',  ( 0.000000000000000000, 0.000000000000000000, 3.000000000000000000 ) ) ;
#156 = EDGE_LOOP ( 'NONE', ( #182, #128 ) ) ;
#157 = EDGE_CURVE ( 'NONE', #225, #131, #84, .T. ) ;
#158 = CIRCLE ( 'NONE', #198, 2.500000000000000000 ) ;
#159 = CC_DESIGN_APPROVAL ( #240, ( #223 ) ) ;
#160 = EDGE_LOOP ( 'NONE', ( #20, #258, #100, #72 ) ) ;
#161 = COORDINATED_UNIVERSAL_TIME_OFFSET ( 9, 0, .AHEAD. ) ;
#162 = PERSON_AND_ORGANIZATION ( #191, #324 ) ;
#163 = ADVANCED_FACE ( 'NONE', ( #3 ), #127, .T. ) ;
#164 = CARTESIAN_POINT ( 'NONE',  ( 6.500000000000000888, 7.960204194457796463E-16, 4.000000000000000000 ) ) ;
#165 = CARTESIAN_POINT ( 'NONE',  ( 0.000000000000000000, 0.000000000000000000, 3.000000000000000000 ) ) ;
#166 = DIRECTION ( 'NONE',  ( 1.000000000000000000, 0.000000000000000000, 0.000000000000000000 ) ) ;
#167 = EDGE_CURVE ( 'NONE', #280, #202, #222, .T. ) ;
#168 = DIRECTION ( 'NONE',  ( 0.000000000000000000, 0.000000000000000000, 1.000000000000000000 ) ) ;
#169 = AXIS2_PLACEMENT_3D ( 'NONE', #172, #144, #171 ) ;
#170 = LOCAL_TIME ( 23, 21, 51.00000000000000000, #161 ) ;
#171 = DIRECTION ( 'NONE',  ( 1.000000000000000000, 0.000000000000000000, 0.000000000000000000 ) ) ;
#172 = CARTESIAN_POINT ( 'NONE',  ( 0.000000000000000000, 0.000000000000000000, 4.000000000000000000 ) ) ;
#173 = DIRECTION ( 'NONE',  ( 1.000000000000000000, 0.000000000000000000, 0.000000000000000000 ) ) ;
#174 = ADVANCED_FACE ( 'NONE', ( #247, #15 ), #41, .T. ) ;
#175 = CYLINDRICAL_SURFACE ( 'NONE', #213, 6.500000000000000888 ) ;
#176 = CALENDAR_DATE ( 2024, 26, 9 ) ;
#177 = PRODUCT ( '베어링 m5f', '베어링 m5f', '', ( #104 ) ) ;
#178 = VERTEX_POINT ( 'NONE', #44 ) ;
#179 = ADVANCED_FACE ( 'NONE', ( #291 ), #175, .T. ) ;
#180 = CALENDAR_DATE ( 2024, 26, 9 ) ;
#181 = ORIENTED_EDGE ( 'NONE', *, *, #78, .T. ) ;
#182 = ORIENTED_EDGE ( 'NONE', *, *, #167, .T. ) ;
#183 = DIRECTION ( 'NONE',  ( 1.000000000000000000, 0.000000000000000000, 0.000000000000000000 ) ) ;
#184 = VERTEX_POINT ( 'NONE', #118 ) ;
#185 = APPLICATION_PROTOCOL_DEFINITION ( 'international standard', 'config_control_design', 1994, #14 ) ;
#186 = ORIENTED_EDGE ( 'NONE', *, *, #94, .T. ) ;
#187 = CIRCLE ( 'NONE', #39, 7.500000000000000000 ) ;
#188 = AXIS2_PLACEMENT_3D ( 'NONE', #227, #328, #153 ) ;
#189 = DIRECTION ( 'NONE',  ( 1.000000000000000000, 0.000000000000000000, 0.000000000000000000 ) ) ;
#190 = EDGE_CURVE ( 'NONE', #282, #184, #141, .T. ) ;
#191 = PERSON ( 'UNSPECIFIED', 'UNSPECIFIED', 'UNSPECIFIED', ('UNSPECIFIED'), ('UNSPECIFIED'), ('UNSPECIFIED') ) ;
#192 = AXIS2_PLACEMENT_3D ( 'NONE', #91, #168, #166 ) ;
#193 = AXIS2_PLACEMENT_3D ( 'NONE', #116, #218, #317 ) ;
#194 = DIRECTION ( 'NONE',  ( 0.000000000000000000, 0.000000000000000000, 1.000000000000000000 ) ) ;
#195 = FACE_OUTER_BOUND ( 'NONE', #4, .T. ) ;
#196 = CYLINDRICAL_SURFACE ( 'NONE', #323, 2.500000000000000000 ) ;
#197 = FACE_OUTER_BOUND ( 'NONE', #56, .T. ) ;
#198 = AXIS2_PLACEMENT_3D ( 'NONE', #92, #93, #321 ) ;
#199 = AXIS2_PLACEMENT_3D ( 'NONE', #80, #206, #183 ) ;
#200 = APPROVAL ( #34, 'UNSPECIFIED' ) ;
#201 = CYLINDRICAL_SURFACE ( 'NONE', #311, 7.500000000000000000 ) ;
#202 = VERTEX_POINT ( 'NONE', #251 ) ;
#203 =( NAMED_UNIT ( * ) SI_UNIT ( $, .STERADIAN. ) SOLID_ANGLE_UNIT ( ) );
#204 = ORIENTED_EDGE ( 'NONE', *, *, #239, .T. ) ;
#205 = DESIGN_CONTEXT ( 'detailed design', #14, 'design' ) ;
#206 = DIRECTION ( 'NONE',  ( 0.000000000000000000, 0.000000000000000000, 1.000000000000000000 ) ) ;
#207 = CIRCLE ( 'NONE', #233, 6.500000000000000888 ) ;
#208 = CARTESIAN_POINT ( 'NONE',  ( 0.000000000000000000, 0.000000000000000000, 0.000000000000000000 ) ) ;
#209 = FACE_OUTER_BOUND ( 'NONE', #106, .T. ) ;
#210 = ORIENTED_EDGE ( 'NONE', *, *, #220, .T. ) ;
#211 = APPROVAL_ROLE ( '' ) ;
#212 = FACE_OUTER_BOUND ( 'NONE', #160, .T. ) ;
#213 = AXIS2_PLACEMENT_3D ( 'NONE', #296, #146, #271 ) ;
#214 = APPROVAL_ROLE ( '' ) ;
#215 = MANIFOLD_SOLID_BREP ( '보스-돌출2', #59 ) ;
#216 = LINE ( 'NONE', #38, #89 ) ;
#217 = EDGE_CURVE ( 'NONE', #131, #178, #64, .T. ) ;
#218 = DIRECTION ( 'NONE',  ( -0.000000000000000000, -0.000000000000000000, -1.000000000000000000 ) ) ;
#219 = DIRECTION ( 'NONE',  ( 0.000000000000000000, 0.000000000000000000, 1.000000000000000000 ) ) ;
#220 = EDGE_CURVE ( 'NONE', #225, #135, #122, .T. ) ;
#221 = CARTESIAN_POINT ( 'NONE',  ( 0.000000000000000000, 0.000000000000000000, 4.000000000000000000 ) ) ;
#222 = CIRCLE ( 'NONE', #169, 7.500000000000000000 ) ;
#223 = SECURITY_CLASSIFICATION ( '', '', #313 ) ;
#224 = DIRECTION ( 'NONE',  ( 1.000000000000000000, 0.000000000000000000, 0.000000000000000000 ) ) ;
#225 = VERTEX_POINT ( 'NONE', #13 ) ;
#226 = AXIS2_PLACEMENT_3D ( 'NONE', #290, #270, #63 ) ;
#227 = CARTESIAN_POINT ( 'NONE',  ( 0.000000000000000000, 0.000000000000000000, 3.000000000000000000 ) ) ;
#228 = ORIENTED_EDGE ( 'NONE', *, *, #190, .F. ) ;
#229 = DIRECTION ( 'NONE',  ( -1.000000000000000000, 0.000000000000000000, 0.000000000000000000 ) ) ;
#230 = ORIENTED_EDGE ( 'NONE', *, *, #42, .T. ) ;
#231 = CC_DESIGN_PERSON_AND_ORGANIZATION_ASSIGNMENT ( #326, #124, ( #287 ) ) ;
#232 =( NAMED_UNIT ( * ) PLANE_ANGLE_UNIT ( ) SI_UNIT ( $, .RADIAN. ) );
#233 = AXIS2_PLACEMENT_3D ( 'NONE', #268, #139, #289 ) ;
#234 = ORIENTED_EDGE ( 'NONE', *, *, #101, .T. ) ;
#235 = CARTESIAN_POINT ( 'NONE',  ( 0.000000000000000000, 0.000000000000000000, 4.000000000000000000 ) ) ;
#236 = ORIENTED_EDGE ( 'NONE', *, *, #36, .T. ) ;
#237 = CARTESIAN_POINT ( 'NONE',  ( 6.500000000000000888, 7.960204194457796463E-16, 3.000000000000000000 ) ) ;
#238 = CALENDAR_DATE ( 2024, 26, 9 ) ;
#239 = EDGE_CURVE ( 'NONE', #154, #298, #109, .T. ) ;
#240 = APPROVAL ( #241, 'UNSPECIFIED' ) ;
#241 = APPROVAL_STATUS ( 'not_yet_approved' ) ;
#242 = CARTESIAN_POINT ( 'NONE',  ( 0.000000000000000000, 0.000000000000000000, 0.000000000000000000 ) ) ;
#243 = APPROVAL_PERSON_ORGANIZATION ( #314, #240, #211 ) ;
#244 = CARTESIAN_POINT ( 'NONE',  ( 7.500000000000000000, 0.000000000000000000, 3.000000000000000000 ) ) ;
#245 = CARTESIAN_POINT ( 'NONE',  ( 0.000000000000000000, 0.000000000000000000, 0.000000000000000000 ) ) ;
#246 = EDGE_CURVE ( 'NONE', #184, #282, #158, .T. ) ;
#247 = FACE_BOUND ( 'NONE', #48, .T. ) ;
#248 = CIRCLE ( 'NONE', #192, 7.500000000000000000 ) ;
#249 = DIRECTION ( 'NONE',  ( 0.000000000000000000, 0.000000000000000000, 1.000000000000000000 ) ) ;
#250 = ADVANCED_FACE ( 'NONE', ( #197 ), #196, .F. ) ;
#251 = CARTESIAN_POINT ( 'NONE',  ( -7.500000000000000000, 9.184850993605147944E-16, 4.000000000000000000 ) ) ;
#252 = AXIS2_PLACEMENT_3D ( 'NONE', #322, #19, #142 ) ;
#253 = APPROVAL_PERSON_ORGANIZATION ( #281, #264, #325 ) ;
#254 = ORIENTED_EDGE ( 'NONE', *, *, #292, .T. ) ;
#255 = CARTESIAN_POINT ( 'NONE',  ( 7.500000000000000000, 0.000000000000000000, 4.000000000000000000 ) ) ;
#256 = ORIENTED_EDGE ( 'NONE', *, *, #45, .T. ) ;
#257 = DIRECTION ( 'NONE',  ( 1.000000000000000000, 0.000000000000000000, 0.000000000000000000 ) ) ;
#258 = ORIENTED_EDGE ( 'NONE', *, *, #96, .T. ) ;
#259 = FACE_OUTER_BOUND ( 'NONE', #30, .T. ) ;
#260 = ORIENTED_EDGE ( 'NONE', *, *, #315, .T. ) ;
#261 = AXIS2_PLACEMENT_3D ( 'NONE', #235, #152, #229 ) ;
#262 = EDGE_LOOP ( 'NONE', ( #210, #329 ) ) ;
#263 = PERSON_AND_ORGANIZATION ( #191, #324 ) ;
#264 = APPROVAL ( #53, 'UNSPECIFIED' ) ;
#265 = PERSON_AND_ORGANIZATION_ROLE ( 'design_supplier' ) ;
#266 = DIRECTION ( 'NONE',  ( -0.000000000000000000, -0.000000000000000000, -1.000000000000000000 ) ) ;
#267 = PERSON_AND_ORGANIZATION ( #191, #324 ) ;
#268 = CARTESIAN_POINT ( 'NONE',  ( 0.000000000000000000, 0.000000000000000000, 0.000000000000000000 ) ) ;
#269 = LOCAL_TIME ( 23, 21, 51.00000000000000000, #297 ) ;
#270 = DIRECTION ( 'NONE',  ( 0.000000000000000000, 0.000000000000000000, 1.000000000000000000 ) ) ;
#271 = DIRECTION ( 'NONE',  ( -1.000000000000000000, 0.000000000000000000, 0.000000000000000000 ) ) ;
#272 = CARTESIAN_POINT ( 'NONE',  ( 0.000000000000000000, 0.000000000000000000, 4.000000000000000000 ) ) ;
#273 = ORIENTED_EDGE ( 'NONE', *, *, #239, .F. ) ;
#274 = ORIENTED_EDGE ( 'NONE', *, *, #157, .F. ) ;
#275 = CIRCLE ( 'NONE', #226, 7.500000000000000000 ) ;
#276 = CARTESIAN_POINT ( 'NONE',  ( -2.500000000000000000, 0.000000000000000000, 0.000000000000000000 ) ) ;
#277 = APPLICATION_CONTEXT ( 'configuration controlled 3d designs of mechanical parts and assemblies' ) ;
#278 = EDGE_LOOP ( 'NONE', ( #256, #204 ) ) ;
#279 = PERSON_AND_ORGANIZATION_ROLE ( 'design_owner' ) ;
#280 = VERTEX_POINT ( 'NONE', #255 ) ;
#281 = PERSON_AND_ORGANIZATION ( #191, #324 ) ;
#282 = VERTEX_POINT ( 'NONE', #51 ) ;
#283 = AXIS2_PLACEMENT_3D ( 'NONE', #121, #319, #320 ) ;
#284 = DIRECTION ( 'NONE',  ( -0.000000000000000000, -0.000000000000000000, -1.000000000000000000 ) ) ;
#285 = DATE_AND_TIME ( #288, #170 ) ;
#286 = CIRCLE ( 'NONE', #16, 2.500000000000000000 ) ;
#287 = PRODUCT_DEFINITION ( 'UNKNOWN', '', #115, #205 ) ;
#288 = CALENDAR_DATE ( 2024, 26, 9 ) ;
#289 = DIRECTION ( 'NONE',  ( 1.000000000000000000, 0.000000000000000000, 0.000000000000000000 ) ) ;
#290 = CARTESIAN_POINT ( 'NONE',  ( 0.000000000000000000, 0.000000000000000000, 4.000000000000000000 ) ) ;
#291 = FACE_OUTER_BOUND ( 'NONE', #98, .T. ) ;
#292 = EDGE_CURVE ( 'NONE', #81, #26, #187, .T. ) ;
#293 = AXIS2_PLACEMENT_3D ( 'NONE', #221, #219, #173 ) ;
#294 = LOCAL_TIME ( 23, 21, 51.00000000000000000, #8 ) ;
#295 = ADVANCED_BREP_SHAPE_REPRESENTATION ( '베어링 m5f', ( #215, #199 ), #110 ) ;
#296 = CARTESIAN_POINT ( 'NONE',  ( 0.000000000000000000, 0.000000000000000000, 4.000000000000000000 ) ) ;
#297 = COORDINATED_UNIVERSAL_TIME_OFFSET ( 9, 0, .AHEAD. ) ;
#298 = VERTEX_POINT ( 'NONE', #276 ) ;
#299 = APPROVAL_DATE_TIME ( #23, #264 ) ;
#300 = ORIENTED_EDGE ( 'NONE', *, *, #96, .F. ) ;
#301 = EDGE_CURVE ( 'NONE', #135, #225, #97, .T. ) ;
#302 = ORIENTED_EDGE ( 'NONE', *, *, #112, .F. ) ;
#303 = VECTOR ( 'NONE', #194, 1000.000000000000000 ) ;
#304 = DIRECTION ( 'NONE',  ( 0.000000000000000000, 0.000000000000000000, 1.000000000000000000 ) ) ;
#305 = EDGE_LOOP ( 'NONE', ( #133, #5 ) ) ;
#306 = ORIENTED_EDGE ( 'NONE', *, *, #167, .F. ) ;
#307 = ADVANCED_FACE ( 'NONE', ( #259, #46 ), #132, .F. ) ;
#308 = DATE_AND_TIME ( #87, #82 ) ;
#309 = CYLINDRICAL_SURFACE ( 'NONE', #261, 2.500000000000000000 ) ;
#310 = AXIS2_PLACEMENT_3D ( 'NONE', #29, #126, #224 ) ;
#311 = AXIS2_PLACEMENT_3D ( 'NONE', #149, #99, #77 ) ;
#312 = APPROVAL_DATE_TIME ( #285, #200 ) ;
#313 = SECURITY_CLASSIFICATION_LEVEL ( 'unclassified' ) ;
#314 = PERSON_AND_ORGANIZATION ( #191, #324 ) ;
#315 = EDGE_CURVE ( 'NONE', #26, #202, #147, .T. ) ;
#316 = CARTESIAN_POINT ( 'NONE',  ( -7.500000000000000000, 9.184850993605147944E-16, 3.000000000000000000 ) ) ;
#317 = DIRECTION ( 'NONE',  ( -1.000000000000000000, 0.000000000000000000, 0.000000000000000000 ) ) ;
#318 = ADVANCED_FACE ( 'NONE', ( #209 ), #201, .T. ) ;
#319 = DIRECTION ( 'NONE',  ( 0.000000000000000000, 0.000000000000000000, 1.000000000000000000 ) ) ;
#320 = DIRECTION ( 'NONE',  ( 1.000000000000000000, 0.000000000000000000, 0.000000000000000000 ) ) ;
#321 = DIRECTION ( 'NONE',  ( 1.000000000000000000, 0.000000000000000000, 0.000000000000000000 ) ) ;
#322 = CARTESIAN_POINT ( 'NONE',  ( 0.000000000000000000, 0.000000000000000000, 0.000000000000000000 ) ) ;
#323 = AXIS2_PLACEMENT_3D ( 'NONE', #272, #49, #25 ) ;
#324 = ORGANIZATION ( 'UNSPECIFIED', 'UNSPECIFIED', '' ) ;
#325 = APPROVAL_ROLE ( '' ) ;
#326 = PERSON_AND_ORGANIZATION ( #191, #324 ) ;
#327 = ORIENTED_EDGE ( 'NONE', *, *, #157, .T. ) ;
#328 = DIRECTION ( 'NONE',  ( 0.000000000000000000, 0.000000000000000000, 1.000000000000000000 ) ) ;
#329 = ORIENTED_EDGE ( 'NONE', *, *, #301, .T. ) ;
ENDSEC;
END-ISO-10303-21;
