ISO-10303-21;
HEADER;
FILE_DESCRIPTION (( 'STEP AP203' ),
    '1' );
FILE_NAME ('베어링 m4.STEP',
    '2024-09-26T14:16:55',
    ( '' ),
    ( '' ),
    'SwSTEP 2.0',
    'SolidWorks 2022',
    '' );
FILE_SCHEMA (( 'CONFIG_CONTROL_DESIGN' ));
ENDSEC;

DATA;
#1 = ORIENTED_EDGE ( 'NONE', *, *, #227, .F. ) ;
#2 = APPROVAL_PERSON_ORGANIZATION ( #34, #178, #107 ) ;
#3 = FACE_OUTER_BOUND ( 'NONE', #68, .T. ) ;
#4 = FACE_OUTER_BOUND ( 'NONE', #128, .T. ) ;
#5 = DIRECTION ( 'NONE',  ( 1.000000000000000000, 0.000000000000000000, -0.000000000000000000 ) ) ;
#6 = LINE ( 'NONE', #26, #79 ) ;
#7 = AXIS2_PLACEMENT_3D ( 'NONE', #195, #96, #5 ) ;
#8 =( NAMED_UNIT ( * ) SI_UNIT ( $, .STERADIAN. ) SOLID_ANGLE_UNIT ( ) );
#9 = MECHANICAL_CONTEXT ( 'NONE', #127, 'mechanical' ) ;
#10 = ADVANCED_FACE ( 'NONE', ( #3 ), #198, .F. ) ;
#11 = CARTESIAN_POINT ( 'NONE',  ( -6.500000000000000888, 0.000000000000000000, 0.000000000000000000 ) ) ;
#12 = EDGE_CURVE ( 'NONE', #14, #130, #98, .T. ) ;
#13 = AXIS2_PLACEMENT_3D ( 'NONE', #137, #219, #97 ) ;
#14 = VERTEX_POINT ( 'NONE', #22 ) ;
#15 = CARTESIAN_POINT ( 'NONE',  ( -6.500000000000000888, 0.000000000000000000, 5.000000000000000000 ) ) ;
#16 = VERTEX_POINT ( 'NONE', #40 ) ;
#17 = PERSON_AND_ORGANIZATION ( #71, #135 ) ;
#18 = ORIENTED_EDGE ( 'NONE', *, *, #12, .T. ) ;
#19 = APPROVAL_PERSON_ORGANIZATION ( #208, #72, #205 ) ;
#20 = APPROVAL_STATUS ( 'not_yet_approved' ) ;
#21 = AXIS2_PLACEMENT_3D ( 'NONE', #218, #111, #109 ) ;
#22 = CARTESIAN_POINT ( 'NONE',  ( 6.500000000000000888, 7.960204194457796463E-16, 0.000000000000000000 ) ) ;
#23 = ADVANCED_FACE ( 'NONE', ( #4, #75 ), #57, .F. ) ;
#24 = EDGE_LOOP ( 'NONE', ( #189, #228 ) ) ;
#25 = AXIS2_PLACEMENT_3D ( 'NONE', #204, #100, #181 ) ;
#26 = CARTESIAN_POINT ( 'NONE',  ( 2.000000000000000000, 2.449293598294706414E-16, 5.000000000000000000 ) ) ;
#27 = DIRECTION ( 'NONE',  ( -0.000000000000000000, -0.000000000000000000, -1.000000000000000000 ) ) ;
#28 = CYLINDRICAL_SURFACE ( 'NONE', #224, 6.500000000000000888 ) ;
#29 = CARTESIAN_POINT ( 'NONE',  ( 0.000000000000000000, 0.000000000000000000, 5.000000000000000000 ) ) ;
#30 = LOCAL_TIME ( 23, 16, 55.00000000000000000, #35 ) ;
#31 = DIRECTION ( 'NONE',  ( -0.000000000000000000, -0.000000000000000000, -1.000000000000000000 ) ) ;
#32 = CALENDAR_DATE ( 2024, 26, 9 ) ;
#33 = LOCAL_TIME ( 23, 16, 55.00000000000000000, #155 ) ;
#34 = PERSON_AND_ORGANIZATION ( #71, #135 ) ;
#35 = COORDINATED_UNIVERSAL_TIME_OFFSET ( 9, 0, .AHEAD. ) ;
#36 = CARTESIAN_POINT ( 'NONE',  ( 6.500000000000000888, 7.960204194457796463E-16, 5.000000000000000000 ) ) ;
#37 = EDGE_CURVE ( 'NONE', #176, #206, #91, .T. ) ;
#38 = LOCAL_TIME ( 23, 16, 55.00000000000000000, #103 ) ;
#39 = ORIENTED_EDGE ( 'NONE', *, *, #121, .F. ) ;
#40 = CARTESIAN_POINT ( 'NONE',  ( 2.000000000000000000, 2.449293598294706414E-16, 5.000000000000000000 ) ) ;
#41 = VECTOR ( 'NONE', #55, 1000.000000000000000 ) ;
#42 = ORIENTED_EDGE ( 'NONE', *, *, #227, .T. ) ;
#43 = CYLINDRICAL_SURFACE ( 'NONE', #233, 6.500000000000000888 ) ;
#44 = EDGE_LOOP ( 'NONE', ( #116, #220, #83, #157 ) ) ;
#45 = VERTEX_POINT ( 'NONE', #235 ) ;
#46 = CC_DESIGN_APPROVAL ( #178, ( #88 ) ) ;
#47 = ORIENTED_EDGE ( 'NONE', *, *, #37, .F. ) ;
#48 = SHAPE_DEFINITION_REPRESENTATION ( #104, #66 ) ;
#49 = EDGE_LOOP ( 'NONE', ( #138, #56, #212, #120 ) ) ;
#50 = EDGE_CURVE ( 'NONE', #130, #14, #52, .T. ) ;
#51 = VERTEX_POINT ( 'NONE', #36 ) ;
#52 = CIRCLE ( 'NONE', #249, 6.500000000000000888 ) ;
#53 = EDGE_CURVE ( 'NONE', #51, #14, #196, .T. ) ;
#54 = APPROVAL_DATE_TIME ( #169, #223 ) ;
#55 = DIRECTION ( 'NONE',  ( -0.000000000000000000, -0.000000000000000000, -1.000000000000000000 ) ) ;
#56 = ORIENTED_EDGE ( 'NONE', *, *, #112, .F. ) ;
#57 = PLANE ( 'NONE',  #7 ) ;
#58 = CC_DESIGN_SECURITY_CLASSIFICATION ( #88, ( #241 ) ) ;
#59 = FACE_OUTER_BOUND ( 'NONE', #49, .T. ) ;
#60 = APPROVAL_DATE_TIME ( #163, #72 ) ;
#61 = LINE ( 'NONE', #15, #245 ) ;
#62 = DIRECTION ( 'NONE',  ( 1.000000000000000000, 0.000000000000000000, -0.000000000000000000 ) ) ;
#63 = CARTESIAN_POINT ( 'NONE',  ( 0.000000000000000000, 0.000000000000000000, 0.000000000000000000 ) ) ;
#64 = EDGE_CURVE ( 'NONE', #176, #16, #108, .T. ) ;
#65 = CALENDAR_DATE ( 2024, 26, 9 ) ;
#66 = ADVANCED_BREP_SHAPE_REPRESENTATION ( '베어링 m4', ( #142, #25 ), #193 ) ;
#67 = DATE_TIME_ROLE ( 'creation_date' ) ;
#68 = EDGE_LOOP ( 'NONE', ( #85, #247, #210, #47 ) ) ;
#69 = UNCERTAINTY_MEASURE_WITH_UNIT (LENGTH_MEASURE( 1.000000000000000082E-05 ), #82, 'distance_accuracy_value', 'NONE');
#70 = COORDINATED_UNIVERSAL_TIME_OFFSET ( 9, 0, .AHEAD. ) ;
#71 = PERSON ( 'UNSPECIFIED', 'UNSPECIFIED', 'UNSPECIFIED', ('UNSPECIFIED'), ('UNSPECIFIED'), ('UNSPECIFIED') ) ;
#72 = APPROVAL ( #80, 'UNSPECIFIED' ) ;
#73 = CARTESIAN_POINT ( 'NONE',  ( 0.000000000000000000, 0.000000000000000000, 5.000000000000000000 ) ) ;
#74 = LOCAL_TIME ( 23, 16, 55.00000000000000000, #248 ) ;
#75 = FACE_BOUND ( 'NONE', #115, .T. ) ;
#76 = VERTEX_POINT ( 'NONE', #152 ) ;
#77 = EDGE_CURVE ( 'NONE', #76, #206, #158, .T. ) ;
#78 = DIRECTION ( 'NONE',  ( 1.000000000000000000, 0.000000000000000000, 0.000000000000000000 ) ) ;
#79 = VECTOR ( 'NONE', #95, 1000.000000000000000 ) ;
#80 = APPROVAL_STATUS ( 'not_yet_approved' ) ;
#81 = DIRECTION ( 'NONE',  ( 1.000000000000000000, 0.000000000000000000, 0.000000000000000000 ) ) ;
#82 =( LENGTH_UNIT ( ) NAMED_UNIT ( * ) SI_UNIT ( .MILLI., .METRE. ) );
#83 = ORIENTED_EDGE ( 'NONE', *, *, #37, .T. ) ;
#84 = DIRECTION ( 'NONE',  ( -1.000000000000000000, 0.000000000000000000, 0.000000000000000000 ) ) ;
#85 = ORIENTED_EDGE ( 'NONE', *, *, #64, .T. ) ;
#86 = APPLICATION_CONTEXT ( 'configuration controlled 3d designs of mechanical parts and assemblies' ) ;
#87 = PERSON_AND_ORGANIZATION ( #71, #135 ) ;
#88 = SECURITY_CLASSIFICATION ( '', '', #209 ) ;
#89 = ORIENTED_EDGE ( 'NONE', *, *, #53, .T. ) ;
#90 = CC_DESIGN_DATE_AND_TIME_ASSIGNMENT ( #149, #67, ( #129 ) ) ;
#91 = LINE ( 'NONE', #160, #125 ) ;
#92 = ORIENTED_EDGE ( 'NONE', *, *, #112, .T. ) ;
#93 = CIRCLE ( 'NONE', #102, 2.000000000000000000 ) ;
#94 = EDGE_CURVE ( 'NONE', #16, #76, #6, .T. ) ;
#95 = DIRECTION ( 'NONE',  ( -0.000000000000000000, -0.000000000000000000, -1.000000000000000000 ) ) ;
#96 = DIRECTION ( 'NONE',  ( 0.000000000000000000, 0.000000000000000000, 1.000000000000000000 ) ) ;
#97 = DIRECTION ( 'NONE',  ( 1.000000000000000000, 0.000000000000000000, 0.000000000000000000 ) ) ;
#98 = CIRCLE ( 'NONE', #21, 6.500000000000000888 ) ;
#99 = CARTESIAN_POINT ( 'NONE',  ( 0.000000000000000000, 0.000000000000000000, 5.000000000000000000 ) ) ;
#100 = DIRECTION ( 'NONE',  ( 0.000000000000000000, 0.000000000000000000, 1.000000000000000000 ) ) ;
#101 = DIRECTION ( 'NONE',  ( 0.000000000000000000, 0.000000000000000000, 1.000000000000000000 ) ) ;
#102 = AXIS2_PLACEMENT_3D ( 'NONE', #63, #164, #182 ) ;
#103 = COORDINATED_UNIVERSAL_TIME_OFFSET ( 9, 0, .AHEAD. ) ;
#104 = PRODUCT_DEFINITION_SHAPE ( 'NONE', 'NONE',  #129 ) ;
#105 = ADVANCED_FACE ( 'NONE', ( #221 ), #43, .T. ) ;
#106 = ORIENTED_EDGE ( 'NONE', *, *, #202, .T. ) ;
#107 = APPROVAL_ROLE ( '' ) ;
#108 = CIRCLE ( 'NONE', #13, 2.000000000000000000 ) ;
#109 = DIRECTION ( 'NONE',  ( 1.000000000000000000, 0.000000000000000000, 0.000000000000000000 ) ) ;
#110 = ADVANCED_FACE ( 'NONE', ( #59 ), #28, .T. ) ;
#111 = DIRECTION ( 'NONE',  ( 0.000000000000000000, 0.000000000000000000, 1.000000000000000000 ) ) ;
#112 = EDGE_CURVE ( 'NONE', #45, #51, #203, .T. ) ;
#113 = DIRECTION ( 'NONE',  ( 0.000000000000000000, 0.000000000000000000, 1.000000000000000000 ) ) ;
#114 = CLOSED_SHELL ( 'NONE', ( #10, #105, #156, #23, #110, #172 ) ) ;
#115 = EDGE_LOOP ( 'NONE', ( #106, #150 ) ) ;
#116 = ORIENTED_EDGE ( 'NONE', *, *, #94, .F. ) ;
#117 = PERSON_AND_ORGANIZATION ( #71, #135 ) ;
#118 = AXIS2_PLACEMENT_3D ( 'NONE', #239, #167, #62 ) ;
#119 = PERSON_AND_ORGANIZATION_ROLE ( 'design_owner' ) ;
#120 = ORIENTED_EDGE ( 'NONE', *, *, #50, .T. ) ;
#121 = EDGE_CURVE ( 'NONE', #45, #130, #61, .T. ) ;
#122 = DIRECTION ( 'NONE',  ( -0.000000000000000000, -0.000000000000000000, -1.000000000000000000 ) ) ;
#123 = PRODUCT_RELATED_PRODUCT_CATEGORY ( 'detail', '', ( #190 ) ) ;
#124 = APPLICATION_PROTOCOL_DEFINITION ( 'international standard', 'config_control_design', 1994, #86 ) ;
#125 = VECTOR ( 'NONE', #159, 1000.000000000000000 ) ;
#126 = CALENDAR_DATE ( 2024, 26, 9 ) ;
#127 = APPLICATION_CONTEXT ( 'configuration controlled 3d designs of mechanical parts and assemblies' ) ;
#128 = EDGE_LOOP ( 'NONE', ( #175, #183 ) ) ;
#129 = PRODUCT_DEFINITION ( 'UNKNOWN', '', #241, #229 ) ;
#130 = VERTEX_POINT ( 'NONE', #11 ) ;
#131 = AXIS2_PLACEMENT_3D ( 'NONE', #29, #122, #84 ) ;
#132 = DIRECTION ( 'NONE',  ( 1.000000000000000000, 0.000000000000000000, 0.000000000000000000 ) ) ;
#133 = DATE_TIME_ROLE ( 'classification_date' ) ;
#134 = APPROVAL_DATE_TIME ( #230, #178 ) ;
#135 = ORGANIZATION ( 'UNSPECIFIED', 'UNSPECIFIED', '' ) ;
#136 = CARTESIAN_POINT ( 'NONE',  ( 0.000000000000000000, 0.000000000000000000, 5.000000000000000000 ) ) ;
#137 = CARTESIAN_POINT ( 'NONE',  ( 0.000000000000000000, 0.000000000000000000, 5.000000000000000000 ) ) ;
#138 = ORIENTED_EDGE ( 'NONE', *, *, #53, .F. ) ;
#139 = LOCAL_TIME ( 23, 16, 55.00000000000000000, #70 ) ;
#140 = DIRECTION ( 'NONE',  ( -0.000000000000000000, -0.000000000000000000, -1.000000000000000000 ) ) ;
#141 = CARTESIAN_POINT ( 'NONE',  ( -2.000000000000000000, 0.000000000000000000, 0.000000000000000000 ) ) ;
#142 = MANIFOLD_SOLID_BREP ( '보스-돌출1', #114 ) ;
#143 = DIRECTION ( 'NONE',  ( 1.000000000000000000, 0.000000000000000000, 0.000000000000000000 ) ) ;
#144 = EDGE_CURVE ( 'NONE', #16, #176, #162, .T. ) ;
#145 = DIRECTION ( 'NONE',  ( 0.000000000000000000, 0.000000000000000000, 1.000000000000000000 ) ) ;
#146 = CC_DESIGN_PERSON_AND_ORGANIZATION_ASSIGNMENT ( #151, #216, ( #241 ) ) ;
#147 = CYLINDRICAL_SURFACE ( 'NONE', #131, 2.000000000000000000 ) ;
#148 = AXIS2_PLACEMENT_3D ( 'NONE', #225, #145, #242 ) ;
#149 = DATE_AND_TIME ( #244, #139 ) ;
#150 = ORIENTED_EDGE ( 'NONE', *, *, #77, .T. ) ;
#151 = PERSON_AND_ORGANIZATION ( #71, #135 ) ;
#152 = CARTESIAN_POINT ( 'NONE',  ( 2.000000000000000000, 2.449293598294706414E-16, 0.000000000000000000 ) ) ;
#153 = APPROVAL_STATUS ( 'not_yet_approved' ) ;
#154 = AXIS2_PLACEMENT_3D ( 'NONE', #214, #174, #132 ) ;
#155 = COORDINATED_UNIVERSAL_TIME_OFFSET ( 9, 0, .AHEAD. ) ;
#156 = ADVANCED_FACE ( 'NONE', ( #226, #201 ), #240, .T. ) ;
#157 = ORIENTED_EDGE ( 'NONE', *, *, #77, .F. ) ;
#158 = CIRCLE ( 'NONE', #154, 2.000000000000000000 ) ;
#159 = DIRECTION ( 'NONE',  ( -0.000000000000000000, -0.000000000000000000, -1.000000000000000000 ) ) ;
#160 = CARTESIAN_POINT ( 'NONE',  ( -2.000000000000000000, 0.000000000000000000, 5.000000000000000000 ) ) ;
#161 = CARTESIAN_POINT ( 'NONE',  ( 6.500000000000000888, 7.960204194457796463E-16, 5.000000000000000000 ) ) ;
#162 = CIRCLE ( 'NONE', #148, 2.000000000000000000 ) ;
#163 = DATE_AND_TIME ( #32, #38 ) ;
#164 = DIRECTION ( 'NONE',  ( 0.000000000000000000, 0.000000000000000000, 1.000000000000000000 ) ) ;
#165 = CC_DESIGN_PERSON_AND_ORGANIZATION_ASSIGNMENT ( #185, #119, ( #190 ) ) ;
#166 = APPROVAL_PERSON_ORGANIZATION ( #17, #223, #188 ) ;
#167 = DIRECTION ( 'NONE',  ( 0.000000000000000000, 0.000000000000000000, 1.000000000000000000 ) ) ;
#168 = DIRECTION ( 'NONE',  ( 0.000000000000000000, 0.000000000000000000, 1.000000000000000000 ) ) ;
#169 = DATE_AND_TIME ( #126, #33 ) ;
#170 = PERSON_AND_ORGANIZATION_ROLE ( 'design_supplier' ) ;
#171 = DATE_AND_TIME ( #246, #30 ) ;
#172 = ADVANCED_FACE ( 'NONE', ( #184 ), #147, .F. ) ;
#173 = CC_DESIGN_APPROVAL ( #223, ( #241 ) ) ;
#174 = DIRECTION ( 'NONE',  ( 0.000000000000000000, 0.000000000000000000, 1.000000000000000000 ) ) ;
#175 = ORIENTED_EDGE ( 'NONE', *, *, #50, .F. ) ;
#176 = VERTEX_POINT ( 'NONE', #207 ) ;
#177 = DIRECTION ( 'NONE',  ( -1.000000000000000000, 0.000000000000000000, 0.000000000000000000 ) ) ;
#178 = APPROVAL ( #153, 'UNSPECIFIED' ) ;
#179 = CARTESIAN_POINT ( 'NONE',  ( 0.000000000000000000, 0.000000000000000000, 5.000000000000000000 ) ) ;
#180 = PERSON_AND_ORGANIZATION_ROLE ( 'creator' ) ;
#181 = DIRECTION ( 'NONE',  ( 1.000000000000000000, 0.000000000000000000, 0.000000000000000000 ) ) ;
#182 = DIRECTION ( 'NONE',  ( 1.000000000000000000, 0.000000000000000000, 0.000000000000000000 ) ) ;
#183 = ORIENTED_EDGE ( 'NONE', *, *, #12, .F. ) ;
#184 = FACE_OUTER_BOUND ( 'NONE', #44, .T. ) ;
#185 = PERSON_AND_ORGANIZATION ( #71, #135 ) ;
#186 = CC_DESIGN_PERSON_AND_ORGANIZATION_ASSIGNMENT ( #192, #211, ( #88 ) ) ;
#187 = EDGE_LOOP ( 'NONE', ( #1, #89, #18, #39 ) ) ;
#188 = APPROVAL_ROLE ( '' ) ;
#189 = ORIENTED_EDGE ( 'NONE', *, *, #64, .F. ) ;
#190 = PRODUCT ( '베어링 m4', '베어링 m4', '', ( #9 ) ) ;
#191 = DIRECTION ( 'NONE',  ( -0.000000000000000000, -0.000000000000000000, -1.000000000000000000 ) ) ;
#192 = PERSON_AND_ORGANIZATION ( #71, #135 ) ;
#193 =( GEOMETRIC_REPRESENTATION_CONTEXT ( 3 ) GLOBAL_UNCERTAINTY_ASSIGNED_CONTEXT ( ( #69 ) ) GLOBAL_UNIT_ASSIGNED_CONTEXT ( ( #82, #243, #8 ) ) REPRESENTATION_CONTEXT ( 'NONE', 'WORKASPACE' ) );
#194 = AXIS2_PLACEMENT_3D ( 'NONE', #73, #101, #81 ) ;
#195 = CARTESIAN_POINT ( 'NONE',  ( 0.000000000000000000, 0.000000000000000000, 0.000000000000000000 ) ) ;
#196 = LINE ( 'NONE', #161, #41 ) ;
#197 = CC_DESIGN_APPROVAL ( #72, ( #129 ) ) ;
#198 = CYLINDRICAL_SURFACE ( 'NONE', #238, 2.000000000000000000 ) ;
#199 = DIRECTION ( 'NONE',  ( -1.000000000000000000, 0.000000000000000000, 0.000000000000000000 ) ) ;
#200 = CC_DESIGN_PERSON_AND_ORGANIZATION_ASSIGNMENT ( #117, #180, ( #129 ) ) ;
#201 = FACE_BOUND ( 'NONE', #24, .T. ) ;
#202 = EDGE_CURVE ( 'NONE', #206, #76, #93, .T. ) ;
#203 = CIRCLE ( 'NONE', #194, 6.500000000000000888 ) ;
#204 = CARTESIAN_POINT ( 'NONE',  ( 0.000000000000000000, 0.000000000000000000, 0.000000000000000000 ) ) ;
#205 = APPROVAL_ROLE ( '' ) ;
#206 = VERTEX_POINT ( 'NONE', #141 ) ;
#207 = CARTESIAN_POINT ( 'NONE',  ( -2.000000000000000000, 0.000000000000000000, 5.000000000000000000 ) ) ;
#208 = PERSON_AND_ORGANIZATION ( #71, #135 ) ;
#209 = SECURITY_CLASSIFICATION_LEVEL ( 'unclassified' ) ;
#210 = ORIENTED_EDGE ( 'NONE', *, *, #202, .F. ) ;
#211 = PERSON_AND_ORGANIZATION_ROLE ( 'classification_officer' ) ;
#212 = ORIENTED_EDGE ( 'NONE', *, *, #121, .T. ) ;
#213 = CIRCLE ( 'NONE', #217, 6.500000000000000888 ) ;
#214 = CARTESIAN_POINT ( 'NONE',  ( 0.000000000000000000, 0.000000000000000000, 0.000000000000000000 ) ) ;
#215 = CC_DESIGN_DATE_AND_TIME_ASSIGNMENT ( #171, #133, ( #88 ) ) ;
#216 = PERSON_AND_ORGANIZATION_ROLE ( 'creator' ) ;
#217 = AXIS2_PLACEMENT_3D ( 'NONE', #99, #168, #143 ) ;
#218 = CARTESIAN_POINT ( 'NONE',  ( 0.000000000000000000, 0.000000000000000000, 0.000000000000000000 ) ) ;
#219 = DIRECTION ( 'NONE',  ( 0.000000000000000000, 0.000000000000000000, 1.000000000000000000 ) ) ;
#220 = ORIENTED_EDGE ( 'NONE', *, *, #144, .T. ) ;
#221 = FACE_OUTER_BOUND ( 'NONE', #187, .T. ) ;
#222 = APPLICATION_PROTOCOL_DEFINITION ( 'international standard', 'config_control_design', 1994, #127 ) ;
#223 = APPROVAL ( #20, 'UNSPECIFIED' ) ;
#224 = AXIS2_PLACEMENT_3D ( 'NONE', #179, #140, #199 ) ;
#225 = CARTESIAN_POINT ( 'NONE',  ( 0.000000000000000000, 0.000000000000000000, 5.000000000000000000 ) ) ;
#226 = FACE_OUTER_BOUND ( 'NONE', #232, .T. ) ;
#227 = EDGE_CURVE ( 'NONE', #51, #45, #213, .T. ) ;
#228 = ORIENTED_EDGE ( 'NONE', *, *, #144, .F. ) ;
#229 = DESIGN_CONTEXT ( 'detailed design', #86, 'design' ) ;
#230 = DATE_AND_TIME ( #65, #74 ) ;
#231 = CC_DESIGN_PERSON_AND_ORGANIZATION_ASSIGNMENT ( #87, #170, ( #241 ) ) ;
#232 = EDGE_LOOP ( 'NONE', ( #92, #42 ) ) ;
#233 = AXIS2_PLACEMENT_3D ( 'NONE', #236, #191, #237 ) ;
#234 = CARTESIAN_POINT ( 'NONE',  ( 0.000000000000000000, 0.000000000000000000, 0.000000000000000000 ) ) ;
#235 = CARTESIAN_POINT ( 'NONE',  ( -6.500000000000000888, 0.000000000000000000, 5.000000000000000000 ) ) ;
#236 = CARTESIAN_POINT ( 'NONE',  ( 0.000000000000000000, 0.000000000000000000, 5.000000000000000000 ) ) ;
#237 = DIRECTION ( 'NONE',  ( -1.000000000000000000, 0.000000000000000000, 0.000000000000000000 ) ) ;
#238 = AXIS2_PLACEMENT_3D ( 'NONE', #136, #27, #177 ) ;
#239 = CARTESIAN_POINT ( 'NONE',  ( 0.000000000000000000, 0.000000000000000000, 5.000000000000000000 ) ) ;
#240 = PLANE ( 'NONE',  #118 ) ;
#241 = PRODUCT_DEFINITION_FORMATION_WITH_SPECIFIED_SOURCE ( 'ANY', '', #190, .NOT_KNOWN. ) ;
#242 = DIRECTION ( 'NONE',  ( 1.000000000000000000, 0.000000000000000000, 0.000000000000000000 ) ) ;
#243 =( NAMED_UNIT ( * ) PLANE_ANGLE_UNIT ( ) SI_UNIT ( $, .RADIAN. ) );
#244 = CALENDAR_DATE ( 2024, 26, 9 ) ;
#245 = VECTOR ( 'NONE', #31, 1000.000000000000000 ) ;
#246 = CALENDAR_DATE ( 2024, 26, 9 ) ;
#247 = ORIENTED_EDGE ( 'NONE', *, *, #94, .T. ) ;
#248 = COORDINATED_UNIVERSAL_TIME_OFFSET ( 9, 0, .AHEAD. ) ;
#249 = AXIS2_PLACEMENT_3D ( 'NONE', #234, #113, #78 ) ;
ENDSEC;
END-ISO-10303-21;
