ISO-10303-21;
HEADER;
FILE_DESCRIPTION (( 'STEP AP203' ),
    '1' );
FILE_NAME ('베어링 베이스.STEP',
    '2024-09-26T14:17:29',
    ( '' ),
    ( '' ),
    'SwSTEP 2.0',
    'SolidWorks 2022',
    '' );
FILE_SCHEMA (( 'CONFIG_CONTROL_DESIGN' ));
ENDSEC;

DATA;
#1 = CARTESIAN_POINT ( 'NONE',  ( -12.99999999999999822, 0.000000000000000000, 11.00000000000000000 ) ) ;
#2 = CARTESIAN_POINT ( 'NONE',  ( 0.000000000000000000, 0.000000000000000000, 0.000000000000000000 ) ) ;
#3 = EDGE_CURVE ( 'NONE', #218, #48, #141, .T. ) ;
#4 = COORDINATED_UNIVERSAL_TIME_OFFSET ( 9, 0, .AHEAD. ) ;
#5 = DATE_AND_TIME ( #113, #185 ) ;
#6 = APPROVAL_ROLE ( '' ) ;
#7 = DATE_TIME_ROLE ( 'classification_date' ) ;
#8 = ORIENTED_EDGE ( 'NONE', *, *, #144, .T. ) ;
#9 = ORGANIZATION ( 'UNSPECIFIED', 'UNSPECIFIED', '' ) ;
#10 = CARTESIAN_POINT ( 'NONE',  ( 0.000000000000000000, 0.000000000000000000, 0.000000000000000000 ) ) ;
#11 = CC_DESIGN_PERSON_AND_ORGANIZATION_ASSIGNMENT ( #190, #216, ( #50 ) ) ;
#12 = EDGE_LOOP ( 'NONE', ( #162, #221 ) ) ;
#13 = CARTESIAN_POINT ( 'NONE',  ( -20.50000000000000000, 0.000000000000000000, 0.000000000000000000 ) ) ;
#14 = DIRECTION ( 'NONE',  ( 0.000000000000000000, 0.000000000000000000, 1.000000000000000000 ) ) ;
#15 = APPLICATION_CONTEXT ( 'configuration controlled 3d designs of mechanical parts and assemblies' ) ;
#16 = DIRECTION ( 'NONE',  ( 1.000000000000000000, 0.000000000000000000, 0.000000000000000000 ) ) ;
#17 = FACE_OUTER_BOUND ( 'NONE', #69, .T. ) ;
#18 = CARTESIAN_POINT ( 'NONE',  ( -20.50000000000000000, 0.000000000000000000, 11.00000000000000000 ) ) ;
#19 = PERSON ( 'UNSPECIFIED', 'UNSPECIFIED', 'UNSPECIFIED', ('UNSPECIFIED'), ('UNSPECIFIED'), ('UNSPECIFIED') ) ;
#20 =( NAMED_UNIT ( * ) PLANE_ANGLE_UNIT ( ) SI_UNIT ( $, .RADIAN. ) );
#21 = COORDINATED_UNIVERSAL_TIME_OFFSET ( 9, 0, .AHEAD. ) ;
#22 = PERSON_AND_ORGANIZATION ( #19, #9 ) ;
#23 = ORIENTED_EDGE ( 'NONE', *, *, #197, .T. ) ;
#24 = SECURITY_CLASSIFICATION ( '', '', #134 ) ;
#25 = ORIENTED_EDGE ( 'NONE', *, *, #3, .F. ) ;
#26 = EDGE_CURVE ( 'NONE', #233, #139, #104, .T. ) ;
#27 = DIRECTION ( 'NONE',  ( -0.000000000000000000, -0.000000000000000000, -1.000000000000000000 ) ) ;
#28 = CLOSED_SHELL ( 'NONE', ( #236, #122, #192, #152, #244, #73 ) ) ;
#29 = VERTEX_POINT ( 'NONE', #53 ) ;
#30 = CYLINDRICAL_SURFACE ( 'NONE', #37, 20.50000000000000000 ) ;
#31 = EDGE_LOOP ( 'NONE', ( #243, #172 ) ) ;
#32 = CARTESIAN_POINT ( 'NONE',  ( 0.000000000000000000, 0.000000000000000000, 11.00000000000000000 ) ) ;
#33 = DIRECTION ( 'NONE',  ( 1.000000000000000000, 0.000000000000000000, -0.000000000000000000 ) ) ;
#34 = CARTESIAN_POINT ( 'NONE',  ( 0.000000000000000000, 0.000000000000000000, 11.00000000000000000 ) ) ;
#35 = CC_DESIGN_PERSON_AND_ORGANIZATION_ASSIGNMENT ( #97, #59, ( #24 ) ) ;
#36 = LINE ( 'NONE', #203, #67 ) ;
#37 = AXIS2_PLACEMENT_3D ( 'NONE', #160, #239, #65 ) ;
#38 = COORDINATED_UNIVERSAL_TIME_OFFSET ( 9, 0, .AHEAD. ) ;
#39 = CC_DESIGN_PERSON_AND_ORGANIZATION_ASSIGNMENT ( #189, #75, ( #50 ) ) ;
#40 = CC_DESIGN_APPROVAL ( #90, ( #179 ) ) ;
#41 = APPROVAL_STATUS ( 'not_yet_approved' ) ;
#42 = UNCERTAINTY_MEASURE_WITH_UNIT (LENGTH_MEASURE( 1.000000000000000082E-05 ), #186, 'distance_accuracy_value', 'NONE');
#43 = DATE_AND_TIME ( #212, #118 ) ;
#44 = ORIENTED_EDGE ( 'NONE', *, *, #116, .T. ) ;
#45 = ORIENTED_EDGE ( 'NONE', *, *, #63, .F. ) ;
#46 = ORIENTED_EDGE ( 'NONE', *, *, #154, .F. ) ;
#47 = VERTEX_POINT ( 'NONE', #13 ) ;
#48 = VERTEX_POINT ( 'NONE', #123 ) ;
#49 = LOCAL_TIME ( 23, 17, 29.00000000000000000, #95 ) ;
#50 = PRODUCT_DEFINITION_FORMATION_WITH_SPECIFIED_SOURCE ( 'ANY', '', #209, .NOT_KNOWN. ) ;
#51 = CARTESIAN_POINT ( 'NONE',  ( 0.000000000000000000, 0.000000000000000000, 11.00000000000000000 ) ) ;
#52 = CC_DESIGN_PERSON_AND_ORGANIZATION_ASSIGNMENT ( #229, #114, ( #179 ) ) ;
#53 = CARTESIAN_POINT ( 'NONE',  ( 12.99999999999999822, 1.592040838891558898E-15, 0.000000000000000000 ) ) ;
#54 = FACE_OUTER_BOUND ( 'NONE', #125, .T. ) ;
#55 = AXIS2_PLACEMENT_3D ( 'NONE', #205, #107, #207 ) ;
#56 = DIRECTION ( 'NONE',  ( 1.000000000000000000, 0.000000000000000000, 0.000000000000000000 ) ) ;
#57 = DIRECTION ( 'NONE',  ( 1.000000000000000000, 0.000000000000000000, 0.000000000000000000 ) ) ;
#58 = DATE_AND_TIME ( #210, #151 ) ;
#59 = PERSON_AND_ORGANIZATION_ROLE ( 'classification_officer' ) ;
#60 = DESIGN_CONTEXT ( 'detailed design', #193, 'design' ) ;
#61 = APPLICATION_PROTOCOL_DEFINITION ( 'international standard', 'config_control_design', 1994, #193 ) ;
#62 = CIRCLE ( 'NONE', #70, 20.50000000000000000 ) ;
#63 = EDGE_CURVE ( 'NONE', #48, #29, #87, .T. ) ;
#64 = ORIENTED_EDGE ( 'NONE', *, *, #201, .T. ) ;
#65 = DIRECTION ( 'NONE',  ( -1.000000000000000000, 0.000000000000000000, 0.000000000000000000 ) ) ;
#66 = CC_DESIGN_PERSON_AND_ORGANIZATION_ASSIGNMENT ( #111, #234, ( #209 ) ) ;
#67 = VECTOR ( 'NONE', #228, 1000.000000000000000 ) ;
#68 = DIRECTION ( 'NONE',  ( -0.000000000000000000, -0.000000000000000000, -1.000000000000000000 ) ) ;
#69 = EDGE_LOOP ( 'NONE', ( #235, #143, #120, #44 ) ) ;
#70 = AXIS2_PLACEMENT_3D ( 'NONE', #51, #181, #238 ) ;
#71 = DIRECTION ( 'NONE',  ( 1.000000000000000000, 0.000000000000000000, 0.000000000000000000 ) ) ;
#72 = CARTESIAN_POINT ( 'NONE',  ( 20.50000000000000000, 2.510525938252074481E-15, 11.00000000000000000 ) ) ;
#73 = ADVANCED_FACE ( 'NONE', ( #126 ), #85, .F. ) ;
#74 = DIRECTION ( 'NONE',  ( -0.000000000000000000, -0.000000000000000000, -1.000000000000000000 ) ) ;
#75 = PERSON_AND_ORGANIZATION_ROLE ( 'creator' ) ;
#76 = AXIS2_PLACEMENT_3D ( 'NONE', #101, #14, #196 ) ;
#77 = ORIENTED_EDGE ( 'NONE', *, *, #144, .F. ) ;
#78 = MANIFOLD_SOLID_BREP ( '보스-돌출1', #28 ) ;
#79 = DATE_AND_TIME ( #230, #211 ) ;
#80 = DIRECTION ( 'NONE',  ( -0.000000000000000000, -0.000000000000000000, -1.000000000000000000 ) ) ;
#81 = DIRECTION ( 'NONE',  ( -1.000000000000000000, 0.000000000000000000, 0.000000000000000000 ) ) ;
#82 = FACE_OUTER_BOUND ( 'NONE', #191, .T. ) ;
#83 = ORIENTED_EDGE ( 'NONE', *, *, #116, .F. ) ;
#84 = CC_DESIGN_SECURITY_CLASSIFICATION ( #24, ( #50 ) ) ;
#85 = CYLINDRICAL_SURFACE ( 'NONE', #184, 12.99999999999999822 ) ;
#86 = CARTESIAN_POINT ( 'NONE',  ( 0.000000000000000000, 0.000000000000000000, 11.00000000000000000 ) ) ;
#87 = CIRCLE ( 'NONE', #206, 12.99999999999999822 ) ;
#88 = ADVANCED_BREP_SHAPE_REPRESENTATION ( '베어링 베이스', ( #78, #226 ), #112 ) ;
#89 = FACE_BOUND ( 'NONE', #12, .T. ) ;
#90 = APPROVAL ( #99, 'UNSPECIFIED' ) ;
#91 = DIRECTION ( 'NONE',  ( 0.000000000000000000, 0.000000000000000000, 1.000000000000000000 ) ) ;
#92 = APPROVAL_ROLE ( '' ) ;
#93 = AXIS2_PLACEMENT_3D ( 'NONE', #106, #169, #56 ) ;
#94 = EDGE_CURVE ( 'NONE', #177, #233, #62, .T. ) ;
#95 = COORDINATED_UNIVERSAL_TIME_OFFSET ( 9, 0, .AHEAD. ) ;
#96 = CC_DESIGN_DATE_AND_TIME_ASSIGNMENT ( #79, #171, ( #179 ) ) ;
#97 = PERSON_AND_ORGANIZATION ( #19, #9 ) ;
#98 = APPROVAL_DATE_TIME ( #43, #90 ) ;
#99 = APPROVAL_STATUS ( 'not_yet_approved' ) ;
#100 = ORIENTED_EDGE ( 'NONE', *, *, #94, .T. ) ;
#101 = CARTESIAN_POINT ( 'NONE',  ( 0.000000000000000000, 0.000000000000000000, 0.000000000000000000 ) ) ;
#102 = VECTOR ( 'NONE', #80, 1000.000000000000000 ) ;
#103 = ORIENTED_EDGE ( 'NONE', *, *, #249, .T. ) ;
#104 = LINE ( 'NONE', #176, #102 ) ;
#105 = APPROVAL_PERSON_ORGANIZATION ( #22, #213, #92 ) ;
#106 = CARTESIAN_POINT ( 'NONE',  ( 0.000000000000000000, 0.000000000000000000, 11.00000000000000000 ) ) ;
#107 = DIRECTION ( 'NONE',  ( 0.000000000000000000, 0.000000000000000000, 1.000000000000000000 ) ) ;
#108 = AXIS2_PLACEMENT_3D ( 'NONE', #86, #74, #204 ) ;
#109 = APPLICATION_PROTOCOL_DEFINITION ( 'international standard', 'config_control_design', 1994, #15 ) ;
#110 = PERSON_AND_ORGANIZATION ( #19, #9 ) ;
#111 = PERSON_AND_ORGANIZATION ( #19, #9 ) ;
#112 =( GEOMETRIC_REPRESENTATION_CONTEXT ( 3 ) GLOBAL_UNCERTAINTY_ASSIGNED_CONTEXT ( ( #42 ) ) GLOBAL_UNIT_ASSIGNED_CONTEXT ( ( #186, #20, #165 ) ) REPRESENTATION_CONTEXT ( 'NONE', 'WORKASPACE' ) );
#113 = CALENDAR_DATE ( 2024, 26, 9 ) ;
#114 = PERSON_AND_ORGANIZATION_ROLE ( 'creator' ) ;
#115 = EDGE_LOOP ( 'NONE', ( #100, #215 ) ) ;
#116 = EDGE_CURVE ( 'NONE', #47, #139, #170, .T. ) ;
#117 = APPROVAL_DATE_TIME ( #208, #213 ) ;
#118 = LOCAL_TIME ( 23, 17, 29.00000000000000000, #21 ) ;
#119 = VERTEX_POINT ( 'NONE', #178 ) ;
#120 = ORIENTED_EDGE ( 'NONE', *, *, #164, .T. ) ;
#121 = DIRECTION ( 'NONE',  ( 1.000000000000000000, 0.000000000000000000, 0.000000000000000000 ) ) ;
#122 = ADVANCED_FACE ( 'NONE', ( #82 ), #30, .T. ) ;
#123 = CARTESIAN_POINT ( 'NONE',  ( -12.99999999999999822, 0.000000000000000000, 0.000000000000000000 ) ) ;
#124 = CIRCLE ( 'NONE', #220, 20.50000000000000000 ) ;
#125 = EDGE_LOOP ( 'NONE', ( #83, #217 ) ) ;
#126 = FACE_OUTER_BOUND ( 'NONE', #153, .T. ) ;
#127 = DIRECTION ( 'NONE',  ( 0.000000000000000000, 0.000000000000000000, 1.000000000000000000 ) ) ;
#128 = CIRCLE ( 'NONE', #55, 12.99999999999999822 ) ;
#129 = DIRECTION ( 'NONE',  ( 0.000000000000000000, 0.000000000000000000, 1.000000000000000000 ) ) ;
#130 = DIRECTION ( 'NONE',  ( 0.000000000000000000, 0.000000000000000000, 1.000000000000000000 ) ) ;
#131 = CARTESIAN_POINT ( 'NONE',  ( 0.000000000000000000, 0.000000000000000000, 0.000000000000000000 ) ) ;
#132 = CIRCLE ( 'NONE', #93, 12.99999999999999822 ) ;
#133 = FACE_OUTER_BOUND ( 'NONE', #115, .T. ) ;
#134 = SECURITY_CLASSIFICATION_LEVEL ( 'unclassified' ) ;
#135 = APPROVAL_STATUS ( 'not_yet_approved' ) ;
#136 = APPROVAL_ROLE ( '' ) ;
#137 = AXIS2_PLACEMENT_3D ( 'NONE', #167, #91, #71 ) ;
#138 = COORDINATED_UNIVERSAL_TIME_OFFSET ( 9, 0, .AHEAD. ) ;
#139 = VERTEX_POINT ( 'NONE', #142 ) ;
#140 = CIRCLE ( 'NONE', #137, 20.50000000000000000 ) ;
#141 = LINE ( 'NONE', #223, #157 ) ;
#142 = CARTESIAN_POINT ( 'NONE',  ( 20.50000000000000000, 2.510525938252074481E-15, 0.000000000000000000 ) ) ;
#143 = ORIENTED_EDGE ( 'NONE', *, *, #94, .F. ) ;
#144 = EDGE_CURVE ( 'NONE', #119, #29, #180, .T. ) ;
#145 = ORIENTED_EDGE ( 'NONE', *, *, #164, .F. ) ;
#146 = FACE_BOUND ( 'NONE', #31, .T. ) ;
#147 = APPROVAL_PERSON_ORGANIZATION ( #155, #90, #136 ) ;
#148 = DIRECTION ( 'NONE',  ( 0.000000000000000000, 0.000000000000000000, 1.000000000000000000 ) ) ;
#149 = FACE_OUTER_BOUND ( 'NONE', #194, .T. ) ;
#150 = CYLINDRICAL_SURFACE ( 'NONE', #108, 12.99999999999999822 ) ;
#151 = LOCAL_TIME ( 23, 17, 29.00000000000000000, #38 ) ;
#152 = ADVANCED_FACE ( 'NONE', ( #54, #89 ), #246, .F. ) ;
#153 = EDGE_LOOP ( 'NONE', ( #77, #23, #199, #46 ) ) ;
#154 = EDGE_CURVE ( 'NONE', #29, #48, #241, .T. ) ;
#155 = PERSON_AND_ORGANIZATION ( #19, #9 ) ;
#156 = ORIENTED_EDGE ( 'NONE', *, *, #219, .F. ) ;
#157 = VECTOR ( 'NONE', #27, 1000.000000000000000 ) ;
#158 = DIRECTION ( 'NONE',  ( 0.000000000000000000, 0.000000000000000000, 1.000000000000000000 ) ) ;
#159 = ORIENTED_EDGE ( 'NONE', *, *, #26, .T. ) ;
#160 = CARTESIAN_POINT ( 'NONE',  ( 0.000000000000000000, 0.000000000000000000, 11.00000000000000000 ) ) ;
#161 = CARTESIAN_POINT ( 'NONE',  ( 12.99999999999999822, 1.592040838891558898E-15, 11.00000000000000000 ) ) ;
#162 = ORIENTED_EDGE ( 'NONE', *, *, #63, .T. ) ;
#163 = CARTESIAN_POINT ( 'NONE',  ( 0.000000000000000000, 0.000000000000000000, 0.000000000000000000 ) ) ;
#164 = EDGE_CURVE ( 'NONE', #177, #47, #36, .T. ) ;
#165 =( NAMED_UNIT ( * ) SI_UNIT ( $, .STERADIAN. ) SOLID_ANGLE_UNIT ( ) );
#166 = VECTOR ( 'NONE', #68, 1000.000000000000000 ) ;
#167 = CARTESIAN_POINT ( 'NONE',  ( 0.000000000000000000, 0.000000000000000000, 11.00000000000000000 ) ) ;
#168 = DIRECTION ( 'NONE',  ( 0.000000000000000000, 0.000000000000000000, 1.000000000000000000 ) ) ;
#169 = DIRECTION ( 'NONE',  ( 0.000000000000000000, 0.000000000000000000, 1.000000000000000000 ) ) ;
#170 = CIRCLE ( 'NONE', #76, 20.50000000000000000 ) ;
#171 = DATE_TIME_ROLE ( 'creation_date' ) ;
#172 = ORIENTED_EDGE ( 'NONE', *, *, #197, .F. ) ;
#173 = CC_DESIGN_APPROVAL ( #222, ( #50 ) ) ;
#174 = CALENDAR_DATE ( 2024, 26, 9 ) ;
#175 = SHAPE_DEFINITION_REPRESENTATION ( #227, #88 ) ;
#176 = CARTESIAN_POINT ( 'NONE',  ( 20.50000000000000000, 2.510525938252074481E-15, 11.00000000000000000 ) ) ;
#177 = VERTEX_POINT ( 'NONE', #18 ) ;
#178 = CARTESIAN_POINT ( 'NONE',  ( 12.99999999999999822, 1.592040838891558898E-15, 11.00000000000000000 ) ) ;
#179 = PRODUCT_DEFINITION ( 'UNKNOWN', '', #50, #60 ) ;
#180 = LINE ( 'NONE', #161, #166 ) ;
#181 = DIRECTION ( 'NONE',  ( 0.000000000000000000, 0.000000000000000000, 1.000000000000000000 ) ) ;
#182 = CYLINDRICAL_SURFACE ( 'NONE', #237, 20.50000000000000000 ) ;
#183 = DIRECTION ( 'NONE',  ( 1.000000000000000000, 0.000000000000000000, -0.000000000000000000 ) ) ;
#184 = AXIS2_PLACEMENT_3D ( 'NONE', #198, #242, #81 ) ;
#185 = LOCAL_TIME ( 23, 17, 29.00000000000000000, #4 ) ;
#186 =( LENGTH_UNIT ( ) NAMED_UNIT ( * ) SI_UNIT ( .MILLI., .METRE. ) );
#187 = APPROVAL_DATE_TIME ( #5, #222 ) ;
#188 = AXIS2_PLACEMENT_3D ( 'NONE', #2, #127, #183 ) ;
#189 = PERSON_AND_ORGANIZATION ( #19, #9 ) ;
#190 = PERSON_AND_ORGANIZATION ( #19, #9 ) ;
#191 = EDGE_LOOP ( 'NONE', ( #156, #159, #64, #145 ) ) ;
#192 = ADVANCED_FACE ( 'NONE', ( #133, #146 ), #225, .T. ) ;
#193 = APPLICATION_CONTEXT ( 'configuration controlled 3d designs of mechanical parts and assemblies' ) ;
#194 = EDGE_LOOP ( 'NONE', ( #103, #8, #45, #25 ) ) ;
#195 = APPROVAL_PERSON_ORGANIZATION ( #110, #222, #6 ) ;
#196 = DIRECTION ( 'NONE',  ( 1.000000000000000000, 0.000000000000000000, 0.000000000000000000 ) ) ;
#197 = EDGE_CURVE ( 'NONE', #119, #218, #132, .T. ) ;
#198 = CARTESIAN_POINT ( 'NONE',  ( 0.000000000000000000, 0.000000000000000000, 11.00000000000000000 ) ) ;
#199 = ORIENTED_EDGE ( 'NONE', *, *, #3, .T. ) ;
#200 = CARTESIAN_POINT ( 'NONE',  ( 0.000000000000000000, 0.000000000000000000, 0.000000000000000000 ) ) ;
#201 = EDGE_CURVE ( 'NONE', #139, #47, #124, .T. ) ;
#202 = AXIS2_PLACEMENT_3D ( 'NONE', #32, #148, #33 ) ;
#203 = CARTESIAN_POINT ( 'NONE',  ( -20.50000000000000000, 0.000000000000000000, 11.00000000000000000 ) ) ;
#204 = DIRECTION ( 'NONE',  ( -1.000000000000000000, 0.000000000000000000, 0.000000000000000000 ) ) ;
#205 = CARTESIAN_POINT ( 'NONE',  ( 0.000000000000000000, 0.000000000000000000, 11.00000000000000000 ) ) ;
#206 = AXIS2_PLACEMENT_3D ( 'NONE', #10, #158, #121 ) ;
#207 = DIRECTION ( 'NONE',  ( 1.000000000000000000, 0.000000000000000000, 0.000000000000000000 ) ) ;
#208 = DATE_AND_TIME ( #174, #49 ) ;
#209 = PRODUCT ( '베어링 베이스', '베어링 베이스', '', ( #214 ) ) ;
#210 = CALENDAR_DATE ( 2024, 26, 9 ) ;
#211 = LOCAL_TIME ( 23, 17, 29.00000000000000000, #138 ) ;
#212 = CALENDAR_DATE ( 2024, 26, 9 ) ;
#213 = APPROVAL ( #135, 'UNSPECIFIED' ) ;
#214 = MECHANICAL_CONTEXT ( 'NONE', #15, 'mechanical' ) ;
#215 = ORIENTED_EDGE ( 'NONE', *, *, #219, .T. ) ;
#216 = PERSON_AND_ORGANIZATION_ROLE ( 'design_supplier' ) ;
#217 = ORIENTED_EDGE ( 'NONE', *, *, #201, .F. ) ;
#218 = VERTEX_POINT ( 'NONE', #1 ) ;
#219 = EDGE_CURVE ( 'NONE', #233, #177, #140, .T. ) ;
#220 = AXIS2_PLACEMENT_3D ( 'NONE', #131, #168, #16 ) ;
#221 = ORIENTED_EDGE ( 'NONE', *, *, #154, .T. ) ;
#222 = APPROVAL ( #41, 'UNSPECIFIED' ) ;
#223 = CARTESIAN_POINT ( 'NONE',  ( -12.99999999999999822, 0.000000000000000000, 11.00000000000000000 ) ) ;
#224 = DIRECTION ( 'NONE',  ( -1.000000000000000000, 0.000000000000000000, 0.000000000000000000 ) ) ;
#225 = PLANE ( 'NONE',  #202 ) ;
#226 = AXIS2_PLACEMENT_3D ( 'NONE', #163, #130, #245 ) ;
#227 = PRODUCT_DEFINITION_SHAPE ( 'NONE', 'NONE',  #179 ) ;
#228 = DIRECTION ( 'NONE',  ( -0.000000000000000000, -0.000000000000000000, -1.000000000000000000 ) ) ;
#229 = PERSON_AND_ORGANIZATION ( #19, #9 ) ;
#230 = CALENDAR_DATE ( 2024, 26, 9 ) ;
#231 = CC_DESIGN_DATE_AND_TIME_ASSIGNMENT ( #58, #7, ( #24 ) ) ;
#232 = CC_DESIGN_APPROVAL ( #213, ( #24 ) ) ;
#233 = VERTEX_POINT ( 'NONE', #72 ) ;
#234 = PERSON_AND_ORGANIZATION_ROLE ( 'design_owner' ) ;
#235 = ORIENTED_EDGE ( 'NONE', *, *, #26, .F. ) ;
#236 = ADVANCED_FACE ( 'NONE', ( #149 ), #150, .F. ) ;
#237 = AXIS2_PLACEMENT_3D ( 'NONE', #34, #248, #224 ) ;
#238 = DIRECTION ( 'NONE',  ( 1.000000000000000000, 0.000000000000000000, 0.000000000000000000 ) ) ;
#239 = DIRECTION ( 'NONE',  ( -0.000000000000000000, -0.000000000000000000, -1.000000000000000000 ) ) ;
#240 = PRODUCT_RELATED_PRODUCT_CATEGORY ( 'detail', '', ( #209 ) ) ;
#241 = CIRCLE ( 'NONE', #247, 12.99999999999999822 ) ;
#242 = DIRECTION ( 'NONE',  ( -0.000000000000000000, -0.000000000000000000, -1.000000000000000000 ) ) ;
#243 = ORIENTED_EDGE ( 'NONE', *, *, #249, .F. ) ;
#244 = ADVANCED_FACE ( 'NONE', ( #17 ), #182, .T. ) ;
#245 = DIRECTION ( 'NONE',  ( 1.000000000000000000, 0.000000000000000000, 0.000000000000000000 ) ) ;
#246 = PLANE ( 'NONE',  #188 ) ;
#247 = AXIS2_PLACEMENT_3D ( 'NONE', #200, #129, #57 ) ;
#248 = DIRECTION ( 'NONE',  ( -0.000000000000000000, -0.000000000000000000, -1.000000000000000000 ) ) ;
#249 = EDGE_CURVE ( 'NONE', #218, #119, #128, .T. ) ;
ENDSEC;
END-ISO-10303-21;
