ISO-10303-21;
HEADER;
FILE_DESCRIPTION (( 'STEP AP203' ),
    '1' );
FILE_NAME ('베어링 m5.STEP',
    '2024-09-26T14:16:49',
    ( '' ),
    ( '' ),
    'SwSTEP 2.0',
    'SolidWorks 2022',
    '' );
FILE_SCHEMA (( 'CONFIG_CONTROL_DESIGN' ));
ENDSEC;

DATA;
#1 = CARTESIAN_POINT ( 'NONE',  ( 2.500000000000000000, 3.061616997868383141E-16, 0.000000000000000000 ) ) ;
#2 = AXIS2_PLACEMENT_3D ( 'NONE', #151, #56, #53 ) ;
#3 = APPROVAL ( #9, 'UNSPECIFIED' ) ;
#4 = APPROVAL_PERSON_ORGANIZATION ( #11, #244, #49 ) ;
#5 = CARTESIAN_POINT ( 'NONE',  ( 2.500000000000000000, 3.061616997868383141E-16, 4.000000000000000000 ) ) ;
#6 = APPROVAL_DATE_TIME ( #180, #39 ) ;
#7 = PERSON_AND_ORGANIZATION_ROLE ( 'design_supplier' ) ;
#8 = LOCAL_TIME ( 23, 16, 49.00000000000000000, #165 ) ;
#9 = APPROVAL_STATUS ( 'not_yet_approved' ) ;
#10 = EDGE_CURVE ( 'NONE', #143, #184, #173, .T. ) ;
#11 = PERSON_AND_ORGANIZATION ( #68, #174 ) ;
#12 = PRODUCT_DEFINITION_FORMATION_WITH_SPECIFIED_SOURCE ( 'ANY', '', #116, .NOT_KNOWN. ) ;
#13 = ORIENTED_EDGE ( 'NONE', *, *, #137, .T. ) ;
#14 = ORIENTED_EDGE ( 'NONE', *, *, #179, .F. ) ;
#15 = MANIFOLD_SOLID_BREP ( '보스-돌출1', #32 ) ;
#16 = CARTESIAN_POINT ( 'NONE',  ( -2.500000000000000000, 0.000000000000000000, 4.000000000000000000 ) ) ;
#17 = EDGE_CURVE ( 'NONE', #47, #210, #99, .T. ) ;
#18 = CYLINDRICAL_SURFACE ( 'NONE', #77, 6.500000000000000888 ) ;
#19 = AXIS2_PLACEMENT_3D ( 'NONE', #75, #87, #152 ) ;
#20 = CARTESIAN_POINT ( 'NONE',  ( 0.000000000000000000, 0.000000000000000000, 4.000000000000000000 ) ) ;
#21 = EDGE_LOOP ( 'NONE', ( #209, #107 ) ) ;
#22 = DIRECTION ( 'NONE',  ( 0.000000000000000000, 0.000000000000000000, 1.000000000000000000 ) ) ;
#23 = LOCAL_TIME ( 23, 16, 49.00000000000000000, #122 ) ;
#24 = CARTESIAN_POINT ( 'NONE',  ( 0.000000000000000000, 0.000000000000000000, 0.000000000000000000 ) ) ;
#25 = DESIGN_CONTEXT ( 'detailed design', #194, 'design' ) ;
#26 = CC_DESIGN_SECURITY_CLASSIFICATION ( #153, ( #12 ) ) ;
#27 = EDGE_CURVE ( 'NONE', #189, #144, #115, .T. ) ;
#28 = PERSON_AND_ORGANIZATION_ROLE ( 'classification_officer' ) ;
#29 = ORIENTED_EDGE ( 'NONE', *, *, #192, .F. ) ;
#30 = ORIENTED_EDGE ( 'NONE', *, *, #179, .T. ) ;
#31 = CALENDAR_DATE ( 2024, 26, 9 ) ;
#32 = CLOSED_SHELL ( 'NONE', ( #182, #196, #37, #219, #84, #128 ) ) ;
#33 = DIRECTION ( 'NONE',  ( -0.000000000000000000, -0.000000000000000000, -1.000000000000000000 ) ) ;
#34 = FACE_OUTER_BOUND ( 'NONE', #21, .T. ) ;
#35 = DIRECTION ( 'NONE',  ( -0.000000000000000000, -0.000000000000000000, -1.000000000000000000 ) ) ;
#36 = APPROVAL_PERSON_ORGANIZATION ( #102, #3, #201 ) ;
#37 = ADVANCED_FACE ( 'NONE', ( #34, #211 ), #188, .T. ) ;
#38 = LINE ( 'NONE', #245, #72 ) ;
#39 = APPROVAL ( #236, 'UNSPECIFIED' ) ;
#40 = DIRECTION ( 'NONE',  ( 1.000000000000000000, 0.000000000000000000, 0.000000000000000000 ) ) ;
#41 = DIRECTION ( 'NONE',  ( -1.000000000000000000, 0.000000000000000000, 0.000000000000000000 ) ) ;
#42 = CIRCLE ( 'NONE', #225, 2.500000000000000000 ) ;
#43 =( NAMED_UNIT ( * ) PLANE_ANGLE_UNIT ( ) SI_UNIT ( $, .RADIAN. ) );
#44 = CARTESIAN_POINT ( 'NONE',  ( 0.000000000000000000, 0.000000000000000000, 4.000000000000000000 ) ) ;
#45 = CALENDAR_DATE ( 2024, 26, 9 ) ;
#46 = DATE_AND_TIME ( #31, #23 ) ;
#47 = VERTEX_POINT ( 'NONE', #110 ) ;
#48 = LOCAL_TIME ( 23, 16, 49.00000000000000000, #125 ) ;
#49 = APPROVAL_ROLE ( '' ) ;
#50 = VERTEX_POINT ( 'NONE', #1 ) ;
#51 = EDGE_LOOP ( 'NONE', ( #203, #30, #240, #90 ) ) ;
#52 = CC_DESIGN_APPROVAL ( #39, ( #83 ) ) ;
#53 = DIRECTION ( 'NONE',  ( 1.000000000000000000, 0.000000000000000000, 0.000000000000000000 ) ) ;
#54 = DIRECTION ( 'NONE',  ( -0.000000000000000000, -0.000000000000000000, -1.000000000000000000 ) ) ;
#55 = ORIENTED_EDGE ( 'NONE', *, *, #239, .T. ) ;
#56 = DIRECTION ( 'NONE',  ( 0.000000000000000000, 0.000000000000000000, 1.000000000000000000 ) ) ;
#57 = VECTOR ( 'NONE', #35, 1000.000000000000000 ) ;
#58 = CC_DESIGN_PERSON_AND_ORGANIZATION_ASSIGNMENT ( #218, #156, ( #116 ) ) ;
#59 = DIRECTION ( 'NONE',  ( 0.000000000000000000, 0.000000000000000000, 1.000000000000000000 ) ) ;
#60 = FACE_BOUND ( 'NONE', #164, .T. ) ;
#61 = DIRECTION ( 'NONE',  ( 0.000000000000000000, 0.000000000000000000, 1.000000000000000000 ) ) ;
#62 = APPLICATION_PROTOCOL_DEFINITION ( 'international standard', 'config_control_design', 1994, #91 ) ;
#63 = APPROVAL_ROLE ( '' ) ;
#64 = PERSON_AND_ORGANIZATION_ROLE ( 'creator' ) ;
#65 = AXIS2_PLACEMENT_3D ( 'NONE', #131, #33, #161 ) ;
#66 = ORIENTED_EDGE ( 'NONE', *, *, #17, .F. ) ;
#67 = ORIENTED_EDGE ( 'NONE', *, *, #27, .F. ) ;
#68 = PERSON ( 'UNSPECIFIED', 'UNSPECIFIED', 'UNSPECIFIED', ('UNSPECIFIED'), ('UNSPECIFIED'), ('UNSPECIFIED') ) ;
#69 = SHAPE_DEFINITION_REPRESENTATION ( #187, #120 ) ;
#70 = DATE_AND_TIME ( #86, #231 ) ;
#71 = CYLINDRICAL_SURFACE ( 'NONE', #65, 2.500000000000000000 ) ;
#72 = VECTOR ( 'NONE', #93, 1000.000000000000000 ) ;
#73 = CARTESIAN_POINT ( 'NONE',  ( 0.000000000000000000, 0.000000000000000000, 4.000000000000000000 ) ) ;
#74 = CARTESIAN_POINT ( 'NONE',  ( 6.500000000000000888, 7.960204194457796463E-16, 4.000000000000000000 ) ) ;
#75 = CARTESIAN_POINT ( 'NONE',  ( 0.000000000000000000, 0.000000000000000000, 4.000000000000000000 ) ) ;
#76 = FACE_OUTER_BOUND ( 'NONE', #229, .T. ) ;
#77 = AXIS2_PLACEMENT_3D ( 'NONE', #20, #54, #92 ) ;
#78 = DIRECTION ( 'NONE',  ( 0.000000000000000000, 0.000000000000000000, 1.000000000000000000 ) ) ;
#79 = DIRECTION ( 'NONE',  ( 0.000000000000000000, 0.000000000000000000, 1.000000000000000000 ) ) ;
#80 = UNCERTAINTY_MEASURE_WITH_UNIT (LENGTH_MEASURE( 1.000000000000000082E-05 ), #140, 'distance_accuracy_value', 'NONE');
#81 = PERSON_AND_ORGANIZATION ( #68, #174 ) ;
#82 = PERSON_AND_ORGANIZATION ( #68, #174 ) ;
#83 = PRODUCT_DEFINITION ( 'UNKNOWN', '', #12, #25 ) ;
#84 = ADVANCED_FACE ( 'NONE', ( #76 ), #18, .T. ) ;
#85 = EDGE_LOOP ( 'NONE', ( #186, #129, #214, #150 ) ) ;
#86 = CALENDAR_DATE ( 2024, 26, 9 ) ;
#87 = DIRECTION ( 'NONE',  ( -0.000000000000000000, -0.000000000000000000, -1.000000000000000000 ) ) ;
#88 = DIRECTION ( 'NONE',  ( 0.000000000000000000, 0.000000000000000000, 1.000000000000000000 ) ) ;
#89 = CIRCLE ( 'NONE', #2, 6.500000000000000888 ) ;
#90 = ORIENTED_EDGE ( 'NONE', *, *, #100, .F. ) ;
#91 = APPLICATION_CONTEXT ( 'configuration controlled 3d designs of mechanical parts and assemblies' ) ;
#92 = DIRECTION ( 'NONE',  ( -1.000000000000000000, 0.000000000000000000, 0.000000000000000000 ) ) ;
#93 = DIRECTION ( 'NONE',  ( -0.000000000000000000, -0.000000000000000000, -1.000000000000000000 ) ) ;
#94 = CARTESIAN_POINT ( 'NONE',  ( 0.000000000000000000, 0.000000000000000000, 0.000000000000000000 ) ) ;
#95 = AXIS2_PLACEMENT_3D ( 'NONE', #96, #79, #40 ) ;
#96 = CARTESIAN_POINT ( 'NONE',  ( 0.000000000000000000, 0.000000000000000000, 4.000000000000000000 ) ) ;
#97 = DIRECTION ( 'NONE',  ( 1.000000000000000000, 0.000000000000000000, 0.000000000000000000 ) ) ;
#98 = CYLINDRICAL_SURFACE ( 'NONE', #190, 6.500000000000000888 ) ;
#99 = CIRCLE ( 'NONE', #139, 2.500000000000000000 ) ;
#100 = EDGE_CURVE ( 'NONE', #47, #207, #249, .T. ) ;
#101 = COORDINATED_UNIVERSAL_TIME_OFFSET ( 9, 0, .AHEAD. ) ;
#102 = PERSON_AND_ORGANIZATION ( #68, #174 ) ;
#103 = ORIENTED_EDGE ( 'NONE', *, *, #127, .F. ) ;
#104 = AXIS2_PLACEMENT_3D ( 'NONE', #197, #22, #233 ) ;
#105 = ORIENTED_EDGE ( 'NONE', *, *, #216, .F. ) ;
#106 = DATE_TIME_ROLE ( 'classification_date' ) ;
#107 = ORIENTED_EDGE ( 'NONE', *, *, #237, .T. ) ;
#108 = CC_DESIGN_PERSON_AND_ORGANIZATION_ASSIGNMENT ( #163, #28, ( #153 ) ) ;
#109 = CC_DESIGN_PERSON_AND_ORGANIZATION_ASSIGNMENT ( #206, #7, ( #12 ) ) ;
#110 = CARTESIAN_POINT ( 'NONE',  ( -2.500000000000000000, 0.000000000000000000, 4.000000000000000000 ) ) ;
#111 = EDGE_LOOP ( 'NONE', ( #66, #103 ) ) ;
#112 = CARTESIAN_POINT ( 'NONE',  ( 0.000000000000000000, 0.000000000000000000, 4.000000000000000000 ) ) ;
#113 = AXIS2_PLACEMENT_3D ( 'NONE', #94, #61, #195 ) ;
#114 = DIRECTION ( 'NONE',  ( 0.000000000000000000, 0.000000000000000000, 1.000000000000000000 ) ) ;
#115 = LINE ( 'NONE', #74, #57 ) ;
#116 = PRODUCT ( '베어링 m5', '베어링 m5', '', ( #217 ) ) ;
#117 = CARTESIAN_POINT ( 'NONE',  ( 0.000000000000000000, 0.000000000000000000, 0.000000000000000000 ) ) ;
#118 = CARTESIAN_POINT ( 'NONE',  ( 6.500000000000000888, 7.960204194457796463E-16, 4.000000000000000000 ) ) ;
#119 = CARTESIAN_POINT ( 'NONE',  ( 0.000000000000000000, 0.000000000000000000, 0.000000000000000000 ) ) ;
#120 = ADVANCED_BREP_SHAPE_REPRESENTATION ( '베어링 m5', ( #15, #124 ), #234 ) ;
#121 = CALENDAR_DATE ( 2024, 26, 9 ) ;
#122 = COORDINATED_UNIVERSAL_TIME_OFFSET ( 9, 0, .AHEAD. ) ;
#123 = EDGE_LOOP ( 'NONE', ( #223, #168 ) ) ;
#124 = AXIS2_PLACEMENT_3D ( 'NONE', #119, #78, #215 ) ;
#125 = COORDINATED_UNIVERSAL_TIME_OFFSET ( 9, 0, .AHEAD. ) ;
#126 = ORIENTED_EDGE ( 'NONE', *, *, #127, .T. ) ;
#127 = EDGE_CURVE ( 'NONE', #210, #47, #42, .T. ) ;
#128 = ADVANCED_FACE ( 'NONE', ( #171 ), #248, .F. ) ;
#129 = ORIENTED_EDGE ( 'NONE', *, *, #27, .T. ) ;
#130 = APPROVAL_PERSON_ORGANIZATION ( #81, #39, #63 ) ;
#131 = CARTESIAN_POINT ( 'NONE',  ( 0.000000000000000000, 0.000000000000000000, 4.000000000000000000 ) ) ;
#132 = ORIENTED_EDGE ( 'NONE', *, *, #192, .T. ) ;
#133 = CARTESIAN_POINT ( 'NONE',  ( -6.500000000000000888, 0.000000000000000000, 4.000000000000000000 ) ) ;
#134 = CIRCLE ( 'NONE', #95, 6.500000000000000888 ) ;
#135 = ORIENTED_EDGE ( 'NONE', *, *, #100, .T. ) ;
#136 = FACE_OUTER_BOUND ( 'NONE', #51, .T. ) ;
#137 = EDGE_CURVE ( 'NONE', #207, #50, #242, .T. ) ;
#138 = DIRECTION ( 'NONE',  ( 0.000000000000000000, 0.000000000000000000, 1.000000000000000000 ) ) ;
#139 = AXIS2_PLACEMENT_3D ( 'NONE', #172, #114, #228 ) ;
#140 =( LENGTH_UNIT ( ) NAMED_UNIT ( * ) SI_UNIT ( .MILLI., .METRE. ) );
#141 = DIRECTION ( 'NONE',  ( 0.000000000000000000, 0.000000000000000000, 1.000000000000000000 ) ) ;
#142 = CC_DESIGN_DATE_AND_TIME_ASSIGNMENT ( #46, #106, ( #153 ) ) ;
#143 = VERTEX_POINT ( 'NONE', #230 ) ;
#144 = VERTEX_POINT ( 'NONE', #232 ) ;
#145 = PERSON_AND_ORGANIZATION_ROLE ( 'creator' ) ;
#146 = CC_DESIGN_APPROVAL ( #244, ( #12 ) ) ;
#147 = APPROVAL_DATE_TIME ( #70, #244 ) ;
#148 = DIRECTION ( 'NONE',  ( -0.000000000000000000, -0.000000000000000000, -1.000000000000000000 ) ) ;
#149 = VECTOR ( 'NONE', #227, 1000.000000000000000 ) ;
#150 = ORIENTED_EDGE ( 'NONE', *, *, #10, .F. ) ;
#151 = CARTESIAN_POINT ( 'NONE',  ( 0.000000000000000000, 0.000000000000000000, 0.000000000000000000 ) ) ;
#152 = DIRECTION ( 'NONE',  ( -1.000000000000000000, 0.000000000000000000, 0.000000000000000000 ) ) ;
#153 = SECURITY_CLASSIFICATION ( '', '', #181 ) ;
#154 = EDGE_LOOP ( 'NONE', ( #14, #126, #135, #29 ) ) ;
#155 = CC_DESIGN_PERSON_AND_ORGANIZATION_ASSIGNMENT ( #243, #145, ( #12 ) ) ;
#156 = PERSON_AND_ORGANIZATION_ROLE ( 'design_owner' ) ;
#157 = DIRECTION ( 'NONE',  ( -0.000000000000000000, -0.000000000000000000, -1.000000000000000000 ) ) ;
#158 = CARTESIAN_POINT ( 'NONE',  ( -6.500000000000000888, 0.000000000000000000, 0.000000000000000000 ) ) ;
#159 = LOCAL_TIME ( 23, 16, 49.00000000000000000, #101 ) ;
#160 = APPLICATION_PROTOCOL_DEFINITION ( 'international standard', 'config_control_design', 1994, #194 ) ;
#161 = DIRECTION ( 'NONE',  ( -1.000000000000000000, 0.000000000000000000, 0.000000000000000000 ) ) ;
#162 = AXIS2_PLACEMENT_3D ( 'NONE', #24, #138, #198 ) ;
#163 = PERSON_AND_ORGANIZATION ( #68, #174 ) ;
#164 = EDGE_LOOP ( 'NONE', ( #13, #132 ) ) ;
#165 = COORDINATED_UNIVERSAL_TIME_OFFSET ( 9, 0, .AHEAD. ) ;
#166 = APPROVAL_STATUS ( 'not_yet_approved' ) ;
#167 = CARTESIAN_POINT ( 'NONE',  ( 0.000000000000000000, 0.000000000000000000, 0.000000000000000000 ) ) ;
#168 = ORIENTED_EDGE ( 'NONE', *, *, #170, .F. ) ;
#169 = AXIS2_PLACEMENT_3D ( 'NONE', #117, #141, #97 ) ;
#170 = EDGE_CURVE ( 'NONE', #144, #184, #89, .T. ) ;
#171 = FACE_OUTER_BOUND ( 'NONE', #154, .T. ) ;
#172 = CARTESIAN_POINT ( 'NONE',  ( 0.000000000000000000, 0.000000000000000000, 4.000000000000000000 ) ) ;
#173 = LINE ( 'NONE', #133, #183 ) ;
#174 = ORGANIZATION ( 'UNSPECIFIED', 'UNSPECIFIED', '' ) ;
#175 = PLANE ( 'NONE',  #162 ) ;
#176 = PRODUCT_RELATED_PRODUCT_CATEGORY ( 'detail', '', ( #116 ) ) ;
#177 = CARTESIAN_POINT ( 'NONE',  ( -2.500000000000000000, 0.000000000000000000, 0.000000000000000000 ) ) ;
#178 = CC_DESIGN_APPROVAL ( #3, ( #153 ) ) ;
#179 = EDGE_CURVE ( 'NONE', #210, #50, #38, .T. ) ;
#180 = DATE_AND_TIME ( #45, #159 ) ;
#181 = SECURITY_CLASSIFICATION_LEVEL ( 'unclassified' ) ;
#182 = ADVANCED_FACE ( 'NONE', ( #136 ), #71, .F. ) ;
#183 = VECTOR ( 'NONE', #148, 1000.000000000000000 ) ;
#184 = VERTEX_POINT ( 'NONE', #158 ) ;
#185 = CIRCLE ( 'NONE', #104, 6.500000000000000888 ) ;
#186 = ORIENTED_EDGE ( 'NONE', *, *, #237, .F. ) ;
#187 = PRODUCT_DEFINITION_SHAPE ( 'NONE', 'NONE',  #83 ) ;
#188 = PLANE ( 'NONE',  #208 ) ;
#189 = VERTEX_POINT ( 'NONE', #118 ) ;
#190 = AXIS2_PLACEMENT_3D ( 'NONE', #44, #157, #41 ) ;
#191 = DIRECTION ( 'NONE',  ( 0.000000000000000000, 0.000000000000000000, 1.000000000000000000 ) ) ;
#192 = EDGE_CURVE ( 'NONE', #50, #207, #212, .T. ) ;
#193 = DIRECTION ( 'NONE',  ( 1.000000000000000000, 0.000000000000000000, 0.000000000000000000 ) ) ;
#194 = APPLICATION_CONTEXT ( 'configuration controlled 3d designs of mechanical parts and assemblies' ) ;
#195 = DIRECTION ( 'NONE',  ( 1.000000000000000000, 0.000000000000000000, 0.000000000000000000 ) ) ;
#196 = ADVANCED_FACE ( 'NONE', ( #235 ), #98, .T. ) ;
#197 = CARTESIAN_POINT ( 'NONE',  ( 0.000000000000000000, 0.000000000000000000, 4.000000000000000000 ) ) ;
#198 = DIRECTION ( 'NONE',  ( 1.000000000000000000, 0.000000000000000000, -0.000000000000000000 ) ) ;
#199 =( NAMED_UNIT ( * ) SI_UNIT ( $, .STERADIAN. ) SOLID_ANGLE_UNIT ( ) );
#200 = CC_DESIGN_PERSON_AND_ORGANIZATION_ASSIGNMENT ( #82, #64, ( #83 ) ) ;
#201 = APPROVAL_ROLE ( '' ) ;
#202 = CALENDAR_DATE ( 2024, 26, 9 ) ;
#203 = ORIENTED_EDGE ( 'NONE', *, *, #17, .T. ) ;
#204 = APPROVAL_DATE_TIME ( #224, #3 ) ;
#205 = AXIS2_PLACEMENT_3D ( 'NONE', #167, #59, #193 ) ;
#206 = PERSON_AND_ORGANIZATION ( #68, #174 ) ;
#207 = VERTEX_POINT ( 'NONE', #177 ) ;
#208 = AXIS2_PLACEMENT_3D ( 'NONE', #73, #191, #213 ) ;
#209 = ORIENTED_EDGE ( 'NONE', *, *, #216, .T. ) ;
#210 = VERTEX_POINT ( 'NONE', #5 ) ;
#211 = FACE_BOUND ( 'NONE', #111, .T. ) ;
#212 = CIRCLE ( 'NONE', #113, 2.500000000000000000 ) ;
#213 = DIRECTION ( 'NONE',  ( 1.000000000000000000, 0.000000000000000000, -0.000000000000000000 ) ) ;
#214 = ORIENTED_EDGE ( 'NONE', *, *, #170, .T. ) ;
#215 = DIRECTION ( 'NONE',  ( 1.000000000000000000, 0.000000000000000000, 0.000000000000000000 ) ) ;
#216 = EDGE_CURVE ( 'NONE', #143, #189, #134, .T. ) ;
#217 = MECHANICAL_CONTEXT ( 'NONE', #91, 'mechanical' ) ;
#218 = PERSON_AND_ORGANIZATION ( #68, #174 ) ;
#219 = ADVANCED_FACE ( 'NONE', ( #238, #60 ), #175, .F. ) ;
#220 = DATE_AND_TIME ( #202, #48 ) ;
#221 = DATE_TIME_ROLE ( 'creation_date' ) ;
#222 = ORIENTED_EDGE ( 'NONE', *, *, #10, .T. ) ;
#223 = ORIENTED_EDGE ( 'NONE', *, *, #239, .F. ) ;
#224 = DATE_AND_TIME ( #121, #8 ) ;
#225 = AXIS2_PLACEMENT_3D ( 'NONE', #112, #88, #246 ) ;
#226 = CC_DESIGN_DATE_AND_TIME_ASSIGNMENT ( #220, #221, ( #83 ) ) ;
#227 = DIRECTION ( 'NONE',  ( -0.000000000000000000, -0.000000000000000000, -1.000000000000000000 ) ) ;
#228 = DIRECTION ( 'NONE',  ( 1.000000000000000000, 0.000000000000000000, 0.000000000000000000 ) ) ;
#229 = EDGE_LOOP ( 'NONE', ( #67, #105, #222, #55 ) ) ;
#230 = CARTESIAN_POINT ( 'NONE',  ( -6.500000000000000888, 0.000000000000000000, 4.000000000000000000 ) ) ;
#231 = LOCAL_TIME ( 23, 16, 49.00000000000000000, #241 ) ;
#232 = CARTESIAN_POINT ( 'NONE',  ( 6.500000000000000888, 7.960204194457796463E-16, 0.000000000000000000 ) ) ;
#233 = DIRECTION ( 'NONE',  ( 1.000000000000000000, 0.000000000000000000, 0.000000000000000000 ) ) ;
#234 =( GEOMETRIC_REPRESENTATION_CONTEXT ( 3 ) GLOBAL_UNCERTAINTY_ASSIGNED_CONTEXT ( ( #80 ) ) GLOBAL_UNIT_ASSIGNED_CONTEXT ( ( #140, #43, #199 ) ) REPRESENTATION_CONTEXT ( 'NONE', 'WORKASPACE' ) );
#235 = FACE_OUTER_BOUND ( 'NONE', #85, .T. ) ;
#236 = APPROVAL_STATUS ( 'not_yet_approved' ) ;
#237 = EDGE_CURVE ( 'NONE', #189, #143, #185, .T. ) ;
#238 = FACE_OUTER_BOUND ( 'NONE', #123, .T. ) ;
#239 = EDGE_CURVE ( 'NONE', #184, #144, #247, .T. ) ;
#240 = ORIENTED_EDGE ( 'NONE', *, *, #137, .F. ) ;
#241 = COORDINATED_UNIVERSAL_TIME_OFFSET ( 9, 0, .AHEAD. ) ;
#242 = CIRCLE ( 'NONE', #205, 2.500000000000000000 ) ;
#243 = PERSON_AND_ORGANIZATION ( #68, #174 ) ;
#244 = APPROVAL ( #166, 'UNSPECIFIED' ) ;
#245 = CARTESIAN_POINT ( 'NONE',  ( 2.500000000000000000, 3.061616997868383141E-16, 4.000000000000000000 ) ) ;
#246 = DIRECTION ( 'NONE',  ( 1.000000000000000000, 0.000000000000000000, 0.000000000000000000 ) ) ;
#247 = CIRCLE ( 'NONE', #169, 6.500000000000000888 ) ;
#248 = CYLINDRICAL_SURFACE ( 'NONE', #19, 2.500000000000000000 ) ;
#249 = LINE ( 'NONE', #16, #149 ) ;
ENDSEC;
END-ISO-10303-21;
