ISO-10303-21;
HEADER;
FILE_DESCRIPTION (( 'STEP AP203' ),
    '1' );
FILE_NAME ('볼트 m5 60.STEP',
    '2024-09-26T14:16:43',
    ( '' ),
    ( '' ),
    'SwSTEP 2.0',
    'SolidWorks 2022',
    '' );
FILE_SCHEMA (( 'CONFIG_CONTROL_DESIGN' ));
ENDSEC;

DATA;
#1 = DIRECTION ( 'NONE',  ( -1.000000000000000000, 0.000000000000000000, 0.000000000000000000 ) ) ;
#2 = FACE_OUTER_BOUND ( 'NONE', #443, .T. ) ;
#3 = PERSON ( 'UNSPECIFIED', 'UNSPECIFIED', 'UNSPECIFIED', ('UNSPECIFIED'), ('UNSPECIFIED'), ('UNSPECIFIED') ) ;
#4 = APPROVAL_ROLE ( '' ) ;
#5 = VECTOR ( 'NONE', #320, 1000.000000000000227 ) ;
#6 = LINE ( 'NONE', #442, #11 ) ;
#7 = PERSON_AND_ORGANIZATION ( #3, #400 ) ;
#8 = CARTESIAN_POINT ( 'NONE',  ( -3.500000000000000000, 4.286263797015736595E-16, 0.000000000000000000 ) ) ;
#9 = DIRECTION ( 'NONE',  ( -1.000000000000000000, 0.000000000000000000, 0.000000000000000000 ) ) ;
#10 = ORIENTED_EDGE ( 'NONE', *, *, #142, .F. ) ;
#11 = VECTOR ( 'NONE', #395, 1000.000000000000000 ) ;
#12 = DIRECTION ( 'NONE',  ( -0.000000000000000000, -0.000000000000000000, -1.000000000000000000 ) ) ;
#13 = ADVANCED_FACE ( 'NONE', ( #21, #309 ), #456, .T. ) ;
#14 = CARTESIAN_POINT ( 'NONE',  ( -2.500000000000000000, 0.000000000000000000, 0.000000000000000000 ) ) ;
#15 = ORIENTED_EDGE ( 'NONE', *, *, #57, .T. ) ;
#16 = VERTEX_POINT ( 'NONE', #128 ) ;
#17 = DIRECTION ( 'NONE',  ( 0.000000000000000000, 0.000000000000000000, 1.000000000000000000 ) ) ;
#18 = VECTOR ( 'NONE', #89, 1000.000000000000000 ) ;
#19 = ORIENTED_EDGE ( 'NONE', *, *, #297, .F. ) ;
#20 = DIRECTION ( 'NONE',  ( -1.000000000000000000, 0.000000000000000000, -0.000000000000000000 ) ) ;
#21 = FACE_BOUND ( 'NONE', #157, .T. ) ;
#22 = ADVANCED_FACE ( 'NONE', ( #412 ), #238, .F. ) ;
#23 = DIRECTION ( 'NONE',  ( 1.000000000000000000, -1.877893248421447310E-16, 0.000000000000000000 ) ) ;
#24 = VERTEX_POINT ( 'NONE', #174 ) ;
#25 = CARTESIAN_POINT ( 'NONE',  ( 2.500000000000000000, 3.061616997868383141E-16, 0.000000000000000000 ) ) ;
#26 = ORIENTED_EDGE ( 'NONE', *, *, #278, .T. ) ;
#27 = ADVANCED_FACE ( 'NONE', ( #104 ), #248, .T. ) ;
#28 = VECTOR ( 'NONE', #23, 1000.000000000000000 ) ;
#29 = PRODUCT ( '볼트 m5 60', '볼트 m5 60', '', ( #291 ) ) ;
#30 = VERTEX_POINT ( 'NONE', #32 ) ;
#31 = APPROVAL_ROLE ( '' ) ;
#32 = CARTESIAN_POINT ( 'NONE',  ( 2.309401076758504701, -8.673617379884035472E-16, -2.500000000000000000 ) ) ;
#33 = CARTESIAN_POINT ( 'NONE',  ( 0.000000000000000000, 0.000000000000000000, 60.00000000000000000 ) ) ;
#34 = CIRCLE ( 'NONE', #445, 3.500000000000000000 ) ;
#35 = LOCAL_TIME ( 23, 16, 43.00000000000000000, #170 ) ;
#36 = CARTESIAN_POINT ( 'NONE',  ( -2.309401076758504701, 8.673617379884035472E-16, -2.500000000000000000 ) ) ;
#37 = DIRECTION ( 'NONE',  ( -0.000000000000000000, 0.000000000000000000, 1.000000000000000000 ) ) ;
#38 = LINE ( 'NONE', #116, #360 ) ;
#39 = ADVANCED_FACE ( 'NONE', ( #136 ), #219, .F. ) ;
#40 = AXIS2_PLACEMENT_3D ( 'NONE', #81, #266, #112 ) ;
#41 = CARTESIAN_POINT ( 'NONE',  ( 1.154700538379251906, -2.000000000000001776, -2.500000000000000000 ) ) ;
#42 = ORIENTED_EDGE ( 'NONE', *, *, #378, .F. ) ;
#43 = DIRECTION ( 'NONE',  ( -0.5000000000000002220, -0.8660254037844384856, 0.000000000000000000 ) ) ;
#44 = ORIENTED_EDGE ( 'NONE', *, *, #254, .F. ) ;
#45 = CARTESIAN_POINT ( 'NONE',  ( 1.154700538379251906, -2.000000000000001776, -5.000000000000000000 ) ) ;
#46 = ADVANCED_BREP_SHAPE_REPRESENTATION ( '볼트 m5 60', ( #166, #431 ), #369 ) ;
#47 = FACE_OUTER_BOUND ( 'NONE', #165, .T. ) ;
#48 = ORIENTED_EDGE ( 'NONE', *, *, #209, .F. ) ;
#49 = CARTESIAN_POINT ( 'NONE',  ( -2.500000000000000000, 0.000000000000000000, 60.00000000000000000 ) ) ;
#50 = CARTESIAN_POINT ( 'NONE',  ( -2.500000000000000000, 0.000000000000000000, 60.00000000000000000 ) ) ;
#51 = ORIENTED_EDGE ( 'NONE', *, *, #318, .T. ) ;
#52 = EDGE_CURVE ( 'NONE', #380, #191, #389, .T. ) ;
#53 = DIRECTION ( 'NONE',  ( -1.000000000000000000, 0.000000000000000000, 0.000000000000000000 ) ) ;
#54 = AXIS2_PLACEMENT_3D ( 'NONE', #325, #214, #426 ) ;
#55 = ORIENTED_EDGE ( 'NONE', *, *, #142, .T. ) ;
#56 = APPROVAL_PERSON_ORGANIZATION ( #356, #334, #173 ) ;
#57 = EDGE_CURVE ( 'NONE', #244, #264, #232, .T. ) ;
#58 = CARTESIAN_POINT ( 'NONE',  ( 1.154700538379253016, 2.000000000000001332, -2.500000000000000000 ) ) ;
#59 = ORIENTED_EDGE ( 'NONE', *, *, #306, .F. ) ;
#60 = CARTESIAN_POINT ( 'NONE',  ( 0.000000000000000000, 0.000000000000000000, -2.500000000000000000 ) ) ;
#61 = EDGE_LOOP ( 'NONE', ( #312, #88, #271, #403 ) ) ;
#62 = DATE_AND_TIME ( #143, #200 ) ;
#63 = ORIENTED_EDGE ( 'NONE', *, *, #57, .F. ) ;
#64 = AXIS2_PLACEMENT_3D ( 'NONE', #251, #355, #179 ) ;
#65 = LINE ( 'NONE', #70, #274 ) ;
#66 = CYLINDRICAL_SURFACE ( 'NONE', #328, 3.500000000000000000 ) ;
#67 = EDGE_CURVE ( 'NONE', #16, #314, #322, .T. ) ;
#68 = DIRECTION ( 'NONE',  ( -0.000000000000000000, -0.000000000000000000, -1.000000000000000000 ) ) ;
#69 = VECTOR ( 'NONE', #43, 1000.000000000000227 ) ;
#70 = CARTESIAN_POINT ( 'NONE',  ( 1.154700538379253016, 2.000000000000001332, -2.500000000000000000 ) ) ;
#71 = EDGE_CURVE ( 'NONE', #396, #377, #139, .T. ) ;
#72 = DIRECTION ( 'NONE',  ( 0.000000000000000000, 0.000000000000000000, 1.000000000000000000 ) ) ;
#73 = DATE_AND_TIME ( #109, #193 ) ;
#74 = CARTESIAN_POINT ( 'NONE',  ( 3.500000000000000000, 0.000000000000000000, 0.000000000000000000 ) ) ;
#75 = CC_DESIGN_DATE_AND_TIME_ASSIGNMENT ( #62, #246, ( #424 ) ) ;
#76 = EDGE_LOOP ( 'NONE', ( #55, #258 ) ) ;
#77 = PERSON_AND_ORGANIZATION_ROLE ( 'classification_officer' ) ;
#78 = VECTOR ( 'NONE', #79, 1000.000000000000114 ) ;
#79 = DIRECTION ( 'NONE',  ( 0.4999999999999995559, -0.8660254037844389297, 0.000000000000000000 ) ) ;
#80 = ORIENTED_EDGE ( 'NONE', *, *, #420, .T. ) ;
#81 = CARTESIAN_POINT ( 'NONE',  ( 0.000000000000000000, 0.000000000000000000, 0.000000000000000000 ) ) ;
#82 = ORIENTED_EDGE ( 'NONE', *, *, #278, .F. ) ;
#83 = ADVANCED_FACE ( 'NONE', ( #385 ), #250, .T. ) ;
#84 = DIRECTION ( 'NONE',  ( 0.000000000000000000, 0.000000000000000000, 1.000000000000000000 ) ) ;
#85 = VERTEX_POINT ( 'NONE', #176 ) ;
#86 = AXIS2_PLACEMENT_3D ( 'NONE', #127, #129, #53 ) ;
#87 = FACE_OUTER_BOUND ( 'NONE', #208, .T. ) ;
#88 = ORIENTED_EDGE ( 'NONE', *, *, #292, .T. ) ;
#89 = DIRECTION ( 'NONE',  ( 1.000000000000000000, -1.877893248421447310E-16, 0.000000000000000000 ) ) ;
#90 = EDGE_CURVE ( 'NONE', #377, #396, #323, .T. ) ;
#91 = ORIENTED_EDGE ( 'NONE', *, *, #52, .F. ) ;
#92 = DIRECTION ( 'NONE',  ( 0.4999999999999997780, -0.8660254037844387076, 0.000000000000000000 ) ) ;
#93 = VERTEX_POINT ( 'NONE', #215 ) ;
#94 = CARTESIAN_POINT ( 'NONE',  ( 2.309401076758504701, -8.673617379884035472E-16, -2.500000000000000000 ) ) ;
#95 = AXIS2_PLACEMENT_3D ( 'NONE', #60, #409, #20 ) ;
#96 = ORIENTED_EDGE ( 'NONE', *, *, #156, .T. ) ;
#97 = ORIENTED_EDGE ( 'NONE', *, *, #386, .T. ) ;
#98 = VERTEX_POINT ( 'NONE', #282 ) ;
#99 = APPROVAL_DATE_TIME ( #332, #265 ) ;
#100 = CARTESIAN_POINT ( 'NONE',  ( 0.000000000000000000, 0.000000000000000000, 0.000000000000000000 ) ) ;
#101 = AXIS2_PLACEMENT_3D ( 'NONE', #33, #68, #1 ) ;
#102 = DIRECTION ( 'NONE',  ( 1.877893248421447310E-16, 1.000000000000000000, -0.000000000000000000 ) ) ;
#103 = DIRECTION ( 'NONE',  ( 0.000000000000000000, 0.000000000000000000, 1.000000000000000000 ) ) ;
#104 = FACE_OUTER_BOUND ( 'NONE', #401, .T. ) ;
#105 = AXIS2_PLACEMENT_3D ( 'NONE', #236, #373, #448 ) ;
#106 = APPROVAL_STATUS ( 'not_yet_approved' ) ;
#107 = EDGE_CURVE ( 'NONE', #206, #85, #394, .T. ) ;
#108 = PLANE ( 'NONE',  #239 ) ;
#109 = CALENDAR_DATE ( 2024, 26, 9 ) ;
#110 = DIRECTION ( 'NONE',  ( 1.000000000000000000, 0.000000000000000000, 0.000000000000000000 ) ) ;
#111 = PERSON_AND_ORGANIZATION ( #3, #400 ) ;
#112 = DIRECTION ( 'NONE',  ( 1.000000000000000000, 0.000000000000000000, 0.000000000000000000 ) ) ;
#113 = ORIENTED_EDGE ( 'NONE', *, *, #318, .F. ) ;
#114 = AXIS2_PLACEMENT_3D ( 'NONE', #141, #428, #432 ) ;
#115 = LOCAL_TIME ( 23, 16, 43.00000000000000000, #397 ) ;
#116 = CARTESIAN_POINT ( 'NONE',  ( 1.154700538379251906, -2.000000000000001776, -2.500000000000000000 ) ) ;
#117 = ORIENTED_EDGE ( 'NONE', *, *, #393, .T. ) ;
#118 = EDGE_CURVE ( 'NONE', #98, #261, #288, .T. ) ;
#119 = CARTESIAN_POINT ( 'NONE',  ( 0.000000000000000000, 0.000000000000000000, -5.000000000000000000 ) ) ;
#120 = ORIENTED_EDGE ( 'NONE', *, *, #297, .T. ) ;
#121 = LINE ( 'NONE', #45, #287 ) ;
#122 = EDGE_LOOP ( 'NONE', ( #120, #96, #10, #59 ) ) ;
#123 = ADVANCED_FACE ( 'NONE', ( #461 ), #66, .T. ) ;
#124 = AXIS2_PLACEMENT_3D ( 'NONE', #100, #367, #226 ) ;
#125 = CARTESIAN_POINT ( 'NONE',  ( 0.000000000000000000, 0.000000000000000000, 0.000000000000000000 ) ) ;
#126 = ORIENTED_EDGE ( 'NONE', *, *, #306, .T. ) ;
#127 = CARTESIAN_POINT ( 'NONE',  ( 0.000000000000000000, 0.000000000000000000, 60.00000000000000000 ) ) ;
#128 = CARTESIAN_POINT ( 'NONE',  ( -1.154700538379252350, 2.000000000000001776, -2.500000000000000000 ) ) ;
#129 = DIRECTION ( 'NONE',  ( -0.000000000000000000, -0.000000000000000000, -1.000000000000000000 ) ) ;
#130 = ORIENTED_EDGE ( 'NONE', *, *, #457, .T. ) ;
#131 = AXIS2_PLACEMENT_3D ( 'NONE', #357, #180, #459 ) ;
#132 = EDGE_LOOP ( 'NONE', ( #414, #436, #130, #405 ) ) ;
#133 = FACE_OUTER_BOUND ( 'NONE', #303, .T. ) ;
#134 = ORIENTED_EDGE ( 'NONE', *, *, #172, .F. ) ;
#135 = CALENDAR_DATE ( 2024, 26, 9 ) ;
#136 = FACE_OUTER_BOUND ( 'NONE', #371, .T. ) ;
#137 = EDGE_CURVE ( 'NONE', #24, #187, #65, .T. ) ;
#138 = DIRECTION ( 'NONE',  ( -0.000000000000000000, -0.000000000000000000, -1.000000000000000000 ) ) ;
#139 = CIRCLE ( 'NONE', #54, 2.500000000000000000 ) ;
#140 = FACE_BOUND ( 'NONE', #267, .T. ) ;
#141 = CARTESIAN_POINT ( 'NONE',  ( 0.000000000000000000, 0.000000000000000000, 60.00000000000000000 ) ) ;
#142 = EDGE_CURVE ( 'NONE', #339, #198, #268, .T. ) ;
#143 = CALENDAR_DATE ( 2024, 26, 9 ) ;
#144 = DIRECTION ( 'NONE',  ( -0.5000000000000002220, -0.8660254037844384856, 0.000000000000000000 ) ) ;
#145 = AXIS2_PLACEMENT_3D ( 'NONE', #247, #37, #352 ) ;
#146 = DIRECTION ( 'NONE',  ( 1.000000000000000000, 0.000000000000000000, 0.000000000000000000 ) ) ;
#147 = CARTESIAN_POINT ( 'NONE',  ( -1.154700538379252350, -2.000000000000001776, -5.000000000000000000 ) ) ;
#148 = SECURITY_CLASSIFICATION_LEVEL ( 'unclassified' ) ;
#149 = CARTESIAN_POINT ( 'NONE',  ( -2.309401076758504701, 8.673617379884035472E-16, -2.500000000000000000 ) ) ;
#150 = ADVANCED_FACE ( 'NONE', ( #140, #2 ), #108, .F. ) ;
#151 = CARTESIAN_POINT ( 'NONE',  ( 1.154700538379253016, 2.000000000000001332, -5.000000000000000000 ) ) ;
#152 = AXIS2_PLACEMENT_3D ( 'NONE', #235, #162, #92 ) ;
#153 = DIRECTION ( 'NONE',  ( 0.000000000000000000, 0.000000000000000000, 1.000000000000000000 ) ) ;
#154 = DIRECTION ( 'NONE',  ( 0.5000000000000002220, 0.8660254037844384856, 0.000000000000000000 ) ) ;
#155 = ORIENTED_EDGE ( 'NONE', *, *, #420, .F. ) ;
#156 = EDGE_CURVE ( 'NONE', #244, #198, #280, .T. ) ;
#157 = EDGE_LOOP ( 'NONE', ( #134, #189 ) ) ;
#158 = EDGE_CURVE ( 'NONE', #348, #202, #159, .T. ) ;
#159 = CIRCLE ( 'NONE', #124, 2.500000000000000000 ) ;
#160 = LINE ( 'NONE', #270, #18 ) ;
#161 = ORIENTED_EDGE ( 'NONE', *, *, #393, .F. ) ;
#162 = DIRECTION ( 'NONE',  ( -0.8660254037844388186, -0.4999999999999998335, 0.000000000000000000 ) ) ;
#163 = ORIENTED_EDGE ( 'NONE', *, *, #156, .F. ) ;
#164 = DIRECTION ( 'NONE',  ( 0.4999999999999995559, -0.8660254037844389297, 0.000000000000000000 ) ) ;
#165 = EDGE_LOOP ( 'NONE', ( #452, #408, #418, #446 ) ) ;
#166 = MANIFOLD_SOLID_BREP ( '컷-돌출1', #407 ) ;
#167 = LINE ( 'NONE', #94, #168 ) ;
#168 = VECTOR ( 'NONE', #272, 1000.000000000000000 ) ;
#169 = EDGE_LOOP ( 'NONE', ( #26, #368, #117, #80, #345, #51 ) ) ;
#170 = COORDINATED_UNIVERSAL_TIME_OFFSET ( 9, 0, .AHEAD. ) ;
#171 = DIRECTION ( 'NONE',  ( 0.000000000000000000, 0.000000000000000000, 1.000000000000000000 ) ) ;
#172 = EDGE_CURVE ( 'NONE', #202, #348, #289, .T. ) ;
#173 = APPROVAL_ROLE ( '' ) ;
#174 = CARTESIAN_POINT ( 'NONE',  ( 1.154700538379253016, 2.000000000000001332, -2.500000000000000000 ) ) ;
#175 = CC_DESIGN_DATE_AND_TIME_ASSIGNMENT ( #330, #210, ( #310 ) ) ;
#176 = CARTESIAN_POINT ( 'NONE',  ( -2.309401076758504701, 1.084202172485504434E-15, -5.000000000000000000 ) ) ;
#177 = VECTOR ( 'NONE', #363, 1000.000000000000227 ) ;
#178 = CC_DESIGN_APPROVAL ( #334, ( #310 ) ) ;
#179 = DIRECTION ( 'NONE',  ( 1.000000000000000000, 0.000000000000000000, 0.000000000000000000 ) ) ;
#180 = DIRECTION ( 'NONE',  ( 0.000000000000000000, 0.000000000000000000, 1.000000000000000000 ) ) ;
#181 = CC_DESIGN_PERSON_AND_ORGANIZATION_ASSIGNMENT ( #7, #349, ( #439 ) ) ;
#182 = PERSON_AND_ORGANIZATION ( #3, #400 ) ;
#183 = CARTESIAN_POINT ( 'NONE',  ( 1.154700538379253016, 2.000000000000001332, -5.000000000000000000 ) ) ;
#184 = VECTOR ( 'NONE', #406, 1000.000000000000227 ) ;
#185 = APPROVAL_STATUS ( 'not_yet_approved' ) ;
#186 = CARTESIAN_POINT ( 'NONE',  ( 3.500000000000000000, 0.000000000000000000, -5.000000000000000000 ) ) ;
#187 = VERTEX_POINT ( 'NONE', #151 ) ;
#188 = LINE ( 'NONE', #438, #177 ) ;
#189 = ORIENTED_EDGE ( 'NONE', *, *, #158, .F. ) ;
#190 = CARTESIAN_POINT ( 'NONE',  ( 2.500000000000000000, 3.061616997868383141E-16, 60.00000000000000000 ) ) ;
#191 = VERTEX_POINT ( 'NONE', #147 ) ;
#192 = VECTOR ( 'NONE', #313, 1000.000000000000000 ) ;
#193 = LOCAL_TIME ( 23, 16, 43.00000000000000000, #392 ) ;
#194 = PLANE ( 'NONE',  #199 ) ;
#195 = LINE ( 'NONE', #241, #298 ) ;
#196 = CC_DESIGN_PERSON_AND_ORGANIZATION_ASSIGNMENT ( #252, #77, ( #424 ) ) ;
#197 =( NAMED_UNIT ( * ) SI_UNIT ( $, .STERADIAN. ) SOLID_ANGLE_UNIT ( ) );
#198 = VERTEX_POINT ( 'NONE', #8 ) ;
#199 = AXIS2_PLACEMENT_3D ( 'NONE', #301, #336, #154 ) ;
#200 = LOCAL_TIME ( 23, 16, 43.00000000000000000, #294 ) ;
#201 = CARTESIAN_POINT ( 'NONE',  ( 2.500000000000000000, 3.061616997868383141E-16, 60.00000000000000000 ) ) ;
#202 = VERTEX_POINT ( 'NONE', #14 ) ;
#203 = LINE ( 'NONE', #344, #28 ) ;
#204 = ORIENTED_EDGE ( 'NONE', *, *, #262, .F. ) ;
#205 = PLANE ( 'NONE',  #152 ) ;
#206 = VERTEX_POINT ( 'NONE', #149 ) ;
#207 = VECTOR ( 'NONE', #284, 1000.000000000000000 ) ;
#208 = EDGE_LOOP ( 'NONE', ( #163, #15, #126, #451 ) ) ;
#209 = EDGE_CURVE ( 'NONE', #187, #98, #399, .T. ) ;
#210 = DATE_TIME_ROLE ( 'creation_date' ) ;
#211 = APPLICATION_CONTEXT ( 'configuration controlled 3d designs of mechanical parts and assemblies' ) ;
#212 = DIRECTION ( 'NONE',  ( -0.000000000000000000, -0.000000000000000000, -1.000000000000000000 ) ) ;
#213 = ADVANCED_FACE ( 'NONE', ( #229 ), #296, .F. ) ;
#214 = DIRECTION ( 'NONE',  ( -0.000000000000000000, 0.000000000000000000, 1.000000000000000000 ) ) ;
#215 = CARTESIAN_POINT ( 'NONE',  ( 1.154700538379251906, -2.000000000000001776, -2.500000000000000000 ) ) ;
#216 = VECTOR ( 'NONE', #233, 1000.000000000000227 ) ;
#217 = APPROVAL_PERSON_ORGANIZATION ( #383, #364, #31 ) ;
#218 = EDGE_CURVE ( 'NONE', #206, #16, #293, .T. ) ;
#219 = PLANE ( 'NONE',  #340 ) ;
#220 = CARTESIAN_POINT ( 'NONE',  ( -3.500000000000000000, 4.286263797015736595E-16, -5.000000000000000000 ) ) ;
#221 = APPLICATION_PROTOCOL_DEFINITION ( 'international standard', 'config_control_design', 1994, #307 ) ;
#222 = DIRECTION ( 'NONE',  ( 0.8660254037844389297, 0.4999999999999995559, -0.000000000000000000 ) ) ;
#223 = ORIENTED_EDGE ( 'NONE', *, *, #285, .T. ) ;
#224 = EDGE_CURVE ( 'NONE', #30, #93, #333, .T. ) ;
#225 = APPROVAL_DATE_TIME ( #73, #364 ) ;
#226 = DIRECTION ( 'NONE',  ( 1.000000000000000000, 0.000000000000000000, 0.000000000000000000 ) ) ;
#227 = ORIENTED_EDGE ( 'NONE', *, *, #90, .T. ) ;
#228 = ADVANCED_FACE ( 'NONE', ( #300 ), #329, .F. ) ;
#229 = FACE_OUTER_BOUND ( 'NONE', #275, .T. ) ;
#230 = CARTESIAN_POINT ( 'NONE',  ( -1.154700538379252350, 2.000000000000001776, -5.000000000000000000 ) ) ;
#231 = ORIENTED_EDGE ( 'NONE', *, *, #137, .T. ) ;
#232 = CIRCLE ( 'NONE', #64, 3.500000000000000000 ) ;
#233 = DIRECTION ( 'NONE',  ( -0.4999999999999997780, 0.8660254037844387076, 0.000000000000000000 ) ) ;
#234 = EDGE_LOOP ( 'NONE', ( #269, #91, #113, #223 ) ) ;
#235 = CARTESIAN_POINT ( 'NONE',  ( -1.154700538379252350, -2.000000000000001776, -2.500000000000000000 ) ) ;
#236 = CARTESIAN_POINT ( 'NONE',  ( 0.000000000000000000, 0.000000000000000000, 0.000000000000000000 ) ) ;
#237 = CARTESIAN_POINT ( 'NONE',  ( 0.000000000000000000, 0.000000000000000000, 0.000000000000000000 ) ) ;
#238 = PLANE ( 'NONE',  #462 ) ;
#239 = AXIS2_PLACEMENT_3D ( 'NONE', #253, #72, #283 ) ;
#240 = CC_DESIGN_APPROVAL ( #265, ( #439 ) ) ;
#241 = CARTESIAN_POINT ( 'NONE',  ( -1.154700538379252350, -2.000000000000001776, -5.000000000000000000 ) ) ;
#242 = EDGE_LOOP ( 'NONE', ( #273, #410, #161, #337 ) ) ;
#243 = ORIENTED_EDGE ( 'NONE', *, *, #67, .F. ) ;
#244 = VERTEX_POINT ( 'NONE', #257 ) ;
#245 = VECTOR ( 'NONE', #84, 1000.000000000000000 ) ;
#246 = DATE_TIME_ROLE ( 'classification_date' ) ;
#247 = CARTESIAN_POINT ( 'NONE',  ( 0.000000000000000000, 0.000000000000000000, 60.00000000000000000 ) ) ;
#248 = PLANE ( 'NONE',  #145 ) ;
#249 = DESIGN_CONTEXT ( 'detailed design', #307, 'design' ) ;
#250 = CYLINDRICAL_SURFACE ( 'NONE', #101, 2.500000000000000000 ) ;
#251 = CARTESIAN_POINT ( 'NONE',  ( 0.000000000000000000, 0.000000000000000000, -5.000000000000000000 ) ) ;
#252 = PERSON_AND_ORGANIZATION ( #3, #400 ) ;
#253 = CARTESIAN_POINT ( 'NONE',  ( 0.000000000000000000, 0.000000000000000000, -5.000000000000000000 ) ) ;
#254 = EDGE_CURVE ( 'NONE', #85, #314, #188, .T. ) ;
#255 = DIRECTION ( 'NONE',  ( -0.000000000000000000, -0.000000000000000000, -1.000000000000000000 ) ) ;
#256 = ORIENTED_EDGE ( 'NONE', *, *, #107, .T. ) ;
#257 = CARTESIAN_POINT ( 'NONE',  ( -3.500000000000000000, 4.286263797015736595E-16, -5.000000000000000000 ) ) ;
#258 = ORIENTED_EDGE ( 'NONE', *, *, #429, .T. ) ;
#259 = VECTOR ( 'NONE', #422, 1000.000000000000000 ) ;
#260 = LINE ( 'NONE', #190, #398 ) ;
#261 = VERTEX_POINT ( 'NONE', #335 ) ;
#262 = EDGE_CURVE ( 'NONE', #261, #191, #121, .T. ) ;
#263 = LINE ( 'NONE', #404, #245 ) ;
#264 = VERTEX_POINT ( 'NONE', #186 ) ;
#265 = APPROVAL ( #185, 'UNSPECIFIED' ) ;
#266 = DIRECTION ( 'NONE',  ( -0.000000000000000000, 0.000000000000000000, 1.000000000000000000 ) ) ;
#267 = EDGE_LOOP ( 'NONE', ( #44, #347, #204, #440, #48, #366 ) ) ;
#268 = CIRCLE ( 'NONE', #131, 3.500000000000000000 ) ;
#269 = ORIENTED_EDGE ( 'NONE', *, *, #262, .T. ) ;
#270 = CARTESIAN_POINT ( 'NONE',  ( -1.154700538379252350, 2.000000000000001776, -2.500000000000000000 ) ) ;
#271 = ORIENTED_EDGE ( 'NONE', *, *, #158, .T. ) ;
#272 = DIRECTION ( 'NONE',  ( -0.000000000000000000, -0.000000000000000000, -1.000000000000000000 ) ) ;
#273 = ORIENTED_EDGE ( 'NONE', *, *, #434, .T. ) ;
#274 = VECTOR ( 'NONE', #138, 1000.000000000000000 ) ;
#275 = EDGE_LOOP ( 'NONE', ( #382, #42, #155, #231 ) ) ;
#276 =( LENGTH_UNIT ( ) NAMED_UNIT ( * ) SI_UNIT ( .MILLI., .METRE. ) );
#277 = ORIENTED_EDGE ( 'NONE', *, *, #107, .F. ) ;
#278 = EDGE_CURVE ( 'NONE', #380, #206, #331, .T. ) ;
#279 = CALENDAR_DATE ( 2024, 26, 9 ) ;
#280 = LINE ( 'NONE', #220, #281 ) ;
#281 = VECTOR ( 'NONE', #103, 1000.000000000000000 ) ;
#282 = CARTESIAN_POINT ( 'NONE',  ( 2.309401076758504701, -8.673617379884035472E-16, -5.000000000000000000 ) ) ;
#283 = DIRECTION ( 'NONE',  ( 1.000000000000000000, 0.000000000000000000, -0.000000000000000000 ) ) ;
#284 = DIRECTION ( 'NONE',  ( -0.000000000000000000, -0.000000000000000000, -1.000000000000000000 ) ) ;
#285 = EDGE_CURVE ( 'NONE', #93, #261, #38, .T. ) ;
#286 = PERSON_AND_ORGANIZATION_ROLE ( 'design_owner' ) ;
#287 = VECTOR ( 'NONE', #9, 1000.000000000000000 ) ;
#288 = LINE ( 'NONE', #324, #5 ) ;
#289 = CIRCLE ( 'NONE', #40, 2.500000000000000000 ) ;
#290 = LOCAL_TIME ( 23, 16, 43.00000000000000000, #421 ) ;
#291 = MECHANICAL_CONTEXT ( 'NONE', #211, 'mechanical' ) ;
#292 = EDGE_CURVE ( 'NONE', #377, #348, #260, .T. ) ;
#293 = LINE ( 'NONE', #433, #184 ) ;
#294 = COORDINATED_UNIVERSAL_TIME_OFFSET ( 9, 0, .AHEAD. ) ;
#295 = CARTESIAN_POINT ( 'NONE',  ( 1.154700538379253016, 2.000000000000001332, -2.500000000000000000 ) ) ;
#296 = PLANE ( 'NONE',  #453 ) ;
#297 = EDGE_CURVE ( 'NONE', #264, #244, #34, .T. ) ;
#298 = VECTOR ( 'NONE', #376, 1000.000000000000227 ) ;
#299 = CC_DESIGN_SECURITY_CLASSIFICATION ( #424, ( #439 ) ) ;
#300 = FACE_OUTER_BOUND ( 'NONE', #234, .T. ) ;
#301 = CARTESIAN_POINT ( 'NONE',  ( 2.309401076758504701, -8.673617379884035472E-16, -2.500000000000000000 ) ) ;
#302 = ORIENTED_EDGE ( 'NONE', *, *, #218, .F. ) ;
#303 = EDGE_LOOP ( 'NONE', ( #97, #277, #82, #375 ) ) ;
#304 = AXIS2_PLACEMENT_3D ( 'NONE', #447, #17, #374 ) ;
#305 = APPROVAL_PERSON_ORGANIZATION ( #458, #265, #4 ) ;
#306 = EDGE_CURVE ( 'NONE', #264, #339, #263, .T. ) ;
#307 = APPLICATION_CONTEXT ( 'configuration controlled 3d designs of mechanical parts and assemblies' ) ;
#308 = PLANE ( 'NONE',  #95 ) ;
#309 = FACE_OUTER_BOUND ( 'NONE', #76, .T. ) ;
#310 = PRODUCT_DEFINITION ( 'UNKNOWN', '', #439, #249 ) ;
#311 = DIRECTION ( 'NONE',  ( 1.000000000000000000, 0.000000000000000000, 0.000000000000000000 ) ) ;
#312 = ORIENTED_EDGE ( 'NONE', *, *, #90, .F. ) ;
#313 = DIRECTION ( 'NONE',  ( -0.000000000000000000, -0.000000000000000000, -1.000000000000000000 ) ) ;
#314 = VERTEX_POINT ( 'NONE', #230 ) ;
#315 = ADVANCED_FACE ( 'NONE', ( #47 ), #194, .F. ) ;
#316 = CARTESIAN_POINT ( 'NONE',  ( -1.154700538379252350, -2.000000000000001776, -2.500000000000000000 ) ) ;
#317 = ORIENTED_EDGE ( 'NONE', *, *, #254, .T. ) ;
#318 = EDGE_CURVE ( 'NONE', #93, #380, #6, .T. ) ;
#319 = PERSON_AND_ORGANIZATION ( #3, #400 ) ;
#320 = DIRECTION ( 'NONE',  ( -0.5000000000000002220, -0.8660254037844384856, 0.000000000000000000 ) ) ;
#321 = APPROVAL_STATUS ( 'not_yet_approved' ) ;
#322 = LINE ( 'NONE', #427, #259 ) ;
#323 = CIRCLE ( 'NONE', #114, 2.500000000000000000 ) ;
#324 = CARTESIAN_POINT ( 'NONE',  ( 2.309401076758504701, -8.673617379884035472E-16, -5.000000000000000000 ) ) ;
#325 = CARTESIAN_POINT ( 'NONE',  ( 0.000000000000000000, 0.000000000000000000, 60.00000000000000000 ) ) ;
#326 = DIRECTION ( 'NONE',  ( -1.000000000000000000, 1.877893248421447310E-16, 0.000000000000000000 ) ) ;
#327 = APPROVAL_DATE_TIME ( #381, #334 ) ;
#328 = AXIS2_PLACEMENT_3D ( 'NONE', #391, #171, #463 ) ;
#329 = PLANE ( 'NONE',  #437 ) ;
#330 = DATE_AND_TIME ( #135, #290 ) ;
#331 = LINE ( 'NONE', #435, #216 ) ;
#332 = DATE_AND_TIME ( #460, #35 ) ;
#333 = LINE ( 'NONE', #402, #69 ) ;
#334 = APPROVAL ( #106, 'UNSPECIFIED' ) ;
#335 = CARTESIAN_POINT ( 'NONE',  ( 1.154700538379251906, -2.000000000000001776, -5.000000000000000000 ) ) ;
#336 = DIRECTION ( 'NONE',  ( 0.8660254037844385966, -0.5000000000000003331, 0.000000000000000000 ) ) ;
#337 = ORIENTED_EDGE ( 'NONE', *, *, #67, .T. ) ;
#338 = DIRECTION ( 'NONE',  ( 0.000000000000000000, 0.000000000000000000, 1.000000000000000000 ) ) ;
#339 = VERTEX_POINT ( 'NONE', #74 ) ;
#340 = AXIS2_PLACEMENT_3D ( 'NONE', #36, #351, #144 ) ;
#341 = DIRECTION ( 'NONE',  ( 0.000000000000000000, 0.000000000000000000, 1.000000000000000000 ) ) ;
#342 = CARTESIAN_POINT ( 'NONE',  ( -1.154700538379252350, 2.000000000000001776, -2.500000000000000000 ) ) ;
#343 = ADVANCED_FACE ( 'NONE', ( #87 ), #346, .T. ) ;
#344 = CARTESIAN_POINT ( 'NONE',  ( -1.154700538379252350, 2.000000000000001776, -5.000000000000000000 ) ) ;
#345 = ORIENTED_EDGE ( 'NONE', *, *, #224, .T. ) ;
#346 = CYLINDRICAL_SURFACE ( 'NONE', #304, 3.500000000000000000 ) ;
#347 = ORIENTED_EDGE ( 'NONE', *, *, #386, .F. ) ;
#348 = VERTEX_POINT ( 'NONE', #25 ) ;
#349 = PERSON_AND_ORGANIZATION_ROLE ( 'creator' ) ;
#350 = UNCERTAINTY_MEASURE_WITH_UNIT (LENGTH_MEASURE( 1.000000000000000082E-05 ), #276, 'distance_accuracy_value', 'NONE');
#351 = DIRECTION ( 'NONE',  ( -0.8660254037844385966, 0.5000000000000003331, 0.000000000000000000 ) ) ;
#352 = DIRECTION ( 'NONE',  ( 1.000000000000000000, 0.000000000000000000, 0.000000000000000000 ) ) ;
#353 = VECTOR ( 'NONE', #164, 1000.000000000000114 ) ;
#354 = CARTESIAN_POINT ( 'NONE',  ( -1.154700538379252350, -2.000000000000001776, -2.500000000000000000 ) ) ;
#355 = DIRECTION ( 'NONE',  ( 0.000000000000000000, 0.000000000000000000, 1.000000000000000000 ) ) ;
#356 = PERSON_AND_ORGANIZATION ( #3, #400 ) ;
#357 = CARTESIAN_POINT ( 'NONE',  ( 0.000000000000000000, 0.000000000000000000, 0.000000000000000000 ) ) ;
#358 = CC_DESIGN_PERSON_AND_ORGANIZATION_ASSIGNMENT ( #111, #362, ( #439 ) ) ;
#359 = PERSON_AND_ORGANIZATION_ROLE ( 'creator' ) ;
#360 = VECTOR ( 'NONE', #255, 1000.000000000000000 ) ;
#361 = DIRECTION ( 'NONE',  ( -0.4999999999999995559, 0.8660254037844389297, 0.000000000000000000 ) ) ;
#362 = PERSON_AND_ORGANIZATION_ROLE ( 'design_supplier' ) ;
#363 = DIRECTION ( 'NONE',  ( 0.5000000000000002220, 0.8660254037844384856, 0.000000000000000000 ) ) ;
#364 = APPROVAL ( #321, 'UNSPECIFIED' ) ;
#365 = DIRECTION ( 'NONE',  ( 0.000000000000000000, -1.000000000000000000, 0.000000000000000000 ) ) ;
#366 = ORIENTED_EDGE ( 'NONE', *, *, #434, .F. ) ;
#367 = DIRECTION ( 'NONE',  ( -0.000000000000000000, 0.000000000000000000, 1.000000000000000000 ) ) ;
#368 = ORIENTED_EDGE ( 'NONE', *, *, #218, .T. ) ;
#369 =( GEOMETRIC_REPRESENTATION_CONTEXT ( 3 ) GLOBAL_UNCERTAINTY_ASSIGNED_CONTEXT ( ( #350 ) ) GLOBAL_UNIT_ASSIGNED_CONTEXT ( ( #276, #417, #197 ) ) REPRESENTATION_CONTEXT ( 'NONE', 'WORKASPACE' ) );
#370 = ADVANCED_FACE ( 'NONE', ( #411 ), #449, .T. ) ;
#371 = EDGE_LOOP ( 'NONE', ( #317, #243, #302, #256 ) ) ;
#372 = LINE ( 'NONE', #58, #353 ) ;
#373 = DIRECTION ( 'NONE',  ( 0.000000000000000000, 0.000000000000000000, 1.000000000000000000 ) ) ;
#374 = DIRECTION ( 'NONE',  ( 1.000000000000000000, 0.000000000000000000, 0.000000000000000000 ) ) ;
#375 = ORIENTED_EDGE ( 'NONE', *, *, #52, .T. ) ;
#376 = DIRECTION ( 'NONE',  ( -0.4999999999999997780, 0.8660254037844387076, 0.000000000000000000 ) ) ;
#377 = VERTEX_POINT ( 'NONE', #201 ) ;
#378 = EDGE_CURVE ( 'NONE', #30, #98, #167, .T. ) ;
#379 = APPLICATION_PROTOCOL_DEFINITION ( 'international standard', 'config_control_design', 1994, #211 ) ;
#380 = VERTEX_POINT ( 'NONE', #316 ) ;
#381 = DATE_AND_TIME ( #279, #115 ) ;
#382 = ORIENTED_EDGE ( 'NONE', *, *, #209, .T. ) ;
#383 = PERSON_AND_ORGANIZATION ( #3, #400 ) ;
#384 = PRODUCT_DEFINITION_SHAPE ( 'NONE', 'NONE',  #310 ) ;
#385 = FACE_OUTER_BOUND ( 'NONE', #132, .T. ) ;
#386 = EDGE_CURVE ( 'NONE', #191, #85, #195, .T. ) ;
#387 = CARTESIAN_POINT ( 'NONE',  ( -2.309401076758504701, 8.673617379884035472E-16, -2.500000000000000000 ) ) ;
#388 = ADVANCED_FACE ( 'NONE', ( #413 ), #308, .T. ) ;
#389 = LINE ( 'NONE', #354, #207 ) ;
#390 = CIRCLE ( 'NONE', #416, 3.500000000000000000 ) ;
#391 = CARTESIAN_POINT ( 'NONE',  ( 0.000000000000000000, 0.000000000000000000, -5.000000000000000000 ) ) ;
#392 = COORDINATED_UNIVERSAL_TIME_OFFSET ( 9, 0, .AHEAD. ) ;
#393 = EDGE_CURVE ( 'NONE', #16, #24, #160, .T. ) ;
#394 = LINE ( 'NONE', #387, #423 ) ;
#395 = DIRECTION ( 'NONE',  ( -1.000000000000000000, 0.000000000000000000, 0.000000000000000000 ) ) ;
#396 = VERTEX_POINT ( 'NONE', #49 ) ;
#397 = COORDINATED_UNIVERSAL_TIME_OFFSET ( 9, 0, .AHEAD. ) ;
#398 = VECTOR ( 'NONE', #12, 1000.000000000000000 ) ;
#399 = LINE ( 'NONE', #183, #78 ) ;
#400 = ORGANIZATION ( 'UNSPECIFIED', 'UNSPECIFIED', '' ) ;
#401 = EDGE_LOOP ( 'NONE', ( #419, #227 ) ) ;
#402 = CARTESIAN_POINT ( 'NONE',  ( 2.309401076758504701, -8.673617379884035472E-16, -2.500000000000000000 ) ) ;
#403 = ORIENTED_EDGE ( 'NONE', *, *, #457, .F. ) ;
#404 = CARTESIAN_POINT ( 'NONE',  ( 3.500000000000000000, 0.000000000000000000, -5.000000000000000000 ) ) ;
#405 = ORIENTED_EDGE ( 'NONE', *, *, #172, .T. ) ;
#406 = DIRECTION ( 'NONE',  ( 0.5000000000000002220, 0.8660254037844384856, 0.000000000000000000 ) ) ;
#407 = CLOSED_SHELL ( 'NONE', ( #370, #123, #343, #150, #13, #83, #27, #425, #228, #315, #213, #22, #39, #388 ) ) ;
#408 = ORIENTED_EDGE ( 'NONE', *, *, #285, .F. ) ;
#409 = DIRECTION ( 'NONE',  ( 0.000000000000000000, 0.000000000000000000, -1.000000000000000000 ) ) ;
#410 = ORIENTED_EDGE ( 'NONE', *, *, #137, .F. ) ;
#411 = FACE_OUTER_BOUND ( 'NONE', #61, .T. ) ;
#412 = FACE_OUTER_BOUND ( 'NONE', #242, .T. ) ;
#413 = FACE_OUTER_BOUND ( 'NONE', #169, .T. ) ;
#414 = ORIENTED_EDGE ( 'NONE', *, *, #292, .F. ) ;
#415 = PRODUCT_RELATED_PRODUCT_CATEGORY ( 'detail', '', ( #29 ) ) ;
#416 = AXIS2_PLACEMENT_3D ( 'NONE', #237, #341, #311 ) ;
#417 =( NAMED_UNIT ( * ) PLANE_ANGLE_UNIT ( ) SI_UNIT ( $, .RADIAN. ) );
#418 = ORIENTED_EDGE ( 'NONE', *, *, #224, .F. ) ;
#419 = ORIENTED_EDGE ( 'NONE', *, *, #71, .T. ) ;
#420 = EDGE_CURVE ( 'NONE', #24, #30, #372, .T. ) ;
#421 = COORDINATED_UNIVERSAL_TIME_OFFSET ( 9, 0, .AHEAD. ) ;
#422 = DIRECTION ( 'NONE',  ( -0.000000000000000000, -0.000000000000000000, -1.000000000000000000 ) ) ;
#423 = VECTOR ( 'NONE', #212, 1000.000000000000000 ) ;
#424 = SECURITY_CLASSIFICATION ( '', '', #148 ) ;
#425 = ADVANCED_FACE ( 'NONE', ( #133 ), #205, .F. ) ;
#426 = DIRECTION ( 'NONE',  ( 1.000000000000000000, 0.000000000000000000, 0.000000000000000000 ) ) ;
#427 = CARTESIAN_POINT ( 'NONE',  ( -1.154700538379252350, 2.000000000000001776, -2.500000000000000000 ) ) ;
#428 = DIRECTION ( 'NONE',  ( -0.000000000000000000, 0.000000000000000000, 1.000000000000000000 ) ) ;
#429 = EDGE_CURVE ( 'NONE', #198, #339, #390, .T. ) ;
#430 = SHAPE_DEFINITION_REPRESENTATION ( #384, #46 ) ;
#431 = AXIS2_PLACEMENT_3D ( 'NONE', #125, #338, #146 ) ;
#432 = DIRECTION ( 'NONE',  ( 1.000000000000000000, 0.000000000000000000, 0.000000000000000000 ) ) ;
#433 = CARTESIAN_POINT ( 'NONE',  ( -2.309401076758504701, 8.673617379884035472E-16, -2.500000000000000000 ) ) ;
#434 = EDGE_CURVE ( 'NONE', #314, #187, #203, .T. ) ;
#435 = CARTESIAN_POINT ( 'NONE',  ( -1.154700538379252350, -2.000000000000001776, -2.500000000000000000 ) ) ;
#436 = ORIENTED_EDGE ( 'NONE', *, *, #71, .F. ) ;
#437 = AXIS2_PLACEMENT_3D ( 'NONE', #41, #365, #441 ) ;
#438 = CARTESIAN_POINT ( 'NONE',  ( -2.309401076758504701, 8.673617379884035472E-16, -5.000000000000000000 ) ) ;
#439 = PRODUCT_DEFINITION_FORMATION_WITH_SPECIFIED_SOURCE ( 'ANY', '', #29, .NOT_KNOWN. ) ;
#440 = ORIENTED_EDGE ( 'NONE', *, *, #118, .F. ) ;
#441 = DIRECTION ( 'NONE',  ( 0.000000000000000000, -0.000000000000000000, -1.000000000000000000 ) ) ;
#442 = CARTESIAN_POINT ( 'NONE',  ( 1.154700538379251906, -2.000000000000001776, -2.500000000000000000 ) ) ;
#443 = EDGE_LOOP ( 'NONE', ( #19, #63 ) ) ;
#444 = CC_DESIGN_PERSON_AND_ORGANIZATION_ASSIGNMENT ( #319, #359, ( #310 ) ) ;
#445 = AXIS2_PLACEMENT_3D ( 'NONE', #119, #153, #110 ) ;
#446 = ORIENTED_EDGE ( 'NONE', *, *, #378, .T. ) ;
#447 = CARTESIAN_POINT ( 'NONE',  ( 0.000000000000000000, 0.000000000000000000, -5.000000000000000000 ) ) ;
#448 = DIRECTION ( 'NONE',  ( 1.000000000000000000, 0.000000000000000000, -0.000000000000000000 ) ) ;
#449 = CYLINDRICAL_SURFACE ( 'NONE', #86, 2.500000000000000000 ) ;
#450 = CC_DESIGN_PERSON_AND_ORGANIZATION_ASSIGNMENT ( #182, #286, ( #29 ) ) ;
#451 = ORIENTED_EDGE ( 'NONE', *, *, #429, .F. ) ;
#452 = ORIENTED_EDGE ( 'NONE', *, *, #118, .T. ) ;
#453 = AXIS2_PLACEMENT_3D ( 'NONE', #295, #222, #361 ) ;
#454 = CC_DESIGN_APPROVAL ( #364, ( #424 ) ) ;
#455 = LINE ( 'NONE', #50, #192 ) ;
#456 = PLANE ( 'NONE',  #105 ) ;
#457 = EDGE_CURVE ( 'NONE', #396, #202, #455, .T. ) ;
#458 = PERSON_AND_ORGANIZATION ( #3, #400 ) ;
#459 = DIRECTION ( 'NONE',  ( 1.000000000000000000, 0.000000000000000000, 0.000000000000000000 ) ) ;
#460 = CALENDAR_DATE ( 2024, 26, 9 ) ;
#461 = FACE_OUTER_BOUND ( 'NONE', #122, .T. ) ;
#462 = AXIS2_PLACEMENT_3D ( 'NONE', #342, #102, #326 ) ;
#463 = DIRECTION ( 'NONE',  ( 1.000000000000000000, 0.000000000000000000, 0.000000000000000000 ) ) ;
ENDSEC;
END-ISO-10303-21;
