ISO-10303-21;
HEADER;
FILE_DESCRIPTION (( 'STEP AP203' ),
    '1' );
FILE_NAME ('볼트 m3 8.STEP',
    '2024-09-26T14:16:36',
    ( '' ),
    ( '' ),
    'SwSTEP 2.0',
    'SolidWorks 2022',
    '' );
FILE_SCHEMA (( 'CONFIG_CONTROL_DESIGN' ));
ENDSEC;

DATA;
#1 = DIRECTION ( 'NONE',  ( 0.000000000000000000, 0.000000000000000000, 1.000000000000000000 ) ) ;
#2 = CC_DESIGN_PERSON_AND_ORGANIZATION_ASSIGNMENT ( #187, #255, ( #101 ) ) ;
#3 = ORIENTED_EDGE ( 'NONE', *, *, #176, .F. ) ;
#4 = ORIENTED_EDGE ( 'NONE', *, *, #82, .F. ) ;
#5 = LINE ( 'NONE', #149, #159 ) ;
#6 = EDGE_CURVE ( 'NONE', #210, #191, #188, .T. ) ;
#7 = APPROVAL_STATUS ( 'not_yet_approved' ) ;
#8 = ORIENTED_EDGE ( 'NONE', *, *, #79, .T. ) ;
#9 =( GEOMETRIC_REPRESENTATION_CONTEXT ( 3 ) GLOBAL_UNCERTAINTY_ASSIGNED_CONTEXT ( ( #440 ) ) GLOBAL_UNIT_ASSIGNED_CONTEXT ( ( #78, #362, #227 ) ) REPRESENTATION_CONTEXT ( 'NONE', 'WORKASPACE' ) );
#10 = CC_DESIGN_PERSON_AND_ORGANIZATION_ASSIGNMENT ( #324, #151, ( #389 ) ) ;
#11 = EDGE_LOOP ( 'NONE', ( #346, #179, #97, #406 ) ) ;
#12 = CALENDAR_DATE ( 2024, 26, 9 ) ;
#13 = CYLINDRICAL_SURFACE ( 'NONE', #143, 2.500000000000000444 ) ;
#14 = CARTESIAN_POINT ( 'NONE',  ( -0.7216878364870326079, -1.250000000000000888, -1.700000000000000178 ) ) ;
#15 = CIRCLE ( 'NONE', #274, 1.500000000000000222 ) ;
#16 = APPLICATION_PROTOCOL_DEFINITION ( 'international standard', 'config_control_design', 1994, #371 ) ;
#17 = LINE ( 'NONE', #368, #122 ) ;
#18 = CARTESIAN_POINT ( 'NONE',  ( 0.7216878364870330520, 1.250000000000000666, -3.000000000000000000 ) ) ;
#19 = ADVANCED_FACE ( 'NONE', ( #336 ), #13, .T. ) ;
#20 = CARTESIAN_POINT ( 'NONE',  ( 0.000000000000000000, 0.000000000000000000, 0.000000000000000000 ) ) ;
#21 = VECTOR ( 'NONE', #98, 1000.000000000000000 ) ;
#22 = ADVANCED_FACE ( 'NONE', ( #228 ), #441, .F. ) ;
#23 = PLANE ( 'NONE',  #42 ) ;
#24 = ORIENTED_EDGE ( 'NONE', *, *, #119, .T. ) ;
#25 = FACE_OUTER_BOUND ( 'NONE', #452, .T. ) ;
#26 = CYLINDRICAL_SURFACE ( 'NONE', #435, 2.500000000000000444 ) ;
#27 = EDGE_CURVE ( 'NONE', #248, #137, #17, .T. ) ;
#28 = VERTEX_POINT ( 'NONE', #407 ) ;
#29 = FACE_OUTER_BOUND ( 'NONE', #342, .T. ) ;
#30 = VERTEX_POINT ( 'NONE', #83 ) ;
#31 = FACE_OUTER_BOUND ( 'NONE', #376, .T. ) ;
#32 = CARTESIAN_POINT ( 'NONE',  ( 0.000000000000000000, 0.000000000000000000, -3.000000000000000000 ) ) ;
#33 = PLANE ( 'NONE',  #169 ) ;
#34 = VECTOR ( 'NONE', #200, 1000.000000000000000 ) ;
#35 = ORIENTED_EDGE ( 'NONE', *, *, #6, .T. ) ;
#36 = AXIS2_PLACEMENT_3D ( 'NONE', #369, #120, #297 ) ;
#37 = FACE_OUTER_BOUND ( 'NONE', #232, .T. ) ;
#38 = EDGE_CURVE ( 'NONE', #236, #430, #331, .T. ) ;
#39 = EDGE_LOOP ( 'NONE', ( #252, #450 ) ) ;
#40 = APPROVAL_DATE_TIME ( #361, #382 ) ;
#41 = CARTESIAN_POINT ( 'NONE',  ( 0.7216878364870323859, -1.250000000000000888, -3.000000000000000000 ) ) ;
#42 = AXIS2_PLACEMENT_3D ( 'NONE', #457, #276, #240 ) ;
#43 = CARTESIAN_POINT ( 'NONE',  ( 0.7216878364870323859, -1.250000000000000888, -3.000000000000000000 ) ) ;
#44 = DIRECTION ( 'NONE',  ( 1.000000000000000000, 0.000000000000000000, 0.000000000000000000 ) ) ;
#45 = CARTESIAN_POINT ( 'NONE',  ( -1.443375672974065216, 4.336808689942017736E-16, -1.700000000000000178 ) ) ;
#46 = LINE ( 'NONE', #292, #289 ) ;
#47 = DATE_AND_TIME ( #366, #398 ) ;
#48 = ORIENTED_EDGE ( 'NONE', *, *, #155, .F. ) ;
#49 = CIRCLE ( 'NONE', #312, 2.500000000000000444 ) ;
#50 = PERSON_AND_ORGANIZATION ( #453, #178 ) ;
#51 = CARTESIAN_POINT ( 'NONE',  ( 1.500000000000000222, 1.836970198721030181E-16, 8.000000000000000000 ) ) ;
#52 = EDGE_CURVE ( 'NONE', #72, #353, #46, .T. ) ;
#53 = DIRECTION ( 'NONE',  ( 0.4999999999999997224, -0.8660254037844387076, 0.000000000000000000 ) ) ;
#54 = APPROVAL ( #56, 'UNSPECIFIED' ) ;
#55 = EDGE_LOOP ( 'NONE', ( #397, #424, #58, #360 ) ) ;
#56 = APPROVAL_STATUS ( 'not_yet_approved' ) ;
#57 = DIRECTION ( 'NONE',  ( -0.000000000000000000, -0.000000000000000000, -1.000000000000000000 ) ) ;
#58 = ORIENTED_EDGE ( 'NONE', *, *, #399, .T. ) ;
#59 = AXIS2_PLACEMENT_3D ( 'NONE', #208, #350, #183 ) ;
#60 = DIRECTION ( 'NONE',  ( -0.000000000000000000, -0.000000000000000000, -1.000000000000000000 ) ) ;
#61 = ORIENTED_EDGE ( 'NONE', *, *, #104, .F. ) ;
#62 = ORIENTED_EDGE ( 'NONE', *, *, #119, .F. ) ;
#63 = DIRECTION ( 'NONE',  ( -0.8660254037844388186, -0.4999999999999997780, 0.000000000000000000 ) ) ;
#64 = ORIENTED_EDGE ( 'NONE', *, *, #250, .T. ) ;
#65 = CARTESIAN_POINT ( 'NONE',  ( 1.443375672974065216, -2.168404344971008868E-16, -1.700000000000000178 ) ) ;
#66 = AXIS2_PLACEMENT_3D ( 'NONE', #172, #311, #237 ) ;
#67 = CARTESIAN_POINT ( 'NONE',  ( 2.500000000000000444, 0.000000000000000000, -3.000000000000000000 ) ) ;
#68 = ORIENTED_EDGE ( 'NONE', *, *, #89, .T. ) ;
#69 = EDGE_CURVE ( 'NONE', #205, #201, #334, .T. ) ;
#70 = DIRECTION ( 'NONE',  ( 0.000000000000000000, 0.000000000000000000, 1.000000000000000000 ) ) ;
#71 = ORIENTED_EDGE ( 'NONE', *, *, #38, .F. ) ;
#72 = VERTEX_POINT ( 'NONE', #300 ) ;
#73 = EDGE_CURVE ( 'NONE', #353, #88, #163, .T. ) ;
#74 = DIRECTION ( 'NONE',  ( 1.000000000000000000, 0.000000000000000000, 0.000000000000000000 ) ) ;
#75 = ORIENTED_EDGE ( 'NONE', *, *, #422, .T. ) ;
#76 = VERTEX_POINT ( 'NONE', #263 ) ;
#77 = DIRECTION ( 'NONE',  ( -0.000000000000000000, -0.000000000000000000, -1.000000000000000000 ) ) ;
#78 =( LENGTH_UNIT ( ) NAMED_UNIT ( * ) SI_UNIT ( .MILLI., .METRE. ) );
#79 = EDGE_CURVE ( 'NONE', #88, #205, #367, .T. ) ;
#80 = PRODUCT ( '볼트 m3 8', '볼트 m3 8', '', ( #124 ) ) ;
#81 = DATE_AND_TIME ( #12, #358 ) ;
#82 = EDGE_CURVE ( 'NONE', #456, #205, #443, .T. ) ;
#83 = CARTESIAN_POINT ( 'NONE',  ( 2.500000000000000444, 0.000000000000000000, -3.000000000000000000 ) ) ;
#84 = MANIFOLD_SOLID_BREP ( '컷-돌출1', #93 ) ;
#85 = APPROVAL_ROLE ( '' ) ;
#86 = DIRECTION ( 'NONE',  ( -0.000000000000000000, -0.000000000000000000, -1.000000000000000000 ) ) ;
#87 = DIRECTION ( 'NONE',  ( 1.000000000000000000, 0.000000000000000000, 0.000000000000000000 ) ) ;
#88 = VERTEX_POINT ( 'NONE', #226 ) ;
#89 = EDGE_CURVE ( 'NONE', #353, #456, #265, .T. ) ;
#90 = PERSON_AND_ORGANIZATION_ROLE ( 'design_owner' ) ;
#91 = CARTESIAN_POINT ( 'NONE',  ( -1.443375672974065216, 4.336808689942017736E-16, -1.700000000000000178 ) ) ;
#92 = CARTESIAN_POINT ( 'NONE',  ( -0.7216878364870326079, -1.250000000000000888, -1.700000000000000178 ) ) ;
#93 = CLOSED_SHELL ( 'NONE', ( #419, #139, #19, #322, #412, #333, #209, #238, #287, #329, #164, #266, #22, #296 ) ) ;
#94 = LINE ( 'NONE', #375, #34 ) ;
#95 = CC_DESIGN_DATE_AND_TIME_ASSIGNMENT ( #47, #400, ( #101 ) ) ;
#96 = CARTESIAN_POINT ( 'NONE',  ( 1.443375672974065216, -2.168404344971008868E-16, -1.700000000000000178 ) ) ;
#97 = ORIENTED_EDGE ( 'NONE', *, *, #190, .F. ) ;
#98 = DIRECTION ( 'NONE',  ( 1.000000000000000000, -1.502314598737158045E-16, 0.000000000000000000 ) ) ;
#99 = VECTOR ( 'NONE', #157, 1000.000000000000114 ) ;
#100 = LINE ( 'NONE', #381, #105 ) ;
#101 = PRODUCT_DEFINITION ( 'UNKNOWN', '', #389, #225 ) ;
#102 = FACE_OUTER_BOUND ( 'NONE', #402, .T. ) ;
#103 = DIRECTION ( 'NONE',  ( 1.000000000000000000, 0.000000000000000000, 0.000000000000000000 ) ) ;
#104 = EDGE_CURVE ( 'NONE', #430, #88, #230, .T. ) ;
#105 = VECTOR ( 'NONE', #60, 1000.000000000000000 ) ;
#106 = FACE_BOUND ( 'NONE', #145, .T. ) ;
#107 = ORIENTED_EDGE ( 'NONE', *, *, #386, .T. ) ;
#108 = CARTESIAN_POINT ( 'NONE',  ( -1.443375672974065216, 4.336808689942017736E-16, -1.700000000000000178 ) ) ;
#109 = ORIENTED_EDGE ( 'NONE', *, *, #27, .T. ) ;
#110 = ORIENTED_EDGE ( 'NONE', *, *, #170, .T. ) ;
#111 = DIRECTION ( 'NONE',  ( 1.000000000000000000, 0.000000000000000000, -0.000000000000000000 ) ) ;
#112 = EDGE_CURVE ( 'NONE', #248, #201, #325, .T. ) ;
#113 = FACE_OUTER_BOUND ( 'NONE', #39, .T. ) ;
#114 = CC_DESIGN_SECURITY_CLASSIFICATION ( #162, ( #389 ) ) ;
#115 = SECURITY_CLASSIFICATION_LEVEL ( 'unclassified' ) ;
#116 = DIRECTION ( 'NONE',  ( -0.000000000000000000, -0.000000000000000000, -1.000000000000000000 ) ) ;
#117 = DIRECTION ( 'NONE',  ( -1.000000000000000000, 0.000000000000000000, 0.000000000000000000 ) ) ;
#118 = ORIENTED_EDGE ( 'NONE', *, *, #170, .F. ) ;
#119 = EDGE_CURVE ( 'NONE', #210, #182, #404, .T. ) ;
#120 = DIRECTION ( 'NONE',  ( 0.000000000000000000, 0.000000000000000000, 1.000000000000000000 ) ) ;
#121 = ORIENTED_EDGE ( 'NONE', *, *, #69, .T. ) ;
#122 = VECTOR ( 'NONE', #258, 1000.000000000000000 ) ;
#123 = CC_DESIGN_APPROVAL ( #382, ( #389 ) ) ;
#124 = MECHANICAL_CONTEXT ( 'NONE', #291, 'mechanical' ) ;
#125 = CARTESIAN_POINT ( 'NONE',  ( -1.443375672974065216, 4.336808689942017736E-16, -1.700000000000000178 ) ) ;
#126 = DIRECTION ( 'NONE',  ( -0.000000000000000000, -0.000000000000000000, -1.000000000000000000 ) ) ;
#127 = DIRECTION ( 'NONE',  ( -0.000000000000000000, 0.000000000000000000, 1.000000000000000000 ) ) ;
#128 = VECTOR ( 'NONE', #77, 1000.000000000000000 ) ;
#129 = ORIENTED_EDGE ( 'NONE', *, *, #282, .F. ) ;
#130 = CARTESIAN_POINT ( 'NONE',  ( -1.443375672974065438, 3.252606517456513302E-16, -3.000000000000000000 ) ) ;
#131 = VERTEX_POINT ( 'NONE', #267 ) ;
#132 = DIRECTION ( 'NONE',  ( -0.000000000000000000, 0.000000000000000000, 1.000000000000000000 ) ) ;
#133 = DIRECTION ( 'NONE',  ( 0.4999999999999996669, -0.8660254037844388186, 0.000000000000000000 ) ) ;
#134 = APPROVAL ( #219, 'UNSPECIFIED' ) ;
#135 = ORIENTED_EDGE ( 'NONE', *, *, #422, .F. ) ;
#136 = VECTOR ( 'NONE', #133, 1000.000000000000000 ) ;
#137 = VERTEX_POINT ( 'NONE', #455 ) ;
#138 = DIRECTION ( 'NONE',  ( -0.4999999999999996669, 0.8660254037844388186, 0.000000000000000000 ) ) ;
#139 = ADVANCED_FACE ( 'NONE', ( #243 ), #26, .T. ) ;
#140 = DIRECTION ( 'NONE',  ( 1.000000000000000000, 0.000000000000000000, 0.000000000000000000 ) ) ;
#141 = ORIENTED_EDGE ( 'NONE', *, *, #173, .F. ) ;
#142 = CC_DESIGN_PERSON_AND_ORGANIZATION_ASSIGNMENT ( #401, #221, ( #162 ) ) ;
#143 = AXIS2_PLACEMENT_3D ( 'NONE', #408, #156, #44 ) ;
#144 = CARTESIAN_POINT ( 'NONE',  ( -0.7216878364870326079, 1.250000000000000888, -1.700000000000000178 ) ) ;
#145 = EDGE_LOOP ( 'NONE', ( #197, #414, #61, #71, #3, #141 ) ) ;
#146 = DIRECTION ( 'NONE',  ( 1.000000000000000000, 0.000000000000000000, -0.000000000000000000 ) ) ;
#147 = ORIENTED_EDGE ( 'NONE', *, *, #166, .T. ) ;
#148 = ORIENTED_EDGE ( 'NONE', *, *, #89, .F. ) ;
#149 = CARTESIAN_POINT ( 'NONE',  ( -2.500000000000000444, 3.061616997868383634E-16, -3.000000000000000000 ) ) ;
#150 = PRODUCT_RELATED_PRODUCT_CATEGORY ( 'detail', '', ( #80 ) ) ;
#151 = PERSON_AND_ORGANIZATION_ROLE ( 'creator' ) ;
#152 = AXIS2_PLACEMENT_3D ( 'NONE', #192, #444, #87 ) ;
#153 = DIRECTION ( 'NONE',  ( -0.5000000000000001110, -0.8660254037844384856, 0.000000000000000000 ) ) ;
#154 = ADVANCED_BREP_SHAPE_REPRESENTATION ( '볼트 m3 8', ( #84, #36 ), #9 ) ;
#155 = EDGE_CURVE ( 'NONE', #28, #72, #303, .T. ) ;
#156 = DIRECTION ( 'NONE',  ( 0.000000000000000000, 0.000000000000000000, 1.000000000000000000 ) ) ;
#157 = DIRECTION ( 'NONE',  ( -0.4999999999999997780, 0.8660254037844388186, 0.000000000000000000 ) ) ;
#158 = DIRECTION ( 'NONE',  ( -0.000000000000000000, -0.000000000000000000, -1.000000000000000000 ) ) ;
#159 = VECTOR ( 'NONE', #385, 1000.000000000000000 ) ;
#160 = DIRECTION ( 'NONE',  ( -0.8660254037844387076, 0.5000000000000000000, 0.000000000000000000 ) ) ;
#161 = AXIS2_PLACEMENT_3D ( 'NONE', #65, #285, #247 ) ;
#162 = SECURITY_CLASSIFICATION ( '', '', #115 ) ;
#163 = LINE ( 'NONE', #14, #380 ) ;
#164 = ADVANCED_FACE ( 'NONE', ( #25 ), #175, .F. ) ;
#165 = DIRECTION ( 'NONE',  ( 0.000000000000000000, 0.000000000000000000, 1.000000000000000000 ) ) ;
#166 = EDGE_CURVE ( 'NONE', #76, #280, #260, .T. ) ;
#167 = APPROVAL_ROLE ( '' ) ;
#168 = FACE_OUTER_BOUND ( 'NONE', #395, .T. ) ;
#169 = AXIS2_PLACEMENT_3D ( 'NONE', #347, #281, #186 ) ;
#170 = EDGE_CURVE ( 'NONE', #72, #430, #377, .T. ) ;
#171 = CARTESIAN_POINT ( 'NONE',  ( -1.500000000000000222, 0.000000000000000000, 8.000000000000000000 ) ) ;
#172 = CARTESIAN_POINT ( 'NONE',  ( 0.000000000000000000, 0.000000000000000000, 0.000000000000000000 ) ) ;
#173 = EDGE_CURVE ( 'NONE', #201, #131, #413, .T. ) ;
#174 = VERTEX_POINT ( 'NONE', #343 ) ;
#175 = PLANE ( 'NONE',  #224 ) ;
#176 = EDGE_CURVE ( 'NONE', #131, #236, #273, .T. ) ;
#177 = AXIS2_PLACEMENT_3D ( 'NONE', #223, #158, #117 ) ;
#178 = ORGANIZATION ( 'UNSPECIFIED', 'UNSPECIFIED', '' ) ;
#179 = ORIENTED_EDGE ( 'NONE', *, *, #364, .T. ) ;
#180 = CARTESIAN_POINT ( 'NONE',  ( 2.500000000000000444, 0.000000000000000000, 0.000000000000000000 ) ) ;
#181 = DIRECTION ( 'NONE',  ( 0.000000000000000000, 0.000000000000000000, 1.000000000000000000 ) ) ;
#182 = VERTEX_POINT ( 'NONE', #51 ) ;
#183 = DIRECTION ( 'NONE',  ( -1.000000000000000000, 0.000000000000000000, 0.000000000000000000 ) ) ;
#184 = VECTOR ( 'NONE', #116, 1000.000000000000000 ) ;
#185 = DIRECTION ( 'NONE',  ( 0.5000000000000001110, 0.8660254037844385966, 0.000000000000000000 ) ) ;
#186 = DIRECTION ( 'NONE',  ( -1.000000000000000000, 0.000000000000000000, -0.000000000000000000 ) ) ;
#187 = PERSON_AND_ORGANIZATION ( #453, #178 ) ;
#188 = LINE ( 'NONE', #196, #216 ) ;
#189 = ORIENTED_EDGE ( 'NONE', *, *, #73, .T. ) ;
#190 = EDGE_CURVE ( 'NONE', #280, #76, #49, .T. ) ;
#191 = VERTEX_POINT ( 'NONE', #338 ) ;
#192 = CARTESIAN_POINT ( 'NONE',  ( 0.000000000000000000, 0.000000000000000000, 0.000000000000000000 ) ) ;
#193 = DIRECTION ( 'NONE',  ( -1.000000000000000000, 0.000000000000000000, 0.000000000000000000 ) ) ;
#194 = PERSON_AND_ORGANIZATION ( #453, #178 ) ;
#195 = AXIS2_PLACEMENT_3D ( 'NONE', #320, #1, #111 ) ;
#196 = CARTESIAN_POINT ( 'NONE',  ( -1.500000000000000222, 0.000000000000000000, 8.000000000000000000 ) ) ;
#197 = ORIENTED_EDGE ( 'NONE', *, *, #69, .F. ) ;
#198 = DIRECTION ( 'NONE',  ( 1.000000000000000000, 0.000000000000000000, 0.000000000000000000 ) ) ;
#199 = DATE_AND_TIME ( #379, #448 ) ;
#200 = DIRECTION ( 'NONE',  ( -0.000000000000000000, -0.000000000000000000, -1.000000000000000000 ) ) ;
#201 = VERTEX_POINT ( 'NONE', #383 ) ;
#202 = CARTESIAN_POINT ( 'NONE',  ( -0.7216878364870326079, 1.250000000000000888, -3.000000000000000000 ) ) ;
#203 = AXIS2_PLACEMENT_3D ( 'NONE', #91, #160, #262 ) ;
#204 = CARTESIAN_POINT ( 'NONE',  ( 0.7216878364870330520, 1.250000000000000666, -1.700000000000000178 ) ) ;
#205 = VERTEX_POINT ( 'NONE', #130 ) ;
#206 = EDGE_LOOP ( 'NONE', ( #421, #458, #384, #110 ) ) ;
#207 = CARTESIAN_POINT ( 'NONE',  ( -0.7216878364870326079, 1.250000000000000888, -1.700000000000000178 ) ) ;
#208 = CARTESIAN_POINT ( 'NONE',  ( 0.000000000000000000, 0.000000000000000000, 8.000000000000000000 ) ) ;
#209 = ADVANCED_FACE ( 'NONE', ( #235 ), #23, .T. ) ;
#210 = VERTEX_POINT ( 'NONE', #171 ) ;
#211 = CARTESIAN_POINT ( 'NONE',  ( 1.443375672974065216, -2.168404344971008868E-16, -1.700000000000000178 ) ) ;
#212 = EDGE_CURVE ( 'NONE', #137, #131, #100, .T. ) ;
#213 = DIRECTION ( 'NONE',  ( 0.000000000000000000, 0.000000000000000000, 1.000000000000000000 ) ) ;
#214 = ORIENTED_EDGE ( 'NONE', *, *, #155, .T. ) ;
#215 = FACE_OUTER_BOUND ( 'NONE', #393, .T. ) ;
#216 = VECTOR ( 'NONE', #445, 1000.000000000000000 ) ;
#217 = CC_DESIGN_APPROVAL ( #54, ( #162 ) ) ;
#218 = DIRECTION ( 'NONE',  ( 0.000000000000000000, -1.000000000000000000, 0.000000000000000000 ) ) ;
#219 = APPROVAL_STATUS ( 'not_yet_approved' ) ;
#220 = EDGE_CURVE ( 'NONE', #137, #28, #420, .T. ) ;
#221 = PERSON_AND_ORGANIZATION_ROLE ( 'classification_officer' ) ;
#222 = CARTESIAN_POINT ( 'NONE',  ( 1.443375672974065216, -2.168404344971008868E-16, -3.000000000000000000 ) ) ;
#223 = CARTESIAN_POINT ( 'NONE',  ( 0.000000000000000000, 0.000000000000000000, 8.000000000000000000 ) ) ;
#224 = AXIS2_PLACEMENT_3D ( 'NONE', #451, #271, #138 ) ;
#225 = DESIGN_CONTEXT ( 'detailed design', #371, 'design' ) ;
#226 = CARTESIAN_POINT ( 'NONE',  ( -0.7216878364870326079, -1.250000000000000888, -3.000000000000000000 ) ) ;
#227 =( NAMED_UNIT ( * ) SI_UNIT ( $, .STERADIAN. ) SOLID_ANGLE_UNIT ( ) );
#228 = FACE_OUTER_BOUND ( 'NONE', #294, .T. ) ;
#229 = APPROVAL_DATE_TIME ( #81, #134 ) ;
#230 = LINE ( 'NONE', #41, #326 ) ;
#231 = CIRCLE ( 'NONE', #152, 1.500000000000000222 ) ;
#232 = EDGE_LOOP ( 'NONE', ( #68, #429, #109, #314, #214, #279 ) ) ;
#233 = CC_DESIGN_APPROVAL ( #134, ( #101 ) ) ;
#234 = DATE_AND_TIME ( #264, #304 ) ;
#235 = FACE_OUTER_BOUND ( 'NONE', #463, .T. ) ;
#236 = VERTEX_POINT ( 'NONE', #341 ) ;
#237 = DIRECTION ( 'NONE',  ( 1.000000000000000000, 0.000000000000000000, 0.000000000000000000 ) ) ;
#238 = ADVANCED_FACE ( 'NONE', ( #102 ), #242, .F. ) ;
#239 = ORIENTED_EDGE ( 'NONE', *, *, #190, .T. ) ;
#240 = DIRECTION ( 'NONE',  ( 1.000000000000000000, 0.000000000000000000, 0.000000000000000000 ) ) ;
#241 = VECTOR ( 'NONE', #295, 1000.000000000000114 ) ;
#242 = PLANE ( 'NONE',  #302 ) ;
#243 = FACE_OUTER_BOUND ( 'NONE', #11, .T. ) ;
#244 = ORIENTED_EDGE ( 'NONE', *, *, #386, .F. ) ;
#245 = CARTESIAN_POINT ( 'NONE',  ( 0.000000000000000000, 0.000000000000000000, -3.000000000000000000 ) ) ;
#246 = AXIS2_PLACEMENT_3D ( 'NONE', #245, #213, #140 ) ;
#247 = DIRECTION ( 'NONE',  ( 0.5000000000000002220, 0.8660254037844384856, 0.000000000000000000 ) ) ;
#248 = VERTEX_POINT ( 'NONE', #207 ) ;
#249 = CARTESIAN_POINT ( 'NONE',  ( 1.500000000000000222, 1.836970198721030181E-16, 0.000000000000000000 ) ) ;
#250 = EDGE_CURVE ( 'NONE', #191, #323, #253, .T. ) ;
#251 = FACE_OUTER_BOUND ( 'NONE', #418, .T. ) ;
#252 = ORIENTED_EDGE ( 'NONE', *, *, #378, .F. ) ;
#253 = CIRCLE ( 'NONE', #365, 1.500000000000000222 ) ;
#254 = EDGE_CURVE ( 'NONE', #182, #323, #94, .T. ) ;
#255 = PERSON_AND_ORGANIZATION_ROLE ( 'creator' ) ;
#256 = APPROVAL_ROLE ( '' ) ;
#257 = ORIENTED_EDGE ( 'NONE', *, *, #173, .T. ) ;
#258 = DIRECTION ( 'NONE',  ( 1.000000000000000000, -1.502314598737158045E-16, 0.000000000000000000 ) ) ;
#259 = COORDINATED_UNIVERSAL_TIME_OFFSET ( 9, 0, .AHEAD. ) ;
#260 = CIRCLE ( 'NONE', #66, 2.500000000000000444 ) ;
#261 = APPROVAL_PERSON_ORGANIZATION ( #194, #382, #256 ) ;
#262 = DIRECTION ( 'NONE',  ( -0.4999999999999999445, -0.8660254037844385966, 0.000000000000000000 ) ) ;
#263 = CARTESIAN_POINT ( 'NONE',  ( -2.500000000000000444, 3.061616997868383634E-16, 0.000000000000000000 ) ) ;
#264 = CALENDAR_DATE ( 2024, 26, 9 ) ;
#265 = LINE ( 'NONE', #92, #241 ) ;
#266 = ADVANCED_FACE ( 'NONE', ( #168 ), #459, .F. ) ;
#267 = CARTESIAN_POINT ( 'NONE',  ( 0.7216878364870330520, 1.250000000000000666, -3.000000000000000000 ) ) ;
#268 = APPROVAL_PERSON_ORGANIZATION ( #327, #134, #85 ) ;
#269 = CARTESIAN_POINT ( 'NONE',  ( 0.000000000000000000, 0.000000000000000000, -3.000000000000000000 ) ) ;
#270 = EDGE_LOOP ( 'NONE', ( #432, #135 ) ) ;
#271 = DIRECTION ( 'NONE',  ( 0.8660254037844388186, 0.4999999999999996669, -0.000000000000000000 ) ) ;
#272 = SHAPE_DEFINITION_REPRESENTATION ( #318, #154 ) ;
#273 = LINE ( 'NONE', #18, #136 ) ;
#274 = AXIS2_PLACEMENT_3D ( 'NONE', #431, #392, #74 ) ;
#275 = LOCAL_TIME ( 23, 16, 36.00000000000000000, #259 ) ;
#276 = DIRECTION ( 'NONE',  ( -0.000000000000000000, 0.000000000000000000, 1.000000000000000000 ) ) ;
#277 = EDGE_CURVE ( 'NONE', #174, #30, #355, .T. ) ;
#278 = PLANE ( 'NONE',  #161 ) ;
#279 = ORIENTED_EDGE ( 'NONE', *, *, #52, .T. ) ;
#280 = VERTEX_POINT ( 'NONE', #180 ) ;
#281 = DIRECTION ( 'NONE',  ( 0.000000000000000000, 0.000000000000000000, -1.000000000000000000 ) ) ;
#282 = EDGE_CURVE ( 'NONE', #28, #236, #434, .T. ) ;
#283 = AXIS2_PLACEMENT_3D ( 'NONE', #461, #218, #428 ) ;
#284 = DIRECTION ( 'NONE',  ( -1.000000000000000000, 1.502314598737158045E-16, 0.000000000000000000 ) ) ;
#285 = DIRECTION ( 'NONE',  ( 0.8660254037844385966, -0.5000000000000003331, 0.000000000000000000 ) ) ;
#286 = ORIENTED_EDGE ( 'NONE', *, *, #112, .F. ) ;
#287 = ADVANCED_FACE ( 'NONE', ( #352 ), #354, .F. ) ;
#288 = DIRECTION ( 'NONE',  ( 0.000000000000000000, 0.000000000000000000, 1.000000000000000000 ) ) ;
#289 = VECTOR ( 'NONE', #193, 1000.000000000000000 ) ;
#290 = PERSON_AND_ORGANIZATION ( #453, #178 ) ;
#291 = APPLICATION_CONTEXT ( 'configuration controlled 3d designs of mechanical parts and assemblies' ) ;
#292 = CARTESIAN_POINT ( 'NONE',  ( 0.7216878364870323859, -1.250000000000000888, -1.700000000000000178 ) ) ;
#293 = COORDINATED_UNIVERSAL_TIME_OFFSET ( 9, 0, .AHEAD. ) ;
#294 = EDGE_LOOP ( 'NONE', ( #121, #286, #307, #374 ) ) ;
#295 = DIRECTION ( 'NONE',  ( -0.4999999999999997780, 0.8660254037844388186, 0.000000000000000000 ) ) ;
#296 = ADVANCED_FACE ( 'NONE', ( #37 ), #33, .T. ) ;
#297 = DIRECTION ( 'NONE',  ( 1.000000000000000000, 0.000000000000000000, 0.000000000000000000 ) ) ;
#298 = AXIS2_PLACEMENT_3D ( 'NONE', #144, #317, #284 ) ;
#299 = CARTESIAN_POINT ( 'NONE',  ( -0.7216878364870326079, -1.250000000000000888, -3.000000000000000000 ) ) ;
#300 = CARTESIAN_POINT ( 'NONE',  ( 0.7216878364870323859, -1.250000000000000888, -1.700000000000000178 ) ) ;
#301 = CARTESIAN_POINT ( 'NONE',  ( -0.7216878364870326079, -1.250000000000000888, -1.700000000000000178 ) ) ;
#302 = AXIS2_PLACEMENT_3D ( 'NONE', #301, #63, #53 ) ;
#303 = LINE ( 'NONE', #96, #462 ) ;
#304 = LOCAL_TIME ( 23, 16, 36.00000000000000000, #340 ) ;
#305 = APPROVAL_DATE_TIME ( #199, #54 ) ;
#306 = DIRECTION ( 'NONE',  ( 1.000000000000000000, 0.000000000000000000, 0.000000000000000000 ) ) ;
#307 = ORIENTED_EDGE ( 'NONE', *, *, #337, .F. ) ;
#308 = COORDINATED_UNIVERSAL_TIME_OFFSET ( 9, 0, .AHEAD. ) ;
#309 = CARTESIAN_POINT ( 'NONE',  ( 0.7216878364870323859, -1.250000000000000888, -1.700000000000000178 ) ) ;
#310 = ORIENTED_EDGE ( 'NONE', *, *, #254, .F. ) ;
#311 = DIRECTION ( 'NONE',  ( 0.000000000000000000, 0.000000000000000000, 1.000000000000000000 ) ) ;
#312 = AXIS2_PLACEMENT_3D ( 'NONE', #20, #165, #198 ) ;
#313 = CC_DESIGN_DATE_AND_TIME_ASSIGNMENT ( #234, #373, ( #162 ) ) ;
#314 = ORIENTED_EDGE ( 'NONE', *, *, #220, .T. ) ;
#315 = CYLINDRICAL_SURFACE ( 'NONE', #59, 1.500000000000000222 ) ;
#316 = PLANE ( 'NONE',  #195 ) ;
#317 = DIRECTION ( 'NONE',  ( 1.502314598737158045E-16, 1.000000000000000000, -0.000000000000000000 ) ) ;
#318 = PRODUCT_DEFINITION_SHAPE ( 'NONE', 'NONE',  #101 ) ;
#319 = VECTOR ( 'NONE', #185, 1000.000000000000114 ) ;
#320 = CARTESIAN_POINT ( 'NONE',  ( 0.000000000000000000, 0.000000000000000000, 0.000000000000000000 ) ) ;
#321 = CARTESIAN_POINT ( 'NONE',  ( 0.000000000000000000, 0.000000000000000000, -3.000000000000000000 ) ) ;
#322 = ADVANCED_FACE ( 'NONE', ( #106, #113 ), #359, .F. ) ;
#323 = VERTEX_POINT ( 'NONE', #249 ) ;
#324 = PERSON_AND_ORGANIZATION ( #453, #178 ) ;
#325 = LINE ( 'NONE', #436, #184 ) ;
#326 = VECTOR ( 'NONE', #370, 1000.000000000000000 ) ;
#327 = PERSON_AND_ORGANIZATION ( #453, #178 ) ;
#328 = ORIENTED_EDGE ( 'NONE', *, *, #176, .T. ) ;
#329 = ADVANCED_FACE ( 'NONE', ( #29 ), #278, .F. ) ;
#330 = APPLICATION_PROTOCOL_DEFINITION ( 'international standard', 'config_control_design', 1994, #291 ) ;
#331 = LINE ( 'NONE', #222, #447 ) ;
#332 = PERSON_AND_ORGANIZATION ( #453, #178 ) ;
#333 = ADVANCED_FACE ( 'NONE', ( #31 ), #315, .T. ) ;
#334 = LINE ( 'NONE', #403, #442 ) ;
#335 = AXIS2_PLACEMENT_3D ( 'NONE', #411, #132, #345 ) ;
#336 = FACE_OUTER_BOUND ( 'NONE', #55, .T. ) ;
#337 = EDGE_CURVE ( 'NONE', #456, #248, #423, .T. ) ;
#338 = CARTESIAN_POINT ( 'NONE',  ( -1.500000000000000222, 0.000000000000000000, 0.000000000000000000 ) ) ;
#339 = CC_DESIGN_PERSON_AND_ORGANIZATION_ASSIGNMENT ( #332, #90, ( #80 ) ) ;
#340 = COORDINATED_UNIVERSAL_TIME_OFFSET ( 9, 0, .AHEAD. ) ;
#341 = CARTESIAN_POINT ( 'NONE',  ( 1.443375672974065216, -2.168404344971008868E-16, -3.000000000000000000 ) ) ;
#342 = EDGE_LOOP ( 'NONE', ( #349, #118, #48, #351 ) ) ;
#343 = CARTESIAN_POINT ( 'NONE',  ( -2.500000000000000444, 3.061616997868383634E-16, -3.000000000000000000 ) ) ;
#344 = DIRECTION ( 'NONE',  ( 0.4999999999999996669, -0.8660254037844388186, 0.000000000000000000 ) ) ;
#345 = DIRECTION ( 'NONE',  ( 1.000000000000000000, 0.000000000000000000, 0.000000000000000000 ) ) ;
#346 = ORIENTED_EDGE ( 'NONE', *, *, #378, .T. ) ;
#347 = CARTESIAN_POINT ( 'NONE',  ( 0.000000000000000000, 0.000000000000000000, -1.700000000000000178 ) ) ;
#348 = CIRCLE ( 'NONE', #415, 2.500000000000000444 ) ;
#349 = ORIENTED_EDGE ( 'NONE', *, *, #38, .T. ) ;
#350 = DIRECTION ( 'NONE',  ( -0.000000000000000000, -0.000000000000000000, -1.000000000000000000 ) ) ;
#351 = ORIENTED_EDGE ( 'NONE', *, *, #282, .T. ) ;
#352 = FACE_OUTER_BOUND ( 'NONE', #206, .T. ) ;
#353 = VERTEX_POINT ( 'NONE', #390 ) ;
#354 = PLANE ( 'NONE',  #283 ) ;
#355 = CIRCLE ( 'NONE', #246, 2.500000000000000444 ) ;
#356 = ORIENTED_EDGE ( 'NONE', *, *, #6, .F. ) ;
#357 = VECTOR ( 'NONE', #57, 1000.000000000000000 ) ;
#358 = LOCAL_TIME ( 23, 16, 36.00000000000000000, #293 ) ;
#359 = PLANE ( 'NONE',  #425 ) ;
#360 = ORIENTED_EDGE ( 'NONE', *, *, #166, .F. ) ;
#361 = DATE_AND_TIME ( #405, #275 ) ;
#362 =( NAMED_UNIT ( * ) PLANE_ANGLE_UNIT ( ) SI_UNIT ( $, .RADIAN. ) );
#363 = DIRECTION ( 'NONE',  ( 0.5000000000000001110, 0.8660254037844385966, 0.000000000000000000 ) ) ;
#364 = EDGE_CURVE ( 'NONE', #174, #76, #5, .T. ) ;
#365 = AXIS2_PLACEMENT_3D ( 'NONE', #446, #127, #409 ) ;
#366 = CALENDAR_DATE ( 2024, 26, 9 ) ;
#367 = LINE ( 'NONE', #299, #99 ) ;
#368 = CARTESIAN_POINT ( 'NONE',  ( -0.7216878364870326079, 1.250000000000000888, -1.700000000000000178 ) ) ;
#369 = CARTESIAN_POINT ( 'NONE',  ( 0.000000000000000000, 0.000000000000000000, 0.000000000000000000 ) ) ;
#370 = DIRECTION ( 'NONE',  ( -1.000000000000000000, 0.000000000000000000, 0.000000000000000000 ) ) ;
#371 = APPLICATION_CONTEXT ( 'configuration controlled 3d designs of mechanical parts and assemblies' ) ;
#372 = VECTOR ( 'NONE', #126, 1000.000000000000000 ) ;
#373 = DATE_TIME_ROLE ( 'classification_date' ) ;
#374 = ORIENTED_EDGE ( 'NONE', *, *, #82, .T. ) ;
#375 = CARTESIAN_POINT ( 'NONE',  ( 1.500000000000000222, 1.836970198721030181E-16, 8.000000000000000000 ) ) ;
#376 = EDGE_LOOP ( 'NONE', ( #310, #62, #35, #64 ) ) ;
#377 = LINE ( 'NONE', #309, #357 ) ;
#378 = EDGE_CURVE ( 'NONE', #30, #174, #348, .T. ) ;
#379 = CALENDAR_DATE ( 2024, 26, 9 ) ;
#380 = VECTOR ( 'NONE', #86, 1000.000000000000000 ) ;
#381 = CARTESIAN_POINT ( 'NONE',  ( 0.7216878364870330520, 1.250000000000000666, -1.700000000000000178 ) ) ;
#382 = APPROVAL ( #7, 'UNSPECIFIED' ) ;
#383 = CARTESIAN_POINT ( 'NONE',  ( -0.7216878364870326079, 1.250000000000000888, -3.000000000000000000 ) ) ;
#384 = ORIENTED_EDGE ( 'NONE', *, *, #52, .F. ) ;
#385 = DIRECTION ( 'NONE',  ( 0.000000000000000000, 0.000000000000000000, 1.000000000000000000 ) ) ;
#386 = EDGE_CURVE ( 'NONE', #182, #210, #15, .T. ) ;
#387 = LINE ( 'NONE', #67, #396 ) ;
#388 = VECTOR ( 'NONE', #344, 1000.000000000000000 ) ;
#389 = PRODUCT_DEFINITION_FORMATION_WITH_SPECIFIED_SOURCE ( 'ANY', '', #80, .NOT_KNOWN. ) ;
#390 = CARTESIAN_POINT ( 'NONE',  ( -0.7216878364870326079, -1.250000000000000888, -1.700000000000000178 ) ) ;
#391 = ORIENTED_EDGE ( 'NONE', *, *, #212, .F. ) ;
#392 = DIRECTION ( 'NONE',  ( -0.000000000000000000, 0.000000000000000000, 1.000000000000000000 ) ) ;
#393 = EDGE_LOOP ( 'NONE', ( #239, #147 ) ) ;
#394 = CYLINDRICAL_SURFACE ( 'NONE', #177, 1.500000000000000222 ) ;
#395 = EDGE_LOOP ( 'NONE', ( #257, #391, #454, #427 ) ) ;
#396 = VECTOR ( 'NONE', #181, 1000.000000000000000 ) ;
#397 = ORIENTED_EDGE ( 'NONE', *, *, #364, .F. ) ;
#398 = LOCAL_TIME ( 23, 16, 36.00000000000000000, #439 ) ;
#399 = EDGE_CURVE ( 'NONE', #30, #280, #387, .T. ) ;
#400 = DATE_TIME_ROLE ( 'creation_date' ) ;
#401 = PERSON_AND_ORGANIZATION ( #453, #178 ) ;
#402 = EDGE_LOOP ( 'NONE', ( #8, #4, #148, #189 ) ) ;
#403 = CARTESIAN_POINT ( 'NONE',  ( -1.443375672974065216, 4.336808689942017736E-16, -3.000000000000000000 ) ) ;
#404 = CIRCLE ( 'NONE', #335, 1.500000000000000222 ) ;
#405 = CALENDAR_DATE ( 2024, 26, 9 ) ;
#406 = ORIENTED_EDGE ( 'NONE', *, *, #399, .F. ) ;
#407 = CARTESIAN_POINT ( 'NONE',  ( 1.443375672974065216, -2.168404344971008868E-16, -1.700000000000000178 ) ) ;
#408 = CARTESIAN_POINT ( 'NONE',  ( 0.000000000000000000, 0.000000000000000000, -3.000000000000000000 ) ) ;
#409 = DIRECTION ( 'NONE',  ( 1.000000000000000000, 0.000000000000000000, 0.000000000000000000 ) ) ;
#410 = ORIENTED_EDGE ( 'NONE', *, *, #212, .T. ) ;
#411 = CARTESIAN_POINT ( 'NONE',  ( 0.000000000000000000, 0.000000000000000000, 8.000000000000000000 ) ) ;
#412 = ADVANCED_FACE ( 'NONE', ( #460, #215 ), #316, .T. ) ;
#413 = LINE ( 'NONE', #202, #21 ) ;
#414 = ORIENTED_EDGE ( 'NONE', *, *, #79, .F. ) ;
#415 = AXIS2_PLACEMENT_3D ( 'NONE', #32, #288, #103 ) ;
#416 = DIRECTION ( 'NONE',  ( 0.000000000000000000, 0.000000000000000000, 1.000000000000000000 ) ) ;
#417 = APPROVAL_PERSON_ORGANIZATION ( #50, #54, #167 ) ;
#418 = EDGE_LOOP ( 'NONE', ( #244, #438, #75, #356 ) ) ;
#419 = ADVANCED_FACE ( 'NONE', ( #251 ), #394, .T. ) ;
#420 = LINE ( 'NONE', #204, #388 ) ;
#421 = ORIENTED_EDGE ( 'NONE', *, *, #104, .T. ) ;
#422 = EDGE_CURVE ( 'NONE', #323, #191, #231, .T. ) ;
#423 = LINE ( 'NONE', #108, #319 ) ;
#424 = ORIENTED_EDGE ( 'NONE', *, *, #277, .T. ) ;
#425 = AXIS2_PLACEMENT_3D ( 'NONE', #321, #70, #146 ) ;
#426 = ORIENTED_EDGE ( 'NONE', *, *, #220, .F. ) ;
#427 = ORIENTED_EDGE ( 'NONE', *, *, #112, .T. ) ;
#428 = DIRECTION ( 'NONE',  ( 0.000000000000000000, -0.000000000000000000, -1.000000000000000000 ) ) ;
#429 = ORIENTED_EDGE ( 'NONE', *, *, #337, .T. ) ;
#430 = VERTEX_POINT ( 'NONE', #43 ) ;
#431 = CARTESIAN_POINT ( 'NONE',  ( 0.000000000000000000, 0.000000000000000000, 8.000000000000000000 ) ) ;
#432 = ORIENTED_EDGE ( 'NONE', *, *, #250, .F. ) ;
#433 = CC_DESIGN_PERSON_AND_ORGANIZATION_ASSIGNMENT ( #290, #437, ( #389 ) ) ;
#434 = LINE ( 'NONE', #211, #128 ) ;
#435 = AXIS2_PLACEMENT_3D ( 'NONE', #269, #416, #306 ) ;
#436 = CARTESIAN_POINT ( 'NONE',  ( -0.7216878364870326079, 1.250000000000000888, -1.700000000000000178 ) ) ;
#437 = PERSON_AND_ORGANIZATION_ROLE ( 'design_supplier' ) ;
#438 = ORIENTED_EDGE ( 'NONE', *, *, #254, .T. ) ;
#439 = COORDINATED_UNIVERSAL_TIME_OFFSET ( 9, 0, .AHEAD. ) ;
#440 = UNCERTAINTY_MEASURE_WITH_UNIT (LENGTH_MEASURE( 1.000000000000000082E-05 ), #78, 'distance_accuracy_value', 'NONE');
#441 = PLANE ( 'NONE',  #203 ) ;
#442 = VECTOR ( 'NONE', #363, 1000.000000000000114 ) ;
#443 = LINE ( 'NONE', #125, #372 ) ;
#444 = DIRECTION ( 'NONE',  ( -0.000000000000000000, 0.000000000000000000, 1.000000000000000000 ) ) ;
#445 = DIRECTION ( 'NONE',  ( -0.000000000000000000, -0.000000000000000000, -1.000000000000000000 ) ) ;
#446 = CARTESIAN_POINT ( 'NONE',  ( 0.000000000000000000, 0.000000000000000000, 0.000000000000000000 ) ) ;
#447 = VECTOR ( 'NONE', #153, 1000.000000000000227 ) ;
#448 = LOCAL_TIME ( 23, 16, 36.00000000000000000, #308 ) ;
#449 = DIRECTION ( 'NONE',  ( -0.5000000000000001110, -0.8660254037844384856, 0.000000000000000000 ) ) ;
#450 = ORIENTED_EDGE ( 'NONE', *, *, #277, .F. ) ;
#451 = CARTESIAN_POINT ( 'NONE',  ( 0.7216878364870330520, 1.250000000000000666, -1.700000000000000178 ) ) ;
#452 = EDGE_LOOP ( 'NONE', ( #328, #129, #426, #410 ) ) ;
#453 = PERSON ( 'UNSPECIFIED', 'UNSPECIFIED', 'UNSPECIFIED', ('UNSPECIFIED'), ('UNSPECIFIED'), ('UNSPECIFIED') ) ;
#454 = ORIENTED_EDGE ( 'NONE', *, *, #27, .F. ) ;
#455 = CARTESIAN_POINT ( 'NONE',  ( 0.7216878364870330520, 1.250000000000000666, -1.700000000000000178 ) ) ;
#456 = VERTEX_POINT ( 'NONE', #45 ) ;
#457 = CARTESIAN_POINT ( 'NONE',  ( 0.000000000000000000, 0.000000000000000000, 8.000000000000000000 ) ) ;
#458 = ORIENTED_EDGE ( 'NONE', *, *, #73, .F. ) ;
#459 = PLANE ( 'NONE',  #298 ) ;
#460 = FACE_BOUND ( 'NONE', #270, .T. ) ;
#461 = CARTESIAN_POINT ( 'NONE',  ( 0.7216878364870323859, -1.250000000000000888, -1.700000000000000178 ) ) ;
#462 = VECTOR ( 'NONE', #449, 1000.000000000000227 ) ;
#463 = EDGE_LOOP ( 'NONE', ( #24, #107 ) ) ;
ENDSEC;
END-ISO-10303-21;
