ISO-10303-21;
HEADER;
FILE_DESCRIPTION (( 'STEP AP203' ),
    '1' );
FILE_NAME ('볼트 m4 10.STEP',
    '2024-09-26T14:16:07',
    ( '' ),
    ( '' ),
    'SwSTEP 2.0',
    'SolidWorks 2022',
    '' );
FILE_SCHEMA (( 'CONFIG_CONTROL_DESIGN' ));
ENDSEC;

DATA;
#1 = ORIENTED_EDGE ( 'NONE', *, *, #326, .F. ) ;
#2 = AXIS2_PLACEMENT_3D ( 'NONE', #53, #165, #339 ) ;
#3 = CARTESIAN_POINT ( 'NONE',  ( 0.2636203888847722387, -1.711871575371314957, -2.000000000000000000 ) ) ;
#4 = ORIENTED_EDGE ( 'NONE', *, *, #452, .T. ) ;
#5 = DIRECTION ( 'NONE',  ( 1.000000000000000000, 0.000000000000000000, 0.000000000000000000 ) ) ;
#6 = EDGE_CURVE ( 'NONE', #331, #106, #301, .T. ) ;
#7 = ORIENTED_EDGE ( 'NONE', *, *, #416, .T. ) ;
#8 = DIRECTION ( 'NONE',  ( 0.1522013024864961872, -0.9883495148586931567, 0.000000000000000000 ) ) ;
#9 = ADVANCED_FACE ( 'NONE', ( #360 ), #180, .F. ) ;
#10 = CARTESIAN_POINT ( 'NONE',  ( 2.000000000000000000, 2.449293598294706414E-16, 10.00000000000000000 ) ) ;
#11 = DIRECTION ( 'NONE',  ( 0.000000000000000000, 0.000000000000000000, 1.000000000000000000 ) ) ;
#12 = VECTOR ( 'NONE', #173, 1000.000000000000000 ) ;
#13 = EDGE_LOOP ( 'NONE', ( #365, #81, #113, #46 ) ) ;
#14 = FACE_OUTER_BOUND ( 'NONE', #283, .T. ) ;
#15 = EDGE_LOOP ( 'NONE', ( #1, #209 ) ) ;
#16 = PERSON_AND_ORGANIZATION ( #210, #197 ) ;
#17 = DIRECTION ( 'NONE',  ( -0.000000000000000000, 0.000000000000000000, 1.000000000000000000 ) ) ;
#18 = CARTESIAN_POINT ( 'NONE',  ( 1.614334466730431794, -0.6276338339559117685, -2.000000000000000000 ) ) ;
#19 = DATE_AND_TIME ( #344, #248 ) ;
#20 = DIRECTION ( 'NONE',  ( 0.000000000000000000, 0.000000000000000000, 1.000000000000000000 ) ) ;
#21 = CARTESIAN_POINT ( 'NONE',  ( 0.000000000000000000, 0.000000000000000000, 0.000000000000000000 ) ) ;
#22 = DIRECTION ( 'NONE',  ( 0.7798351364424053189, 0.6259849518717323091, 0.000000000000000000 ) ) ;
#23 = DIRECTION ( 'NONE',  ( -0.000000000000000000, 0.000000000000000000, 1.000000000000000000 ) ) ;
#24 = DATE_AND_TIME ( #235, #297 ) ;
#25 = COORDINATED_UNIVERSAL_TIME_OFFSET ( 9, 0, .AHEAD. ) ;
#26 = VECTOR ( 'NONE', #378, 1000.000000000000000 ) ;
#27 = ORIENTED_EDGE ( 'NONE', *, *, #383, .F. ) ;
#28 = CARTESIAN_POINT ( 'NONE',  ( -1.614334466730431794, 0.6276338339559117685, -2.000000000000000000 ) ) ;
#29 = CARTESIAN_POINT ( 'NONE',  ( 1.350714077845660110, 1.084237741415403189, -2.000000000000000000 ) ) ;
#30 = AXIS2_PLACEMENT_3D ( 'NONE', #45, #123, #194 ) ;
#31 = APPROVAL_PERSON_ORGANIZATION ( #451, #245, #128 ) ;
#32 = DIRECTION ( 'NONE',  ( 0.000000000000000000, 0.000000000000000000, -1.000000000000000000 ) ) ;
#33 = EDGE_CURVE ( 'NONE', #387, #296, #253, .T. ) ;
#34 = ORIENTED_EDGE ( 'NONE', *, *, #92, .T. ) ;
#35 = CARTESIAN_POINT ( 'NONE',  ( 3.000000000000000444, 0.000000000000000000, -4.000000000000000000 ) ) ;
#36 = DIRECTION ( 'NONE',  ( 0.000000000000000000, 0.000000000000000000, 1.000000000000000000 ) ) ;
#37 = ORIENTED_EDGE ( 'NONE', *, *, #256, .F. ) ;
#38 = LINE ( 'NONE', #323, #202 ) ;
#39 = VERTEX_POINT ( 'NONE', #133 ) ;
#40 = EDGE_CURVE ( 'NONE', #39, #120, #420, .T. ) ;
#41 = DIRECTION ( 'NONE',  ( -0.1522013024864962705, 0.9883495148586930457, 0.000000000000000000 ) ) ;
#42 = EDGE_CURVE ( 'NONE', #226, #331, #347, .T. ) ;
#43 = UNCERTAINTY_MEASURE_WITH_UNIT (LENGTH_MEASURE( 1.000000000000000082E-05 ), #160, 'distance_accuracy_value', 'NONE');
#44 = EDGE_LOOP ( 'NONE', ( #395, #122, #242, #223 ) ) ;
#45 = CARTESIAN_POINT ( 'NONE',  ( 0.000000000000000000, 0.000000000000000000, 10.00000000000000000 ) ) ;
#46 = ORIENTED_EDGE ( 'NONE', *, *, #40, .F. ) ;
#47 = CARTESIAN_POINT ( 'NONE',  ( -0.2636203888847726828, 1.711871575371314513, -2.000000000000000000 ) ) ;
#48 = VECTOR ( 'NONE', #336, 1000.000000000000000 ) ;
#49 = CC_DESIGN_PERSON_AND_ORGANIZATION_ASSIGNMENT ( #99, #166, ( #169 ) ) ;
#50 = ORIENTED_EDGE ( 'NONE', *, *, #328, .F. ) ;
#51 = APPROVAL_STATUS ( 'not_yet_approved' ) ;
#52 = CARTESIAN_POINT ( 'NONE',  ( 1.350714077845660110, 1.084237741415403189, -2.000000000000000000 ) ) ;
#53 = CARTESIAN_POINT ( 'NONE',  ( -1.614334466730431794, 0.6276338339559117685, -2.000000000000000000 ) ) ;
#54 = DIRECTION ( 'NONE',  ( -0.9320364389289020890, 0.3623645629869608475, 0.000000000000000000 ) ) ;
#55 = CYLINDRICAL_SURFACE ( 'NONE', #446, 2.000000000000000000 ) ;
#56 = AXIS2_PLACEMENT_3D ( 'NONE', #399, #284, #220 ) ;
#57 = LOCAL_TIME ( 23, 16, 7.000000000000000000, #25 ) ;
#58 = DIRECTION ( 'NONE',  ( 0.000000000000000000, 0.000000000000000000, 1.000000000000000000 ) ) ;
#59 = APPROVAL_DATE_TIME ( #167, #62 ) ;
#60 = ADVANCED_FACE ( 'NONE', ( #172, #94 ), #240, .T. ) ;
#61 = MECHANICAL_CONTEXT ( 'NONE', #351, 'mechanical' ) ;
#62 = APPROVAL ( #381, 'UNSPECIFIED' ) ;
#63 = ADVANCED_FACE ( 'NONE', ( #233 ), #198, .T. ) ;
#64 = DIRECTION ( 'NONE',  ( 1.000000000000000000, 0.000000000000000000, 0.000000000000000000 ) ) ;
#65 = ORIENTED_EDGE ( 'NONE', *, *, #292, .F. ) ;
#66 = LINE ( 'NONE', #372, #208 ) ;
#67 = ORIENTED_EDGE ( 'NONE', *, *, #326, .T. ) ;
#68 = CC_DESIGN_DATE_AND_TIME_ASSIGNMENT ( #19, #156, ( #355 ) ) ;
#69 = LINE ( 'NONE', #148, #353 ) ;
#70 = VERTEX_POINT ( 'NONE', #195 ) ;
#71 = CIRCLE ( 'NONE', #190, 3.000000000000000444 ) ;
#72 = CARTESIAN_POINT ( 'NONE',  ( 1.614334466730431794, -0.6276338339559117685, -4.000000000000000000 ) ) ;
#73 = EDGE_CURVE ( 'NONE', #226, #409, #127, .T. ) ;
#74 = ORIENTED_EDGE ( 'NONE', *, *, #256, .T. ) ;
#75 = CARTESIAN_POINT ( 'NONE',  ( 0.000000000000000000, 0.000000000000000000, 0.000000000000000000 ) ) ;
#76 = VERTEX_POINT ( 'NONE', #343 ) ;
#77 = CARTESIAN_POINT ( 'NONE',  ( 2.000000000000000000, 2.449293598294706414E-16, 10.00000000000000000 ) ) ;
#78 = ORIENTED_EDGE ( 'NONE', *, *, #442, .T. ) ;
#79 = APPROVAL ( #51, 'UNSPECIFIED' ) ;
#80 = CARTESIAN_POINT ( 'NONE',  ( 0.2636203888847722387, -1.711871575371314957, -2.000000000000000000 ) ) ;
#81 = ORIENTED_EDGE ( 'NONE', *, *, #276, .T. ) ;
#82 = APPLICATION_CONTEXT ( 'configuration controlled 3d designs of mechanical parts and assemblies' ) ;
#83 = DESIGN_CONTEXT ( 'detailed design', #82, 'design' ) ;
#84 = ORIENTED_EDGE ( 'NONE', *, *, #73, .F. ) ;
#85 = DIRECTION ( 'NONE',  ( 0.6259849518717323091, -0.7798351364424053189, 0.000000000000000000 ) ) ;
#86 = ORIENTED_EDGE ( 'NONE', *, *, #42, .T. ) ;
#87 = VECTOR ( 'NONE', #140, 1000.000000000000114 ) ;
#88 = VECTOR ( 'NONE', #418, 1000.000000000000000 ) ;
#89 = ORIENTED_EDGE ( 'NONE', *, *, #377, .F. ) ;
#90 = SHAPE_DEFINITION_REPRESENTATION ( #291, #400 ) ;
#91 = DIRECTION ( 'NONE',  ( -1.000000000000000000, 0.000000000000000000, 0.000000000000000000 ) ) ;
#92 = EDGE_CURVE ( 'NONE', #106, #409, #137, .T. ) ;
#93 = PLANE ( 'NONE',  #234 ) ;
#94 = FACE_OUTER_BOUND ( 'NONE', #155, .T. ) ;
#95 = CC_DESIGN_PERSON_AND_ORGANIZATION_ASSIGNMENT ( #132, #273, ( #169 ) ) ;
#96 = PERSON_AND_ORGANIZATION ( #210, #197 ) ;
#97 = AXIS2_PLACEMENT_3D ( 'NONE', #288, #207, #394 ) ;
#98 = APPROVAL_PERSON_ORGANIZATION ( #96, #62, #382 ) ;
#99 = PERSON_AND_ORGANIZATION ( #210, #197 ) ;
#100 = DIRECTION ( 'NONE',  ( -0.000000000000000000, 0.000000000000000000, 1.000000000000000000 ) ) ;
#101 = AXIS2_PLACEMENT_3D ( 'NONE', #267, #216, #461 ) ;
#102 = CC_DESIGN_APPROVAL ( #62, ( #169 ) ) ;
#103 = ORIENTED_EDGE ( 'NONE', *, *, #92, .F. ) ;
#104 = DIRECTION ( 'NONE',  ( 0.7798351364424053189, 0.6259849518717321981, 0.000000000000000000 ) ) ;
#105 = DIRECTION ( 'NONE',  ( -0.000000000000000000, -0.000000000000000000, -1.000000000000000000 ) ) ;
#106 = VERTEX_POINT ( 'NONE', #386 ) ;
#107 = FACE_OUTER_BOUND ( 'NONE', #356, .T. ) ;
#108 = ORIENTED_EDGE ( 'NONE', *, *, #292, .T. ) ;
#109 = AXIS2_PLACEMENT_3D ( 'NONE', #423, #58, #193 ) ;
#110 = DIRECTION ( 'NONE',  ( 0.000000000000000000, 0.000000000000000000, 1.000000000000000000 ) ) ;
#111 = ORIENTED_EDGE ( 'NONE', *, *, #366, .T. ) ;
#112 = LINE ( 'NONE', #246, #168 ) ;
#113 = ORIENTED_EDGE ( 'NONE', *, *, #274, .T. ) ;
#114 = CYLINDRICAL_SURFACE ( 'NONE', #362, 3.000000000000000444 ) ;
#115 = ORIENTED_EDGE ( 'NONE', *, *, #134, .T. ) ;
#116 = VECTOR ( 'NONE', #105, 1000.000000000000000 ) ;
#117 = DIRECTION ( 'NONE',  ( 1.000000000000000000, 0.000000000000000000, -0.000000000000000000 ) ) ;
#118 = EDGE_LOOP ( 'NONE', ( #86, #115 ) ) ;
#119 = FACE_OUTER_BOUND ( 'NONE', #15, .T. ) ;
#120 = VERTEX_POINT ( 'NONE', #428 ) ;
#121 = LINE ( 'NONE', #154, #227 ) ;
#122 = ORIENTED_EDGE ( 'NONE', *, *, #452, .F. ) ;
#123 = DIRECTION ( 'NONE',  ( -0.000000000000000000, 0.000000000000000000, 1.000000000000000000 ) ) ;
#124 = CARTESIAN_POINT ( 'NONE',  ( 0.000000000000000000, 0.000000000000000000, 10.00000000000000000 ) ) ;
#125 = FACE_BOUND ( 'NONE', #251, .T. ) ;
#126 = CC_DESIGN_PERSON_AND_ORGANIZATION_ASSIGNMENT ( #453, #262, ( #355 ) ) ;
#127 = LINE ( 'NONE', #340, #88 ) ;
#128 = APPROVAL_ROLE ( '' ) ;
#129 = DATE_TIME_ROLE ( 'creation_date' ) ;
#130 = VECTOR ( 'NONE', #164, 1000.000000000000114 ) ;
#131 = EDGE_CURVE ( 'NONE', #444, #407, #307, .T. ) ;
#132 = PERSON_AND_ORGANIZATION ( #210, #197 ) ;
#133 = CARTESIAN_POINT ( 'NONE',  ( -3.000000000000000444, 3.673940397442060361E-16, 0.000000000000000000 ) ) ;
#134 = EDGE_CURVE ( 'NONE', #331, #226, #393, .T. ) ;
#135 = VERTEX_POINT ( 'NONE', #136 ) ;
#136 = CARTESIAN_POINT ( 'NONE',  ( 0.2636203888847722387, -1.711871575371314957, -4.000000000000000000 ) ) ;
#137 = CIRCLE ( 'NONE', #403, 2.000000000000000000 ) ;
#138 = AXIS2_PLACEMENT_3D ( 'NONE', #230, #20, #346 ) ;
#139 = ORIENTED_EDGE ( 'NONE', *, *, #188, .F. ) ;
#140 = DIRECTION ( 'NONE',  ( -0.7798351364424053189, -0.6259849518717321981, 0.000000000000000000 ) ) ;
#141 = ADVANCED_FACE ( 'NONE', ( #170 ), #203, .F. ) ;
#142 = DIRECTION ( 'NONE',  ( -0.000000000000000000, -0.000000000000000000, -1.000000000000000000 ) ) ;
#143 = EDGE_LOOP ( 'NONE', ( #259, #325, #27, #214 ) ) ;
#144 = FACE_OUTER_BOUND ( 'NONE', #255, .T. ) ;
#145 = CLOSED_SHELL ( 'NONE', ( #408, #341, #309, #427, #60, #63, #405, #9, #390, #257, #141, #455, #388, #370 ) ) ;
#146 = VERTEX_POINT ( 'NONE', #28 ) ;
#147 = CC_DESIGN_APPROVAL ( #79, ( #355 ) ) ;
#148 = CARTESIAN_POINT ( 'NONE',  ( 1.614334466730431794, -0.6276338339559117685, -2.000000000000000000 ) ) ;
#149 = ORIENTED_EDGE ( 'NONE', *, *, #42, .F. ) ;
#150 = FACE_OUTER_BOUND ( 'NONE', #335, .T. ) ;
#151 = EDGE_LOOP ( 'NONE', ( #186, #139, #89, #367 ) ) ;
#152 = FACE_OUTER_BOUND ( 'NONE', #151, .T. ) ;
#153 = CARTESIAN_POINT ( 'NONE',  ( 0.2636203888847722387, -1.711871575371314957, -2.000000000000000000 ) ) ;
#154 = CARTESIAN_POINT ( 'NONE',  ( 1.350714077845660110, 1.084237741415403189, -4.000000000000000000 ) ) ;
#155 = EDGE_LOOP ( 'NONE', ( #299, #462 ) ) ;
#156 = DATE_TIME_ROLE ( 'classification_date' ) ;
#157 = EDGE_CURVE ( 'NONE', #407, #401, #278, .T. ) ;
#158 = CARTESIAN_POINT ( 'NONE',  ( 1.614334466730431794, -0.6276338339559117685, -2.000000000000000000 ) ) ;
#159 = ORIENTED_EDGE ( 'NONE', *, *, #134, .F. ) ;
#160 =( LENGTH_UNIT ( ) NAMED_UNIT ( * ) SI_UNIT ( .MILLI., .METRE. ) );
#161 = FACE_OUTER_BOUND ( 'NONE', #143, .T. ) ;
#162 = CIRCLE ( 'NONE', #56, 3.000000000000000444 ) ;
#163 = PLANE ( 'NONE',  #30 ) ;
#164 = DIRECTION ( 'NONE',  ( 0.7798351364424053189, 0.6259849518717321981, 0.000000000000000000 ) ) ;
#165 = DIRECTION ( 'NONE',  ( -0.6259849518717323091, 0.7798351364424053189, 0.000000000000000000 ) ) ;
#166 = PERSON_AND_ORGANIZATION_ROLE ( 'design_supplier' ) ;
#167 = DATE_AND_TIME ( #272, #57 ) ;
#168 = VECTOR ( 'NONE', #252, 1000.000000000000114 ) ;
#169 = PRODUCT_DEFINITION_FORMATION_WITH_SPECIFIED_SOURCE ( 'ANY', '', #249, .NOT_KNOWN. ) ;
#170 = FACE_OUTER_BOUND ( 'NONE', #293, .T. ) ;
#171 = VERTEX_POINT ( 'NONE', #426 ) ;
#172 = FACE_BOUND ( 'NONE', #277, .T. ) ;
#173 = DIRECTION ( 'NONE',  ( -0.000000000000000000, -0.000000000000000000, -1.000000000000000000 ) ) ;
#174 = VECTOR ( 'NONE', #41, 1000.000000000000227 ) ;
#175 = ORIENTED_EDGE ( 'NONE', *, *, #281, .T. ) ;
#176 = CARTESIAN_POINT ( 'NONE',  ( -1.350714077845659888, -1.084237741415403411, -2.000000000000000000 ) ) ;
#177 = DIRECTION ( 'NONE',  ( 1.000000000000000000, 0.000000000000000000, 0.000000000000000000 ) ) ;
#178 = CYLINDRICAL_SURFACE ( 'NONE', #454, 3.000000000000000444 ) ;
#179 = VECTOR ( 'NONE', #104, 1000.000000000000114 ) ;
#180 = PLANE ( 'NONE',  #425 ) ;
#181 = CC_DESIGN_SECURITY_CLASSIFICATION ( #355, ( #169 ) ) ;
#182 = FACE_OUTER_BOUND ( 'NONE', #13, .T. ) ;
#183 = ORIENTED_EDGE ( 'NONE', *, *, #383, .T. ) ;
#184 = CARTESIAN_POINT ( 'NONE',  ( -1.350714077845659888, -1.084237741415403411, -4.000000000000000000 ) ) ;
#185 = EDGE_CURVE ( 'NONE', #146, #171, #243, .T. ) ;
#186 = ORIENTED_EDGE ( 'NONE', *, *, #328, .T. ) ;
#187 = FACE_OUTER_BOUND ( 'NONE', #118, .T. ) ;
#188 = EDGE_CURVE ( 'NONE', #146, #444, #66, .T. ) ;
#189 = ORIENTED_EDGE ( 'NONE', *, *, #310, .T. ) ;
#190 = AXIS2_PLACEMENT_3D ( 'NONE', #75, #391, #177 ) ;
#191 = ORIENTED_EDGE ( 'NONE', *, *, #157, .T. ) ;
#192 = CARTESIAN_POINT ( 'NONE',  ( 0.000000000000000000, 0.000000000000000000, -4.000000000000000000 ) ) ;
#193 = DIRECTION ( 'NONE',  ( 1.000000000000000000, 0.000000000000000000, -0.000000000000000000 ) ) ;
#194 = DIRECTION ( 'NONE',  ( 1.000000000000000000, 0.000000000000000000, 0.000000000000000000 ) ) ;
#195 = CARTESIAN_POINT ( 'NONE',  ( 3.000000000000000444, 0.000000000000000000, -4.000000000000000000 ) ) ;
#196 = CARTESIAN_POINT ( 'NONE',  ( -1.614334466730431794, 0.6276338339559117685, -4.000000000000000000 ) ) ;
#197 = ORGANIZATION ( 'UNSPECIFIED', 'UNSPECIFIED', '' ) ;
#198 = CYLINDRICAL_SURFACE ( 'NONE', #265, 2.000000000000000000 ) ;
#199 = COORDINATED_UNIVERSAL_TIME_OFFSET ( 9, 0, .AHEAD. ) ;
#200 = APPLICATION_PROTOCOL_DEFINITION ( 'international standard', 'config_control_design', 1994, #82 ) ;
#201 = APPROVAL_STATUS ( 'not_yet_approved' ) ;
#202 = VECTOR ( 'NONE', #327, 1000.000000000000114 ) ;
#203 = PLANE ( 'NONE',  #303 ) ;
#204 = VERTEX_POINT ( 'NONE', #52 ) ;
#205 = DIRECTION ( 'NONE',  ( -0.000000000000000000, -0.000000000000000000, -1.000000000000000000 ) ) ;
#206 = ORIENTED_EDGE ( 'NONE', *, *, #212, .F. ) ;
#207 = DIRECTION ( 'NONE',  ( 0.000000000000000000, 0.000000000000000000, 1.000000000000000000 ) ) ;
#208 = VECTOR ( 'NONE', #205, 1000.000000000000000 ) ;
#209 = ORIENTED_EDGE ( 'NONE', *, *, #276, .F. ) ;
#210 = PERSON ( 'UNSPECIFIED', 'UNSPECIFIED', 'UNSPECIFIED', ('UNSPECIFIED'), ('UNSPECIFIED'), ('UNSPECIFIED') ) ;
#211 = DIRECTION ( 'NONE',  ( -1.000000000000000000, 0.000000000000000000, -0.000000000000000000 ) ) ;
#212 = EDGE_CURVE ( 'NONE', #204, #401, #337, .T. ) ;
#213 = MANIFOLD_SOLID_BREP ( '컷-돌출1', #145 ) ;
#214 = ORIENTED_EDGE ( 'NONE', *, *, #212, .T. ) ;
#215 = DIRECTION ( 'NONE',  ( 0.000000000000000000, 0.000000000000000000, 1.000000000000000000 ) ) ;
#216 = DIRECTION ( 'NONE',  ( 0.9883495148586931567, 0.1522013024864961872, -0.000000000000000000 ) ) ;
#217 = VECTOR ( 'NONE', #250, 1000.000000000000227 ) ;
#218 = VERTEX_POINT ( 'NONE', #18 ) ;
#219 = LOCAL_TIME ( 23, 16, 7.000000000000000000, #375 ) ;
#220 = DIRECTION ( 'NONE',  ( 1.000000000000000000, 0.000000000000000000, 0.000000000000000000 ) ) ;
#221 = ORIENTED_EDGE ( 'NONE', *, *, #306, .F. ) ;
#222 = APPLICATION_PROTOCOL_DEFINITION ( 'international standard', 'config_control_design', 1994, #351 ) ;
#223 = ORIENTED_EDGE ( 'NONE', *, *, #188, .T. ) ;
#224 = CALENDAR_DATE ( 2024, 26, 9 ) ;
#225 = LINE ( 'NONE', #406, #247 ) ;
#226 = VERTEX_POINT ( 'NONE', #317 ) ;
#227 = VECTOR ( 'NONE', #417, 1000.000000000000000 ) ;
#228 = CARTESIAN_POINT ( 'NONE',  ( 0.000000000000000000, 0.000000000000000000, 0.000000000000000000 ) ) ;
#229 = CARTESIAN_POINT ( 'NONE',  ( -0.2636203888847726828, 1.711871575371314513, -2.000000000000000000 ) ) ;
#230 = CARTESIAN_POINT ( 'NONE',  ( 0.000000000000000000, 0.000000000000000000, 0.000000000000000000 ) ) ;
#231 = LINE ( 'NONE', #460, #87 ) ;
#232 = DIRECTION ( 'NONE',  ( 1.000000000000000000, 0.000000000000000000, 0.000000000000000000 ) ) ;
#233 = FACE_OUTER_BOUND ( 'NONE', #424, .T. ) ;
#234 = AXIS2_PLACEMENT_3D ( 'NONE', #158, #85, #22 ) ;
#235 = CALENDAR_DATE ( 2024, 26, 9 ) ;
#236 =( GEOMETRIC_REPRESENTATION_CONTEXT ( 3 ) GLOBAL_UNCERTAINTY_ASSIGNED_CONTEXT ( ( #43 ) ) GLOBAL_UNIT_ASSIGNED_CONTEXT ( ( #160, #410, #368 ) ) REPRESENTATION_CONTEXT ( 'NONE', 'WORKASPACE' ) );
#237 = COORDINATED_UNIVERSAL_TIME_OFFSET ( 9, 0, .AHEAD. ) ;
#238 = APPROVAL_DATE_TIME ( #270, #245 ) ;
#239 = AXIS2_PLACEMENT_3D ( 'NONE', #456, #350, #379 ) ;
#240 = PLANE ( 'NONE',  #109 ) ;
#241 = CC_DESIGN_DATE_AND_TIME_ASSIGNMENT ( #24, #129, ( #318 ) ) ;
#242 = ORIENTED_EDGE ( 'NONE', *, *, #185, .F. ) ;
#243 = LINE ( 'NONE', #389, #179 ) ;
#244 = CARTESIAN_POINT ( 'NONE',  ( 0.000000000000000000, 0.000000000000000000, -4.000000000000000000 ) ) ;
#245 = APPROVAL ( #201, 'UNSPECIFIED' ) ;
#246 = CARTESIAN_POINT ( 'NONE',  ( 1.614334466730431794, -0.6276338339559117685, -4.000000000000000000 ) ) ;
#247 = VECTOR ( 'NONE', #266, 1000.000000000000114 ) ;
#248 = LOCAL_TIME ( 23, 16, 7.000000000000000000, #199 ) ;
#249 = PRODUCT ( '볼트 m4 10', '볼트 m4 10', '', ( #61 ) ) ;
#250 = DIRECTION ( 'NONE',  ( -0.1522013024864962705, 0.9883495148586930457, 0.000000000000000000 ) ) ;
#251 = EDGE_LOOP ( 'NONE', ( #50, #261, #65, #287, #392, #352 ) ) ;
#252 = DIRECTION ( 'NONE',  ( -0.7798351364424053189, -0.6259849518717321981, 0.000000000000000000 ) ) ;
#253 = LINE ( 'NONE', #363, #285 ) ;
#254 = CARTESIAN_POINT ( 'NONE',  ( -3.000000000000000444, 3.673940397442060361E-16, -4.000000000000000000 ) ) ;
#255 = EDGE_LOOP ( 'NONE', ( #108, #445, #37, #189 ) ) ;
#256 = EDGE_CURVE ( 'NONE', #218, #387, #231, .T. ) ;
#257 = ADVANCED_FACE ( 'NONE', ( #161 ), #448, .F. ) ;
#258 = CARTESIAN_POINT ( 'NONE',  ( -0.2636203888847726828, 1.711871575371314513, -4.000000000000000000 ) ) ;
#259 = ORIENTED_EDGE ( 'NONE', *, *, #447, .T. ) ;
#260 = CARTESIAN_POINT ( 'NONE',  ( -2.000000000000000000, 0.000000000000000000, 0.000000000000000000 ) ) ;
#261 = ORIENTED_EDGE ( 'NONE', *, *, #281, .F. ) ;
#262 = PERSON_AND_ORGANIZATION_ROLE ( 'classification_officer' ) ;
#263 = LINE ( 'NONE', #47, #26 ) ;
#264 = DIRECTION ( 'NONE',  ( -0.000000000000000000, -0.000000000000000000, -1.000000000000000000 ) ) ;
#265 = AXIS2_PLACEMENT_3D ( 'NONE', #315, #280, #91 ) ;
#266 = DIRECTION ( 'NONE',  ( 0.9320364389289020890, -0.3623645629869607365, 0.000000000000000000 ) ) ;
#267 = CARTESIAN_POINT ( 'NONE',  ( 1.350714077845660110, 1.084237741415403189, -2.000000000000000000 ) ) ;
#268 = CARTESIAN_POINT ( 'NONE',  ( -1.350714077845659888, -1.084237741415403411, -2.000000000000000000 ) ) ;
#269 = CARTESIAN_POINT ( 'NONE',  ( 0.000000000000000000, 0.000000000000000000, 10.00000000000000000 ) ) ;
#270 = DATE_AND_TIME ( #308, #348 ) ;
#271 = CIRCLE ( 'NONE', #97, 3.000000000000000444 ) ;
#272 = CALENDAR_DATE ( 2024, 26, 9 ) ;
#273 = PERSON_AND_ORGANIZATION_ROLE ( 'creator' ) ;
#274 = EDGE_CURVE ( 'NONE', #70, #120, #434, .T. ) ;
#275 = DIRECTION ( 'NONE',  ( 1.000000000000000000, 0.000000000000000000, 0.000000000000000000 ) ) ;
#276 = EDGE_CURVE ( 'NONE', #76, #70, #271, .T. ) ;
#277 = EDGE_LOOP ( 'NONE', ( #319, #103 ) ) ;
#278 = LINE ( 'NONE', #302, #411 ) ;
#279 = VERTEX_POINT ( 'NONE', #72 ) ;
#280 = DIRECTION ( 'NONE',  ( -0.000000000000000000, -0.000000000000000000, -1.000000000000000000 ) ) ;
#281 = EDGE_CURVE ( 'NONE', #135, #289, #38, .T. ) ;
#282 = CARTESIAN_POINT ( 'NONE',  ( 0.000000000000000000, 0.000000000000000000, -4.000000000000000000 ) ) ;
#283 = EDGE_LOOP ( 'NONE', ( #159, #358, #34, #84 ) ) ;
#284 = DIRECTION ( 'NONE',  ( 0.000000000000000000, 0.000000000000000000, 1.000000000000000000 ) ) ;
#285 = VECTOR ( 'NONE', #54, 1000.000000000000114 ) ;
#286 = AXIS2_PLACEMENT_3D ( 'NONE', #269, #374, #275 ) ;
#287 = ORIENTED_EDGE ( 'NONE', *, *, #447, .F. ) ;
#288 = CARTESIAN_POINT ( 'NONE',  ( 0.000000000000000000, 0.000000000000000000, -4.000000000000000000 ) ) ;
#289 = VERTEX_POINT ( 'NONE', #432 ) ;
#290 = PLANE ( 'NONE',  #380 ) ;
#291 = PRODUCT_DEFINITION_SHAPE ( 'NONE', 'NONE',  #318 ) ;
#292 = EDGE_CURVE ( 'NONE', #279, #135, #112, .T. ) ;
#293 = EDGE_LOOP ( 'NONE', ( #191, #206, #371, #4 ) ) ;
#294 = PLANE ( 'NONE',  #440 ) ;
#295 = VECTOR ( 'NONE', #8, 1000.000000000000000 ) ;
#296 = VERTEX_POINT ( 'NONE', #430 ) ;
#297 = LOCAL_TIME ( 23, 16, 7.000000000000000000, #237 ) ;
#298 = PLANE ( 'NONE',  #2 ) ;
#299 = ORIENTED_EDGE ( 'NONE', *, *, #306, .T. ) ;
#300 = DIRECTION ( 'NONE',  ( -1.000000000000000000, 0.000000000000000000, 0.000000000000000000 ) ) ;
#301 = LINE ( 'NONE', #10, #384 ) ;
#302 = CARTESIAN_POINT ( 'NONE',  ( -0.2636203888847726828, 1.711871575371314513, -4.000000000000000000 ) ) ;
#303 = AXIS2_PLACEMENT_3D ( 'NONE', #229, #349, #314 ) ;
#304 = DATE_AND_TIME ( #224, #219 ) ;
#305 = CARTESIAN_POINT ( 'NONE',  ( 0.000000000000000000, 0.000000000000000000, 10.00000000000000000 ) ) ;
#306 = EDGE_CURVE ( 'NONE', #120, #39, #71, .T. ) ;
#307 = LINE ( 'NONE', #457, #130 ) ;
#308 = CALENDAR_DATE ( 2024, 26, 9 ) ;
#309 = ADVANCED_FACE ( 'NONE', ( #182 ), #114, .T. ) ;
#310 = EDGE_CURVE ( 'NONE', #218, #279, #69, .T. ) ;
#311 = SECURITY_CLASSIFICATION_LEVEL ( 'unclassified' ) ;
#312 = CIRCLE ( 'NONE', #369, 2.000000000000000000 ) ;
#313 = PERSON_AND_ORGANIZATION ( #210, #197 ) ;
#314 = DIRECTION ( 'NONE',  ( -0.9320364389289020890, 0.3623645629869607365, 0.000000000000000000 ) ) ;
#315 = CARTESIAN_POINT ( 'NONE',  ( 0.000000000000000000, 0.000000000000000000, 10.00000000000000000 ) ) ;
#316 = VECTOR ( 'NONE', #36, 1000.000000000000000 ) ;
#317 = CARTESIAN_POINT ( 'NONE',  ( -2.000000000000000000, 0.000000000000000000, 10.00000000000000000 ) ) ;
#318 = PRODUCT_DEFINITION ( 'UNKNOWN', '', #169, #83 ) ;
#319 = ORIENTED_EDGE ( 'NONE', *, *, #442, .F. ) ;
#320 = DIRECTION ( 'NONE',  ( -0.9883495148586931567, -0.1522013024864962982, 0.000000000000000000 ) ) ;
#321 = ORIENTED_EDGE ( 'NONE', *, *, #185, .T. ) ;
#322 = LINE ( 'NONE', #330, #295 ) ;
#323 = CARTESIAN_POINT ( 'NONE',  ( 0.2636203888847722387, -1.711871575371314957, -4.000000000000000000 ) ) ;
#324 = AXIS2_PLACEMENT_3D ( 'NONE', #124, #23, #450 ) ;
#325 = ORIENTED_EDGE ( 'NONE', *, *, #310, .F. ) ;
#326 = EDGE_CURVE ( 'NONE', #70, #76, #162, .T. ) ;
#327 = DIRECTION ( 'NONE',  ( -0.9320364389289020890, 0.3623645629869608475, 0.000000000000000000 ) ) ;
#328 = EDGE_CURVE ( 'NONE', #289, #444, #364, .T. ) ;
#329 = EDGE_LOOP ( 'NONE', ( #175, #404, #458, #111 ) ) ;
#330 = CARTESIAN_POINT ( 'NONE',  ( 1.350714077845660110, 1.084237741415403189, -2.000000000000000000 ) ) ;
#331 = VERTEX_POINT ( 'NONE', #77 ) ;
#332 = DIRECTION ( 'NONE',  ( -0.000000000000000000, -0.000000000000000000, -1.000000000000000000 ) ) ;
#333 = ORIENTED_EDGE ( 'NONE', *, *, #33, .T. ) ;
#334 = APPROVAL_ROLE ( '' ) ;
#335 = EDGE_LOOP ( 'NONE', ( #333, #413, #321, #7, #183, #74 ) ) ;
#336 = DIRECTION ( 'NONE',  ( -0.000000000000000000, -0.000000000000000000, -1.000000000000000000 ) ) ;
#337 = LINE ( 'NONE', #29, #12 ) ;
#338 = APPROVAL_DATE_TIME ( #304, #79 ) ;
#339 = DIRECTION ( 'NONE',  ( -0.7798351364424053189, -0.6259849518717323091, 0.000000000000000000 ) ) ;
#340 = CARTESIAN_POINT ( 'NONE',  ( -2.000000000000000000, 0.000000000000000000, 10.00000000000000000 ) ) ;
#341 = ADVANCED_FACE ( 'NONE', ( #107 ), #178, .T. ) ;
#342 = EDGE_CURVE ( 'NONE', #76, #39, #402, .T. ) ;
#343 = CARTESIAN_POINT ( 'NONE',  ( -3.000000000000000444, 3.673940397442060361E-16, -4.000000000000000000 ) ) ;
#344 = CALENDAR_DATE ( 2024, 26, 9 ) ;
#345 = PERSON_AND_ORGANIZATION ( #210, #197 ) ;
#346 = DIRECTION ( 'NONE',  ( 1.000000000000000000, 0.000000000000000000, 0.000000000000000000 ) ) ;
#347 = CIRCLE ( 'NONE', #286, 2.000000000000000000 ) ;
#348 = LOCAL_TIME ( 23, 16, 7.000000000000000000, #421 ) ;
#349 = DIRECTION ( 'NONE',  ( 0.3623645629869607365, 0.9320364389289020890, -0.000000000000000000 ) ) ;
#350 = DIRECTION ( 'NONE',  ( 0.000000000000000000, 0.000000000000000000, 1.000000000000000000 ) ) ;
#351 = APPLICATION_CONTEXT ( 'configuration controlled 3d designs of mechanical parts and assemblies' ) ;
#352 = ORIENTED_EDGE ( 'NONE', *, *, #131, .F. ) ;
#353 = VECTOR ( 'NONE', #142, 1000.000000000000000 ) ;
#354 = CARTESIAN_POINT ( 'NONE',  ( 0.000000000000000000, 0.000000000000000000, -2.000000000000000000 ) ) ;
#355 = SECURITY_CLASSIFICATION ( '', '', #311 ) ;
#356 = EDGE_LOOP ( 'NONE', ( #67, #439, #221, #429 ) ) ;
#357 = CARTESIAN_POINT ( 'NONE',  ( -1.350714077845659888, -1.084237741415403411, -2.000000000000000000 ) ) ;
#358 = ORIENTED_EDGE ( 'NONE', *, *, #6, .T. ) ;
#359 = LINE ( 'NONE', #80, #116 ) ;
#360 = FACE_OUTER_BOUND ( 'NONE', #329, .T. ) ;
#361 = DIRECTION ( 'NONE',  ( 1.000000000000000000, 0.000000000000000000, 0.000000000000000000 ) ) ;
#362 = AXIS2_PLACEMENT_3D ( 'NONE', #282, #110, #5 ) ;
#363 = CARTESIAN_POINT ( 'NONE',  ( 0.2636203888847722387, -1.711871575371314957, -2.000000000000000000 ) ) ;
#364 = LINE ( 'NONE', #184, #217 ) ;
#365 = ORIENTED_EDGE ( 'NONE', *, *, #342, .F. ) ;
#366 = EDGE_CURVE ( 'NONE', #387, #135, #359, .T. ) ;
#367 = ORIENTED_EDGE ( 'NONE', *, *, #435, .T. ) ;
#368 =( NAMED_UNIT ( * ) SI_UNIT ( $, .STERADIAN. ) SOLID_ANGLE_UNIT ( ) );
#369 = AXIS2_PLACEMENT_3D ( 'NONE', #228, #17, #232 ) ;
#370 = ADVANCED_FACE ( 'NONE', ( #150 ), #290, .T. ) ;
#371 = ORIENTED_EDGE ( 'NONE', *, *, #416, .F. ) ;
#372 = CARTESIAN_POINT ( 'NONE',  ( -1.614334466730431794, 0.6276338339559117685, -2.000000000000000000 ) ) ;
#373 = CARTESIAN_POINT ( 'NONE',  ( 1.350714077845660110, 1.084237741415403189, -4.000000000000000000 ) ) ;
#374 = DIRECTION ( 'NONE',  ( -0.000000000000000000, 0.000000000000000000, 1.000000000000000000 ) ) ;
#375 = COORDINATED_UNIVERSAL_TIME_OFFSET ( 9, 0, .AHEAD. ) ;
#376 = CC_DESIGN_PERSON_AND_ORGANIZATION_ASSIGNMENT ( #345, #419, ( #318 ) ) ;
#377 = EDGE_CURVE ( 'NONE', #296, #146, #437, .T. ) ;
#378 = DIRECTION ( 'NONE',  ( -0.000000000000000000, -0.000000000000000000, -1.000000000000000000 ) ) ;
#379 = DIRECTION ( 'NONE',  ( 1.000000000000000000, 0.000000000000000000, 0.000000000000000000 ) ) ;
#380 = AXIS2_PLACEMENT_3D ( 'NONE', #354, #32, #211 ) ;
#381 = APPROVAL_STATUS ( 'not_yet_approved' ) ;
#382 = APPROVAL_ROLE ( '' ) ;
#383 = EDGE_CURVE ( 'NONE', #204, #218, #322, .T. ) ;
#384 = VECTOR ( 'NONE', #264, 1000.000000000000000 ) ;
#385 = CC_DESIGN_APPROVAL ( #245, ( #318 ) ) ;
#386 = CARTESIAN_POINT ( 'NONE',  ( 2.000000000000000000, 2.449293598294706414E-16, 0.000000000000000000 ) ) ;
#387 = VERTEX_POINT ( 'NONE', #3 ) ;
#388 = ADVANCED_FACE ( 'NONE', ( #152 ), #294, .F. ) ;
#389 = CARTESIAN_POINT ( 'NONE',  ( -1.614334466730431794, 0.6276338339559117685, -2.000000000000000000 ) ) ;
#390 = ADVANCED_FACE ( 'NONE', ( #144 ), #93, .F. ) ;
#391 = DIRECTION ( 'NONE',  ( 0.000000000000000000, 0.000000000000000000, 1.000000000000000000 ) ) ;
#392 = ORIENTED_EDGE ( 'NONE', *, *, #157, .F. ) ;
#393 = CIRCLE ( 'NONE', #324, 2.000000000000000000 ) ;
#394 = DIRECTION ( 'NONE',  ( 1.000000000000000000, 0.000000000000000000, 0.000000000000000000 ) ) ;
#395 = ORIENTED_EDGE ( 'NONE', *, *, #131, .T. ) ;
#396 = DIRECTION ( 'NONE',  ( 0.000000000000000000, 0.000000000000000000, 1.000000000000000000 ) ) ;
#397 = CC_DESIGN_PERSON_AND_ORGANIZATION_ASSIGNMENT ( #313, #422, ( #249 ) ) ;
#398 = ORIENTED_EDGE ( 'NONE', *, *, #6, .F. ) ;
#399 = CARTESIAN_POINT ( 'NONE',  ( 0.000000000000000000, 0.000000000000000000, -4.000000000000000000 ) ) ;
#400 = ADVANCED_BREP_SHAPE_REPRESENTATION ( '볼트 m4 10', ( #213, #138 ), #236 ) ;
#401 = VERTEX_POINT ( 'NONE', #373 ) ;
#402 = LINE ( 'NONE', #254, #316 ) ;
#403 = AXIS2_PLACEMENT_3D ( 'NONE', #21, #100, #64 ) ;
#404 = ORIENTED_EDGE ( 'NONE', *, *, #435, .F. ) ;
#405 = ADVANCED_FACE ( 'NONE', ( #187 ), #163, .T. ) ;
#406 = CARTESIAN_POINT ( 'NONE',  ( -0.2636203888847726828, 1.711871575371314513, -2.000000000000000000 ) ) ;
#407 = VERTEX_POINT ( 'NONE', #258 ) ;
#408 = ADVANCED_FACE ( 'NONE', ( #14 ), #55, .T. ) ;
#409 = VERTEX_POINT ( 'NONE', #260 ) ;
#410 =( NAMED_UNIT ( * ) PLANE_ANGLE_UNIT ( ) SI_UNIT ( $, .RADIAN. ) );
#411 = VECTOR ( 'NONE', #415, 1000.000000000000114 ) ;
#412 = APPROVAL_PERSON_ORGANIZATION ( #16, #79, #334 ) ;
#413 = ORIENTED_EDGE ( 'NONE', *, *, #377, .T. ) ;
#414 = FACE_OUTER_BOUND ( 'NONE', #44, .T. ) ;
#415 = DIRECTION ( 'NONE',  ( 0.9320364389289020890, -0.3623645629869607365, 0.000000000000000000 ) ) ;
#416 = EDGE_CURVE ( 'NONE', #171, #204, #225, .T. ) ;
#417 = DIRECTION ( 'NONE',  ( 0.1522013024864961872, -0.9883495148586931567, 0.000000000000000000 ) ) ;
#418 = DIRECTION ( 'NONE',  ( -0.000000000000000000, -0.000000000000000000, -1.000000000000000000 ) ) ;
#419 = PERSON_AND_ORGANIZATION_ROLE ( 'creator' ) ;
#420 = CIRCLE ( 'NONE', #239, 3.000000000000000444 ) ;
#421 = COORDINATED_UNIVERSAL_TIME_OFFSET ( 9, 0, .AHEAD. ) ;
#422 = PERSON_AND_ORGANIZATION_ROLE ( 'design_owner' ) ;
#423 = CARTESIAN_POINT ( 'NONE',  ( 0.000000000000000000, 0.000000000000000000, 0.000000000000000000 ) ) ;
#424 = EDGE_LOOP ( 'NONE', ( #398, #149, #433, #78 ) ) ;
#425 = AXIS2_PLACEMENT_3D ( 'NONE', #153, #436, #441 ) ;
#426 = CARTESIAN_POINT ( 'NONE',  ( -0.2636203888847726828, 1.711871575371314513, -2.000000000000000000 ) ) ;
#427 = ADVANCED_FACE ( 'NONE', ( #125, #119 ), #449, .F. ) ;
#428 = CARTESIAN_POINT ( 'NONE',  ( 3.000000000000000444, 0.000000000000000000, 0.000000000000000000 ) ) ;
#429 = ORIENTED_EDGE ( 'NONE', *, *, #274, .F. ) ;
#430 = CARTESIAN_POINT ( 'NONE',  ( -1.350714077845659888, -1.084237741415403411, -2.000000000000000000 ) ) ;
#431 = AXIS2_PLACEMENT_3D ( 'NONE', #192, #11, #117 ) ;
#432 = CARTESIAN_POINT ( 'NONE',  ( -1.350714077845659888, -1.084237741415403411, -4.000000000000000000 ) ) ;
#433 = ORIENTED_EDGE ( 'NONE', *, *, #73, .T. ) ;
#434 = LINE ( 'NONE', #35, #459 ) ;
#435 = EDGE_CURVE ( 'NONE', #296, #289, #443, .T. ) ;
#436 = DIRECTION ( 'NONE',  ( -0.3623645629869608475, -0.9320364389289020890, 0.000000000000000000 ) ) ;
#437 = LINE ( 'NONE', #357, #174 ) ;
#438 = PRODUCT_RELATED_PRODUCT_CATEGORY ( 'detail', '', ( #249 ) ) ;
#439 = ORIENTED_EDGE ( 'NONE', *, *, #342, .T. ) ;
#440 = AXIS2_PLACEMENT_3D ( 'NONE', #176, #320, #463 ) ;
#441 = DIRECTION ( 'NONE',  ( 0.9320364389289020890, -0.3623645629869608475, 0.000000000000000000 ) ) ;
#442 = EDGE_CURVE ( 'NONE', #409, #106, #312, .T. ) ;
#443 = LINE ( 'NONE', #268, #48 ) ;
#444 = VERTEX_POINT ( 'NONE', #196 ) ;
#445 = ORIENTED_EDGE ( 'NONE', *, *, #366, .F. ) ;
#446 = AXIS2_PLACEMENT_3D ( 'NONE', #305, #332, #300 ) ;
#447 = EDGE_CURVE ( 'NONE', #401, #279, #121, .T. ) ;
#448 = PLANE ( 'NONE',  #101 ) ;
#449 = PLANE ( 'NONE',  #431 ) ;
#450 = DIRECTION ( 'NONE',  ( 1.000000000000000000, 0.000000000000000000, 0.000000000000000000 ) ) ;
#451 = PERSON_AND_ORGANIZATION ( #210, #197 ) ;
#452 = EDGE_CURVE ( 'NONE', #171, #407, #263, .T. ) ;
#453 = PERSON_AND_ORGANIZATION ( #210, #197 ) ;
#454 = AXIS2_PLACEMENT_3D ( 'NONE', #244, #215, #361 ) ;
#455 = ADVANCED_FACE ( 'NONE', ( #414 ), #298, .F. ) ;
#456 = CARTESIAN_POINT ( 'NONE',  ( 0.000000000000000000, 0.000000000000000000, 0.000000000000000000 ) ) ;
#457 = CARTESIAN_POINT ( 'NONE',  ( -1.614334466730431794, 0.6276338339559117685, -4.000000000000000000 ) ) ;
#458 = ORIENTED_EDGE ( 'NONE', *, *, #33, .F. ) ;
#459 = VECTOR ( 'NONE', #396, 1000.000000000000000 ) ;
#460 = CARTESIAN_POINT ( 'NONE',  ( 1.614334466730431794, -0.6276338339559117685, -2.000000000000000000 ) ) ;
#461 = DIRECTION ( 'NONE',  ( -0.1522013024864961872, 0.9883495148586931567, 0.000000000000000000 ) ) ;
#462 = ORIENTED_EDGE ( 'NONE', *, *, #40, .T. ) ;
#463 = DIRECTION ( 'NONE',  ( 0.1522013024864962705, -0.9883495148586930457, 0.000000000000000000 ) ) ;
ENDSEC;
END-ISO-10303-21;
