ISO-10303-21;
HEADER;
FILE_DESCRIPTION (( 'STEP AP203' ),
    '1' );
FILE_NAME ('볼트 m3 20.STEP',
    '2024-09-26T14:16:15',
    ( '' ),
    ( '' ),
    'SwSTEP 2.0',
    'SolidWorks 2022',
    '' );
FILE_SCHEMA (( 'CONFIG_CONTROL_DESIGN' ));
ENDSEC;

DATA;
#1 = CARTESIAN_POINT ( 'NONE',  ( -0.7216878364870326079, 1.250000000000000888, -1.700000000000000178 ) ) ;
#2 = EDGE_CURVE ( 'NONE', #74, #32, #408, .T. ) ;
#3 = CARTESIAN_POINT ( 'NONE',  ( 2.500000000000000444, 0.000000000000000000, -3.000000000000000000 ) ) ;
#4 = ORIENTED_EDGE ( 'NONE', *, *, #278, .T. ) ;
#5 = CARTESIAN_POINT ( 'NONE',  ( 0.000000000000000000, 0.000000000000000000, -3.000000000000000000 ) ) ;
#6 = ORIENTED_EDGE ( 'NONE', *, *, #55, .T. ) ;
#7 = EDGE_CURVE ( 'NONE', #279, #314, #15, .T. ) ;
#8 = DIRECTION ( 'NONE',  ( 1.000000000000000000, 0.000000000000000000, -0.000000000000000000 ) ) ;
#9 = VECTOR ( 'NONE', #86, 1000.000000000000000 ) ;
#10 = EDGE_LOOP ( 'NONE', ( #36, #184 ) ) ;
#11 = ADVANCED_FACE ( 'NONE', ( #366 ), #152, .F. ) ;
#12 = FACE_OUTER_BOUND ( 'NONE', #337, .T. ) ;
#13 = LINE ( 'NONE', #150, #442 ) ;
#14 = FACE_BOUND ( 'NONE', #101, .T. ) ;
#15 = LINE ( 'NONE', #403, #401 ) ;
#16 = DESIGN_CONTEXT ( 'detailed design', #192, 'design' ) ;
#17 = ADVANCED_FACE ( 'NONE', ( #155 ), #264, .T. ) ;
#18 = DIRECTION ( 'NONE',  ( 0.4999999999999996669, -0.8660254037844388186, 0.000000000000000000 ) ) ;
#19 = CARTESIAN_POINT ( 'NONE',  ( 0.000000000000000000, 0.000000000000000000, 0.000000000000000000 ) ) ;
#20 = SECURITY_CLASSIFICATION ( '', '', #322 ) ;
#21 = LINE ( 'NONE', #198, #87 ) ;
#22 = EDGE_CURVE ( 'NONE', #258, #320, #170, .T. ) ;
#23 = CARTESIAN_POINT ( 'NONE',  ( 2.500000000000000444, 0.000000000000000000, 0.000000000000000000 ) ) ;
#24 = EDGE_CURVE ( 'NONE', #32, #350, #50, .T. ) ;
#25 = DIRECTION ( 'NONE',  ( -0.000000000000000000, -0.000000000000000000, -1.000000000000000000 ) ) ;
#26 = ORIENTED_EDGE ( 'NONE', *, *, #22, .F. ) ;
#27 = PLANE ( 'NONE',  #323 ) ;
#28 = CC_DESIGN_PERSON_AND_ORGANIZATION_ASSIGNMENT ( #169, #127, ( #20 ) ) ;
#29 = ORGANIZATION ( 'UNSPECIFIED', 'UNSPECIFIED', '' ) ;
#30 = FACE_OUTER_BOUND ( 'NONE', #40, .T. ) ;
#31 = COORDINATED_UNIVERSAL_TIME_OFFSET ( 9, 0, .AHEAD. ) ;
#32 = VERTEX_POINT ( 'NONE', #446 ) ;
#33 = ADVANCED_FACE ( 'NONE', ( #48 ), #149, .F. ) ;
#34 = CARTESIAN_POINT ( 'NONE',  ( -1.443375672974065216, 4.336808689942017736E-16, -1.700000000000000178 ) ) ;
#35 = APPROVAL_DATE_TIME ( #316, #210 ) ;
#36 = ORIENTED_EDGE ( 'NONE', *, *, #75, .T. ) ;
#37 = FACE_OUTER_BOUND ( 'NONE', #93, .T. ) ;
#38 = CARTESIAN_POINT ( 'NONE',  ( 1.500000000000000222, 1.836970198721030181E-16, 20.00000000000000000 ) ) ;
#39 = PRODUCT_DEFINITION_FORMATION_WITH_SPECIFIED_SOURCE ( 'ANY', '', #69, .NOT_KNOWN. ) ;
#40 = EDGE_LOOP ( 'NONE', ( #102, #240, #435, #283, #147, #326 ) ) ;
#41 = FACE_OUTER_BOUND ( 'NONE', #168, .T. ) ;
#42 = EDGE_LOOP ( 'NONE', ( #141, #347 ) ) ;
#43 = DIRECTION ( 'NONE',  ( -0.000000000000000000, -0.000000000000000000, -1.000000000000000000 ) ) ;
#44 = ORIENTED_EDGE ( 'NONE', *, *, #95, .F. ) ;
#45 = PLANE ( 'NONE',  #312 ) ;
#46 = CARTESIAN_POINT ( 'NONE',  ( 0.7216878364870330520, 1.250000000000000666, -1.700000000000000178 ) ) ;
#47 = DIRECTION ( 'NONE',  ( -1.000000000000000000, 1.502314598737158045E-16, 0.000000000000000000 ) ) ;
#48 = FACE_OUTER_BOUND ( 'NONE', #60, .T. ) ;
#49 = DATE_AND_TIME ( #265, #145 ) ;
#50 = LINE ( 'NONE', #236, #282 ) ;
#51 = DIRECTION ( 'NONE',  ( -0.8660254037844388186, -0.4999999999999997780, 0.000000000000000000 ) ) ;
#52 = CIRCLE ( 'NONE', #228, 1.500000000000000222 ) ;
#53 = DIRECTION ( 'NONE',  ( -0.4999999999999997780, 0.8660254037844388186, 0.000000000000000000 ) ) ;
#54 = CIRCLE ( 'NONE', #253, 1.500000000000000222 ) ;
#55 = EDGE_CURVE ( 'NONE', #329, #68, #195, .T. ) ;
#56 = LINE ( 'NONE', #370, #461 ) ;
#57 = EDGE_CURVE ( 'NONE', #359, #176, #52, .T. ) ;
#58 = EDGE_LOOP ( 'NONE', ( #248, #44 ) ) ;
#59 = VECTOR ( 'NONE', #426, 1000.000000000000000 ) ;
#60 = EDGE_LOOP ( 'NONE', ( #135, #108, #251, #217 ) ) ;
#61 = APPROVAL_DATE_TIME ( #276, #162 ) ;
#62 = PERSON_AND_ORGANIZATION ( #105, #29 ) ;
#63 = ORIENTED_EDGE ( 'NONE', *, *, #396, .F. ) ;
#64 = AXIS2_PLACEMENT_3D ( 'NONE', #315, #422, #383 ) ;
#65 = EDGE_CURVE ( 'NONE', #74, #387, #268, .T. ) ;
#66 = ORIENTED_EDGE ( 'NONE', *, *, #143, .T. ) ;
#67 = CARTESIAN_POINT ( 'NONE',  ( 0.000000000000000000, 0.000000000000000000, -3.000000000000000000 ) ) ;
#68 = VERTEX_POINT ( 'NONE', #266 ) ;
#69 = PRODUCT ( '볼트 m3 20', '볼트 m3 20', '', ( #153 ) ) ;
#70 = AXIS2_PLACEMENT_3D ( 'NONE', #5, #148, #8 ) ;
#71 = CARTESIAN_POINT ( 'NONE',  ( 1.443375672974065216, -2.168404344971008868E-16, -1.700000000000000178 ) ) ;
#72 = ORIENTED_EDGE ( 'NONE', *, *, #128, .F. ) ;
#73 = CARTESIAN_POINT ( 'NONE',  ( -1.500000000000000222, 0.000000000000000000, 20.00000000000000000 ) ) ;
#74 = VERTEX_POINT ( 'NONE', #405 ) ;
#75 = EDGE_CURVE ( 'NONE', #429, #314, #98, .T. ) ;
#76 = DIRECTION ( 'NONE',  ( 0.8660254037844385966, -0.5000000000000003331, 0.000000000000000000 ) ) ;
#77 = ORIENTED_EDGE ( 'NONE', *, *, #24, .F. ) ;
#78 = CARTESIAN_POINT ( 'NONE',  ( 0.7216878364870323859, -1.250000000000000888, -3.000000000000000000 ) ) ;
#79 = VECTOR ( 'NONE', #121, 1000.000000000000000 ) ;
#80 = DIRECTION ( 'NONE',  ( 0.8660254037844388186, 0.4999999999999996669, -0.000000000000000000 ) ) ;
#81 =( NAMED_UNIT ( * ) SI_UNIT ( $, .STERADIAN. ) SOLID_ANGLE_UNIT ( ) );
#82 = DIRECTION ( 'NONE',  ( -0.000000000000000000, 0.000000000000000000, 1.000000000000000000 ) ) ;
#83 = EDGE_CURVE ( 'NONE', #215, #74, #56, .T. ) ;
#84 = CARTESIAN_POINT ( 'NONE',  ( 0.000000000000000000, 0.000000000000000000, 0.000000000000000000 ) ) ;
#85 = DIRECTION ( 'NONE',  ( -1.000000000000000000, 0.000000000000000000, 0.000000000000000000 ) ) ;
#86 = DIRECTION ( 'NONE',  ( -0.000000000000000000, -0.000000000000000000, -1.000000000000000000 ) ) ;
#87 = VECTOR ( 'NONE', #342, 1000.000000000000000 ) ;
#88 = EDGE_CURVE ( 'NONE', #320, #359, #412, .T. ) ;
#89 = CYLINDRICAL_SURFACE ( 'NONE', #410, 1.500000000000000222 ) ;
#90 = DIRECTION ( 'NONE',  ( -0.000000000000000000, -0.000000000000000000, -1.000000000000000000 ) ) ;
#91 = COORDINATED_UNIVERSAL_TIME_OFFSET ( 9, 0, .AHEAD. ) ;
#92 = ORIENTED_EDGE ( 'NONE', *, *, #179, .F. ) ;
#93 = EDGE_LOOP ( 'NONE', ( #110, #453, #92, #104 ) ) ;
#94 = VECTOR ( 'NONE', #18, 1000.000000000000000 ) ;
#95 = EDGE_CURVE ( 'NONE', #279, #398, #363, .T. ) ;
#96 = DIRECTION ( 'NONE',  ( -0.8660254037844387076, 0.5000000000000000000, 0.000000000000000000 ) ) ;
#97 = VERTEX_POINT ( 'NONE', #46 ) ;
#98 = CIRCLE ( 'NONE', #409, 2.500000000000000444 ) ;
#99 = AXIS2_PLACEMENT_3D ( 'NONE', #67, #250, #146 ) ;
#100 = ADVANCED_BREP_SHAPE_REPRESENTATION ( '볼트 m3 20', ( #137, #154 ), #355 ) ;
#101 = EDGE_LOOP ( 'NONE', ( #72, #77, #415, #385, #173, #379 ) ) ;
#102 = ORIENTED_EDGE ( 'NONE', *, *, #65, .T. ) ;
#103 = CARTESIAN_POINT ( 'NONE',  ( -0.7216878364870326079, 1.250000000000000888, -1.700000000000000178 ) ) ;
#104 = ORIENTED_EDGE ( 'NONE', *, *, #140, .T. ) ;
#105 = PERSON ( 'UNSPECIFIED', 'UNSPECIFIED', 'UNSPECIFIED', ('UNSPECIFIED'), ('UNSPECIFIED'), ('UNSPECIFIED') ) ;
#106 = APPROVAL_PERSON_ORGANIZATION ( #209, #210, #456 ) ;
#107 = CARTESIAN_POINT ( 'NONE',  ( -2.500000000000000444, 3.061616997868383634E-16, 0.000000000000000000 ) ) ;
#108 = ORIENTED_EDGE ( 'NONE', *, *, #55, .F. ) ;
#109 = DIRECTION ( 'NONE',  ( 1.000000000000000000, 0.000000000000000000, 0.000000000000000000 ) ) ;
#110 = ORIENTED_EDGE ( 'NONE', *, *, #128, .T. ) ;
#111 = ADVANCED_FACE ( 'NONE', ( #37 ), #27, .F. ) ;
#112 = CARTESIAN_POINT ( 'NONE',  ( 0.000000000000000000, 0.000000000000000000, 20.00000000000000000 ) ) ;
#113 = CARTESIAN_POINT ( 'NONE',  ( 0.000000000000000000, 0.000000000000000000, 20.00000000000000000 ) ) ;
#114 = LINE ( 'NONE', #1, #427 ) ;
#115 = DIRECTION ( 'NONE',  ( 1.000000000000000000, 0.000000000000000000, 0.000000000000000000 ) ) ;
#116 = VECTOR ( 'NONE', #246, 1000.000000000000227 ) ;
#117 = CIRCLE ( 'NONE', #129, 2.500000000000000444 ) ;
#118 = DIRECTION ( 'NONE',  ( -0.000000000000000000, 0.000000000000000000, 1.000000000000000000 ) ) ;
#119 = PERSON_AND_ORGANIZATION ( #105, #29 ) ;
#120 = CARTESIAN_POINT ( 'NONE',  ( 1.443375672974065216, -2.168404344971008868E-16, -1.700000000000000178 ) ) ;
#121 = DIRECTION ( 'NONE',  ( -0.000000000000000000, -0.000000000000000000, -1.000000000000000000 ) ) ;
#122 = DIRECTION ( 'NONE',  ( -0.000000000000000000, -0.000000000000000000, -1.000000000000000000 ) ) ;
#123 = DIRECTION ( 'NONE',  ( 0.000000000000000000, 0.000000000000000000, 1.000000000000000000 ) ) ;
#124 = DIRECTION ( 'NONE',  ( 1.000000000000000000, 0.000000000000000000, 0.000000000000000000 ) ) ;
#125 = PLANE ( 'NONE',  #402 ) ;
#126 = EDGE_LOOP ( 'NONE', ( #324, #289, #454, #277 ) ) ;
#127 = PERSON_AND_ORGANIZATION_ROLE ( 'classification_officer' ) ;
#128 = EDGE_CURVE ( 'NONE', #350, #186, #171, .T. ) ;
#129 = AXIS2_PLACEMENT_3D ( 'NONE', #257, #397, #226 ) ;
#130 = PERSON_AND_ORGANIZATION ( #105, #29 ) ;
#131 = ADVANCED_FACE ( 'NONE', ( #30 ), #381, .T. ) ;
#132 = DATE_AND_TIME ( #457, #372 ) ;
#133 = VERTEX_POINT ( 'NONE', #318 ) ;
#134 = APPLICATION_CONTEXT ( 'configuration controlled 3d designs of mechanical parts and assemblies' ) ;
#135 = ORIENTED_EDGE ( 'NONE', *, *, #234, .T. ) ;
#136 = DIRECTION ( 'NONE',  ( -1.000000000000000000, 0.000000000000000000, 0.000000000000000000 ) ) ;
#137 = MANIFOLD_SOLID_BREP ( '컷-돌출1', #384 ) ;
#138 = PRODUCT_RELATED_PRODUCT_CATEGORY ( 'detail', '', ( #69 ) ) ;
#139 = PLANE ( 'NONE',  #70 ) ;
#140 = EDGE_CURVE ( 'NONE', #387, #350, #458, .T. ) ;
#141 = ORIENTED_EDGE ( 'NONE', *, *, #335, .T. ) ;
#142 = DIRECTION ( 'NONE',  ( 1.502314598737158045E-16, 1.000000000000000000, -0.000000000000000000 ) ) ;
#143 = EDGE_CURVE ( 'NONE', #68, #273, #244, .T. ) ;
#144 = ORIENTED_EDGE ( 'NONE', *, *, #75, .F. ) ;
#145 = LOCAL_TIME ( 23, 16, 15.00000000000000000, #91 ) ;
#146 = DIRECTION ( 'NONE',  ( 1.000000000000000000, 0.000000000000000000, 0.000000000000000000 ) ) ;
#147 = ORIENTED_EDGE ( 'NONE', *, *, #222, .T. ) ;
#148 = DIRECTION ( 'NONE',  ( 0.000000000000000000, 0.000000000000000000, 1.000000000000000000 ) ) ;
#149 = PLANE ( 'NONE',  #332 ) ;
#150 = CARTESIAN_POINT ( 'NONE',  ( -1.443375672974065216, 4.336808689942017736E-16, -1.700000000000000178 ) ) ;
#151 = CARTESIAN_POINT ( 'NONE',  ( -0.7216878364870326079, 1.250000000000000888, -3.000000000000000000 ) ) ;
#152 = PLANE ( 'NONE',  #196 ) ;
#153 = MECHANICAL_CONTEXT ( 'NONE', #134, 'mechanical' ) ;
#154 = AXIS2_PLACEMENT_3D ( 'NONE', #447, #123, #271 ) ;
#155 = FACE_OUTER_BOUND ( 'NONE', #390, .T. ) ;
#156 = FACE_OUTER_BOUND ( 'NONE', #275, .T. ) ;
#157 = DIRECTION ( 'NONE',  ( 0.000000000000000000, 0.000000000000000000, 1.000000000000000000 ) ) ;
#158 = CARTESIAN_POINT ( 'NONE',  ( -1.500000000000000222, 0.000000000000000000, 20.00000000000000000 ) ) ;
#159 = CC_DESIGN_DATE_AND_TIME_ASSIGNMENT ( #194, #424, ( #392 ) ) ;
#160 = PERSON_AND_ORGANIZATION_ROLE ( 'design_owner' ) ;
#161 = ORIENTED_EDGE ( 'NONE', *, *, #335, .F. ) ;
#162 = APPROVAL ( #460, 'UNSPECIFIED' ) ;
#163 = EDGE_CURVE ( 'NONE', #215, #273, #386, .T. ) ;
#164 = FACE_OUTER_BOUND ( 'NONE', #126, .T. ) ;
#165 = ORIENTED_EDGE ( 'NONE', *, *, #237, .T. ) ;
#166 = ADVANCED_FACE ( 'NONE', ( #254 ), #395, .T. ) ;
#167 = PERSON_AND_ORGANIZATION ( #105, #29 ) ;
#168 = EDGE_LOOP ( 'NONE', ( #432, #242, #425, #437 ) ) ;
#169 = PERSON_AND_ORGANIZATION ( #105, #29 ) ;
#170 = CIRCLE ( 'NONE', #292, 1.500000000000000222 ) ;
#171 = LINE ( 'NONE', #174, #270 ) ;
#172 = CALENDAR_DATE ( 2024, 26, 9 ) ;
#173 = ORIENTED_EDGE ( 'NONE', *, *, #234, .F. ) ;
#174 = CARTESIAN_POINT ( 'NONE',  ( -1.443375672974065216, 4.336808689942017736E-16, -3.000000000000000000 ) ) ;
#175 = PERSON_AND_ORGANIZATION_ROLE ( 'design_supplier' ) ;
#176 = VERTEX_POINT ( 'NONE', #360 ) ;
#177 = AXIS2_PLACEMENT_3D ( 'NONE', #334, #225, #391 ) ;
#178 = VECTOR ( 'NONE', #43, 1000.000000000000000 ) ;
#179 = EDGE_CURVE ( 'NONE', #387, #133, #13, .T. ) ;
#180 = DIRECTION ( 'NONE',  ( -0.000000000000000000, 0.000000000000000000, 1.000000000000000000 ) ) ;
#181 = ORIENTED_EDGE ( 'NONE', *, *, #406, .T. ) ;
#182 = PRODUCT_DEFINITION_SHAPE ( 'NONE', 'NONE',  #392 ) ;
#183 = DIRECTION ( 'NONE',  ( 0.000000000000000000, 0.000000000000000000, 1.000000000000000000 ) ) ;
#184 = ORIENTED_EDGE ( 'NONE', *, *, #338, .T. ) ;
#185 = FACE_OUTER_BOUND ( 'NONE', #220, .T. ) ;
#186 = VERTEX_POINT ( 'NONE', #298 ) ;
#187 = AXIS2_PLACEMENT_3D ( 'NONE', #216, #190, #353 ) ;
#188 = CARTESIAN_POINT ( 'NONE',  ( 0.7216878364870330520, 1.250000000000000666, -1.700000000000000178 ) ) ;
#189 = EDGE_CURVE ( 'NONE', #133, #186, #114, .T. ) ;
#190 = DIRECTION ( 'NONE',  ( 0.000000000000000000, 0.000000000000000000, 1.000000000000000000 ) ) ;
#191 = CARTESIAN_POINT ( 'NONE',  ( 0.7216878364870323859, -1.250000000000000888, -1.700000000000000178 ) ) ;
#192 = APPLICATION_CONTEXT ( 'configuration controlled 3d designs of mechanical parts and assemblies' ) ;
#193 = UNCERTAINTY_MEASURE_WITH_UNIT (LENGTH_MEASURE( 1.000000000000000082E-05 ), #308, 'distance_accuracy_value', 'NONE');
#194 = DATE_AND_TIME ( #367, #262 ) ;
#195 = LINE ( 'NONE', #120, #455 ) ;
#196 = AXIS2_PLACEMENT_3D ( 'NONE', #191, #444, #260 ) ;
#197 = EDGE_CURVE ( 'NONE', #273, #32, #249, .T. ) ;
#198 = CARTESIAN_POINT ( 'NONE',  ( -0.7216878364870326079, 1.250000000000000888, -1.700000000000000178 ) ) ;
#199 = CIRCLE ( 'NONE', #284, 1.500000000000000222 ) ;
#200 = DIRECTION ( 'NONE',  ( -1.000000000000000000, 0.000000000000000000, 0.000000000000000000 ) ) ;
#201 = CARTESIAN_POINT ( 'NONE',  ( 0.000000000000000000, 0.000000000000000000, 20.00000000000000000 ) ) ;
#202 = DIRECTION ( 'NONE',  ( -0.000000000000000000, -0.000000000000000000, -1.000000000000000000 ) ) ;
#203 = ADVANCED_FACE ( 'NONE', ( #371 ), #302, .F. ) ;
#204 = PERSON_AND_ORGANIZATION_ROLE ( 'creator' ) ;
#205 = VECTOR ( 'NONE', #202, 1000.000000000000000 ) ;
#206 = CC_DESIGN_DATE_AND_TIME_ASSIGNMENT ( #132, #319, ( #20 ) ) ;
#207 = APPROVAL_PERSON_ORGANIZATION ( #130, #162, #281 ) ;
#208 = ORIENTED_EDGE ( 'NONE', *, *, #189, .T. ) ;
#209 = PERSON_AND_ORGANIZATION ( #105, #29 ) ;
#210 = APPROVAL ( #420, 'UNSPECIFIED' ) ;
#211 = AXIS2_PLACEMENT_3D ( 'NONE', #305, #449, #124 ) ;
#212 = VERTEX_POINT ( 'NONE', #365 ) ;
#213 = LOCAL_TIME ( 23, 16, 15.00000000000000000, #351 ) ;
#214 = PERSON_AND_ORGANIZATION_ROLE ( 'creator' ) ;
#215 = VERTEX_POINT ( 'NONE', #288 ) ;
#216 = CARTESIAN_POINT ( 'NONE',  ( 0.000000000000000000, 0.000000000000000000, -3.000000000000000000 ) ) ;
#217 = ORIENTED_EDGE ( 'NONE', *, *, #346, .T. ) ;
#218 = LOCAL_TIME ( 23, 16, 15.00000000000000000, #31 ) ;
#219 = DIRECTION ( 'NONE',  ( 0.5000000000000002220, 0.8660254037844384856, 0.000000000000000000 ) ) ;
#220 = EDGE_LOOP ( 'NONE', ( #181, #463, #144, #331 ) ) ;
#221 = DIRECTION ( 'NONE',  ( 0.5000000000000001110, 0.8660254037844385966, 0.000000000000000000 ) ) ;
#222 = EDGE_CURVE ( 'NONE', #329, #215, #290, .T. ) ;
#223 = LINE ( 'NONE', #358, #178 ) ;
#224 = ORIENTED_EDGE ( 'NONE', *, *, #57, .T. ) ;
#225 = DIRECTION ( 'NONE',  ( -0.000000000000000000, 0.000000000000000000, 1.000000000000000000 ) ) ;
#226 = DIRECTION ( 'NONE',  ( 1.000000000000000000, 0.000000000000000000, 0.000000000000000000 ) ) ;
#227 = EDGE_LOOP ( 'NONE', ( #295, #291 ) ) ;
#228 = AXIS2_PLACEMENT_3D ( 'NONE', #19, #118, #300 ) ;
#229 = AXIS2_PLACEMENT_3D ( 'NONE', #103, #142, #47 ) ;
#230 = CARTESIAN_POINT ( 'NONE',  ( 0.000000000000000000, 0.000000000000000000, 0.000000000000000000 ) ) ;
#231 = CARTESIAN_POINT ( 'NONE',  ( 0.000000000000000000, 0.000000000000000000, 20.00000000000000000 ) ) ;
#232 = COORDINATED_UNIVERSAL_TIME_OFFSET ( 9, 0, .AHEAD. ) ;
#233 = DIRECTION ( 'NONE',  ( -1.000000000000000000, 0.000000000000000000, 0.000000000000000000 ) ) ;
#234 = EDGE_CURVE ( 'NONE', #212, #68, #299, .T. ) ;
#235 = DIRECTION ( 'NONE',  ( 1.000000000000000000, 0.000000000000000000, 0.000000000000000000 ) ) ;
#236 = CARTESIAN_POINT ( 'NONE',  ( -0.7216878364870326079, -1.250000000000000888, -3.000000000000000000 ) ) ;
#237 = EDGE_CURVE ( 'NONE', #176, #359, #54, .T. ) ;
#238 = APPROVAL_DATE_TIME ( #49, #431 ) ;
#239 = ADVANCED_FACE ( 'NONE', ( #41 ), #388, .T. ) ;
#240 = ORIENTED_EDGE ( 'NONE', *, *, #179, .T. ) ;
#241 = ADVANCED_FACE ( 'NONE', ( #185 ), #330, .T. ) ;
#242 = ORIENTED_EDGE ( 'NONE', *, *, #95, .T. ) ;
#243 = CIRCLE ( 'NONE', #378, 2.500000000000000444 ) ;
#244 = LINE ( 'NONE', #285, #116 ) ;
#245 = ORIENTED_EDGE ( 'NONE', *, *, #163, .T. ) ;
#246 = DIRECTION ( 'NONE',  ( -0.5000000000000001110, -0.8660254037844384856, 0.000000000000000000 ) ) ;
#247 = EDGE_CURVE ( 'NONE', #398, #429, #399, .T. ) ;
#248 = ORIENTED_EDGE ( 'NONE', *, *, #406, .F. ) ;
#249 = LINE ( 'NONE', #287, #340 ) ;
#250 = DIRECTION ( 'NONE',  ( 0.000000000000000000, 0.000000000000000000, 1.000000000000000000 ) ) ;
#251 = ORIENTED_EDGE ( 'NONE', *, *, #349, .F. ) ;
#252 = AXIS2_PLACEMENT_3D ( 'NONE', #113, #439, #233 ) ;
#253 = AXIS2_PLACEMENT_3D ( 'NONE', #440, #180, #115 ) ;
#254 = FACE_OUTER_BOUND ( 'NONE', #42, .T. ) ;
#255 = FACE_OUTER_BOUND ( 'NONE', #10, .T. ) ;
#256 = EDGE_LOOP ( 'NONE', ( #4, #459, #63, #208 ) ) ;
#257 = CARTESIAN_POINT ( 'NONE',  ( 0.000000000000000000, 0.000000000000000000, 0.000000000000000000 ) ) ;
#258 = VERTEX_POINT ( 'NONE', #38 ) ;
#259 = CARTESIAN_POINT ( 'NONE',  ( 1.443375672974065216, -2.168404344971008868E-16, -1.700000000000000178 ) ) ;
#260 = DIRECTION ( 'NONE',  ( 0.000000000000000000, -0.000000000000000000, -1.000000000000000000 ) ) ;
#261 = DIRECTION ( 'NONE',  ( -0.000000000000000000, -0.000000000000000000, -1.000000000000000000 ) ) ;
#262 = LOCAL_TIME ( 23, 16, 15.00000000000000000, #232 ) ;
#263 = CARTESIAN_POINT ( 'NONE',  ( 0.7216878364870330520, 1.250000000000000666, -3.000000000000000000 ) ) ;
#264 = CYLINDRICAL_SURFACE ( 'NONE', #252, 1.500000000000000222 ) ;
#265 = CALENDAR_DATE ( 2024, 26, 9 ) ;
#266 = CARTESIAN_POINT ( 'NONE',  ( 1.443375672974065216, -2.168404344971008868E-16, -3.000000000000000000 ) ) ;
#267 = CARTESIAN_POINT ( 'NONE',  ( -0.7216878364870326079, -1.250000000000000888, -1.700000000000000178 ) ) ;
#268 = LINE ( 'NONE', #441, #311 ) ;
#269 = ADVANCED_FACE ( 'NONE', ( #14, #433 ), #139, .F. ) ;
#270 = VECTOR ( 'NONE', #321, 1000.000000000000114 ) ;
#271 = DIRECTION ( 'NONE',  ( 1.000000000000000000, 0.000000000000000000, 0.000000000000000000 ) ) ;
#272 = CARTESIAN_POINT ( 'NONE',  ( -1.500000000000000222, 0.000000000000000000, 0.000000000000000000 ) ) ;
#273 = VERTEX_POINT ( 'NONE', #78 ) ;
#274 = COORDINATED_UNIVERSAL_TIME_OFFSET ( 9, 0, .AHEAD. ) ;
#275 = EDGE_LOOP ( 'NONE', ( #26, #286, #165, #376 ) ) ;
#276 = DATE_AND_TIME ( #416, #213 ) ;
#277 = ORIENTED_EDGE ( 'NONE', *, *, #2, .T. ) ;
#278 = EDGE_CURVE ( 'NONE', #186, #212, #327, .T. ) ;
#279 = VERTEX_POINT ( 'NONE', #356 ) ;
#280 = CARTESIAN_POINT ( 'NONE',  ( -1.443375672974065216, 4.336808689942017736E-16, -1.700000000000000178 ) ) ;
#281 = APPROVAL_ROLE ( '' ) ;
#282 = VECTOR ( 'NONE', #53, 1000.000000000000114 ) ;
#283 = ORIENTED_EDGE ( 'NONE', *, *, #349, .T. ) ;
#284 = AXIS2_PLACEMENT_3D ( 'NONE', #112, #436, #109 ) ;
#285 = CARTESIAN_POINT ( 'NONE',  ( 1.443375672974065216, -2.168404344971008868E-16, -3.000000000000000000 ) ) ;
#286 = ORIENTED_EDGE ( 'NONE', *, *, #328, .T. ) ;
#287 = CARTESIAN_POINT ( 'NONE',  ( 0.7216878364870323859, -1.250000000000000888, -3.000000000000000000 ) ) ;
#288 = CARTESIAN_POINT ( 'NONE',  ( 0.7216878364870323859, -1.250000000000000888, -1.700000000000000178 ) ) ;
#289 = ORIENTED_EDGE ( 'NONE', *, *, #140, .F. ) ;
#290 = LINE ( 'NONE', #259, #419 ) ;
#291 = ORIENTED_EDGE ( 'NONE', *, *, #237, .F. ) ;
#292 = AXIS2_PLACEMENT_3D ( 'NONE', #231, #82, #400 ) ;
#293 = VECTOR ( 'NONE', #183, 1000.000000000000000 ) ;
#294 = CARTESIAN_POINT ( 'NONE',  ( 1.443375672974065216, -2.168404344971008868E-16, -1.700000000000000178 ) ) ;
#295 = ORIENTED_EDGE ( 'NONE', *, *, #57, .F. ) ;
#296 = PLANE ( 'NONE',  #364 ) ;
#297 = CARTESIAN_POINT ( 'NONE',  ( 0.7216878364870330520, 1.250000000000000666, -1.700000000000000178 ) ) ;
#298 = CARTESIAN_POINT ( 'NONE',  ( -0.7216878364870326079, 1.250000000000000888, -3.000000000000000000 ) ) ;
#299 = LINE ( 'NONE', #263, #434 ) ;
#300 = DIRECTION ( 'NONE',  ( 1.000000000000000000, 0.000000000000000000, 0.000000000000000000 ) ) ;
#301 = CARTESIAN_POINT ( 'NONE',  ( -0.7216878364870326079, -1.250000000000000888, -1.700000000000000178 ) ) ;
#302 = PLANE ( 'NONE',  #229 ) ;
#303 = LINE ( 'NONE', #345, #94 ) ;
#304 = ADVANCED_FACE ( 'NONE', ( #12 ), #296, .F. ) ;
#305 = CARTESIAN_POINT ( 'NONE',  ( 0.000000000000000000, 0.000000000000000000, -3.000000000000000000 ) ) ;
#306 = APPLICATION_PROTOCOL_DEFINITION ( 'international standard', 'config_control_design', 1994, #192 ) ;
#307 = CC_DESIGN_SECURITY_CLASSIFICATION ( #20, ( #39 ) ) ;
#308 =( LENGTH_UNIT ( ) NAMED_UNIT ( * ) SI_UNIT ( .MILLI., .METRE. ) );
#309 = ORIENTED_EDGE ( 'NONE', *, *, #328, .F. ) ;
#310 = SHAPE_DEFINITION_REPRESENTATION ( #182, #100 ) ;
#311 = VECTOR ( 'NONE', #339, 1000.000000000000114 ) ;
#312 = AXIS2_PLACEMENT_3D ( 'NONE', #230, #393, #333 ) ;
#313 = CC_DESIGN_PERSON_AND_ORGANIZATION_ASSIGNMENT ( #375, #204, ( #392 ) ) ;
#314 = VERTEX_POINT ( 'NONE', #107 ) ;
#315 = CARTESIAN_POINT ( 'NONE',  ( 0.000000000000000000, 0.000000000000000000, -1.700000000000000178 ) ) ;
#316 = DATE_AND_TIME ( #172, #218 ) ;
#317 = ADVANCED_FACE ( 'NONE', ( #438, #255 ), #45, .T. ) ;
#318 = CARTESIAN_POINT ( 'NONE',  ( -0.7216878364870326079, 1.250000000000000888, -1.700000000000000178 ) ) ;
#319 = DATE_TIME_ROLE ( 'classification_date' ) ;
#320 = VERTEX_POINT ( 'NONE', #73 ) ;
#321 = DIRECTION ( 'NONE',  ( 0.5000000000000001110, 0.8660254037844385966, 0.000000000000000000 ) ) ;
#322 = SECURITY_CLASSIFICATION_LEVEL ( 'unclassified' ) ;
#323 = AXIS2_PLACEMENT_3D ( 'NONE', #34, #96, #382 ) ;
#324 = ORIENTED_EDGE ( 'NONE', *, *, #24, .T. ) ;
#325 = DIRECTION ( 'NONE',  ( 0.4999999999999996669, -0.8660254037844388186, 0.000000000000000000 ) ) ;
#326 = ORIENTED_EDGE ( 'NONE', *, *, #83, .T. ) ;
#327 = LINE ( 'NONE', #151, #450 ) ;
#328 = EDGE_CURVE ( 'NONE', #258, #176, #223, .T. ) ;
#329 = VERTEX_POINT ( 'NONE', #294 ) ;
#330 = CYLINDRICAL_SURFACE ( 'NONE', #187, 2.500000000000000444 ) ;
#331 = ORIENTED_EDGE ( 'NONE', *, *, #247, .F. ) ;
#332 = AXIS2_PLACEMENT_3D ( 'NONE', #297, #80, #368 ) ;
#333 = DIRECTION ( 'NONE',  ( 1.000000000000000000, 0.000000000000000000, -0.000000000000000000 ) ) ;
#334 = CARTESIAN_POINT ( 'NONE',  ( 0.000000000000000000, 0.000000000000000000, 20.00000000000000000 ) ) ;
#335 = EDGE_CURVE ( 'NONE', #320, #258, #199, .T. ) ;
#336 = DIRECTION ( 'NONE',  ( -0.5000000000000001110, -0.8660254037844384856, 0.000000000000000000 ) ) ;
#337 = EDGE_LOOP ( 'NONE', ( #66, #354, #421, #6 ) ) ;
#338 = EDGE_CURVE ( 'NONE', #314, #429, #117, .T. ) ;
#339 = DIRECTION ( 'NONE',  ( -0.4999999999999997780, 0.8660254037844388186, 0.000000000000000000 ) ) ;
#340 = VECTOR ( 'NONE', #136, 1000.000000000000000 ) ;
#341 = CARTESIAN_POINT ( 'NONE',  ( 0.000000000000000000, 0.000000000000000000, -3.000000000000000000 ) ) ;
#342 = DIRECTION ( 'NONE',  ( 1.000000000000000000, -1.502314598737158045E-16, 0.000000000000000000 ) ) ;
#343 = CC_DESIGN_PERSON_AND_ORGANIZATION_ASSIGNMENT ( #62, #175, ( #39 ) ) ;
#344 = PERSON_AND_ORGANIZATION ( #105, #29 ) ;
#345 = CARTESIAN_POINT ( 'NONE',  ( 0.7216878364870330520, 1.250000000000000666, -1.700000000000000178 ) ) ;
#346 = EDGE_CURVE ( 'NONE', #97, #212, #361, .T. ) ;
#347 = ORIENTED_EDGE ( 'NONE', *, *, #22, .T. ) ;
#348 = APPROVAL_PERSON_ORGANIZATION ( #119, #431, #413 ) ;
#349 = EDGE_CURVE ( 'NONE', #97, #329, #303, .T. ) ;
#350 = VERTEX_POINT ( 'NONE', #369 ) ;
#351 = COORDINATED_UNIVERSAL_TIME_OFFSET ( 9, 0, .AHEAD. ) ;
#352 = ORIENTED_EDGE ( 'NONE', *, *, #88, .T. ) ;
#353 = DIRECTION ( 'NONE',  ( 1.000000000000000000, 0.000000000000000000, 0.000000000000000000 ) ) ;
#354 = ORIENTED_EDGE ( 'NONE', *, *, #163, .F. ) ;
#355 =( GEOMETRIC_REPRESENTATION_CONTEXT ( 3 ) GLOBAL_UNCERTAINTY_ASSIGNED_CONTEXT ( ( #193 ) ) GLOBAL_UNIT_ASSIGNED_CONTEXT ( ( #308, #443, #81 ) ) REPRESENTATION_CONTEXT ( 'NONE', 'WORKASPACE' ) );
#356 = CARTESIAN_POINT ( 'NONE',  ( -2.500000000000000444, 3.061616997868383634E-16, -3.000000000000000000 ) ) ;
#357 = ORIENTED_EDGE ( 'NONE', *, *, #197, .T. ) ;
#358 = CARTESIAN_POINT ( 'NONE',  ( 1.500000000000000222, 1.836970198721030181E-16, 20.00000000000000000 ) ) ;
#359 = VERTEX_POINT ( 'NONE', #272 ) ;
#360 = CARTESIAN_POINT ( 'NONE',  ( 1.500000000000000222, 1.836970198721030181E-16, 0.000000000000000000 ) ) ;
#361 = LINE ( 'NONE', #188, #79 ) ;
#362 = ADVANCED_FACE ( 'NONE', ( #164 ), #125, .F. ) ;
#363 = CIRCLE ( 'NONE', #211, 2.500000000000000444 ) ;
#364 = AXIS2_PLACEMENT_3D ( 'NONE', #71, #76, #219 ) ;
#365 = CARTESIAN_POINT ( 'NONE',  ( 0.7216878364870330520, 1.250000000000000666, -3.000000000000000000 ) ) ;
#366 = FACE_OUTER_BOUND ( 'NONE', #428, .T. ) ;
#367 = CALENDAR_DATE ( 2024, 26, 9 ) ;
#368 = DIRECTION ( 'NONE',  ( -0.4999999999999996669, 0.8660254037844388186, 0.000000000000000000 ) ) ;
#369 = CARTESIAN_POINT ( 'NONE',  ( -1.443375672974065438, 3.252606517456513302E-16, -3.000000000000000000 ) ) ;
#370 = CARTESIAN_POINT ( 'NONE',  ( 0.7216878364870323859, -1.250000000000000888, -1.700000000000000178 ) ) ;
#371 = FACE_OUTER_BOUND ( 'NONE', #256, .T. ) ;
#372 = LOCAL_TIME ( 23, 16, 15.00000000000000000, #274 ) ;
#373 = DIRECTION ( 'NONE',  ( 0.000000000000000000, 0.000000000000000000, 1.000000000000000000 ) ) ;
#374 = APPLICATION_PROTOCOL_DEFINITION ( 'international standard', 'config_control_design', 1994, #134 ) ;
#375 = PERSON_AND_ORGANIZATION ( #105, #29 ) ;
#376 = ORIENTED_EDGE ( 'NONE', *, *, #88, .F. ) ;
#377 = VECTOR ( 'NONE', #90, 1000.000000000000000 ) ;
#378 = AXIS2_PLACEMENT_3D ( 'NONE', #341, #411, #407 ) ;
#379 = ORIENTED_EDGE ( 'NONE', *, *, #278, .F. ) ;
#380 = CC_DESIGN_PERSON_AND_ORGANIZATION_ASSIGNMENT ( #344, #160, ( #69 ) ) ;
#381 = PLANE ( 'NONE',  #64 ) ;
#382 = DIRECTION ( 'NONE',  ( -0.4999999999999999445, -0.8660254037844385966, 0.000000000000000000 ) ) ;
#383 = DIRECTION ( 'NONE',  ( -1.000000000000000000, 0.000000000000000000, -0.000000000000000000 ) ) ;
#384 = CLOSED_SHELL ( 'NONE', ( #414, #241, #239, #269, #317, #17, #166, #362, #11, #304, #33, #203, #111, #131 ) ) ;
#385 = ORIENTED_EDGE ( 'NONE', *, *, #143, .F. ) ;
#386 = LINE ( 'NONE', #448, #377 ) ;
#387 = VERTEX_POINT ( 'NONE', #404 ) ;
#388 = CYLINDRICAL_SURFACE ( 'NONE', #99, 2.500000000000000444 ) ;
#389 = CC_DESIGN_APPROVAL ( #431, ( #392 ) ) ;
#390 = EDGE_LOOP ( 'NONE', ( #309, #161, #352, #224 ) ) ;
#391 = DIRECTION ( 'NONE',  ( 1.000000000000000000, 0.000000000000000000, 0.000000000000000000 ) ) ;
#392 = PRODUCT_DEFINITION ( 'UNKNOWN', '', #39, #16 ) ;
#393 = DIRECTION ( 'NONE',  ( 0.000000000000000000, 0.000000000000000000, 1.000000000000000000 ) ) ;
#394 = ORIENTED_EDGE ( 'NONE', *, *, #2, .F. ) ;
#395 = PLANE ( 'NONE',  #177 ) ;
#396 = EDGE_CURVE ( 'NONE', #133, #97, #21, .T. ) ;
#397 = DIRECTION ( 'NONE',  ( 0.000000000000000000, 0.000000000000000000, 1.000000000000000000 ) ) ;
#398 = VERTEX_POINT ( 'NONE', #452 ) ;
#399 = LINE ( 'NONE', #3, #293 ) ;
#400 = DIRECTION ( 'NONE',  ( 1.000000000000000000, 0.000000000000000000, 0.000000000000000000 ) ) ;
#401 = VECTOR ( 'NONE', #157, 1000.000000000000000 ) ;
#402 = AXIS2_PLACEMENT_3D ( 'NONE', #267, #51, #445 ) ;
#403 = CARTESIAN_POINT ( 'NONE',  ( -2.500000000000000444, 3.061616997868383634E-16, -3.000000000000000000 ) ) ;
#404 = CARTESIAN_POINT ( 'NONE',  ( -1.443375672974065216, 4.336808689942017736E-16, -1.700000000000000178 ) ) ;
#405 = CARTESIAN_POINT ( 'NONE',  ( -0.7216878364870326079, -1.250000000000000888, -1.700000000000000178 ) ) ;
#406 = EDGE_CURVE ( 'NONE', #398, #279, #243, .T. ) ;
#407 = DIRECTION ( 'NONE',  ( 1.000000000000000000, 0.000000000000000000, 0.000000000000000000 ) ) ;
#408 = LINE ( 'NONE', #301, #9 ) ;
#409 = AXIS2_PLACEMENT_3D ( 'NONE', #84, #373, #235 ) ;
#410 = AXIS2_PLACEMENT_3D ( 'NONE', #201, #25, #85 ) ;
#411 = DIRECTION ( 'NONE',  ( 0.000000000000000000, 0.000000000000000000, 1.000000000000000000 ) ) ;
#412 = LINE ( 'NONE', #158, #205 ) ;
#413 = APPROVAL_ROLE ( '' ) ;
#414 = ADVANCED_FACE ( 'NONE', ( #156 ), #89, .T. ) ;
#415 = ORIENTED_EDGE ( 'NONE', *, *, #197, .F. ) ;
#416 = CALENDAR_DATE ( 2024, 26, 9 ) ;
#417 = ORIENTED_EDGE ( 'NONE', *, *, #83, .F. ) ;
#418 = CC_DESIGN_APPROVAL ( #210, ( #39 ) ) ;
#419 = VECTOR ( 'NONE', #336, 1000.000000000000227 ) ;
#420 = APPROVAL_STATUS ( 'not_yet_approved' ) ;
#421 = ORIENTED_EDGE ( 'NONE', *, *, #222, .F. ) ;
#422 = DIRECTION ( 'NONE',  ( 0.000000000000000000, 0.000000000000000000, -1.000000000000000000 ) ) ;
#423 = CC_DESIGN_PERSON_AND_ORGANIZATION_ASSIGNMENT ( #167, #214, ( #39 ) ) ;
#424 = DATE_TIME_ROLE ( 'creation_date' ) ;
#425 = ORIENTED_EDGE ( 'NONE', *, *, #247, .T. ) ;
#426 = DIRECTION ( 'NONE',  ( -0.000000000000000000, -0.000000000000000000, -1.000000000000000000 ) ) ;
#427 = VECTOR ( 'NONE', #261, 1000.000000000000000 ) ;
#428 = EDGE_LOOP ( 'NONE', ( #357, #394, #417, #245 ) ) ;
#429 = VERTEX_POINT ( 'NONE', #23 ) ;
#430 = DIRECTION ( 'NONE',  ( 1.000000000000000000, -1.502314598737158045E-16, 0.000000000000000000 ) ) ;
#431 = APPROVAL ( #451, 'UNSPECIFIED' ) ;
#432 = ORIENTED_EDGE ( 'NONE', *, *, #7, .F. ) ;
#433 = FACE_OUTER_BOUND ( 'NONE', #58, .T. ) ;
#434 = VECTOR ( 'NONE', #325, 1000.000000000000000 ) ;
#435 = ORIENTED_EDGE ( 'NONE', *, *, #396, .T. ) ;
#436 = DIRECTION ( 'NONE',  ( -0.000000000000000000, 0.000000000000000000, 1.000000000000000000 ) ) ;
#437 = ORIENTED_EDGE ( 'NONE', *, *, #338, .F. ) ;
#438 = FACE_BOUND ( 'NONE', #227, .T. ) ;
#439 = DIRECTION ( 'NONE',  ( -0.000000000000000000, -0.000000000000000000, -1.000000000000000000 ) ) ;
#440 = CARTESIAN_POINT ( 'NONE',  ( 0.000000000000000000, 0.000000000000000000, 0.000000000000000000 ) ) ;
#441 = CARTESIAN_POINT ( 'NONE',  ( -0.7216878364870326079, -1.250000000000000888, -1.700000000000000178 ) ) ;
#442 = VECTOR ( 'NONE', #221, 1000.000000000000114 ) ;
#443 =( NAMED_UNIT ( * ) PLANE_ANGLE_UNIT ( ) SI_UNIT ( $, .RADIAN. ) );
#444 = DIRECTION ( 'NONE',  ( 0.000000000000000000, -1.000000000000000000, 0.000000000000000000 ) ) ;
#445 = DIRECTION ( 'NONE',  ( 0.4999999999999997224, -0.8660254037844387076, 0.000000000000000000 ) ) ;
#446 = CARTESIAN_POINT ( 'NONE',  ( -0.7216878364870326079, -1.250000000000000888, -3.000000000000000000 ) ) ;
#447 = CARTESIAN_POINT ( 'NONE',  ( 0.000000000000000000, 0.000000000000000000, 0.000000000000000000 ) ) ;
#448 = CARTESIAN_POINT ( 'NONE',  ( 0.7216878364870323859, -1.250000000000000888, -1.700000000000000178 ) ) ;
#449 = DIRECTION ( 'NONE',  ( 0.000000000000000000, 0.000000000000000000, 1.000000000000000000 ) ) ;
#450 = VECTOR ( 'NONE', #430, 1000.000000000000000 ) ;
#451 = APPROVAL_STATUS ( 'not_yet_approved' ) ;
#452 = CARTESIAN_POINT ( 'NONE',  ( 2.500000000000000444, 0.000000000000000000, -3.000000000000000000 ) ) ;
#453 = ORIENTED_EDGE ( 'NONE', *, *, #189, .F. ) ;
#454 = ORIENTED_EDGE ( 'NONE', *, *, #65, .F. ) ;
#455 = VECTOR ( 'NONE', #122, 1000.000000000000000 ) ;
#456 = APPROVAL_ROLE ( '' ) ;
#457 = CALENDAR_DATE ( 2024, 26, 9 ) ;
#458 = LINE ( 'NONE', #280, #59 ) ;
#459 = ORIENTED_EDGE ( 'NONE', *, *, #346, .F. ) ;
#460 = APPROVAL_STATUS ( 'not_yet_approved' ) ;
#461 = VECTOR ( 'NONE', #200, 1000.000000000000000 ) ;
#462 = CC_DESIGN_APPROVAL ( #162, ( #20 ) ) ;
#463 = ORIENTED_EDGE ( 'NONE', *, *, #7, .T. ) ;
ENDSEC;
END-ISO-10303-21;
