ISO-10303-21;
HEADER;
FILE_DESCRIPTION (( 'STEP AP203' ),
    '1' );
FILE_NAME ('볼트 m4 15.STEP',
    '2024-09-26T14:15:58',
    ( '' ),
    ( '' ),
    'SwSTEP 2.0',
    'SolidWorks 2022',
    '' );
FILE_SCHEMA (( 'CONFIG_CONTROL_DESIGN' ));
ENDSEC;

DATA;
#1 = APPLICATION_CONTEXT ( 'configuration controlled 3d designs of mechanical parts and assemblies' ) ;
#2 = CARTESIAN_POINT ( 'NONE',  ( 0.000000000000000000, 0.000000000000000000, -2.000000000000000000 ) ) ;
#3 = CARTESIAN_POINT ( 'NONE',  ( 0.000000000000000000, 0.000000000000000000, -4.000000000000000000 ) ) ;
#4 = EDGE_CURVE ( 'NONE', #157, #9, #67, .T. ) ;
#5 = VECTOR ( 'NONE', #116, 1000.000000000000114 ) ;
#6 = DIRECTION ( 'NONE',  ( 0.7798351364424053189, 0.6259849518717323091, 0.000000000000000000 ) ) ;
#7 = CARTESIAN_POINT ( 'NONE',  ( 3.000000000000000444, 0.000000000000000000, -4.000000000000000000 ) ) ;
#8 = DATE_AND_TIME ( #48, #230 ) ;
#9 = VERTEX_POINT ( 'NONE', #62 ) ;
#10 = CARTESIAN_POINT ( 'NONE',  ( 2.000000000000000000, 2.449293598294706414E-16, 15.00000000000000000 ) ) ;
#11 = ORIENTED_EDGE ( 'NONE', *, *, #384, .T. ) ;
#12 = APPROVAL ( #18, 'UNSPECIFIED' ) ;
#13 = CYLINDRICAL_SURFACE ( 'NONE', #200, 3.000000000000000444 ) ;
#14 = VECTOR ( 'NONE', #404, 1000.000000000000227 ) ;
#15 = PERSON_AND_ORGANIZATION_ROLE ( 'classification_officer' ) ;
#16 = EDGE_LOOP ( 'NONE', ( #214, #36, #205, #446 ) ) ;
#17 = LINE ( 'NONE', #7, #418 ) ;
#18 = APPROVAL_STATUS ( 'not_yet_approved' ) ;
#19 = EDGE_LOOP ( 'NONE', ( #437, #376 ) ) ;
#20 = LINE ( 'NONE', #49, #129 ) ;
#21 = COORDINATED_UNIVERSAL_TIME_OFFSET ( 9, 0, .AHEAD. ) ;
#22 = VERTEX_POINT ( 'NONE', #181 ) ;
#23 = PRODUCT_RELATED_PRODUCT_CATEGORY ( 'detail', '', ( #327 ) ) ;
#24 = APPLICATION_PROTOCOL_DEFINITION ( 'international standard', 'config_control_design', 1994, #147 ) ;
#25 = ORIENTED_EDGE ( 'NONE', *, *, #338, .T. ) ;
#26 = AXIS2_PLACEMENT_3D ( 'NONE', #144, #460, #43 ) ;
#27 = DATE_AND_TIME ( #345, #120 ) ;
#28 = EDGE_LOOP ( 'NONE', ( #11, #196, #175, #50 ) ) ;
#29 = ORIENTED_EDGE ( 'NONE', *, *, #249, .T. ) ;
#30 = EDGE_CURVE ( 'NONE', #55, #117, #113, .T. ) ;
#31 = DIRECTION ( 'NONE',  ( 1.000000000000000000, 0.000000000000000000, 0.000000000000000000 ) ) ;
#32 = VERTEX_POINT ( 'NONE', #215 ) ;
#33 = VECTOR ( 'NONE', #383, 1000.000000000000000 ) ;
#34 = AXIS2_PLACEMENT_3D ( 'NONE', #103, #348, #452 ) ;
#35 = DIRECTION ( 'NONE',  ( 0.9320364389289020890, -0.3623645629869607365, 0.000000000000000000 ) ) ;
#36 = ORIENTED_EDGE ( 'NONE', *, *, #153, .F. ) ;
#37 = PERSON_AND_ORGANIZATION ( #70, #47 ) ;
#38 = CARTESIAN_POINT ( 'NONE',  ( -1.350714077845659888, -1.084237741415403411, -2.000000000000000000 ) ) ;
#39 = ADVANCED_FACE ( 'NONE', ( #344 ), #170, .F. ) ;
#40 = CARTESIAN_POINT ( 'NONE',  ( 0.2636203888847722387, -1.711871575371314957, -2.000000000000000000 ) ) ;
#41 = AXIS2_PLACEMENT_3D ( 'NONE', #366, #46, #88 ) ;
#42 = CARTESIAN_POINT ( 'NONE',  ( -1.350714077845659888, -1.084237741415403411, -4.000000000000000000 ) ) ;
#43 = DIRECTION ( 'NONE',  ( -0.1522013024864961872, 0.9883495148586931567, 0.000000000000000000 ) ) ;
#44 = FACE_OUTER_BOUND ( 'NONE', #387, .T. ) ;
#45 = CIRCLE ( 'NONE', #303, 2.000000000000000000 ) ;
#46 = DIRECTION ( 'NONE',  ( -0.9883495148586931567, -0.1522013024864962982, 0.000000000000000000 ) ) ;
#47 = ORGANIZATION ( 'UNSPECIFIED', 'UNSPECIFIED', '' ) ;
#48 = CALENDAR_DATE ( 2024, 26, 9 ) ;
#49 = CARTESIAN_POINT ( 'NONE',  ( 1.350714077845660110, 1.084237741415403189, -4.000000000000000000 ) ) ;
#50 = ORIENTED_EDGE ( 'NONE', *, *, #164, .T. ) ;
#51 = CC_DESIGN_PERSON_AND_ORGANIZATION_ASSIGNMENT ( #168, #131, ( #327 ) ) ;
#52 = CARTESIAN_POINT ( 'NONE',  ( -2.000000000000000000, 0.000000000000000000, 15.00000000000000000 ) ) ;
#53 = EDGE_LOOP ( 'NONE', ( #335, #232, #442, #25 ) ) ;
#54 = CYLINDRICAL_SURFACE ( 'NONE', #396, 2.000000000000000000 ) ;
#55 = VERTEX_POINT ( 'NONE', #322 ) ;
#56 =( GEOMETRIC_REPRESENTATION_CONTEXT ( 3 ) GLOBAL_UNCERTAINTY_ASSIGNED_CONTEXT ( ( #197 ) ) GLOBAL_UNIT_ASSIGNED_CONTEXT ( ( #213, #421, #321 ) ) REPRESENTATION_CONTEXT ( 'NONE', 'WORKASPACE' ) );
#57 = CC_DESIGN_DATE_AND_TIME_ASSIGNMENT ( #27, #172, ( #242 ) ) ;
#58 = DIRECTION ( 'NONE',  ( -0.000000000000000000, 0.000000000000000000, 1.000000000000000000 ) ) ;
#59 = EDGE_LOOP ( 'NONE', ( #199, #313, #244, #237 ) ) ;
#60 = DIRECTION ( 'NONE',  ( 0.000000000000000000, 0.000000000000000000, 1.000000000000000000 ) ) ;
#61 = DIRECTION ( 'NONE',  ( -0.000000000000000000, -0.000000000000000000, -1.000000000000000000 ) ) ;
#62 = CARTESIAN_POINT ( 'NONE',  ( 1.614334466730431794, -0.6276338339559117685, -4.000000000000000000 ) ) ;
#63 = FACE_OUTER_BOUND ( 'NONE', #19, .T. ) ;
#64 = VERTEX_POINT ( 'NONE', #351 ) ;
#65 = ADVANCED_FACE ( 'NONE', ( #451, #419 ), #355, .T. ) ;
#66 = PERSON_AND_ORGANIZATION ( #70, #47 ) ;
#67 = LINE ( 'NONE', #317, #352 ) ;
#68 = CARTESIAN_POINT ( 'NONE',  ( 0.2636203888847722387, -1.711871575371314957, -2.000000000000000000 ) ) ;
#69 = ORIENTED_EDGE ( 'NONE', *, *, #363, .F. ) ;
#70 = PERSON ( 'UNSPECIFIED', 'UNSPECIFIED', 'UNSPECIFIED', ('UNSPECIFIED'), ('UNSPECIFIED'), ('UNSPECIFIED') ) ;
#71 = PERSON_AND_ORGANIZATION_ROLE ( 'design_supplier' ) ;
#72 = EDGE_CURVE ( 'NONE', #22, #402, #415, .T. ) ;
#73 = LINE ( 'NONE', #38, #289 ) ;
#74 = DIRECTION ( 'NONE',  ( -0.1522013024864962705, 0.9883495148586930457, 0.000000000000000000 ) ) ;
#75 = PLANE ( 'NONE',  #26 ) ;
#76 = AXIS2_PLACEMENT_3D ( 'NONE', #277, #250, #453 ) ;
#77 = CARTESIAN_POINT ( 'NONE',  ( -3.000000000000000444, 3.673940397442060361E-16, -4.000000000000000000 ) ) ;
#78 = ADVANCED_FACE ( 'NONE', ( #102 ), #346, .F. ) ;
#79 = FACE_BOUND ( 'NONE', #286, .T. ) ;
#80 = PLANE ( 'NONE',  #41 ) ;
#81 = VECTOR ( 'NONE', #154, 1000.000000000000114 ) ;
#82 = DIRECTION ( 'NONE',  ( -0.9320364389289020890, 0.3623645629869608475, 0.000000000000000000 ) ) ;
#83 = APPROVAL_PERSON_ORGANIZATION ( #368, #12, #121 ) ;
#84 = ADVANCED_FACE ( 'NONE', ( #386 ), #223, .T. ) ;
#85 = ORIENTED_EDGE ( 'NONE', *, *, #72, .F. ) ;
#86 = DIRECTION ( 'NONE',  ( -0.000000000000000000, -0.000000000000000000, -1.000000000000000000 ) ) ;
#87 = VERTEX_POINT ( 'NONE', #291 ) ;
#88 = DIRECTION ( 'NONE',  ( 0.1522013024864962705, -0.9883495148586930457, 0.000000000000000000 ) ) ;
#89 = APPROVAL_DATE_TIME ( #8, #12 ) ;
#90 = ORIENTED_EDGE ( 'NONE', *, *, #367, .T. ) ;
#91 = ADVANCED_FACE ( 'NONE', ( #364 ), #75, .F. ) ;
#92 = FACE_OUTER_BOUND ( 'NONE', #340, .T. ) ;
#93 = AXIS2_PLACEMENT_3D ( 'NONE', #239, #372, #301 ) ;
#94 = VERTEX_POINT ( 'NONE', #220 ) ;
#95 = CC_DESIGN_APPROVAL ( #12, ( #202 ) ) ;
#96 = DIRECTION ( 'NONE',  ( -0.000000000000000000, 0.000000000000000000, 1.000000000000000000 ) ) ;
#97 = ORIENTED_EDGE ( 'NONE', *, *, #457, .T. ) ;
#98 = CARTESIAN_POINT ( 'NONE',  ( -1.350714077845659888, -1.084237741415403411, -2.000000000000000000 ) ) ;
#99 = DIRECTION ( 'NONE',  ( -0.9320364389289020890, 0.3623645629869607365, 0.000000000000000000 ) ) ;
#100 = CC_DESIGN_PERSON_AND_ORGANIZATION_ASSIGNMENT ( #458, #71, ( #290 ) ) ;
#101 = DIRECTION ( 'NONE',  ( -0.000000000000000000, 0.000000000000000000, 1.000000000000000000 ) ) ;
#102 = FACE_OUTER_BOUND ( 'NONE', #266, .T. ) ;
#103 = CARTESIAN_POINT ( 'NONE',  ( 0.000000000000000000, 0.000000000000000000, 0.000000000000000000 ) ) ;
#104 = ORIENTED_EDGE ( 'NONE', *, *, #420, .F. ) ;
#105 = ADVANCED_FACE ( 'NONE', ( #360 ), #358, .F. ) ;
#106 = COORDINATED_UNIVERSAL_TIME_OFFSET ( 9, 0, .AHEAD. ) ;
#107 = VERTEX_POINT ( 'NONE', #329 ) ;
#108 = VECTOR ( 'NONE', #35, 1000.000000000000114 ) ;
#109 = CARTESIAN_POINT ( 'NONE',  ( 1.614334466730431794, -0.6276338339559117685, -2.000000000000000000 ) ) ;
#110 = DIRECTION ( 'NONE',  ( 0.9320364389289020890, -0.3623645629869607365, 0.000000000000000000 ) ) ;
#111 = CARTESIAN_POINT ( 'NONE',  ( 0.000000000000000000, 0.000000000000000000, 15.00000000000000000 ) ) ;
#112 = EDGE_CURVE ( 'NONE', #342, #107, #256, .T. ) ;
#113 = CIRCLE ( 'NONE', #272, 3.000000000000000444 ) ;
#114 = PLANE ( 'NONE',  #462 ) ;
#115 = DIRECTION ( 'NONE',  ( -0.000000000000000000, -0.000000000000000000, -1.000000000000000000 ) ) ;
#116 = DIRECTION ( 'NONE',  ( 0.7798351364424053189, 0.6259849518717321981, 0.000000000000000000 ) ) ;
#117 = VERTEX_POINT ( 'NONE', #227 ) ;
#118 = AXIS2_PLACEMENT_3D ( 'NONE', #365, #257, #428 ) ;
#119 = DIRECTION ( 'NONE',  ( -1.000000000000000000, 0.000000000000000000, 0.000000000000000000 ) ) ;
#120 = LOCAL_TIME ( 23, 15, 58.00000000000000000, #245 ) ;
#121 = APPROVAL_ROLE ( '' ) ;
#122 = ORIENTED_EDGE ( 'NONE', *, *, #249, .F. ) ;
#123 = DESIGN_CONTEXT ( 'detailed design', #147, 'design' ) ;
#124 = CARTESIAN_POINT ( 'NONE',  ( -1.614334466730431794, 0.6276338339559117685, -4.000000000000000000 ) ) ;
#125 = ORIENTED_EDGE ( 'NONE', *, *, #287, .T. ) ;
#126 = DIRECTION ( 'NONE',  ( -0.000000000000000000, -0.000000000000000000, -1.000000000000000000 ) ) ;
#127 = ORIENTED_EDGE ( 'NONE', *, *, #441, .F. ) ;
#128 = CARTESIAN_POINT ( 'NONE',  ( -3.000000000000000444, 3.673940397442060361E-16, -4.000000000000000000 ) ) ;
#129 = VECTOR ( 'NONE', #445, 1000.000000000000000 ) ;
#130 = ORIENTED_EDGE ( 'NONE', *, *, #367, .F. ) ;
#131 = PERSON_AND_ORGANIZATION_ROLE ( 'design_owner' ) ;
#132 = ORIENTED_EDGE ( 'NONE', *, *, #30, .T. ) ;
#133 = EDGE_CURVE ( 'NONE', #302, #207, #410, .T. ) ;
#134 = LINE ( 'NONE', #449, #108 ) ;
#135 = CARTESIAN_POINT ( 'NONE',  ( 0.000000000000000000, 0.000000000000000000, 0.000000000000000000 ) ) ;
#136 = PLANE ( 'NONE',  #158 ) ;
#137 = DIRECTION ( 'NONE',  ( 1.000000000000000000, 0.000000000000000000, -0.000000000000000000 ) ) ;
#138 = CIRCLE ( 'NONE', #331, 2.000000000000000000 ) ;
#139 = LINE ( 'NONE', #318, #369 ) ;
#140 = ORIENTED_EDGE ( 'NONE', *, *, #226, .T. ) ;
#141 = APPROVAL ( #389, 'UNSPECIFIED' ) ;
#142 = CALENDAR_DATE ( 2024, 26, 9 ) ;
#143 = ORIENTED_EDGE ( 'NONE', *, *, #153, .T. ) ;
#144 = CARTESIAN_POINT ( 'NONE',  ( 1.350714077845660110, 1.084237741415403189, -2.000000000000000000 ) ) ;
#145 = LOCAL_TIME ( 23, 15, 58.00000000000000000, #21 ) ;
#146 = CARTESIAN_POINT ( 'NONE',  ( 2.000000000000000000, 2.449293598294706414E-16, 0.000000000000000000 ) ) ;
#147 = APPLICATION_CONTEXT ( 'configuration controlled 3d designs of mechanical parts and assemblies' ) ;
#148 = DIRECTION ( 'NONE',  ( 0.000000000000000000, 0.000000000000000000, -1.000000000000000000 ) ) ;
#149 = DIRECTION ( 'NONE',  ( -0.000000000000000000, -0.000000000000000000, -1.000000000000000000 ) ) ;
#150 = AXIS2_PLACEMENT_3D ( 'NONE', #279, #417, #99 ) ;
#151 = CC_DESIGN_APPROVAL ( #141, ( #242 ) ) ;
#152 = DIRECTION ( 'NONE',  ( 1.000000000000000000, 0.000000000000000000, 0.000000000000000000 ) ) ;
#153 = EDGE_CURVE ( 'NONE', #64, #32, #330, .T. ) ;
#154 = DIRECTION ( 'NONE',  ( -0.9320364389289020890, 0.3623645629869608475, 0.000000000000000000 ) ) ;
#155 = ORIENTED_EDGE ( 'NONE', *, *, #259, .F. ) ;
#156 = DIRECTION ( 'NONE',  ( 0.000000000000000000, 0.000000000000000000, 1.000000000000000000 ) ) ;
#157 = VERTEX_POINT ( 'NONE', #184 ) ;
#158 = AXIS2_PLACEMENT_3D ( 'NONE', #343, #416, #382 ) ;
#159 = VECTOR ( 'NONE', #222, 1000.000000000000114 ) ;
#160 = CARTESIAN_POINT ( 'NONE',  ( 0.2636203888847722387, -1.711871575371314957, -4.000000000000000000 ) ) ;
#161 = LOCAL_TIME ( 23, 15, 58.00000000000000000, #106 ) ;
#162 = ORIENTED_EDGE ( 'NONE', *, *, #176, .F. ) ;
#163 = DIRECTION ( 'NONE',  ( 0.000000000000000000, 0.000000000000000000, 1.000000000000000000 ) ) ;
#164 = EDGE_CURVE ( 'NONE', #390, #94, #393, .T. ) ;
#165 = ORIENTED_EDGE ( 'NONE', *, *, #271, .T. ) ;
#166 = DIRECTION ( 'NONE',  ( 0.1522013024864961872, -0.9883495148586931567, 0.000000000000000000 ) ) ;
#167 = VERTEX_POINT ( 'NONE', #146 ) ;
#168 = PERSON_AND_ORGANIZATION ( #70, #47 ) ;
#169 = VECTOR ( 'NONE', #110, 1000.000000000000114 ) ;
#170 = PLANE ( 'NONE',  #76 ) ;
#171 = ADVANCED_FACE ( 'NONE', ( #432 ), #114, .T. ) ;
#172 = DATE_TIME_ROLE ( 'creation_date' ) ;
#173 = EDGE_LOOP ( 'NONE', ( #97, #132 ) ) ;
#174 = MANIFOLD_SOLID_BREP ( '컷-돌출1', #294 ) ;
#175 = ORIENTED_EDGE ( 'NONE', *, *, #328, .F. ) ;
#176 = EDGE_CURVE ( 'NONE', #207, #302, #178, .T. ) ;
#177 = ORIENTED_EDGE ( 'NONE', *, *, #338, .F. ) ;
#178 = CIRCLE ( 'NONE', #447, 3.000000000000000444 ) ;
#179 = APPROVAL_PERSON_ORGANIZATION ( #66, #141, #216 ) ;
#180 = LINE ( 'NONE', #128, #311 ) ;
#181 = CARTESIAN_POINT ( 'NONE',  ( -1.350714077845659888, -1.084237741415403411, -2.000000000000000000 ) ) ;
#182 = PERSON_AND_ORGANIZATION ( #70, #47 ) ;
#183 = LINE ( 'NONE', #324, #159 ) ;
#184 = CARTESIAN_POINT ( 'NONE',  ( 1.614334466730431794, -0.6276338339559117685, -2.000000000000000000 ) ) ;
#185 = VECTOR ( 'NONE', #225, 1000.000000000000000 ) ;
#186 = CC_DESIGN_PERSON_AND_ORGANIZATION_ASSIGNMENT ( #182, #285, ( #290 ) ) ;
#187 = PLANE ( 'NONE',  #118 ) ;
#188 = DIRECTION ( 'NONE',  ( 0.6259849518717323091, -0.7798351364424053189, 0.000000000000000000 ) ) ;
#189 = LINE ( 'NONE', #434, #185 ) ;
#190 = CC_DESIGN_DATE_AND_TIME_ASSIGNMENT ( #435, #375, ( #202 ) ) ;
#191 = AXIS2_PLACEMENT_3D ( 'NONE', #109, #188, #6 ) ;
#192 = CARTESIAN_POINT ( 'NONE',  ( 1.350714077845660110, 1.084237741415403189, -2.000000000000000000 ) ) ;
#193 = COORDINATED_UNIVERSAL_TIME_OFFSET ( 9, 0, .AHEAD. ) ;
#194 = ORIENTED_EDGE ( 'NONE', *, *, #363, .T. ) ;
#195 = FACE_OUTER_BOUND ( 'NONE', #305, .T. ) ;
#196 = ORIENTED_EDGE ( 'NONE', *, *, #4, .F. ) ;
#197 = UNCERTAINTY_MEASURE_WITH_UNIT (LENGTH_MEASURE( 1.000000000000000082E-05 ), #213, 'distance_accuracy_value', 'NONE');
#198 = CARTESIAN_POINT ( 'NONE',  ( 0.000000000000000000, 0.000000000000000000, 15.00000000000000000 ) ) ;
#199 = ORIENTED_EDGE ( 'NONE', *, *, #308, .F. ) ;
#200 = AXIS2_PLACEMENT_3D ( 'NONE', #334, #156, #264 ) ;
#201 = ADVANCED_FACE ( 'NONE', ( #79, #44 ), #187, .F. ) ;
#202 = SECURITY_CLASSIFICATION ( '', '', #219 ) ;
#203 = CARTESIAN_POINT ( 'NONE',  ( 3.000000000000000444, 0.000000000000000000, -4.000000000000000000 ) ) ;
#204 = SHAPE_DEFINITION_REPRESENTATION ( #430, #221 ) ;
#205 = ORIENTED_EDGE ( 'NONE', *, *, #235, .F. ) ;
#206 = DIRECTION ( 'NONE',  ( 1.000000000000000000, 0.000000000000000000, 0.000000000000000000 ) ) ;
#207 = VERTEX_POINT ( 'NONE', #77 ) ;
#208 = PERSON_AND_ORGANIZATION ( #70, #47 ) ;
#209 = CARTESIAN_POINT ( 'NONE',  ( 0.000000000000000000, 0.000000000000000000, 0.000000000000000000 ) ) ;
#210 = EDGE_CURVE ( 'NONE', #268, #167, #189, .T. ) ;
#211 = VECTOR ( 'NONE', #357, 1000.000000000000000 ) ;
#212 = ORIENTED_EDGE ( 'NONE', *, *, #271, .F. ) ;
#213 =( LENGTH_UNIT ( ) NAMED_UNIT ( * ) SI_UNIT ( .MILLI., .METRE. ) );
#214 = ORIENTED_EDGE ( 'NONE', *, *, #259, .T. ) ;
#215 = CARTESIAN_POINT ( 'NONE',  ( -1.614334466730431794, 0.6276338339559117685, -4.000000000000000000 ) ) ;
#216 = APPROVAL_ROLE ( '' ) ;
#217 = ORIENTED_EDGE ( 'NONE', *, *, #254, .T. ) ;
#218 = AXIS2_PLACEMENT_3D ( 'NONE', #3, #397, #426 ) ;
#219 = SECURITY_CLASSIFICATION_LEVEL ( 'unclassified' ) ;
#220 = CARTESIAN_POINT ( 'NONE',  ( 1.350714077845660110, 1.084237741415403189, -4.000000000000000000 ) ) ;
#221 = ADVANCED_BREP_SHAPE_REPRESENTATION ( '볼트 m4 15', ( #174, #34 ), #56 ) ;
#222 = DIRECTION ( 'NONE',  ( -0.7798351364424053189, -0.6259849518717321981, 0.000000000000000000 ) ) ;
#223 = CYLINDRICAL_SURFACE ( 'NONE', #258, 2.000000000000000000 ) ;
#224 = VECTOR ( 'NONE', #149, 1000.000000000000000 ) ;
#225 = DIRECTION ( 'NONE',  ( -0.000000000000000000, -0.000000000000000000, -1.000000000000000000 ) ) ;
#226 = EDGE_CURVE ( 'NONE', #459, #87, #297, .T. ) ;
#227 = CARTESIAN_POINT ( 'NONE',  ( 3.000000000000000444, 0.000000000000000000, 0.000000000000000000 ) ) ;
#228 = LINE ( 'NONE', #341, #238 ) ;
#229 = AXIS2_PLACEMENT_3D ( 'NONE', #278, #276, #455 ) ;
#230 = LOCAL_TIME ( 23, 15, 58.00000000000000000, #193 ) ;
#231 = CARTESIAN_POINT ( 'NONE',  ( -2.000000000000000000, 0.000000000000000000, 0.000000000000000000 ) ) ;
#232 = ORIENTED_EDGE ( 'NONE', *, *, #413, .F. ) ;
#233 = CARTESIAN_POINT ( 'NONE',  ( -1.350714077845659888, -1.084237741415403411, -4.000000000000000000 ) ) ;
#234 = ORIENTED_EDGE ( 'NONE', *, *, #347, .F. ) ;
#235 = EDGE_CURVE ( 'NONE', #22, #64, #73, .T. ) ;
#236 = PLANE ( 'NONE',  #439 ) ;
#237 = ORIENTED_EDGE ( 'NONE', *, *, #300, .F. ) ;
#238 = VECTOR ( 'NONE', #82, 1000.000000000000114 ) ;
#239 = CARTESIAN_POINT ( 'NONE',  ( 0.000000000000000000, 0.000000000000000000, -4.000000000000000000 ) ) ;
#240 = CALENDAR_DATE ( 2024, 26, 9 ) ;
#241 = ORIENTED_EDGE ( 'NONE', *, *, #384, .F. ) ;
#242 = PRODUCT_DEFINITION ( 'UNKNOWN', '', #290, #123 ) ;
#243 = APPLICATION_PROTOCOL_DEFINITION ( 'international standard', 'config_control_design', 1994, #1 ) ;
#244 = ORIENTED_EDGE ( 'NONE', *, *, #448, .T. ) ;
#245 = COORDINATED_UNIVERSAL_TIME_OFFSET ( 9, 0, .AHEAD. ) ;
#246 = ORIENTED_EDGE ( 'NONE', *, *, #112, .F. ) ;
#247 = ORIENTED_EDGE ( 'NONE', *, *, #235, .T. ) ;
#248 = ORIENTED_EDGE ( 'NONE', *, *, #441, .T. ) ;
#249 = EDGE_CURVE ( 'NONE', #157, #459, #183, .T. ) ;
#250 = DIRECTION ( 'NONE',  ( -0.6259849518717323091, 0.7798351364424053189, 0.000000000000000000 ) ) ;
#251 = DATE_AND_TIME ( #142, #161 ) ;
#252 = ORIENTED_EDGE ( 'NONE', *, *, #30, .F. ) ;
#253 = AXIS2_PLACEMENT_3D ( 'NONE', #198, #101, #31 ) ;
#254 = EDGE_CURVE ( 'NONE', #342, #390, #325, .T. ) ;
#255 = DIRECTION ( 'NONE',  ( -1.000000000000000000, 0.000000000000000000, -0.000000000000000000 ) ) ;
#256 = LINE ( 'NONE', #326, #403 ) ;
#257 = DIRECTION ( 'NONE',  ( 0.000000000000000000, 0.000000000000000000, 1.000000000000000000 ) ) ;
#258 = AXIS2_PLACEMENT_3D ( 'NONE', #111, #429, #288 ) ;
#259 = EDGE_CURVE ( 'NONE', #402, #32, #395, .T. ) ;
#260 = DIRECTION ( 'NONE',  ( 0.000000000000000000, 0.000000000000000000, 1.000000000000000000 ) ) ;
#261 = CARTESIAN_POINT ( 'NONE',  ( 0.000000000000000000, 0.000000000000000000, 15.00000000000000000 ) ) ;
#262 = CARTESIAN_POINT ( 'NONE',  ( -0.2636203888847726828, 1.711871575371314513, -2.000000000000000000 ) ) ;
#263 = ORIENTED_EDGE ( 'NONE', *, *, #4, .T. ) ;
#264 = DIRECTION ( 'NONE',  ( 1.000000000000000000, 0.000000000000000000, 0.000000000000000000 ) ) ;
#265 = APPROVAL ( #423, 'UNSPECIFIED' ) ;
#266 = EDGE_LOOP ( 'NONE', ( #381, #284, #320, #315 ) ) ;
#267 = DIRECTION ( 'NONE',  ( 0.7798351364424053189, 0.6259849518717321981, 0.000000000000000000 ) ) ;
#268 = VERTEX_POINT ( 'NONE', #10 ) ;
#269 = DIRECTION ( 'NONE',  ( -0.000000000000000000, 0.000000000000000000, 1.000000000000000000 ) ) ;
#270 = ORIENTED_EDGE ( 'NONE', *, *, #347, .T. ) ;
#271 = EDGE_CURVE ( 'NONE', #302, #117, #17, .T. ) ;
#272 = AXIS2_PLACEMENT_3D ( 'NONE', #209, #282, #456 ) ;
#273 = APPROVAL_PERSON_ORGANIZATION ( #314, #265, #356 ) ;
#274 = CALENDAR_DATE ( 2024, 26, 9 ) ;
#275 = EDGE_LOOP ( 'NONE', ( #248, #299, #122, #263 ) ) ;
#276 = DIRECTION ( 'NONE',  ( 0.000000000000000000, 0.000000000000000000, 1.000000000000000000 ) ) ;
#277 = CARTESIAN_POINT ( 'NONE',  ( -1.614334466730431794, 0.6276338339559117685, -2.000000000000000000 ) ) ;
#278 = CARTESIAN_POINT ( 'NONE',  ( 0.000000000000000000, 0.000000000000000000, 0.000000000000000000 ) ) ;
#279 = CARTESIAN_POINT ( 'NONE',  ( -0.2636203888847726828, 1.711871575371314513, -2.000000000000000000 ) ) ;
#280 = VECTOR ( 'NONE', #126, 1000.000000000000000 ) ;
#281 = DIRECTION ( 'NONE',  ( 1.000000000000000000, 0.000000000000000000, 0.000000000000000000 ) ) ;
#282 = DIRECTION ( 'NONE',  ( 0.000000000000000000, 0.000000000000000000, 1.000000000000000000 ) ) ;
#283 = CARTESIAN_POINT ( 'NONE',  ( 0.000000000000000000, 0.000000000000000000, 0.000000000000000000 ) ) ;
#284 = ORIENTED_EDGE ( 'NONE', *, *, #164, .F. ) ;
#285 = PERSON_AND_ORGANIZATION_ROLE ( 'creator' ) ;
#286 = EDGE_LOOP ( 'NONE', ( #155, #310, #127, #241, #349, #234 ) ) ;
#287 = EDGE_CURVE ( 'NONE', #87, #402, #440, .T. ) ;
#288 = DIRECTION ( 'NONE',  ( -1.000000000000000000, 0.000000000000000000, 0.000000000000000000 ) ) ;
#289 = VECTOR ( 'NONE', #74, 1000.000000000000227 ) ;
#290 = PRODUCT_DEFINITION_FORMATION_WITH_SPECIFIED_SOURCE ( 'ANY', '', #327, .NOT_KNOWN. ) ;
#291 = CARTESIAN_POINT ( 'NONE',  ( 0.2636203888847722387, -1.711871575371314957, -4.000000000000000000 ) ) ;
#292 = DIRECTION ( 'NONE',  ( -0.000000000000000000, -0.000000000000000000, -1.000000000000000000 ) ) ;
#293 = CARTESIAN_POINT ( 'NONE',  ( 1.350714077845660110, 1.084237741415403189, -2.000000000000000000 ) ) ;
#294 = CLOSED_SHELL ( 'NONE', ( #84, #323, #399, #201, #65, #316, #461, #295, #105, #91, #78, #39, #388, #171 ) ) ;
#295 = ADVANCED_FACE ( 'NONE', ( #309 ), #236, .F. ) ;
#296 = LOCAL_TIME ( 23, 15, 58.00000000000000000, #353 ) ;
#297 = LINE ( 'NONE', #40, #385 ) ;
#298 = CARTESIAN_POINT ( 'NONE',  ( -2.000000000000000000, 0.000000000000000000, 15.00000000000000000 ) ) ;
#299 = ORIENTED_EDGE ( 'NONE', *, *, #226, .F. ) ;
#300 = EDGE_CURVE ( 'NONE', #409, #373, #443, .T. ) ;
#301 = DIRECTION ( 'NONE',  ( 1.000000000000000000, 0.000000000000000000, 0.000000000000000000 ) ) ;
#302 = VERTEX_POINT ( 'NONE', #203 ) ;
#303 = AXIS2_PLACEMENT_3D ( 'NONE', #378, #58, #206 ) ;
#304 = CARTESIAN_POINT ( 'NONE',  ( 0.000000000000000000, 0.000000000000000000, 15.00000000000000000 ) ) ;
#305 = EDGE_LOOP ( 'NONE', ( #104, #422, #165, #252 ) ) ;
#306 = CARTESIAN_POINT ( 'NONE',  ( 0.2636203888847722387, -1.711871575371314957, -2.000000000000000000 ) ) ;
#307 = ORIENTED_EDGE ( 'NONE', *, *, #420, .T. ) ;
#308 = EDGE_CURVE ( 'NONE', #268, #409, #138, .T. ) ;
#309 = FACE_OUTER_BOUND ( 'NONE', #337, .T. ) ;
#310 = ORIENTED_EDGE ( 'NONE', *, *, #287, .F. ) ;
#311 = VECTOR ( 'NONE', #60, 1000.000000000000000 ) ;
#312 = MECHANICAL_CONTEXT ( 'NONE', #1, 'mechanical' ) ;
#313 = ORIENTED_EDGE ( 'NONE', *, *, #210, .T. ) ;
#314 = PERSON_AND_ORGANIZATION ( #70, #47 ) ;
#315 = ORIENTED_EDGE ( 'NONE', *, *, #112, .T. ) ;
#316 = ADVANCED_FACE ( 'NONE', ( #374 ), #54, .T. ) ;
#317 = CARTESIAN_POINT ( 'NONE',  ( 1.614334466730431794, -0.6276338339559117685, -2.000000000000000000 ) ) ;
#318 = CARTESIAN_POINT ( 'NONE',  ( 1.614334466730431794, -0.6276338339559117685, -4.000000000000000000 ) ) ;
#319 = CC_DESIGN_APPROVAL ( #265, ( #290 ) ) ;
#320 = ORIENTED_EDGE ( 'NONE', *, *, #254, .F. ) ;
#321 =( NAMED_UNIT ( * ) SI_UNIT ( $, .STERADIAN. ) SOLID_ANGLE_UNIT ( ) );
#322 = CARTESIAN_POINT ( 'NONE',  ( -3.000000000000000444, 3.673940397442060361E-16, 0.000000000000000000 ) ) ;
#323 = ADVANCED_FACE ( 'NONE', ( #92 ), #436, .T. ) ;
#324 = CARTESIAN_POINT ( 'NONE',  ( 1.614334466730431794, -0.6276338339559117685, -2.000000000000000000 ) ) ;
#325 = LINE ( 'NONE', #463, #169 ) ;
#326 = CARTESIAN_POINT ( 'NONE',  ( -0.2636203888847726828, 1.711871575371314513, -2.000000000000000000 ) ) ;
#327 = PRODUCT ( '볼트 m4 15', '볼트 m4 15', '', ( #312 ) ) ;
#328 = EDGE_CURVE ( 'NONE', #390, #157, #339, .T. ) ;
#329 = CARTESIAN_POINT ( 'NONE',  ( -0.2636203888847726828, 1.711871575371314513, -4.000000000000000000 ) ) ;
#330 = LINE ( 'NONE', #398, #224 ) ;
#331 = AXIS2_PLACEMENT_3D ( 'NONE', #304, #269, #408 ) ;
#332 = LINE ( 'NONE', #400, #5 ) ;
#333 = ORIENTED_EDGE ( 'NONE', *, *, #133, .F. ) ;
#334 = CARTESIAN_POINT ( 'NONE',  ( 0.000000000000000000, 0.000000000000000000, -4.000000000000000000 ) ) ;
#335 = ORIENTED_EDGE ( 'NONE', *, *, #210, .F. ) ;
#336 = CARTESIAN_POINT ( 'NONE',  ( 1.350714077845660110, 1.084237741415403189, -2.000000000000000000 ) ) ;
#337 = EDGE_LOOP ( 'NONE', ( #125, #85, #69, #140 ) ) ;
#338 = EDGE_CURVE ( 'NONE', #373, #167, #45, .T. ) ;
#339 = LINE ( 'NONE', #336, #391 ) ;
#340 = EDGE_LOOP ( 'NONE', ( #371, #307, #444, #212 ) ) ;
#341 = CARTESIAN_POINT ( 'NONE',  ( 0.2636203888847722387, -1.711871575371314957, -2.000000000000000000 ) ) ;
#342 = VERTEX_POINT ( 'NONE', #262 ) ;
#343 = CARTESIAN_POINT ( 'NONE',  ( 0.000000000000000000, 0.000000000000000000, 15.00000000000000000 ) ) ;
#344 = FACE_OUTER_BOUND ( 'NONE', #424, .T. ) ;
#345 = CALENDAR_DATE ( 2024, 26, 9 ) ;
#346 = PLANE ( 'NONE',  #150 ) ;
#347 = EDGE_CURVE ( 'NONE', #32, #107, #401, .T. ) ;
#348 = DIRECTION ( 'NONE',  ( 0.000000000000000000, 0.000000000000000000, 1.000000000000000000 ) ) ;
#349 = ORIENTED_EDGE ( 'NONE', *, *, #433, .F. ) ;
#350 = DIRECTION ( 'NONE',  ( -0.7798351364424053189, -0.6259849518717321981, 0.000000000000000000 ) ) ;
#351 = CARTESIAN_POINT ( 'NONE',  ( -1.614334466730431794, 0.6276338339559117685, -2.000000000000000000 ) ) ;
#352 = VECTOR ( 'NONE', #61, 1000.000000000000000 ) ;
#353 = COORDINATED_UNIVERSAL_TIME_OFFSET ( 9, 0, .AHEAD. ) ;
#354 = CC_DESIGN_PERSON_AND_ORGANIZATION_ASSIGNMENT ( #37, #15, ( #202 ) ) ;
#355 = PLANE ( 'NONE',  #377 ) ;
#356 = APPROVAL_ROLE ( '' ) ;
#357 = DIRECTION ( 'NONE',  ( -0.000000000000000000, -0.000000000000000000, -1.000000000000000000 ) ) ;
#358 = PLANE ( 'NONE',  #191 ) ;
#359 = CIRCLE ( 'NONE', #229, 3.000000000000000444 ) ;
#360 = FACE_OUTER_BOUND ( 'NONE', #275, .T. ) ;
#361 = AXIS2_PLACEMENT_3D ( 'NONE', #283, #96, #281 ) ;
#362 = CC_DESIGN_SECURITY_CLASSIFICATION ( #202, ( #290 ) ) ;
#363 = EDGE_CURVE ( 'NONE', #459, #22, #228, .T. ) ;
#364 = FACE_OUTER_BOUND ( 'NONE', #28, .T. ) ;
#365 = CARTESIAN_POINT ( 'NONE',  ( 0.000000000000000000, 0.000000000000000000, -4.000000000000000000 ) ) ;
#366 = CARTESIAN_POINT ( 'NONE',  ( -1.350714077845659888, -1.084237741415403411, -2.000000000000000000 ) ) ;
#367 = EDGE_CURVE ( 'NONE', #64, #342, #332, .T. ) ;
#368 = PERSON_AND_ORGANIZATION ( #70, #47 ) ;
#369 = VECTOR ( 'NONE', #350, 1000.000000000000114 ) ;
#370 = DIRECTION ( 'NONE',  ( 0.9320364389289020890, -0.3623645629869608475, 0.000000000000000000 ) ) ;
#371 = ORIENTED_EDGE ( 'NONE', *, *, #133, .T. ) ;
#372 = DIRECTION ( 'NONE',  ( 0.000000000000000000, 0.000000000000000000, 1.000000000000000000 ) ) ;
#373 = VERTEX_POINT ( 'NONE', #231 ) ;
#374 = FACE_OUTER_BOUND ( 'NONE', #53, .T. ) ;
#375 = DATE_TIME_ROLE ( 'classification_date' ) ;
#376 = ORIENTED_EDGE ( 'NONE', *, *, #308, .T. ) ;
#377 = AXIS2_PLACEMENT_3D ( 'NONE', #135, #450, #137 ) ;
#378 = CARTESIAN_POINT ( 'NONE',  ( 0.000000000000000000, 0.000000000000000000, 0.000000000000000000 ) ) ;
#379 = EDGE_LOOP ( 'NONE', ( #194, #247, #90, #217, #412, #29 ) ) ;
#380 = APPROVAL_DATE_TIME ( #411, #141 ) ;
#381 = ORIENTED_EDGE ( 'NONE', *, *, #433, .T. ) ;
#382 = DIRECTION ( 'NONE',  ( 1.000000000000000000, 0.000000000000000000, 0.000000000000000000 ) ) ;
#383 = DIRECTION ( 'NONE',  ( -0.000000000000000000, -0.000000000000000000, -1.000000000000000000 ) ) ;
#384 = EDGE_CURVE ( 'NONE', #94, #9, #20, .T. ) ;
#385 = VECTOR ( 'NONE', #115, 1000.000000000000000 ) ;
#386 = FACE_OUTER_BOUND ( 'NONE', #59, .T. ) ;
#387 = EDGE_LOOP ( 'NONE', ( #333, #162 ) ) ;
#388 = ADVANCED_FACE ( 'NONE', ( #406 ), #80, .F. ) ;
#389 = APPROVAL_STATUS ( 'not_yet_approved' ) ;
#390 = VERTEX_POINT ( 'NONE', #192 ) ;
#391 = VECTOR ( 'NONE', #166, 1000.000000000000000 ) ;
#392 = APPROVAL_DATE_TIME ( #251, #265 ) ;
#393 = LINE ( 'NONE', #293, #211 ) ;
#394 = CARTESIAN_POINT ( 'NONE',  ( 0.000000000000000000, 0.000000000000000000, -4.000000000000000000 ) ) ;
#395 = LINE ( 'NONE', #42, #14 ) ;
#396 = AXIS2_PLACEMENT_3D ( 'NONE', #261, #86, #119 ) ;
#397 = DIRECTION ( 'NONE',  ( 0.000000000000000000, 0.000000000000000000, 1.000000000000000000 ) ) ;
#398 = CARTESIAN_POINT ( 'NONE',  ( -1.614334466730431794, 0.6276338339559117685, -2.000000000000000000 ) ) ;
#399 = ADVANCED_FACE ( 'NONE', ( #195 ), #13, .T. ) ;
#400 = CARTESIAN_POINT ( 'NONE',  ( -1.614334466730431794, 0.6276338339559117685, -2.000000000000000000 ) ) ;
#401 = LINE ( 'NONE', #124, #431 ) ;
#402 = VERTEX_POINT ( 'NONE', #233 ) ;
#403 = VECTOR ( 'NONE', #292, 1000.000000000000000 ) ;
#404 = DIRECTION ( 'NONE',  ( -0.1522013024864962705, 0.9883495148586930457, 0.000000000000000000 ) ) ;
#405 = ORIENTED_EDGE ( 'NONE', *, *, #448, .F. ) ;
#406 = FACE_OUTER_BOUND ( 'NONE', #16, .T. ) ;
#407 = EDGE_LOOP ( 'NONE', ( #177, #405 ) ) ;
#408 = DIRECTION ( 'NONE',  ( 1.000000000000000000, 0.000000000000000000, 0.000000000000000000 ) ) ;
#409 = VERTEX_POINT ( 'NONE', #52 ) ;
#410 = CIRCLE ( 'NONE', #218, 3.000000000000000444 ) ;
#411 = DATE_AND_TIME ( #274, #296 ) ;
#412 = ORIENTED_EDGE ( 'NONE', *, *, #328, .T. ) ;
#413 = EDGE_CURVE ( 'NONE', #409, #268, #454, .T. ) ;
#414 = PERSON_AND_ORGANIZATION_ROLE ( 'creator' ) ;
#415 = LINE ( 'NONE', #98, #33 ) ;
#416 = DIRECTION ( 'NONE',  ( -0.000000000000000000, 0.000000000000000000, 1.000000000000000000 ) ) ;
#417 = DIRECTION ( 'NONE',  ( 0.3623645629869607365, 0.9320364389289020890, -0.000000000000000000 ) ) ;
#418 = VECTOR ( 'NONE', #163, 1000.000000000000000 ) ;
#419 = FACE_OUTER_BOUND ( 'NONE', #173, .T. ) ;
#420 = EDGE_CURVE ( 'NONE', #207, #55, #180, .T. ) ;
#421 =( NAMED_UNIT ( * ) PLANE_ANGLE_UNIT ( ) SI_UNIT ( $, .RADIAN. ) );
#422 = ORIENTED_EDGE ( 'NONE', *, *, #176, .T. ) ;
#423 = APPROVAL_STATUS ( 'not_yet_approved' ) ;
#424 = EDGE_LOOP ( 'NONE', ( #270, #246, #130, #143 ) ) ;
#425 = CIRCLE ( 'NONE', #361, 2.000000000000000000 ) ;
#426 = DIRECTION ( 'NONE',  ( 1.000000000000000000, 0.000000000000000000, 0.000000000000000000 ) ) ;
#427 = CC_DESIGN_PERSON_AND_ORGANIZATION_ASSIGNMENT ( #208, #414, ( #242 ) ) ;
#428 = DIRECTION ( 'NONE',  ( 1.000000000000000000, 0.000000000000000000, -0.000000000000000000 ) ) ;
#429 = DIRECTION ( 'NONE',  ( -0.000000000000000000, -0.000000000000000000, -1.000000000000000000 ) ) ;
#430 = PRODUCT_DEFINITION_SHAPE ( 'NONE', 'NONE',  #242 ) ;
#431 = VECTOR ( 'NONE', #267, 1000.000000000000114 ) ;
#432 = FACE_OUTER_BOUND ( 'NONE', #379, .T. ) ;
#433 = EDGE_CURVE ( 'NONE', #107, #94, #134, .T. ) ;
#434 = CARTESIAN_POINT ( 'NONE',  ( 2.000000000000000000, 2.449293598294706414E-16, 15.00000000000000000 ) ) ;
#435 = DATE_AND_TIME ( #240, #145 ) ;
#436 = CYLINDRICAL_SURFACE ( 'NONE', #93, 3.000000000000000444 ) ;
#437 = ORIENTED_EDGE ( 'NONE', *, *, #413, .T. ) ;
#438 = DIRECTION ( 'NONE',  ( -0.3623645629869608475, -0.9320364389289020890, 0.000000000000000000 ) ) ;
#439 = AXIS2_PLACEMENT_3D ( 'NONE', #306, #438, #370 ) ;
#440 = LINE ( 'NONE', #160, #81 ) ;
#441 = EDGE_CURVE ( 'NONE', #9, #87, #139, .T. ) ;
#442 = ORIENTED_EDGE ( 'NONE', *, *, #300, .T. ) ;
#443 = LINE ( 'NONE', #298, #280 ) ;
#444 = ORIENTED_EDGE ( 'NONE', *, *, #457, .F. ) ;
#445 = DIRECTION ( 'NONE',  ( 0.1522013024864961872, -0.9883495148586931567, 0.000000000000000000 ) ) ;
#446 = ORIENTED_EDGE ( 'NONE', *, *, #72, .T. ) ;
#447 = AXIS2_PLACEMENT_3D ( 'NONE', #394, #260, #152 ) ;
#448 = EDGE_CURVE ( 'NONE', #167, #373, #425, .T. ) ;
#449 = CARTESIAN_POINT ( 'NONE',  ( -0.2636203888847726828, 1.711871575371314513, -4.000000000000000000 ) ) ;
#450 = DIRECTION ( 'NONE',  ( 0.000000000000000000, 0.000000000000000000, 1.000000000000000000 ) ) ;
#451 = FACE_BOUND ( 'NONE', #407, .T. ) ;
#452 = DIRECTION ( 'NONE',  ( 1.000000000000000000, 0.000000000000000000, 0.000000000000000000 ) ) ;
#453 = DIRECTION ( 'NONE',  ( -0.7798351364424053189, -0.6259849518717323091, 0.000000000000000000 ) ) ;
#454 = CIRCLE ( 'NONE', #253, 2.000000000000000000 ) ;
#455 = DIRECTION ( 'NONE',  ( 1.000000000000000000, 0.000000000000000000, 0.000000000000000000 ) ) ;
#456 = DIRECTION ( 'NONE',  ( 1.000000000000000000, 0.000000000000000000, 0.000000000000000000 ) ) ;
#457 = EDGE_CURVE ( 'NONE', #117, #55, #359, .T. ) ;
#458 = PERSON_AND_ORGANIZATION ( #70, #47 ) ;
#459 = VERTEX_POINT ( 'NONE', #68 ) ;
#460 = DIRECTION ( 'NONE',  ( 0.9883495148586931567, 0.1522013024864961872, -0.000000000000000000 ) ) ;
#461 = ADVANCED_FACE ( 'NONE', ( #63 ), #136, .T. ) ;
#462 = AXIS2_PLACEMENT_3D ( 'NONE', #2, #148, #255 ) ;
#463 = CARTESIAN_POINT ( 'NONE',  ( -0.2636203888847726828, 1.711871575371314513, -2.000000000000000000 ) ) ;
ENDSEC;
END-ISO-10303-21;
