ISO-10303-21;
HEADER;
FILE_DESCRIPTION (( 'STEP AP203' ),
    '1' );
FILE_NAME ('볼트 m3 15.STEP',
    '2024-09-26T14:16:22',
    ( '' ),
    ( '' ),
    'SwSTEP 2.0',
    'SolidWorks 2022',
    '' );
FILE_SCHEMA (( 'CONFIG_CONTROL_DESIGN' ));
ENDSEC;

DATA;
#1 = PERSON_AND_ORGANIZATION ( #340, #431 ) ;
#2 = CARTESIAN_POINT ( 'NONE',  ( 0.7216878364870323859, -1.250000000000000888, -3.000000000000000000 ) ) ;
#3 = AXIS2_PLACEMENT_3D ( 'NONE', #233, #369, #300 ) ;
#4 = ORIENTED_EDGE ( 'NONE', *, *, #254, .F. ) ;
#5 = EDGE_CURVE ( 'NONE', #355, #327, #338, .T. ) ;
#6 = DIRECTION ( 'NONE',  ( 0.000000000000000000, 0.000000000000000000, 1.000000000000000000 ) ) ;
#7 = ORIENTED_EDGE ( 'NONE', *, *, #241, .F. ) ;
#8 = PLANE ( 'NONE',  #298 ) ;
#9 = EDGE_LOOP ( 'NONE', ( #452, #264, #7, #301, #189, #236 ) ) ;
#10 = CARTESIAN_POINT ( 'NONE',  ( 0.000000000000000000, 0.000000000000000000, -1.700000000000000178 ) ) ;
#11 = EDGE_CURVE ( 'NONE', #199, #44, #451, .T. ) ;
#12 = DIRECTION ( 'NONE',  ( 1.000000000000000000, 0.000000000000000000, 0.000000000000000000 ) ) ;
#13 = EDGE_LOOP ( 'NONE', ( #49, #411 ) ) ;
#14 = CARTESIAN_POINT ( 'NONE',  ( 1.500000000000000222, 1.836970198721030181E-16, 15.00000000000000000 ) ) ;
#15 = LINE ( 'NONE', #243, #460 ) ;
#16 = EDGE_CURVE ( 'NONE', #258, #336, #459, .T. ) ;
#17 = CYLINDRICAL_SURFACE ( 'NONE', #20, 1.500000000000000222 ) ;
#18 = ORIENTED_EDGE ( 'NONE', *, *, #208, .F. ) ;
#19 = ADVANCED_FACE ( 'NONE', ( #214 ), #133, .T. ) ;
#20 = AXIS2_PLACEMENT_3D ( 'NONE', #92, #121, #304 ) ;
#21 = DIRECTION ( 'NONE',  ( -0.4999999999999996669, 0.8660254037844388186, 0.000000000000000000 ) ) ;
#22 = SECURITY_CLASSIFICATION ( '', '', #148 ) ;
#23 = ORIENTED_EDGE ( 'NONE', *, *, #5, .F. ) ;
#24 = DIRECTION ( 'NONE',  ( 0.000000000000000000, -1.000000000000000000, 0.000000000000000000 ) ) ;
#25 = DIRECTION ( 'NONE',  ( 1.000000000000000000, 0.000000000000000000, 0.000000000000000000 ) ) ;
#26 = EDGE_CURVE ( 'NONE', #46, #75, #15, .T. ) ;
#27 = AXIS2_PLACEMENT_3D ( 'NONE', #149, #357, #183 ) ;
#28 =( NAMED_UNIT ( * ) SI_UNIT ( $, .STERADIAN. ) SOLID_ANGLE_UNIT ( ) );
#29 = EDGE_LOOP ( 'NONE', ( #316, #417, #387, #378 ) ) ;
#30 = EDGE_CURVE ( 'NONE', #40, #199, #447, .T. ) ;
#31 = PERSON_AND_ORGANIZATION ( #340, #431 ) ;
#32 = ORIENTED_EDGE ( 'NONE', *, *, #80, .F. ) ;
#33 = COORDINATED_UNIVERSAL_TIME_OFFSET ( 9, 0, .AHEAD. ) ;
#34 = CARTESIAN_POINT ( 'NONE',  ( -0.7216878364870326079, -1.250000000000000888, -3.000000000000000000 ) ) ;
#35 = VECTOR ( 'NONE', #308, 1000.000000000000000 ) ;
#36 = DIRECTION ( 'NONE',  ( 0.000000000000000000, 0.000000000000000000, 1.000000000000000000 ) ) ;
#37 = ADVANCED_FACE ( 'NONE', ( #181 ), #326, .F. ) ;
#38 = CARTESIAN_POINT ( 'NONE',  ( 0.000000000000000000, 0.000000000000000000, 15.00000000000000000 ) ) ;
#39 = ADVANCED_FACE ( 'NONE', ( #257 ), #362, .T. ) ;
#40 = VERTEX_POINT ( 'NONE', #396 ) ;
#41 = DATE_AND_TIME ( #325, #450 ) ;
#42 = DIRECTION ( 'NONE',  ( 0.000000000000000000, 0.000000000000000000, 1.000000000000000000 ) ) ;
#43 = VECTOR ( 'NONE', #48, 1000.000000000000000 ) ;
#44 = VERTEX_POINT ( 'NONE', #190 ) ;
#45 = CARTESIAN_POINT ( 'NONE',  ( 0.000000000000000000, 0.000000000000000000, -3.000000000000000000 ) ) ;
#46 = VERTEX_POINT ( 'NONE', #113 ) ;
#47 = FACE_OUTER_BOUND ( 'NONE', #281, .T. ) ;
#48 = DIRECTION ( 'NONE',  ( 0.000000000000000000, 0.000000000000000000, 1.000000000000000000 ) ) ;
#49 = ORIENTED_EDGE ( 'NONE', *, *, #458, .T. ) ;
#50 = FACE_OUTER_BOUND ( 'NONE', #291, .T. ) ;
#51 = EDGE_CURVE ( 'NONE', #368, #125, #282, .T. ) ;
#52 = EDGE_LOOP ( 'NONE', ( #232, #138, #457, #203 ) ) ;
#53 = DIRECTION ( 'NONE',  ( 0.000000000000000000, 0.000000000000000000, -1.000000000000000000 ) ) ;
#54 = ORIENTED_EDGE ( 'NONE', *, *, #95, .F. ) ;
#55 = CARTESIAN_POINT ( 'NONE',  ( 0.7216878364870330520, 1.250000000000000666, -1.700000000000000178 ) ) ;
#56 = DIRECTION ( 'NONE',  ( -1.000000000000000000, 0.000000000000000000, 0.000000000000000000 ) ) ;
#57 = VECTOR ( 'NONE', #177, 1000.000000000000000 ) ;
#58 = APPROVAL_PERSON_ORGANIZATION ( #256, #91, #425 ) ;
#59 = DIRECTION ( 'NONE',  ( -0.000000000000000000, -0.000000000000000000, -1.000000000000000000 ) ) ;
#60 = ADVANCED_FACE ( 'NONE', ( #394 ), #182, .T. ) ;
#61 = CC_DESIGN_DATE_AND_TIME_ASSIGNMENT ( #317, #109, ( #22 ) ) ;
#62 = CARTESIAN_POINT ( 'NONE',  ( 0.000000000000000000, 0.000000000000000000, 15.00000000000000000 ) ) ;
#63 = LOCAL_TIME ( 23, 16, 22.00000000000000000, #224 ) ;
#64 = ORIENTED_EDGE ( 'NONE', *, *, #424, .T. ) ;
#65 = PERSON_AND_ORGANIZATION_ROLE ( 'design_owner' ) ;
#66 = ORIENTED_EDGE ( 'NONE', *, *, #352, .T. ) ;
#67 = SHAPE_DEFINITION_REPRESENTATION ( #384, #427 ) ;
#68 = DIRECTION ( 'NONE',  ( 1.000000000000000000, 0.000000000000000000, -0.000000000000000000 ) ) ;
#69 = CALENDAR_DATE ( 2024, 26, 9 ) ;
#70 = DIRECTION ( 'NONE',  ( 1.000000000000000000, 0.000000000000000000, 0.000000000000000000 ) ) ;
#71 =( GEOMETRIC_REPRESENTATION_CONTEXT ( 3 ) GLOBAL_UNCERTAINTY_ASSIGNED_CONTEXT ( ( #162 ) ) GLOBAL_UNIT_ASSIGNED_CONTEXT ( ( #382, #380, #28 ) ) REPRESENTATION_CONTEXT ( 'NONE', 'WORKASPACE' ) );
#72 = EDGE_CURVE ( 'NONE', #346, #46, #323, .T. ) ;
#73 = DIRECTION ( 'NONE',  ( 1.000000000000000000, 0.000000000000000000, 0.000000000000000000 ) ) ;
#74 = DIRECTION ( 'NONE',  ( 1.000000000000000000, 0.000000000000000000, 0.000000000000000000 ) ) ;
#75 = VERTEX_POINT ( 'NONE', #2 ) ;
#76 = PERSON_AND_ORGANIZATION ( #340, #431 ) ;
#77 = FACE_BOUND ( 'NONE', #9, .T. ) ;
#78 = AXIS2_PLACEMENT_3D ( 'NONE', #132, #198, #163 ) ;
#79 = LOCAL_TIME ( 23, 16, 22.00000000000000000, #141 ) ;
#80 = EDGE_CURVE ( 'NONE', #179, #327, #231, .T. ) ;
#81 = PLANE ( 'NONE',  #78 ) ;
#82 = ORIENTED_EDGE ( 'NONE', *, *, #100, .T. ) ;
#83 = CARTESIAN_POINT ( 'NONE',  ( 0.7216878364870323859, -1.250000000000000888, -3.000000000000000000 ) ) ;
#84 = ORIENTED_EDGE ( 'NONE', *, *, #324, .F. ) ;
#85 = CARTESIAN_POINT ( 'NONE',  ( 2.500000000000000444, 0.000000000000000000, -3.000000000000000000 ) ) ;
#86 = PRODUCT_DEFINITION ( 'UNKNOWN', '', #169, #402 ) ;
#87 = EDGE_LOOP ( 'NONE', ( #197, #268 ) ) ;
#88 = VECTOR ( 'NONE', #218, 1000.000000000000000 ) ;
#89 = DIRECTION ( 'NONE',  ( -0.000000000000000000, -0.000000000000000000, -1.000000000000000000 ) ) ;
#90 = ORIENTED_EDGE ( 'NONE', *, *, #5, .T. ) ;
#91 = APPROVAL ( #390, 'UNSPECIFIED' ) ;
#92 = CARTESIAN_POINT ( 'NONE',  ( 0.000000000000000000, 0.000000000000000000, 15.00000000000000000 ) ) ;
#93 = EDGE_LOOP ( 'NONE', ( #23, #82, #409, #160 ) ) ;
#94 = DIRECTION ( 'NONE',  ( -0.000000000000000000, -0.000000000000000000, -1.000000000000000000 ) ) ;
#95 = EDGE_CURVE ( 'NONE', #40, #120, #221, .T. ) ;
#96 = CIRCLE ( 'NONE', #122, 2.500000000000000444 ) ;
#97 = LINE ( 'NONE', #307, #238 ) ;
#98 = CARTESIAN_POINT ( 'NONE',  ( 0.7216878364870323859, -1.250000000000000888, -1.700000000000000178 ) ) ;
#99 = CARTESIAN_POINT ( 'NONE',  ( 0.000000000000000000, 0.000000000000000000, 0.000000000000000000 ) ) ;
#100 = EDGE_CURVE ( 'NONE', #355, #332, #226, .T. ) ;
#101 = CARTESIAN_POINT ( 'NONE',  ( 0.000000000000000000, 0.000000000000000000, -3.000000000000000000 ) ) ;
#102 = MECHANICAL_CONTEXT ( 'NONE', #440, 'mechanical' ) ;
#103 = AXIS2_PLACEMENT_3D ( 'NONE', #99, #240, #25 ) ;
#104 = CC_DESIGN_APPROVAL ( #456, ( #22 ) ) ;
#105 = ORIENTED_EDGE ( 'NONE', *, *, #444, .T. ) ;
#106 = EDGE_CURVE ( 'NONE', #299, #46, #436, .T. ) ;
#107 = DATE_TIME_ROLE ( 'creation_date' ) ;
#108 = DIRECTION ( 'NONE',  ( 0.4999999999999996669, -0.8660254037844388186, 0.000000000000000000 ) ) ;
#109 = DATE_TIME_ROLE ( 'classification_date' ) ;
#110 = DIRECTION ( 'NONE',  ( 0.000000000000000000, 0.000000000000000000, 1.000000000000000000 ) ) ;
#111 = ADVANCED_FACE ( 'NONE', ( #286, #147 ), #364, .T. ) ;
#112 = APPROVAL_STATUS ( 'not_yet_approved' ) ;
#113 = CARTESIAN_POINT ( 'NONE',  ( 1.443375672974065216, -2.168404344971008868E-16, -3.000000000000000000 ) ) ;
#114 = COORDINATED_UNIVERSAL_TIME_OFFSET ( 9, 0, .AHEAD. ) ;
#115 = DIRECTION ( 'NONE',  ( -0.000000000000000000, -0.000000000000000000, -1.000000000000000000 ) ) ;
#116 = APPLICATION_CONTEXT ( 'configuration controlled 3d designs of mechanical parts and assemblies' ) ;
#117 = ORIENTED_EDGE ( 'NONE', *, *, #100, .F. ) ;
#118 = APPROVAL_DATE_TIME ( #422, #379 ) ;
#119 = LINE ( 'NONE', #260, #406 ) ;
#120 = VERTEX_POINT ( 'NONE', #219 ) ;
#121 = DIRECTION ( 'NONE',  ( -0.000000000000000000, -0.000000000000000000, -1.000000000000000000 ) ) ;
#122 = AXIS2_PLACEMENT_3D ( 'NONE', #333, #230, #12 ) ;
#123 = ORIENTED_EDGE ( 'NONE', *, *, #352, .F. ) ;
#124 = FACE_OUTER_BOUND ( 'NONE', #29, .T. ) ;
#125 = VERTEX_POINT ( 'NONE', #393 ) ;
#126 = FACE_OUTER_BOUND ( 'NONE', #285, .T. ) ;
#127 = VERTEX_POINT ( 'NONE', #329 ) ;
#128 = EDGE_CURVE ( 'NONE', #44, #346, #153, .T. ) ;
#129 = DIRECTION ( 'NONE',  ( 0.8660254037844388186, 0.4999999999999996669, -0.000000000000000000 ) ) ;
#130 = EDGE_LOOP ( 'NONE', ( #212, #296, #66, #184 ) ) ;
#131 = VECTOR ( 'NONE', #89, 1000.000000000000000 ) ;
#132 = CARTESIAN_POINT ( 'NONE',  ( -1.443375672974065216, 4.336808689942017736E-16, -1.700000000000000178 ) ) ;
#133 = CYLINDRICAL_SURFACE ( 'NONE', #365, 2.500000000000000444 ) ;
#134 = CARTESIAN_POINT ( 'NONE',  ( 0.7216878364870330520, 1.250000000000000666, -1.700000000000000178 ) ) ;
#135 = AXIS2_PLACEMENT_3D ( 'NONE', #453, #136, #278 ) ;
#136 = DIRECTION ( 'NONE',  ( 0.000000000000000000, 0.000000000000000000, 1.000000000000000000 ) ) ;
#137 = CARTESIAN_POINT ( 'NONE',  ( -0.7216878364870326079, -1.250000000000000888, -1.700000000000000178 ) ) ;
#138 = ORIENTED_EDGE ( 'NONE', *, *, #247, .F. ) ;
#139 = CARTESIAN_POINT ( 'NONE',  ( 0.000000000000000000, 0.000000000000000000, 0.000000000000000000 ) ) ;
#140 = ORIENTED_EDGE ( 'NONE', *, *, #359, .T. ) ;
#141 = COORDINATED_UNIVERSAL_TIME_OFFSET ( 9, 0, .AHEAD. ) ;
#142 = VECTOR ( 'NONE', #463, 1000.000000000000000 ) ;
#143 = CARTESIAN_POINT ( 'NONE',  ( 0.7216878364870323859, -1.250000000000000888, -1.700000000000000178 ) ) ;
#144 = DIRECTION ( 'NONE',  ( -0.4999999999999997780, 0.8660254037844388186, 0.000000000000000000 ) ) ;
#145 = EDGE_CURVE ( 'NONE', #120, #127, #119, .T. ) ;
#146 = PERSON_AND_ORGANIZATION ( #340, #431 ) ;
#147 = FACE_OUTER_BOUND ( 'NONE', #87, .T. ) ;
#148 = SECURITY_CLASSIFICATION_LEVEL ( 'unclassified' ) ;
#149 = CARTESIAN_POINT ( 'NONE',  ( -0.7216878364870326079, 1.250000000000000888, -1.700000000000000178 ) ) ;
#150 = VECTOR ( 'NONE', #108, 1000.000000000000000 ) ;
#151 = ORIENTED_EDGE ( 'NONE', *, *, #397, .F. ) ;
#152 = ADVANCED_FACE ( 'NONE', ( #77, #331 ), #8, .F. ) ;
#153 = LINE ( 'NONE', #292, #88 ) ;
#154 = ORIENTED_EDGE ( 'NONE', *, *, #247, .T. ) ;
#155 = PRODUCT ( '볼트 m3 15', '볼트 m3 15', '', ( #102 ) ) ;
#156 = CARTESIAN_POINT ( 'NONE',  ( 0.000000000000000000, 0.000000000000000000, -3.000000000000000000 ) ) ;
#157 = PLANE ( 'NONE',  #328 ) ;
#158 = CIRCLE ( 'NONE', #414, 1.500000000000000222 ) ;
#159 = DIRECTION ( 'NONE',  ( 0.4999999999999997224, -0.8660254037844387076, 0.000000000000000000 ) ) ;
#160 = ORIENTED_EDGE ( 'NONE', *, *, #270, .F. ) ;
#161 = EDGE_CURVE ( 'NONE', #229, #120, #216, .T. ) ;
#162 = UNCERTAINTY_MEASURE_WITH_UNIT (LENGTH_MEASURE( 1.000000000000000082E-05 ), #382, 'distance_accuracy_value', 'NONE');
#163 = DIRECTION ( 'NONE',  ( -0.4999999999999999445, -0.8660254037844385966, 0.000000000000000000 ) ) ;
#164 = CC_DESIGN_DATE_AND_TIME_ASSIGNMENT ( #361, #107, ( #86 ) ) ;
#165 = ORIENTED_EDGE ( 'NONE', *, *, #72, .T. ) ;
#166 = CARTESIAN_POINT ( 'NONE',  ( -1.500000000000000222, 0.000000000000000000, 15.00000000000000000 ) ) ;
#167 = ORIENTED_EDGE ( 'NONE', *, *, #11, .T. ) ;
#168 = VECTOR ( 'NONE', #419, 1000.000000000000000 ) ;
#169 = PRODUCT_DEFINITION_FORMATION_WITH_SPECIFIED_SOURCE ( 'ANY', '', #155, .NOT_KNOWN. ) ;
#170 = CARTESIAN_POINT ( 'NONE',  ( -0.7216878364870326079, -1.250000000000000888, -1.700000000000000178 ) ) ;
#171 = ADVANCED_FACE ( 'NONE', ( #251 ), #391, .T. ) ;
#172 = CARTESIAN_POINT ( 'NONE',  ( -2.500000000000000444, 3.061616997868383634E-16, -3.000000000000000000 ) ) ;
#173 = DIRECTION ( 'NONE',  ( 1.000000000000000000, 0.000000000000000000, 0.000000000000000000 ) ) ;
#174 = LINE ( 'NONE', #280, #381 ) ;
#175 = VECTOR ( 'NONE', #341, 1000.000000000000227 ) ;
#176 = VECTOR ( 'NONE', #144, 1000.000000000000114 ) ;
#177 = DIRECTION ( 'NONE',  ( -0.000000000000000000, -0.000000000000000000, -1.000000000000000000 ) ) ;
#178 = VERTEX_POINT ( 'NONE', #166 ) ;
#179 = VERTEX_POINT ( 'NONE', #228 ) ;
#180 = VECTOR ( 'NONE', #59, 1000.000000000000000 ) ;
#181 = FACE_OUTER_BOUND ( 'NONE', #334, .T. ) ;
#182 = CYLINDRICAL_SURFACE ( 'NONE', #420, 2.500000000000000444 ) ;
#183 = DIRECTION ( 'NONE',  ( -1.000000000000000000, 1.502314598737158045E-16, 0.000000000000000000 ) ) ;
#184 = ORIENTED_EDGE ( 'NONE', *, *, #444, .F. ) ;
#185 = ADVANCED_FACE ( 'NONE', ( #372 ), #81, .F. ) ;
#186 = CARTESIAN_POINT ( 'NONE',  ( 0.000000000000000000, 0.000000000000000000, -3.000000000000000000 ) ) ;
#187 = VECTOR ( 'NONE', #225, 1000.000000000000114 ) ;
#188 = APPROVAL_PERSON_ORGANIZATION ( #412, #379, #320 ) ;
#189 = ORIENTED_EDGE ( 'NONE', *, *, #106, .F. ) ;
#190 = CARTESIAN_POINT ( 'NONE',  ( 0.7216878364870330520, 1.250000000000000666, -1.700000000000000178 ) ) ;
#191 = ORIENTED_EDGE ( 'NONE', *, *, #403, .F. ) ;
#192 = PLANE ( 'NONE',  #386 ) ;
#193 = ORIENTED_EDGE ( 'NONE', *, *, #16, .F. ) ;
#194 = CARTESIAN_POINT ( 'NONE',  ( 0.000000000000000000, 0.000000000000000000, 15.00000000000000000 ) ) ;
#195 = ADVANCED_FACE ( 'NONE', ( #124 ), #343, .F. ) ;
#196 = AXIS2_PLACEMENT_3D ( 'NONE', #139, #418, #275 ) ;
#197 = ORIENTED_EDGE ( 'NONE', *, *, #80, .T. ) ;
#198 = DIRECTION ( 'NONE',  ( -0.8660254037844387076, 0.5000000000000000000, 0.000000000000000000 ) ) ;
#199 = VERTEX_POINT ( 'NONE', #294 ) ;
#200 = FACE_OUTER_BOUND ( 'NONE', #303, .T. ) ;
#201 = ORIENTED_EDGE ( 'NONE', *, *, #458, .F. ) ;
#202 = CARTESIAN_POINT ( 'NONE',  ( 1.443375672974065216, -2.168404344971008868E-16, -1.700000000000000178 ) ) ;
#203 = ORIENTED_EDGE ( 'NONE', *, *, #95, .T. ) ;
#204 = AXIS2_PLACEMENT_3D ( 'NONE', #10, #53, #273 ) ;
#205 = DIRECTION ( 'NONE',  ( 0.000000000000000000, -0.000000000000000000, -1.000000000000000000 ) ) ;
#206 = CC_DESIGN_PERSON_AND_ORGANIZATION_ASSIGNMENT ( #413, #65, ( #155 ) ) ;
#207 = APPLICATION_PROTOCOL_DEFINITION ( 'international standard', 'config_control_design', 1994, #440 ) ;
#208 = EDGE_CURVE ( 'NONE', #332, #179, #367, .T. ) ;
#209 = VECTOR ( 'NONE', #377, 1000.000000000000000 ) ;
#210 = CC_DESIGN_APPROVAL ( #379, ( #86 ) ) ;
#211 = DIRECTION ( 'NONE',  ( 1.000000000000000000, 0.000000000000000000, 0.000000000000000000 ) ) ;
#212 = ORIENTED_EDGE ( 'NONE', *, *, #433, .F. ) ;
#213 = APPLICATION_PROTOCOL_DEFINITION ( 'international standard', 'config_control_design', 1994, #116 ) ;
#214 = FACE_OUTER_BOUND ( 'NONE', #93, .T. ) ;
#215 = CC_DESIGN_PERSON_AND_ORGANIZATION_ASSIGNMENT ( #76, #356, ( #86 ) ) ;
#216 = LINE ( 'NONE', #34, #176 ) ;
#217 = APPROVAL_ROLE ( '' ) ;
#218 = DIRECTION ( 'NONE',  ( 0.4999999999999996669, -0.8660254037844388186, 0.000000000000000000 ) ) ;
#219 = CARTESIAN_POINT ( 'NONE',  ( -1.443375672974065438, 3.252606517456513302E-16, -3.000000000000000000 ) ) ;
#220 = EDGE_LOOP ( 'NONE', ( #398, #123 ) ) ;
#221 = LINE ( 'NONE', #360, #289 ) ;
#222 = ORIENTED_EDGE ( 'NONE', *, *, #415, .T. ) ;
#223 = CC_DESIGN_PERSON_AND_ORGANIZATION_ASSIGNMENT ( #31, #284, ( #169 ) ) ;
#224 = COORDINATED_UNIVERSAL_TIME_OFFSET ( 9, 0, .AHEAD. ) ;
#225 = DIRECTION ( 'NONE',  ( 0.5000000000000001110, 0.8660254037844385966, 0.000000000000000000 ) ) ;
#226 = CIRCLE ( 'NONE', #253, 2.500000000000000444 ) ;
#227 = DIRECTION ( 'NONE',  ( -0.000000000000000000, -0.000000000000000000, -1.000000000000000000 ) ) ;
#228 = CARTESIAN_POINT ( 'NONE',  ( 2.500000000000000444, 0.000000000000000000, 0.000000000000000000 ) ) ;
#229 = VERTEX_POINT ( 'NONE', #302 ) ;
#230 = DIRECTION ( 'NONE',  ( 0.000000000000000000, 0.000000000000000000, 1.000000000000000000 ) ) ;
#231 = CIRCLE ( 'NONE', #371, 2.500000000000000444 ) ;
#232 = ORIENTED_EDGE ( 'NONE', *, *, #145, .T. ) ;
#233 = CARTESIAN_POINT ( 'NONE',  ( 1.443375672974065216, -2.168404344971008868E-16, -1.700000000000000178 ) ) ;
#234 = ORIENTED_EDGE ( 'NONE', *, *, #395, .F. ) ;
#235 = LINE ( 'NONE', #401, #175 ) ;
#236 = ORIENTED_EDGE ( 'NONE', *, *, #359, .F. ) ;
#237 = DIRECTION ( 'NONE',  ( -0.000000000000000000, 0.000000000000000000, 1.000000000000000000 ) ) ;
#238 = VECTOR ( 'NONE', #314, 1000.000000000000000 ) ;
#239 = CARTESIAN_POINT ( 'NONE',  ( -1.500000000000000222, 0.000000000000000000, 0.000000000000000000 ) ) ;
#240 = DIRECTION ( 'NONE',  ( -0.000000000000000000, 0.000000000000000000, 1.000000000000000000 ) ) ;
#241 = EDGE_CURVE ( 'NONE', #75, #229, #337, .T. ) ;
#242 = DIRECTION ( 'NONE',  ( -0.000000000000000000, 0.000000000000000000, 1.000000000000000000 ) ) ;
#243 = CARTESIAN_POINT ( 'NONE',  ( 1.443375672974065216, -2.168404344971008868E-16, -3.000000000000000000 ) ) ;
#244 = CLOSED_SHELL ( 'NONE', ( #295, #60, #19, #152, #111, #171, #39, #313, #348, #277, #195, #37, #185, #309 ) ) ;
#245 = CC_DESIGN_SECURITY_CLASSIFICATION ( #22, ( #169 ) ) ;
#246 = DIRECTION ( 'NONE',  ( -0.5000000000000001110, -0.8660254037844384856, 0.000000000000000000 ) ) ;
#247 = EDGE_CURVE ( 'NONE', #199, #127, #265, .T. ) ;
#248 = PERSON_AND_ORGANIZATION_ROLE ( 'classification_officer' ) ;
#249 = DIRECTION ( 'NONE',  ( 0.5000000000000001110, 0.8660254037844385966, 0.000000000000000000 ) ) ;
#250 = PERSON_AND_ORGANIZATION_ROLE ( 'design_supplier' ) ;
#251 = FACE_OUTER_BOUND ( 'NONE', #279, .T. ) ;
#252 = APPROVAL_DATE_TIME ( #388, #456 ) ;
#253 = AXIS2_PLACEMENT_3D ( 'NONE', #45, #6, #70 ) ;
#254 = EDGE_CURVE ( 'NONE', #346, #258, #235, .T. ) ;
#255 = CARTESIAN_POINT ( 'NONE',  ( 0.7216878364870330520, 1.250000000000000666, -3.000000000000000000 ) ) ;
#256 = PERSON_AND_ORGANIZATION ( #340, #431 ) ;
#257 = FACE_OUTER_BOUND ( 'NONE', #13, .T. ) ;
#258 = VERTEX_POINT ( 'NONE', #445 ) ;
#259 = CALENDAR_DATE ( 2024, 26, 9 ) ;
#260 = CARTESIAN_POINT ( 'NONE',  ( -1.443375672974065216, 4.336808689942017736E-16, -3.000000000000000000 ) ) ;
#261 = ORIENTED_EDGE ( 'NONE', *, *, #254, .T. ) ;
#262 = CARTESIAN_POINT ( 'NONE',  ( 0.7216878364870330520, 1.250000000000000666, -3.000000000000000000 ) ) ;
#263 = VECTOR ( 'NONE', #276, 1000.000000000000000 ) ;
#264 = ORIENTED_EDGE ( 'NONE', *, *, #161, .F. ) ;
#265 = LINE ( 'NONE', #269, #344 ) ;
#266 = ORIENTED_EDGE ( 'NONE', *, *, #415, .F. ) ;
#267 = FACE_OUTER_BOUND ( 'NONE', #130, .T. ) ;
#268 = ORIENTED_EDGE ( 'NONE', *, *, #270, .T. ) ;
#269 = CARTESIAN_POINT ( 'NONE',  ( -0.7216878364870326079, 1.250000000000000888, -1.700000000000000178 ) ) ;
#270 = EDGE_CURVE ( 'NONE', #327, #179, #96, .T. ) ;
#271 = AXIS2_PLACEMENT_3D ( 'NONE', #55, #129, #21 ) ;
#272 = CARTESIAN_POINT ( 'NONE',  ( -1.443375672974065216, 4.336808689942017736E-16, -1.700000000000000178 ) ) ;
#273 = DIRECTION ( 'NONE',  ( -1.000000000000000000, 0.000000000000000000, -0.000000000000000000 ) ) ;
#274 = DIRECTION ( 'NONE',  ( 1.000000000000000000, 0.000000000000000000, 0.000000000000000000 ) ) ;
#275 = DIRECTION ( 'NONE',  ( 1.000000000000000000, 0.000000000000000000, 0.000000000000000000 ) ) ;
#276 = DIRECTION ( 'NONE',  ( 1.000000000000000000, -1.502314598737158045E-16, 0.000000000000000000 ) ) ;
#277 = ADVANCED_FACE ( 'NONE', ( #200 ), #297, .F. ) ;
#278 = DIRECTION ( 'NONE',  ( 1.000000000000000000, 0.000000000000000000, 0.000000000000000000 ) ) ;
#279 = EDGE_LOOP ( 'NONE', ( #84, #201, #105, #376 ) ) ;
#280 = CARTESIAN_POINT ( 'NONE',  ( 0.7216878364870323859, -1.250000000000000888, -1.700000000000000178 ) ) ;
#281 = EDGE_LOOP ( 'NONE', ( #385, #370, #193, #405 ) ) ;
#282 = CIRCLE ( 'NONE', #350, 1.500000000000000222 ) ;
#283 = APPROVAL_PERSON_ORGANIZATION ( #146, #456, #217 ) ;
#284 = PERSON_AND_ORGANIZATION_ROLE ( 'creator' ) ;
#285 = EDGE_LOOP ( 'NONE', ( #222, #443, #167, #330, #261, #342 ) ) ;
#286 = FACE_BOUND ( 'NONE', #220, .T. ) ;
#287 = CALENDAR_DATE ( 2024, 26, 9 ) ;
#288 = DIRECTION ( 'NONE',  ( 1.000000000000000000, 0.000000000000000000, -0.000000000000000000 ) ) ;
#289 = VECTOR ( 'NONE', #115, 1000.000000000000000 ) ;
#290 = CARTESIAN_POINT ( 'NONE',  ( 0.000000000000000000, 0.000000000000000000, 0.000000000000000000 ) ) ;
#291 = EDGE_LOOP ( 'NONE', ( #439, #54, #266, #64 ) ) ;
#292 = CARTESIAN_POINT ( 'NONE',  ( 0.7216878364870330520, 1.250000000000000666, -1.700000000000000178 ) ) ;
#293 = VERTEX_POINT ( 'NONE', #449 ) ;
#294 = CARTESIAN_POINT ( 'NONE',  ( -0.7216878364870326079, 1.250000000000000888, -1.700000000000000178 ) ) ;
#295 = ADVANCED_FACE ( 'NONE', ( #267 ), #17, .T. ) ;
#296 = ORIENTED_EDGE ( 'NONE', *, *, #324, .T. ) ;
#297 = PLANE ( 'NONE',  #3 ) ;
#298 = AXIS2_PLACEMENT_3D ( 'NONE', #156, #389, #68 ) ;
#299 = VERTEX_POINT ( 'NONE', #262 ) ;
#300 = DIRECTION ( 'NONE',  ( 0.5000000000000002220, 0.8660254037844384856, 0.000000000000000000 ) ) ;
#301 = ORIENTED_EDGE ( 'NONE', *, *, #26, .F. ) ;
#302 = CARTESIAN_POINT ( 'NONE',  ( -0.7216878364870326079, -1.250000000000000888, -3.000000000000000000 ) ) ;
#303 = EDGE_LOOP ( 'NONE', ( #437, #234, #4, #165 ) ) ;
#304 = DIRECTION ( 'NONE',  ( -1.000000000000000000, 0.000000000000000000, 0.000000000000000000 ) ) ;
#305 = CIRCLE ( 'NONE', #103, 1.500000000000000222 ) ;
#306 = ORIENTED_EDGE ( 'NONE', *, *, #403, .T. ) ;
#307 = CARTESIAN_POINT ( 'NONE',  ( -1.500000000000000222, 0.000000000000000000, 15.00000000000000000 ) ) ;
#308 = DIRECTION ( 'NONE',  ( 1.000000000000000000, -1.502314598737158045E-16, 0.000000000000000000 ) ) ;
#309 = ADVANCED_FACE ( 'NONE', ( #126 ), #407, .T. ) ;
#310 = CARTESIAN_POINT ( 'NONE',  ( -2.500000000000000444, 3.061616997868383634E-16, -3.000000000000000000 ) ) ;
#311 = VECTOR ( 'NONE', #56, 1000.000000000000000 ) ;
#312 = LINE ( 'NONE', #137, #319 ) ;
#313 = ADVANCED_FACE ( 'NONE', ( #50 ), #157, .F. ) ;
#314 = DIRECTION ( 'NONE',  ( -0.000000000000000000, -0.000000000000000000, -1.000000000000000000 ) ) ;
#315 = MANIFOLD_SOLID_BREP ( '컷-돌출1', #244 ) ;
#316 = ORIENTED_EDGE ( 'NONE', *, *, #106, .T. ) ;
#317 = DATE_AND_TIME ( #432, #408 ) ;
#318 = CARTESIAN_POINT ( 'NONE',  ( -0.7216878364870326079, 1.250000000000000888, -1.700000000000000178 ) ) ;
#319 = VECTOR ( 'NONE', #353, 1000.000000000000114 ) ;
#320 = APPROVAL_ROLE ( '' ) ;
#321 = DIRECTION ( 'NONE',  ( -0.000000000000000000, 0.000000000000000000, 1.000000000000000000 ) ) ;
#322 = APPROVAL_DATE_TIME ( #41, #91 ) ;
#323 = LINE ( 'NONE', #426, #142 ) ;
#324 = EDGE_CURVE ( 'NONE', #293, #125, #400, .T. ) ;
#325 = CALENDAR_DATE ( 2024, 26, 9 ) ;
#326 = PLANE ( 'NONE',  #27 ) ;
#327 = VERTEX_POINT ( 'NONE', #410 ) ;
#328 = AXIS2_PLACEMENT_3D ( 'NONE', #404, #442, #159 ) ;
#329 = CARTESIAN_POINT ( 'NONE',  ( -0.7216878364870326079, 1.250000000000000888, -3.000000000000000000 ) ) ;
#330 = ORIENTED_EDGE ( 'NONE', *, *, #128, .T. ) ;
#331 = FACE_OUTER_BOUND ( 'NONE', #373, .T. ) ;
#332 = VERTEX_POINT ( 'NONE', #438 ) ;
#333 = CARTESIAN_POINT ( 'NONE',  ( 0.000000000000000000, 0.000000000000000000, 0.000000000000000000 ) ) ;
#334 = EDGE_LOOP ( 'NONE', ( #140, #151, #363, #154 ) ) ;
#335 = DIRECTION ( 'NONE',  ( -1.000000000000000000, 0.000000000000000000, 0.000000000000000000 ) ) ;
#336 = VERTEX_POINT ( 'NONE', #375 ) ;
#337 = LINE ( 'NONE', #83, #209 ) ;
#338 = LINE ( 'NONE', #172, #168 ) ;
#339 = CC_DESIGN_PERSON_AND_ORGANIZATION_ASSIGNMENT ( #1, #250, ( #169 ) ) ;
#340 = PERSON ( 'UNSPECIFIED', 'UNSPECIFIED', 'UNSPECIFIED', ('UNSPECIFIED'), ('UNSPECIFIED'), ('UNSPECIFIED') ) ;
#341 = DIRECTION ( 'NONE',  ( -0.5000000000000001110, -0.8660254037844384856, 0.000000000000000000 ) ) ;
#342 = ORIENTED_EDGE ( 'NONE', *, *, #16, .T. ) ;
#343 = PLANE ( 'NONE',  #271 ) ;
#344 = VECTOR ( 'NONE', #446, 1000.000000000000000 ) ;
#345 = LOCAL_TIME ( 23, 16, 22.00000000000000000, #114 ) ;
#346 = VERTEX_POINT ( 'NONE', #202 ) ;
#347 = APPROVAL_STATUS ( 'not_yet_approved' ) ;
#348 = ADVANCED_FACE ( 'NONE', ( #47 ), #192, .F. ) ;
#349 = CARTESIAN_POINT ( 'NONE',  ( -0.7216878364870326079, 1.250000000000000888, -3.000000000000000000 ) ) ;
#350 = AXIS2_PLACEMENT_3D ( 'NONE', #423, #321, #73 ) ;
#351 = DIRECTION ( 'NONE',  ( 0.000000000000000000, 0.000000000000000000, 1.000000000000000000 ) ) ;
#352 = EDGE_CURVE ( 'NONE', #125, #368, #305, .T. ) ;
#353 = DIRECTION ( 'NONE',  ( -0.4999999999999997780, 0.8660254037844388186, 0.000000000000000000 ) ) ;
#354 = CC_DESIGN_PERSON_AND_ORGANIZATION_ASSIGNMENT ( #461, #248, ( #22 ) ) ;
#355 = VERTEX_POINT ( 'NONE', #310 ) ;
#356 = PERSON_AND_ORGANIZATION_ROLE ( 'creator' ) ;
#357 = DIRECTION ( 'NONE',  ( 1.502314598737158045E-16, 1.000000000000000000, -0.000000000000000000 ) ) ;
#358 = AXIS2_PLACEMENT_3D ( 'NONE', #62, #237, #173 ) ;
#359 = EDGE_CURVE ( 'NONE', #127, #299, #455, .T. ) ;
#360 = CARTESIAN_POINT ( 'NONE',  ( -1.443375672974065216, 4.336808689942017736E-16, -1.700000000000000178 ) ) ;
#361 = DATE_AND_TIME ( #69, #63 ) ;
#362 = PLANE ( 'NONE',  #448 ) ;
#363 = ORIENTED_EDGE ( 'NONE', *, *, #11, .F. ) ;
#364 = PLANE ( 'NONE',  #430 ) ;
#365 = AXIS2_PLACEMENT_3D ( 'NONE', #101, #351, #274 ) ;
#366 = DIRECTION ( 'NONE',  ( 1.000000000000000000, 0.000000000000000000, 0.000000000000000000 ) ) ;
#367 = LINE ( 'NONE', #85, #43 ) ;
#368 = VERTEX_POINT ( 'NONE', #239 ) ;
#369 = DIRECTION ( 'NONE',  ( 0.8660254037844385966, -0.5000000000000003331, 0.000000000000000000 ) ) ;
#370 = ORIENTED_EDGE ( 'NONE', *, *, #424, .F. ) ;
#371 = AXIS2_PLACEMENT_3D ( 'NONE', #290, #110, #74 ) ;
#372 = FACE_OUTER_BOUND ( 'NONE', #52, .T. ) ;
#373 = EDGE_LOOP ( 'NONE', ( #191, #117 ) ) ;
#374 = PRODUCT_RELATED_PRODUCT_CATEGORY ( 'detail', '', ( #155 ) ) ;
#375 = CARTESIAN_POINT ( 'NONE',  ( -0.7216878364870326079, -1.250000000000000888, -1.700000000000000178 ) ) ;
#376 = ORIENTED_EDGE ( 'NONE', *, *, #51, .T. ) ;
#377 = DIRECTION ( 'NONE',  ( -1.000000000000000000, 0.000000000000000000, 0.000000000000000000 ) ) ;
#378 = ORIENTED_EDGE ( 'NONE', *, *, #397, .T. ) ;
#379 = APPROVAL ( #347, 'UNSPECIFIED' ) ;
#380 =( NAMED_UNIT ( * ) PLANE_ANGLE_UNIT ( ) SI_UNIT ( $, .RADIAN. ) );
#381 = VECTOR ( 'NONE', #94, 1000.000000000000000 ) ;
#382 =( LENGTH_UNIT ( ) NAMED_UNIT ( * ) SI_UNIT ( .MILLI., .METRE. ) );
#383 = CARTESIAN_POINT ( 'NONE',  ( 0.000000000000000000, 0.000000000000000000, 15.00000000000000000 ) ) ;
#384 = PRODUCT_DEFINITION_SHAPE ( 'NONE', 'NONE',  #86 ) ;
#385 = ORIENTED_EDGE ( 'NONE', *, *, #241, .T. ) ;
#386 = AXIS2_PLACEMENT_3D ( 'NONE', #98, #24, #205 ) ;
#387 = ORIENTED_EDGE ( 'NONE', *, *, #128, .F. ) ;
#388 = DATE_AND_TIME ( #259, #79 ) ;
#389 = DIRECTION ( 'NONE',  ( 0.000000000000000000, 0.000000000000000000, 1.000000000000000000 ) ) ;
#390 = APPROVAL_STATUS ( 'not_yet_approved' ) ;
#391 = CYLINDRICAL_SURFACE ( 'NONE', #399, 1.500000000000000222 ) ;
#392 = CIRCLE ( 'NONE', #135, 2.500000000000000444 ) ;
#393 = CARTESIAN_POINT ( 'NONE',  ( 1.500000000000000222, 1.836970198721030181E-16, 0.000000000000000000 ) ) ;
#394 = FACE_OUTER_BOUND ( 'NONE', #435, .T. ) ;
#395 = EDGE_CURVE ( 'NONE', #258, #75, #174, .T. ) ;
#396 = CARTESIAN_POINT ( 'NONE',  ( -1.443375672974065216, 4.336808689942017736E-16, -1.700000000000000178 ) ) ;
#397 = EDGE_CURVE ( 'NONE', #44, #299, #454, .T. ) ;
#398 = ORIENTED_EDGE ( 'NONE', *, *, #51, .F. ) ;
#399 = AXIS2_PLACEMENT_3D ( 'NONE', #194, #227, #335 ) ;
#400 = LINE ( 'NONE', #14, #131 ) ;
#401 = CARTESIAN_POINT ( 'NONE',  ( 1.443375672974065216, -2.168404344971008868E-16, -1.700000000000000178 ) ) ;
#402 = DESIGN_CONTEXT ( 'detailed design', #116, 'design' ) ;
#403 = EDGE_CURVE ( 'NONE', #332, #355, #392, .T. ) ;
#404 = CARTESIAN_POINT ( 'NONE',  ( -0.7216878364870326079, -1.250000000000000888, -1.700000000000000178 ) ) ;
#405 = ORIENTED_EDGE ( 'NONE', *, *, #395, .T. ) ;
#406 = VECTOR ( 'NONE', #249, 1000.000000000000114 ) ;
#407 = PLANE ( 'NONE',  #204 ) ;
#408 = LOCAL_TIME ( 23, 16, 22.00000000000000000, #33 ) ;
#409 = ORIENTED_EDGE ( 'NONE', *, *, #208, .T. ) ;
#410 = CARTESIAN_POINT ( 'NONE',  ( -2.500000000000000444, 3.061616997868383634E-16, 0.000000000000000000 ) ) ;
#411 = ORIENTED_EDGE ( 'NONE', *, *, #433, .T. ) ;
#412 = PERSON_AND_ORGANIZATION ( #340, #431 ) ;
#413 = PERSON_AND_ORGANIZATION ( #340, #431 ) ;
#414 = AXIS2_PLACEMENT_3D ( 'NONE', #383, #242, #211 ) ;
#415 = EDGE_CURVE ( 'NONE', #336, #40, #312, .T. ) ;
#416 = LINE ( 'NONE', #170, #180 ) ;
#417 = ORIENTED_EDGE ( 'NONE', *, *, #72, .F. ) ;
#418 = DIRECTION ( 'NONE',  ( 0.000000000000000000, 0.000000000000000000, 1.000000000000000000 ) ) ;
#419 = DIRECTION ( 'NONE',  ( 0.000000000000000000, 0.000000000000000000, 1.000000000000000000 ) ) ;
#420 = AXIS2_PLACEMENT_3D ( 'NONE', #186, #36, #434 ) ;
#421 = CC_DESIGN_APPROVAL ( #91, ( #169 ) ) ;
#422 = DATE_AND_TIME ( #287, #345 ) ;
#423 = CARTESIAN_POINT ( 'NONE',  ( 0.000000000000000000, 0.000000000000000000, 0.000000000000000000 ) ) ;
#424 = EDGE_CURVE ( 'NONE', #336, #229, #416, .T. ) ;
#425 = APPROVAL_ROLE ( '' ) ;
#426 = CARTESIAN_POINT ( 'NONE',  ( 1.443375672974065216, -2.168404344971008868E-16, -1.700000000000000178 ) ) ;
#427 = ADVANCED_BREP_SHAPE_REPRESENTATION ( '볼트 m3 15', ( #315, #196 ), #71 ) ;
#428 = COORDINATED_UNIVERSAL_TIME_OFFSET ( 9, 0, .AHEAD. ) ;
#429 = DIRECTION ( 'NONE',  ( -0.000000000000000000, 0.000000000000000000, 1.000000000000000000 ) ) ;
#430 = AXIS2_PLACEMENT_3D ( 'NONE', #462, #42, #288 ) ;
#431 = ORGANIZATION ( 'UNSPECIFIED', 'UNSPECIFIED', '' ) ;
#432 = CALENDAR_DATE ( 2024, 26, 9 ) ;
#433 = EDGE_CURVE ( 'NONE', #293, #178, #441, .T. ) ;
#434 = DIRECTION ( 'NONE',  ( 1.000000000000000000, 0.000000000000000000, 0.000000000000000000 ) ) ;
#435 = EDGE_LOOP ( 'NONE', ( #306, #90, #32, #18 ) ) ;
#436 = LINE ( 'NONE', #255, #150 ) ;
#437 = ORIENTED_EDGE ( 'NONE', *, *, #26, .T. ) ;
#438 = CARTESIAN_POINT ( 'NONE',  ( 2.500000000000000444, 0.000000000000000000, -3.000000000000000000 ) ) ;
#439 = ORIENTED_EDGE ( 'NONE', *, *, #161, .T. ) ;
#440 = APPLICATION_CONTEXT ( 'configuration controlled 3d designs of mechanical parts and assemblies' ) ;
#441 = CIRCLE ( 'NONE', #358, 1.500000000000000222 ) ;
#442 = DIRECTION ( 'NONE',  ( -0.8660254037844388186, -0.4999999999999997780, 0.000000000000000000 ) ) ;
#443 = ORIENTED_EDGE ( 'NONE', *, *, #30, .T. ) ;
#444 = EDGE_CURVE ( 'NONE', #178, #368, #97, .T. ) ;
#445 = CARTESIAN_POINT ( 'NONE',  ( 0.7216878364870323859, -1.250000000000000888, -1.700000000000000178 ) ) ;
#446 = DIRECTION ( 'NONE',  ( -0.000000000000000000, -0.000000000000000000, -1.000000000000000000 ) ) ;
#447 = LINE ( 'NONE', #272, #187 ) ;
#448 = AXIS2_PLACEMENT_3D ( 'NONE', #38, #429, #366 ) ;
#449 = CARTESIAN_POINT ( 'NONE',  ( 1.500000000000000222, 1.836970198721030181E-16, 15.00000000000000000 ) ) ;
#450 = LOCAL_TIME ( 23, 16, 22.00000000000000000, #428 ) ;
#451 = LINE ( 'NONE', #318, #35 ) ;
#452 = ORIENTED_EDGE ( 'NONE', *, *, #145, .F. ) ;
#453 = CARTESIAN_POINT ( 'NONE',  ( 0.000000000000000000, 0.000000000000000000, -3.000000000000000000 ) ) ;
#454 = LINE ( 'NONE', #134, #57 ) ;
#455 = LINE ( 'NONE', #349, #263 ) ;
#456 = APPROVAL ( #112, 'UNSPECIFIED' ) ;
#457 = ORIENTED_EDGE ( 'NONE', *, *, #30, .F. ) ;
#458 = EDGE_CURVE ( 'NONE', #178, #293, #158, .T. ) ;
#459 = LINE ( 'NONE', #143, #311 ) ;
#460 = VECTOR ( 'NONE', #246, 1000.000000000000227 ) ;
#461 = PERSON_AND_ORGANIZATION ( #340, #431 ) ;
#462 = CARTESIAN_POINT ( 'NONE',  ( 0.000000000000000000, 0.000000000000000000, 0.000000000000000000 ) ) ;
#463 = DIRECTION ( 'NONE',  ( -0.000000000000000000, -0.000000000000000000, -1.000000000000000000 ) ) ;
ENDSEC;
END-ISO-10303-21;
