ISO-10303-21;
HEADER;
FILE_DESCRIPTION (( 'STEP AP203' ),
    '1' );
FILE_NAME ('볼트 m5 45.STEP',
    '2024-09-26T14:22:11',
    ( '' ),
    ( '' ),
    'SwSTEP 2.0',
    'SolidWorks 2022',
    '' );
FILE_SCHEMA (( 'CONFIG_CONTROL_DESIGN' ));
ENDSEC;

DATA;
#1 = DIRECTION ( 'NONE',  ( 1.000000000000000000, 0.000000000000000000, 0.000000000000000000 ) ) ;
#2 = CC_DESIGN_PERSON_AND_ORGANIZATION_ASSIGNMENT ( #433, #44, ( #316 ) ) ;
#3 = CARTESIAN_POINT ( 'NONE',  ( 1.154700538379253016, 2.000000000000001332, -5.000000000000000000 ) ) ;
#4 = AXIS2_PLACEMENT_3D ( 'NONE', #133, #280, #356 ) ;
#5 = PLANE ( 'NONE',  #424 ) ;
#6 = VECTOR ( 'NONE', #395, 1000.000000000000114 ) ;
#7 = APPROVAL_ROLE ( '' ) ;
#8 = ADVANCED_FACE ( 'NONE', ( #167 ), #99, .F. ) ;
#9 = COORDINATED_UNIVERSAL_TIME_OFFSET ( 9, 0, .AHEAD. ) ;
#10 = DIRECTION ( 'NONE',  ( -0.4999999999999997780, 0.8660254037844387076, 0.000000000000000000 ) ) ;
#11 = EDGE_LOOP ( 'NONE', ( #205, #266, #103, #139 ) ) ;
#12 = CC_DESIGN_APPROVAL ( #289, ( #316 ) ) ;
#13 = ADVANCED_FACE ( 'NONE', ( #312, #26 ), #390, .T. ) ;
#14 = DIRECTION ( 'NONE',  ( 1.000000000000000000, 0.000000000000000000, 0.000000000000000000 ) ) ;
#15 = ORIENTED_EDGE ( 'NONE', *, *, #112, .F. ) ;
#16 = DIRECTION ( 'NONE',  ( 1.000000000000000000, 0.000000000000000000, -0.000000000000000000 ) ) ;
#17 = ORIENTED_EDGE ( 'NONE', *, *, #137, .F. ) ;
#18 = ORIENTED_EDGE ( 'NONE', *, *, #190, .T. ) ;
#19 = LINE ( 'NONE', #91, #30 ) ;
#20 = VECTOR ( 'NONE', #322, 1000.000000000000227 ) ;
#21 = CC_DESIGN_PERSON_AND_ORGANIZATION_ASSIGNMENT ( #82, #253, ( #296 ) ) ;
#22 = CARTESIAN_POINT ( 'NONE',  ( -2.500000000000000000, 0.000000000000000000, 45.00000000000000000 ) ) ;
#23 = DIRECTION ( 'NONE',  ( 0.000000000000000000, -0.000000000000000000, -1.000000000000000000 ) ) ;
#24 = AXIS2_PLACEMENT_3D ( 'NONE', #73, #246, #170 ) ;
#25 = CARTESIAN_POINT ( 'NONE',  ( -2.500000000000000000, 0.000000000000000000, 0.000000000000000000 ) ) ;
#26 = FACE_OUTER_BOUND ( 'NONE', #379, .T. ) ;
#27 = DIRECTION ( 'NONE',  ( 1.000000000000000000, 0.000000000000000000, 0.000000000000000000 ) ) ;
#28 = ADVANCED_FACE ( 'NONE', ( #110 ), #219, .F. ) ;
#29 = ORIENTED_EDGE ( 'NONE', *, *, #422, .T. ) ;
#30 = VECTOR ( 'NONE', #262, 1000.000000000000000 ) ;
#31 = AXIS2_PLACEMENT_3D ( 'NONE', #287, #431, #145 ) ;
#32 = CYLINDRICAL_SURFACE ( 'NONE', #4, 2.500000000000000000 ) ;
#33 = LINE ( 'NONE', #423, #20 ) ;
#34 = APPLICATION_PROTOCOL_DEFINITION ( 'international standard', 'config_control_design', 1994, #224 ) ;
#35 = FACE_OUTER_BOUND ( 'NONE', #230, .T. ) ;
#36 = ORIENTED_EDGE ( 'NONE', *, *, #50, .F. ) ;
#37 = CARTESIAN_POINT ( 'NONE',  ( 0.000000000000000000, 0.000000000000000000, -2.500000000000000000 ) ) ;
#38 = CARTESIAN_POINT ( 'NONE',  ( -1.154700538379252350, -2.000000000000001776, -5.000000000000000000 ) ) ;
#39 = EDGE_CURVE ( 'NONE', #121, #107, #251, .T. ) ;
#40 = CARTESIAN_POINT ( 'NONE',  ( 1.154700538379253016, 2.000000000000001332, -2.500000000000000000 ) ) ;
#41 = CALENDAR_DATE ( 2024, 26, 9 ) ;
#42 = DIRECTION ( 'NONE',  ( 1.000000000000000000, 0.000000000000000000, 0.000000000000000000 ) ) ;
#43 = AXIS2_PLACEMENT_3D ( 'NONE', #37, #416, #286 ) ;
#44 = PERSON_AND_ORGANIZATION_ROLE ( 'creator' ) ;
#45 = EDGE_CURVE ( 'NONE', #345, #343, #114, .T. ) ;
#46 = CIRCLE ( 'NONE', #306, 3.500000000000000000 ) ;
#47 = APPROVAL_DATE_TIME ( #366, #259 ) ;
#48 = PLANE ( 'NONE',  #155 ) ;
#49 = ORIENTED_EDGE ( 'NONE', *, *, #407, .F. ) ;
#50 = EDGE_CURVE ( 'NONE', #387, #241, #292, .T. ) ;
#51 = CARTESIAN_POINT ( 'NONE',  ( 2.309401076758504701, -8.673617379884035472E-16, -2.500000000000000000 ) ) ;
#52 = EDGE_LOOP ( 'NONE', ( #157, #284, #231, #276 ) ) ;
#53 = VECTOR ( 'NONE', #258, 1000.000000000000000 ) ;
#54 = SECURITY_CLASSIFICATION ( '', '', #250 ) ;
#55 = CARTESIAN_POINT ( 'NONE',  ( -1.154700538379252350, 2.000000000000001776, -2.500000000000000000 ) ) ;
#56 = CARTESIAN_POINT ( 'NONE',  ( -2.309401076758504701, 8.673617379884035472E-16, -5.000000000000000000 ) ) ;
#57 = ORIENTED_EDGE ( 'NONE', *, *, #144, .F. ) ;
#58 = APPROVAL ( #330, 'UNSPECIFIED' ) ;
#59 = ORIENTED_EDGE ( 'NONE', *, *, #435, .F. ) ;
#60 = FACE_OUTER_BOUND ( 'NONE', #457, .T. ) ;
#61 = EDGE_LOOP ( 'NONE', ( #36, #160, #350, #136 ) ) ;
#62 = VERTEX_POINT ( 'NONE', #138 ) ;
#63 = ORIENTED_EDGE ( 'NONE', *, *, #86, .F. ) ;
#64 = ADVANCED_FACE ( 'NONE', ( #72 ), #319, .F. ) ;
#65 = VECTOR ( 'NONE', #344, 1000.000000000000227 ) ;
#66 = PLANE ( 'NONE',  #43 ) ;
#67 = EDGE_LOOP ( 'NONE', ( #309, #59, #95, #441 ) ) ;
#68 = LINE ( 'NONE', #243, #85 ) ;
#69 = CARTESIAN_POINT ( 'NONE',  ( 0.000000000000000000, 0.000000000000000000, 0.000000000000000000 ) ) ;
#70 = VECTOR ( 'NONE', #151, 1000.000000000000227 ) ;
#71 = CARTESIAN_POINT ( 'NONE',  ( 3.500000000000000000, 0.000000000000000000, -5.000000000000000000 ) ) ;
#72 = FACE_OUTER_BOUND ( 'NONE', #314, .T. ) ;
#73 = CARTESIAN_POINT ( 'NONE',  ( 0.000000000000000000, 0.000000000000000000, -5.000000000000000000 ) ) ;
#74 = LINE ( 'NONE', #393, #373 ) ;
#75 = EDGE_CURVE ( 'NONE', #343, #378, #74, .T. ) ;
#76 = DIRECTION ( 'NONE',  ( -0.000000000000000000, -0.000000000000000000, -1.000000000000000000 ) ) ;
#77 = PERSON_AND_ORGANIZATION ( #295, #169 ) ;
#78 = DIRECTION ( 'NONE',  ( -1.000000000000000000, 0.000000000000000000, 0.000000000000000000 ) ) ;
#79 = EDGE_CURVE ( 'NONE', #241, #453, #89, .T. ) ;
#80 = PERSON_AND_ORGANIZATION_ROLE ( 'design_owner' ) ;
#81 = LINE ( 'NONE', #147, #90 ) ;
#82 = PERSON_AND_ORGANIZATION ( #295, #169 ) ;
#83 = APPROVAL_ROLE ( '' ) ;
#84 = LINE ( 'NONE', #371, #158 ) ;
#85 = VECTOR ( 'NONE', #462, 1000.000000000000000 ) ;
#86 = EDGE_CURVE ( 'NONE', #387, #372, #46, .T. ) ;
#87 = ORIENTED_EDGE ( 'NONE', *, *, #332, .F. ) ;
#88 = EDGE_LOOP ( 'NONE', ( #452, #119, #57, #274 ) ) ;
#89 = CIRCLE ( 'NONE', #245, 3.500000000000000000 ) ;
#90 = VECTOR ( 'NONE', #299, 1000.000000000000227 ) ;
#91 = CARTESIAN_POINT ( 'NONE',  ( 1.154700538379253016, 2.000000000000001332, -2.500000000000000000 ) ) ;
#92 = CARTESIAN_POINT ( 'NONE',  ( -1.154700538379252350, 2.000000000000001776, -5.000000000000000000 ) ) ;
#93 = ORIENTED_EDGE ( 'NONE', *, *, #320, .T. ) ;
#94 = CARTESIAN_POINT ( 'NONE',  ( 0.000000000000000000, 0.000000000000000000, 45.00000000000000000 ) ) ;
#95 = ORIENTED_EDGE ( 'NONE', *, *, #164, .F. ) ;
#96 = ORIENTED_EDGE ( 'NONE', *, *, #79, .T. ) ;
#97 = ORIENTED_EDGE ( 'NONE', *, *, #222, .F. ) ;
#98 = APPROVAL_PERSON_ORGANIZATION ( #362, #259, #7 ) ;
#99 = PLANE ( 'NONE',  #192 ) ;
#100 = EDGE_CURVE ( 'NONE', #378, #242, #123, .T. ) ;
#101 = VECTOR ( 'NONE', #214, 1000.000000000000000 ) ;
#102 = CARTESIAN_POINT ( 'NONE',  ( 3.500000000000000000, 0.000000000000000000, 0.000000000000000000 ) ) ;
#103 = ORIENTED_EDGE ( 'NONE', *, *, #39, .F. ) ;
#104 = DIRECTION ( 'NONE',  ( -0.000000000000000000, -0.000000000000000000, -1.000000000000000000 ) ) ;
#105 = CARTESIAN_POINT ( 'NONE',  ( 0.000000000000000000, 0.000000000000000000, -5.000000000000000000 ) ) ;
#106 = CIRCLE ( 'NONE', #294, 2.500000000000000000 ) ;
#107 = VERTEX_POINT ( 'NONE', #430 ) ;
#108 = CARTESIAN_POINT ( 'NONE',  ( -1.154700538379252350, 2.000000000000001776, -2.500000000000000000 ) ) ;
#109 = PERSON_AND_ORGANIZATION ( #295, #169 ) ;
#110 = FACE_OUTER_BOUND ( 'NONE', #67, .T. ) ;
#111 = DIRECTION ( 'NONE',  ( 1.000000000000000000, 0.000000000000000000, 0.000000000000000000 ) ) ;
#112 = EDGE_CURVE ( 'NONE', #242, #378, #106, .T. ) ;
#113 = CARTESIAN_POINT ( 'NONE',  ( -3.500000000000000000, 4.286263797015736595E-16, -5.000000000000000000 ) ) ;
#114 = CIRCLE ( 'NONE', #255, 2.500000000000000000 ) ;
#115 = ADVANCED_BREP_SHAPE_REPRESENTATION ( '볼트 m5 45', ( #260, #360 ), #142 ) ;
#116 = CC_DESIGN_PERSON_AND_ORGANIZATION_ASSIGNMENT ( #401, #396, ( #54 ) ) ;
#117 = CARTESIAN_POINT ( 'NONE',  ( -2.309401076758504701, 8.673617379884035472E-16, -2.500000000000000000 ) ) ;
#118 = VECTOR ( 'NONE', #10, 1000.000000000000227 ) ;
#119 = ORIENTED_EDGE ( 'NONE', *, *, #190, .F. ) ;
#120 = DIRECTION ( 'NONE',  ( -0.5000000000000002220, -0.8660254037844384856, 0.000000000000000000 ) ) ;
#121 = VERTEX_POINT ( 'NONE', #254 ) ;
#122 = ADVANCED_FACE ( 'NONE', ( #354 ), #5, .T. ) ;
#123 = CIRCLE ( 'NONE', #223, 2.500000000000000000 ) ;
#124 = FACE_OUTER_BOUND ( 'NONE', #269, .T. ) ;
#125 = VERTEX_POINT ( 'NONE', #293 ) ;
#126 = EDGE_LOOP ( 'NONE', ( #340, #15 ) ) ;
#127 = CARTESIAN_POINT ( 'NONE',  ( 1.154700538379251906, -2.000000000000001776, -2.500000000000000000 ) ) ;
#128 = VERTEX_POINT ( 'NONE', #3 ) ;
#129 = FACE_OUTER_BOUND ( 'NONE', #88, .T. ) ;
#130 = ORIENTED_EDGE ( 'NONE', *, *, #458, .F. ) ;
#131 = EDGE_CURVE ( 'NONE', #121, #454, #143, .T. ) ;
#132 = LOCAL_TIME ( 23, 22, 11.00000000000000000, #9 ) ;
#133 = CARTESIAN_POINT ( 'NONE',  ( 0.000000000000000000, 0.000000000000000000, 45.00000000000000000 ) ) ;
#134 = ORIENTED_EDGE ( 'NONE', *, *, #45, .F. ) ;
#135 = DIRECTION ( 'NONE',  ( 1.000000000000000000, 0.000000000000000000, 0.000000000000000000 ) ) ;
#136 = ORIENTED_EDGE ( 'NONE', *, *, #79, .F. ) ;
#137 = EDGE_CURVE ( 'NONE', #62, #125, #427, .T. ) ;
#138 = CARTESIAN_POINT ( 'NONE',  ( -2.309401076758504701, 8.673617379884035472E-16, -2.500000000000000000 ) ) ;
#139 = ORIENTED_EDGE ( 'NONE', *, *, #131, .T. ) ;
#140 = CYLINDRICAL_SURFACE ( 'NONE', #24, 3.500000000000000000 ) ;
#141 = DIRECTION ( 'NONE',  ( 0.000000000000000000, 0.000000000000000000, 1.000000000000000000 ) ) ;
#142 =( GEOMETRIC_REPRESENTATION_CONTEXT ( 3 ) GLOBAL_UNCERTAINTY_ASSIGNED_CONTEXT ( ( #437 ) ) GLOBAL_UNIT_ASSIGNED_CONTEXT ( ( #414, #209, #282 ) ) REPRESENTATION_CONTEXT ( 'NONE', 'WORKASPACE' ) );
#143 = LINE ( 'NONE', #215, #446 ) ;
#144 = EDGE_CURVE ( 'NONE', #62, #389, #33, .T. ) ;
#145 = DIRECTION ( 'NONE',  ( -0.4999999999999995559, 0.8660254037844389297, 0.000000000000000000 ) ) ;
#146 = CIRCLE ( 'NONE', #409, 3.500000000000000000 ) ;
#147 = CARTESIAN_POINT ( 'NONE',  ( 2.309401076758504701, -8.673617379884035472E-16, -2.500000000000000000 ) ) ;
#148 = VECTOR ( 'NONE', #78, 1000.000000000000000 ) ;
#149 = DATE_AND_TIME ( #41, #132 ) ;
#150 = ADVANCED_FACE ( 'NONE', ( #35 ), #174, .F. ) ;
#151 = DIRECTION ( 'NONE',  ( 0.5000000000000002220, 0.8660254037844384856, 0.000000000000000000 ) ) ;
#152 = APPROVAL_PERSON_ORGANIZATION ( #109, #289, #403 ) ;
#153 = ORIENTED_EDGE ( 'NONE', *, *, #144, .T. ) ;
#154 = CARTESIAN_POINT ( 'NONE',  ( 2.500000000000000000, 3.061616997868382648E-16, 45.00000000000000000 ) ) ;
#155 = AXIS2_PLACEMENT_3D ( 'NONE', #117, #443, #120 ) ;
#156 = CARTESIAN_POINT ( 'NONE',  ( 2.309401076758504701, -8.673617379884035472E-16, -5.000000000000000000 ) ) ;
#157 = ORIENTED_EDGE ( 'NONE', *, *, #186, .F. ) ;
#158 = VECTOR ( 'NONE', #226, 1000.000000000000114 ) ;
#159 = CARTESIAN_POINT ( 'NONE',  ( 0.000000000000000000, 0.000000000000000000, -5.000000000000000000 ) ) ;
#160 = ORIENTED_EDGE ( 'NONE', *, *, #86, .T. ) ;
#161 = ORIENTED_EDGE ( 'NONE', *, *, #50, .T. ) ;
#162 = LINE ( 'NONE', #451, #118 ) ;
#163 = ORIENTED_EDGE ( 'NONE', *, *, #182, .F. ) ;
#164 = EDGE_CURVE ( 'NONE', #449, #233, #359, .T. ) ;
#165 = DIRECTION ( 'NONE',  ( 0.000000000000000000, 0.000000000000000000, 1.000000000000000000 ) ) ;
#166 = CARTESIAN_POINT ( 'NONE',  ( 2.309401076758504701, -8.673617379884035472E-16, -2.500000000000000000 ) ) ;
#167 = FACE_OUTER_BOUND ( 'NONE', #11, .T. ) ;
#168 = AXIS2_PLACEMENT_3D ( 'NONE', #180, #327, #290 ) ;
#169 = ORGANIZATION ( 'UNSPECIFIED', 'UNSPECIFIED', '' ) ;
#170 = DIRECTION ( 'NONE',  ( 1.000000000000000000, 0.000000000000000000, 0.000000000000000000 ) ) ;
#171 = DIRECTION ( 'NONE',  ( 1.000000000000000000, 0.000000000000000000, -0.000000000000000000 ) ) ;
#172 = EDGE_CURVE ( 'NONE', #270, #125, #357, .T. ) ;
#173 = MECHANICAL_CONTEXT ( 'NONE', #224, 'mechanical' ) ;
#174 = PLANE ( 'NONE',  #391 ) ;
#175 = ORIENTED_EDGE ( 'NONE', *, *, #348, .T. ) ;
#176 = PRODUCT_RELATED_PRODUCT_CATEGORY ( 'detail', '', ( #288 ) ) ;
#177 = CARTESIAN_POINT ( 'NONE',  ( 0.000000000000000000, 0.000000000000000000, 45.00000000000000000 ) ) ;
#178 = LOCAL_TIME ( 23, 22, 11.00000000000000000, #187 ) ;
#179 = CALENDAR_DATE ( 2024, 26, 9 ) ;
#180 = CARTESIAN_POINT ( 'NONE',  ( -1.154700538379252350, -2.000000000000001776, -2.500000000000000000 ) ) ;
#181 = CALENDAR_DATE ( 2024, 26, 9 ) ;
#182 = EDGE_CURVE ( 'NONE', #233, #121, #81, .T. ) ;
#183 = DIRECTION ( 'NONE',  ( -0.000000000000000000, 0.000000000000000000, 1.000000000000000000 ) ) ;
#184 = DATE_AND_TIME ( #179, #418 ) ;
#185 = VECTOR ( 'NONE', #370, 1000.000000000000000 ) ;
#186 = EDGE_CURVE ( 'NONE', #345, #242, #434, .T. ) ;
#187 = COORDINATED_UNIVERSAL_TIME_OFFSET ( 9, 0, .AHEAD. ) ;
#188 = DIRECTION ( 'NONE',  ( 1.000000000000000000, 0.000000000000000000, 0.000000000000000000 ) ) ;
#189 = ORIENTED_EDGE ( 'NONE', *, *, #440, .F. ) ;
#190 = EDGE_CURVE ( 'NONE', #389, #273, #197, .T. ) ;
#191 = PLANE ( 'NONE',  #267 ) ;
#192 = AXIS2_PLACEMENT_3D ( 'NONE', #127, #412, #23 ) ;
#193 = CC_DESIGN_SECURITY_CLASSIFICATION ( #54, ( #316 ) ) ;
#194 = VERTEX_POINT ( 'NONE', #156 ) ;
#195 = CYLINDRICAL_SURFACE ( 'NONE', #351, 2.500000000000000000 ) ;
#196 = ORIENTED_EDGE ( 'NONE', *, *, #339, .T. ) ;
#197 = LINE ( 'NONE', #55, #185 ) ;
#198 = ORIENTED_EDGE ( 'NONE', *, *, #75, .F. ) ;
#199 = EDGE_LOOP ( 'NONE', ( #175, #153, #237, #342, #310, #347 ) ) ;
#200 = CARTESIAN_POINT ( 'NONE',  ( 0.000000000000000000, 0.000000000000000000, -5.000000000000000000 ) ) ;
#201 = ORIENTED_EDGE ( 'NONE', *, *, #415, .T. ) ;
#202 = CC_DESIGN_PERSON_AND_ORGANIZATION_ASSIGNMENT ( #77, #300, ( #316 ) ) ;
#203 = CARTESIAN_POINT ( 'NONE',  ( 1.154700538379251906, -2.000000000000001776, -5.000000000000000000 ) ) ;
#204 = ORIENTED_EDGE ( 'NONE', *, *, #112, .T. ) ;
#205 = ORIENTED_EDGE ( 'NONE', *, *, #407, .T. ) ;
#206 = VECTOR ( 'NONE', #248, 1000.000000000000000 ) ;
#207 = LINE ( 'NONE', #203, #101 ) ;
#208 = VECTOR ( 'NONE', #426, 1000.000000000000000 ) ;
#209 =( NAMED_UNIT ( * ) PLANE_ANGLE_UNIT ( ) SI_UNIT ( $, .RADIAN. ) );
#210 = ADVANCED_FACE ( 'NONE', ( #375 ), #195, .T. ) ;
#211 = DIRECTION ( 'NONE',  ( 0.000000000000000000, 0.000000000000000000, 1.000000000000000000 ) ) ;
#212 = LINE ( 'NONE', #313, #206 ) ;
#213 = DIRECTION ( 'NONE',  ( -0.000000000000000000, 0.000000000000000000, 1.000000000000000000 ) ) ;
#214 = DIRECTION ( 'NONE',  ( -1.000000000000000000, 0.000000000000000000, 0.000000000000000000 ) ) ;
#215 = CARTESIAN_POINT ( 'NONE',  ( 1.154700538379251906, -2.000000000000001776, -2.500000000000000000 ) ) ;
#216 = DATE_AND_TIME ( #181, #256 ) ;
#217 = DIRECTION ( 'NONE',  ( 1.877893248421447310E-16, 1.000000000000000000, -0.000000000000000000 ) ) ;
#218 = COORDINATED_UNIVERSAL_TIME_OFFSET ( 9, 0, .AHEAD. ) ;
#219 = PLANE ( 'NONE',  #31 ) ;
#220 = VECTOR ( 'NONE', #303, 1000.000000000000000 ) ;
#221 = COORDINATED_UNIVERSAL_TIME_OFFSET ( 9, 0, .AHEAD. ) ;
#222 = EDGE_CURVE ( 'NONE', #128, #194, #84, .T. ) ;
#223 = AXIS2_PLACEMENT_3D ( 'NONE', #363, #460, #42 ) ;
#224 = APPLICATION_CONTEXT ( 'configuration controlled 3d designs of mechanical parts and assemblies' ) ;
#225 = PRODUCT_DEFINITION_SHAPE ( 'NONE', 'NONE',  #296 ) ;
#226 = DIRECTION ( 'NONE',  ( 0.4999999999999995559, -0.8660254037844389297, 0.000000000000000000 ) ) ;
#227 = CARTESIAN_POINT ( 'NONE',  ( 0.000000000000000000, 0.000000000000000000, 45.00000000000000000 ) ) ;
#228 = DIRECTION ( 'NONE',  ( 0.000000000000000000, 0.000000000000000000, 1.000000000000000000 ) ) ;
#229 = DIRECTION ( 'NONE',  ( -0.000000000000000000, -0.000000000000000000, -1.000000000000000000 ) ) ;
#230 = EDGE_LOOP ( 'NONE', ( #93, #264, #130, #18 ) ) ;
#231 = ORIENTED_EDGE ( 'NONE', *, *, #75, .T. ) ;
#232 = CARTESIAN_POINT ( 'NONE',  ( 2.309401076758504701, -8.673617379884035472E-16, -2.500000000000000000 ) ) ;
#233 = VERTEX_POINT ( 'NONE', #232 ) ;
#234 = EDGE_CURVE ( 'NONE', #449, #128, #19, .T. ) ;
#235 = EDGE_LOOP ( 'NONE', ( #384, #404, #49, #87, #97, #277 ) ) ;
#236 = CARTESIAN_POINT ( 'NONE',  ( 0.000000000000000000, 0.000000000000000000, 0.000000000000000000 ) ) ;
#237 = ORIENTED_EDGE ( 'NONE', *, *, #458, .T. ) ;
#238 = CC_DESIGN_DATE_AND_TIME_ASSIGNMENT ( #216, #323, ( #54 ) ) ;
#239 = ORIENTED_EDGE ( 'NONE', *, *, #435, .T. ) ;
#240 = PERSON_AND_ORGANIZATION ( #295, #169 ) ;
#241 = VERTEX_POINT ( 'NONE', #304 ) ;
#242 = VERTEX_POINT ( 'NONE', #380 ) ;
#243 = CARTESIAN_POINT ( 'NONE',  ( -1.154700538379252350, 2.000000000000001776, -2.500000000000000000 ) ) ;
#244 = ORIENTED_EDGE ( 'NONE', *, *, #252, .T. ) ;
#245 = AXIS2_PLACEMENT_3D ( 'NONE', #69, #211, #1 ) ;
#246 = DIRECTION ( 'NONE',  ( 0.000000000000000000, 0.000000000000000000, 1.000000000000000000 ) ) ;
#247 = DIRECTION ( 'NONE',  ( -0.000000000000000000, -0.000000000000000000, -1.000000000000000000 ) ) ;
#248 = DIRECTION ( 'NONE',  ( -0.000000000000000000, -0.000000000000000000, -1.000000000000000000 ) ) ;
#249 = DIRECTION ( 'NONE',  ( -1.000000000000000000, 1.877893248421447310E-16, 0.000000000000000000 ) ) ;
#250 = SECURITY_CLASSIFICATION_LEVEL ( 'unclassified' ) ;
#251 = LINE ( 'NONE', #399, #148 ) ;
#252 = EDGE_CURVE ( 'NONE', #372, #387, #146, .T. ) ;
#253 = PERSON_AND_ORGANIZATION_ROLE ( 'creator' ) ;
#254 = CARTESIAN_POINT ( 'NONE',  ( 1.154700538379251906, -2.000000000000001776, -2.500000000000000000 ) ) ;
#255 = AXIS2_PLACEMENT_3D ( 'NONE', #177, #397, #135 ) ;
#256 = LOCAL_TIME ( 23, 22, 11.00000000000000000, #328 ) ;
#257 = DATE_TIME_ROLE ( 'creation_date' ) ;
#258 = DIRECTION ( 'NONE',  ( 0.000000000000000000, 0.000000000000000000, 1.000000000000000000 ) ) ;
#259 = APPROVAL ( #326, 'UNSPECIFIED' ) ;
#260 = MANIFOLD_SOLID_BREP ( '컷-돌출1', #297 ) ;
#261 = AXIS2_PLACEMENT_3D ( 'NONE', #227, #448, #14 ) ;
#262 = DIRECTION ( 'NONE',  ( -0.000000000000000000, -0.000000000000000000, -1.000000000000000000 ) ) ;
#263 = ADVANCED_FACE ( 'NONE', ( #311, #60 ), #191, .F. ) ;
#264 = ORIENTED_EDGE ( 'NONE', *, *, #234, .F. ) ;
#265 = FACE_OUTER_BOUND ( 'NONE', #61, .T. ) ;
#266 = ORIENTED_EDGE ( 'NONE', *, *, #422, .F. ) ;
#267 = AXIS2_PLACEMENT_3D ( 'NONE', #337, #228, #16 ) ;
#268 = DIRECTION ( 'NONE',  ( 1.000000000000000000, 0.000000000000000000, 0.000000000000000000 ) ) ;
#269 = EDGE_LOOP ( 'NONE', ( #244, #161, #376, #189 ) ) ;
#270 = VERTEX_POINT ( 'NONE', #445 ) ;
#271 = EDGE_CURVE ( 'NONE', #125, #273, #377, .T. ) ;
#272 = DIRECTION ( 'NONE',  ( 0.000000000000000000, 0.000000000000000000, 1.000000000000000000 ) ) ;
#273 = VERTEX_POINT ( 'NONE', #411 ) ;
#274 = ORIENTED_EDGE ( 'NONE', *, *, #137, .T. ) ;
#275 = CYLINDRICAL_SURFACE ( 'NONE', #428, 3.500000000000000000 ) ;
#276 = ORIENTED_EDGE ( 'NONE', *, *, #100, .T. ) ;
#277 = ORIENTED_EDGE ( 'NONE', *, *, #320, .F. ) ;
#278 = APPLICATION_CONTEXT ( 'configuration controlled 3d designs of mechanical parts and assemblies' ) ;
#279 = ADVANCED_FACE ( 'NONE', ( #124 ), #275, .T. ) ;
#280 = DIRECTION ( 'NONE',  ( -0.000000000000000000, -0.000000000000000000, -1.000000000000000000 ) ) ;
#281 = ORIENTED_EDGE ( 'NONE', *, *, #172, .T. ) ;
#282 =( NAMED_UNIT ( * ) SI_UNIT ( $, .STERADIAN. ) SOLID_ANGLE_UNIT ( ) );
#283 = DIRECTION ( 'NONE',  ( 1.000000000000000000, 0.000000000000000000, 0.000000000000000000 ) ) ;
#284 = ORIENTED_EDGE ( 'NONE', *, *, #339, .F. ) ;
#285 = DIRECTION ( 'NONE',  ( -0.000000000000000000, -0.000000000000000000, -1.000000000000000000 ) ) ;
#286 = DIRECTION ( 'NONE',  ( -1.000000000000000000, 0.000000000000000000, -0.000000000000000000 ) ) ;
#287 = CARTESIAN_POINT ( 'NONE',  ( 1.154700538379253016, 2.000000000000001332, -2.500000000000000000 ) ) ;
#288 = PRODUCT ( '볼트 m5 45', '볼트 m5 45', '', ( #173 ) ) ;
#289 = APPROVAL ( #291, 'UNSPECIFIED' ) ;
#290 = DIRECTION ( 'NONE',  ( 0.4999999999999997780, -0.8660254037844387076, 0.000000000000000000 ) ) ;
#291 = APPROVAL_STATUS ( 'not_yet_approved' ) ;
#292 = LINE ( 'NONE', #113, #53 ) ;
#293 = CARTESIAN_POINT ( 'NONE',  ( -2.309401076758504701, 1.084202172485504434E-15, -5.000000000000000000 ) ) ;
#294 = AXIS2_PLACEMENT_3D ( 'NONE', #324, #183, #111 ) ;
#295 = PERSON ( 'UNSPECIFIED', 'UNSPECIFIED', 'UNSPECIFIED', ('UNSPECIFIED'), ('UNSPECIFIED'), ('UNSPECIFIED') ) ;
#296 = PRODUCT_DEFINITION ( 'UNKNOWN', '', #316, #365 ) ;
#297 = CLOSED_SHELL ( 'NONE', ( #450, #279, #361, #263, #13, #210, #122, #64, #8, #307, #28, #150, #355, #392 ) ) ;
#298 = APPROVAL_DATE_TIME ( #184, #289 ) ;
#299 = DIRECTION ( 'NONE',  ( -0.5000000000000002220, -0.8660254037844384856, 0.000000000000000000 ) ) ;
#300 = PERSON_AND_ORGANIZATION_ROLE ( 'design_supplier' ) ;
#301 = LINE ( 'NONE', #308, #65 ) ;
#302 = VECTOR ( 'NONE', #104, 1000.000000000000000 ) ;
#303 = DIRECTION ( 'NONE',  ( 1.000000000000000000, -1.877893248421447310E-16, 0.000000000000000000 ) ) ;
#304 = CARTESIAN_POINT ( 'NONE',  ( -3.500000000000000000, 4.286263797015736595E-16, 0.000000000000000000 ) ) ;
#305 = DIRECTION ( 'NONE',  ( 0.000000000000000000, 0.000000000000000000, 1.000000000000000000 ) ) ;
#306 = AXIS2_PLACEMENT_3D ( 'NONE', #105, #141, #283 ) ;
#307 = ADVANCED_FACE ( 'NONE', ( #333 ), #410, .F. ) ;
#308 = CARTESIAN_POINT ( 'NONE',  ( 2.309401076758504701, -8.673617379884035472E-16, -5.000000000000000000 ) ) ;
#309 = ORIENTED_EDGE ( 'NONE', *, *, #222, .T. ) ;
#310 = ORIENTED_EDGE ( 'NONE', *, *, #182, .T. ) ;
#311 = FACE_BOUND ( 'NONE', #235, .T. ) ;
#312 = FACE_BOUND ( 'NONE', #126, .T. ) ;
#313 = CARTESIAN_POINT ( 'NONE',  ( -1.154700538379252350, -2.000000000000001776, -2.500000000000000000 ) ) ;
#314 = EDGE_LOOP ( 'NONE', ( #281, #17, #413, #29 ) ) ;
#315 = LINE ( 'NONE', #425, #421 ) ;
#316 = PRODUCT_DEFINITION_FORMATION_WITH_SPECIFIED_SOURCE ( 'ANY', '', #288, .NOT_KNOWN. ) ;
#317 = CARTESIAN_POINT ( 'NONE',  ( 1.154700538379253016, 2.000000000000001332, -2.500000000000000000 ) ) ;
#318 = CARTESIAN_POINT ( 'NONE',  ( 0.000000000000000000, 0.000000000000000000, 45.00000000000000000 ) ) ;
#319 = PLANE ( 'NONE',  #168 ) ;
#320 = EDGE_CURVE ( 'NONE', #273, #128, #335, .T. ) ;
#321 = LINE ( 'NONE', #166, #302 ) ;
#322 = DIRECTION ( 'NONE',  ( 0.5000000000000002220, 0.8660254037844384856, 0.000000000000000000 ) ) ;
#323 = DATE_TIME_ROLE ( 'classification_date' ) ;
#324 = CARTESIAN_POINT ( 'NONE',  ( 0.000000000000000000, 0.000000000000000000, 0.000000000000000000 ) ) ;
#325 = AXIS2_PLACEMENT_3D ( 'NONE', #51, #439, #406 ) ;
#326 = APPROVAL_STATUS ( 'not_yet_approved' ) ;
#327 = DIRECTION ( 'NONE',  ( -0.8660254037844388186, -0.4999999999999998335, 0.000000000000000000 ) ) ;
#328 = COORDINATED_UNIVERSAL_TIME_OFFSET ( 9, 0, .AHEAD. ) ;
#329 = VECTOR ( 'NONE', #285, 1000.000000000000000 ) ;
#330 = APPROVAL_STATUS ( 'not_yet_approved' ) ;
#331 = APPLICATION_PROTOCOL_DEFINITION ( 'international standard', 'config_control_design', 1994, #278 ) ;
#332 = EDGE_CURVE ( 'NONE', #194, #454, #301, .T. ) ;
#333 = FACE_OUTER_BOUND ( 'NONE', #336, .T. ) ;
#334 = APPROVAL_PERSON_ORGANIZATION ( #402, #58, #83 ) ;
#335 = LINE ( 'NONE', #92, #220 ) ;
#336 = EDGE_LOOP ( 'NONE', ( #381, #447, #163, #239 ) ) ;
#337 = CARTESIAN_POINT ( 'NONE',  ( 0.000000000000000000, 0.000000000000000000, -5.000000000000000000 ) ) ;
#338 = CARTESIAN_POINT ( 'NONE',  ( 0.000000000000000000, 0.000000000000000000, 0.000000000000000000 ) ) ;
#339 = EDGE_CURVE ( 'NONE', #343, #345, #442, .T. ) ;
#340 = ORIENTED_EDGE ( 'NONE', *, *, #100, .F. ) ;
#341 = DIRECTION ( 'NONE',  ( 0.000000000000000000, 0.000000000000000000, 1.000000000000000000 ) ) ;
#342 = ORIENTED_EDGE ( 'NONE', *, *, #164, .T. ) ;
#343 = VERTEX_POINT ( 'NONE', #22 ) ;
#344 = DIRECTION ( 'NONE',  ( -0.5000000000000002220, -0.8660254037844384856, 0.000000000000000000 ) ) ;
#345 = VERTEX_POINT ( 'NONE', #154 ) ;
#346 = FACE_OUTER_BOUND ( 'NONE', #199, .T. ) ;
#347 = ORIENTED_EDGE ( 'NONE', *, *, #39, .T. ) ;
#348 = EDGE_CURVE ( 'NONE', #107, #62, #162, .T. ) ;
#349 = CARTESIAN_POINT ( 'NONE',  ( -1.154700538379252350, 2.000000000000001776, -2.500000000000000000 ) ) ;
#350 = ORIENTED_EDGE ( 'NONE', *, *, #440, .T. ) ;
#351 = AXIS2_PLACEMENT_3D ( 'NONE', #94, #229, #408 ) ;
#352 = CARTESIAN_POINT ( 'NONE',  ( 1.154700538379251906, -2.000000000000001776, -5.000000000000000000 ) ) ;
#353 = CARTESIAN_POINT ( 'NONE',  ( -2.309401076758504701, 8.673617379884035472E-16, -2.500000000000000000 ) ) ;
#354 = FACE_OUTER_BOUND ( 'NONE', #417, .T. ) ;
#355 = ADVANCED_FACE ( 'NONE', ( #129 ), #48, .F. ) ;
#356 = DIRECTION ( 'NONE',  ( -1.000000000000000000, 0.000000000000000000, 0.000000000000000000 ) ) ;
#357 = LINE ( 'NONE', #38, #367 ) ;
#358 = DATE_AND_TIME ( #398, #400 ) ;
#359 = LINE ( 'NONE', #40, #6 ) ;
#360 = AXIS2_PLACEMENT_3D ( 'NONE', #236, #394, #383 ) ;
#361 = ADVANCED_FACE ( 'NONE', ( #265 ), #140, .T. ) ;
#362 = PERSON_AND_ORGANIZATION ( #295, #169 ) ;
#363 = CARTESIAN_POINT ( 'NONE',  ( 0.000000000000000000, 0.000000000000000000, 0.000000000000000000 ) ) ;
#364 = APPROVAL_DATE_TIME ( #149, #58 ) ;
#365 = DESIGN_CONTEXT ( 'detailed design', #278, 'design' ) ;
#366 = DATE_AND_TIME ( #436, #178 ) ;
#367 = VECTOR ( 'NONE', #369, 1000.000000000000227 ) ;
#368 = CC_DESIGN_DATE_AND_TIME_ASSIGNMENT ( #358, #257, ( #296 ) ) ;
#369 = DIRECTION ( 'NONE',  ( -0.4999999999999997780, 0.8660254037844387076, 0.000000000000000000 ) ) ;
#370 = DIRECTION ( 'NONE',  ( -0.000000000000000000, -0.000000000000000000, -1.000000000000000000 ) ) ;
#371 = CARTESIAN_POINT ( 'NONE',  ( 1.154700538379253016, 2.000000000000001332, -5.000000000000000000 ) ) ;
#372 = VERTEX_POINT ( 'NONE', #71 ) ;
#373 = VECTOR ( 'NONE', #76, 1000.000000000000000 ) ;
#374 = CC_DESIGN_PERSON_AND_ORGANIZATION_ASSIGNMENT ( #240, #80, ( #288 ) ) ;
#375 = FACE_OUTER_BOUND ( 'NONE', #52, .T. ) ;
#376 = ORIENTED_EDGE ( 'NONE', *, *, #415, .F. ) ;
#377 = LINE ( 'NONE', #56, #70 ) ;
#378 = VERTEX_POINT ( 'NONE', #25 ) ;
#379 = EDGE_LOOP ( 'NONE', ( #201, #96 ) ) ;
#380 = CARTESIAN_POINT ( 'NONE',  ( 2.500000000000000000, 3.061616997868382648E-16, 0.000000000000000000 ) ) ;
#381 = ORIENTED_EDGE ( 'NONE', *, *, #332, .T. ) ;
#382 = EDGE_LOOP ( 'NONE', ( #134, #385, #204, #198 ) ) ;
#383 = DIRECTION ( 'NONE',  ( 1.000000000000000000, 0.000000000000000000, 0.000000000000000000 ) ) ;
#384 = ORIENTED_EDGE ( 'NONE', *, *, #271, .F. ) ;
#385 = ORIENTED_EDGE ( 'NONE', *, *, #186, .T. ) ;
#386 = CARTESIAN_POINT ( 'NONE',  ( -3.500000000000000000, 4.286263797015736595E-16, -5.000000000000000000 ) ) ;
#387 = VERTEX_POINT ( 'NONE', #386 ) ;
#388 = CIRCLE ( 'NONE', #405, 3.500000000000000000 ) ;
#389 = VERTEX_POINT ( 'NONE', #349 ) ;
#390 = PLANE ( 'NONE',  #455 ) ;
#391 = AXIS2_PLACEMENT_3D ( 'NONE', #108, #217, #249 ) ;
#392 = ADVANCED_FACE ( 'NONE', ( #346 ), #66, .T. ) ;
#393 = CARTESIAN_POINT ( 'NONE',  ( -2.500000000000000000, 0.000000000000000000, 45.00000000000000000 ) ) ;
#394 = DIRECTION ( 'NONE',  ( 0.000000000000000000, 0.000000000000000000, 1.000000000000000000 ) ) ;
#395 = DIRECTION ( 'NONE',  ( 0.4999999999999995559, -0.8660254037844389297, 0.000000000000000000 ) ) ;
#396 = PERSON_AND_ORGANIZATION_ROLE ( 'classification_officer' ) ;
#397 = DIRECTION ( 'NONE',  ( -0.000000000000000000, 0.000000000000000000, 1.000000000000000000 ) ) ;
#398 = CALENDAR_DATE ( 2024, 26, 9 ) ;
#399 = CARTESIAN_POINT ( 'NONE',  ( 1.154700538379251906, -2.000000000000001776, -2.500000000000000000 ) ) ;
#400 = LOCAL_TIME ( 23, 22, 11.00000000000000000, #221 ) ;
#401 = PERSON_AND_ORGANIZATION ( #295, #169 ) ;
#402 = PERSON_AND_ORGANIZATION ( #295, #169 ) ;
#403 = APPROVAL_ROLE ( '' ) ;
#404 = ORIENTED_EDGE ( 'NONE', *, *, #172, .F. ) ;
#405 = AXIS2_PLACEMENT_3D ( 'NONE', #459, #165, #27 ) ;
#406 = DIRECTION ( 'NONE',  ( 0.5000000000000002220, 0.8660254037844384856, 0.000000000000000000 ) ) ;
#407 = EDGE_CURVE ( 'NONE', #454, #270, #207, .T. ) ;
#408 = DIRECTION ( 'NONE',  ( -1.000000000000000000, 0.000000000000000000, 0.000000000000000000 ) ) ;
#409 = AXIS2_PLACEMENT_3D ( 'NONE', #159, #272, #188 ) ;
#410 = PLANE ( 'NONE',  #325 ) ;
#411 = CARTESIAN_POINT ( 'NONE',  ( -1.154700538379252350, 2.000000000000001776, -5.000000000000000000 ) ) ;
#412 = DIRECTION ( 'NONE',  ( 0.000000000000000000, -1.000000000000000000, 0.000000000000000000 ) ) ;
#413 = ORIENTED_EDGE ( 'NONE', *, *, #348, .F. ) ;
#414 =( LENGTH_UNIT ( ) NAMED_UNIT ( * ) SI_UNIT ( .MILLI., .METRE. ) );
#415 = EDGE_CURVE ( 'NONE', #453, #241, #388, .T. ) ;
#416 = DIRECTION ( 'NONE',  ( 0.000000000000000000, 0.000000000000000000, -1.000000000000000000 ) ) ;
#417 = EDGE_LOOP ( 'NONE', ( #196, #444 ) ) ;
#418 = LOCAL_TIME ( 23, 22, 11.00000000000000000, #218 ) ;
#419 = FACE_OUTER_BOUND ( 'NONE', #382, .T. ) ;
#420 = ORIENTED_EDGE ( 'NONE', *, *, #252, .F. ) ;
#421 = VECTOR ( 'NONE', #456, 1000.000000000000000 ) ;
#422 = EDGE_CURVE ( 'NONE', #107, #270, #212, .T. ) ;
#423 = CARTESIAN_POINT ( 'NONE',  ( -2.309401076758504701, 8.673617379884035472E-16, -2.500000000000000000 ) ) ;
#424 = AXIS2_PLACEMENT_3D ( 'NONE', #318, #213, #463 ) ;
#425 = CARTESIAN_POINT ( 'NONE',  ( 3.500000000000000000, 0.000000000000000000, -5.000000000000000000 ) ) ;
#426 = DIRECTION ( 'NONE',  ( -0.000000000000000000, -0.000000000000000000, -1.000000000000000000 ) ) ;
#427 = LINE ( 'NONE', #353, #208 ) ;
#428 = AXIS2_PLACEMENT_3D ( 'NONE', #200, #341, #268 ) ;
#429 = SHAPE_DEFINITION_REPRESENTATION ( #225, #115 ) ;
#430 = CARTESIAN_POINT ( 'NONE',  ( -1.154700538379252350, -2.000000000000001776, -2.500000000000000000 ) ) ;
#431 = DIRECTION ( 'NONE',  ( 0.8660254037844389297, 0.4999999999999995559, -0.000000000000000000 ) ) ;
#432 = CC_DESIGN_APPROVAL ( #58, ( #296 ) ) ;
#433 = PERSON_AND_ORGANIZATION ( #295, #169 ) ;
#434 = LINE ( 'NONE', #461, #329 ) ;
#435 = EDGE_CURVE ( 'NONE', #233, #194, #321, .T. ) ;
#436 = CALENDAR_DATE ( 2024, 26, 9 ) ;
#437 = UNCERTAINTY_MEASURE_WITH_UNIT (LENGTH_MEASURE( 1.000000000000000082E-05 ), #414, 'distance_accuracy_value', 'NONE');
#438 = CC_DESIGN_APPROVAL ( #259, ( #54 ) ) ;
#439 = DIRECTION ( 'NONE',  ( 0.8660254037844385966, -0.5000000000000003331, 0.000000000000000000 ) ) ;
#440 = EDGE_CURVE ( 'NONE', #372, #453, #315, .T. ) ;
#441 = ORIENTED_EDGE ( 'NONE', *, *, #234, .T. ) ;
#442 = CIRCLE ( 'NONE', #261, 2.500000000000000000 ) ;
#443 = DIRECTION ( 'NONE',  ( -0.8660254037844385966, 0.5000000000000003331, 0.000000000000000000 ) ) ;
#444 = ORIENTED_EDGE ( 'NONE', *, *, #45, .T. ) ;
#445 = CARTESIAN_POINT ( 'NONE',  ( -1.154700538379252350, -2.000000000000001776, -5.000000000000000000 ) ) ;
#446 = VECTOR ( 'NONE', #247, 1000.000000000000000 ) ;
#447 = ORIENTED_EDGE ( 'NONE', *, *, #131, .F. ) ;
#448 = DIRECTION ( 'NONE',  ( -0.000000000000000000, 0.000000000000000000, 1.000000000000000000 ) ) ;
#449 = VERTEX_POINT ( 'NONE', #317 ) ;
#450 = ADVANCED_FACE ( 'NONE', ( #419 ), #32, .T. ) ;
#451 = CARTESIAN_POINT ( 'NONE',  ( -1.154700538379252350, -2.000000000000001776, -2.500000000000000000 ) ) ;
#452 = ORIENTED_EDGE ( 'NONE', *, *, #271, .T. ) ;
#453 = VERTEX_POINT ( 'NONE', #102 ) ;
#454 = VERTEX_POINT ( 'NONE', #352 ) ;
#455 = AXIS2_PLACEMENT_3D ( 'NONE', #338, #305, #171 ) ;
#456 = DIRECTION ( 'NONE',  ( 0.000000000000000000, 0.000000000000000000, 1.000000000000000000 ) ) ;
#457 = EDGE_LOOP ( 'NONE', ( #420, #63 ) ) ;
#458 = EDGE_CURVE ( 'NONE', #389, #449, #68, .T. ) ;
#459 = CARTESIAN_POINT ( 'NONE',  ( 0.000000000000000000, 0.000000000000000000, 0.000000000000000000 ) ) ;
#460 = DIRECTION ( 'NONE',  ( -0.000000000000000000, 0.000000000000000000, 1.000000000000000000 ) ) ;
#461 = CARTESIAN_POINT ( 'NONE',  ( 2.500000000000000000, 3.061616997868382648E-16, 45.00000000000000000 ) ) ;
#462 = DIRECTION ( 'NONE',  ( 1.000000000000000000, -1.877893248421447310E-16, 0.000000000000000000 ) ) ;
#463 = DIRECTION ( 'NONE',  ( 1.000000000000000000, 0.000000000000000000, 0.000000000000000000 ) ) ;
ENDSEC;
END-ISO-10303-21;
