ISO-10303-21;
HEADER;
FILE_DESCRIPTION (( 'STEP AP203' ),
    '1' );
FILE_NAME ('볼트 m3 12.STEP',
    '2024-09-26T14:16:29',
    ( '' ),
    ( '' ),
    'SwSTEP 2.0',
    'SolidWorks 2022',
    '' );
FILE_SCHEMA (( 'CONFIG_CONTROL_DESIGN' ));
ENDSEC;

DATA;
#1 = EDGE_CURVE ( 'NONE', #318, #391, #362, .T. ) ;
#2 = CARTESIAN_POINT ( 'NONE',  ( 0.000000000000000000, 0.000000000000000000, -3.000000000000000000 ) ) ;
#3 = ORIENTED_EDGE ( 'NONE', *, *, #260, .T. ) ;
#4 = ORIENTED_EDGE ( 'NONE', *, *, #350, .T. ) ;
#5 = DIRECTION ( 'NONE',  ( 1.000000000000000000, 0.000000000000000000, 0.000000000000000000 ) ) ;
#6 = APPROVAL_ROLE ( '' ) ;
#7 = ORIENTED_EDGE ( 'NONE', *, *, #144, .T. ) ;
#8 = CIRCLE ( 'NONE', #198, 1.500000000000000222 ) ;
#9 = FACE_OUTER_BOUND ( 'NONE', #186, .T. ) ;
#10 = EDGE_CURVE ( 'NONE', #318, #247, #78, .T. ) ;
#11 = ORIENTED_EDGE ( 'NONE', *, *, #357, .T. ) ;
#12 =( NAMED_UNIT ( * ) SI_UNIT ( $, .STERADIAN. ) SOLID_ANGLE_UNIT ( ) );
#13 = LINE ( 'NONE', #394, #397 ) ;
#14 = AXIS2_PLACEMENT_3D ( 'NONE', #2, #386, #140 ) ;
#15 = EDGE_CURVE ( 'NONE', #424, #443, #13, .T. ) ;
#16 = ORIENTED_EDGE ( 'NONE', *, *, #91, .T. ) ;
#17 = DATE_AND_TIME ( #261, #219 ) ;
#18 = LINE ( 'NONE', #126, #212 ) ;
#19 = LINE ( 'NONE', #416, #188 ) ;
#20 = AXIS2_PLACEMENT_3D ( 'NONE', #276, #282, #107 ) ;
#21 = DIRECTION ( 'NONE',  ( -1.000000000000000000, 0.000000000000000000, 0.000000000000000000 ) ) ;
#22 = CC_DESIGN_DATE_AND_TIME_ASSIGNMENT ( #17, #382, ( #99 ) ) ;
#23 = ORIENTED_EDGE ( 'NONE', *, *, #411, .T. ) ;
#24 = APPROVAL_ROLE ( '' ) ;
#25 = DIRECTION ( 'NONE',  ( 0.000000000000000000, 0.000000000000000000, 1.000000000000000000 ) ) ;
#26 = FACE_OUTER_BOUND ( 'NONE', #256, .T. ) ;
#27 = AXIS2_PLACEMENT_3D ( 'NONE', #449, #25, #93 ) ;
#28 = CARTESIAN_POINT ( 'NONE',  ( 0.000000000000000000, 0.000000000000000000, -3.000000000000000000 ) ) ;
#29 = ADVANCED_FACE ( 'NONE', ( #434 ), #112, .F. ) ;
#30 = ORIENTED_EDGE ( 'NONE', *, *, #63, .T. ) ;
#31 = DIRECTION ( 'NONE',  ( 1.000000000000000000, -1.502314598737158045E-16, 0.000000000000000000 ) ) ;
#32 = CARTESIAN_POINT ( 'NONE',  ( 1.443375672974065216, -2.168404344971008868E-16, -3.000000000000000000 ) ) ;
#33 = CC_DESIGN_PERSON_AND_ORGANIZATION_ASSIGNMENT ( #194, #373, ( #99 ) ) ;
#34 = CARTESIAN_POINT ( 'NONE',  ( 1.500000000000000222, 1.836970198721030181E-16, 0.000000000000000000 ) ) ;
#35 = AXIS2_PLACEMENT_3D ( 'NONE', #28, #291, #393 ) ;
#36 = VERTEX_POINT ( 'NONE', #439 ) ;
#37 = FACE_OUTER_BOUND ( 'NONE', #349, .T. ) ;
#38 = VERTEX_POINT ( 'NONE', #295 ) ;
#39 = CALENDAR_DATE ( 2024, 26, 9 ) ;
#40 = APPLICATION_PROTOCOL_DEFINITION ( 'international standard', 'config_control_design', 1994, #253 ) ;
#41 = DIRECTION ( 'NONE',  ( 0.000000000000000000, 0.000000000000000000, -1.000000000000000000 ) ) ;
#42 = EDGE_CURVE ( 'NONE', #247, #67, #49, .T. ) ;
#43 = VECTOR ( 'NONE', #370, 1000.000000000000000 ) ;
#44 = DIRECTION ( 'NONE',  ( -1.000000000000000000, 0.000000000000000000, 0.000000000000000000 ) ) ;
#45 = CARTESIAN_POINT ( 'NONE',  ( 0.000000000000000000, 0.000000000000000000, 0.000000000000000000 ) ) ;
#46 = CARTESIAN_POINT ( 'NONE',  ( -0.7216878364870326079, -1.250000000000000888, -1.700000000000000178 ) ) ;
#47 = EDGE_CURVE ( 'NONE', #443, #69, #365, .T. ) ;
#48 = PERSON_AND_ORGANIZATION ( #329, #300 ) ;
#49 = LINE ( 'NONE', #251, #360 ) ;
#50 = AXIS2_PLACEMENT_3D ( 'NONE', #138, #214, #106 ) ;
#51 = DIRECTION ( 'NONE',  ( -0.000000000000000000, -0.000000000000000000, -1.000000000000000000 ) ) ;
#52 = DIRECTION ( 'NONE',  ( -0.4999999999999997780, 0.8660254037844388186, 0.000000000000000000 ) ) ;
#53 = VERTEX_POINT ( 'NONE', #228 ) ;
#54 = CALENDAR_DATE ( 2024, 26, 9 ) ;
#55 = FACE_OUTER_BOUND ( 'NONE', #200, .T. ) ;
#56 = CC_DESIGN_PERSON_AND_ORGANIZATION_ASSIGNMENT ( #152, #81, ( #221 ) ) ;
#57 = ORIENTED_EDGE ( 'NONE', *, *, #192, .T. ) ;
#58 = CIRCLE ( 'NONE', #455, 1.500000000000000222 ) ;
#59 = CARTESIAN_POINT ( 'NONE',  ( -1.500000000000000222, 0.000000000000000000, 12.00000000000000000 ) ) ;
#60 = EDGE_LOOP ( 'NONE', ( #104, #23 ) ) ;
#61 = DIRECTION ( 'NONE',  ( 1.000000000000000000, 0.000000000000000000, -0.000000000000000000 ) ) ;
#62 = EDGE_LOOP ( 'NONE', ( #463, #7, #426, #122 ) ) ;
#63 = EDGE_CURVE ( 'NONE', #424, #147, #118, .T. ) ;
#64 = DIRECTION ( 'NONE',  ( -1.000000000000000000, 0.000000000000000000, 0.000000000000000000 ) ) ;
#65 = CC_DESIGN_APPROVAL ( #135, ( #221 ) ) ;
#66 = CARTESIAN_POINT ( 'NONE',  ( -1.500000000000000222, 0.000000000000000000, 0.000000000000000000 ) ) ;
#67 = VERTEX_POINT ( 'NONE', #189 ) ;
#68 = CARTESIAN_POINT ( 'NONE',  ( 2.500000000000000444, 0.000000000000000000, 0.000000000000000000 ) ) ;
#69 = VERTEX_POINT ( 'NONE', #331 ) ;
#70 = ORIENTED_EDGE ( 'NONE', *, *, #109, .T. ) ;
#71 = CARTESIAN_POINT ( 'NONE',  ( 1.443375672974065216, -2.168404344971008868E-16, -3.000000000000000000 ) ) ;
#72 = VERTEX_POINT ( 'NONE', #156 ) ;
#73 = ORIENTED_EDGE ( 'NONE', *, *, #1, .F. ) ;
#74 = CYLINDRICAL_SURFACE ( 'NONE', #298, 1.500000000000000222 ) ;
#75 = AXIS2_PLACEMENT_3D ( 'NONE', #161, #157, #197 ) ;
#76 = ADVANCED_FACE ( 'NONE', ( #9 ), #216, .T. ) ;
#77 = MECHANICAL_CONTEXT ( 'NONE', #207, 'mechanical' ) ;
#78 = LINE ( 'NONE', #287, #352 ) ;
#79 = ORIENTED_EDGE ( 'NONE', *, *, #83, .F. ) ;
#80 = CC_DESIGN_APPROVAL ( #235, ( #99 ) ) ;
#81 = PERSON_AND_ORGANIZATION_ROLE ( 'creator' ) ;
#82 = DIRECTION ( 'NONE',  ( 0.5000000000000001110, 0.8660254037844385966, 0.000000000000000000 ) ) ;
#83 = EDGE_CURVE ( 'NONE', #105, #396, #296, .T. ) ;
#84 = APPROVAL_ROLE ( '' ) ;
#85 = ORIENTED_EDGE ( 'NONE', *, *, #458, .F. ) ;
#86 = APPROVAL_STATUS ( 'not_yet_approved' ) ;
#87 = ORIENTED_EDGE ( 'NONE', *, *, #42, .F. ) ;
#88 = VECTOR ( 'NONE', #441, 1000.000000000000000 ) ;
#89 = CARTESIAN_POINT ( 'NONE',  ( 0.7216878364870330520, 1.250000000000000666, -1.700000000000000178 ) ) ;
#90 = PERSON_AND_ORGANIZATION ( #329, #300 ) ;
#91 = EDGE_CURVE ( 'NONE', #72, #38, #262, .T. ) ;
#92 = DIRECTION ( 'NONE',  ( -0.4999999999999997780, 0.8660254037844388186, 0.000000000000000000 ) ) ;
#93 = DIRECTION ( 'NONE',  ( 1.000000000000000000, 0.000000000000000000, 0.000000000000000000 ) ) ;
#94 = MANIFOLD_SOLID_BREP ( '컷-돌출1', #413 ) ;
#95 = CARTESIAN_POINT ( 'NONE',  ( -0.7216878364870326079, 1.250000000000000888, -1.700000000000000178 ) ) ;
#96 = DIRECTION ( 'NONE',  ( -0.000000000000000000, -0.000000000000000000, -1.000000000000000000 ) ) ;
#97 = CYLINDRICAL_SURFACE ( 'NONE', #440, 2.500000000000000444 ) ;
#98 = VECTOR ( 'NONE', #425, 1000.000000000000000 ) ;
#99 = SECURITY_CLASSIFICATION ( '', '', #233 ) ;
#100 = CYLINDRICAL_SURFACE ( 'NONE', #14, 2.500000000000000444 ) ;
#101 = ORIENTED_EDGE ( 'NONE', *, *, #420, .F. ) ;
#102 = CARTESIAN_POINT ( 'NONE',  ( 0.000000000000000000, 0.000000000000000000, 12.00000000000000000 ) ) ;
#103 = CC_DESIGN_PERSON_AND_ORGANIZATION_ASSIGNMENT ( #90, #267, ( #213 ) ) ;
#104 = ORIENTED_EDGE ( 'NONE', *, *, #429, .T. ) ;
#105 = VERTEX_POINT ( 'NONE', #303 ) ;
#106 = DIRECTION ( 'NONE',  ( 0.4999999999999997224, -0.8660254037844387076, 0.000000000000000000 ) ) ;
#107 = DIRECTION ( 'NONE',  ( -1.000000000000000000, 0.000000000000000000, 0.000000000000000000 ) ) ;
#108 = VECTOR ( 'NONE', #225, 1000.000000000000000 ) ;
#109 = EDGE_CURVE ( 'NONE', #72, #36, #160, .T. ) ;
#110 = LINE ( 'NONE', #250, #279 ) ;
#111 = CARTESIAN_POINT ( 'NONE',  ( -1.443375672974065216, 4.336808689942017736E-16, -1.700000000000000178 ) ) ;
#112 = PLANE ( 'NONE',  #432 ) ;
#113 = DIRECTION ( 'NONE',  ( -0.8660254037844387076, 0.5000000000000000000, 0.000000000000000000 ) ) ;
#114 = EDGE_LOOP ( 'NONE', ( #150, #16, #270, #419 ) ) ;
#115 = AXIS2_PLACEMENT_3D ( 'NONE', #232, #236, #374 ) ;
#116 = DATE_AND_TIME ( #185, #155 ) ;
#117 = DESIGN_CONTEXT ( 'detailed design', #253, 'design' ) ;
#118 = LINE ( 'NONE', #259, #313 ) ;
#119 = CARTESIAN_POINT ( 'NONE',  ( 0.7216878364870330520, 1.250000000000000666, -3.000000000000000000 ) ) ;
#120 = CARTESIAN_POINT ( 'NONE',  ( 1.443375672974065216, -2.168404344971008868E-16, -1.700000000000000178 ) ) ;
#121 = VECTOR ( 'NONE', #341, 1000.000000000000000 ) ;
#122 = ORIENTED_EDGE ( 'NONE', *, *, #192, .F. ) ;
#123 = ADVANCED_FACE ( 'NONE', ( #299 ), #234, .F. ) ;
#124 = CARTESIAN_POINT ( 'NONE',  ( -0.7216878364870326079, 1.250000000000000888, -1.700000000000000178 ) ) ;
#125 = ORIENTED_EDGE ( 'NONE', *, *, #128, .F. ) ;
#126 = CARTESIAN_POINT ( 'NONE',  ( -1.443375672974065216, 4.336808689942017736E-16, -3.000000000000000000 ) ) ;
#127 = CARTESIAN_POINT ( 'NONE',  ( 0.000000000000000000, 0.000000000000000000, 0.000000000000000000 ) ) ;
#128 = EDGE_CURVE ( 'NONE', #38, #338, #421, .T. ) ;
#129 = ORIENTED_EDGE ( 'NONE', *, *, #42, .T. ) ;
#130 = AXIS2_PLACEMENT_3D ( 'NONE', #456, #378, #406 ) ;
#131 = ORIENTED_EDGE ( 'NONE', *, *, #458, .T. ) ;
#132 = CARTESIAN_POINT ( 'NONE',  ( 0.000000000000000000, 0.000000000000000000, -3.000000000000000000 ) ) ;
#133 = DIRECTION ( 'NONE',  ( 0.5000000000000002220, 0.8660254037844384856, 0.000000000000000000 ) ) ;
#134 = VERTEX_POINT ( 'NONE', #120 ) ;
#135 = APPROVAL ( #324, 'UNSPECIFIED' ) ;
#136 = VECTOR ( 'NONE', #96, 1000.000000000000000 ) ;
#137 = APPROVAL_PERSON_ORGANIZATION ( #400, #268, #84 ) ;
#138 = CARTESIAN_POINT ( 'NONE',  ( -0.7216878364870326079, -1.250000000000000888, -1.700000000000000178 ) ) ;
#139 = EDGE_LOOP ( 'NONE', ( #277, #142, #319, #30 ) ) ;
#140 = DIRECTION ( 'NONE',  ( 1.000000000000000000, 0.000000000000000000, 0.000000000000000000 ) ) ;
#141 = ORIENTED_EDGE ( 'NONE', *, *, #158, .F. ) ;
#142 = ORIENTED_EDGE ( 'NONE', *, *, #47, .F. ) ;
#143 = LINE ( 'NONE', #281, #98 ) ;
#144 = EDGE_CURVE ( 'NONE', #53, #399, #375, .T. ) ;
#145 = CARTESIAN_POINT ( 'NONE',  ( -1.443375672974065216, 4.336808689942017736E-16, -1.700000000000000178 ) ) ;
#146 = AXIS2_PLACEMENT_3D ( 'NONE', #317, #311, #133 ) ;
#147 = VERTEX_POINT ( 'NONE', #410 ) ;
#148 =( NAMED_UNIT ( * ) PLANE_ANGLE_UNIT ( ) SI_UNIT ( $, .RADIAN. ) );
#149 = CARTESIAN_POINT ( 'NONE',  ( 0.000000000000000000, 0.000000000000000000, -1.700000000000000178 ) ) ;
#150 = ORIENTED_EDGE ( 'NONE', *, *, #420, .T. ) ;
#151 = PRODUCT_RELATED_PRODUCT_CATEGORY ( 'detail', '', ( #342 ) ) ;
#152 = PERSON_AND_ORGANIZATION ( #329, #300 ) ;
#153 = VECTOR ( 'NONE', #323, 1000.000000000000000 ) ;
#154 = DIRECTION ( 'NONE',  ( 0.000000000000000000, -1.000000000000000000, 0.000000000000000000 ) ) ;
#155 = LOCAL_TIME ( 23, 16, 29.00000000000000000, #222 ) ;
#156 = CARTESIAN_POINT ( 'NONE',  ( -2.500000000000000444, 3.061616997868383634E-16, -3.000000000000000000 ) ) ;
#157 = DIRECTION ( 'NONE',  ( 0.8660254037844388186, 0.4999999999999996669, -0.000000000000000000 ) ) ;
#158 = EDGE_CURVE ( 'NONE', #391, #459, #18, .T. ) ;
#159 = LINE ( 'NONE', #230, #172 ) ;
#160 = CIRCLE ( 'NONE', #130, 2.500000000000000444 ) ;
#161 = CARTESIAN_POINT ( 'NONE',  ( 0.7216878364870330520, 1.250000000000000666, -1.700000000000000178 ) ) ;
#162 = LINE ( 'NONE', #305, #285 ) ;
#163 = CARTESIAN_POINT ( 'NONE',  ( -0.7216878364870326079, -1.250000000000000888, -3.000000000000000000 ) ) ;
#164 = AXIS2_PLACEMENT_3D ( 'NONE', #149, #41, #181 ) ;
#165 = ORIENTED_EDGE ( 'NONE', *, *, #174, .F. ) ;
#166 = DIRECTION ( 'NONE',  ( -0.000000000000000000, 0.000000000000000000, 1.000000000000000000 ) ) ;
#167 = CARTESIAN_POINT ( 'NONE',  ( -1.443375672974065216, 4.336808689942017736E-16, -1.700000000000000178 ) ) ;
#168 = EDGE_CURVE ( 'NONE', #443, #318, #19, .T. ) ;
#169 = ORIENTED_EDGE ( 'NONE', *, *, #288, .F. ) ;
#170 = COORDINATED_UNIVERSAL_TIME_OFFSET ( 9, 0, .AHEAD. ) ;
#171 = DIRECTION ( 'NONE',  ( 1.000000000000000000, 0.000000000000000000, 0.000000000000000000 ) ) ;
#172 = VECTOR ( 'NONE', #271, 1000.000000000000000 ) ;
#173 = CARTESIAN_POINT ( 'NONE',  ( 0.000000000000000000, 0.000000000000000000, 12.00000000000000000 ) ) ;
#174 = EDGE_CURVE ( 'NONE', #356, #399, #462, .T. ) ;
#175 = DIRECTION ( 'NONE',  ( 0.000000000000000000, 0.000000000000000000, 1.000000000000000000 ) ) ;
#176 = PRODUCT_DEFINITION_SHAPE ( 'NONE', 'NONE',  #221 ) ;
#177 = APPROVAL_STATUS ( 'not_yet_approved' ) ;
#178 = EDGE_LOOP ( 'NONE', ( #165, #328 ) ) ;
#179 = CARTESIAN_POINT ( 'NONE',  ( -0.7216878364870326079, -1.250000000000000888, -1.700000000000000178 ) ) ;
#180 = CIRCLE ( 'NONE', #405, 2.500000000000000444 ) ;
#181 = DIRECTION ( 'NONE',  ( -1.000000000000000000, 0.000000000000000000, -0.000000000000000000 ) ) ;
#182 = CARTESIAN_POINT ( 'NONE',  ( 0.000000000000000000, 0.000000000000000000, 12.00000000000000000 ) ) ;
#183 = CARTESIAN_POINT ( 'NONE',  ( 0.7216878364870323859, -1.250000000000000888, -1.700000000000000178 ) ) ;
#184 = CC_DESIGN_PERSON_AND_ORGANIZATION_ASSIGNMENT ( #333, #369, ( #213 ) ) ;
#185 = CALENDAR_DATE ( 2024, 26, 9 ) ;
#186 = EDGE_LOOP ( 'NONE', ( #453, #377, #129, #387, #385, #436 ) ) ;
#187 = CARTESIAN_POINT ( 'NONE',  ( -0.7216878364870326079, 1.250000000000000888, -3.000000000000000000 ) ) ;
#188 = VECTOR ( 'NONE', #92, 1000.000000000000114 ) ;
#189 = CARTESIAN_POINT ( 'NONE',  ( 0.7216878364870330520, 1.250000000000000666, -1.700000000000000178 ) ) ;
#190 = EDGE_LOOP ( 'NONE', ( #220, #85, #448, #238 ) ) ;
#191 = APPROVAL_DATE_TIME ( #336, #235 ) ;
#192 = EDGE_CURVE ( 'NONE', #345, #356, #274, .T. ) ;
#193 = DIRECTION ( 'NONE',  ( -0.000000000000000000, -0.000000000000000000, -1.000000000000000000 ) ) ;
#194 = PERSON_AND_ORGANIZATION ( #329, #300 ) ;
#195 = DIRECTION ( 'NONE',  ( 1.000000000000000000, 0.000000000000000000, -0.000000000000000000 ) ) ;
#196 = ORIENTED_EDGE ( 'NONE', *, *, #109, .F. ) ;
#197 = DIRECTION ( 'NONE',  ( -0.4999999999999996669, 0.8660254037844388186, 0.000000000000000000 ) ) ;
#198 = AXIS2_PLACEMENT_3D ( 'NONE', #173, #166, #431 ) ;
#199 = LINE ( 'NONE', #89, #309 ) ;
#200 = EDGE_LOOP ( 'NONE', ( #347, #367, #430, #283 ) ) ;
#201 = LINE ( 'NONE', #264, #121 ) ;
#202 = DIRECTION ( 'NONE',  ( 1.000000000000000000, 0.000000000000000000, 0.000000000000000000 ) ) ;
#203 = VECTOR ( 'NONE', #31, 1000.000000000000000 ) ;
#204 = LOCAL_TIME ( 23, 16, 29.00000000000000000, #170 ) ;
#205 = CYLINDRICAL_SURFACE ( 'NONE', #20, 1.500000000000000222 ) ;
#206 = EDGE_CURVE ( 'NONE', #67, #105, #199, .T. ) ;
#207 = APPLICATION_CONTEXT ( 'configuration controlled 3d designs of mechanical parts and assemblies' ) ;
#208 = CARTESIAN_POINT ( 'NONE',  ( 0.000000000000000000, 0.000000000000000000, 0.000000000000000000 ) ) ;
#209 = ORIENTED_EDGE ( 'NONE', *, *, #206, .F. ) ;
#210 = FACE_OUTER_BOUND ( 'NONE', #451, .T. ) ;
#211 = EDGE_CURVE ( 'NONE', #147, #69, #162, .T. ) ;
#212 = VECTOR ( 'NONE', #269, 1000.000000000000114 ) ;
#213 = PRODUCT_DEFINITION_FORMATION_WITH_SPECIFIED_SOURCE ( 'ANY', '', #342, .NOT_KNOWN. ) ;
#214 = DIRECTION ( 'NONE',  ( -0.8660254037844388186, -0.4999999999999997780, 0.000000000000000000 ) ) ;
#215 =( LENGTH_UNIT ( ) NAMED_UNIT ( * ) SI_UNIT ( .MILLI., .METRE. ) );
#216 = PLANE ( 'NONE',  #164 ) ;
#217 = DIRECTION ( 'NONE',  ( 0.000000000000000000, 0.000000000000000000, 1.000000000000000000 ) ) ;
#218 = AXIS2_PLACEMENT_3D ( 'NONE', #145, #113, #327 ) ;
#219 = LOCAL_TIME ( 23, 16, 29.00000000000000000, #339 ) ;
#220 = ORIENTED_EDGE ( 'NONE', *, *, #158, .T. ) ;
#221 = PRODUCT_DEFINITION ( 'UNKNOWN', '', #213, #117 ) ;
#222 = COORDINATED_UNIVERSAL_TIME_OFFSET ( 9, 0, .AHEAD. ) ;
#223 = DIRECTION ( 'NONE',  ( 1.000000000000000000, -1.502314598737158045E-16, 0.000000000000000000 ) ) ;
#224 = COORDINATED_UNIVERSAL_TIME_OFFSET ( 9, 0, .AHEAD. ) ;
#225 = DIRECTION ( 'NONE',  ( -0.000000000000000000, -0.000000000000000000, -1.000000000000000000 ) ) ;
#226 = ADVANCED_FACE ( 'NONE', ( #55 ), #445, .F. ) ;
#227 = VECTOR ( 'NONE', #52, 1000.000000000000114 ) ;
#228 = CARTESIAN_POINT ( 'NONE',  ( 1.500000000000000222, 1.836970198721030181E-16, 12.00000000000000000 ) ) ;
#229 = APPROVAL_PERSON_ORGANIZATION ( #402, #235, #24 ) ;
#230 = CARTESIAN_POINT ( 'NONE',  ( 1.443375672974065216, -2.168404344971008868E-16, -1.700000000000000178 ) ) ;
#231 = APPROVAL_DATE_TIME ( #442, #268 ) ;
#232 = CARTESIAN_POINT ( 'NONE',  ( 0.000000000000000000, 0.000000000000000000, 0.000000000000000000 ) ) ;
#233 = SECURITY_CLASSIFICATION_LEVEL ( 'unclassified' ) ;
#234 = PLANE ( 'NONE',  #390 ) ;
#235 = APPROVAL ( #86, 'UNSPECIFIED' ) ;
#236 = DIRECTION ( 'NONE',  ( -0.000000000000000000, 0.000000000000000000, 1.000000000000000000 ) ) ;
#237 = DIRECTION ( 'NONE',  ( 1.502314598737158045E-16, 1.000000000000000000, -0.000000000000000000 ) ) ;
#238 = ORIENTED_EDGE ( 'NONE', *, *, #1, .T. ) ;
#239 = EDGE_CURVE ( 'NONE', #134, #396, #159, .T. ) ;
#240 = CARTESIAN_POINT ( 'NONE',  ( 0.000000000000000000, 0.000000000000000000, -3.000000000000000000 ) ) ;
#241 = AXIS2_PLACEMENT_3D ( 'NONE', #182, #363, #322 ) ;
#242 = FACE_OUTER_BOUND ( 'NONE', #304, .T. ) ;
#243 = ORIENTED_EDGE ( 'NONE', *, *, #252, .F. ) ;
#244 = DIRECTION ( 'NONE',  ( 1.000000000000000000, 0.000000000000000000, 0.000000000000000000 ) ) ;
#245 = ADVANCED_FACE ( 'NONE', ( #340, #307 ), #452, .T. ) ;
#246 = PLANE ( 'NONE',  #248 ) ;
#247 = VERTEX_POINT ( 'NONE', #95 ) ;
#248 = AXIS2_PLACEMENT_3D ( 'NONE', #388, #284, #5 ) ;
#249 = PLANE ( 'NONE',  #218 ) ;
#250 = CARTESIAN_POINT ( 'NONE',  ( -0.7216878364870326079, 1.250000000000000888, -1.700000000000000178 ) ) ;
#251 = CARTESIAN_POINT ( 'NONE',  ( -0.7216878364870326079, 1.250000000000000888, -1.700000000000000178 ) ) ;
#252 = EDGE_CURVE ( 'NONE', #69, #391, #334, .T. ) ;
#253 = APPLICATION_CONTEXT ( 'configuration controlled 3d designs of mechanical parts and assemblies' ) ;
#254 = EDGE_LOOP ( 'NONE', ( #306, #450 ) ) ;
#255 = CARTESIAN_POINT ( 'NONE',  ( 0.7216878364870323859, -1.250000000000000888, -1.700000000000000178 ) ) ;
#256 = EDGE_LOOP ( 'NONE', ( #101, #196 ) ) ;
#257 = ADVANCED_BREP_SHAPE_REPRESENTATION ( '볼트 m3 12', ( #94, #280 ), #354 ) ;
#258 = DATE_TIME_ROLE ( 'creation_date' ) ;
#259 = CARTESIAN_POINT ( 'NONE',  ( 0.7216878364870323859, -1.250000000000000888, -1.700000000000000178 ) ) ;
#260 = EDGE_CURVE ( 'NONE', #36, #338, #201, .T. ) ;
#261 = CALENDAR_DATE ( 2024, 26, 9 ) ;
#262 = LINE ( 'NONE', #403, #43 ) ;
#263 = CIRCLE ( 'NONE', #35, 2.500000000000000444 ) ;
#264 = CARTESIAN_POINT ( 'NONE',  ( 2.500000000000000444, 0.000000000000000000, -3.000000000000000000 ) ) ;
#265 = DIRECTION ( 'NONE',  ( -1.000000000000000000, 1.502314598737158045E-16, 0.000000000000000000 ) ) ;
#266 = ORIENTED_EDGE ( 'NONE', *, *, #47, .T. ) ;
#267 = PERSON_AND_ORGANIZATION_ROLE ( 'design_supplier' ) ;
#268 = APPROVAL ( #177, 'UNSPECIFIED' ) ;
#269 = DIRECTION ( 'NONE',  ( 0.5000000000000001110, 0.8660254037844385966, 0.000000000000000000 ) ) ;
#270 = ORIENTED_EDGE ( 'NONE', *, *, #315, .F. ) ;
#271 = DIRECTION ( 'NONE',  ( -0.000000000000000000, -0.000000000000000000, -1.000000000000000000 ) ) ;
#272 = VECTOR ( 'NONE', #312, 1000.000000000000227 ) ;
#273 = ORIENTED_EDGE ( 'NONE', *, *, #63, .F. ) ;
#274 = LINE ( 'NONE', #59, #136 ) ;
#275 = ADVANCED_FACE ( 'NONE', ( #408, #26 ), #372, .F. ) ;
#276 = CARTESIAN_POINT ( 'NONE',  ( 0.000000000000000000, 0.000000000000000000, 12.00000000000000000 ) ) ;
#277 = ORIENTED_EDGE ( 'NONE', *, *, #211, .T. ) ;
#278 = PLANE ( 'NONE',  #146 ) ;
#279 = VECTOR ( 'NONE', #330, 1000.000000000000000 ) ;
#280 = AXIS2_PLACEMENT_3D ( 'NONE', #45, #217, #358 ) ;
#281 = CARTESIAN_POINT ( 'NONE',  ( 0.7216878364870330520, 1.250000000000000666, -1.700000000000000178 ) ) ;
#282 = DIRECTION ( 'NONE',  ( -0.000000000000000000, -0.000000000000000000, -1.000000000000000000 ) ) ;
#283 = ORIENTED_EDGE ( 'NONE', *, *, #206, .T. ) ;
#284 = DIRECTION ( 'NONE',  ( -0.000000000000000000, 0.000000000000000000, 1.000000000000000000 ) ) ;
#285 = VECTOR ( 'NONE', #21, 1000.000000000000000 ) ;
#286 = DATE_AND_TIME ( #39, #314 ) ;
#287 = CARTESIAN_POINT ( 'NONE',  ( -1.443375672974065216, 4.336808689942017736E-16, -1.700000000000000178 ) ) ;
#288 = EDGE_CURVE ( 'NONE', #134, #424, #447, .T. ) ;
#289 = APPLICATION_PROTOCOL_DEFINITION ( 'international standard', 'config_control_design', 1994, #207 ) ;
#290 = ORIENTED_EDGE ( 'NONE', *, *, #252, .T. ) ;
#291 = DIRECTION ( 'NONE',  ( 0.000000000000000000, 0.000000000000000000, 1.000000000000000000 ) ) ;
#292 = EDGE_LOOP ( 'NONE', ( #11, #209, #87, #131 ) ) ;
#293 = ADVANCED_FACE ( 'NONE', ( #210 ), #278, .F. ) ;
#294 = APPROVAL_PERSON_ORGANIZATION ( #361, #135, #6 ) ;
#295 = CARTESIAN_POINT ( 'NONE',  ( -2.500000000000000444, 3.061616997868383634E-16, 0.000000000000000000 ) ) ;
#296 = LINE ( 'NONE', #119, #153 ) ;
#297 = DIRECTION ( 'NONE',  ( 0.000000000000000000, 0.000000000000000000, 1.000000000000000000 ) ) ;
#298 = AXIS2_PLACEMENT_3D ( 'NONE', #102, #383, #64 ) ;
#299 = FACE_OUTER_BOUND ( 'NONE', #292, .T. ) ;
#300 = ORGANIZATION ( 'UNSPECIFIED', 'UNSPECIFIED', '' ) ;
#301 = ADVANCED_FACE ( 'NONE', ( #37 ), #100, .T. ) ;
#302 = ORIENTED_EDGE ( 'NONE', *, *, #211, .F. ) ;
#303 = CARTESIAN_POINT ( 'NONE',  ( 0.7216878364870330520, 1.250000000000000666, -3.000000000000000000 ) ) ;
#304 = EDGE_LOOP ( 'NONE', ( #427, #359, #57, #389 ) ) ;
#305 = CARTESIAN_POINT ( 'NONE',  ( 0.7216878364870323859, -1.250000000000000888, -3.000000000000000000 ) ) ;
#306 = ORIENTED_EDGE ( 'NONE', *, *, #315, .T. ) ;
#307 = FACE_OUTER_BOUND ( 'NONE', #254, .T. ) ;
#308 = ADVANCED_FACE ( 'NONE', ( #460 ), #205, .T. ) ;
#309 = VECTOR ( 'NONE', #193, 1000.000000000000000 ) ;
#310 = LINE ( 'NONE', #32, #272 ) ;
#311 = DIRECTION ( 'NONE',  ( 0.8660254037844385966, -0.5000000000000003331, 0.000000000000000000 ) ) ;
#312 = DIRECTION ( 'NONE',  ( -0.5000000000000001110, -0.8660254037844384856, 0.000000000000000000 ) ) ;
#313 = VECTOR ( 'NONE', #401, 1000.000000000000000 ) ;
#314 = LOCAL_TIME ( 23, 16, 29.00000000000000000, #438 ) ;
#315 = EDGE_CURVE ( 'NONE', #338, #38, #180, .T. ) ;
#316 = LINE ( 'NONE', #346, #203 ) ;
#317 = CARTESIAN_POINT ( 'NONE',  ( 1.443375672974065216, -2.168404344971008868E-16, -1.700000000000000178 ) ) ;
#318 = VERTEX_POINT ( 'NONE', #167 ) ;
#319 = ORIENTED_EDGE ( 'NONE', *, *, #15, .F. ) ;
#320 = ADVANCED_FACE ( 'NONE', ( #242 ), #74, .T. ) ;
#321 = AXIS2_PLACEMENT_3D ( 'NONE', #127, #415, #61 ) ;
#322 = DIRECTION ( 'NONE',  ( 1.000000000000000000, 0.000000000000000000, 0.000000000000000000 ) ) ;
#323 = DIRECTION ( 'NONE',  ( 0.4999999999999996669, -0.8660254037844388186, 0.000000000000000000 ) ) ;
#324 = APPROVAL_STATUS ( 'not_yet_approved' ) ;
#325 = DIRECTION ( 'NONE',  ( 0.000000000000000000, -0.000000000000000000, -1.000000000000000000 ) ) ;
#326 = ADVANCED_FACE ( 'NONE', ( #428 ), #97, .T. ) ;
#327 = DIRECTION ( 'NONE',  ( -0.4999999999999999445, -0.8660254037844385966, 0.000000000000000000 ) ) ;
#328 = ORIENTED_EDGE ( 'NONE', *, *, #371, .F. ) ;
#329 = PERSON ( 'UNSPECIFIED', 'UNSPECIFIED', 'UNSPECIFIED', ('UNSPECIFIED'), ('UNSPECIFIED'), ('UNSPECIFIED') ) ;
#330 = DIRECTION ( 'NONE',  ( -0.000000000000000000, -0.000000000000000000, -1.000000000000000000 ) ) ;
#331 = CARTESIAN_POINT ( 'NONE',  ( -0.7216878364870326079, -1.250000000000000888, -3.000000000000000000 ) ) ;
#332 = CARTESIAN_POINT ( 'NONE',  ( 1.500000000000000222, 1.836970198721030181E-16, 12.00000000000000000 ) ) ;
#333 = PERSON_AND_ORGANIZATION ( #329, #300 ) ;
#334 = LINE ( 'NONE', #163, #227 ) ;
#335 = ORIENTED_EDGE ( 'NONE', *, *, #239, .T. ) ;
#336 = DATE_AND_TIME ( #54, #204 ) ;
#337 = CARTESIAN_POINT ( 'NONE',  ( 1.443375672974065216, -2.168404344971008868E-16, -1.700000000000000178 ) ) ;
#338 = VERTEX_POINT ( 'NONE', #68 ) ;
#339 = COORDINATED_UNIVERSAL_TIME_OFFSET ( 9, 0, .AHEAD. ) ;
#340 = FACE_BOUND ( 'NONE', #178, .T. ) ;
#341 = DIRECTION ( 'NONE',  ( 0.000000000000000000, 0.000000000000000000, 1.000000000000000000 ) ) ;
#342 = PRODUCT ( '볼트 m3 12', '볼트 m3 12', '', ( #77 ) ) ;
#343 = FACE_OUTER_BOUND ( 'NONE', #422, .T. ) ;
#344 = AXIS2_PLACEMENT_3D ( 'NONE', #132, #297, #195 ) ;
#345 = VERTEX_POINT ( 'NONE', #380 ) ;
#346 = CARTESIAN_POINT ( 'NONE',  ( -0.7216878364870326079, 1.250000000000000888, -3.000000000000000000 ) ) ;
#347 = ORIENTED_EDGE ( 'NONE', *, *, #83, .T. ) ;
#348 = DIRECTION ( 'NONE',  ( -0.000000000000000000, 0.000000000000000000, 1.000000000000000000 ) ) ;
#349 = EDGE_LOOP ( 'NONE', ( #353, #70, #3, #125 ) ) ;
#350 = EDGE_CURVE ( 'NONE', #396, #147, #310, .T. ) ;
#351 = CARTESIAN_POINT ( 'NONE',  ( -1.443375672974065438, 3.252606517456513302E-16, -3.000000000000000000 ) ) ;
#352 = VECTOR ( 'NONE', #82, 1000.000000000000114 ) ;
#353 = ORIENTED_EDGE ( 'NONE', *, *, #91, .F. ) ;
#354 =( GEOMETRIC_REPRESENTATION_CONTEXT ( 3 ) GLOBAL_UNCERTAINTY_ASSIGNED_CONTEXT ( ( #364 ) ) GLOBAL_UNIT_ASSIGNED_CONTEXT ( ( #215, #148, #12 ) ) REPRESENTATION_CONTEXT ( 'NONE', 'WORKASPACE' ) );
#355 = FACE_OUTER_BOUND ( 'NONE', #60, .T. ) ;
#356 = VERTEX_POINT ( 'NONE', #66 ) ;
#357 = EDGE_CURVE ( 'NONE', #459, #105, #316, .T. ) ;
#358 = DIRECTION ( 'NONE',  ( 1.000000000000000000, 0.000000000000000000, 0.000000000000000000 ) ) ;
#359 = ORIENTED_EDGE ( 'NONE', *, *, #429, .F. ) ;
#360 = VECTOR ( 'NONE', #223, 1000.000000000000000 ) ;
#361 = PERSON_AND_ORGANIZATION ( #329, #300 ) ;
#362 = LINE ( 'NONE', #111, #108 ) ;
#363 = DIRECTION ( 'NONE',  ( -0.000000000000000000, 0.000000000000000000, 1.000000000000000000 ) ) ;
#364 = UNCERTAINTY_MEASURE_WITH_UNIT (LENGTH_MEASURE( 1.000000000000000082E-05 ), #215, 'distance_accuracy_value', 'NONE');
#365 = LINE ( 'NONE', #46, #88 ) ;
#366 = CALENDAR_DATE ( 2024, 26, 9 ) ;
#367 = ORIENTED_EDGE ( 'NONE', *, *, #239, .F. ) ;
#368 = VECTOR ( 'NONE', #51, 1000.000000000000000 ) ;
#369 = PERSON_AND_ORGANIZATION_ROLE ( 'creator' ) ;
#370 = DIRECTION ( 'NONE',  ( 0.000000000000000000, 0.000000000000000000, 1.000000000000000000 ) ) ;
#371 = EDGE_CURVE ( 'NONE', #399, #356, #58, .T. ) ;
#372 = PLANE ( 'NONE',  #344 ) ;
#373 = PERSON_AND_ORGANIZATION_ROLE ( 'classification_officer' ) ;
#374 = DIRECTION ( 'NONE',  ( 1.000000000000000000, 0.000000000000000000, 0.000000000000000000 ) ) ;
#375 = LINE ( 'NONE', #332, #368 ) ;
#376 = ADVANCED_FACE ( 'NONE', ( #343 ), #461, .F. ) ;
#377 = ORIENTED_EDGE ( 'NONE', *, *, #10, .T. ) ;
#378 = DIRECTION ( 'NONE',  ( 0.000000000000000000, 0.000000000000000000, 1.000000000000000000 ) ) ;
#379 = CARTESIAN_POINT ( 'NONE',  ( 0.000000000000000000, 0.000000000000000000, 0.000000000000000000 ) ) ;
#380 = CARTESIAN_POINT ( 'NONE',  ( -1.500000000000000222, 0.000000000000000000, 12.00000000000000000 ) ) ;
#381 = CIRCLE ( 'NONE', #241, 1.500000000000000222 ) ;
#382 = DATE_TIME_ROLE ( 'classification_date' ) ;
#383 = DIRECTION ( 'NONE',  ( -0.000000000000000000, -0.000000000000000000, -1.000000000000000000 ) ) ;
#384 = CC_DESIGN_PERSON_AND_ORGANIZATION_ASSIGNMENT ( #48, #395, ( #342 ) ) ;
#385 = ORIENTED_EDGE ( 'NONE', *, *, #288, .T. ) ;
#386 = DIRECTION ( 'NONE',  ( 0.000000000000000000, 0.000000000000000000, 1.000000000000000000 ) ) ;
#387 = ORIENTED_EDGE ( 'NONE', *, *, #404, .T. ) ;
#388 = CARTESIAN_POINT ( 'NONE',  ( 0.000000000000000000, 0.000000000000000000, 12.00000000000000000 ) ) ;
#389 = ORIENTED_EDGE ( 'NONE', *, *, #174, .T. ) ;
#390 = AXIS2_PLACEMENT_3D ( 'NONE', #124, #237, #265 ) ;
#391 = VERTEX_POINT ( 'NONE', #351 ) ;
#392 = ADVANCED_FACE ( 'NONE', ( #355 ), #246, .T. ) ;
#393 = DIRECTION ( 'NONE',  ( 1.000000000000000000, 0.000000000000000000, 0.000000000000000000 ) ) ;
#394 = CARTESIAN_POINT ( 'NONE',  ( 0.7216878364870323859, -1.250000000000000888, -1.700000000000000178 ) ) ;
#395 = PERSON_AND_ORGANIZATION_ROLE ( 'design_owner' ) ;
#396 = VERTEX_POINT ( 'NONE', #71 ) ;
#397 = VECTOR ( 'NONE', #44, 1000.000000000000000 ) ;
#398 = APPROVAL_DATE_TIME ( #286, #135 ) ;
#399 = VERTEX_POINT ( 'NONE', #34 ) ;
#400 = PERSON_AND_ORGANIZATION ( #329, #300 ) ;
#401 = DIRECTION ( 'NONE',  ( -0.000000000000000000, -0.000000000000000000, -1.000000000000000000 ) ) ;
#402 = PERSON_AND_ORGANIZATION ( #329, #300 ) ;
#403 = CARTESIAN_POINT ( 'NONE',  ( -2.500000000000000444, 3.061616997868383634E-16, -3.000000000000000000 ) ) ;
#404 = EDGE_CURVE ( 'NONE', #67, #134, #143, .T. ) ;
#405 = AXIS2_PLACEMENT_3D ( 'NONE', #379, #418, #244 ) ;
#406 = DIRECTION ( 'NONE',  ( 1.000000000000000000, 0.000000000000000000, 0.000000000000000000 ) ) ;
#407 = ORIENTED_EDGE ( 'NONE', *, *, #168, .F. ) ;
#408 = FACE_BOUND ( 'NONE', #412, .T. ) ;
#409 = SHAPE_DEFINITION_REPRESENTATION ( #176, #257 ) ;
#410 = CARTESIAN_POINT ( 'NONE',  ( 0.7216878364870323859, -1.250000000000000888, -3.000000000000000000 ) ) ;
#411 = EDGE_CURVE ( 'NONE', #53, #345, #8, .T. ) ;
#412 = EDGE_LOOP ( 'NONE', ( #141, #243, #302, #454, #79, #417 ) ) ;
#413 = CLOSED_SHELL ( 'NONE', ( #308, #326, #301, #275, #245, #320, #392, #376, #29, #293, #226, #123, #444, #76 ) ) ;
#414 = CC_DESIGN_APPROVAL ( #268, ( #213 ) ) ;
#415 = DIRECTION ( 'NONE',  ( 0.000000000000000000, 0.000000000000000000, 1.000000000000000000 ) ) ;
#416 = CARTESIAN_POINT ( 'NONE',  ( -0.7216878364870326079, -1.250000000000000888, -1.700000000000000178 ) ) ;
#417 = ORIENTED_EDGE ( 'NONE', *, *, #357, .F. ) ;
#418 = DIRECTION ( 'NONE',  ( 0.000000000000000000, 0.000000000000000000, 1.000000000000000000 ) ) ;
#419 = ORIENTED_EDGE ( 'NONE', *, *, #260, .F. ) ;
#420 = EDGE_CURVE ( 'NONE', #36, #72, #263, .T. ) ;
#421 = CIRCLE ( 'NONE', #27, 2.500000000000000444 ) ;
#422 = EDGE_LOOP ( 'NONE', ( #290, #73, #407, #266 ) ) ;
#423 = LOCAL_TIME ( 23, 16, 29.00000000000000000, #224 ) ;
#424 = VERTEX_POINT ( 'NONE', #255 ) ;
#425 = DIRECTION ( 'NONE',  ( 0.4999999999999996669, -0.8660254037844388186, 0.000000000000000000 ) ) ;
#426 = ORIENTED_EDGE ( 'NONE', *, *, #371, .T. ) ;
#427 = ORIENTED_EDGE ( 'NONE', *, *, #144, .F. ) ;
#428 = FACE_OUTER_BOUND ( 'NONE', #114, .T. ) ;
#429 = EDGE_CURVE ( 'NONE', #345, #53, #381, .T. ) ;
#430 = ORIENTED_EDGE ( 'NONE', *, *, #404, .F. ) ;
#431 = DIRECTION ( 'NONE',  ( 1.000000000000000000, 0.000000000000000000, 0.000000000000000000 ) ) ;
#432 = AXIS2_PLACEMENT_3D ( 'NONE', #183, #154, #325 ) ;
#433 = CC_DESIGN_SECURITY_CLASSIFICATION ( #99, ( #213 ) ) ;
#434 = FACE_OUTER_BOUND ( 'NONE', #139, .T. ) ;
#435 = FACE_OUTER_BOUND ( 'NONE', #190, .T. ) ;
#436 = ORIENTED_EDGE ( 'NONE', *, *, #15, .T. ) ;
#437 = CC_DESIGN_DATE_AND_TIME_ASSIGNMENT ( #116, #258, ( #221 ) ) ;
#438 = COORDINATED_UNIVERSAL_TIME_OFFSET ( 9, 0, .AHEAD. ) ;
#439 = CARTESIAN_POINT ( 'NONE',  ( 2.500000000000000444, 0.000000000000000000, -3.000000000000000000 ) ) ;
#440 = AXIS2_PLACEMENT_3D ( 'NONE', #240, #175, #202 ) ;
#441 = DIRECTION ( 'NONE',  ( -0.000000000000000000, -0.000000000000000000, -1.000000000000000000 ) ) ;
#442 = DATE_AND_TIME ( #366, #423 ) ;
#443 = VERTEX_POINT ( 'NONE', #179 ) ;
#444 = ADVANCED_FACE ( 'NONE', ( #435 ), #249, .F. ) ;
#445 = PLANE ( 'NONE',  #75 ) ;
#446 = VECTOR ( 'NONE', #457, 1000.000000000000227 ) ;
#447 = LINE ( 'NONE', #337, #446 ) ;
#448 = ORIENTED_EDGE ( 'NONE', *, *, #10, .F. ) ;
#449 = CARTESIAN_POINT ( 'NONE',  ( 0.000000000000000000, 0.000000000000000000, 0.000000000000000000 ) ) ;
#450 = ORIENTED_EDGE ( 'NONE', *, *, #128, .T. ) ;
#451 = EDGE_LOOP ( 'NONE', ( #4, #273, #169, #335 ) ) ;
#452 = PLANE ( 'NONE',  #321 ) ;
#453 = ORIENTED_EDGE ( 'NONE', *, *, #168, .T. ) ;
#454 = ORIENTED_EDGE ( 'NONE', *, *, #350, .F. ) ;
#455 = AXIS2_PLACEMENT_3D ( 'NONE', #208, #348, #171 ) ;
#456 = CARTESIAN_POINT ( 'NONE',  ( 0.000000000000000000, 0.000000000000000000, -3.000000000000000000 ) ) ;
#457 = DIRECTION ( 'NONE',  ( -0.5000000000000001110, -0.8660254037844384856, 0.000000000000000000 ) ) ;
#458 = EDGE_CURVE ( 'NONE', #247, #459, #110, .T. ) ;
#459 = VERTEX_POINT ( 'NONE', #187 ) ;
#460 = FACE_OUTER_BOUND ( 'NONE', #62, .T. ) ;
#461 = PLANE ( 'NONE',  #50 ) ;
#462 = CIRCLE ( 'NONE', #115, 1.500000000000000222 ) ;
#463 = ORIENTED_EDGE ( 'NONE', *, *, #411, .F. ) ;
ENDSEC;
END-ISO-10303-21;
