ISO-10303-21;
HEADER;
FILE_DESCRIPTION (( 'STEP AP214' ),
    '1' );
FILE_NAME ('엔드이펙터 마커.STEP',
    '2024-12-25T15:30:37',
    ( '' ),
    ( '' ),
    'SwSTEP 2.0',
    'SolidWorks 2022',
    '' );
FILE_SCHEMA (( 'AUTOMOTIVE_DESIGN' ));
ENDSEC;

DATA;
#1 = CARTESIAN_POINT ( 'NONE',  ( 8.000000000000007105, 0.000000000000000000, 11.50000000000000355 ) ) ;
#2 = APPLICATION_CONTEXT ( 'automotive_design' ) ;
#3 = VERTEX_POINT ( 'NONE', #482 ) ;
#4 = CIRCLE ( 'NONE', #274, 1.750000000000001554 ) ;
#5 = LINE ( 'NONE', #92, #396 ) ;
#6 = VERTEX_POINT ( 'NONE', #256 ) ;
#7 = CARTESIAN_POINT ( 'NONE',  ( 8.000000000000007105, -4.699999999999985079, 11.50000000000000355 ) ) ;
#8 = ORIENTED_EDGE ( 'NONE', *, *, #351, .T. ) ;
#9 = DIRECTION ( 'NONE',  ( 0.000000000000000000, -1.000000000000000000, 0.000000000000000000 ) ) ;
#10 = CIRCLE ( 'NONE', #219, 1.750000000000001554 ) ;
#11 = CARTESIAN_POINT ( 'NONE',  ( 0.000000000000000000, 0.000000000000000000, 53.00000000000000000 ) ) ;
#12 = CARTESIAN_POINT ( 'NONE',  ( 8.000000000000001776, -4.700000000000003730, 43.25000000000000711 ) ) ;
#13 = VECTOR ( 'NONE', #383, 999.9999999999998863 ) ;
#14 = CYLINDRICAL_SURFACE ( 'NONE', #330, 1.749999999999999778 ) ;
#15 = ORIENTED_EDGE ( 'NONE', *, *, #367, .F. ) ;
#16 = CARTESIAN_POINT ( 'NONE',  ( -12.00000000000000178, 0.000000000000000000, 53.00000000000000000 ) ) ;
#17 = DIRECTION ( 'NONE',  ( 1.000000000000000000, 0.000000000000000000, 0.000000000000000000 ) ) ;
#18 = ADVANCED_FACE ( 'NONE', ( #171 ), #263, .T. ) ;
#19 = DIRECTION ( 'NONE',  ( 0.000000000000000000, 0.000000000000000000, 1.000000000000000000 ) ) ;
#20 = CIRCLE ( 'NONE', #200, 12.00000000000000178 ) ;
#21 = AXIS2_PLACEMENT_3D ( 'NONE', #47, #409, #51 ) ;
#22 = DIRECTION ( 'NONE',  ( 1.000000000000000000, 0.000000000000000000, 0.000000000000000000 ) ) ;
#23 = PRODUCT_DEFINITION ( 'UNKNOWN', '', #138, #505 ) ;
#24 = STYLED_ITEM ( 'NONE', ( #73 ), #48 ) ;
#25 = LINE ( 'NONE', #16, #432 ) ;
#26 = FILL_AREA_STYLE_COLOUR ( '', #410 ) ;
#27 = EDGE_LOOP ( 'NONE', ( #32, #285 ) ) ;
#28 = DIRECTION ( 'NONE',  ( 0.000000000000000000, 0.000000000000000000, 1.000000000000000000 ) ) ;
#29 = VECTOR ( 'NONE', #197, 1000.000000000000000 ) ;
#30 = ORIENTED_EDGE ( 'NONE', *, *, #387, .T. ) ;
#31 = DIRECTION ( 'NONE',  ( 0.000000000000000000, -1.000000000000000000, -0.000000000000000000 ) ) ;
#32 = ORIENTED_EDGE ( 'NONE', *, *, #516, .F. ) ;
#33 =( NAMED_UNIT ( * ) PLANE_ANGLE_UNIT ( ) SI_UNIT ( $, .RADIAN. ) );
#34 = ORIENTED_EDGE ( 'NONE', *, *, #343, .F. ) ;
#35 = CARTESIAN_POINT ( 'NONE',  ( 8.000000000000007105, -5.000000000000000000, 9.750000000000003553 ) ) ;
#36 = VECTOR ( 'NONE', #52, 1000.000000000000000 ) ;
#37 = ORIENTED_EDGE ( 'NONE', *, *, #80, .F. ) ;
#38 = ADVANCED_FACE ( 'NONE', ( #130 ), #123, .T. ) ;
#39 = CONICAL_SURFACE ( 'NONE', #448, 1.449999999999985967, 0.7853981633974469467 ) ;
#40 = EDGE_CURVE ( 'NONE', #67, #232, #327, .T. ) ;
#41 = CYLINDRICAL_SURFACE ( 'NONE', #115, 12.00000000000000178 ) ;
#42 = CARTESIAN_POINT ( 'NONE',  ( 0.000000000000000000, 0.000000000000000000, 49.00000000000000000 ) ) ;
#43 = ORIENTED_EDGE ( 'NONE', *, *, #149, .T. ) ;
#44 = CYLINDRICAL_SURFACE ( 'NONE', #21, 1.750000000000001554 ) ;
#45 = AXIS2_PLACEMENT_3D ( 'NONE', #128, #292, #370 ) ;
#46 = ORIENTED_EDGE ( 'NONE', *, *, #98, .T. ) ;
#47 = CARTESIAN_POINT ( 'NONE',  ( 8.000000000000001776, -5.000000000000000000, 41.50000000000000000 ) ) ;
#48 = ADVANCED_BREP_SHAPE_REPRESENTATION ( '엔드이펙터 마커', ( #334, #326 ), #226 ) ;
#49 = DIRECTION ( 'NONE',  ( 0.000000000000000000, 1.000000000000000000, 0.000000000000000000 ) ) ;
#50 = MECHANICAL_DESIGN_GEOMETRIC_PRESENTATION_REPRESENTATION (  '', ( #24 ), #317 ) ;
#51 = DIRECTION ( 'NONE',  ( 0.000000000000000000, 0.000000000000000000, 1.000000000000000000 ) ) ;
#52 = DIRECTION ( 'NONE',  ( -0.000000000000000000, 1.000000000000000000, -0.000000000000000000 ) ) ;
#53 = DIRECTION ( 'NONE',  ( 0.000000000000000000, 0.7071067811865485719, 0.7071067811865465735 ) ) ;
#54 = CIRCLE ( 'NONE', #124, 1.450000000000006839 ) ;
#55 = DIRECTION ( 'NONE',  ( -1.000000000000000000, -0.000000000000000000, -0.000000000000000000 ) ) ;
#56 = CARTESIAN_POINT ( 'NONE',  ( 8.000000000000001776, 0.000000000000000000, 39.75000000000000000 ) ) ;
#57 = EDGE_CURVE ( 'NONE', #212, #232, #10, .T. ) ;
#58 = ADVANCED_FACE ( 'NONE', ( #125 ), #41, .T. ) ;
#59 = CARTESIAN_POINT ( 'NONE',  ( 0.000000000000000000, 0.000000000000000000, 4.000000000000003553 ) ) ;
#60 = FACE_OUTER_BOUND ( 'NONE', #74, .T. ) ;
#61 = LINE ( 'NONE', #461, #406 ) ;
#62 = AXIS2_PLACEMENT_3D ( 'NONE', #11, #183, #17 ) ;
#63 = ADVANCED_FACE ( 'NONE', ( #246 ), #402, .F. ) ;
#64 = LINE ( 'NONE', #221, #13 ) ;
#65 = DIRECTION ( 'NONE',  ( -0.000000000000000000, 0.000000000000000000, 1.000000000000000000 ) ) ;
#66 = CIRCLE ( 'NONE', #103, 1.750000000000001554 ) ;
#67 = VERTEX_POINT ( 'NONE', #180 ) ;
#68 = CARTESIAN_POINT ( 'NONE',  ( 0.000000000000000000, 0.000000000000000000, 0.000000000000000000 ) ) ;
#69 = ORIENTED_EDGE ( 'NONE', *, *, #71, .T. ) ;
#70 = CARTESIAN_POINT ( 'NONE',  ( 0.000000000000000000, 0.000000000000000000, 53.00000000000000000 ) ) ;
#71 = EDGE_CURVE ( 'NONE', #309, #181, #438, .T. ) ;
#72 = COLOUR_RGB ( '',0.7921568627450980005, 0.8196078431372548767, 0.9333333333333333481 ) ;
#73 = PRESENTATION_STYLE_ASSIGNMENT (( #237 ) ) ;
#74 = EDGE_LOOP ( 'NONE', ( #272, #121, #198, #486 ) ) ;
#75 = CARTESIAN_POINT ( 'NONE',  ( 8.000000000000001776, -4.700000000000003730, 41.50000000000000000 ) ) ;
#76 = VERTEX_POINT ( 'NONE', #337 ) ;
#77 = DIRECTION ( 'NONE',  ( 0.000000000000000000, 1.000000000000000000, 0.000000000000000000 ) ) ;
#78 = DIRECTION ( 'NONE',  ( 1.000000000000000000, 0.000000000000000000, 0.000000000000000000 ) ) ;
#79 = EDGE_LOOP ( 'NONE', ( #205, #283, #30, #364, #193, #506, #155, #43 ) ) ;
#80 = EDGE_CURVE ( 'NONE', #436, #6, #220, .T. ) ;
#81 = DIRECTION ( 'NONE',  ( -0.000000000000000000, -0.000000000000000000, -1.000000000000000000 ) ) ;
#82 = VECTOR ( 'NONE', #53, 1000.000000000000000 ) ;
#83 = EDGE_LOOP ( 'NONE', ( #312, #111, #355, #424 ) ) ;
#84 = DIRECTION ( 'NONE',  ( -0.000000000000000000, -0.000000000000000000, -1.000000000000000000 ) ) ;
#85 = DIRECTION ( 'NONE',  ( 0.000000000000000000, 0.000000000000000000, 1.000000000000000000 ) ) ;
#86 = ORIENTED_EDGE ( 'NONE', *, *, #514, .F. ) ;
#87 = CARTESIAN_POINT ( 'NONE',  ( 0.000000000000000000, -12.00000000000000178, 4.000000000000003553 ) ) ;
#88 = CONICAL_SURFACE ( 'NONE', #282, 1.450000000000006839, 0.7853981633974465026 ) ;
#89 = ADVANCED_FACE ( 'NONE', ( #96 ), #491, .T. ) ;
#90 = CARTESIAN_POINT ( 'NONE',  ( 0.000000000000000000, 0.000000000000000000, 53.00000000000000000 ) ) ;
#91 = AXIS2_PLACEMENT_3D ( 'NONE', #70, #308, #473 ) ;
#92 = CARTESIAN_POINT ( 'NONE',  ( 12.00000000000000178, 1.469576158976824144E-15, 53.00000000000000000 ) ) ;
#93 = EDGE_LOOP ( 'NONE', ( #472, #15, #324, #196 ) ) ;
#94 = DIRECTION ( 'NONE',  ( 0.000000000000000000, 0.000000000000000000, 1.000000000000000000 ) ) ;
#95 = EDGE_CURVE ( 'NONE', #232, #3, #376, .T. ) ;
#96 = FACE_OUTER_BOUND ( 'NONE', #404, .T. ) ;
#97 = ORIENTED_EDGE ( 'NONE', *, *, #386, .T. ) ;
#98 = EDGE_CURVE ( 'NONE', #181, #309, #249, .T. ) ;
#99 = DIRECTION ( 'NONE',  ( 0.000000000000000000, 1.000000000000000000, 0.000000000000000000 ) ) ;
#100 = FACE_OUTER_BOUND ( 'NONE', #108, .T. ) ;
#101 = AXIS2_PLACEMENT_3D ( 'NONE', #429, #152, #357 ) ;
#102 = CARTESIAN_POINT ( 'NONE',  ( 0.000000000000000000, 0.000000000000000000, 49.00000000000000000 ) ) ;
#103 = AXIS2_PLACEMENT_3D ( 'NONE', #502, #31, #354 ) ;
#104 = PRESENTATION_STYLE_ASSIGNMENT (( #190 ) ) ;
#105 = VECTOR ( 'NONE', #174, 1000.000000000000000 ) ;
#106 = DIRECTION ( 'NONE',  ( -0.000000000000000000, -0.000000000000000000, 1.000000000000000000 ) ) ;
#107 = AXIS2_PLACEMENT_3D ( 'NONE', #233, #81, #201 ) ;
#108 = EDGE_LOOP ( 'NONE', ( #208, #165, #97, #428 ) ) ;
#109 = PRODUCT ( '엔드이펙터 마커', '엔드이펙터 마커', '', ( #391 ) ) ;
#110 = CARTESIAN_POINT ( 'NONE',  ( 0.000000000000000000, 0.000000000000000000, 4.000000000000003553 ) ) ;
#111 = ORIENTED_EDGE ( 'NONE', *, *, #245, .T. ) ;
#112 = DIRECTION ( 'NONE',  ( 1.000000000000000000, 0.000000000000000000, 0.000000000000000000 ) ) ;
#113 = EDGE_CURVE ( 'NONE', #278, #436, #20, .T. ) ;
#114 = VERTEX_POINT ( 'NONE', #137 ) ;
#115 = AXIS2_PLACEMENT_3D ( 'NONE', #90, #84, #215 ) ;
#116 = CIRCLE ( 'NONE', #314, 12.00000000000000178 ) ;
#117 = ORIENTED_EDGE ( 'NONE', *, *, #318, .T. ) ;
#118 = FACE_OUTER_BOUND ( 'NONE', #397, .T. ) ;
#119 = EDGE_CURVE ( 'NONE', #76, #408, #295, .T. ) ;
#120 =( NAMED_UNIT ( * ) PLANE_ANGLE_UNIT ( ) SI_UNIT ( $, .RADIAN. ) );
#121 = ORIENTED_EDGE ( 'NONE', *, *, #462, .T. ) ;
#122 = CARTESIAN_POINT ( 'NONE',  ( 8.000000000000001776, -5.000000000000000000, 40.04999999999999716 ) ) ;
#123 = CYLINDRICAL_SURFACE ( 'NONE', #288, 1.750000000000001554 ) ;
#124 = AXIS2_PLACEMENT_3D ( 'NONE', #362, #9, #481 ) ;
#125 = FACE_OUTER_BOUND ( 'NONE', #419, .T. ) ;
#126 = FACE_OUTER_BOUND ( 'NONE', #467, .T. ) ;
#127 = ORIENTED_EDGE ( 'NONE', *, *, #516, .T. ) ;
#128 = CARTESIAN_POINT ( 'NONE',  ( 8.000000000000007105, -5.000000000000000000, 11.50000000000000355 ) ) ;
#129 = ADVANCED_FACE ( 'NONE', ( #100 ), #14, .T. ) ;
#130 = FACE_OUTER_BOUND ( 'NONE', #359, .T. ) ;
#131 = DIRECTION ( 'NONE',  ( 0.000000000000000000, -1.000000000000000000, -0.000000000000000000 ) ) ;
#132 = AXIS2_PLACEMENT_3D ( 'NONE', #418, #453, #371 ) ;
#133 = ORIENTED_EDGE ( 'NONE', *, *, #492, .F. ) ;
#134 = AXIS2_PLACEMENT_3D ( 'NONE', #456, #261, #420 ) ;
#135 = LINE ( 'NONE', #373, #82 ) ;
#136 = EDGE_CURVE ( 'NONE', #76, #436, #286, .T. ) ;
#137 = CARTESIAN_POINT ( 'NONE',  ( 8.000000000000007105, 0.000000000000000000, 9.750000000000003553 ) ) ;
#138 = PRODUCT_DEFINITION_FORMATION_WITH_SPECIFIED_SOURCE ( 'ANY', '', #109, .NOT_KNOWN. ) ;
#139 = DIRECTION ( 'NONE',  ( 1.000000000000000000, 0.000000000000000000, 0.000000000000000000 ) ) ;
#140 = DIRECTION ( 'NONE',  ( -0.000000000000000000, 0.000000000000000000, 1.000000000000000000 ) ) ;
#141 = DIRECTION ( 'NONE',  ( -0.000000000000000000, 1.000000000000000000, 0.000000000000000000 ) ) ;
#142 = CIRCLE ( 'NONE', #305, 1.749999999999999778 ) ;
#143 = DIRECTION ( 'NONE',  ( 0.000000000000000000, 0.000000000000000000, -1.000000000000000000 ) ) ;
#144 = SURFACE_SIDE_STYLE ('',( #496 ) ) ;
#145 = CARTESIAN_POINT ( 'NONE',  ( 0.000000000000000000, 0.000000000000000000, 4.000000000000003553 ) ) ;
#146 = ORIENTED_EDGE ( 'NONE', *, *, #351, .F. ) ;
#147 = FACE_BOUND ( 'NONE', #27, .T. ) ;
#148 = ADVANCED_FACE ( 'NONE', ( #289 ), #250, .T. ) ;
#149 = EDGE_CURVE ( 'NONE', #503, #76, #372, .T. ) ;
#150 = VERTEX_POINT ( 'NONE', #368 ) ;
#151 = EDGE_CURVE ( 'NONE', #431, #389, #331, .T. ) ;
#152 = DIRECTION ( 'NONE',  ( 0.000000000000000000, -1.000000000000000000, 0.000000000000000000 ) ) ;
#153 = ORIENTED_EDGE ( 'NONE', *, *, #478, .T. ) ;
#154 = CARTESIAN_POINT ( 'NONE',  ( 12.00000000000000000, 0.000000000000000000, 4.000000000000003553 ) ) ;
#155 = ORIENTED_EDGE ( 'NONE', *, *, #176, .T. ) ;
#156 = EDGE_CURVE ( 'NONE', #307, #3, #445, .T. ) ;
#157 = AXIS2_PLACEMENT_3D ( 'NONE', #177, #293, #374 ) ;
#158 = DIRECTION ( 'NONE',  ( 0.000000000000000000, 1.000000000000000000, 0.000000000000000000 ) ) ;
#159 = EDGE_CURVE ( 'NONE', #436, #304, #5, .T. ) ;
#160 = CIRCLE ( 'NONE', #332, 12.00000000000000178 ) ;
#161 = EDGE_LOOP ( 'NONE', ( #353, #392 ) ) ;
#162 = CARTESIAN_POINT ( 'NONE',  ( 8.000000000000007105, -5.000000000000000000, 10.05000000000001670 ) ) ;
#163 = DIRECTION ( 'NONE',  ( 0.000000000000000000, 0.000000000000000000, 1.000000000000000000 ) ) ;
#164 = CYLINDRICAL_SURFACE ( 'NONE', #186, 1.749999999999999778 ) ;
#165 = ORIENTED_EDGE ( 'NONE', *, *, #426, .T. ) ;
#166 = DIRECTION ( 'NONE',  ( 0.000000000000000000, -1.000000000000000000, -0.000000000000000000 ) ) ;
#167 = EDGE_CURVE ( 'NONE', #431, #150, #175, .T. ) ;
#168 = CIRCLE ( 'NONE', #101, 1.449999999999985967 ) ;
#169 = ORIENTED_EDGE ( 'NONE', *, *, #156, .T. ) ;
#170 = DIRECTION ( 'NONE',  ( 0.000000000000000000, 0.000000000000000000, -1.000000000000000000 ) ) ;
#171 = FACE_OUTER_BOUND ( 'NONE', #93, .T. ) ;
#172 = DIRECTION ( 'NONE',  ( 0.000000000000000000, 1.000000000000000000, 0.000000000000000000 ) ) ;
#173 = EDGE_LOOP ( 'NONE', ( #349, #203 ) ) ;
#174 = DIRECTION ( 'NONE',  ( -0.000000000000000000, 1.000000000000000000, -0.000000000000000000 ) ) ;
#175 = CIRCLE ( 'NONE', #430, 1.749999999999999778 ) ;
#176 = EDGE_CURVE ( 'NONE', #278, #503, #179, .T. ) ;
#177 = CARTESIAN_POINT ( 'NONE',  ( 0.000000000000000000, 0.000000000000000000, 4.000000000000003553 ) ) ;
#178 = MECHANICAL_DESIGN_GEOMETRIC_PRESENTATION_REPRESENTATION (  '', ( #265 ), #290 ) ;
#179 = LINE ( 'NONE', #322, #460 ) ;
#180 = CARTESIAN_POINT ( 'NONE',  ( 8.000000000000001776, -5.000000000000000000, 42.95000000000000995 ) ) ;
#181 = VERTEX_POINT ( 'NONE', #257 ) ;
#182 = FACE_BOUND ( 'NONE', #229, .T. ) ;
#183 = DIRECTION ( 'NONE',  ( 0.000000000000000000, 0.000000000000000000, 1.000000000000000000 ) ) ;
#184 = EDGE_LOOP ( 'NONE', ( #435, #469, #267, #356 ) ) ;
#185 = CARTESIAN_POINT ( 'NONE',  ( 12.00000000000000178, 1.469576158976824144E-15, 53.00000000000000000 ) ) ;
#186 = AXIS2_PLACEMENT_3D ( 'NONE', #513, #239, #390 ) ;
#187 = CARTESIAN_POINT ( 'NONE',  ( 8.000000000000007105, -5.000000000000000000, 11.50000000000000355 ) ) ;
#188 = FILL_AREA_STYLE ('',( #26 ) ) ;
#189 = ORIENTED_EDGE ( 'NONE', *, *, #80, .T. ) ;
#190 = SURFACE_STYLE_USAGE ( .BOTH. , #144 ) ;
#191 = AXIS2_PLACEMENT_3D ( 'NONE', #483, #131, #447 ) ;
#192 = SURFACE_STYLE_FILL_AREA ( #188 ) ;
#193 = ORIENTED_EDGE ( 'NONE', *, *, #159, .F. ) ;
#194 = PLANE ( 'NONE',  #91 ) ;
#195 = SHAPE_DEFINITION_REPRESENTATION ( #458, #48 ) ;
#196 = ORIENTED_EDGE ( 'NONE', *, *, #245, .F. ) ;
#197 = DIRECTION ( 'NONE',  ( 0.000000000000000000, -1.000000000000000000, 0.000000000000000000 ) ) ;
#198 = ORIENTED_EDGE ( 'NONE', *, *, #167, .F. ) ;
#199 = ORIENTED_EDGE ( 'NONE', *, *, #478, .F. ) ;
#200 = AXIS2_PLACEMENT_3D ( 'NONE', #333, #140, #489 ) ;
#201 = DIRECTION ( 'NONE',  ( -1.000000000000000000, 0.000000000000000000, 0.000000000000000000 ) ) ;
#202 = VECTOR ( 'NONE', #273, 1000.000000000000000 ) ;
#203 = ORIENTED_EDGE ( 'NONE', *, *, #442, .T. ) ;
#204 = CARTESIAN_POINT ( 'NONE',  ( 8.000000000000007105, -4.699999999999985079, 13.25000000000000355 ) ) ;
#205 = ORIENTED_EDGE ( 'NONE', *, *, #336, .F. ) ;
#206 = DIRECTION ( 'NONE',  ( 0.000000000000000000, 0.000000000000000000, -1.000000000000000000 ) ) ;
#207 = EDGE_CURVE ( 'NONE', #346, #431, #135, .T. ) ;
#208 = ORIENTED_EDGE ( 'NONE', *, *, #167, .T. ) ;
#209 = AXIS2_PLACEMENT_3D ( 'NONE', #365, #401, #325 ) ;
#210 = CARTESIAN_POINT ( 'NONE',  ( 8.000000000000007105, -4.699999999999985079, 11.50000000000000355 ) ) ;
#211 = CIRCLE ( 'NONE', #134, 1.450000000000006839 ) ;
#212 = VERTEX_POINT ( 'NONE', #294 ) ;
#213 = DIRECTION ( 'NONE',  ( 0.000000000000000000, 0.000000000000000000, 1.000000000000000000 ) ) ;
#214 = ADVANCED_FACE ( 'NONE', ( #450 ), #241, .T. ) ;
#215 = DIRECTION ( 'NONE',  ( -1.000000000000000000, 0.000000000000000000, 0.000000000000000000 ) ) ;
#216 = CARTESIAN_POINT ( 'NONE',  ( 12.00000000000000178, 1.469576158976824144E-15, 0.000000000000000000 ) ) ;
#217 = DIRECTION ( 'NONE',  ( 0.000000000000000000, 0.000000000000000000, 1.000000000000000000 ) ) ;
#218 = DIRECTION ( 'NONE',  ( -0.000000000000000000, 0.000000000000000000, 1.000000000000000000 ) ) ;
#219 = AXIS2_PLACEMENT_3D ( 'NONE', #515, #49, #446 ) ;
#220 = LINE ( 'NONE', #59, #302 ) ;
#221 = CARTESIAN_POINT ( 'NONE',  ( 8.000000000000001776, -5.000000000000000000, 40.04999999999999716 ) ) ;
#222 = DIRECTION ( 'NONE',  ( -1.000000000000000000, -0.000000000000000000, -0.000000000000000000 ) ) ;
#223 = CARTESIAN_POINT ( 'NONE',  ( 8.000000000000007105, -5.000000000000000000, 11.50000000000000355 ) ) ;
#224 = CARTESIAN_POINT ( 'NONE',  ( 0.000000000000000000, 0.000000000000000000, 49.00000000000000000 ) ) ;
#225 = CLOSED_SHELL ( 'NONE', ( #253, #423, #129, #38, #58, #427, #494, #296, #63, #393, #89, #310, #298, #477, #484, #148, #18, #214 ) ) ;
#226 =( GEOMETRIC_REPRESENTATION_CONTEXT ( 3 ) GLOBAL_UNCERTAINTY_ASSIGNED_CONTEXT ( ( #407 ) ) GLOBAL_UNIT_ASSIGNED_CONTEXT ( ( #236, #33, #507 ) ) REPRESENTATION_CONTEXT ( 'NONE', 'WORKASPACE' ) );
#227 = LINE ( 'NONE', #185, #243 ) ;
#228 = PRODUCT_RELATED_PRODUCT_CATEGORY ( 'part', '', ( #109 ) ) ;
#229 = EDGE_LOOP ( 'NONE', ( #291, #501 ) ) ;
#230 = DIRECTION ( 'NONE',  ( 0.000000000000000000, 0.000000000000000000, 1.000000000000000000 ) ) ;
#231 = UNCERTAINTY_MEASURE_WITH_UNIT (LENGTH_MEASURE( 1.000000000000000082E-05 ), #345, 'distance_accuracy_value', 'NONE');
#232 = VERTEX_POINT ( 'NONE', #12 ) ;
#233 = CARTESIAN_POINT ( 'NONE',  ( 0.000000000000000000, 0.000000000000000000, 53.00000000000000000 ) ) ;
#234 = AXIS2_PLACEMENT_3D ( 'NONE', #425, #360, #471 ) ;
#235 = EDGE_LOOP ( 'NONE', ( #240, #377, #199, #497 ) ) ;
#236 =( LENGTH_UNIT ( ) NAMED_UNIT ( * ) SI_UNIT ( .MILLI., .METRE. ) );
#237 = SURFACE_STYLE_USAGE ( .BOTH. , #271 ) ;
#238 = EDGE_LOOP ( 'NONE', ( #416, #463, #37, #369 ) ) ;
#239 = DIRECTION ( 'NONE',  ( -0.000000000000000000, 1.000000000000000000, -0.000000000000000000 ) ) ;
#240 = ORIENTED_EDGE ( 'NONE', *, *, #412, .F. ) ;
#241 = CONICAL_SURFACE ( 'NONE', #209, 1.450000000000006839, 0.7853981633974465026 ) ;
#242 = CARTESIAN_POINT ( 'NONE',  ( 0.000000000000000000, -12.00000000000000178, 49.00000000000000000 ) ) ;
#243 = VECTOR ( 'NONE', #262, 1000.000000000000000 ) ;
#244 = DIRECTION ( 'NONE',  ( 0.000000000000000000, 0.000000000000000000, 1.000000000000000000 ) ) ;
#245 = EDGE_CURVE ( 'NONE', #150, #431, #493, .T. ) ;
#246 = FACE_OUTER_BOUND ( 'NONE', #321, .T. ) ;
#247 = DIRECTION ( 'NONE',  ( 1.000000000000000000, 0.000000000000000000, -0.000000000000000000 ) ) ;
#248 = ORIENTED_EDGE ( 'NONE', *, *, #119, .F. ) ;
#249 = CIRCLE ( 'NONE', #363, 12.00000000000000178 ) ;
#250 = PLANE ( 'NONE',  #45 ) ;
#251 = CIRCLE ( 'NONE', #341, 1.449999999999985967 ) ;
#252 = ORIENTED_EDGE ( 'NONE', *, *, #159, .T. ) ;
#253 = ADVANCED_FACE ( 'NONE', ( #254 ), #88, .T. ) ;
#254 = FACE_OUTER_BOUND ( 'NONE', #235, .T. ) ;
#255 = UNCERTAINTY_MEASURE_WITH_UNIT (LENGTH_MEASURE( 1.000000000000000082E-05 ), #417, 'distance_accuracy_value', 'NONE');
#256 = CARTESIAN_POINT ( 'NONE',  ( 0.000000000000000000, 0.000000000000000000, 4.000000000000003553 ) ) ;
#257 = CARTESIAN_POINT ( 'NONE',  ( -12.00000000000000178, 0.000000000000000000, 53.00000000000000000 ) ) ;
#258 = DIRECTION ( 'NONE',  ( 1.000000000000000000, 0.000000000000000000, 0.000000000000000000 ) ) ;
#259 = PLANE ( 'NONE',  #323 ) ;
#260 = CARTESIAN_POINT ( 'NONE',  ( 8.000000000000007105, -5.000000000000000000, 11.50000000000000355 ) ) ;
#261 = DIRECTION ( 'NONE',  ( 0.000000000000000000, -1.000000000000000000, 0.000000000000000000 ) ) ;
#262 = DIRECTION ( 'NONE',  ( -0.000000000000000000, -0.000000000000000000, -1.000000000000000000 ) ) ;
#263 = CONICAL_SURFACE ( 'NONE', #348, 1.449999999999985967, 0.7853981633974469467 ) ;
#264 = EDGE_CURVE ( 'NONE', #67, #499, #54, .T. ) ;
#265 = STYLED_ITEM ( 'NONE', ( #104 ), #334 ) ;
#266 = FACE_OUTER_BOUND ( 'NONE', #315, .T. ) ;
#267 = ORIENTED_EDGE ( 'NONE', *, *, #40, .T. ) ;
#268 = LINE ( 'NONE', #35, #202 ) ;
#269 = ORIENTED_EDGE ( 'NONE', *, *, #387, .F. ) ;
#270 = CIRCLE ( 'NONE', #509, 1.749999999999999778 ) ;
#271 = SURFACE_SIDE_STYLE ('',( #192 ) ) ;
#272 = ORIENTED_EDGE ( 'NONE', *, *, #442, .F. ) ;
#273 = DIRECTION ( 'NONE',  ( -0.000000000000000000, 1.000000000000000000, -0.000000000000000000 ) ) ;
#274 = AXIS2_PLACEMENT_3D ( 'NONE', #75, #77, #277 ) ;
#275 = APPLICATION_PROTOCOL_DEFINITION ( 'draft international standard', 'automotive_design', 1998, #2 ) ;
#276 = ORIENTED_EDGE ( 'NONE', *, *, #336, .T. ) ;
#277 = DIRECTION ( 'NONE',  ( 0.000000000000000000, 0.000000000000000000, -1.000000000000000000 ) ) ;
#278 = VERTEX_POINT ( 'NONE', #87 ) ;
#279 = LINE ( 'NONE', #162, #455 ) ;
#280 = EDGE_CURVE ( 'NONE', #389, #114, #270, .T. ) ;
#281 = DIRECTION ( 'NONE',  ( -0.000000000000000000, 1.000000000000000000, -0.000000000000000000 ) ) ;
#282 = AXIS2_PLACEMENT_3D ( 'NONE', #444, #172, #328 ) ;
#283 = ORIENTED_EDGE ( 'NONE', *, *, #98, .F. ) ;
#284 = PLANE ( 'NONE',  #399 ) ;
#285 = ORIENTED_EDGE ( 'NONE', *, *, #156, .F. ) ;
#286 = LINE ( 'NONE', #441, #379 ) ;
#287 = DIRECTION ( 'NONE',  ( 0.000000000000000000, 0.7071067811865489050, 0.7071067811865462405 ) ) ;
#288 = AXIS2_PLACEMENT_3D ( 'NONE', #480, #281, #244 ) ;
#289 = FACE_OUTER_BOUND ( 'NONE', #173, .T. ) ;
#290 =( GEOMETRIC_REPRESENTATION_CONTEXT ( 3 ) GLOBAL_UNCERTAINTY_ASSIGNED_CONTEXT ( ( #255 ) ) GLOBAL_UNIT_ASSIGNED_CONTEXT ( ( #417, #421, #380 ) ) REPRESENTATION_CONTEXT ( 'NONE', 'WORKASPACE' ) );
#291 = ORIENTED_EDGE ( 'NONE', *, *, #280, .F. ) ;
#292 = DIRECTION ( 'NONE',  ( 0.000000000000000000, -1.000000000000000000, 0.000000000000000000 ) ) ;
#293 = DIRECTION ( 'NONE',  ( -0.000000000000000000, 0.000000000000000000, 1.000000000000000000 ) ) ;
#294 = CARTESIAN_POINT ( 'NONE',  ( 8.000000000000001776, -4.700000000000003730, 39.75000000000000000 ) ) ;
#295 = LINE ( 'NONE', #414, #485 ) ;
#296 = ADVANCED_FACE ( 'NONE', ( #126 ), #284, .F. ) ;
#297 = DIRECTION ( 'NONE',  ( 0.000000000000000000, -1.000000000000000000, -0.000000000000000000 ) ) ;
#298 = ADVANCED_FACE ( 'NONE', ( #403 ), #44, .T. ) ;
#299 = CARTESIAN_POINT ( 'NONE',  ( 8.000000000000007105, 0.000000000000000000, 11.50000000000000355 ) ) ;
#300 = EDGE_LOOP ( 'NONE', ( #86, #508, #394, #127 ) ) ;
#301 = DIRECTION ( 'NONE',  ( 0.000000000000000000, -1.000000000000000000, 0.000000000000000000 ) ) ;
#302 = VECTOR ( 'NONE', #222, 1000.000000000000000 ) ;
#303 = CARTESIAN_POINT ( 'NONE',  ( 0.000000000000000000, 0.000000000000000000, 0.000000000000000000 ) ) ;
#304 = VERTEX_POINT ( 'NONE', #216 ) ;
#305 = AXIS2_PLACEMENT_3D ( 'NONE', #299, #297, #375 ) ;
#306 = FACE_OUTER_BOUND ( 'NONE', #238, .T. ) ;
#307 = VERTEX_POINT ( 'NONE', #56 ) ;
#308 = DIRECTION ( 'NONE',  ( 0.000000000000000000, 0.000000000000000000, 1.000000000000000000 ) ) ;
#309 = VERTEX_POINT ( 'NONE', #422 ) ;
#310 = ADVANCED_FACE ( 'NONE', ( #266 ), #259, .F. ) ;
#311 =( NAMED_UNIT ( * ) SI_UNIT ( $, .STERADIAN. ) SOLID_ANGLE_UNIT ( ) );
#312 = ORIENTED_EDGE ( 'NONE', *, *, #426, .F. ) ;
#313 = FACE_OUTER_BOUND ( 'NONE', #161, .T. ) ;
#314 = AXIS2_PLACEMENT_3D ( 'NONE', #68, #230, #112 ) ;
#315 = EDGE_LOOP ( 'NONE', ( #146, #248, #361 ) ) ;
#316 = FACE_OUTER_BOUND ( 'NONE', #83, .T. ) ;
#317 =( GEOMETRIC_REPRESENTATION_CONTEXT ( 3 ) GLOBAL_UNCERTAINTY_ASSIGNED_CONTEXT ( ( #231 ) ) GLOBAL_UNIT_ASSIGNED_CONTEXT ( ( #345, #120, #311 ) ) REPRESENTATION_CONTEXT ( 'NONE', 'WORKASPACE' ) );
#318 = EDGE_CURVE ( 'NONE', #6, #408, #457, .T. ) ;
#319 = ORIENTED_EDGE ( 'NONE', *, *, #95, .F. ) ;
#320 = CYLINDRICAL_SURFACE ( 'NONE', #107, 12.00000000000000178 ) ;
#321 = EDGE_LOOP ( 'NONE', ( #465, #117, #8, #476 ) ) ;
#322 = CARTESIAN_POINT ( 'NONE',  ( 0.000000000000000000, -12.00000000000000000, 53.00000000000000000 ) ) ;
#323 = AXIS2_PLACEMENT_3D ( 'NONE', #224, #65, #498 ) ;
#324 = ORIENTED_EDGE ( 'NONE', *, *, #207, .T. ) ;
#325 = DIRECTION ( 'NONE',  ( 0.000000000000000000, 0.000000000000000000, 1.000000000000000000 ) ) ;
#326 = AXIS2_PLACEMENT_3D ( 'NONE', #303, #388, #78 ) ;
#327 = LINE ( 'NONE', #400, #468 ) ;
#328 = DIRECTION ( 'NONE',  ( 0.000000000000000000, 0.000000000000000000, 1.000000000000000000 ) ) ;
#329 = ORIENTED_EDGE ( 'NONE', *, *, #434, .T. ) ;
#330 = AXIS2_PLACEMENT_3D ( 'NONE', #260, #413, #94 ) ;
#331 = LINE ( 'NONE', #487, #105 ) ;
#332 = AXIS2_PLACEMENT_3D ( 'NONE', #382, #19, #22 ) ;
#333 = CARTESIAN_POINT ( 'NONE',  ( 0.000000000000000000, 0.000000000000000000, 4.000000000000003553 ) ) ;
#334 = MANIFOLD_SOLID_BREP ( '모따기1', #225 ) ;
#335 = DIRECTION ( 'NONE',  ( -0.000000000000000000, -0.000000000000000000, -1.000000000000000000 ) ) ;
#336 = EDGE_CURVE ( 'NONE', #309, #76, #227, .T. ) ;
#337 = CARTESIAN_POINT ( 'NONE',  ( 12.00000000000000000, 0.000000000000000000, 49.00000000000000000 ) ) ;
#338 = EDGE_CURVE ( 'NONE', #499, #212, #64, .T. ) ;
#339 = CARTESIAN_POINT ( 'NONE',  ( 0.000000000000000000, 0.000000000000000000, 4.000000000000003553 ) ) ;
#340 = AXIS2_PLACEMENT_3D ( 'NONE', #7, #452, #206 ) ;
#341 = AXIS2_PLACEMENT_3D ( 'NONE', #187, #301, #143 ) ;
#342 = FILL_AREA_STYLE ('',( #378 ) ) ;
#343 = EDGE_CURVE ( 'NONE', #304, #449, #160, .T. ) ;
#344 = CARTESIAN_POINT ( 'NONE',  ( 8.000000000000007105, -5.000000000000000000, 12.94999999999998863 ) ) ;
#345 =( LENGTH_UNIT ( ) NAMED_UNIT ( * ) SI_UNIT ( .MILLI., .METRE. ) );
#346 = VERTEX_POINT ( 'NONE', #344 ) ;
#347 = DIRECTION ( 'NONE',  ( -0.000000000000000000, -0.000000000000000000, -1.000000000000000000 ) ) ;
#348 = AXIS2_PLACEMENT_3D ( 'NONE', #474, #511, #163 ) ;
#349 = ORIENTED_EDGE ( 'NONE', *, *, #367, .T. ) ;
#350 = CARTESIAN_POINT ( 'NONE',  ( 8.000000000000001776, -5.000000000000000000, 39.75000000000000000 ) ) ;
#351 = EDGE_CURVE ( 'NONE', #408, #503, #61, .T. ) ;
#352 = APPLICATION_PROTOCOL_DEFINITION ( 'draft international standard', 'automotive_design', 1998, #475 ) ;
#353 = ORIENTED_EDGE ( 'NONE', *, *, #264, .T. ) ;
#354 = DIRECTION ( 'NONE',  ( 0.000000000000000000, 0.000000000000000000, 1.000000000000000000 ) ) ;
#355 = ORIENTED_EDGE ( 'NONE', *, *, #151, .T. ) ;
#356 = ORIENTED_EDGE ( 'NONE', *, *, #57, .F. ) ;
#357 = DIRECTION ( 'NONE',  ( 0.000000000000000000, 0.000000000000000000, -1.000000000000000000 ) ) ;
#358 = AXIS2_PLACEMENT_3D ( 'NONE', #339, #141, #454 ) ;
#359 = EDGE_LOOP ( 'NONE', ( #153, #459, #169, #319 ) ) ;
#360 = DIRECTION ( 'NONE',  ( 0.000000000000000000, -1.000000000000000000, 0.000000000000000000 ) ) ;
#361 = ORIENTED_EDGE ( 'NONE', *, *, #149, .F. ) ;
#362 = CARTESIAN_POINT ( 'NONE',  ( 8.000000000000001776, -5.000000000000000000, 41.50000000000000000 ) ) ;
#363 = AXIS2_PLACEMENT_3D ( 'NONE', #451, #217, #258 ) ;
#364 = ORIENTED_EDGE ( 'NONE', *, *, #492, .T. ) ;
#365 = CARTESIAN_POINT ( 'NONE',  ( 8.000000000000001776, -5.000000000000000000, 41.50000000000000000 ) ) ;
#366 = ORIENTED_EDGE ( 'NONE', *, *, #136, .T. ) ;
#367 = EDGE_CURVE ( 'NONE', #346, #440, #251, .T. ) ;
#368 = CARTESIAN_POINT ( 'NONE',  ( 8.000000000000007105, -4.699999999999985079, 9.750000000000003553 ) ) ;
#369 = ORIENTED_EDGE ( 'NONE', *, *, #136, .F. ) ;
#370 = DIRECTION ( 'NONE',  ( 0.000000000000000000, -0.000000000000000000, -1.000000000000000000 ) ) ;
#371 = DIRECTION ( 'NONE',  ( -0.000000000000000000, 0.000000000000000000, 1.000000000000000000 ) ) ;
#372 = CIRCLE ( 'NONE', #415, 12.00000000000000178 ) ;
#373 = CARTESIAN_POINT ( 'NONE',  ( 8.000000000000007105, -5.000000000000000000, 12.94999999999998863 ) ) ;
#374 = DIRECTION ( 'NONE',  ( 1.000000000000000000, 0.000000000000000000, 0.000000000000000000 ) ) ;
#375 = DIRECTION ( 'NONE',  ( 0.000000000000000000, 0.000000000000000000, 1.000000000000000000 ) ) ;
#376 = LINE ( 'NONE', #411, #36 ) ;
#377 = ORIENTED_EDGE ( 'NONE', *, *, #338, .T. ) ;
#378 = FILL_AREA_STYLE_COLOUR ( '', #72 ) ;
#379 = VECTOR ( 'NONE', #490, 1000.000000000000000 ) ;
#380 =( NAMED_UNIT ( * ) SI_UNIT ( $, .STERADIAN. ) SOLID_ANGLE_UNIT ( ) );
#381 = VECTOR ( 'NONE', #466, 1000.000000000000000 ) ;
#382 = CARTESIAN_POINT ( 'NONE',  ( 0.000000000000000000, 0.000000000000000000, 0.000000000000000000 ) ) ;
#383 = DIRECTION ( 'NONE',  ( 8.659560562354918067E-17, 0.7071067811865489050, -0.7071067811865462405 ) ) ;
#384 = ORIENTED_EDGE ( 'NONE', *, *, #71, .F. ) ;
#385 = PLANE ( 'NONE',  #234 ) ;
#386 = EDGE_CURVE ( 'NONE', #114, #389, #142, .T. ) ;
#387 = EDGE_CURVE ( 'NONE', #181, #449, #25, .T. ) ;
#388 = DIRECTION ( 'NONE',  ( 0.000000000000000000, 0.000000000000000000, 1.000000000000000000 ) ) ;
#389 = VERTEX_POINT ( 'NONE', #500 ) ;
#390 = DIRECTION ( 'NONE',  ( 0.000000000000000000, 0.000000000000000000, 1.000000000000000000 ) ) ;
#391 = PRODUCT_CONTEXT ( 'NONE', #2, 'mechanical' ) ;
#392 = ORIENTED_EDGE ( 'NONE', *, *, #412, .T. ) ;
#393 = ADVANCED_FACE ( 'NONE', ( #182, #147, #306 ), #464, .F. ) ;
#394 = ORIENTED_EDGE ( 'NONE', *, *, #95, .T. ) ;
#395 = LINE ( 'NONE', #110, #29 ) ;
#396 = VECTOR ( 'NONE', #335, 1000.000000000000000 ) ;
#397 = EDGE_LOOP ( 'NONE', ( #46, #69 ) ) ;
#398 = LINE ( 'NONE', #350, #381 ) ;
#399 = AXIS2_PLACEMENT_3D ( 'NONE', #405, #85, #247 ) ;
#400 = CARTESIAN_POINT ( 'NONE',  ( 8.000000000000001776, -5.000000000000000000, 42.95000000000000995 ) ) ;
#401 = DIRECTION ( 'NONE',  ( 0.000000000000000000, 1.000000000000000000, 0.000000000000000000 ) ) ;
#402 = PLANE ( 'NONE',  #132 ) ;
#403 = FACE_OUTER_BOUND ( 'NONE', #300, .T. ) ;
#404 = EDGE_LOOP ( 'NONE', ( #443, #189, #329 ) ) ;
#405 = CARTESIAN_POINT ( 'NONE',  ( 0.000000000000000000, 0.000000000000000000, 0.000000000000000000 ) ) ;
#406 = VECTOR ( 'NONE', #495, 1000.000000000000000 ) ;
#407 = UNCERTAINTY_MEASURE_WITH_UNIT (LENGTH_MEASURE( 1.000000000000000082E-05 ), #236, 'distance_accuracy_value', 'NONE');
#408 = VERTEX_POINT ( 'NONE', #102 ) ;
#409 = DIRECTION ( 'NONE',  ( -0.000000000000000000, 1.000000000000000000, -0.000000000000000000 ) ) ;
#410 = COLOUR_RGB ( '',0.7921568627450980005, 0.8196078431372548767, 0.9333333333333333481 ) ;
#411 = CARTESIAN_POINT ( 'NONE',  ( 8.000000000000001776, -5.000000000000000000, 43.25000000000000711 ) ) ;
#412 = EDGE_CURVE ( 'NONE', #499, #67, #211, .T. ) ;
#413 = DIRECTION ( 'NONE',  ( -0.000000000000000000, 1.000000000000000000, -0.000000000000000000 ) ) ;
#414 = CARTESIAN_POINT ( 'NONE',  ( 0.000000000000000000, 0.000000000000000000, 49.00000000000000000 ) ) ;
#415 = AXIS2_PLACEMENT_3D ( 'NONE', #42, #218, #139 ) ;
#416 = ORIENTED_EDGE ( 'NONE', *, *, #119, .T. ) ;
#417 =( LENGTH_UNIT ( ) NAMED_UNIT ( * ) SI_UNIT ( .MILLI., .METRE. ) );
#418 = CARTESIAN_POINT ( 'NONE',  ( 0.000000000000000000, 0.000000000000000000, 4.000000000000003553 ) ) ;
#419 = EDGE_LOOP ( 'NONE', ( #384, #276, #366, #252, #439, #269 ) ) ;
#420 = DIRECTION ( 'NONE',  ( 0.000000000000000000, 0.000000000000000000, -1.000000000000000000 ) ) ;
#421 =( NAMED_UNIT ( * ) PLANE_ANGLE_UNIT ( ) SI_UNIT ( $, .RADIAN. ) );
#422 = CARTESIAN_POINT ( 'NONE',  ( 12.00000000000000178, 1.469576158976824144E-15, 53.00000000000000000 ) ) ;
#423 = ADVANCED_FACE ( 'NONE', ( #60 ), #39, .T. ) ;
#424 = ORIENTED_EDGE ( 'NONE', *, *, #280, .T. ) ;
#425 = CARTESIAN_POINT ( 'NONE',  ( 8.000000000000001776, -5.000000000000000000, 41.50000000000000000 ) ) ;
#426 = EDGE_CURVE ( 'NONE', #150, #114, #268, .T. ) ;
#427 = ADVANCED_FACE ( 'NONE', ( #433 ), #320, .T. ) ;
#428 = ORIENTED_EDGE ( 'NONE', *, *, #151, .F. ) ;
#429 = CARTESIAN_POINT ( 'NONE',  ( 8.000000000000007105, -5.000000000000000000, 11.50000000000000355 ) ) ;
#430 = AXIS2_PLACEMENT_3D ( 'NONE', #210, #99, #170 ) ;
#431 = VERTEX_POINT ( 'NONE', #204 ) ;
#432 = VECTOR ( 'NONE', #347, 1000.000000000000000 ) ;
#433 = FACE_OUTER_BOUND ( 'NONE', #79, .T. ) ;
#434 = EDGE_CURVE ( 'NONE', #6, #278, #395, .T. ) ;
#435 = ORIENTED_EDGE ( 'NONE', *, *, #338, .F. ) ;
#436 = VERTEX_POINT ( 'NONE', #154 ) ;
#437 = DIRECTION ( 'NONE',  ( 8.659560562354921765E-17, 0.7071067811865485719, -0.7071067811865465735 ) ) ;
#438 = CIRCLE ( 'NONE', #62, 12.00000000000000178 ) ;
#439 = ORIENTED_EDGE ( 'NONE', *, *, #343, .T. ) ;
#440 = VERTEX_POINT ( 'NONE', #504 ) ;
#441 = CARTESIAN_POINT ( 'NONE',  ( 12.00000000000000000, 0.000000000000000000, 53.00000000000000000 ) ) ;
#442 = EDGE_CURVE ( 'NONE', #440, #346, #168, .T. ) ;
#443 = ORIENTED_EDGE ( 'NONE', *, *, #113, .T. ) ;
#444 = CARTESIAN_POINT ( 'NONE',  ( 8.000000000000001776, -5.000000000000000000, 41.50000000000000000 ) ) ;
#445 = CIRCLE ( 'NONE', #191, 1.750000000000001554 ) ;
#446 = DIRECTION ( 'NONE',  ( 0.000000000000000000, 0.000000000000000000, -1.000000000000000000 ) ) ;
#447 = DIRECTION ( 'NONE',  ( 0.000000000000000000, 0.000000000000000000, 1.000000000000000000 ) ) ;
#448 = AXIS2_PLACEMENT_3D ( 'NONE', #223, #158, #28 ) ;
#449 = VERTEX_POINT ( 'NONE', #510 ) ;
#450 = FACE_OUTER_BOUND ( 'NONE', #184, .T. ) ;
#451 = CARTESIAN_POINT ( 'NONE',  ( 0.000000000000000000, 0.000000000000000000, 53.00000000000000000 ) ) ;
#452 = DIRECTION ( 'NONE',  ( 0.000000000000000000, 1.000000000000000000, 0.000000000000000000 ) ) ;
#453 = DIRECTION ( 'NONE',  ( -1.000000000000000000, 0.000000000000000000, -0.000000000000000000 ) ) ;
#454 = DIRECTION ( 'NONE',  ( 0.000000000000000000, -0.000000000000000000, 1.000000000000000000 ) ) ;
#455 = VECTOR ( 'NONE', #437, 1000.000000000000000 ) ;
#456 = CARTESIAN_POINT ( 'NONE',  ( 8.000000000000001776, -5.000000000000000000, 41.50000000000000000 ) ) ;
#457 = LINE ( 'NONE', #145, #470 ) ;
#458 = PRODUCT_DEFINITION_SHAPE ( 'NONE', 'NONE',  #23 ) ;
#459 = ORIENTED_EDGE ( 'NONE', *, *, #514, .T. ) ;
#460 = VECTOR ( 'NONE', #213, 1000.000000000000000 ) ;
#461 = CARTESIAN_POINT ( 'NONE',  ( 0.000000000000000000, 0.000000000000000000, 49.00000000000000000 ) ) ;
#462 = EDGE_CURVE ( 'NONE', #440, #150, #279, .T. ) ;
#463 = ORIENTED_EDGE ( 'NONE', *, *, #318, .F. ) ;
#464 = PLANE ( 'NONE',  #358 ) ;
#465 = ORIENTED_EDGE ( 'NONE', *, *, #434, .F. ) ;
#466 = DIRECTION ( 'NONE',  ( -0.000000000000000000, 1.000000000000000000, -0.000000000000000000 ) ) ;
#467 = EDGE_LOOP ( 'NONE', ( #133, #34 ) ) ;
#468 = VECTOR ( 'NONE', #287, 999.9999999999998863 ) ;
#469 = ORIENTED_EDGE ( 'NONE', *, *, #264, .F. ) ;
#470 = VECTOR ( 'NONE', #106, 1000.000000000000000 ) ;
#471 = DIRECTION ( 'NONE',  ( 0.000000000000000000, -0.000000000000000000, -1.000000000000000000 ) ) ;
#472 = ORIENTED_EDGE ( 'NONE', *, *, #462, .F. ) ;
#473 = DIRECTION ( 'NONE',  ( 1.000000000000000000, 0.000000000000000000, -0.000000000000000000 ) ) ;
#474 = CARTESIAN_POINT ( 'NONE',  ( 8.000000000000007105, -5.000000000000000000, 11.50000000000000355 ) ) ;
#475 = APPLICATION_CONTEXT ( 'automotive_design' ) ;
#476 = ORIENTED_EDGE ( 'NONE', *, *, #176, .F. ) ;
#477 = ADVANCED_FACE ( 'NONE', ( #313 ), #385, .T. ) ;
#478 = EDGE_CURVE ( 'NONE', #232, #212, #4, .T. ) ;
#479 = DIRECTION ( 'NONE',  ( 0.000000000000000000, 0.000000000000000000, 1.000000000000000000 ) ) ;
#480 = CARTESIAN_POINT ( 'NONE',  ( 8.000000000000001776, -5.000000000000000000, 41.50000000000000000 ) ) ;
#481 = DIRECTION ( 'NONE',  ( 0.000000000000000000, 0.000000000000000000, -1.000000000000000000 ) ) ;
#482 = CARTESIAN_POINT ( 'NONE',  ( 8.000000000000001776, 0.000000000000000000, 43.25000000000000711 ) ) ;
#483 = CARTESIAN_POINT ( 'NONE',  ( 8.000000000000001776, 0.000000000000000000, 41.50000000000000000 ) ) ;
#484 = ADVANCED_FACE ( 'NONE', ( #316 ), #164, .T. ) ;
#485 = VECTOR ( 'NONE', #55, 1000.000000000000000 ) ;
#486 = ORIENTED_EDGE ( 'NONE', *, *, #207, .F. ) ;
#487 = CARTESIAN_POINT ( 'NONE',  ( 8.000000000000007105, -5.000000000000000000, 13.25000000000000355 ) ) ;
#488 = PRESENTATION_LAYER_ASSIGNMENT (  '', '', ( #265 ) ) ;
#489 = DIRECTION ( 'NONE',  ( 1.000000000000000000, 0.000000000000000000, 0.000000000000000000 ) ) ;
#490 = DIRECTION ( 'NONE',  ( -0.000000000000000000, -0.000000000000000000, -1.000000000000000000 ) ) ;
#491 = PLANE ( 'NONE',  #157 ) ;
#492 = EDGE_CURVE ( 'NONE', #449, #304, #116, .T. ) ;
#493 = CIRCLE ( 'NONE', #340, 1.749999999999999778 ) ;
#494 = ADVANCED_FACE ( 'NONE', ( #118 ), #194, .T. ) ;
#495 = DIRECTION ( 'NONE',  ( 0.000000000000000000, -1.000000000000000000, 0.000000000000000000 ) ) ;
#496 = SURFACE_STYLE_FILL_AREA ( #342 ) ;
#497 = ORIENTED_EDGE ( 'NONE', *, *, #40, .F. ) ;
#498 = DIRECTION ( 'NONE',  ( 1.000000000000000000, 0.000000000000000000, 0.000000000000000000 ) ) ;
#499 = VERTEX_POINT ( 'NONE', #122 ) ;
#500 = CARTESIAN_POINT ( 'NONE',  ( 8.000000000000007105, 0.000000000000000000, 13.25000000000000355 ) ) ;
#501 = ORIENTED_EDGE ( 'NONE', *, *, #386, .F. ) ;
#502 = CARTESIAN_POINT ( 'NONE',  ( 8.000000000000001776, 0.000000000000000000, 41.50000000000000000 ) ) ;
#503 = VERTEX_POINT ( 'NONE', #242 ) ;
#504 = CARTESIAN_POINT ( 'NONE',  ( 8.000000000000007105, -5.000000000000000000, 10.05000000000001670 ) ) ;
#505 = PRODUCT_DEFINITION_CONTEXT ( 'detailed design', #475, 'design' ) ;
#506 = ORIENTED_EDGE ( 'NONE', *, *, #113, .F. ) ;
#507 =( NAMED_UNIT ( * ) SI_UNIT ( $, .STERADIAN. ) SOLID_ANGLE_UNIT ( ) );
#508 = ORIENTED_EDGE ( 'NONE', *, *, #57, .T. ) ;
#509 = AXIS2_PLACEMENT_3D ( 'NONE', #1, #166, #479 ) ;
#510 = CARTESIAN_POINT ( 'NONE',  ( -12.00000000000000178, 0.000000000000000000, 0.000000000000000000 ) ) ;
#511 = DIRECTION ( 'NONE',  ( 0.000000000000000000, 1.000000000000000000, 0.000000000000000000 ) ) ;
#512 = PRESENTATION_LAYER_ASSIGNMENT (  '', '', ( #24 ) ) ;
#513 = CARTESIAN_POINT ( 'NONE',  ( 8.000000000000007105, -5.000000000000000000, 11.50000000000000355 ) ) ;
#514 = EDGE_CURVE ( 'NONE', #212, #307, #398, .T. ) ;
#515 = CARTESIAN_POINT ( 'NONE',  ( 8.000000000000001776, -4.700000000000003730, 41.50000000000000000 ) ) ;
#516 = EDGE_CURVE ( 'NONE', #3, #307, #66, .T. ) ;
ENDSEC;
END-ISO-10303-21;
