ISO-10303-21;
HEADER;
FILE_DESCRIPTION (( 'STEP AP203' ),
    '1' );
FILE_NAME ('¿Í¼Å m5.STEP',
    '2024-09-26T14:15:15',
    ( '' ),
    ( '' ),
    'SwSTEP 2.0',
    'SolidWorks 2022',
    '' );
FILE_SCHEMA (( 'CONFIG_CONTROL_DESIGN' ));
ENDSEC;

DATA;
#1 = MANIFOLD_SOLID_BREP ( 'º¸½º-µ¹Ãâ1', #207 ) ;
#2 = LINE ( 'NONE', #77, #92 ) ;
#3 = CARTESIAN_POINT ( 'NONE',  ( 0.000000000000000000, 0.000000000000000000, 0.5000000000000000000 ) ) ;
#4 = PRODUCT_DEFINITION ( 'UNKNOWN', '', #161, #130 ) ;
#5 = DIRECTION ( 'NONE',  ( -0.000000000000000000, -0.000000000000000000, -1.000000000000000000 ) ) ;
#6 = CIRCLE ( 'NONE', #56, 6.000000000000000888 ) ;
#7 = DIRECTION ( 'NONE',  ( 0.000000000000000000, 0.000000000000000000, 1.000000000000000000 ) ) ;
#8 = DIRECTION ( 'NONE',  ( -1.000000000000000000, 0.000000000000000000, 0.000000000000000000 ) ) ;
#9 = PERSON_AND_ORGANIZATION ( #41, #32 ) ;
#10 = VERTEX_POINT ( 'NONE', #93 ) ;
#11 = CC_DESIGN_APPROVAL ( #160, ( #4 ) ) ;
#12 = ORIENTED_EDGE ( 'NONE', *, *, #122, .T. ) ;
#13 = EDGE_CURVE ( 'NONE', #68, #10, #98, .T. ) ;
#14 = VECTOR ( 'NONE', #169, 1000.000000000000000 ) ;
#15 = DIRECTION ( 'NONE',  ( 1.000000000000000000, 0.000000000000000000, 0.000000000000000000 ) ) ;
#16 = CARTESIAN_POINT ( 'NONE',  ( 0.000000000000000000, 0.000000000000000000, 0.5000000000000000000 ) ) ;
#17 = VERTEX_POINT ( 'NONE', #91 ) ;
#18 = ORIENTED_EDGE ( 'NONE', *, *, #118, .F. ) ;
#19 = DIRECTION ( 'NONE',  ( -0.000000000000000000, -0.000000000000000000, -1.000000000000000000 ) ) ;
#20 = DATE_AND_TIME ( #194, #38 ) ;
#21 = CYLINDRICAL_SURFACE ( 'NONE', #116, 6.000000000000000888 ) ;
#22 = AXIS2_PLACEMENT_3D ( 'NONE', #94, #246, #75 ) ;
#23 = DIRECTION ( 'NONE',  ( 1.000000000000000000, 0.000000000000000000, -0.000000000000000000 ) ) ;
#24 = EDGE_CURVE ( 'NONE', #68, #35, #2, .T. ) ;
#25 = DIRECTION ( 'NONE',  ( 1.000000000000000000, 0.000000000000000000, 0.000000000000000000 ) ) ;
#26 = CARTESIAN_POINT ( 'NONE',  ( 0.000000000000000000, 0.000000000000000000, 0.5000000000000000000 ) ) ;
#27 = SECURITY_CLASSIFICATION_LEVEL ( 'unclassified' ) ;
#28 = PERSON_AND_ORGANIZATION_ROLE ( 'classification_officer' ) ;
#29 = DATE_TIME_ROLE ( 'creation_date' ) ;
#30 = ORIENTED_EDGE ( 'NONE', *, *, #88, .T. ) ;
#31 = DIRECTION ( 'NONE',  ( 0.000000000000000000, 0.000000000000000000, 1.000000000000000000 ) ) ;
#32 = ORGANIZATION ( 'UNSPECIFIED', 'UNSPECIFIED', '' ) ;
#33 = CARTESIAN_POINT ( 'NONE',  ( 2.499999999999998668, 3.061616997868381662E-16, 0.5000000000000000000 ) ) ;
#34 = EDGE_CURVE ( 'NONE', #222, #50, #90, .T. ) ;
#35 = VERTEX_POINT ( 'NONE', #55 ) ;
#36 = FACE_OUTER_BOUND ( 'NONE', #183, .T. ) ;
#37 = EDGE_LOOP ( 'NONE', ( #166, #240, #125, #150 ) ) ;
#38 = LOCAL_TIME ( 23, 15, 15.00000000000000000, #40 ) ;
#39 = EDGE_CURVE ( 'NONE', #17, #222, #234, .T. ) ;
#40 = COORDINATED_UNIVERSAL_TIME_OFFSET ( 9, 0, .AHEAD. ) ;
#41 = PERSON ( 'UNSPECIFIED', 'UNSPECIFIED', 'UNSPECIFIED', ('UNSPECIFIED'), ('UNSPECIFIED'), ('UNSPECIFIED') ) ;
#42 = CC_DESIGN_PERSON_AND_ORGANIZATION_ASSIGNMENT ( #9, #120, ( #161 ) ) ;
#43 = CIRCLE ( 'NONE', #132, 6.000000000000000888 ) ;
#44 = DIRECTION ( 'NONE',  ( 0.000000000000000000, 0.000000000000000000, 1.000000000000000000 ) ) ;
#45 = EDGE_CURVE ( 'NONE', #35, #78, #179, .T. ) ;
#46 = COORDINATED_UNIVERSAL_TIME_OFFSET ( 9, 0, .AHEAD. ) ;
#47 = AXIS2_PLACEMENT_3D ( 'NONE', #149, #31, #172 ) ;
#48 = ORIENTED_EDGE ( 'NONE', *, *, #13, .F. ) ;
#49 = DATE_AND_TIME ( #201, #65 ) ;
#50 = VERTEX_POINT ( 'NONE', #208 ) ;
#51 = ORIENTED_EDGE ( 'NONE', *, *, #192, .T. ) ;
#52 = AXIS2_PLACEMENT_3D ( 'NONE', #134, #152, #73 ) ;
#53 = ORIENTED_EDGE ( 'NONE', *, *, #34, .T. ) ;
#54 = APPROVAL ( #126, 'UNSPECIFIED' ) ;
#55 = CARTESIAN_POINT ( 'NONE',  ( -6.000000000000000888, 0.000000000000000000, 0.000000000000000000 ) ) ;
#56 = AXIS2_PLACEMENT_3D ( 'NONE', #16, #185, #15 ) ;
#57 = UNCERTAINTY_MEASURE_WITH_UNIT (LENGTH_MEASURE( 1.000000000000000082E-05 ), #198, 'distance_accuracy_value', 'NONE');
#58 = EDGE_LOOP ( 'NONE', ( #51, #30 ) ) ;
#59 = CARTESIAN_POINT ( 'NONE',  ( 6.000000000000000888, 7.347880794884120722E-16, 0.000000000000000000 ) ) ;
#60 = DIRECTION ( 'NONE',  ( 0.000000000000000000, 0.000000000000000000, 1.000000000000000000 ) ) ;
#61 = CC_DESIGN_APPROVAL ( #54, ( #161 ) ) ;
#62 = CARTESIAN_POINT ( 'NONE',  ( 0.000000000000000000, 0.000000000000000000, 0.5000000000000000000 ) ) ;
#63 =( NAMED_UNIT ( * ) SI_UNIT ( $, .STERADIAN. ) SOLID_ANGLE_UNIT ( ) );
#64 = DIRECTION ( 'NONE',  ( 0.000000000000000000, 0.000000000000000000, 1.000000000000000000 ) ) ;
#65 = LOCAL_TIME ( 23, 15, 15.00000000000000000, #46 ) ;
#66 = PERSON_AND_ORGANIZATION ( #41, #32 ) ;
#67 = DATE_AND_TIME ( #244, #216 ) ;
#68 = VERTEX_POINT ( 'NONE', #133 ) ;
#69 = CC_DESIGN_PERSON_AND_ORGANIZATION_ASSIGNMENT ( #81, #200, ( #161 ) ) ;
#70 = CALENDAR_DATE ( 2024, 26, 9 ) ;
#71 = PRODUCT_DEFINITION_SHAPE ( 'NONE', 'NONE',  #4 ) ;
#72 = CIRCLE ( 'NONE', #153, 2.499999999999998668 ) ;
#73 = DIRECTION ( 'NONE',  ( 1.000000000000000000, 0.000000000000000000, 0.000000000000000000 ) ) ;
#74 = PLANE ( 'NONE',  #85 ) ;
#75 = DIRECTION ( 'NONE',  ( 1.000000000000000000, 0.000000000000000000, 0.000000000000000000 ) ) ;
#76 = APPROVAL_PERSON_ORGANIZATION ( #119, #160, #199 ) ;
#77 = CARTESIAN_POINT ( 'NONE',  ( -6.000000000000000888, 0.000000000000000000, 0.5000000000000000000 ) ) ;
#78 = VERTEX_POINT ( 'NONE', #59 ) ;
#79 = LINE ( 'NONE', #232, #158 ) ;
#80 = DIRECTION ( 'NONE',  ( -1.000000000000000000, 0.000000000000000000, 0.000000000000000000 ) ) ;
#81 = PERSON_AND_ORGANIZATION ( #41, #32 ) ;
#82 = APPROVAL_ROLE ( '' ) ;
#83 = PERSON_AND_ORGANIZATION ( #41, #32 ) ;
#84 = ORIENTED_EDGE ( 'NONE', *, *, #122, .F. ) ;
#85 = AXIS2_PLACEMENT_3D ( 'NONE', #100, #64, #137 ) ;
#86 = EDGE_LOOP ( 'NONE', ( #229, #18 ) ) ;
#87 = CALENDAR_DATE ( 2024, 26, 9 ) ;
#88 = EDGE_CURVE ( 'NONE', #50, #109, #249, .T. ) ;
#89 = FACE_OUTER_BOUND ( 'NONE', #86, .T. ) ;
#90 = LINE ( 'NONE', #33, #14 ) ;
#91 = CARTESIAN_POINT ( 'NONE',  ( -2.499999999999998668, 0.000000000000000000, 0.5000000000000000000 ) ) ;
#92 = VECTOR ( 'NONE', #155, 1000.000000000000000 ) ;
#93 = CARTESIAN_POINT ( 'NONE',  ( 6.000000000000000888, 7.347880794884120722E-16, 0.5000000000000000000 ) ) ;
#94 = CARTESIAN_POINT ( 'NONE',  ( 0.000000000000000000, 0.000000000000000000, 0.000000000000000000 ) ) ;
#95 = CYLINDRICAL_SURFACE ( 'NONE', #228, 6.000000000000000888 ) ;
#96 = ADVANCED_FACE ( 'NONE', ( #36 ), #168, .F. ) ;
#97 = APPROVAL_STATUS ( 'not_yet_approved' ) ;
#98 = CIRCLE ( 'NONE', #239, 6.000000000000000888 ) ;
#99 = DIRECTION ( 'NONE',  ( 1.000000000000000000, 0.000000000000000000, 0.000000000000000000 ) ) ;
#100 = CARTESIAN_POINT ( 'NONE',  ( 0.000000000000000000, 0.000000000000000000, 0.000000000000000000 ) ) ;
#101 = APPROVAL ( #105, 'UNSPECIFIED' ) ;
#102 = DIRECTION ( 'NONE',  ( -0.000000000000000000, -0.000000000000000000, -1.000000000000000000 ) ) ;
#103 = LOCAL_TIME ( 23, 15, 15.00000000000000000, #162 ) ;
#104 = PERSON_AND_ORGANIZATION ( #41, #32 ) ;
#105 = APPROVAL_STATUS ( 'not_yet_approved' ) ;
#106 = APPROVAL_PERSON_ORGANIZATION ( #83, #101, #82 ) ;
#107 = CARTESIAN_POINT ( 'NONE',  ( 6.000000000000000888, 7.347880794884120722E-16, 0.5000000000000000000 ) ) ;
#108 = DIRECTION ( 'NONE',  ( -0.000000000000000000, -0.000000000000000000, -1.000000000000000000 ) ) ;
#109 = VERTEX_POINT ( 'NONE', #188 ) ;
#110 = CARTESIAN_POINT ( 'NONE',  ( 0.000000000000000000, 0.000000000000000000, 0.5000000000000000000 ) ) ;
#111 = DIRECTION ( 'NONE',  ( 1.000000000000000000, 0.000000000000000000, 0.000000000000000000 ) ) ;
#112 =( NAMED_UNIT ( * ) PLANE_ANGLE_UNIT ( ) SI_UNIT ( $, .RADIAN. ) );
#113 = MECHANICAL_CONTEXT ( 'NONE', #243, 'mechanical' ) ;
#114 = CC_DESIGN_APPROVAL ( #101, ( #182 ) ) ;
#115 = CYLINDRICAL_SURFACE ( 'NONE', #127, 2.499999999999998668 ) ;
#116 = AXIS2_PLACEMENT_3D ( 'NONE', #3, #159, #8 ) ;
#117 = FACE_OUTER_BOUND ( 'NONE', #189, .T. ) ;
#118 = EDGE_CURVE ( 'NONE', #78, #35, #43, .T. ) ;
#119 = PERSON_AND_ORGANIZATION ( #41, #32 ) ;
#120 = PERSON_AND_ORGANIZATION_ROLE ( 'creator' ) ;
#121 = PERSON_AND_ORGANIZATION_ROLE ( 'creator' ) ;
#122 = EDGE_CURVE ( 'NONE', #222, #17, #72, .T. ) ;
#123 = ORIENTED_EDGE ( 'NONE', *, *, #192, .F. ) ;
#124 = SHAPE_DEFINITION_REPRESENTATION ( #71, #242 ) ;
#125 = ORIENTED_EDGE ( 'NONE', *, *, #118, .T. ) ;
#126 = APPROVAL_STATUS ( 'not_yet_approved' ) ;
#127 = AXIS2_PLACEMENT_3D ( 'NONE', #62, #5, #80 ) ;
#128 = EDGE_CURVE ( 'NONE', #10, #78, #193, .T. ) ;
#129 = ORIENTED_EDGE ( 'NONE', *, *, #39, .T. ) ;
#130 = DESIGN_CONTEXT ( 'detailed design', #190, 'design' ) ;
#131 = ORIENTED_EDGE ( 'NONE', *, *, #24, .T. ) ;
#132 = AXIS2_PLACEMENT_3D ( 'NONE', #171, #231, #111 ) ;
#133 = CARTESIAN_POINT ( 'NONE',  ( -6.000000000000000888, 0.000000000000000000, 0.5000000000000000000 ) ) ;
#134 = CARTESIAN_POINT ( 'NONE',  ( 0.000000000000000000, 0.000000000000000000, 0.000000000000000000 ) ) ;
#135 = DIRECTION ( 'NONE',  ( 1.000000000000000000, 0.000000000000000000, 0.000000000000000000 ) ) ;
#136 = APPLICATION_PROTOCOL_DEFINITION ( 'international standard', 'config_control_design', 1994, #243 ) ;
#137 = DIRECTION ( 'NONE',  ( 1.000000000000000000, 0.000000000000000000, -0.000000000000000000 ) ) ;
#138 = CARTESIAN_POINT ( 'NONE',  ( 0.000000000000000000, 0.000000000000000000, 0.5000000000000000000 ) ) ;
#139 = VECTOR ( 'NONE', #19, 1000.000000000000000 ) ;
#140 = PLANE ( 'NONE',  #224 ) ;
#141 = EDGE_CURVE ( 'NONE', #10, #68, #6, .T. ) ;
#142 = AXIS2_PLACEMENT_3D ( 'NONE', #178, #44, #99 ) ;
#143 = COORDINATED_UNIVERSAL_TIME_OFFSET ( 9, 0, .AHEAD. ) ;
#144 = ORIENTED_EDGE ( 'NONE', *, *, #184, .F. ) ;
#145 = EDGE_LOOP ( 'NONE', ( #211, #221 ) ) ;
#146 = DATE_AND_TIME ( #70, #103 ) ;
#147 =( GEOMETRIC_REPRESENTATION_CONTEXT ( 3 ) GLOBAL_UNCERTAINTY_ASSIGNED_CONTEXT ( ( #57 ) ) GLOBAL_UNIT_ASSIGNED_CONTEXT ( ( #198, #112, #63 ) ) REPRESENTATION_CONTEXT ( 'NONE', 'WORKASPACE' ) );
#148 = ADVANCED_FACE ( 'NONE', ( #89, #245 ), #74, .F. ) ;
#149 = CARTESIAN_POINT ( 'NONE',  ( 0.000000000000000000, 0.000000000000000000, 0.5000000000000000000 ) ) ;
#150 = ORIENTED_EDGE ( 'NONE', *, *, #24, .F. ) ;
#151 = PRODUCT ( '¿Í¼Å m5', '¿Í¼Å m5', '', ( #113 ) ) ;
#152 = DIRECTION ( 'NONE',  ( 0.000000000000000000, 0.000000000000000000, 1.000000000000000000 ) ) ;
#153 = AXIS2_PLACEMENT_3D ( 'NONE', #156, #60, #135 ) ;
#154 = LOCAL_TIME ( 23, 15, 15.00000000000000000, #143 ) ;
#155 = DIRECTION ( 'NONE',  ( -0.000000000000000000, -0.000000000000000000, -1.000000000000000000 ) ) ;
#156 = CARTESIAN_POINT ( 'NONE',  ( 0.000000000000000000, 0.000000000000000000, 0.5000000000000000000 ) ) ;
#157 = CARTESIAN_POINT ( 'NONE',  ( 2.499999999999998668, 3.061616997868381662E-16, 0.5000000000000000000 ) ) ;
#158 = VECTOR ( 'NONE', #197, 1000.000000000000000 ) ;
#159 = DIRECTION ( 'NONE',  ( -0.000000000000000000, -0.000000000000000000, -1.000000000000000000 ) ) ;
#160 = APPROVAL ( #97, 'UNSPECIFIED' ) ;
#161 = PRODUCT_DEFINITION_FORMATION_WITH_SPECIFIED_SOURCE ( 'ANY', '', #151, .NOT_KNOWN. ) ;
#162 = COORDINATED_UNIVERSAL_TIME_OFFSET ( 9, 0, .AHEAD. ) ;
#163 = CC_DESIGN_DATE_AND_TIME_ASSIGNMENT ( #49, #29, ( #4 ) ) ;
#164 = ORIENTED_EDGE ( 'NONE', *, *, #88, .F. ) ;
#165 = AXIS2_PLACEMENT_3D ( 'NONE', #110, #108, #191 ) ;
#166 = ORIENTED_EDGE ( 'NONE', *, *, #141, .F. ) ;
#167 = COORDINATED_UNIVERSAL_TIME_OFFSET ( 9, 0, .AHEAD. ) ;
#168 = CYLINDRICAL_SURFACE ( 'NONE', #165, 2.499999999999998668 ) ;
#169 = DIRECTION ( 'NONE',  ( -0.000000000000000000, -0.000000000000000000, -1.000000000000000000 ) ) ;
#170 = ORIENTED_EDGE ( 'NONE', *, *, #184, .T. ) ;
#171 = CARTESIAN_POINT ( 'NONE',  ( 0.000000000000000000, 0.000000000000000000, 0.000000000000000000 ) ) ;
#172 = DIRECTION ( 'NONE',  ( 1.000000000000000000, 0.000000000000000000, 0.000000000000000000 ) ) ;
#173 = FACE_OUTER_BOUND ( 'NONE', #145, .T. ) ;
#174 = APPROVAL_PERSON_ORGANIZATION ( #241, #54, #204 ) ;
#175 = FACE_OUTER_BOUND ( 'NONE', #37, .T. ) ;
#176 = CC_DESIGN_PERSON_AND_ORGANIZATION_ASSIGNMENT ( #220, #121, ( #4 ) ) ;
#177 = DIRECTION ( 'NONE',  ( -1.000000000000000000, 0.000000000000000000, 0.000000000000000000 ) ) ;
#178 = CARTESIAN_POINT ( 'NONE',  ( 0.000000000000000000, 0.000000000000000000, 0.000000000000000000 ) ) ;
#179 = CIRCLE ( 'NONE', #22, 6.000000000000000888 ) ;
#180 = DATE_TIME_ROLE ( 'classification_date' ) ;
#181 = CC_DESIGN_PERSON_AND_ORGANIZATION_ASSIGNMENT ( #66, #195, ( #151 ) ) ;
#182 = SECURITY_CLASSIFICATION ( '', '', #27 ) ;
#183 = EDGE_LOOP ( 'NONE', ( #129, #53, #123, #144 ) ) ;
#184 = EDGE_CURVE ( 'NONE', #17, #109, #79, .T. ) ;
#185 = DIRECTION ( 'NONE',  ( 0.000000000000000000, 0.000000000000000000, 1.000000000000000000 ) ) ;
#186 = ADVANCED_FACE ( 'NONE', ( #173, #215 ), #140, .T. ) ;
#187 = CC_DESIGN_SECURITY_CLASSIFICATION ( #182, ( #161 ) ) ;
#188 = CARTESIAN_POINT ( 'NONE',  ( -2.499999999999998668, 0.000000000000000000, 0.000000000000000000 ) ) ;
#189 = EDGE_LOOP ( 'NONE', ( #203, #12, #170, #164 ) ) ;
#190 = APPLICATION_CONTEXT ( 'configuration controlled 3d designs of mechanical parts and assemblies' ) ;
#191 = DIRECTION ( 'NONE',  ( -1.000000000000000000, 0.000000000000000000, 0.000000000000000000 ) ) ;
#192 = EDGE_CURVE ( 'NONE', #109, #50, #219, .T. ) ;
#193 = LINE ( 'NONE', #107, #139 ) ;
#194 = CALENDAR_DATE ( 2024, 26, 9 ) ;
#195 = PERSON_AND_ORGANIZATION_ROLE ( 'design_owner' ) ;
#196 = ADVANCED_FACE ( 'NONE', ( #175 ), #95, .T. ) ;
#197 = DIRECTION ( 'NONE',  ( -0.000000000000000000, -0.000000000000000000, -1.000000000000000000 ) ) ;
#198 =( LENGTH_UNIT ( ) NAMED_UNIT ( * ) SI_UNIT ( .MILLI., .METRE. ) );
#199 = APPROVAL_ROLE ( '' ) ;
#200 = PERSON_AND_ORGANIZATION_ROLE ( 'design_supplier' ) ;
#201 = CALENDAR_DATE ( 2024, 26, 9 ) ;
#202 = APPROVAL_DATE_TIME ( #20, #160 ) ;
#203 = ORIENTED_EDGE ( 'NONE', *, *, #34, .F. ) ;
#204 = APPROVAL_ROLE ( '' ) ;
#205 = DIRECTION ( 'NONE',  ( 1.000000000000000000, 0.000000000000000000, 0.000000000000000000 ) ) ;
#206 = ORIENTED_EDGE ( 'NONE', *, *, #128, .F. ) ;
#207 = CLOSED_SHELL ( 'NONE', ( #96, #196, #186, #148, #230, #238 ) ) ;
#208 = CARTESIAN_POINT ( 'NONE',  ( 2.499999999999998668, 3.061616997868381662E-16, 0.000000000000000000 ) ) ;
#209 = EDGE_LOOP ( 'NONE', ( #225, #84 ) ) ;
#210 = CC_DESIGN_PERSON_AND_ORGANIZATION_ASSIGNMENT ( #104, #28, ( #182 ) ) ;
#211 = ORIENTED_EDGE ( 'NONE', *, *, #13, .T. ) ;
#212 = AXIS2_PLACEMENT_3D ( 'NONE', #233, #213, #25 ) ;
#213 = DIRECTION ( 'NONE',  ( 0.000000000000000000, 0.000000000000000000, 1.000000000000000000 ) ) ;
#214 = PRODUCT_RELATED_PRODUCT_CATEGORY ( 'detail', '', ( #151 ) ) ;
#215 = FACE_BOUND ( 'NONE', #209, .T. ) ;
#216 = LOCAL_TIME ( 23, 15, 15.00000000000000000, #167 ) ;
#217 = FACE_OUTER_BOUND ( 'NONE', #237, .T. ) ;
#218 = APPLICATION_PROTOCOL_DEFINITION ( 'international standard', 'config_control_design', 1994, #190 ) ;
#219 = CIRCLE ( 'NONE', #142, 2.499999999999998668 ) ;
#220 = PERSON_AND_ORGANIZATION ( #41, #32 ) ;
#221 = ORIENTED_EDGE ( 'NONE', *, *, #141, .T. ) ;
#222 = VERTEX_POINT ( 'NONE', #157 ) ;
#223 = APPROVAL_DATE_TIME ( #146, #101 ) ;
#224 = AXIS2_PLACEMENT_3D ( 'NONE', #138, #7, #23 ) ;
#225 = ORIENTED_EDGE ( 'NONE', *, *, #39, .F. ) ;
#226 = DIRECTION ( 'NONE',  ( 0.000000000000000000, 0.000000000000000000, 1.000000000000000000 ) ) ;
#227 = ORIENTED_EDGE ( 'NONE', *, *, #45, .T. ) ;
#228 = AXIS2_PLACEMENT_3D ( 'NONE', #26, #102, #177 ) ;
#229 = ORIENTED_EDGE ( 'NONE', *, *, #45, .F. ) ;
#230 = ADVANCED_FACE ( 'NONE', ( #217 ), #21, .T. ) ;
#231 = DIRECTION ( 'NONE',  ( 0.000000000000000000, 0.000000000000000000, 1.000000000000000000 ) ) ;
#232 = CARTESIAN_POINT ( 'NONE',  ( -2.499999999999998668, 0.000000000000000000, 0.5000000000000000000 ) ) ;
#233 = CARTESIAN_POINT ( 'NONE',  ( 0.000000000000000000, 0.000000000000000000, 0.000000000000000000 ) ) ;
#234 = CIRCLE ( 'NONE', #47, 2.499999999999998668 ) ;
#235 = APPROVAL_DATE_TIME ( #236, #54 ) ;
#236 = DATE_AND_TIME ( #87, #154 ) ;
#237 = EDGE_LOOP ( 'NONE', ( #206, #48, #131, #227 ) ) ;
#238 = ADVANCED_FACE ( 'NONE', ( #117 ), #115, .F. ) ;
#239 = AXIS2_PLACEMENT_3D ( 'NONE', #248, #226, #205 ) ;
#240 = ORIENTED_EDGE ( 'NONE', *, *, #128, .T. ) ;
#241 = PERSON_AND_ORGANIZATION ( #41, #32 ) ;
#242 = ADVANCED_BREP_SHAPE_REPRESENTATION ( '¿Í¼Å m5', ( #1, #212 ), #147 ) ;
#243 = APPLICATION_CONTEXT ( 'configuration controlled 3d designs of mechanical parts and assemblies' ) ;
#244 = CALENDAR_DATE ( 2024, 26, 9 ) ;
#245 = FACE_BOUND ( 'NONE', #58, .T. ) ;
#246 = DIRECTION ( 'NONE',  ( 0.000000000000000000, 0.000000000000000000, 1.000000000000000000 ) ) ;
#247 = CC_DESIGN_DATE_AND_TIME_ASSIGNMENT ( #67, #180, ( #182 ) ) ;
#248 = CARTESIAN_POINT ( 'NONE',  ( 0.000000000000000000, 0.000000000000000000, 0.5000000000000000000 ) ) ;
#249 = CIRCLE ( 'NONE', #52, 2.499999999999998668 ) ;
ENDSEC;
END-ISO-10303-21;
