ISO-10303-21;
HEADER;
FILE_DESCRIPTION (( 'STEP AP203' ),
    '1' );
FILE_NAME ('¿Í¼Å m5 ´ëÇü.STEP',
    '2024-09-26T14:15:26',
    ( '' ),
    ( '' ),
    'SwSTEP 2.0',
    'SolidWorks 2022',
    '' );
FILE_SCHEMA (( 'CONFIG_CONTROL_DESIGN' ));
ENDSEC;

DATA;
#1 = CIRCLE ( 'NONE', #140, 2.499999999999998668 ) ;
#2 = CALENDAR_DATE ( 2024, 26, 9 ) ;
#3 = CARTESIAN_POINT ( 'NONE',  ( 7.500000000000000000, 9.184850993605147944E-16, 1.000000000000000000 ) ) ;
#4 = DIRECTION ( 'NONE',  ( 0.000000000000000000, 0.000000000000000000, 1.000000000000000000 ) ) ;
#5 = EDGE_CURVE ( 'NONE', #99, #230, #159, .T. ) ;
#6 = ORIENTED_EDGE ( 'NONE', *, *, #112, .T. ) ;
#7 = LOCAL_TIME ( 23, 15, 26.00000000000000000, #226 ) ;
#8 = ORIENTED_EDGE ( 'NONE', *, *, #112, .F. ) ;
#9 = EDGE_LOOP ( 'NONE', ( #15, #85, #6, #181 ) ) ;
#10 = EDGE_CURVE ( 'NONE', #191, #72, #1, .T. ) ;
#11 = CARTESIAN_POINT ( 'NONE',  ( 0.000000000000000000, 0.000000000000000000, 0.000000000000000000 ) ) ;
#12 = DIRECTION ( 'NONE',  ( 0.000000000000000000, 0.000000000000000000, 1.000000000000000000 ) ) ;
#13 = CARTESIAN_POINT ( 'NONE',  ( 2.499999999999998668, 3.061616997868381662E-16, 0.000000000000000000 ) ) ;
#14 = MECHANICAL_CONTEXT ( 'NONE', #94, 'mechanical' ) ;
#15 = ORIENTED_EDGE ( 'NONE', *, *, #5, .F. ) ;
#16 = PERSON_AND_ORGANIZATION_ROLE ( 'creator' ) ;
#17 = APPROVAL_DATE_TIME ( #193, #96 ) ;
#18 = CALENDAR_DATE ( 2024, 26, 9 ) ;
#19 = EDGE_CURVE ( 'NONE', #209, #191, #76, .T. ) ;
#20 = ORIENTED_EDGE ( 'NONE', *, *, #52, .F. ) ;
#21 = FACE_OUTER_BOUND ( 'NONE', #182, .T. ) ;
#22 = DIRECTION ( 'NONE',  ( 0.000000000000000000, 0.000000000000000000, 1.000000000000000000 ) ) ;
#23 = EDGE_LOOP ( 'NONE', ( #20, #234 ) ) ;
#24 = PLANE ( 'NONE',  #53 ) ;
#25 = CARTESIAN_POINT ( 'NONE',  ( 0.000000000000000000, 0.000000000000000000, 1.000000000000000000 ) ) ;
#26 = AXIS2_PLACEMENT_3D ( 'NONE', #165, #124, #206 ) ;
#27 = ADVANCED_BREP_SHAPE_REPRESENTATION ( '¿Í¼Å m5 ´ëÇü', ( #186, #198 ), #219 ) ;
#28 = ADVANCED_FACE ( 'NONE', ( #139 ), #162, .F. ) ;
#29 =( NAMED_UNIT ( * ) SI_UNIT ( $, .STERADIAN. ) SOLID_ANGLE_UNIT ( ) );
#30 = CC_DESIGN_PERSON_AND_ORGANIZATION_ASSIGNMENT ( #131, #87, ( #71 ) ) ;
#31 = APPROVAL_STATUS ( 'not_yet_approved' ) ;
#32 = EDGE_LOOP ( 'NONE', ( #231, #134 ) ) ;
#33 = LOCAL_TIME ( 23, 15, 26.00000000000000000, #172 ) ;
#34 = SECURITY_CLASSIFICATION_LEVEL ( 'unclassified' ) ;
#35 = EDGE_CURVE ( 'NONE', #230, #130, #236, .T. ) ;
#36 = CYLINDRICAL_SURFACE ( 'NONE', #155, 2.499999999999998668 ) ;
#37 = VECTOR ( 'NONE', #135, 1000.000000000000000 ) ;
#38 = DIRECTION ( 'NONE',  ( -0.000000000000000000, -0.000000000000000000, -1.000000000000000000 ) ) ;
#39 = CARTESIAN_POINT ( 'NONE',  ( 0.000000000000000000, 0.000000000000000000, 1.000000000000000000 ) ) ;
#40 = ADVANCED_FACE ( 'NONE', ( #55 ), #36, .F. ) ;
#41 = ORIENTED_EDGE ( 'NONE', *, *, #10, .F. ) ;
#42 = CIRCLE ( 'NONE', #48, 7.500000000000000000 ) ;
#43 = DIRECTION ( 'NONE',  ( -0.000000000000000000, -0.000000000000000000, -1.000000000000000000 ) ) ;
#44 = APPLICATION_PROTOCOL_DEFINITION ( 'international standard', 'config_control_design', 1994, #94 ) ;
#45 = CARTESIAN_POINT ( 'NONE',  ( 0.000000000000000000, 0.000000000000000000, 1.000000000000000000 ) ) ;
#46 = FACE_OUTER_BOUND ( 'NONE', #9, .T. ) ;
#47 = DIRECTION ( 'NONE',  ( 1.000000000000000000, 0.000000000000000000, 0.000000000000000000 ) ) ;
#48 = AXIS2_PLACEMENT_3D ( 'NONE', #143, #66, #120 ) ;
#49 = ADVANCED_FACE ( 'NONE', ( #218 ), #200, .T. ) ;
#50 = APPLICATION_PROTOCOL_DEFINITION ( 'international standard', 'config_control_design', 1994, #161 ) ;
#51 = EDGE_LOOP ( 'NONE', ( #158, #170, #176, #8 ) ) ;
#52 = EDGE_CURVE ( 'NONE', #209, #179, #232, .T. ) ;
#53 = AXIS2_PLACEMENT_3D ( 'NONE', #93, #4, #117 ) ;
#54 = DIRECTION ( 'NONE',  ( -0.000000000000000000, -0.000000000000000000, -1.000000000000000000 ) ) ;
#55 = FACE_OUTER_BOUND ( 'NONE', #245, .T. ) ;
#56 = ORIENTED_EDGE ( 'NONE', *, *, #19, .T. ) ;
#57 = ADVANCED_FACE ( 'NONE', ( #21, #202 ), #24, .T. ) ;
#58 = AXIS2_PLACEMENT_3D ( 'NONE', #146, #222, #243 ) ;
#59 = ORIENTED_EDGE ( 'NONE', *, *, #125, .F. ) ;
#60 = LINE ( 'NONE', #106, #136 ) ;
#61 = DIRECTION ( 'NONE',  ( -1.000000000000000000, 0.000000000000000000, 0.000000000000000000 ) ) ;
#62 = DIRECTION ( 'NONE',  ( 1.000000000000000000, 0.000000000000000000, -0.000000000000000000 ) ) ;
#63 = EDGE_CURVE ( 'NONE', #179, #209, #185, .T. ) ;
#64 = CIRCLE ( 'NONE', #26, 2.499999999999998668 ) ;
#65 = DIRECTION ( 'NONE',  ( -0.000000000000000000, -0.000000000000000000, -1.000000000000000000 ) ) ;
#66 = DIRECTION ( 'NONE',  ( 0.000000000000000000, 0.000000000000000000, 1.000000000000000000 ) ) ;
#67 = DATE_AND_TIME ( #244, #80 ) ;
#68 = CIRCLE ( 'NONE', #58, 7.500000000000000000 ) ;
#69 = CALENDAR_DATE ( 2024, 26, 9 ) ;
#70 = PRODUCT_DEFINITION ( 'UNKNOWN', '', #71, #178 ) ;
#71 = PRODUCT_DEFINITION_FORMATION_WITH_SPECIFIED_SOURCE ( 'ANY', '', #151, .NOT_KNOWN. ) ;
#72 = VERTEX_POINT ( 'NONE', #13 ) ;
#73 = VERTEX_POINT ( 'NONE', #166 ) ;
#74 = UNCERTAINTY_MEASURE_WITH_UNIT (LENGTH_MEASURE( 1.000000000000000082E-05 ), #100, 'distance_accuracy_value', 'NONE');
#75 = CC_DESIGN_APPROVAL ( #223, ( #70 ) ) ;
#76 = LINE ( 'NONE', #160, #97 ) ;
#77 = CARTESIAN_POINT ( 'NONE',  ( 0.000000000000000000, 0.000000000000000000, 0.000000000000000000 ) ) ;
#78 = EDGE_CURVE ( 'NONE', #73, #99, #68, .T. ) ;
#79 = ORIENTED_EDGE ( 'NONE', *, *, #10, .T. ) ;
#80 = LOCAL_TIME ( 23, 15, 26.00000000000000000, #224 ) ;
#81 = DIRECTION ( 'NONE',  ( 0.000000000000000000, 0.000000000000000000, 1.000000000000000000 ) ) ;
#82 = CARTESIAN_POINT ( 'NONE',  ( 0.000000000000000000, 0.000000000000000000, 0.000000000000000000 ) ) ;
#83 = DIRECTION ( 'NONE',  ( 0.000000000000000000, 0.000000000000000000, 1.000000000000000000 ) ) ;
#84 = LOCAL_TIME ( 23, 15, 26.00000000000000000, #248 ) ;
#85 = ORIENTED_EDGE ( 'NONE', *, *, #78, .F. ) ;
#86 = COORDINATED_UNIVERSAL_TIME_OFFSET ( 9, 0, .AHEAD. ) ;
#87 = PERSON_AND_ORGANIZATION_ROLE ( 'design_supplier' ) ;
#88 = APPROVAL_DATE_TIME ( #148, #223 ) ;
#89 = PERSON_AND_ORGANIZATION ( #189, #132 ) ;
#90 = APPROVAL_PERSON_ORGANIZATION ( #108, #223, #208 ) ;
#91 = ORIENTED_EDGE ( 'NONE', *, *, #78, .T. ) ;
#92 = EDGE_CURVE ( 'NONE', #130, #230, #101, .T. ) ;
#93 = CARTESIAN_POINT ( 'NONE',  ( 0.000000000000000000, 0.000000000000000000, 1.000000000000000000 ) ) ;
#94 = APPLICATION_CONTEXT ( 'configuration controlled 3d designs of mechanical parts and assemblies' ) ;
#95 = DIRECTION ( 'NONE',  ( 0.000000000000000000, 0.000000000000000000, 1.000000000000000000 ) ) ;
#96 = APPROVAL ( #31, 'UNSPECIFIED' ) ;
#97 = VECTOR ( 'NONE', #38, 1000.000000000000000 ) ;
#98 = ORIENTED_EDGE ( 'NONE', *, *, #63, .T. ) ;
#99 = VERTEX_POINT ( 'NONE', #168 ) ;
#100 =( LENGTH_UNIT ( ) NAMED_UNIT ( * ) SI_UNIT ( .MILLI., .METRE. ) );
#101 = CIRCLE ( 'NONE', #167, 7.500000000000000000 ) ;
#102 = DIRECTION ( 'NONE',  ( -0.000000000000000000, -0.000000000000000000, -1.000000000000000000 ) ) ;
#103 = FACE_BOUND ( 'NONE', #141, .T. ) ;
#104 = CARTESIAN_POINT ( 'NONE',  ( -7.500000000000000000, 0.000000000000000000, 1.000000000000000000 ) ) ;
#105 = PRODUCT_RELATED_PRODUCT_CATEGORY ( 'detail', '', ( #151 ) ) ;
#106 = CARTESIAN_POINT ( 'NONE',  ( 2.499999999999998668, 3.061616997868381662E-16, 1.000000000000000000 ) ) ;
#107 = CLOSED_SHELL ( 'NONE', ( #28, #49, #57, #190, #229, #40 ) ) ;
#108 = PERSON_AND_ORGANIZATION ( #189, #132 ) ;
#109 = CALENDAR_DATE ( 2024, 26, 9 ) ;
#110 = APPROVAL_ROLE ( '' ) ;
#111 = ORIENTED_EDGE ( 'NONE', *, *, #242, .F. ) ;
#112 = EDGE_CURVE ( 'NONE', #73, #130, #239, .T. ) ;
#113 = SHAPE_DEFINITION_REPRESENTATION ( #156, #27 ) ;
#114 = DIRECTION ( 'NONE',  ( -1.000000000000000000, 0.000000000000000000, 0.000000000000000000 ) ) ;
#115 = AXIS2_PLACEMENT_3D ( 'NONE', #197, #95, #235 ) ;
#116 = CARTESIAN_POINT ( 'NONE',  ( 0.000000000000000000, 0.000000000000000000, 1.000000000000000000 ) ) ;
#117 = DIRECTION ( 'NONE',  ( 1.000000000000000000, 0.000000000000000000, -0.000000000000000000 ) ) ;
#118 = ORIENTED_EDGE ( 'NONE', *, *, #19, .F. ) ;
#119 = DIRECTION ( 'NONE',  ( 1.000000000000000000, 0.000000000000000000, 0.000000000000000000 ) ) ;
#120 = DIRECTION ( 'NONE',  ( 1.000000000000000000, 0.000000000000000000, 0.000000000000000000 ) ) ;
#121 = CC_DESIGN_PERSON_AND_ORGANIZATION_ASSIGNMENT ( #89, #129, ( #151 ) ) ;
#122 = VECTOR ( 'NONE', #102, 1000.000000000000000 ) ;
#123 = CARTESIAN_POINT ( 'NONE',  ( -2.499999999999998668, 0.000000000000000000, 0.000000000000000000 ) ) ;
#124 = DIRECTION ( 'NONE',  ( 0.000000000000000000, 0.000000000000000000, 1.000000000000000000 ) ) ;
#125 = EDGE_CURVE ( 'NONE', #179, #72, #60, .T. ) ;
#126 = DIRECTION ( 'NONE',  ( 0.000000000000000000, 0.000000000000000000, 1.000000000000000000 ) ) ;
#127 = CC_DESIGN_APPROVAL ( #96, ( #201 ) ) ;
#128 = DATE_AND_TIME ( #109, #7 ) ;
#129 = PERSON_AND_ORGANIZATION_ROLE ( 'design_owner' ) ;
#130 = VERTEX_POINT ( 'NONE', #207 ) ;
#131 = PERSON_AND_ORGANIZATION ( #189, #132 ) ;
#132 = ORGANIZATION ( 'UNSPECIFIED', 'UNSPECIFIED', '' ) ;
#133 = PERSON_AND_ORGANIZATION ( #189, #132 ) ;
#134 = ORIENTED_EDGE ( 'NONE', *, *, #35, .F. ) ;
#135 = DIRECTION ( 'NONE',  ( -0.000000000000000000, -0.000000000000000000, -1.000000000000000000 ) ) ;
#136 = VECTOR ( 'NONE', #187, 1000.000000000000000 ) ;
#137 = DIRECTION ( 'NONE',  ( 1.000000000000000000, 0.000000000000000000, 0.000000000000000000 ) ) ;
#138 = CARTESIAN_POINT ( 'NONE',  ( 0.000000000000000000, 0.000000000000000000, 1.000000000000000000 ) ) ;
#139 = FACE_OUTER_BOUND ( 'NONE', #213, .T. ) ;
#140 = AXIS2_PLACEMENT_3D ( 'NONE', #77, #22, #137 ) ;
#141 = EDGE_LOOP ( 'NONE', ( #79, #177 ) ) ;
#142 = CC_DESIGN_PERSON_AND_ORGANIZATION_ASSIGNMENT ( #228, #16, ( #71 ) ) ;
#143 = CARTESIAN_POINT ( 'NONE',  ( 0.000000000000000000, 0.000000000000000000, 1.000000000000000000 ) ) ;
#144 = FACE_OUTER_BOUND ( 'NONE', #32, .T. ) ;
#145 = APPROVAL_PERSON_ORGANIZATION ( #227, #195, #247 ) ;
#146 = CARTESIAN_POINT ( 'NONE',  ( 0.000000000000000000, 0.000000000000000000, 1.000000000000000000 ) ) ;
#147 = CC_DESIGN_PERSON_AND_ORGANIZATION_ASSIGNMENT ( #133, #171, ( #70 ) ) ;
#148 = DATE_AND_TIME ( #18, #204 ) ;
#149 = DATE_AND_TIME ( #69, #33 ) ;
#150 = DATE_TIME_ROLE ( 'classification_date' ) ;
#151 = PRODUCT ( '¿Í¼Å m5 ´ëÇü', '¿Í¼Å m5 ´ëÇü', '', ( #14 ) ) ;
#152 = ORIENTED_EDGE ( 'NONE', *, *, #125, .T. ) ;
#153 = AXIS2_PLACEMENT_3D ( 'NONE', #82, #126, #62 ) ;
#154 = CC_DESIGN_DATE_AND_TIME_ASSIGNMENT ( #128, #196, ( #70 ) ) ;
#155 = AXIS2_PLACEMENT_3D ( 'NONE', #138, #54, #114 ) ;
#156 = PRODUCT_DEFINITION_SHAPE ( 'NONE', 'NONE',  #70 ) ;
#157 = DIRECTION ( 'NONE',  ( -1.000000000000000000, 0.000000000000000000, 0.000000000000000000 ) ) ;
#158 = ORIENTED_EDGE ( 'NONE', *, *, #210, .F. ) ;
#159 = LINE ( 'NONE', #3, #37 ) ;
#160 = CARTESIAN_POINT ( 'NONE',  ( -2.499999999999998668, 0.000000000000000000, 1.000000000000000000 ) ) ;
#161 = APPLICATION_CONTEXT ( 'configuration controlled 3d designs of mechanical parts and assemblies' ) ;
#162 = CYLINDRICAL_SURFACE ( 'NONE', #194, 2.499999999999998668 ) ;
#163 = CC_DESIGN_SECURITY_CLASSIFICATION ( #201, ( #71 ) ) ;
#164 = CARTESIAN_POINT ( 'NONE',  ( 7.500000000000000000, 9.184850993605147944E-16, 0.000000000000000000 ) ) ;
#165 = CARTESIAN_POINT ( 'NONE',  ( 0.000000000000000000, 0.000000000000000000, 0.000000000000000000 ) ) ;
#166 = CARTESIAN_POINT ( 'NONE',  ( -7.500000000000000000, 0.000000000000000000, 1.000000000000000000 ) ) ;
#167 = AXIS2_PLACEMENT_3D ( 'NONE', #188, #12, #47 ) ;
#168 = CARTESIAN_POINT ( 'NONE',  ( 7.500000000000000000, 9.184850993605147944E-16, 1.000000000000000000 ) ) ;
#169 = DIRECTION ( 'NONE',  ( 1.000000000000000000, 0.000000000000000000, 0.000000000000000000 ) ) ;
#170 = ORIENTED_EDGE ( 'NONE', *, *, #5, .T. ) ;
#171 = PERSON_AND_ORGANIZATION_ROLE ( 'creator' ) ;
#172 = COORDINATED_UNIVERSAL_TIME_OFFSET ( 9, 0, .AHEAD. ) ;
#173 = PERSON_AND_ORGANIZATION ( #189, #132 ) ;
#174 = APPROVAL_DATE_TIME ( #67, #195 ) ;
#175 = AXIS2_PLACEMENT_3D ( 'NONE', #45, #83, #169 ) ;
#176 = ORIENTED_EDGE ( 'NONE', *, *, #35, .T. ) ;
#177 = ORIENTED_EDGE ( 'NONE', *, *, #242, .T. ) ;
#178 = DESIGN_CONTEXT ( 'detailed design', #161, 'design' ) ;
#179 = VERTEX_POINT ( 'NONE', #203 ) ;
#180 = CC_DESIGN_APPROVAL ( #195, ( #71 ) ) ;
#181 = ORIENTED_EDGE ( 'NONE', *, *, #92, .T. ) ;
#182 = EDGE_LOOP ( 'NONE', ( #91, #249 ) ) ;
#183 = CC_DESIGN_PERSON_AND_ORGANIZATION_ASSIGNMENT ( #173, #246, ( #201 ) ) ;
#184 = CARTESIAN_POINT ( 'NONE',  ( -2.499999999999998668, 0.000000000000000000, 1.000000000000000000 ) ) ;
#185 = CIRCLE ( 'NONE', #175, 2.499999999999998668 ) ;
#186 = MANIFOLD_SOLID_BREP ( 'º¸½º-µ¹Ãâ1', #107 ) ;
#187 = DIRECTION ( 'NONE',  ( -0.000000000000000000, -0.000000000000000000, -1.000000000000000000 ) ) ;
#188 = CARTESIAN_POINT ( 'NONE',  ( 0.000000000000000000, 0.000000000000000000, 0.000000000000000000 ) ) ;
#189 = PERSON ( 'UNSPECIFIED', 'UNSPECIFIED', 'UNSPECIFIED', ('UNSPECIFIED'), ('UNSPECIFIED'), ('UNSPECIFIED') ) ;
#190 = ADVANCED_FACE ( 'NONE', ( #144, #103 ), #241, .F. ) ;
#191 = VERTEX_POINT ( 'NONE', #123 ) ;
#192 = APPROVAL_STATUS ( 'not_yet_approved' ) ;
#193 = DATE_AND_TIME ( #2, #84 ) ;
#194 = AXIS2_PLACEMENT_3D ( 'NONE', #39, #233, #157 ) ;
#195 = APPROVAL ( #192, 'UNSPECIFIED' ) ;
#196 = DATE_TIME_ROLE ( 'creation_date' ) ;
#197 = CARTESIAN_POINT ( 'NONE',  ( 0.000000000000000000, 0.000000000000000000, 0.000000000000000000 ) ) ;
#198 = AXIS2_PLACEMENT_3D ( 'NONE', #11, #81, #238 ) ;
#199 = DIRECTION ( 'NONE',  ( 0.000000000000000000, 0.000000000000000000, 1.000000000000000000 ) ) ;
#200 = CYLINDRICAL_SURFACE ( 'NONE', #215, 7.500000000000000000 ) ;
#201 = SECURITY_CLASSIFICATION ( '', '', #34 ) ;
#202 = FACE_BOUND ( 'NONE', #23, .T. ) ;
#203 = CARTESIAN_POINT ( 'NONE',  ( 2.499999999999998668, 3.061616997868381662E-16, 1.000000000000000000 ) ) ;
#204 = LOCAL_TIME ( 23, 15, 26.00000000000000000, #86 ) ;
#205 = CYLINDRICAL_SURFACE ( 'NONE', #221, 7.500000000000000000 ) ;
#206 = DIRECTION ( 'NONE',  ( 1.000000000000000000, 0.000000000000000000, 0.000000000000000000 ) ) ;
#207 = CARTESIAN_POINT ( 'NONE',  ( -7.500000000000000000, 0.000000000000000000, 0.000000000000000000 ) ) ;
#208 = APPROVAL_ROLE ( '' ) ;
#209 = VERTEX_POINT ( 'NONE', #184 ) ;
#210 = EDGE_CURVE ( 'NONE', #99, #73, #42, .T. ) ;
#211 = APPROVAL_STATUS ( 'not_yet_approved' ) ;
#212 = APPROVAL_PERSON_ORGANIZATION ( #225, #96, #110 ) ;
#213 = EDGE_LOOP ( 'NONE', ( #216, #152, #41, #118 ) ) ;
#214 = CARTESIAN_POINT ( 'NONE',  ( 0.000000000000000000, 0.000000000000000000, 1.000000000000000000 ) ) ;
#215 = AXIS2_PLACEMENT_3D ( 'NONE', #214, #43, #217 ) ;
#216 = ORIENTED_EDGE ( 'NONE', *, *, #52, .T. ) ;
#217 = DIRECTION ( 'NONE',  ( -1.000000000000000000, 0.000000000000000000, 0.000000000000000000 ) ) ;
#218 = FACE_OUTER_BOUND ( 'NONE', #51, .T. ) ;
#219 =( GEOMETRIC_REPRESENTATION_CONTEXT ( 3 ) GLOBAL_UNCERTAINTY_ASSIGNED_CONTEXT ( ( #74 ) ) GLOBAL_UNIT_ASSIGNED_CONTEXT ( ( #100, #220, #29 ) ) REPRESENTATION_CONTEXT ( 'NONE', 'WORKASPACE' ) );
#220 =( NAMED_UNIT ( * ) PLANE_ANGLE_UNIT ( ) SI_UNIT ( $, .RADIAN. ) );
#221 = AXIS2_PLACEMENT_3D ( 'NONE', #25, #65, #61 ) ;
#222 = DIRECTION ( 'NONE',  ( 0.000000000000000000, 0.000000000000000000, 1.000000000000000000 ) ) ;
#223 = APPROVAL ( #211, 'UNSPECIFIED' ) ;
#224 = COORDINATED_UNIVERSAL_TIME_OFFSET ( 9, 0, .AHEAD. ) ;
#225 = PERSON_AND_ORGANIZATION ( #189, #132 ) ;
#226 = COORDINATED_UNIVERSAL_TIME_OFFSET ( 9, 0, .AHEAD. ) ;
#227 = PERSON_AND_ORGANIZATION ( #189, #132 ) ;
#228 = PERSON_AND_ORGANIZATION ( #189, #132 ) ;
#229 = ADVANCED_FACE ( 'NONE', ( #46 ), #205, .T. ) ;
#230 = VERTEX_POINT ( 'NONE', #164 ) ;
#231 = ORIENTED_EDGE ( 'NONE', *, *, #92, .F. ) ;
#232 = CIRCLE ( 'NONE', #240, 2.499999999999998668 ) ;
#233 = DIRECTION ( 'NONE',  ( -0.000000000000000000, -0.000000000000000000, -1.000000000000000000 ) ) ;
#234 = ORIENTED_EDGE ( 'NONE', *, *, #63, .F. ) ;
#235 = DIRECTION ( 'NONE',  ( 1.000000000000000000, 0.000000000000000000, 0.000000000000000000 ) ) ;
#236 = CIRCLE ( 'NONE', #115, 7.500000000000000000 ) ;
#237 = CC_DESIGN_DATE_AND_TIME_ASSIGNMENT ( #149, #150, ( #201 ) ) ;
#238 = DIRECTION ( 'NONE',  ( 1.000000000000000000, 0.000000000000000000, 0.000000000000000000 ) ) ;
#239 = LINE ( 'NONE', #104, #122 ) ;
#240 = AXIS2_PLACEMENT_3D ( 'NONE', #116, #199, #119 ) ;
#241 = PLANE ( 'NONE',  #153 ) ;
#242 = EDGE_CURVE ( 'NONE', #72, #191, #64, .T. ) ;
#243 = DIRECTION ( 'NONE',  ( 1.000000000000000000, 0.000000000000000000, 0.000000000000000000 ) ) ;
#244 = CALENDAR_DATE ( 2024, 26, 9 ) ;
#245 = EDGE_LOOP ( 'NONE', ( #59, #98, #56, #111 ) ) ;
#246 = PERSON_AND_ORGANIZATION_ROLE ( 'classification_officer' ) ;
#247 = APPROVAL_ROLE ( '' ) ;
#248 = COORDINATED_UNIVERSAL_TIME_OFFSET ( 9, 0, .AHEAD. ) ;
#249 = ORIENTED_EDGE ( 'NONE', *, *, #210, .T. ) ;
ENDSEC;
END-ISO-10303-21;
