ISO-10303-21;
HEADER;
FILE_DESCRIPTION (( 'STEP AP203' ),
    '1' );
FILE_NAME ('¿Í¼Å m4.STEP',
    '2024-09-26T14:15:35',
    ( '' ),
    ( '' ),
    'SwSTEP 2.0',
    'SolidWorks 2022',
    '' );
FILE_SCHEMA (( 'CONFIG_CONTROL_DESIGN' ));
ENDSEC;

DATA;
#1 = EDGE_CURVE ( 'NONE', #11, #132, #218, .T. ) ;
#2 = APPROVAL_ROLE ( '' ) ;
#3 = CALENDAR_DATE ( 2024, 26, 9 ) ;
#4 = COORDINATED_UNIVERSAL_TIME_OFFSET ( 9, 0, .AHEAD. ) ;
#5 = ORIENTED_EDGE ( 'NONE', *, *, #64, .T. ) ;
#6 = EDGE_CURVE ( 'NONE', #192, #39, #111, .T. ) ;
#7 = ORIENTED_EDGE ( 'NONE', *, *, #156, .F. ) ;
#8 = DIRECTION ( 'NONE',  ( 1.000000000000000000, 0.000000000000000000, 0.000000000000000000 ) ) ;
#9 = ORIENTED_EDGE ( 'NONE', *, *, #31, .T. ) ;
#10 = LINE ( 'NONE', #181, #100 ) ;
#11 = VERTEX_POINT ( 'NONE', #47 ) ;
#12 = AXIS2_PLACEMENT_3D ( 'NONE', #148, #30, #92 ) ;
#13 = ORIENTED_EDGE ( 'NONE', *, *, #108, .F. ) ;
#14 = APPROVAL ( #122, 'UNSPECIFIED' ) ;
#15 = CYLINDRICAL_SURFACE ( 'NONE', #197, 5.000000000000000000 ) ;
#16 = CARTESIAN_POINT ( 'NONE',  ( 0.000000000000000000, 0.000000000000000000, 0.5000000000000000000 ) ) ;
#17 = CIRCLE ( 'NONE', #83, 2.000000000000000000 ) ;
#18 = DIRECTION ( 'NONE',  ( -0.000000000000000000, -0.000000000000000000, -1.000000000000000000 ) ) ;
#19 = CALENDAR_DATE ( 2024, 26, 9 ) ;
#20 = AXIS2_PLACEMENT_3D ( 'NONE', #57, #209, #35 ) ;
#21 = PERSON_AND_ORGANIZATION ( #23, #126 ) ;
#22 = PERSON_AND_ORGANIZATION_ROLE ( 'creator' ) ;
#23 = PERSON ( 'UNSPECIFIED', 'UNSPECIFIED', 'UNSPECIFIED', ('UNSPECIFIED'), ('UNSPECIFIED'), ('UNSPECIFIED') ) ;
#24 = PRODUCT_RELATED_PRODUCT_CATEGORY ( 'detail', '', ( #66 ) ) ;
#25 = EDGE_LOOP ( 'NONE', ( #184, #65, #9, #46 ) ) ;
#26 = DIRECTION ( 'NONE',  ( 0.000000000000000000, 0.000000000000000000, 1.000000000000000000 ) ) ;
#27 = APPROVAL_PERSON_ORGANIZATION ( #136, #120, #67 ) ;
#28 = DIRECTION ( 'NONE',  ( 1.000000000000000000, 0.000000000000000000, 0.000000000000000000 ) ) ;
#29 = CARTESIAN_POINT ( 'NONE',  ( 0.000000000000000000, 0.000000000000000000, 0.5000000000000000000 ) ) ;
#30 = DIRECTION ( 'NONE',  ( 0.000000000000000000, 0.000000000000000000, 1.000000000000000000 ) ) ;
#31 = EDGE_CURVE ( 'NONE', #210, #73, #70, .T. ) ;
#32 = FACE_OUTER_BOUND ( 'NONE', #196, .T. ) ;
#33 = FACE_BOUND ( 'NONE', #62, .T. ) ;
#34 = CARTESIAN_POINT ( 'NONE',  ( 0.000000000000000000, 0.000000000000000000, 0.5000000000000000000 ) ) ;
#35 = DIRECTION ( 'NONE',  ( 1.000000000000000000, 0.000000000000000000, 0.000000000000000000 ) ) ;
#36 = APPROVAL_DATE_TIME ( #176, #213 ) ;
#37 = ORIENTED_EDGE ( 'NONE', *, *, #177, .F. ) ;
#38 = CC_DESIGN_PERSON_AND_ORGANIZATION_ASSIGNMENT ( #159, #22, ( #143 ) ) ;
#39 = VERTEX_POINT ( 'NONE', #105 ) ;
#40 = AXIS2_PLACEMENT_3D ( 'NONE', #34, #188, #97 ) ;
#41 = DATE_TIME_ROLE ( 'creation_date' ) ;
#42 = ORIENTED_EDGE ( 'NONE', *, *, #64, .F. ) ;
#43 = ADVANCED_FACE ( 'NONE', ( #239, #72 ), #130, .F. ) ;
#44 = CC_DESIGN_APPROVAL ( #14, ( #74 ) ) ;
#45 = CARTESIAN_POINT ( 'NONE',  ( -5.000000000000000000, 0.000000000000000000, 0.000000000000000000 ) ) ;
#46 = ORIENTED_EDGE ( 'NONE', *, *, #161, .F. ) ;
#47 = CARTESIAN_POINT ( 'NONE',  ( -2.000000000000000000, 0.000000000000000000, 0.5000000000000000000 ) ) ;
#48 = AXIS2_PLACEMENT_3D ( 'NONE', #109, #89, #128 ) ;
#49 = DIRECTION ( 'NONE',  ( 1.000000000000000000, 0.000000000000000000, 0.000000000000000000 ) ) ;
#50 = DIRECTION ( 'NONE',  ( 1.000000000000000000, 0.000000000000000000, 0.000000000000000000 ) ) ;
#51 = CC_DESIGN_PERSON_AND_ORGANIZATION_ASSIGNMENT ( #226, #78, ( #66 ) ) ;
#52 = MECHANICAL_CONTEXT ( 'NONE', #157, 'mechanical' ) ;
#53 = VECTOR ( 'NONE', #69, 1000.000000000000000 ) ;
#54 = DIRECTION ( 'NONE',  ( 0.000000000000000000, 0.000000000000000000, 1.000000000000000000 ) ) ;
#55 = DIRECTION ( 'NONE',  ( -1.000000000000000000, 0.000000000000000000, 0.000000000000000000 ) ) ;
#56 = APPROVAL_STATUS ( 'not_yet_approved' ) ;
#57 = CARTESIAN_POINT ( 'NONE',  ( 0.000000000000000000, 0.000000000000000000, 0.000000000000000000 ) ) ;
#58 = AXIS2_PLACEMENT_3D ( 'NONE', #16, #54, #80 ) ;
#59 = DATE_TIME_ROLE ( 'classification_date' ) ;
#60 = EDGE_CURVE ( 'NONE', #125, #167, #10, .T. ) ;
#61 = PERSON_AND_ORGANIZATION_ROLE ( 'classification_officer' ) ;
#62 = EDGE_LOOP ( 'NONE', ( #13, #95 ) ) ;
#63 = APPROVAL_PERSON_ORGANIZATION ( #214, #213, #2 ) ;
#64 = EDGE_CURVE ( 'NONE', #167, #132, #208, .T. ) ;
#65 = ORIENTED_EDGE ( 'NONE', *, *, #177, .T. ) ;
#66 = PRODUCT ( '¿Í¼Å m4', '¿Í¼Å m4', '', ( #52 ) ) ;
#67 = APPROVAL_ROLE ( '' ) ;
#68 = APPLICATION_CONTEXT ( 'configuration controlled 3d designs of mechanical parts and assemblies' ) ;
#69 = DIRECTION ( 'NONE',  ( -0.000000000000000000, -0.000000000000000000, -1.000000000000000000 ) ) ;
#70 = CIRCLE ( 'NONE', #131, 5.000000000000000000 ) ;
#71 = DIRECTION ( 'NONE',  ( 0.000000000000000000, 0.000000000000000000, 1.000000000000000000 ) ) ;
#72 = FACE_BOUND ( 'NONE', #103, .T. ) ;
#73 = VERTEX_POINT ( 'NONE', #45 ) ;
#74 = SECURITY_CLASSIFICATION ( '', '', #82 ) ;
#75 = EDGE_CURVE ( 'NONE', #125, #11, #17, .T. ) ;
#76 = CARTESIAN_POINT ( 'NONE',  ( 0.000000000000000000, 0.000000000000000000, 0.000000000000000000 ) ) ;
#77 = CARTESIAN_POINT ( 'NONE',  ( 0.000000000000000000, 0.000000000000000000, 0.5000000000000000000 ) ) ;
#78 = PERSON_AND_ORGANIZATION_ROLE ( 'design_owner' ) ;
#79 = CIRCLE ( 'NONE', #215, 5.000000000000000000 ) ;
#80 = DIRECTION ( 'NONE',  ( 1.000000000000000000, 0.000000000000000000, -0.000000000000000000 ) ) ;
#81 = CARTESIAN_POINT ( 'NONE',  ( 5.000000000000000000, 6.123233995736766282E-16, 0.000000000000000000 ) ) ;
#82 = SECURITY_CLASSIFICATION_LEVEL ( 'unclassified' ) ;
#83 = AXIS2_PLACEMENT_3D ( 'NONE', #29, #71, #8 ) ;
#84 = PERSON_AND_ORGANIZATION ( #23, #126 ) ;
#85 = PERSON_AND_ORGANIZATION_ROLE ( 'design_supplier' ) ;
#86 = LOCAL_TIME ( 23, 15, 35.00000000000000000, #162 ) ;
#87 = EDGE_LOOP ( 'NONE', ( #119, #133 ) ) ;
#88 = EDGE_LOOP ( 'NONE', ( #168, #202 ) ) ;
#89 = DIRECTION ( 'NONE',  ( 0.000000000000000000, 0.000000000000000000, 1.000000000000000000 ) ) ;
#90 = LOCAL_TIME ( 23, 15, 35.00000000000000000, #249 ) ;
#91 = DIRECTION ( 'NONE',  ( -0.000000000000000000, -0.000000000000000000, -1.000000000000000000 ) ) ;
#92 = DIRECTION ( 'NONE',  ( 1.000000000000000000, 0.000000000000000000, -0.000000000000000000 ) ) ;
#93 = ORIENTED_EDGE ( 'NONE', *, *, #60, .F. ) ;
#94 = LOCAL_TIME ( 23, 15, 35.00000000000000000, #147 ) ;
#95 = ORIENTED_EDGE ( 'NONE', *, *, #75, .F. ) ;
#96 =( NAMED_UNIT ( * ) SI_UNIT ( $, .STERADIAN. ) SOLID_ANGLE_UNIT ( ) );
#97 = DIRECTION ( 'NONE',  ( -1.000000000000000000, 0.000000000000000000, 0.000000000000000000 ) ) ;
#98 = CARTESIAN_POINT ( 'NONE',  ( 0.000000000000000000, 0.000000000000000000, 0.000000000000000000 ) ) ;
#99 = CALENDAR_DATE ( 2024, 26, 9 ) ;
#100 = VECTOR ( 'NONE', #216, 1000.000000000000000 ) ;
#101 = PERSON_AND_ORGANIZATION_ROLE ( 'creator' ) ;
#102 = CALENDAR_DATE ( 2024, 26, 9 ) ;
#103 = EDGE_LOOP ( 'NONE', ( #235, #5 ) ) ;
#104 = DIRECTION ( 'NONE',  ( 1.000000000000000000, 0.000000000000000000, 0.000000000000000000 ) ) ;
#105 = CARTESIAN_POINT ( 'NONE',  ( 5.000000000000000000, 6.123233995736766282E-16, 0.5000000000000000000 ) ) ;
#106 = CC_DESIGN_APPROVAL ( #213, ( #152 ) ) ;
#107 = CARTESIAN_POINT ( 'NONE',  ( 2.000000000000000000, 2.449293598294706414E-16, 0.5000000000000000000 ) ) ;
#108 = EDGE_CURVE ( 'NONE', #11, #125, #115, .T. ) ;
#109 = CARTESIAN_POINT ( 'NONE',  ( 0.000000000000000000, 0.000000000000000000, 0.5000000000000000000 ) ) ;
#110 = CARTESIAN_POINT ( 'NONE',  ( 0.000000000000000000, 0.000000000000000000, 0.5000000000000000000 ) ) ;
#111 = CIRCLE ( 'NONE', #170, 5.000000000000000000 ) ;
#112 = CYLINDRICAL_SURFACE ( 'NONE', #40, 2.000000000000000000 ) ;
#113 =( LENGTH_UNIT ( ) NAMED_UNIT ( * ) SI_UNIT ( .MILLI., .METRE. ) );
#114 = FACE_OUTER_BOUND ( 'NONE', #87, .T. ) ;
#115 = CIRCLE ( 'NONE', #48, 2.000000000000000000 ) ;
#116 = DIRECTION ( 'NONE',  ( -0.000000000000000000, -0.000000000000000000, -1.000000000000000000 ) ) ;
#117 = DIRECTION ( 'NONE',  ( -1.000000000000000000, 0.000000000000000000, 0.000000000000000000 ) ) ;
#118 = DATE_AND_TIME ( #3, #94 ) ;
#119 = ORIENTED_EDGE ( 'NONE', *, *, #6, .T. ) ;
#120 = APPROVAL ( #56, 'UNSPECIFIED' ) ;
#121 = PERSON_AND_ORGANIZATION ( #23, #126 ) ;
#122 = APPROVAL_STATUS ( 'not_yet_approved' ) ;
#123 = ORIENTED_EDGE ( 'NONE', *, *, #223, .T. ) ;
#124 = DATE_AND_TIME ( #232, #86 ) ;
#125 = VERTEX_POINT ( 'NONE', #107 ) ;
#126 = ORGANIZATION ( 'UNSPECIFIED', 'UNSPECIFIED', '' ) ;
#127 = CC_DESIGN_PERSON_AND_ORGANIZATION_ASSIGNMENT ( #21, #101, ( #152 ) ) ;
#128 = DIRECTION ( 'NONE',  ( 1.000000000000000000, 0.000000000000000000, 0.000000000000000000 ) ) ;
#129 = CARTESIAN_POINT ( 'NONE',  ( 0.000000000000000000, 0.000000000000000000, 0.5000000000000000000 ) ) ;
#130 = PLANE ( 'NONE',  #12 ) ;
#131 = AXIS2_PLACEMENT_3D ( 'NONE', #217, #26, #28 ) ;
#132 = VERTEX_POINT ( 'NONE', #185 ) ;
#133 = ORIENTED_EDGE ( 'NONE', *, *, #165, .T. ) ;
#134 = CARTESIAN_POINT ( 'NONE',  ( 2.000000000000000000, 2.449293598294706414E-16, 0.000000000000000000 ) ) ;
#135 = VECTOR ( 'NONE', #18, 1000.000000000000000 ) ;
#136 = PERSON_AND_ORGANIZATION ( #23, #126 ) ;
#137 = UNCERTAINTY_MEASURE_WITH_UNIT (LENGTH_MEASURE( 1.000000000000000082E-05 ), #113, 'distance_accuracy_value', 'NONE');
#138 = CARTESIAN_POINT ( 'NONE',  ( 5.000000000000000000, 6.123233995736766282E-16, 0.5000000000000000000 ) ) ;
#139 = CYLINDRICAL_SURFACE ( 'NONE', #140, 5.000000000000000000 ) ;
#140 = AXIS2_PLACEMENT_3D ( 'NONE', #154, #116, #55 ) ;
#141 =( NAMED_UNIT ( * ) PLANE_ANGLE_UNIT ( ) SI_UNIT ( $, .RADIAN. ) );
#142 = DATE_AND_TIME ( #19, #149 ) ;
#143 = PRODUCT_DEFINITION ( 'UNKNOWN', '', #152, #243 ) ;
#144 = COORDINATED_UNIVERSAL_TIME_OFFSET ( 9, 0, .AHEAD. ) ;
#145 = ORIENTED_EDGE ( 'NONE', *, *, #1, .F. ) ;
#146 = CIRCLE ( 'NONE', #248, 5.000000000000000000 ) ;
#147 = COORDINATED_UNIVERSAL_TIME_OFFSET ( 9, 0, .AHEAD. ) ;
#148 = CARTESIAN_POINT ( 'NONE',  ( 0.000000000000000000, 0.000000000000000000, 0.000000000000000000 ) ) ;
#149 = LOCAL_TIME ( 23, 15, 35.00000000000000000, #4 ) ;
#150 = DIRECTION ( 'NONE',  ( 0.000000000000000000, 0.000000000000000000, 1.000000000000000000 ) ) ;
#151 = DIRECTION ( 'NONE',  ( 0.000000000000000000, 0.000000000000000000, 1.000000000000000000 ) ) ;
#152 = PRODUCT_DEFINITION_FORMATION_WITH_SPECIFIED_SOURCE ( 'ANY', '', #66, .NOT_KNOWN. ) ;
#153 = CARTESIAN_POINT ( 'NONE',  ( 0.000000000000000000, 0.000000000000000000, 0.000000000000000000 ) ) ;
#154 = CARTESIAN_POINT ( 'NONE',  ( 0.000000000000000000, 0.000000000000000000, 0.5000000000000000000 ) ) ;
#155 = APPLICATION_PROTOCOL_DEFINITION ( 'international standard', 'config_control_design', 1994, #68 ) ;
#156 = EDGE_CURVE ( 'NONE', #132, #167, #227, .T. ) ;
#157 = APPLICATION_CONTEXT ( 'configuration controlled 3d designs of mechanical parts and assemblies' ) ;
#158 = LOCAL_TIME ( 23, 15, 35.00000000000000000, #144 ) ;
#159 = PERSON_AND_ORGANIZATION ( #23, #126 ) ;
#160 = APPROVAL_ROLE ( '' ) ;
#161 = EDGE_CURVE ( 'NONE', #192, #73, #221, .T. ) ;
#162 = COORDINATED_UNIVERSAL_TIME_OFFSET ( 9, 0, .AHEAD. ) ;
#163 = EDGE_LOOP ( 'NONE', ( #178, #230, #7, #145 ) ) ;
#164 = CC_DESIGN_APPROVAL ( #120, ( #143 ) ) ;
#165 = EDGE_CURVE ( 'NONE', #39, #192, #146, .T. ) ;
#166 = MANIFOLD_SOLID_BREP ( 'º¸½º-µ¹Ãâ1', #231 ) ;
#167 = VERTEX_POINT ( 'NONE', #134 ) ;
#168 = ORIENTED_EDGE ( 'NONE', *, *, #223, .F. ) ;
#169 = ORIENTED_EDGE ( 'NONE', *, *, #75, .T. ) ;
#170 = AXIS2_PLACEMENT_3D ( 'NONE', #129, #151, #49 ) ;
#171 = CARTESIAN_POINT ( 'NONE',  ( -2.000000000000000000, 0.000000000000000000, 0.5000000000000000000 ) ) ;
#172 = APPLICATION_PROTOCOL_DEFINITION ( 'international standard', 'config_control_design', 1994, #157 ) ;
#173 = CC_DESIGN_PERSON_AND_ORGANIZATION_ASSIGNMENT ( #121, #61, ( #74 ) ) ;
#174 = FACE_OUTER_BOUND ( 'NONE', #25, .T. ) ;
#175 = APPROVAL_DATE_TIME ( #124, #120 ) ;
#176 = DATE_AND_TIME ( #102, #90 ) ;
#177 = EDGE_CURVE ( 'NONE', #39, #210, #225, .T. ) ;
#178 = ORIENTED_EDGE ( 'NONE', *, *, #108, .T. ) ;
#179 = ORIENTED_EDGE ( 'NONE', *, *, #1, .T. ) ;
#180 = CC_DESIGN_DATE_AND_TIME_ASSIGNMENT ( #142, #41, ( #143 ) ) ;
#181 = CARTESIAN_POINT ( 'NONE',  ( 2.000000000000000000, 2.449293598294706414E-16, 0.5000000000000000000 ) ) ;
#182 = AXIS2_PLACEMENT_3D ( 'NONE', #241, #205, #117 ) ;
#183 = CARTESIAN_POINT ( 'NONE',  ( -5.000000000000000000, 0.000000000000000000, 0.5000000000000000000 ) ) ;
#184 = ORIENTED_EDGE ( 'NONE', *, *, #165, .F. ) ;
#185 = CARTESIAN_POINT ( 'NONE',  ( -2.000000000000000000, 0.000000000000000000, 0.000000000000000000 ) ) ;
#186 = DIRECTION ( 'NONE',  ( 1.000000000000000000, 0.000000000000000000, 0.000000000000000000 ) ) ;
#187 = PLANE ( 'NONE',  #58 ) ;
#188 = DIRECTION ( 'NONE',  ( -0.000000000000000000, -0.000000000000000000, -1.000000000000000000 ) ) ;
#189 = ADVANCED_FACE ( 'NONE', ( #203 ), #139, .T. ) ;
#190 = APPROVAL_DATE_TIME ( #193, #14 ) ;
#191 = AXIS2_PLACEMENT_3D ( 'NONE', #153, #200, #104 ) ;
#192 = VERTEX_POINT ( 'NONE', #240 ) ;
#193 = DATE_AND_TIME ( #99, #158 ) ;
#194 = CC_DESIGN_PERSON_AND_ORGANIZATION_ASSIGNMENT ( #247, #85, ( #152 ) ) ;
#195 = SHAPE_DEFINITION_REPRESENTATION ( #211, #229 ) ;
#196 = EDGE_LOOP ( 'NONE', ( #93, #169, #179, #42 ) ) ;
#197 = AXIS2_PLACEMENT_3D ( 'NONE', #77, #206, #246 ) ;
#198 = DIRECTION ( 'NONE',  ( 0.000000000000000000, 0.000000000000000000, 1.000000000000000000 ) ) ;
#199 = AXIS2_PLACEMENT_3D ( 'NONE', #76, #198, #50 ) ;
#200 = DIRECTION ( 'NONE',  ( 0.000000000000000000, 0.000000000000000000, 1.000000000000000000 ) ) ;
#201 = ORIENTED_EDGE ( 'NONE', *, *, #6, .F. ) ;
#202 = ORIENTED_EDGE ( 'NONE', *, *, #31, .F. ) ;
#203 = FACE_OUTER_BOUND ( 'NONE', #238, .T. ) ;
#204 = ADVANCED_FACE ( 'NONE', ( #244 ), #224, .F. ) ;
#205 = DIRECTION ( 'NONE',  ( -0.000000000000000000, -0.000000000000000000, -1.000000000000000000 ) ) ;
#206 = DIRECTION ( 'NONE',  ( -0.000000000000000000, -0.000000000000000000, -1.000000000000000000 ) ) ;
#207 = DIRECTION ( 'NONE',  ( 0.000000000000000000, 0.000000000000000000, 1.000000000000000000 ) ) ;
#208 = CIRCLE ( 'NONE', #199, 2.000000000000000000 ) ;
#209 = DIRECTION ( 'NONE',  ( 0.000000000000000000, 0.000000000000000000, 1.000000000000000000 ) ) ;
#210 = VERTEX_POINT ( 'NONE', #81 ) ;
#211 = PRODUCT_DEFINITION_SHAPE ( 'NONE', 'NONE',  #143 ) ;
#212 =( GEOMETRIC_REPRESENTATION_CONTEXT ( 3 ) GLOBAL_UNCERTAINTY_ASSIGNED_CONTEXT ( ( #137 ) ) GLOBAL_UNIT_ASSIGNED_CONTEXT ( ( #113, #141, #96 ) ) REPRESENTATION_CONTEXT ( 'NONE', 'WORKASPACE' ) );
#213 = APPROVAL ( #228, 'UNSPECIFIED' ) ;
#214 = PERSON_AND_ORGANIZATION ( #23, #126 ) ;
#215 = AXIS2_PLACEMENT_3D ( 'NONE', #98, #207, #222 ) ;
#216 = DIRECTION ( 'NONE',  ( -0.000000000000000000, -0.000000000000000000, -1.000000000000000000 ) ) ;
#217 = CARTESIAN_POINT ( 'NONE',  ( 0.000000000000000000, 0.000000000000000000, 0.000000000000000000 ) ) ;
#218 = LINE ( 'NONE', #171, #53 ) ;
#219 = ADVANCED_FACE ( 'NONE', ( #32 ), #112, .F. ) ;
#220 = APPROVAL_PERSON_ORGANIZATION ( #84, #14, #160 ) ;
#221 = LINE ( 'NONE', #183, #234 ) ;
#222 = DIRECTION ( 'NONE',  ( 1.000000000000000000, 0.000000000000000000, 0.000000000000000000 ) ) ;
#223 = EDGE_CURVE ( 'NONE', #73, #210, #79, .T. ) ;
#224 = CYLINDRICAL_SURFACE ( 'NONE', #182, 2.000000000000000000 ) ;
#225 = LINE ( 'NONE', #138, #135 ) ;
#226 = PERSON_AND_ORGANIZATION ( #23, #126 ) ;
#227 = CIRCLE ( 'NONE', #191, 2.000000000000000000 ) ;
#228 = APPROVAL_STATUS ( 'not_yet_approved' ) ;
#229 = ADVANCED_BREP_SHAPE_REPRESENTATION ( '¿Í¼Å m4', ( #166, #20 ), #212 ) ;
#230 = ORIENTED_EDGE ( 'NONE', *, *, #60, .T. ) ;
#231 = CLOSED_SHELL ( 'NONE', ( #204, #237, #233, #43, #189, #219 ) ) ;
#232 = CALENDAR_DATE ( 2024, 26, 9 ) ;
#233 = ADVANCED_FACE ( 'NONE', ( #114, #33 ), #187, .T. ) ;
#234 = VECTOR ( 'NONE', #91, 1000.000000000000000 ) ;
#235 = ORIENTED_EDGE ( 'NONE', *, *, #156, .T. ) ;
#236 = ORIENTED_EDGE ( 'NONE', *, *, #161, .T. ) ;
#237 = ADVANCED_FACE ( 'NONE', ( #174 ), #15, .T. ) ;
#238 = EDGE_LOOP ( 'NONE', ( #37, #201, #236, #123 ) ) ;
#239 = FACE_OUTER_BOUND ( 'NONE', #88, .T. ) ;
#240 = CARTESIAN_POINT ( 'NONE',  ( -5.000000000000000000, 0.000000000000000000, 0.5000000000000000000 ) ) ;
#241 = CARTESIAN_POINT ( 'NONE',  ( 0.000000000000000000, 0.000000000000000000, 0.5000000000000000000 ) ) ;
#242 = CC_DESIGN_SECURITY_CLASSIFICATION ( #74, ( #152 ) ) ;
#243 = DESIGN_CONTEXT ( 'detailed design', #68, 'design' ) ;
#244 = FACE_OUTER_BOUND ( 'NONE', #163, .T. ) ;
#245 = CC_DESIGN_DATE_AND_TIME_ASSIGNMENT ( #118, #59, ( #74 ) ) ;
#246 = DIRECTION ( 'NONE',  ( -1.000000000000000000, 0.000000000000000000, 0.000000000000000000 ) ) ;
#247 = PERSON_AND_ORGANIZATION ( #23, #126 ) ;
#248 = AXIS2_PLACEMENT_3D ( 'NONE', #110, #150, #186 ) ;
#249 = COORDINATED_UNIVERSAL_TIME_OFFSET ( 9, 0, .AHEAD. ) ;
ENDSEC;
END-ISO-10303-21;
