ISO-10303-21;
HEADER;
FILE_DESCRIPTION (( 'STEP AP203' ),
    '1' );
FILE_NAME ('¿Í¼Å m4 ´ëÇü.STEP',
    '2024-09-26T14:15:43',
    ( '' ),
    ( '' ),
    'SwSTEP 2.0',
    'SolidWorks 2022',
    '' );
FILE_SCHEMA (( 'CONFIG_CONTROL_DESIGN' ));
ENDSEC;

DATA;
#1 = DIRECTION ( 'NONE',  ( 1.000000000000000000, 0.000000000000000000, 0.000000000000000000 ) ) ;
#2 = LINE ( 'NONE', #46, #77 ) ;
#3 = COORDINATED_UNIVERSAL_TIME_OFFSET ( 9, 0, .AHEAD. ) ;
#4 = ORIENTED_EDGE ( 'NONE', *, *, #145, .F. ) ;
#5 = AXIS2_PLACEMENT_3D ( 'NONE', #243, #78, #227 ) ;
#6 = DIRECTION ( 'NONE',  ( 0.000000000000000000, 0.000000000000000000, 1.000000000000000000 ) ) ;
#7 = EDGE_LOOP ( 'NONE', ( #4, #23 ) ) ;
#8 = EDGE_CURVE ( 'NONE', #70, #179, #170, .T. ) ;
#9 = CIRCLE ( 'NONE', #219, 2.000000000000000000 ) ;
#10 = CARTESIAN_POINT ( 'NONE',  ( -2.000000000000000000, 0.000000000000000000, 1.000000000000000000 ) ) ;
#11 = DIRECTION ( 'NONE',  ( -0.000000000000000000, -0.000000000000000000, -1.000000000000000000 ) ) ;
#12 = ORIENTED_EDGE ( 'NONE', *, *, #53, .F. ) ;
#13 = CARTESIAN_POINT ( 'NONE',  ( 0.000000000000000000, 0.000000000000000000, 1.000000000000000000 ) ) ;
#14 =( GEOMETRIC_REPRESENTATION_CONTEXT ( 3 ) GLOBAL_UNCERTAINTY_ASSIGNED_CONTEXT ( ( #245 ) ) GLOBAL_UNIT_ASSIGNED_CONTEXT ( ( #246, #228, #134 ) ) REPRESENTATION_CONTEXT ( 'NONE', 'WORKASPACE' ) );
#15 = CARTESIAN_POINT ( 'NONE',  ( 0.000000000000000000, 0.000000000000000000, 0.000000000000000000 ) ) ;
#16 = PERSON_AND_ORGANIZATION_ROLE ( 'creator' ) ;
#17 = PRODUCT_DEFINITION_SHAPE ( 'NONE', 'NONE',  #127 ) ;
#18 = COORDINATED_UNIVERSAL_TIME_OFFSET ( 9, 0, .AHEAD. ) ;
#19 = AXIS2_PLACEMENT_3D ( 'NONE', #198, #105, #51 ) ;
#20 = CARTESIAN_POINT ( 'NONE',  ( 0.000000000000000000, 0.000000000000000000, 1.000000000000000000 ) ) ;
#21 = APPROVAL_STATUS ( 'not_yet_approved' ) ;
#22 = ADVANCED_FACE ( 'NONE', ( #28 ), #203, .F. ) ;
#23 = ORIENTED_EDGE ( 'NONE', *, *, #48, .F. ) ;
#24 = DATE_AND_TIME ( #233, #98 ) ;
#25 = APPROVAL ( #169, 'UNSPECIFIED' ) ;
#26 = FACE_OUTER_BOUND ( 'NONE', #149, .T. ) ;
#27 = PLANE ( 'NONE',  #231 ) ;
#28 = FACE_OUTER_BOUND ( 'NONE', #40, .T. ) ;
#29 = CARTESIAN_POINT ( 'NONE',  ( 7.500000000000000000, 9.184850993605147944E-16, 1.000000000000000000 ) ) ;
#30 = DIRECTION ( 'NONE',  ( 1.000000000000000000, 0.000000000000000000, 0.000000000000000000 ) ) ;
#31 = CC_DESIGN_PERSON_AND_ORGANIZATION_ASSIGNMENT ( #60, #89, ( #127 ) ) ;
#32 = AXIS2_PLACEMENT_3D ( 'NONE', #103, #184, #1 ) ;
#33 = CYLINDRICAL_SURFACE ( 'NONE', #69, 7.500000000000000000 ) ;
#34 = DIRECTION ( 'NONE',  ( -0.000000000000000000, -0.000000000000000000, -1.000000000000000000 ) ) ;
#35 = DIRECTION ( 'NONE',  ( -0.000000000000000000, -0.000000000000000000, -1.000000000000000000 ) ) ;
#36 = AXIS2_PLACEMENT_3D ( 'NONE', #189, #185, #220 ) ;
#37 = PERSON_AND_ORGANIZATION ( #148, #249 ) ;
#38 = APPROVAL ( #214, 'UNSPECIFIED' ) ;
#39 = APPROVAL_DATE_TIME ( #104, #25 ) ;
#40 = EDGE_LOOP ( 'NONE', ( #68, #121, #166, #173 ) ) ;
#41 = APPROVAL_DATE_TIME ( #24, #38 ) ;
#42 = ORIENTED_EDGE ( 'NONE', *, *, #48, .T. ) ;
#43 = APPROVAL_DATE_TIME ( #80, #146 ) ;
#44 = ADVANCED_BREP_SHAPE_REPRESENTATION ( '¿Í¼Å m4 ´ëÇü', ( #85, #101 ), #14 ) ;
#45 = PRODUCT_DEFINITION_FORMATION_WITH_SPECIFIED_SOURCE ( 'ANY', '', #100, .NOT_KNOWN. ) ;
#46 = CARTESIAN_POINT ( 'NONE',  ( -2.000000000000000000, 0.000000000000000000, 1.000000000000000000 ) ) ;
#47 = ORIENTED_EDGE ( 'NONE', *, *, #193, .T. ) ;
#48 = EDGE_CURVE ( 'NONE', #150, #163, #95, .T. ) ;
#49 = ORIENTED_EDGE ( 'NONE', *, *, #165, .T. ) ;
#50 = AXIS2_PLACEMENT_3D ( 'NONE', #20, #153, #224 ) ;
#51 = DIRECTION ( 'NONE',  ( 1.000000000000000000, 0.000000000000000000, 0.000000000000000000 ) ) ;
#52 = DIRECTION ( 'NONE',  ( 1.000000000000000000, 0.000000000000000000, 0.000000000000000000 ) ) ;
#53 = EDGE_CURVE ( 'NONE', #79, #163, #202, .T. ) ;
#54 = CARTESIAN_POINT ( 'NONE',  ( 0.000000000000000000, 0.000000000000000000, 1.000000000000000000 ) ) ;
#55 = CC_DESIGN_APPROVAL ( #146, ( #45 ) ) ;
#56 = LINE ( 'NONE', #99, #241 ) ;
#57 = EDGE_LOOP ( 'NONE', ( #197, #49, #86, #129 ) ) ;
#58 = CARTESIAN_POINT ( 'NONE',  ( 0.000000000000000000, 0.000000000000000000, 1.000000000000000000 ) ) ;
#59 = CC_DESIGN_PERSON_AND_ORGANIZATION_ASSIGNMENT ( #199, #16, ( #45 ) ) ;
#60 = PERSON_AND_ORGANIZATION ( #148, #249 ) ;
#61 = VECTOR ( 'NONE', #11, 1000.000000000000000 ) ;
#62 = PERSON_AND_ORGANIZATION ( #148, #249 ) ;
#63 = APPLICATION_PROTOCOL_DEFINITION ( 'international standard', 'config_control_design', 1994, #117 ) ;
#64 = COORDINATED_UNIVERSAL_TIME_OFFSET ( 9, 0, .AHEAD. ) ;
#65 = FACE_OUTER_BOUND ( 'NONE', #57, .T. ) ;
#66 = VECTOR ( 'NONE', #234, 1000.000000000000000 ) ;
#67 = SHAPE_DEFINITION_REPRESENTATION ( #17, #44 ) ;
#68 = ORIENTED_EDGE ( 'NONE', *, *, #165, .F. ) ;
#69 = AXIS2_PLACEMENT_3D ( 'NONE', #54, #35, #114 ) ;
#70 = VERTEX_POINT ( 'NONE', #147 ) ;
#71 = EDGE_CURVE ( 'NONE', #221, #70, #2, .T. ) ;
#72 = PLANE ( 'NONE',  #5 ) ;
#73 = ORIENTED_EDGE ( 'NONE', *, *, #136, .F. ) ;
#74 = CIRCLE ( 'NONE', #171, 7.500000000000000000 ) ;
#75 = DIRECTION ( 'NONE',  ( 0.000000000000000000, 0.000000000000000000, 1.000000000000000000 ) ) ;
#76 = CARTESIAN_POINT ( 'NONE',  ( 0.000000000000000000, 0.000000000000000000, 0.000000000000000000 ) ) ;
#77 = VECTOR ( 'NONE', #167, 1000.000000000000000 ) ;
#78 = DIRECTION ( 'NONE',  ( 0.000000000000000000, 0.000000000000000000, 1.000000000000000000 ) ) ;
#79 = VERTEX_POINT ( 'NONE', #112 ) ;
#80 = DATE_AND_TIME ( #123, #206 ) ;
#81 = SECURITY_CLASSIFICATION ( '', '', #161 ) ;
#82 = PERSON_AND_ORGANIZATION_ROLE ( 'design_supplier' ) ;
#83 = EDGE_CURVE ( 'NONE', #79, #159, #110, .T. ) ;
#84 = DATE_TIME_ROLE ( 'creation_date' ) ;
#85 = MANIFOLD_SOLID_BREP ( 'º¸½º-µ¹Ãâ1', #126 ) ;
#86 = ORIENTED_EDGE ( 'NONE', *, *, #8, .F. ) ;
#87 = ORIENTED_EDGE ( 'NONE', *, *, #151, .F. ) ;
#88 = LOCAL_TIME ( 23, 15, 43.00000000000000000, #3 ) ;
#89 = PERSON_AND_ORGANIZATION_ROLE ( 'creator' ) ;
#90 = CIRCLE ( 'NONE', #168, 7.500000000000000000 ) ;
#91 = CARTESIAN_POINT ( 'NONE',  ( -7.500000000000000000, 0.000000000000000000, 1.000000000000000000 ) ) ;
#92 = FACE_BOUND ( 'NONE', #222, .T. ) ;
#93 = ORIENTED_EDGE ( 'NONE', *, *, #83, .F. ) ;
#94 = APPLICATION_PROTOCOL_DEFINITION ( 'international standard', 'config_control_design', 1994, #108 ) ;
#95 = CIRCLE ( 'NONE', #32, 7.500000000000000000 ) ;
#96 = CARTESIAN_POINT ( 'NONE',  ( 0.000000000000000000, 0.000000000000000000, 1.000000000000000000 ) ) ;
#97 = ADVANCED_FACE ( 'NONE', ( #26, #237 ), #27, .T. ) ;
#98 = LOCAL_TIME ( 23, 15, 43.00000000000000000, #64 ) ;
#99 = CARTESIAN_POINT ( 'NONE',  ( 7.500000000000000000, 9.184850993605147944E-16, 1.000000000000000000 ) ) ;
#100 = PRODUCT ( '¿Í¼Å m4 ´ëÇü', '¿Í¼Å m4 ´ëÇü', '', ( #133 ) ) ;
#101 = AXIS2_PLACEMENT_3D ( 'NONE', #242, #75, #52 ) ;
#102 = DATE_AND_TIME ( #194, #152 ) ;
#103 = CARTESIAN_POINT ( 'NONE',  ( 0.000000000000000000, 0.000000000000000000, 0.000000000000000000 ) ) ;
#104 = DATE_AND_TIME ( #235, #88 ) ;
#105 = DIRECTION ( 'NONE',  ( 0.000000000000000000, 0.000000000000000000, 1.000000000000000000 ) ) ;
#106 = CC_DESIGN_PERSON_AND_ORGANIZATION_ASSIGNMENT ( #62, #142, ( #100 ) ) ;
#107 = CIRCLE ( 'NONE', #135, 2.000000000000000000 ) ;
#108 = APPLICATION_CONTEXT ( 'configuration controlled 3d designs of mechanical parts and assemblies' ) ;
#109 = DIRECTION ( 'NONE',  ( 1.000000000000000000, 0.000000000000000000, -0.000000000000000000 ) ) ;
#110 = CIRCLE ( 'NONE', #36, 7.500000000000000000 ) ;
#111 = ORIENTED_EDGE ( 'NONE', *, *, #176, .F. ) ;
#112 = CARTESIAN_POINT ( 'NONE',  ( -7.500000000000000000, 0.000000000000000000, 1.000000000000000000 ) ) ;
#113 = DIRECTION ( 'NONE',  ( 1.000000000000000000, 0.000000000000000000, 0.000000000000000000 ) ) ;
#114 = DIRECTION ( 'NONE',  ( -1.000000000000000000, 0.000000000000000000, 0.000000000000000000 ) ) ;
#115 = ADVANCED_FACE ( 'NONE', ( #65 ), #217, .F. ) ;
#116 = DIRECTION ( 'NONE',  ( -1.000000000000000000, 0.000000000000000000, 0.000000000000000000 ) ) ;
#117 = APPLICATION_CONTEXT ( 'configuration controlled 3d designs of mechanical parts and assemblies' ) ;
#118 = ADVANCED_FACE ( 'NONE', ( #187, #92 ), #72, .F. ) ;
#119 = CALENDAR_DATE ( 2024, 26, 9 ) ;
#120 = APPROVAL_ROLE ( '' ) ;
#121 = ORIENTED_EDGE ( 'NONE', *, *, #151, .T. ) ;
#122 = AXIS2_PLACEMENT_3D ( 'NONE', #128, #201, #124 ) ;
#123 = CALENDAR_DATE ( 2024, 26, 9 ) ;
#124 = DIRECTION ( 'NONE',  ( -1.000000000000000000, 0.000000000000000000, 0.000000000000000000 ) ) ;
#125 = PERSON_AND_ORGANIZATION ( #148, #249 ) ;
#126 = CLOSED_SHELL ( 'NONE', ( #115, #230, #97, #118, #236, #22 ) ) ;
#127 = PRODUCT_DEFINITION ( 'UNKNOWN', '', #45, #210 ) ;
#128 = CARTESIAN_POINT ( 'NONE',  ( 0.000000000000000000, 0.000000000000000000, 1.000000000000000000 ) ) ;
#129 = ORIENTED_EDGE ( 'NONE', *, *, #71, .F. ) ;
#130 = ORIENTED_EDGE ( 'NONE', *, *, #53, .T. ) ;
#131 = CC_DESIGN_DATE_AND_TIME_ASSIGNMENT ( #141, #195, ( #81 ) ) ;
#132 = CARTESIAN_POINT ( 'NONE',  ( 7.500000000000000000, 9.184850993605147944E-16, 0.000000000000000000 ) ) ;
#133 = MECHANICAL_CONTEXT ( 'NONE', #108, 'mechanical' ) ;
#134 =( NAMED_UNIT ( * ) SI_UNIT ( $, .STERADIAN. ) SOLID_ANGLE_UNIT ( ) );
#135 = AXIS2_PLACEMENT_3D ( 'NONE', #15, #204, #113 ) ;
#136 = EDGE_CURVE ( 'NONE', #221, #143, #9, .T. ) ;
#137 = CARTESIAN_POINT ( 'NONE',  ( 2.000000000000000000, 2.449293598294706414E-16, 0.000000000000000000 ) ) ;
#138 = EDGE_LOOP ( 'NONE', ( #111, #93, #130, #232 ) ) ;
#139 = DIRECTION ( 'NONE',  ( 0.000000000000000000, 0.000000000000000000, 1.000000000000000000 ) ) ;
#140 = COORDINATED_UNIVERSAL_TIME_OFFSET ( 9, 0, .AHEAD. ) ;
#141 = DATE_AND_TIME ( #119, #244 ) ;
#142 = PERSON_AND_ORGANIZATION_ROLE ( 'design_owner' ) ;
#143 = VERTEX_POINT ( 'NONE', #154 ) ;
#144 = APPROVAL_PERSON_ORGANIZATION ( #182, #38, #211 ) ;
#145 = EDGE_CURVE ( 'NONE', #163, #150, #90, .T. ) ;
#146 = APPROVAL ( #21, 'UNSPECIFIED' ) ;
#147 = CARTESIAN_POINT ( 'NONE',  ( -2.000000000000000000, 0.000000000000000000, 0.000000000000000000 ) ) ;
#148 = PERSON ( 'UNSPECIFIED', 'UNSPECIFIED', 'UNSPECIFIED', ('UNSPECIFIED'), ('UNSPECIFIED'), ('UNSPECIFIED') ) ;
#149 = EDGE_LOOP ( 'NONE', ( #240, #215 ) ) ;
#150 = VERTEX_POINT ( 'NONE', #132 ) ;
#151 = EDGE_CURVE ( 'NONE', #143, #221, #192, .T. ) ;
#152 = LOCAL_TIME ( 23, 15, 43.00000000000000000, #140 ) ;
#153 = DIRECTION ( 'NONE',  ( -0.000000000000000000, -0.000000000000000000, -1.000000000000000000 ) ) ;
#154 = CARTESIAN_POINT ( 'NONE',  ( 2.000000000000000000, 2.449293598294706414E-16, 1.000000000000000000 ) ) ;
#155 = CARTESIAN_POINT ( 'NONE',  ( 0.000000000000000000, 0.000000000000000000, 1.000000000000000000 ) ) ;
#156 = LINE ( 'NONE', #177, #61 ) ;
#157 = CYLINDRICAL_SURFACE ( 'NONE', #162, 7.500000000000000000 ) ;
#158 = DIRECTION ( 'NONE',  ( -0.000000000000000000, -0.000000000000000000, -1.000000000000000000 ) ) ;
#159 = VERTEX_POINT ( 'NONE', #29 ) ;
#160 = CC_DESIGN_DATE_AND_TIME_ASSIGNMENT ( #102, #84, ( #127 ) ) ;
#161 = SECURITY_CLASSIFICATION_LEVEL ( 'unclassified' ) ;
#162 = AXIS2_PLACEMENT_3D ( 'NONE', #13, #34, #116 ) ;
#163 = VERTEX_POINT ( 'NONE', #205 ) ;
#164 = PERSON_AND_ORGANIZATION ( #148, #249 ) ;
#165 = EDGE_CURVE ( 'NONE', #143, #179, #156, .T. ) ;
#166 = ORIENTED_EDGE ( 'NONE', *, *, #71, .T. ) ;
#167 = DIRECTION ( 'NONE',  ( -0.000000000000000000, -0.000000000000000000, -1.000000000000000000 ) ) ;
#168 = AXIS2_PLACEMENT_3D ( 'NONE', #76, #139, #225 ) ;
#169 = APPROVAL_STATUS ( 'not_yet_approved' ) ;
#170 = CIRCLE ( 'NONE', #19, 2.000000000000000000 ) ;
#171 = AXIS2_PLACEMENT_3D ( 'NONE', #155, #178, #226 ) ;
#172 = ORIENTED_EDGE ( 'NONE', *, *, #8, .T. ) ;
#173 = ORIENTED_EDGE ( 'NONE', *, *, #193, .F. ) ;
#174 = ORIENTED_EDGE ( 'NONE', *, *, #176, .T. ) ;
#175 = AXIS2_PLACEMENT_3D ( 'NONE', #96, #207, #191 ) ;
#176 = EDGE_CURVE ( 'NONE', #159, #150, #56, .T. ) ;
#177 = CARTESIAN_POINT ( 'NONE',  ( 2.000000000000000000, 2.449293598294706414E-16, 1.000000000000000000 ) ) ;
#178 = DIRECTION ( 'NONE',  ( 0.000000000000000000, 0.000000000000000000, 1.000000000000000000 ) ) ;
#179 = VERTEX_POINT ( 'NONE', #137 ) ;
#180 = FACE_OUTER_BOUND ( 'NONE', #238, .T. ) ;
#181 = CC_DESIGN_PERSON_AND_ORGANIZATION_ASSIGNMENT ( #125, #183, ( #81 ) ) ;
#182 = PERSON_AND_ORGANIZATION ( #148, #249 ) ;
#183 = PERSON_AND_ORGANIZATION_ROLE ( 'classification_officer' ) ;
#184 = DIRECTION ( 'NONE',  ( 0.000000000000000000, 0.000000000000000000, 1.000000000000000000 ) ) ;
#185 = DIRECTION ( 'NONE',  ( 0.000000000000000000, 0.000000000000000000, 1.000000000000000000 ) ) ;
#186 = CC_DESIGN_APPROVAL ( #38, ( #81 ) ) ;
#187 = FACE_OUTER_BOUND ( 'NONE', #7, .T. ) ;
#188 = CARTESIAN_POINT ( 'NONE',  ( 0.000000000000000000, 0.000000000000000000, 1.000000000000000000 ) ) ;
#189 = CARTESIAN_POINT ( 'NONE',  ( 0.000000000000000000, 0.000000000000000000, 1.000000000000000000 ) ) ;
#190 = APPROVAL_PERSON_ORGANIZATION ( #248, #146, #120 ) ;
#191 = DIRECTION ( 'NONE',  ( 1.000000000000000000, 0.000000000000000000, 0.000000000000000000 ) ) ;
#192 = CIRCLE ( 'NONE', #175, 2.000000000000000000 ) ;
#193 = EDGE_CURVE ( 'NONE', #179, #70, #107, .T. ) ;
#194 = CALENDAR_DATE ( 2024, 26, 9 ) ;
#195 = DATE_TIME_ROLE ( 'classification_date' ) ;
#196 = CC_DESIGN_SECURITY_CLASSIFICATION ( #81, ( #45 ) ) ;
#197 = ORIENTED_EDGE ( 'NONE', *, *, #136, .T. ) ;
#198 = CARTESIAN_POINT ( 'NONE',  ( 0.000000000000000000, 0.000000000000000000, 0.000000000000000000 ) ) ;
#199 = PERSON_AND_ORGANIZATION ( #148, #249 ) ;
#200 = PRODUCT_RELATED_PRODUCT_CATEGORY ( 'detail', '', ( #100 ) ) ;
#201 = DIRECTION ( 'NONE',  ( -0.000000000000000000, -0.000000000000000000, -1.000000000000000000 ) ) ;
#202 = LINE ( 'NONE', #91, #66 ) ;
#203 = CYLINDRICAL_SURFACE ( 'NONE', #50, 2.000000000000000000 ) ;
#204 = DIRECTION ( 'NONE',  ( 0.000000000000000000, 0.000000000000000000, 1.000000000000000000 ) ) ;
#205 = CARTESIAN_POINT ( 'NONE',  ( -7.500000000000000000, 0.000000000000000000, 0.000000000000000000 ) ) ;
#206 = LOCAL_TIME ( 23, 15, 43.00000000000000000, #216 ) ;
#207 = DIRECTION ( 'NONE',  ( 0.000000000000000000, 0.000000000000000000, 1.000000000000000000 ) ) ;
#208 = DIRECTION ( 'NONE',  ( 0.000000000000000000, 0.000000000000000000, 1.000000000000000000 ) ) ;
#209 = FACE_OUTER_BOUND ( 'NONE', #138, .T. ) ;
#210 = DESIGN_CONTEXT ( 'detailed design', #117, 'design' ) ;
#211 = APPROVAL_ROLE ( '' ) ;
#212 = APPROVAL_PERSON_ORGANIZATION ( #164, #25, #229 ) ;
#213 = EDGE_CURVE ( 'NONE', #159, #79, #74, .T. ) ;
#214 = APPROVAL_STATUS ( 'not_yet_approved' ) ;
#215 = ORIENTED_EDGE ( 'NONE', *, *, #213, .T. ) ;
#216 = COORDINATED_UNIVERSAL_TIME_OFFSET ( 9, 0, .AHEAD. ) ;
#217 = CYLINDRICAL_SURFACE ( 'NONE', #122, 2.000000000000000000 ) ;
#218 = CC_DESIGN_PERSON_AND_ORGANIZATION_ASSIGNMENT ( #37, #82, ( #45 ) ) ;
#219 = AXIS2_PLACEMENT_3D ( 'NONE', #58, #208, #30 ) ;
#220 = DIRECTION ( 'NONE',  ( 1.000000000000000000, 0.000000000000000000, 0.000000000000000000 ) ) ;
#221 = VERTEX_POINT ( 'NONE', #10 ) ;
#222 = EDGE_LOOP ( 'NONE', ( #172, #47 ) ) ;
#223 = CC_DESIGN_APPROVAL ( #25, ( #127 ) ) ;
#224 = DIRECTION ( 'NONE',  ( -1.000000000000000000, 0.000000000000000000, 0.000000000000000000 ) ) ;
#225 = DIRECTION ( 'NONE',  ( 1.000000000000000000, 0.000000000000000000, 0.000000000000000000 ) ) ;
#226 = DIRECTION ( 'NONE',  ( 1.000000000000000000, 0.000000000000000000, 0.000000000000000000 ) ) ;
#227 = DIRECTION ( 'NONE',  ( 1.000000000000000000, 0.000000000000000000, -0.000000000000000000 ) ) ;
#228 =( NAMED_UNIT ( * ) PLANE_ANGLE_UNIT ( ) SI_UNIT ( $, .RADIAN. ) );
#229 = APPROVAL_ROLE ( '' ) ;
#230 = ADVANCED_FACE ( 'NONE', ( #180 ), #157, .T. ) ;
#231 = AXIS2_PLACEMENT_3D ( 'NONE', #188, #6, #109 ) ;
#232 = ORIENTED_EDGE ( 'NONE', *, *, #145, .T. ) ;
#233 = CALENDAR_DATE ( 2024, 26, 9 ) ;
#234 = DIRECTION ( 'NONE',  ( -0.000000000000000000, -0.000000000000000000, -1.000000000000000000 ) ) ;
#235 = CALENDAR_DATE ( 2024, 26, 9 ) ;
#236 = ADVANCED_FACE ( 'NONE', ( #209 ), #33, .T. ) ;
#237 = FACE_BOUND ( 'NONE', #247, .T. ) ;
#238 = EDGE_LOOP ( 'NONE', ( #239, #174, #42, #12 ) ) ;
#239 = ORIENTED_EDGE ( 'NONE', *, *, #213, .F. ) ;
#240 = ORIENTED_EDGE ( 'NONE', *, *, #83, .T. ) ;
#241 = VECTOR ( 'NONE', #158, 1000.000000000000000 ) ;
#242 = CARTESIAN_POINT ( 'NONE',  ( 0.000000000000000000, 0.000000000000000000, 0.000000000000000000 ) ) ;
#243 = CARTESIAN_POINT ( 'NONE',  ( 0.000000000000000000, 0.000000000000000000, 0.000000000000000000 ) ) ;
#244 = LOCAL_TIME ( 23, 15, 43.00000000000000000, #18 ) ;
#245 = UNCERTAINTY_MEASURE_WITH_UNIT (LENGTH_MEASURE( 1.000000000000000082E-05 ), #246, 'distance_accuracy_value', 'NONE');
#246 =( LENGTH_UNIT ( ) NAMED_UNIT ( * ) SI_UNIT ( .MILLI., .METRE. ) );
#247 = EDGE_LOOP ( 'NONE', ( #73, #87 ) ) ;
#248 = PERSON_AND_ORGANIZATION ( #148, #249 ) ;
#249 = ORGANIZATION ( 'UNSPECIFIED', 'UNSPECIFIED', '' ) ;
ENDSEC;
END-ISO-10303-21;
