ISO-10303-21;
HEADER;
FILE_DESCRIPTION (( 'STEP AP203' ),
    '1' );
FILE_NAME ('¿∞∞¢∫º∆Æ m5 30.STEP',
    '2024-09-26T14:15:07',
    ( '' ),
    ( '' ),
    'SwSTEP 2.0',
    'SolidWorks 2022',
    '' );
FILE_SCHEMA (( 'CONFIG_CONTROL_DESIGN' ));
ENDSEC;

DATA;
#1 = FACE_OUTER_BOUND ( 'NONE', #54, .T. ) ;
#2 = CC_DESIGN_PERSON_AND_ORGANIZATION_ASSIGNMENT ( #159, #9, ( #228 ) ) ;
#3 = DIRECTION ( 'NONE',  ( 0.8660254037844387076, -0.4999999999999999445, 0.000000000000000000 ) ) ;
#4 = VERTEX_POINT ( 'NONE', #266 ) ;
#5 = APPROVAL_PERSON_ORGANIZATION ( #39, #357, #277 ) ;
#6 = PLANE ( 'NONE',  #263 ) ;
#7 = ORIENTED_EDGE ( 'NONE', *, *, #281, .T. ) ;
#8 = ORIENTED_EDGE ( 'NONE', *, *, #21, .T. ) ;
#9 = PERSON_AND_ORGANIZATION_ROLE ( 'classification_officer' ) ;
#10 = ORIENTED_EDGE ( 'NONE', *, *, #166, .T. ) ;
#11 = DATE_AND_TIME ( #188, #51 ) ;
#12 = CIRCLE ( 'NONE', #106, 2.500000000000000000 ) ;
#13 = CARTESIAN_POINT ( 'NONE',  ( 4.618802153517005848, 8.673617379884035472E-16, 3.500000000000000000 ) ) ;
#14 = EDGE_CURVE ( 'NONE', #187, #50, #63, .T. ) ;
#15 = PERSON_AND_ORGANIZATION ( #209, #95 ) ;
#16 = PLANE ( 'NONE',  #333 ) ;
#17 = CARTESIAN_POINT ( 'NONE',  ( 2.309401076758504257, -4.000000000000002665, 0.000000000000000000 ) ) ;
#18 = VECTOR ( 'NONE', #103, 1000.000000000000000 ) ;
#19 = FACE_OUTER_BOUND ( 'NONE', #318, .T. ) ;
#21 = EDGE_CURVE ( 'NONE', #207, #303, #242, .T. ) ;
#20 = DIRECTION ( 'NONE',  ( 0.000000000000000000, 0.000000000000000000, 1.000000000000000000 ) ) ;
#22 = CARTESIAN_POINT ( 'NONE',  ( 3.464101615137753054, 2.000000000000000888, 0.000000000000000000 ) ) ;
#23 = ORIENTED_EDGE ( 'NONE', *, *, #111, .T. ) ;
#24 = ORIENTED_EDGE ( 'NONE', *, *, #55, .T. ) ;
#25 = AXIS2_PLACEMENT_3D ( 'NONE', #31, #152, #247 ) ;
#26 = EDGE_CURVE ( 'NONE', #303, #53, #335, .T. ) ;
#27 = ORIENTED_EDGE ( 'NONE', *, *, #55, .F. ) ;
#28 = PLANE ( 'NONE',  #282 ) ;
#29 = EDGE_LOOP ( 'NONE', ( #347, #295, #173, #36 ) ) ;
#30 = CARTESIAN_POINT ( 'NONE',  ( 2.500000000000000000, 0.000000000000000000, -30.00000000000000000 ) ) ;
#31 = CARTESIAN_POINT ( 'NONE',  ( 0.000000000000000000, 0.000000000000000000, 0.000000000000000000 ) ) ;
#32 = AXIS2_PLACEMENT_3D ( 'NONE', #252, #138, #376 ) ;
#33 = CARTESIAN_POINT ( 'NONE',  ( -2.309401076758504257, 4.000000000000002665, 3.500000000000000000 ) ) ;
#34 = PERSON_AND_ORGANIZATION_ROLE ( 'creator' ) ;
#35 = PRODUCT_DEFINITION ( 'UNKNOWN', '', #267, #323 ) ;
#36 = ORIENTED_EDGE ( 'NONE', *, *, #90, .T. ) ;
#38 = EDGE_CURVE ( 'NONE', #201, #56, #184, .T. ) ;
#37 = ORIENTED_EDGE ( 'NONE', *, *, #38, .T. ) ;
#39 = PERSON_AND_ORGANIZATION ( #209, #95 ) ;
#40 = LINE ( 'NONE', #76, #343 ) ;
#41 = CALENDAR_DATE ( 2024, 26, 9 ) ;
#42 = DIRECTION ( 'NONE',  ( 1.000000000000000000, 0.000000000000000000, 0.000000000000000000 ) ) ;
#43 = CARTESIAN_POINT ( 'NONE',  ( 4.618802153517005848, 8.673617379884035472E-16, 3.500000000000000000 ) ) ;
#44 = CC_DESIGN_SECURITY_CLASSIFICATION ( #228, ( #267 ) ) ;
#45 = CARTESIAN_POINT ( 'NONE',  ( 0.000000000000000000, 0.000000000000000000, 0.000000000000000000 ) ) ;
#46 = CC_DESIGN_PERSON_AND_ORGANIZATION_ASSIGNMENT ( #15, #157, ( #35 ) ) ;
#47 = LINE ( 'NONE', #139, #182 ) ;
#48 = DIRECTION ( 'NONE',  ( 0.5000000000000001110, -0.8660254037844385966, 0.000000000000000000 ) ) ;
#49 = ADVANCED_FACE ( 'NONE', ( #1 ), #270, .T. ) ;
#50 = VERTEX_POINT ( 'NONE', #301 ) ;
#51 = LOCAL_TIME ( 23, 15, 7.000000000000000000, #337 ) ;
#52 = DIRECTION ( 'NONE',  ( -0.000000000000000000, -0.000000000000000000, -1.000000000000000000 ) ) ;
#53 = VERTEX_POINT ( 'NONE', #33 ) ;
#54 = EDGE_LOOP ( 'NONE', ( #321, #360, #23, #351 ) ) ;
#55 = EDGE_CURVE ( 'NONE', #4, #291, #272, .T. ) ;
#56 = VERTEX_POINT ( 'NONE', #122 ) ;
#57 = ORIENTED_EDGE ( 'NONE', *, *, #258, .T. ) ;
#58 = LINE ( 'NONE', #328, #117 ) ;
#59 = EDGE_LOOP ( 'NONE', ( #144, #146, #305, #349 ) ) ;
#60 = ADVANCED_FACE ( 'NONE', ( #214 ), #239, .T. ) ;
#61 = DIRECTION ( 'NONE',  ( 0.000000000000000000, 0.000000000000000000, 1.000000000000000000 ) ) ;
#62 = VECTOR ( 'NONE', #48, 1000.000000000000000 ) ;
#63 = LINE ( 'NONE', #126, #71 ) ;
#64 = AXIS2_PLACEMENT_3D ( 'NONE', #334, #65, #110 ) ;
#65 = DIRECTION ( 'NONE',  ( -0.000000000000000000, 0.000000000000000000, 1.000000000000000000 ) ) ;
#66 = CARTESIAN_POINT ( 'NONE',  ( 0.000000000000000000, 4.000000000000002665, 3.500000000000000000 ) ) ;
#67 = CALENDAR_DATE ( 2024, 26, 9 ) ;
#68 = DIRECTION ( 'NONE',  ( 1.000000000000000000, 0.000000000000000000, 0.000000000000000000 ) ) ;
#69 = VECTOR ( 'NONE', #356, 1000.000000000000000 ) ;
#70 = PERSON_AND_ORGANIZATION ( #209, #95 ) ;
#71 = VECTOR ( 'NONE', #186, 1000.000000000000000 ) ;
#72 = CARTESIAN_POINT ( 'NONE',  ( 3.464101615137753054, 2.000000000000000888, 3.500000000000000000 ) ) ;
#73 = DIRECTION ( 'NONE',  ( -1.000000000000000000, 0.000000000000000000, 0.000000000000000000 ) ) ;
#74 = CARTESIAN_POINT ( 'NONE',  ( -7.511572993685799101E-16, -4.000000000000001776, 3.500000000000000000 ) ) ;
#75 = VECTOR ( 'NONE', #298, 1000.000000000000000 ) ;
#76 = CARTESIAN_POINT ( 'NONE',  ( -2.309401076758504257, 4.000000000000002665, 3.500000000000000000 ) ) ;
#77 = PRODUCT_DEFINITION_SHAPE ( 'NONE', 'NONE',  #35 ) ;
#78 = EDGE_CURVE ( 'NONE', #211, #293, #12, .T. ) ;
#79 = CARTESIAN_POINT ( 'NONE',  ( 2.309401076758499816, 4.000000000000001776, 3.500000000000000000 ) ) ;
#80 = VERTEX_POINT ( 'NONE', #368 ) ;
#81 = LINE ( 'NONE', #83, #145 ) ;
#82 = PRODUCT ( '¿∞∞¢∫º∆Æ m5 30', '¿∞∞¢∫º∆Æ m5 30', '', ( #129 ) ) ;
#83 = CARTESIAN_POINT ( 'NONE',  ( 2.309401076758504257, -4.000000000000002665, 3.500000000000000000 ) ) ;
#84 = CLOSED_SHELL ( 'NONE', ( #118, #86, #140, #171, #136, #244, #327, #60, #176, #49, #226 ) ) ;
#85 = ORIENTED_EDGE ( 'NONE', *, *, #217, .T. ) ;
#86 = ADVANCED_FACE ( 'NONE', ( #309 ), #284, .F. ) ;
#87 = EDGE_LOOP ( 'NONE', ( #57, #232, #274, #10 ) ) ;
#88 = AXIS2_PLACEMENT_3D ( 'NONE', #74, #190, #163 ) ;
#89 = DIRECTION ( 'NONE',  ( 0.000000000000000000, 0.000000000000000000, 1.000000000000000000 ) ) ;
#90 = EDGE_CURVE ( 'NONE', #53, #329, #40, .T. ) ;
#91 = VERTEX_POINT ( 'NONE', #162 ) ;
#92 = LINE ( 'NONE', #79, #299 ) ;
#93 = EDGE_LOOP ( 'NONE', ( #326, #177, #8, #149, #130, #262 ) ) ;
#94 = APPROVAL_STATUS ( 'not_yet_approved' ) ;
#95 = ORGANIZATION ( 'UNSPECIFIED', 'UNSPECIFIED', '' ) ;
#96 = ORIENTED_EDGE ( 'NONE', *, *, #14, .T. ) ;
#97 = COORDINATED_UNIVERSAL_TIME_OFFSET ( 9, 0, .AHEAD. ) ;
#98 = CARTESIAN_POINT ( 'NONE',  ( 3.464101615137753054, 2.000000000000000888, 3.500000000000000000 ) ) ;
#99 = EDGE_CURVE ( 'NONE', #205, #4, #195, .T. ) ;
#100 = PERSON_AND_ORGANIZATION ( #209, #95 ) ;
#101 = DIRECTION ( 'NONE',  ( -0.000000000000000000, 0.000000000000000000, 1.000000000000000000 ) ) ;
#102 = PERSON_AND_ORGANIZATION_ROLE ( 'design_supplier' ) ;
#103 = DIRECTION ( 'NONE',  ( -0.000000000000000000, -0.000000000000000000, -1.000000000000000000 ) ) ;
#104 = APPROVAL_PERSON_ORGANIZATION ( #105, #344, #253 ) ;
#105 = PERSON_AND_ORGANIZATION ( #209, #95 ) ;
#106 = AXIS2_PLACEMENT_3D ( 'NONE', #250, #341, #68 ) ;
#108 = FACE_OUTER_BOUND ( 'NONE', #153, .T. ) ;
#107 = CC_DESIGN_PERSON_AND_ORGANIZATION_ASSIGNMENT ( #181, #154, ( #82 ) ) ;
#109 = FACE_OUTER_BOUND ( 'NONE', #289, .T. ) ;
#110 = DIRECTION ( 'NONE',  ( 1.000000000000000000, 0.000000000000000000, 0.000000000000000000 ) ) ;
#111 = EDGE_CURVE ( 'NONE', #293, #56, #47, .T. ) ;
#112 = DIRECTION ( 'NONE',  ( 0.4999999999999999445, 0.8660254037844387076, 0.000000000000000000 ) ) ;
#113 = CC_DESIGN_PERSON_AND_ORGANIZATION_ASSIGNMENT ( #302, #34, ( #267 ) ) ;
#114 = LINE ( 'NONE', #22, #283 ) ;
#115 = ORIENTED_EDGE ( 'NONE', *, *, #363, .T. ) ;
#116 = ORIENTED_EDGE ( 'NONE', *, *, #304, .F. ) ;
#117 = VECTOR ( 'NONE', #127, 1000.000000000000000 ) ;
#118 = ADVANCED_FACE ( 'NONE', ( #218 ), #160, .T. ) ;
#119 = ORIENTED_EDGE ( 'NONE', *, *, #123, .T. ) ;
#120 = EDGE_LOOP ( 'NONE', ( #24, #358, #116, #168 ) ) ;
#121 = APPROVAL ( #94, 'UNSPECIFIED' ) ;
#122 = CARTESIAN_POINT ( 'NONE',  ( 2.500000000000000000, 0.000000000000000000, 0.000000000000000000 ) ) ;
#123 = EDGE_CURVE ( 'NONE', #56, #201, #191, .T. ) ;
#124 = DIRECTION ( 'NONE',  ( -0.000000000000000000, -0.000000000000000000, -1.000000000000000000 ) ) ;
#125 = AXIS2_PLACEMENT_3D ( 'NONE', #311, #285, #42 ) ;
#126 = CARTESIAN_POINT ( 'NONE',  ( 3.464101615137756607, -1.999999999999998668, 0.000000000000000000 ) ) ;
#127 = DIRECTION ( 'NONE',  ( 1.000000000000000000, -1.877893248421448789E-16, 0.000000000000000000 ) ) ;
#128 = DIRECTION ( 'NONE',  ( 0.000000000000000000, 0.000000000000000000, 1.000000000000000000 ) ) ;
#129 = MECHANICAL_CONTEXT ( 'NONE', #352, 'mechanical' ) ;
#130 = ORIENTED_EDGE ( 'NONE', *, *, #287, .T. ) ;
#131 = COORDINATED_UNIVERSAL_TIME_OFFSET ( 9, 0, .AHEAD. ) ;
#132 = ORIENTED_EDGE ( 'NONE', *, *, #258, .F. ) ;
#133 = APPROVAL_DATE_TIME ( #215, #357 ) ;
#134 = PLANE ( 'NONE',  #374 ) ;
#135 = CARTESIAN_POINT ( 'NONE',  ( 3.464101615137756607, -1.999999999999998668, 3.500000000000000000 ) ) ;
#136 = ADVANCED_FACE ( 'NONE', ( #19 ), #16, .F. ) ;
#137 = CARTESIAN_POINT ( 'NONE',  ( -2.500000000000000000, 3.061616997868383141E-16, 0.000000000000000000 ) ) ;
#138 = DIRECTION ( 'NONE',  ( -0.000000000000000000, 0.000000000000000000, 1.000000000000000000 ) ) ;
#139 = CARTESIAN_POINT ( 'NONE',  ( 2.500000000000000000, 0.000000000000000000, -30.00000000000000000 ) ) ;
#140 = ADVANCED_FACE ( 'NONE', ( #109 ), #134, .F. ) ;
#141 = VECTOR ( 'NONE', #196, 1000.000000000000000 ) ;
#142 = CARTESIAN_POINT ( 'NONE',  ( -7.511572993685799101E-16, -4.000000000000001776, 3.500000000000000000 ) ) ;
#143 = CARTESIAN_POINT ( 'NONE',  ( -3.464101615137756163, -2.000000000000001332, 3.500000000000000000 ) ) ;
#144 = ORIENTED_EDGE ( 'NONE', *, *, #155, .T. ) ;
#145 = VECTOR ( 'NONE', #380, 1000.000000000000000 ) ;
#146 = ORIENTED_EDGE ( 'NONE', *, *, #264, .T. ) ;
#147 = ORIENTED_EDGE ( 'NONE', *, *, #155, .F. ) ;
#148 = PLANE ( 'NONE',  #338 ) ;
#149 = ORIENTED_EDGE ( 'NONE', *, *, #26, .T. ) ;
#150 = CARTESIAN_POINT ( 'NONE',  ( 2.309401076758499816, 4.000000000000001776, 3.500000000000000000 ) ) ;
#151 =( GEOMETRIC_REPRESENTATION_CONTEXT ( 3 ) GLOBAL_UNCERTAINTY_ASSIGNED_CONTEXT ( ( #233 ) ) GLOBAL_UNIT_ASSIGNED_CONTEXT ( ( #330, #319, #261 ) ) REPRESENTATION_CONTEXT ( 'NONE', 'WORKASPACE' ) );
#152 = DIRECTION ( 'NONE',  ( -0.000000000000000000, 0.000000000000000000, 1.000000000000000000 ) ) ;
#153 = EDGE_LOOP ( 'NONE', ( #156, #27, #198, #324, #132, #249 ) ) ;
#154 = PERSON_AND_ORGANIZATION_ROLE ( 'design_owner' ) ;
#155 = EDGE_CURVE ( 'NONE', #293, #211, #202, .T. ) ;
#156 = ORIENTED_EDGE ( 'NONE', *, *, #363, .F. ) ;
#157 = PERSON_AND_ORGANIZATION_ROLE ( 'creator' ) ;
#158 = CARTESIAN_POINT ( 'NONE',  ( -3.464101615137756163, -2.000000000000001332, 0.000000000000000000 ) ) ;
#159 = PERSON_AND_ORGANIZATION ( #209, #95 ) ;
#160 = CYLINDRICAL_SURFACE ( 'NONE', #222, 2.500000000000000000 ) ;
#161 = CALENDAR_DATE ( 2024, 26, 9 ) ;
#162 = CARTESIAN_POINT ( 'NONE',  ( -2.309401076758504257, -4.000000000000001776, 3.500000000000000000 ) ) ;
#163 = DIRECTION ( 'NONE',  ( -1.000000000000000000, 1.877893248421448789E-16, 0.000000000000000000 ) ) ;
#164 = DIRECTION ( 'NONE',  ( -0.000000000000000000, -0.000000000000000000, -1.000000000000000000 ) ) ;
#166 = EDGE_CURVE ( 'NONE', #207, #50, #371, .T. ) ;
#165 = LINE ( 'NONE', #172, #307 ) ;
#167 = FACE_OUTER_BOUND ( 'NONE', #120, .T. ) ;
#168 = ORIENTED_EDGE ( 'NONE', *, *, #99, .T. ) ;
#169 = CC_DESIGN_APPROVAL ( #344, ( #267 ) ) ;
#170 = DIRECTION ( 'NONE',  ( -0.4999999999999999445, -0.8660254037844387076, 0.000000000000000000 ) ) ;
#171 = ADVANCED_FACE ( 'NONE', ( #221 ), #339, .F. ) ;
#172 = CARTESIAN_POINT ( 'NONE',  ( -3.464101615137757051, 2.000000000000000888, 3.500000000000000000 ) ) ;
#173 = ORIENTED_EDGE ( 'NONE', *, *, #287, .F. ) ;
#174 = ORIENTED_EDGE ( 'NONE', *, *, #369, .F. ) ;
#175 = VECTOR ( 'NONE', #89, 1000.000000000000000 ) ;
#176 = ADVANCED_FACE ( 'NONE', ( #225, #108 ), #315, .F. ) ;
#177 = ORIENTED_EDGE ( 'NONE', *, *, #369, .T. ) ;
#178 = VERTEX_POINT ( 'NONE', #280 ) ;
#179 = CARTESIAN_POINT ( 'NONE',  ( -3.464101615137757051, 2.000000000000000888, 3.500000000000000000 ) ) ;
#180 = ORIENTED_EDGE ( 'NONE', *, *, #281, .F. ) ;
#181 = PERSON_AND_ORGANIZATION ( #209, #95 ) ;
#182 = VECTOR ( 'NONE', #20, 1000.000000000000000 ) ;
#183 = CARTESIAN_POINT ( 'NONE',  ( 0.000000000000000000, 0.000000000000000000, -30.00000000000000000 ) ) ;
#184 = CIRCLE ( 'NONE', #25, 2.500000000000000000 ) ;
#185 = DATE_TIME_ROLE ( 'creation_date' ) ;
#186 = DIRECTION ( 'NONE',  ( 0.4999999999999995559, 0.8660254037844389297, 0.000000000000000000 ) ) ;
#187 = VERTEX_POINT ( 'NONE', #17 ) ;
#188 = CALENDAR_DATE ( 2024, 26, 9 ) ;
#189 = LOCAL_TIME ( 23, 15, 7.000000000000000000, #365 ) ;
#190 = DIRECTION ( 'NONE',  ( 1.877893248421448789E-16, 1.000000000000000000, -0.000000000000000000 ) ) ;
#191 = CIRCLE ( 'NONE', #269, 2.500000000000000000 ) ;
#192 = COORDINATED_UNIVERSAL_TIME_OFFSET ( 9, 0, .AHEAD. ) ;
#193 = DIRECTION ( 'NONE',  ( 0.5000000000000003331, -0.8660254037844383745, 0.000000000000000000 ) ) ;
#194 = CARTESIAN_POINT ( 'NONE',  ( 0.000000000000000000, 0.000000000000000000, -30.00000000000000000 ) ) ;
#195 = LINE ( 'NONE', #316, #141 ) ;
#196 = DIRECTION ( 'NONE',  ( -0.000000000000000000, -0.000000000000000000, -1.000000000000000000 ) ) ;
#197 = CARTESIAN_POINT ( 'NONE',  ( -2.309401076758504257, -4.000000000000001776, 3.500000000000000000 ) ) ;
#198 = ORIENTED_EDGE ( 'NONE', *, *, #378, .F. ) ;
#199 = MANIFOLD_SOLID_BREP ( '∫∏Ω∫-µπ√‚3', #84 ) ;
#200 = LINE ( 'NONE', #197, #240 ) ;
#201 = VERTEX_POINT ( 'NONE', #137 ) ;
#202 = CIRCLE ( 'NONE', #32, 2.500000000000000000 ) ;
#203 = DIRECTION ( 'NONE',  ( -0.5000000000000001110, 0.8660254037844385966, 0.000000000000000000 ) ) ;
#204 = ORIENTED_EDGE ( 'NONE', *, *, #90, .F. ) ;
#205 = VERTEX_POINT ( 'NONE', #254 ) ;
#206 = VECTOR ( 'NONE', #345, 1000.000000000000000 ) ;
#207 = VERTEX_POINT ( 'NONE', #43 ) ;
#208 = LINE ( 'NONE', #142, #206 ) ;
#209 = PERSON ( 'UNSPECIFIED', 'UNSPECIFIED', 'UNSPECIFIED', ('UNSPECIFIED'), ('UNSPECIFIED'), ('UNSPECIFIED') ) ;
#210 = DIRECTION ( 'NONE',  ( -0.5000000000000003331, 0.8660254037844383745, 0.000000000000000000 ) ) ;
#211 = VERTEX_POINT ( 'NONE', #375 ) ;
#212 = DATE_AND_TIME ( #67, #189 ) ;
#213 = CC_DESIGN_APPROVAL ( #357, ( #228 ) ) ;
#214 = FACE_OUTER_BOUND ( 'NONE', #93, .T. ) ;
#215 = DATE_AND_TIME ( #161, #220 ) ;
#216 = EDGE_LOOP ( 'NONE', ( #115, #180, #383, #381 ) ) ;
#217 = EDGE_CURVE ( 'NONE', #80, #329, #224, .T. ) ;
#218 = FACE_OUTER_BOUND ( 'NONE', #59, .T. ) ;
#219 = APPROVAL_STATUS ( 'not_yet_approved' ) ;
#220 = LOCAL_TIME ( 23, 15, 7.000000000000000000, #97 ) ;
#221 = FACE_OUTER_BOUND ( 'NONE', #87, .T. ) ;
#222 = AXIS2_PLACEMENT_3D ( 'NONE', #194, #256, #377 ) ;
#223 = APPLICATION_PROTOCOL_DEFINITION ( 'international standard', 'config_control_design', 1994, #352 ) ;
#224 = LINE ( 'NONE', #340, #236 ) ;
#225 = FACE_BOUND ( 'NONE', #354, .T. ) ;
#226 = ADVANCED_FACE ( 'NONE', ( #359 ), #148, .F. ) ;
#227 = DIRECTION ( 'NONE',  ( -0.4999999999999995559, -0.8660254037844389297, 0.000000000000000000 ) ) ;
#228 = SECURITY_CLASSIFICATION ( '', '', #310 ) ;
#229 = CC_DESIGN_PERSON_AND_ORGANIZATION_ASSIGNMENT ( #70, #102, ( #267 ) ) ;
#230 = LINE ( 'NONE', #286, #62 ) ;
#231 = DIRECTION ( 'NONE',  ( 0.8660254037844385966, 0.5000000000000001110, -0.000000000000000000 ) ) ;
#232 = ORIENTED_EDGE ( 'NONE', *, *, #296, .F. ) ;
#233 = UNCERTAINTY_MEASURE_WITH_UNIT (LENGTH_MEASURE( 1.000000000000000082E-05 ), #330, 'distance_accuracy_value', 'NONE');
#234 = ORIENTED_EDGE ( 'NONE', *, *, #26, .F. ) ;
#235 = VECTOR ( 'NONE', #362, 1000.000000000000000 ) ;
#236 = VECTOR ( 'NONE', #73, 1000.000000000000000 ) ;
#237 = AXIS2_PLACEMENT_3D ( 'NONE', #183, #128, #245 ) ;
#238 = EDGE_LOOP ( 'NONE', ( #147, #366 ) ) ;
#239 = PLANE ( 'NONE',  #64 ) ;
#240 = VECTOR ( 'NONE', #52, 1000.000000000000000 ) ;
#241 = LINE ( 'NONE', #292, #69 ) ;
#242 = LINE ( 'NONE', #98, #350 ) ;
#243 = CARTESIAN_POINT ( 'NONE',  ( -3.464101615137757051, 2.000000000000000888, 0.000000000000000000 ) ) ;
#244 = ADVANCED_FACE ( 'NONE', ( #265 ), #6, .F. ) ;
#245 = DIRECTION ( 'NONE',  ( 1.000000000000000000, 0.000000000000000000, 0.000000000000000000 ) ) ;
#246 = APPLICATION_PROTOCOL_DEFINITION ( 'international standard', 'config_control_design', 1994, #370 ) ;
#247 = DIRECTION ( 'NONE',  ( 1.000000000000000000, 0.000000000000000000, 0.000000000000000000 ) ) ;
#248 = DATE_AND_TIME ( #41, #257 ) ;
#249 = ORIENTED_EDGE ( 'NONE', *, *, #14, .F. ) ;
#250 = CARTESIAN_POINT ( 'NONE',  ( 0.000000000000000000, 0.000000000000000000, -30.00000000000000000 ) ) ;
#251 = DATE_TIME_ROLE ( 'classification_date' ) ;
#252 = CARTESIAN_POINT ( 'NONE',  ( 0.000000000000000000, 0.000000000000000000, -30.00000000000000000 ) ) ;
#253 = APPROVAL_ROLE ( '' ) ;
#254 = CARTESIAN_POINT ( 'NONE',  ( -4.618802153517009401, 0.000000000000000000, 3.500000000000000000 ) ) ;
#255 = DIRECTION ( 'NONE',  ( 0.000000000000000000, -0.000000000000000000, -1.000000000000000000 ) ) ;
#256 = DIRECTION ( 'NONE',  ( 0.000000000000000000, 0.000000000000000000, 1.000000000000000000 ) ) ;
#257 = LOCAL_TIME ( 23, 15, 7.000000000000000000, #131 ) ;
#258 = EDGE_CURVE ( 'NONE', #50, #80, #114, .T. ) ;
#259 = CARTESIAN_POINT ( 'NONE',  ( -2.309401076758504257, -4.000000000000001776, 0.000000000000000000 ) ) ;
#260 = ORIENTED_EDGE ( 'NONE', *, *, #296, .T. ) ;
#261 =( NAMED_UNIT ( * ) SI_UNIT ( $, .STERADIAN. ) SOLID_ANGLE_UNIT ( ) );
#262 = ORIENTED_EDGE ( 'NONE', *, *, #304, .T. ) ;
#263 = AXIS2_PLACEMENT_3D ( 'NONE', #179, #3, #112 ) ;
#264 = EDGE_CURVE ( 'NONE', #211, #201, #297, .T. ) ;
#265 = FACE_OUTER_BOUND ( 'NONE', #29, .T. ) ;
#266 = CARTESIAN_POINT ( 'NONE',  ( -4.618802153517009401, 0.000000000000000000, 0.000000000000000000 ) ) ;
#267 = PRODUCT_DEFINITION_FORMATION_WITH_SPECIFIED_SOURCE ( 'ANY', '', #82, .NOT_KNOWN. ) ;
#268 = LINE ( 'NONE', #243, #320 ) ;
#269 = AXIS2_PLACEMENT_3D ( 'NONE', #45, #101, #278 ) ;
#270 = CYLINDRICAL_SURFACE ( 'NONE', #237, 2.500000000000000000 ) ;
#271 = APPROVAL_STATUS ( 'not_yet_approved' ) ;
#272 = LINE ( 'NONE', #158, #235 ) ;
#273 = APPROVAL_DATE_TIME ( #212, #121 ) ;
#274 = ORIENTED_EDGE ( 'NONE', *, *, #21, .F. ) ;
#275 = DIRECTION ( 'NONE',  ( 1.000000000000000000, 0.000000000000000000, 0.000000000000000000 ) ) ;
#276 = CARTESIAN_POINT ( 'NONE',  ( 0.000000000000000000, 4.000000000000002665, 3.500000000000000000 ) ) ;
#277 = APPROVAL_ROLE ( '' ) ;
#278 = DIRECTION ( 'NONE',  ( 1.000000000000000000, 0.000000000000000000, 0.000000000000000000 ) ) ;
#279 = SHAPE_DEFINITION_REPRESENTATION ( #77, #325 ) ;
#280 = CARTESIAN_POINT ( 'NONE',  ( 2.309401076758504257, -4.000000000000002665, 3.500000000000000000 ) ) ;
#281 = EDGE_CURVE ( 'NONE', #178, #187, #81, .T. ) ;
#282 = AXIS2_PLACEMENT_3D ( 'NONE', #143, #231, #203 ) ;
#283 = VECTOR ( 'NONE', #322, 1000.000000000000114 ) ;
#284 = PLANE ( 'NONE',  #88 ) ;
#285 = DIRECTION ( 'NONE',  ( -0.000000000000000000, 0.000000000000000000, 1.000000000000000000 ) ) ;
#286 = CARTESIAN_POINT ( 'NONE',  ( -3.464101615137756163, -2.000000000000001332, 3.500000000000000000 ) ) ;
#287 = EDGE_CURVE ( 'NONE', #53, #205, #165, .T. ) ;
#288 = DIRECTION ( 'NONE',  ( -0.4999999999999999445, -0.8660254037844387076, 0.000000000000000000 ) ) ;
#289 = EDGE_LOOP ( 'NONE', ( #96, #331, #174, #7 ) ) ;
#290 = CARTESIAN_POINT ( 'NONE',  ( -2.500000000000000000, 3.061616997868383141E-16, -30.00000000000000000 ) ) ;
#291 = VERTEX_POINT ( 'NONE', #259 ) ;
#292 = CARTESIAN_POINT ( 'NONE',  ( 3.464101615137756607, -1.999999999999998668, 3.500000000000000000 ) ) ;
#293 = VERTEX_POINT ( 'NONE', #30 ) ;
#294 = PRODUCT_RELATED_PRODUCT_CATEGORY ( 'detail', '', ( #82 ) ) ;
#295 = ORIENTED_EDGE ( 'NONE', *, *, #99, .F. ) ;
#296 = EDGE_CURVE ( 'NONE', #303, #80, #92, .T. ) ;
#297 = LINE ( 'NONE', #290, #175 ) ;
#298 = DIRECTION ( 'NONE',  ( -1.000000000000000000, 0.000000000000000000, 0.000000000000000000 ) ) ;
#299 = VECTOR ( 'NONE', #124, 1000.000000000000000 ) ;
#300 = APPROVAL_DATE_TIME ( #306, #344 ) ;
#301 = CARTESIAN_POINT ( 'NONE',  ( 4.618802153517005848, 8.673617379884035472E-16, 0.000000000000000000 ) ) ;
#302 = PERSON_AND_ORGANIZATION ( #209, #95 ) ;
#303 = VERTEX_POINT ( 'NONE', #150 ) ;
#304 = EDGE_CURVE ( 'NONE', #205, #91, #230, .T. ) ;
#305 = ORIENTED_EDGE ( 'NONE', *, *, #123, .F. ) ;
#306 = DATE_AND_TIME ( #372, #373 ) ;
#307 = VECTOR ( 'NONE', #170, 999.9999999999998863 ) ;
#308 = CC_DESIGN_DATE_AND_TIME_ASSIGNMENT ( #248, #251, ( #228 ) ) ;
#309 = FACE_OUTER_BOUND ( 'NONE', #216, .T. ) ;
#310 = SECURITY_CLASSIFICATION_LEVEL ( 'unclassified' ) ;
#311 = CARTESIAN_POINT ( 'NONE',  ( 0.000000000000000000, 0.000000000000000000, 0.000000000000000000 ) ) ;
#312 = EDGE_CURVE ( 'NONE', #91, #178, #208, .T. ) ;
#313 = DIRECTION ( 'NONE',  ( -0.8660254037844389297, 0.4999999999999995559, 0.000000000000000000 ) ) ;
#314 = APPROVAL_PERSON_ORGANIZATION ( #100, #121, #361 ) ;
#315 = PLANE ( 'NONE',  #125 ) ;
#316 = CARTESIAN_POINT ( 'NONE',  ( -4.618802153517009401, 0.000000000000000000, 3.500000000000000000 ) ) ;
#317 = DIRECTION ( 'NONE',  ( 1.000000000000000000, 0.000000000000000000, 0.000000000000000000 ) ) ;
#318 = EDGE_LOOP ( 'NONE', ( #85, #204, #234, #260 ) ) ;
#319 =( NAMED_UNIT ( * ) PLANE_ANGLE_UNIT ( ) SI_UNIT ( $, .RADIAN. ) );
#320 = VECTOR ( 'NONE', #288, 999.9999999999998863 ) ;
#321 = ORIENTED_EDGE ( 'NONE', *, *, #264, .F. ) ;
#322 = DIRECTION ( 'NONE',  ( -0.5000000000000003331, 0.8660254037844383745, 0.000000000000000000 ) ) ;
#323 = DESIGN_CONTEXT ( 'detailed design', #370, 'design' ) ;
#324 = ORIENTED_EDGE ( 'NONE', *, *, #217, .F. ) ;
#325 = ADVANCED_BREP_SHAPE_REPRESENTATION ( '¿∞∞¢∫º∆Æ m5 30', ( #199, #382 ), #151 ) ;
#326 = ORIENTED_EDGE ( 'NONE', *, *, #312, .T. ) ;
#327 = ADVANCED_FACE ( 'NONE', ( #167 ), #28, .F. ) ;
#328 = CARTESIAN_POINT ( 'NONE',  ( -7.511572993685799101E-16, -4.000000000000001776, 0.000000000000000000 ) ) ;
#329 = VERTEX_POINT ( 'NONE', #346 ) ;
#330 =( LENGTH_UNIT ( ) NAMED_UNIT ( * ) SI_UNIT ( .MILLI., .METRE. ) );
#331 = ORIENTED_EDGE ( 'NONE', *, *, #166, .F. ) ;
#332 = CARTESIAN_POINT ( 'NONE',  ( 0.000000000000000000, 0.000000000000000000, 0.000000000000000000 ) ) ;
#333 = AXIS2_PLACEMENT_3D ( 'NONE', #276, #336, #255 ) ;
#334 = CARTESIAN_POINT ( 'NONE',  ( 0.000000000000000000, 0.000000000000000000, 3.500000000000000000 ) ) ;
#335 = LINE ( 'NONE', #66, #75 ) ;
#336 = DIRECTION ( 'NONE',  ( 0.000000000000000000, -1.000000000000000000, 0.000000000000000000 ) ) ;
#337 = COORDINATED_UNIVERSAL_TIME_OFFSET ( 9, 0, .AHEAD. ) ;
#338 = AXIS2_PLACEMENT_3D ( 'NONE', #348, #379, #317 ) ;
#339 = PLANE ( 'NONE',  #355 ) ;
#340 = CARTESIAN_POINT ( 'NONE',  ( 0.000000000000000000, 4.000000000000002665, 0.000000000000000000 ) ) ;
#341 = DIRECTION ( 'NONE',  ( -0.000000000000000000, 0.000000000000000000, 1.000000000000000000 ) ) ;
#342 = DIRECTION ( 'NONE',  ( -0.8660254037844384856, -0.5000000000000004441, 0.000000000000000000 ) ) ;
#343 = VECTOR ( 'NONE', #164, 1000.000000000000000 ) ;
#344 = APPROVAL ( #219, 'UNSPECIFIED' ) ;
#345 = DIRECTION ( 'NONE',  ( 1.000000000000000000, -1.877893248421448789E-16, 0.000000000000000000 ) ) ;
#346 = CARTESIAN_POINT ( 'NONE',  ( -2.309401076758504257, 4.000000000000002665, 0.000000000000000000 ) ) ;
#347 = ORIENTED_EDGE ( 'NONE', *, *, #378, .T. ) ;
#348 = CARTESIAN_POINT ( 'NONE',  ( 0.000000000000000000, 0.000000000000000000, -30.00000000000000000 ) ) ;
#349 = ORIENTED_EDGE ( 'NONE', *, *, #111, .F. ) ;
#350 = VECTOR ( 'NONE', #210, 1000.000000000000114 ) ;
#351 = ORIENTED_EDGE ( 'NONE', *, *, #38, .F. ) ;
#352 = APPLICATION_CONTEXT ( 'configuration controlled 3d designs of mechanical parts and assemblies' ) ;
#353 = EDGE_CURVE ( 'NONE', #91, #291, #200, .T. ) ;
#354 = EDGE_LOOP ( 'NONE', ( #119, #37 ) ) ;
#355 = AXIS2_PLACEMENT_3D ( 'NONE', #72, #342, #193 ) ;
#356 = DIRECTION ( 'NONE',  ( 0.4999999999999995559, 0.8660254037844389297, 0.000000000000000000 ) ) ;
#357 = APPROVAL ( #271, 'UNSPECIFIED' ) ;
#358 = ORIENTED_EDGE ( 'NONE', *, *, #353, .F. ) ;
#359 = FACE_OUTER_BOUND ( 'NONE', #238, .T. ) ;
#360 = ORIENTED_EDGE ( 'NONE', *, *, #78, .T. ) ;
#361 = APPROVAL_ROLE ( '' ) ;
#362 = DIRECTION ( 'NONE',  ( 0.5000000000000001110, -0.8660254037844385966, 0.000000000000000000 ) ) ;
#363 = EDGE_CURVE ( 'NONE', #291, #187, #58, .T. ) ;
#364 = CC_DESIGN_APPROVAL ( #121, ( #35 ) ) ;
#365 = COORDINATED_UNIVERSAL_TIME_OFFSET ( 9, 0, .AHEAD. ) ;
#366 = ORIENTED_EDGE ( 'NONE', *, *, #78, .F. ) ;
#367 = CC_DESIGN_DATE_AND_TIME_ASSIGNMENT ( #11, #185, ( #35 ) ) ;
#368 = CARTESIAN_POINT ( 'NONE',  ( 2.309401076758499816, 4.000000000000001776, 0.000000000000000000 ) ) ;
#369 = EDGE_CURVE ( 'NONE', #178, #207, #241, .T. ) ;
#370 = APPLICATION_CONTEXT ( 'configuration controlled 3d designs of mechanical parts and assemblies' ) ;
#371 = LINE ( 'NONE', #13, #18 ) ;
#372 = CALENDAR_DATE ( 2024, 26, 9 ) ;
#373 = LOCAL_TIME ( 23, 15, 7.000000000000000000, #192 ) ;
#374 = AXIS2_PLACEMENT_3D ( 'NONE', #135, #313, #227 ) ;
#375 = CARTESIAN_POINT ( 'NONE',  ( -2.500000000000000000, 3.061616997868383141E-16, -30.00000000000000000 ) ) ;
#376 = DIRECTION ( 'NONE',  ( 1.000000000000000000, 0.000000000000000000, 0.000000000000000000 ) ) ;
#377 = DIRECTION ( 'NONE',  ( 1.000000000000000000, 0.000000000000000000, 0.000000000000000000 ) ) ;
#378 = EDGE_CURVE ( 'NONE', #329, #4, #268, .T. ) ;
#379 = DIRECTION ( 'NONE',  ( -0.000000000000000000, 0.000000000000000000, 1.000000000000000000 ) ) ;
#380 = DIRECTION ( 'NONE',  ( -0.000000000000000000, -0.000000000000000000, -1.000000000000000000 ) ) ;
#381 = ORIENTED_EDGE ( 'NONE', *, *, #353, .T. ) ;
#382 = AXIS2_PLACEMENT_3D ( 'NONE', #332, #61, #275 ) ;
#383 = ORIENTED_EDGE ( 'NONE', *, *, #312, .F. ) ;
ENDSEC;
END-ISO-10303-21;
