ISO-10303-21;
HEADER;
FILE_DESCRIPTION (( 'STEP AP214' ),
    '1' );
FILE_NAME ('페이스.STEP',
    '2024-12-25T15:30:27',
    ( '' ),
    ( '' ),
    'SwSTEP 2.0',
    'SolidWorks 2022',
    '' );
FILE_SCHEMA (( 'AUTOMOTIVE_DESIGN' ));
ENDSEC;

DATA;
#1 = AXIS2_PLACEMENT_3D ( 'NONE', #738, #904, #132 ) ;
#2 = EDGE_LOOP ( 'NONE', ( #678, #536 ) ) ;
#3 = AXIS2_PLACEMENT_3D ( 'NONE', #96, #321, #258 ) ;
#4 = ORIENTED_EDGE ( 'NONE', *, *, #148, .F. ) ;
#5 = DIRECTION ( 'NONE',  ( 0.000000000000000000, 0.000000000000000000, 1.000000000000000000 ) ) ;
#6 = CARTESIAN_POINT ( 'NONE',  ( 0.000000000000000000, 0.000000000000000000, 9.000000000000001776 ) ) ;
#7 = VERTEX_POINT ( 'NONE', #687 ) ;
#8 = ORIENTED_EDGE ( 'NONE', *, *, #772, .F. ) ;
#9 = CYLINDRICAL_SURFACE ( 'NONE', #63, 1.750000000000001554 ) ;
#10 = AXIS2_PLACEMENT_3D ( 'NONE', #246, #643, #16 ) ;
#11 = LINE ( 'NONE', #318, #564 ) ;
#12 = EDGE_CURVE ( 'NONE', #531, #69, #133, .T. ) ;
#13 = EDGE_CURVE ( 'NONE', #680, #298, #102, .T. ) ;
#14 = ORIENTED_EDGE ( 'NONE', *, *, #251, .T. ) ;
#15 = DIRECTION ( 'NONE',  ( 1.000000000000000000, 0.000000000000000000, 0.000000000000000000 ) ) ;
#16 = DIRECTION ( 'NONE',  ( 0.000000000000000000, 0.000000000000000000, -1.000000000000000000 ) ) ;
#17 = AXIS2_PLACEMENT_3D ( 'NONE', #115, #184, #968 ) ;
#18 = FILL_AREA_STYLE_COLOUR ( '', #95 ) ;
#19 = ORIENTED_EDGE ( 'NONE', *, *, #13, .T. ) ;
#20 = CARTESIAN_POINT ( 'NONE',  ( 15.50000000000001421, -15.50000000000000533, 8.000000000000000000 ) ) ;
#21 = ADVANCED_FACE ( 'NONE', ( #581 ), #751, .F. ) ;
#22 = CARTESIAN_POINT ( 'NONE',  ( -18.00000000000000711, -21.00000000000000355, 8.000000000000000000 ) ) ;
#23 = ORIENTED_EDGE ( 'NONE', *, *, #881, .T. ) ;
#24 = CARTESIAN_POINT ( 'NONE',  ( -19.49999999999997513, 19.50000000000002132, 8.000000000000000000 ) ) ;
#25 = EDGE_CURVE ( 'NONE', #267, #145, #51, .T. ) ;
#26 = FILL_AREA_STYLE ('',( #566 ) ) ;
#27 = VECTOR ( 'NONE', #748, 1000.000000000000000 ) ;
#28 = ORIENTED_EDGE ( 'NONE', *, *, #432, .F. ) ;
#29 = DIRECTION ( 'NONE',  ( -0.000000000000000000, -0.000000000000000000, -1.000000000000000000 ) ) ;
#30 = ADVANCED_FACE ( 'NONE', ( #758 ), #737, .F. ) ;
#31 = FACE_BOUND ( 'NONE', #72, .T. ) ;
#32 = VECTOR ( 'NONE', #586, 1000.000000000000000 ) ;
#33 = DIRECTION ( 'NONE',  ( 0.7071067811865466846, -0.7071067811865483499, 0.000000000000000000 ) ) ;
#34 = SHAPE_DEFINITION_REPRESENTATION ( #157, #41 ) ;
#35 = VERTEX_POINT ( 'NONE', #270 ) ;
#36 = CARTESIAN_POINT ( 'NONE',  ( 20.00000000000000000, 2.449293598294706513E-15, 9.000000000000001776 ) ) ;
#37 = PLANE ( 'NONE',  #10 ) ;
#38 = LINE ( 'NONE', #425, #790 ) ;
#39 = DIRECTION ( 'NONE',  ( -0.000000000000000000, -0.000000000000000000, -1.000000000000000000 ) ) ;
#40 = DIRECTION ( 'NONE',  ( -0.000000000000000000, -0.000000000000000000, -1.000000000000000000 ) ) ;
#41 = ADVANCED_BREP_SHAPE_REPRESENTATION ( '페이스', ( #488, #662 ), #579 ) ;
#42 = DIRECTION ( 'NONE',  ( -1.000000000000000000, 0.000000000000000000, 0.000000000000000000 ) ) ;
#43 = CIRCLE ( 'NONE', #611, 20.00000000000000000 ) ;
#44 = AXIS2_PLACEMENT_3D ( 'NONE', #20, #479, #406 ) ;
#45 = DIRECTION ( 'NONE',  ( -2.478176394252581141E-16, 1.000000000000000000, -0.000000000000000000 ) ) ;
#46 = EDGE_CURVE ( 'NONE', #298, #82, #122, .T. ) ;
#47 = ORIENTED_EDGE ( 'NONE', *, *, #1022, .F. ) ;
#48 = CARTESIAN_POINT ( 'NONE',  ( -20.00000000000000000, 0.000000000000000000, 8.000000000000000000 ) ) ;
#49 = DIRECTION ( 'NONE',  ( 0.000000000000000000, 0.000000000000000000, 1.000000000000000000 ) ) ;
#50 = CARTESIAN_POINT ( 'NONE',  ( -17.50000000000000355, 0.000000000000000000, 9.000000000000001776 ) ) ;
#51 = LINE ( 'NONE', #838, #226 ) ;
#52 = DIRECTION ( 'NONE',  ( -1.000000000000000000, 0.000000000000000000, 0.000000000000000000 ) ) ;
#53 = CIRCLE ( 'NONE', #972, 1.749999999999999778 ) ;
#54 = CARTESIAN_POINT ( 'NONE',  ( -20.00000000000000000, 0.000000000000000000, 9.000000000000001776 ) ) ;
#55 = EDGE_CURVE ( 'NONE', #348, #61, #690, .T. ) ;
#56 = DIRECTION ( 'NONE',  ( 0.000000000000000000, 0.000000000000000000, 1.000000000000000000 ) ) ;
#57 = CARTESIAN_POINT ( 'NONE',  ( 15.50000000000001421, 15.50000000000000000, 8.000000000000000000 ) ) ;
#58 = LINE ( 'NONE', #207, #304 ) ;
#59 = PLANE ( 'NONE',  #964 ) ;
#60 = EDGE_CURVE ( 'NONE', #7, #290, #990, .T. ) ;
#61 = VERTEX_POINT ( 'NONE', #276 ) ;
#62 = DIRECTION ( 'NONE',  ( 1.000000000000000000, 0.000000000000000000, 0.000000000000000000 ) ) ;
#63 = AXIS2_PLACEMENT_3D ( 'NONE', #227, #83, #936 ) ;
#64 = EDGE_LOOP ( 'NONE', ( #768, #672 ) ) ;
#65 = DIRECTION ( 'NONE',  ( -0.7071067811865459074, 0.7071067811865491270, -0.000000000000000000 ) ) ;
#66 = FACE_OUTER_BOUND ( 'NONE', #68, .T. ) ;
#67 = EDGE_CURVE ( 'NONE', #256, #489, #420, .T. ) ;
#68 = EDGE_LOOP ( 'NONE', ( #847, #951, #77, #146 ) ) ;
#69 = VERTEX_POINT ( 'NONE', #139 ) ;
#70 = DIRECTION ( 'NONE',  ( -1.000000000000000000, -2.478176394252581634E-16, 0.000000000000000000 ) ) ;
#71 = ORIENTED_EDGE ( 'NONE', *, *, #735, .T. ) ;
#72 = EDGE_LOOP ( 'NONE', ( #467, #391 ) ) ;
#73 = FACE_BOUND ( 'NONE', #2, .T. ) ;
#74 = EDGE_LOOP ( 'NONE', ( #959, #906 ) ) ;
#75 = EDGE_CURVE ( 'NONE', #941, #531, #980, .T. ) ;
#76 = AXIS2_PLACEMENT_3D ( 'NONE', #469, #231, #1013 ) ;
#77 = ORIENTED_EDGE ( 'NONE', *, *, #627, .F. ) ;
#78 = FACE_BOUND ( 'NONE', #635, .T. ) ;
#79 =( GEOMETRIC_REPRESENTATION_CONTEXT ( 3 ) GLOBAL_UNCERTAINTY_ASSIGNED_CONTEXT ( ( #471 ) ) GLOBAL_UNIT_ASSIGNED_CONTEXT ( ( #497, #562, #654 ) ) REPRESENTATION_CONTEXT ( 'NONE', 'WORKASPACE' ) );
#80 = DIRECTION ( 'NONE',  ( -1.000000000000000000, -1.652117596168387263E-16, 0.000000000000000000 ) ) ;
#81 = ORIENTED_EDGE ( 'NONE', *, *, #120, .F. ) ;
#82 = VERTEX_POINT ( 'NONE', #997 ) ;
#83 = DIRECTION ( 'NONE',  ( -0.000000000000000000, -0.000000000000000000, -1.000000000000000000 ) ) ;
#84 = DIRECTION ( 'NONE',  ( 1.000000000000000000, 0.000000000000000000, 0.000000000000000000 ) ) ;
#85 = EDGE_LOOP ( 'NONE', ( #1001, #692, #571, #723 ) ) ;
#86 = PRODUCT ( '페이스', '페이스', '', ( #200 ) ) ;
#87 = EDGE_LOOP ( 'NONE', ( #617, #233, #481, #1020 ) ) ;
#88 = CARTESIAN_POINT ( 'NONE',  ( 15.50000000000001421, -15.50000000000000533, 8.000000000000000000 ) ) ;
#89 = EDGE_CURVE ( 'NONE', #267, #806, #924, .T. ) ;
#90 = LINE ( 'NONE', #703, #840 ) ;
#91 = PRODUCT_DEFINITION_CONTEXT ( 'detailed design', #869, 'design' ) ;
#92 = VERTEX_POINT ( 'NONE', #511 ) ;
#93 = CARTESIAN_POINT ( 'NONE',  ( 20.00000000000000000, 2.449293598294706513E-15, 9.000000000000001776 ) ) ;
#94 = VECTOR ( 'NONE', #792, 1000.000000000000000 ) ;
#95 = COLOUR_RGB ( '',0.7921568627450980005, 0.8196078431372548767, 0.9333333333333333481 ) ;
#96 = CARTESIAN_POINT ( 'NONE',  ( 0.000000000000000000, 0.000000000000000000, 4.000000000000000000 ) ) ;
#97 = ADVANCED_FACE ( 'NONE', ( #354 ), #833, .T. ) ;
#98 = ORIENTED_EDGE ( 'NONE', *, *, #760, .F. ) ;
#99 = FACE_BOUND ( 'NONE', #294, .T. ) ;
#100 = DIRECTION ( 'NONE',  ( 0.000000000000000000, 0.000000000000000000, 1.000000000000000000 ) ) ;
#101 = AXIS2_PLACEMENT_3D ( 'NONE', #651, #574, #911 ) ;
#102 = CIRCLE ( 'NONE', #402, 1.749999999999999778 ) ;
#103 = SURFACE_STYLE_FILL_AREA ( #885 ) ;
#104 = VERTEX_POINT ( 'NONE', #280 ) ;
#105 = CYLINDRICAL_SURFACE ( 'NONE', #44, 1.750000000000003331 ) ;
#106 = CARTESIAN_POINT ( 'NONE',  ( 20.99999999999999645, 18.00000000000000355, 8.000000000000000000 ) ) ;
#107 = EDGE_CURVE ( 'NONE', #555, #104, #681, .T. ) ;
#108 = EDGE_LOOP ( 'NONE', ( #779, #587 ) ) ;
#109 = DIRECTION ( 'NONE',  ( -0.000000000000000000, -0.000000000000000000, -1.000000000000000000 ) ) ;
#110 = CARTESIAN_POINT ( 'NONE',  ( 13.75000000000001066, -15.50000000000000533, 8.000000000000000000 ) ) ;
#111 = AXIS2_PLACEMENT_3D ( 'NONE', #841, #524, #356 ) ;
#112 = CARTESIAN_POINT ( 'NONE',  ( -21.00000000000000355, 18.00000000000000355, 8.000000000000000000 ) ) ;
#113 = ORIENTED_EDGE ( 'NONE', *, *, #1022, .T. ) ;
#114 = CARTESIAN_POINT ( 'NONE',  ( 20.00000000000000000, 2.449293598294706513E-15, 8.000000000000000000 ) ) ;
#115 = CARTESIAN_POINT ( 'NONE',  ( 0.000000000000000000, 0.000000000000000000, 8.000000000000000000 ) ) ;
#116 = FACE_OUTER_BOUND ( 'NONE', #731, .T. ) ;
#117 = ORIENTED_EDGE ( 'NONE', *, *, #416, .T. ) ;
#118 = DIRECTION ( 'NONE',  ( 1.000000000000000000, 0.000000000000000000, 0.000000000000000000 ) ) ;
#119 = DIRECTION ( 'NONE',  ( -0.7071067811865466846, 0.7071067811865483499, -0.000000000000000000 ) ) ;
#120 = EDGE_CURVE ( 'NONE', #7, #341, #58, .T. ) ;
#121 = CARTESIAN_POINT ( 'NONE',  ( -17.50000000000000355, 0.000000000000000000, 9.000000000000001776 ) ) ;
#122 = LINE ( 'NONE', #908, #939 ) ;
#123 = CARTESIAN_POINT ( 'NONE',  ( -6.500000000000000888, 0.000000000000000000, 8.000000000000000000 ) ) ;
#124 = DIRECTION ( 'NONE',  ( 0.000000000000000000, 0.000000000000000000, 1.000000000000000000 ) ) ;
#125 = CARTESIAN_POINT ( 'NONE',  ( 2.500000000000000000, 0.000000000000000000, 4.000000000000000000 ) ) ;
#126 = ORIENTED_EDGE ( 'NONE', *, *, #386, .F. ) ;
#127 = DIRECTION ( 'NONE',  ( 1.000000000000000000, 0.000000000000000000, 0.000000000000000000 ) ) ;
#128 = LINE ( 'NONE', #54, #185 ) ;
#129 = CARTESIAN_POINT ( 'NONE',  ( 0.000000000000000000, 0.000000000000000000, 6.000000000000000000 ) ) ;
#130 = ADVANCED_FACE ( 'NONE', ( #444 ), #516, .F. ) ;
#131 = ORIENTED_EDGE ( 'NONE', *, *, #926, .F. ) ;
#132 = DIRECTION ( 'NONE',  ( -1.000000000000000000, 0.000000000000000000, 0.000000000000000000 ) ) ;
#133 = CIRCLE ( 'NONE', #436, 6.500000000000000888 ) ;
#134 = FACE_OUTER_BOUND ( 'NONE', #374, .T. ) ;
#135 = VECTOR ( 'NONE', #762, 1000.000000000000000 ) ;
#136 = VERTEX_POINT ( 'NONE', #1002 ) ;
#137 = CARTESIAN_POINT ( 'NONE',  ( 20.99999999999999645, 18.00000000000000355, 8.000000000000000000 ) ) ;
#138 = EDGE_LOOP ( 'NONE', ( #533, #966, #552, #619 ) ) ;
#139 = CARTESIAN_POINT ( 'NONE',  ( 6.500000000000000888, 7.960204194457796463E-16, 0.000000000000000000 ) ) ;
#140 = ADVANCED_FACE ( 'NONE', ( #439 ), #828, .F. ) ;
#141 = DIRECTION ( 'NONE',  ( 1.000000000000000000, 0.000000000000000000, 0.000000000000000000 ) ) ;
#142 = ORIENTED_EDGE ( 'NONE', *, *, #55, .F. ) ;
#143 = CIRCLE ( 'NONE', #448, 20.00000000000000000 ) ;
#144 = DIRECTION ( 'NONE',  ( 0.000000000000000000, 0.000000000000000000, 1.000000000000000000 ) ) ;
#145 = VERTEX_POINT ( 'NONE', #922 ) ;
#146 = ORIENTED_EDGE ( 'NONE', *, *, #493, .F. ) ;
#147 = LINE ( 'NONE', #527, #220 ) ;
#148 = EDGE_CURVE ( 'NONE', #298, #680, #842, .T. ) ;
#149 = VERTEX_POINT ( 'NONE', #746 ) ;
#150 = ORIENTED_EDGE ( 'NONE', *, *, #772, .T. ) ;
#151 = DIRECTION ( 'NONE',  ( -0.000000000000000000, -0.000000000000000000, -1.000000000000000000 ) ) ;
#152 = DIRECTION ( 'NONE',  ( 1.000000000000000000, 0.000000000000000000, 0.000000000000000000 ) ) ;
#153 = ORIENTED_EDGE ( 'NONE', *, *, #475, .T. ) ;
#154 = AXIS2_PLACEMENT_3D ( 'NONE', #403, #263, #961 ) ;
#155 = EDGE_LOOP ( 'NONE', ( #285, #261 ) ) ;
#156 = LINE ( 'NONE', #706, #346 ) ;
#157 = PRODUCT_DEFINITION_SHAPE ( 'NONE', 'NONE',  #750 ) ;
#158 = CARTESIAN_POINT ( 'NONE',  ( 0.000000000000000000, 0.000000000000000000, 6.000000000000000000 ) ) ;
#159 = ORIENTED_EDGE ( 'NONE', *, *, #956, .F. ) ;
#160 = EDGE_CURVE ( 'NONE', #544, #178, #845, .T. ) ;
#161 = VERTEX_POINT ( 'NONE', #48 ) ;
#162 = CARTESIAN_POINT ( 'NONE',  ( 21.00000000000000711, -18.00000000000000355, 0.000000000000000000 ) ) ;
#163 = FACE_OUTER_BOUND ( 'NONE', #832, .T. ) ;
#164 = VERTEX_POINT ( 'NONE', #653 ) ;
#165 = DIRECTION ( 'NONE',  ( -0.000000000000000000, -0.000000000000000000, -1.000000000000000000 ) ) ;
#166 = EDGE_CURVE ( 'NONE', #219, #858, #578, .T. ) ;
#167 = DIRECTION ( 'NONE',  ( -1.652117596168387263E-16, 1.000000000000000000, 0.000000000000000000 ) ) ;
#168 = ORIENTED_EDGE ( 'NONE', *, *, #411, .F. ) ;
#169 = CARTESIAN_POINT ( 'NONE',  ( 0.000000000000000000, 0.000000000000000000, 4.000000000000000000 ) ) ;
#170 = CIRCLE ( 'NONE', #743, 2.500000000000000000 ) ;
#171 = ORIENTED_EDGE ( 'NONE', *, *, #894, .F. ) ;
#172 = DIRECTION ( 'NONE',  ( 0.000000000000000000, 0.000000000000000000, 1.000000000000000000 ) ) ;
#173 = CYLINDRICAL_SURFACE ( 'NONE', #17, 6.500000000000000888 ) ;
#174 = CIRCLE ( 'NONE', #753, 6.500000000000000888 ) ;
#175 = AXIS2_PLACEMENT_3D ( 'NONE', #759, #40, #286 ) ;
#176 = EDGE_CURVE ( 'NONE', #188, #82, #53, .T. ) ;
#177 = CARTESIAN_POINT ( 'NONE',  ( -21.00000000000000355, 21.00000000000000355, 8.000000000000000000 ) ) ;
#178 = VERTEX_POINT ( 'NONE', #424 ) ;
#179 = CYLINDRICAL_SURFACE ( 'NONE', #529, 2.500000000000000000 ) ;
#180 = LINE ( 'NONE', #110, #594 ) ;
#181 = DIRECTION ( 'NONE',  ( 0.000000000000000000, 0.000000000000000000, 1.000000000000000000 ) ) ;
#182 = VERTEX_POINT ( 'NONE', #661 ) ;
#183 = DIRECTION ( 'NONE',  ( 0.000000000000000000, 0.000000000000000000, 1.000000000000000000 ) ) ;
#184 = DIRECTION ( 'NONE',  ( -0.000000000000000000, -0.000000000000000000, -1.000000000000000000 ) ) ;
#185 = VECTOR ( 'NONE', #761, 1000.000000000000000 ) ;
#186 = EDGE_LOOP ( 'NONE', ( #19, #230, #912, #530 ) ) ;
#187 = CARTESIAN_POINT ( 'NONE',  ( -21.00000000000000000, -21.00000000000000355, 8.000000000000000000 ) ) ;
#188 = VERTEX_POINT ( 'NONE', #271 ) ;
#189 = DIRECTION ( 'NONE',  ( 1.000000000000000000, 0.000000000000000000, 0.000000000000000000 ) ) ;
#190 = ADVANCED_FACE ( 'NONE', ( #582 ), #909, .F. ) ;
#191 = PRESENTATION_STYLE_ASSIGNMENT (( #417 ) ) ;
#192 = AXIS2_PLACEMENT_3D ( 'NONE', #499, #181, #664 ) ;
#193 = CIRCLE ( 'NONE', #535, 1.750000000000005107 ) ;
#194 = ORIENTED_EDGE ( 'NONE', *, *, #215, .F. ) ;
#195 = LINE ( 'NONE', #413, #770 ) ;
#196 = DIRECTION ( 'NONE',  ( -0.000000000000000000, -0.000000000000000000, -1.000000000000000000 ) ) ;
#197 = DIRECTION ( 'NONE',  ( 8.260587980841936314E-17, -1.000000000000000000, 0.000000000000000000 ) ) ;
#198 = DIRECTION ( 'NONE',  ( 1.000000000000000000, 0.000000000000000000, 0.000000000000000000 ) ) ;
#199 = CARTESIAN_POINT ( 'NONE',  ( 0.000000000000000000, 0.000000000000000000, 8.000000000000000000 ) ) ;
#200 = PRODUCT_CONTEXT ( 'NONE', #795, 'mechanical' ) ;
#201 = ORIENTED_EDGE ( 'NONE', *, *, #166, .T. ) ;
#202 = DIRECTION ( 'NONE',  ( 0.000000000000000000, 0.000000000000000000, 1.000000000000000000 ) ) ;
#203 = CARTESIAN_POINT ( 'NONE',  ( -18.00000000000000711, -21.00000000000000355, 0.000000000000000000 ) ) ;
#204 = CIRCLE ( 'NONE', #931, 1.749999999999999778 ) ;
#205 = FACE_BOUND ( 'NONE', #852, .T. ) ;
#206 = ORIENTED_EDGE ( 'NONE', *, *, #722, .F. ) ;
#207 = CARTESIAN_POINT ( 'NONE',  ( -21.00000000000000355, 18.00000000000000355, 0.000000000000000000 ) ) ;
#208 = DIRECTION ( 'NONE',  ( 0.000000000000000000, 0.000000000000000000, -1.000000000000000000 ) ) ;
#209 = ORIENTED_EDGE ( 'NONE', *, *, #595, .T. ) ;
#210 = CYLINDRICAL_SURFACE ( 'NONE', #567, 1.750000000000003331 ) ;
#211 = ADVANCED_FACE ( 'NONE', ( #365, #291, #606, #116, #205, #278 ), #569, .T. ) ;
#212 = ORIENTED_EDGE ( 'NONE', *, *, #340, .F. ) ;
#213 = DIRECTION ( 'NONE',  ( 0.000000000000000000, 0.000000000000000000, 1.000000000000000000 ) ) ;
#214 = AXIS2_PLACEMENT_3D ( 'NONE', #907, #656, #268 ) ;
#215 = EDGE_CURVE ( 'NONE', #655, #544, #38, .T. ) ;
#216 = DIRECTION ( 'NONE',  ( -0.000000000000000000, -0.000000000000000000, -1.000000000000000000 ) ) ;
#217 = ORIENTED_EDGE ( 'NONE', *, *, #1004, .F. ) ;
#218 = CARTESIAN_POINT ( 'NONE',  ( 18.00000000000000355, 21.00000000000001066, 8.000000000000000000 ) ) ;
#219 = VERTEX_POINT ( 'NONE', #978 ) ;
#220 = VECTOR ( 'NONE', #151, 1000.000000000000000 ) ;
#221 = ORIENTED_EDGE ( 'NONE', *, *, #568, .F. ) ;
#222 = FACE_OUTER_BOUND ( 'NONE', #1014, .T. ) ;
#223 = EDGE_CURVE ( 'NONE', #655, #694, #984, .T. ) ;
#224 = VERTEX_POINT ( 'NONE', #580 ) ;
#225 = ORIENTED_EDGE ( 'NONE', *, *, #993, .T. ) ;
#226 = VECTOR ( 'NONE', #918, 1000.000000000000000 ) ;
#227 = CARTESIAN_POINT ( 'NONE',  ( -15.50000000000001421, 15.50000000000000000, 8.000000000000000000 ) ) ;
#228 = DIRECTION ( 'NONE',  ( -1.000000000000000000, 0.000000000000000000, 0.000000000000000000 ) ) ;
#229 = ORIENTED_EDGE ( 'NONE', *, *, #312, .T. ) ;
#230 = ORIENTED_EDGE ( 'NONE', *, *, #46, .T. ) ;
#231 = DIRECTION ( 'NONE',  ( 0.000000000000000000, 0.000000000000000000, 1.000000000000000000 ) ) ;
#232 = FACE_OUTER_BOUND ( 'NONE', #896, .T. ) ;
#233 = ORIENTED_EDGE ( 'NONE', *, *, #411, .T. ) ;
#234 = EDGE_CURVE ( 'NONE', #256, #348, #514, .T. ) ;
#235 = AXIS2_PLACEMENT_3D ( 'NONE', #689, #599, #846 ) ;
#236 = ORIENTED_EDGE ( 'NONE', *, *, #872, .F. ) ;
#237 = DIRECTION ( 'NONE',  ( 0.000000000000000000, 0.000000000000000000, -1.000000000000000000 ) ) ;
#238 = DIRECTION ( 'NONE',  ( -0.000000000000000000, -0.000000000000000000, -1.000000000000000000 ) ) ;
#239 = EDGE_CURVE ( 'NONE', #858, #433, #330, .T. ) ;
#240 = ORIENTED_EDGE ( 'NONE', *, *, #862, .F. ) ;
#241 = PLANE ( 'NONE',  #883 ) ;
#242 = DIRECTION ( 'NONE',  ( 1.000000000000000000, 1.652117596168388002E-16, 0.000000000000000000 ) ) ;
#243 = VECTOR ( 'NONE', #836, 1000.000000000000000 ) ;
#244 = ORIENTED_EDGE ( 'NONE', *, *, #1004, .T. ) ;
#245 = LINE ( 'NONE', #93, #800 ) ;
#246 = CARTESIAN_POINT ( 'NONE',  ( 21.00000000000000711, -18.00000000000000355, 8.000000000000000000 ) ) ;
#247 = ORIENTED_EDGE ( 'NONE', *, *, #956, .T. ) ;
#248 = CYLINDRICAL_SURFACE ( 'NONE', #612, 1.750000000000003331 ) ;
#249 = CIRCLE ( 'NONE', #154, 1.749999999999999778 ) ;
#250 = VECTOR ( 'NONE', #395, 1000.000000000000000 ) ;
#251 = EDGE_CURVE ( 'NONE', #577, #628, #823, .T. ) ;
#252 = ORIENTED_EDGE ( 'NONE', *, *, #295, .F. ) ;
#253 = CARTESIAN_POINT ( 'NONE',  ( 17.99999999999998934, 21.00000000000001066, 0.000000000000000000 ) ) ;
#254 = CARTESIAN_POINT ( 'NONE',  ( -2.500000000000000000, 3.061616997868383141E-16, 4.000000000000000000 ) ) ;
#255 = CARTESIAN_POINT ( 'NONE',  ( 17.50000000000000355, 2.143131898507868643E-15, 9.000000000000001776 ) ) ;
#256 = VERTEX_POINT ( 'NONE', #50 ) ;
#257 = DIRECTION ( 'NONE',  ( 0.7071067811865459074, -0.7071067811865491270, -0.000000000000000000 ) ) ;
#258 = DIRECTION ( 'NONE',  ( 1.000000000000000000, 0.000000000000000000, 0.000000000000000000 ) ) ;
#259 = DIRECTION ( 'NONE',  ( 1.000000000000000000, 0.000000000000000000, 0.000000000000000000 ) ) ;
#260 = EDGE_CURVE ( 'NONE', #449, #358, #733, .T. ) ;
#261 = ORIENTED_EDGE ( 'NONE', *, *, #340, .T. ) ;
#262 = DIRECTION ( 'NONE',  ( 1.000000000000000000, 1.652117596168387263E-16, 0.000000000000000000 ) ) ;
#263 = DIRECTION ( 'NONE',  ( 0.000000000000000000, 0.000000000000000000, 1.000000000000000000 ) ) ;
#264 = AXIS2_PLACEMENT_3D ( 'NONE', #88, #144, #375 ) ;
#265 = MECHANICAL_DESIGN_GEOMETRIC_PRESENTATION_REPRESENTATION (  '', ( #965 ), #639 ) ;
#266 = PRESENTATION_LAYER_ASSIGNMENT (  '', '', ( #875 ) ) ;
#267 = VERTEX_POINT ( 'NONE', #125 ) ;
#268 = DIRECTION ( 'NONE',  ( 1.000000000000000000, 0.000000000000000000, 0.000000000000000000 ) ) ;
#269 = EDGE_CURVE ( 'NONE', #61, #348, #818, .T. ) ;
#270 = CARTESIAN_POINT ( 'NONE',  ( -13.75000000000000888, -15.50000000000000355, 8.000000000000000000 ) ) ;
#271 = CARTESIAN_POINT ( 'NONE',  ( -17.25000000000001421, 15.50000000000000000, 0.000000000000000000 ) ) ;
#272 = DIRECTION ( 'NONE',  ( -0.000000000000000000, -0.000000000000000000, -1.000000000000000000 ) ) ;
#273 = AXIS2_PLACEMENT_3D ( 'NONE', #57, #39, #343 ) ;
#274 = LINE ( 'NONE', #503, #32 ) ;
#275 = DIRECTION ( 'NONE',  ( 1.000000000000000000, 0.000000000000000000, 0.000000000000000000 ) ) ;
#276 = CARTESIAN_POINT ( 'NONE',  ( 17.50000000000000355, 2.143131898507868643E-15, 8.000000000000000000 ) ) ;
#277 = CYLINDRICAL_SURFACE ( 'NONE', #394, 1.750000000000001554 ) ;
#278 = FACE_BOUND ( 'NONE', #670, .T. ) ;
#279 = ORIENTED_EDGE ( 'NONE', *, *, #902, .T. ) ;
#280 = CARTESIAN_POINT ( 'NONE',  ( 18.00000000000000711, -20.99999999999999645, 0.000000000000000000 ) ) ;
#281 = DIRECTION ( 'NONE',  ( 1.000000000000000000, 0.000000000000000000, -0.000000000000000000 ) ) ;
#282 = EDGE_CURVE ( 'NONE', #182, #605, #954, .T. ) ;
#283 = AXIS2_PLACEMENT_3D ( 'NONE', #345, #512, #663 ) ;
#284 = CARTESIAN_POINT ( 'NONE',  ( -21.00000000000000000, -21.00000000000000355, 8.000000000000000000 ) ) ;
#285 = ORIENTED_EDGE ( 'NONE', *, *, #551, .T. ) ;
#286 = DIRECTION ( 'NONE',  ( -1.000000000000000000, 0.000000000000000000, 0.000000000000000000 ) ) ;
#287 = CARTESIAN_POINT ( 'NONE',  ( 17.25000000000001776, -15.50000000000000533, 8.000000000000000000 ) ) ;
#288 = ORIENTED_EDGE ( 'NONE', *, *, #223, .F. ) ;
#289 = LINE ( 'NONE', #22, #777 ) ;
#290 = VERTEX_POINT ( 'NONE', #671 ) ;
#291 = FACE_BOUND ( 'NONE', #108, .T. ) ;
#292 = VECTOR ( 'NONE', #349, 1000.000000000000000 ) ;
#293 = CARTESIAN_POINT ( 'NONE',  ( 0.000000000000000000, 0.000000000000000000, 8.000000000000000000 ) ) ;
#294 = EDGE_LOOP ( 'NONE', ( #989, #337 ) ) ;
#295 = EDGE_CURVE ( 'NONE', #433, #655, #195, .T. ) ;
#296 = ORIENTED_EDGE ( 'NONE', *, *, #623, .F. ) ;
#297 = FACE_BOUND ( 'NONE', #929, .T. ) ;
#298 = VERTEX_POINT ( 'NONE', #817 ) ;
#299 = VERTEX_POINT ( 'NONE', #509 ) ;
#300 = FACE_BOUND ( 'NONE', #414, .T. ) ;
#301 = EDGE_LOOP ( 'NONE', ( #159, #867, #81, #296 ) ) ;
#302 = CIRCLE ( 'NONE', #788, 1.750000000000005107 ) ;
#303 = ORIENTED_EDGE ( 'NONE', *, *, #631, .T. ) ;
#304 = VECTOR ( 'NONE', #839, 1000.000000000000000 ) ;
#305 = DIRECTION ( 'NONE',  ( 0.000000000000000000, 0.000000000000000000, 1.000000000000000000 ) ) ;
#306 = EDGE_CURVE ( 'NONE', #149, #932, #757, .T. ) ;
#307 = CARTESIAN_POINT ( 'NONE',  ( 0.000000000000000000, 0.000000000000000000, 9.000000000000001776 ) ) ;
#308 = ORIENTED_EDGE ( 'NONE', *, *, #75, .F. ) ;
#309 = VERTEX_POINT ( 'NONE', #590 ) ;
#310 = DIRECTION ( 'NONE',  ( 1.000000000000000000, 0.000000000000000000, 0.000000000000000000 ) ) ;
#311 = DIRECTION ( 'NONE',  ( 0.000000000000000000, 0.000000000000000000, 1.000000000000000000 ) ) ;
#312 = EDGE_CURVE ( 'NONE', #290, #219, #274, .T. ) ;
#313 = ORIENTED_EDGE ( 'NONE', *, *, #120, .T. ) ;
#314 = EDGE_CURVE ( 'NONE', #489, #61, #987, .T. ) ;
#315 = AXIS2_PLACEMENT_3D ( 'NONE', #445, #1010, #198 ) ;
#316 = ORIENTED_EDGE ( 'NONE', *, *, #13, .F. ) ;
#317 = DIRECTION ( 'NONE',  ( 1.000000000000000000, 0.000000000000000000, -0.000000000000000000 ) ) ;
#318 = CARTESIAN_POINT ( 'NONE',  ( 17.25000000000001776, 15.50000000000000000, 8.000000000000000000 ) ) ;
#319 = ORIENTED_EDGE ( 'NONE', *, *, #684, .T. ) ;
#320 = CARTESIAN_POINT ( 'NONE',  ( 13.75000000000000888, -15.50000000000000533, 8.000000000000000000 ) ) ;
#321 = DIRECTION ( 'NONE',  ( 0.000000000000000000, 0.000000000000000000, 1.000000000000000000 ) ) ;
#322 = EDGE_CURVE ( 'NONE', #934, #341, #492, .T. ) ;
#323 = EDGE_LOOP ( 'NONE', ( #632, #221 ) ) ;
#324 = FACE_OUTER_BOUND ( 'NONE', #789, .T. ) ;
#325 = FACE_OUTER_BOUND ( 'NONE', #946, .T. ) ;
#326 = EDGE_LOOP ( 'NONE', ( #853, #515, #454, #563 ) ) ;
#327 = CARTESIAN_POINT ( 'NONE',  ( 15.50000000000001421, -15.50000000000000533, 8.000000000000000000 ) ) ;
#328 = AXIS2_PLACEMENT_3D ( 'NONE', #561, #716, #641 ) ;
#329 = CARTESIAN_POINT ( 'NONE',  ( -6.500000000000000888, 0.000000000000000000, 8.000000000000000000 ) ) ;
#330 = LINE ( 'NONE', #187, #243 ) ;
#331 = LINE ( 'NONE', #974, #747 ) ;
#332 = FACE_OUTER_BOUND ( 'NONE', #921, .T. ) ;
#333 = AXIS2_PLACEMENT_3D ( 'NONE', #158, #999, #62 ) ;
#334 = ADVANCED_FACE ( 'NONE', ( #812 ), #742, .F. ) ;
#335 = VECTOR ( 'NONE', #262, 1000.000000000000000 ) ;
#336 = DIRECTION ( 'NONE',  ( 0.000000000000000000, 0.000000000000000000, -1.000000000000000000 ) ) ;
#337 = ORIENTED_EDGE ( 'NONE', *, *, #930, .F. ) ;
#338 = DIRECTION ( 'NONE',  ( 0.000000000000000000, 0.000000000000000000, 1.000000000000000000 ) ) ;
#339 = FACE_OUTER_BOUND ( 'NONE', #460, .T. ) ;
#340 = EDGE_CURVE ( 'NONE', #309, #932, #988, .T. ) ;
#341 = VERTEX_POINT ( 'NONE', #830 ) ;
#342 = DIRECTION ( 'NONE',  ( 0.000000000000000000, -0.000000000000000000, -1.000000000000000000 ) ) ;
#343 = DIRECTION ( 'NONE',  ( -1.000000000000000000, 0.000000000000000000, 0.000000000000000000 ) ) ;
#344 = DIRECTION ( 'NONE',  ( 1.000000000000000000, 0.000000000000000000, 0.000000000000000000 ) ) ;
#345 = CARTESIAN_POINT ( 'NONE',  ( -15.50000000000000888, -15.50000000000000355, 8.000000000000000000 ) ) ;
#346 = VECTOR ( 'NONE', #629, 1000.000000000000000 ) ;
#347 = CARTESIAN_POINT ( 'NONE',  ( 0.000000000000000000, 0.000000000000000000, 8.000000000000000000 ) ) ;
#348 = VERTEX_POINT ( 'NONE', #431 ) ;
#349 = DIRECTION ( 'NONE',  ( 0.7071067811865466846, -0.7071067811865483499, 0.000000000000000000 ) ) ;
#350 = CARTESIAN_POINT ( 'NONE',  ( -21.00000000000000355, 18.00000000000000355, 8.000000000000000000 ) ) ;
#351 = DIRECTION ( 'NONE',  ( 1.000000000000000000, 0.000000000000000000, 0.000000000000000000 ) ) ;
#352 =( NAMED_UNIT ( * ) PLANE_ANGLE_UNIT ( ) SI_UNIT ( $, .RADIAN. ) );
#353 = ORIENTED_EDGE ( 'NONE', *, *, #60, .T. ) ;
#354 = FACE_OUTER_BOUND ( 'NONE', #767, .T. ) ;
#355 = ADVANCED_FACE ( 'NONE', ( #626 ), #787, .F. ) ;
#356 = DIRECTION ( 'NONE',  ( 1.000000000000000000, 0.000000000000000000, 0.000000000000000000 ) ) ;
#357 = DIRECTION ( 'NONE',  ( -0.000000000000000000, -0.000000000000000000, -1.000000000000000000 ) ) ;
#358 = VERTEX_POINT ( 'NONE', #860 ) ;
#359 = DIRECTION ( 'NONE',  ( -0.000000000000000000, -0.000000000000000000, -1.000000000000000000 ) ) ;
#360 = CYLINDRICAL_SURFACE ( 'NONE', #726, 20.00000000000000000 ) ;
#361 = CIRCLE ( 'NONE', #948, 6.500000000000000888 ) ;
#362 = ORIENTED_EDGE ( 'NONE', *, *, #740, .T. ) ;
#363 = LINE ( 'NONE', #686, #975 ) ;
#364 = CARTESIAN_POINT ( 'NONE',  ( -15.50000000000001421, 15.50000000000000000, 8.000000000000000000 ) ) ;
#365 = FACE_BOUND ( 'NONE', #74, .T. ) ;
#366 = DIRECTION ( 'NONE',  ( 0.7071067811865483499, 0.7071067811865466846, 0.000000000000000000 ) ) ;
#367 = EDGE_CURVE ( 'NONE', #941, #164, #174, .T. ) ;
#368 = ADVANCED_FACE ( 'NONE', ( #520 ), #782, .F. ) ;
#369 = ORIENTED_EDGE ( 'NONE', *, *, #107, .F. ) ;
#370 = AXIS2_PLACEMENT_3D ( 'NONE', #673, #359, #52 ) ;
#371 = ORIENTED_EDGE ( 'NONE', *, *, #740, .F. ) ;
#372 = DIRECTION ( 'NONE',  ( 2.478176394252581634E-16, -1.000000000000000000, 0.000000000000000000 ) ) ;
#373 = VERTEX_POINT ( 'NONE', #708 ) ;
#374 = EDGE_LOOP ( 'NONE', ( #131, #225, #71, #856 ) ) ;
#375 = DIRECTION ( 'NONE',  ( 1.000000000000000000, 0.000000000000000000, 0.000000000000000000 ) ) ;
#376 = ORIENTED_EDGE ( 'NONE', *, *, #148, .T. ) ;
#377 = AXIS2_PLACEMENT_3D ( 'NONE', #923, #124, #141 ) ;
#378 = ORIENTED_EDGE ( 'NONE', *, *, #857, .T. ) ;
#379 = DIRECTION ( 'NONE',  ( 1.000000000000000000, 0.000000000000000000, 0.000000000000000000 ) ) ;
#380 = DIRECTION ( 'NONE',  ( 1.000000000000000000, 0.000000000000000000, 0.000000000000000000 ) ) ;
#381 = ORIENTED_EDGE ( 'NONE', *, *, #295, .T. ) ;
#382 = CIRCLE ( 'NONE', #518, 20.00000000000000000 ) ;
#383 = ORIENTED_EDGE ( 'NONE', *, *, #857, .F. ) ;
#384 = AXIS2_PLACEMENT_3D ( 'NONE', #598, #213, #523 ) ;
#385 = PLANE ( 'NONE',  #658 ) ;
#386 = EDGE_CURVE ( 'NONE', #605, #182, #302, .T. ) ;
#387 = CARTESIAN_POINT ( 'NONE',  ( 15.50000000000001421, 15.50000000000000000, 0.000000000000000000 ) ) ;
#388 = AXIS2_PLACEMENT_3D ( 'NONE', #554, #878, #543 ) ;
#389 = UNCERTAINTY_MEASURE_WITH_UNIT (LENGTH_MEASURE( 1.000000000000000082E-05 ), #426, 'distance_accuracy_value', 'NONE');
#390 = ORIENTED_EDGE ( 'NONE', *, *, #215, .T. ) ;
#391 = ORIENTED_EDGE ( 'NONE', *, *, #539, .T. ) ;
#392 = FACE_BOUND ( 'NONE', #155, .T. ) ;
#393 = DIRECTION ( 'NONE',  ( -0.000000000000000000, -0.000000000000000000, -1.000000000000000000 ) ) ;
#394 = AXIS2_PLACEMENT_3D ( 'NONE', #440, #216, #42 ) ;
#395 = DIRECTION ( 'NONE',  ( 8.260587980841936314E-17, -1.000000000000000000, 0.000000000000000000 ) ) ;
#396 = ORIENTED_EDGE ( 'NONE', *, *, #583, .F. ) ;
#397 = DIRECTION ( 'NONE',  ( 1.000000000000000000, 0.000000000000000000, 0.000000000000000000 ) ) ;
#398 = EDGE_CURVE ( 'NONE', #164, #69, #621, .T. ) ;
#399 = ORIENTED_EDGE ( 'NONE', *, *, #487, .F. ) ;
#400 = AXIS2_PLACEMENT_3D ( 'NONE', #112, #33, #336 ) ;
#401 = DIRECTION ( 'NONE',  ( 1.000000000000000000, 0.000000000000000000, 0.000000000000000000 ) ) ;
#402 = AXIS2_PLACEMENT_3D ( 'NONE', #364, #423, #275 ) ;
#403 = CARTESIAN_POINT ( 'NONE',  ( -15.50000000000000888, -15.50000000000000355, 0.000000000000000000 ) ) ;
#404 = SURFACE_SIDE_STYLE ('',( #103 ) ) ;
#405 = ORIENTED_EDGE ( 'NONE', *, *, #282, .T. ) ;
#406 = DIRECTION ( 'NONE',  ( -1.000000000000000000, 0.000000000000000000, 0.000000000000000000 ) ) ;
#407 = EDGE_CURVE ( 'NONE', #489, #256, #889, .T. ) ;
#408 = EDGE_LOOP ( 'NONE', ( #560, #478, #983, #206 ) ) ;
#409 = LINE ( 'NONE', #728, #884 ) ;
#410 = VECTOR ( 'NONE', #864, 1000.000000000000000 ) ;
#411 = EDGE_CURVE ( 'NONE', #700, #92, #953, .T. ) ;
#412 = SURFACE_SIDE_STYLE ('',( #637 ) ) ;
#413 = CARTESIAN_POINT ( 'NONE',  ( 19.49999999999998224, -19.50000000000002842, 8.000000000000000000 ) ) ;
#414 = EDGE_LOOP ( 'NONE', ( #540, #405 ) ) ;
#415 = DIRECTION ( 'NONE',  ( -1.000000000000000000, 0.000000000000000000, 0.000000000000000000 ) ) ;
#416 = EDGE_CURVE ( 'NONE', #796, #145, #1023, .T. ) ;
#417 = SURFACE_STYLE_USAGE ( .BOTH. , #412 ) ;
#418 = AXIS2_PLACEMENT_3D ( 'NONE', #284, #167, #80 ) ;
#419 = UNCERTAINTY_MEASURE_WITH_UNIT (LENGTH_MEASURE( 1.000000000000000082E-05 ), #870, 'distance_accuracy_value', 'NONE');
#420 = CIRCLE ( 'NONE', #805, 17.50000000000000355 ) ;
#421 = ORIENTED_EDGE ( 'NONE', *, *, #487, .T. ) ;
#422 = CARTESIAN_POINT ( 'NONE',  ( -17.25000000000000711, -15.50000000000000355, 8.000000000000000000 ) ) ;
#423 = DIRECTION ( 'NONE',  ( 0.000000000000000000, 0.000000000000000000, 1.000000000000000000 ) ) ;
#424 = CARTESIAN_POINT ( 'NONE',  ( 17.99999999999998934, 21.00000000000001066, 8.000000000000000000 ) ) ;
#425 = CARTESIAN_POINT ( 'NONE',  ( 20.99999999999999645, 21.00000000000001066, 8.000000000000000000 ) ) ;
#426 =( LENGTH_UNIT ( ) NAMED_UNIT ( * ) SI_UNIT ( .MILLI., .METRE. ) );
#427 = DIRECTION ( 'NONE',  ( 0.000000000000000000, -0.000000000000000000, -1.000000000000000000 ) ) ;
#428 = DIRECTION ( 'NONE',  ( -0.000000000000000000, -0.000000000000000000, -1.000000000000000000 ) ) ;
#429 = FACE_OUTER_BOUND ( 'NONE', #186, .T. ) ;
#430 = PRESENTATION_LAYER_ASSIGNMENT (  '', '', ( #965 ) ) ;
#431 = CARTESIAN_POINT ( 'NONE',  ( -17.50000000000000355, 0.000000000000000000, 8.000000000000000000 ) ) ;
#432 = EDGE_CURVE ( 'NONE', #778, #182, #11, .T. ) ;
#433 = VERTEX_POINT ( 'NONE', #476 ) ;
#434 = CARTESIAN_POINT ( 'NONE',  ( -21.00000000000000355, 21.00000000000000355, 0.000000000000000000 ) ) ;
#435 = PLANE ( 'NONE',  #558 ) ;
#436 = AXIS2_PLACEMENT_3D ( 'NONE', #443, #438, #820 ) ;
#437 = DIRECTION ( 'NONE',  ( 0.000000000000000000, 0.000000000000000000, 1.000000000000000000 ) ) ;
#438 = DIRECTION ( 'NONE',  ( 0.000000000000000000, 0.000000000000000000, 1.000000000000000000 ) ) ;
#439 = FACE_OUTER_BOUND ( 'NONE', #408, .T. ) ;
#440 = CARTESIAN_POINT ( 'NONE',  ( -15.50000000000001421, 15.50000000000000000, 8.000000000000000000 ) ) ;
#441 = EDGE_CURVE ( 'NONE', #178, #136, #90, .T. ) ;
#442 = DIRECTION ( 'NONE',  ( -0.000000000000000000, -0.000000000000000000, -1.000000000000000000 ) ) ;
#443 = CARTESIAN_POINT ( 'NONE',  ( 0.000000000000000000, 0.000000000000000000, 0.000000000000000000 ) ) ;
#444 = FACE_OUTER_BOUND ( 'NONE', #691, .T. ) ;
#445 = CARTESIAN_POINT ( 'NONE',  ( 0.000000000000000000, 0.000000000000000000, 0.000000000000000000 ) ) ;
#446 = EDGE_CURVE ( 'NONE', #161, #1005, #382, .T. ) ;
#447 = CIRCLE ( 'NONE', #76, 1.750000000000005107 ) ;
#448 = AXIS2_PLACEMENT_3D ( 'NONE', #293, #506, #829 ) ;
#449 = VERTEX_POINT ( 'NONE', #465 ) ;
#450 = CARTESIAN_POINT ( 'NONE',  ( -18.00000000000000711, -21.00000000000000355, 8.000000000000000000 ) ) ;
#451 = ADVANCED_FACE ( 'NONE', ( #232 ), #210, .F. ) ;
#452 = VECTOR ( 'NONE', #730, 1000.000000000000000 ) ;
#453 = ORIENTED_EDGE ( 'NONE', *, *, #583, .T. ) ;
#454 = ORIENTED_EDGE ( 'NONE', *, *, #234, .T. ) ;
#455 = CARTESIAN_POINT ( 'NONE',  ( -2.500000000000000000, 3.061616997868383141E-16, 6.000000000000000000 ) ) ;
#456 = EDGE_LOOP ( 'NONE', ( #383, #319, #1011, #212 ) ) ;
#457 = ORIENTED_EDGE ( 'NONE', *, *, #850, .F. ) ;
#458 = FACE_OUTER_BOUND ( 'NONE', #745, .T. ) ;
#459 = CARTESIAN_POINT ( 'NONE',  ( 0.000000000000000000, 0.000000000000000000, 4.000000000000000000 ) ) ;
#460 = EDGE_LOOP ( 'NONE', ( #252, #785, #98, #288 ) ) ;
#461 = AXIS2_PLACEMENT_3D ( 'NONE', #769, #70, #372 ) ;
#462 = ADVANCED_FACE ( 'NONE', ( #874 ), #920, .F. ) ;
#463 = ORIENTED_EDGE ( 'NONE', *, *, #269, .F. ) ;
#464 = DIRECTION ( 'NONE',  ( 1.000000000000000000, 0.000000000000000000, 0.000000000000000000 ) ) ;
#465 = CARTESIAN_POINT ( 'NONE',  ( 6.500000000000000888, 7.960204194457796463E-16, 6.000000000000000000 ) ) ;
#466 = VERTEX_POINT ( 'NONE', #938 ) ;
#467 = ORIENTED_EDGE ( 'NONE', *, *, #89, .T. ) ;
#468 = VECTOR ( 'NONE', #901, 1000.000000000000000 ) ;
#469 = CARTESIAN_POINT ( 'NONE',  ( 15.50000000000001421, -15.50000000000000533, 8.000000000000000000 ) ) ;
#470 = CARTESIAN_POINT ( 'NONE',  ( 17.25000000000001776, -15.50000000000000533, 8.000000000000000000 ) ) ;
#471 = UNCERTAINTY_MEASURE_WITH_UNIT (LENGTH_MEASURE( 1.000000000000000082E-05 ), #497, 'distance_accuracy_value', 'NONE');
#472 = ORIENTED_EDGE ( 'NONE', *, *, #926, .T. ) ;
#473 = FACE_OUTER_BOUND ( 'NONE', #940, .T. ) ;
#474 = ADVANCED_FACE ( 'NONE', ( #163 ), #866, .F. ) ;
#475 = EDGE_CURVE ( 'NONE', #299, #544, #843, .T. ) ;
#476 = CARTESIAN_POINT ( 'NONE',  ( 18.00000000000000711, -20.99999999999999645, 8.000000000000000000 ) ) ;
#477 = CIRCLE ( 'NONE', #917, 6.500000000000000888 ) ;
#478 = ORIENTED_EDGE ( 'NONE', *, *, #862, .T. ) ;
#479 = DIRECTION ( 'NONE',  ( -0.000000000000000000, -0.000000000000000000, -1.000000000000000000 ) ) ;
#480 = DIRECTION ( 'NONE',  ( -0.000000000000000000, -0.000000000000000000, -1.000000000000000000 ) ) ;
#481 = ORIENTED_EDGE ( 'NONE', *, *, #508, .F. ) ;
#482 = FACE_OUTER_BOUND ( 'NONE', #973, .T. ) ;
#483 = AXIS2_PLACEMENT_3D ( 'NONE', #588, #202, #344 ) ;
#484 = LINE ( 'NONE', #734, #618 ) ;
#485 = CIRCLE ( 'NONE', #3, 2.500000000000000000 ) ;
#486 = AXIS2_PLACEMENT_3D ( 'NONE', #538, #712, #242 ) ;
#487 = EDGE_CURVE ( 'NONE', #577, #358, #363, .T. ) ;
#488 = MANIFOLD_SOLID_BREP ( '모따기1', #855 ) ;
#489 = VERTEX_POINT ( 'NONE', #491 ) ;
#490 = DIRECTION ( 'NONE',  ( 0.000000000000000000, 0.000000000000000000, 1.000000000000000000 ) ) ;
#491 = CARTESIAN_POINT ( 'NONE',  ( 17.50000000000000355, 2.143131898507868643E-15, 9.000000000000001776 ) ) ;
#492 = LINE ( 'NONE', #736, #718 ) ;
#493 = EDGE_CURVE ( 'NONE', #858, #555, #289, .T. ) ;
#494 = APPLICATION_PROTOCOL_DEFINITION ( 'draft international standard', 'automotive_design', 1998, #869 ) ;
#495 = ORIENTED_EDGE ( 'NONE', *, *, #367, .T. ) ;
#496 = DIRECTION ( 'NONE',  ( -0.7071067811865483499, -0.7071067811865466846, -0.000000000000000000 ) ) ;
#497 =( LENGTH_UNIT ( ) NAMED_UNIT ( * ) SI_UNIT ( .MILLI., .METRE. ) );
#498 = EDGE_LOOP ( 'NONE', ( #715, #791, #217, #741 ) ) ;
#499 = CARTESIAN_POINT ( 'NONE',  ( 15.50000000000001421, 15.50000000000000000, 0.000000000000000000 ) ) ;
#500 = CARTESIAN_POINT ( 'NONE',  ( 0.000000000000000000, 0.000000000000000000, 9.000000000000001776 ) ) ;
#501 = CARTESIAN_POINT ( 'NONE',  ( -19.50000000000002842, -19.49999999999998224, 8.000000000000000000 ) ) ;
#502 = CARTESIAN_POINT ( 'NONE',  ( 13.75000000000000888, -15.50000000000000533, 0.000000000000000000 ) ) ;
#503 = CARTESIAN_POINT ( 'NONE',  ( -21.00000000000000000, -18.00000000000000355, 8.000000000000000000 ) ) ;
#504 = ORIENTED_EDGE ( 'NONE', *, *, #539, .F. ) ;
#505 = DIRECTION ( 'NONE',  ( 0.000000000000000000, 0.000000000000000000, 1.000000000000000000 ) ) ;
#506 = DIRECTION ( 'NONE',  ( 0.000000000000000000, 0.000000000000000000, 1.000000000000000000 ) ) ;
#507 = ADVANCED_FACE ( 'NONE', ( #325 ), #173, .F. ) ;
#508 = EDGE_CURVE ( 'NONE', #701, #92, #193, .T. ) ;
#509 = CARTESIAN_POINT ( 'NONE',  ( 20.99999999999999645, 18.00000000000000355, 0.000000000000000000 ) ) ;
#510 = ORIENTED_EDGE ( 'NONE', *, *, #398, .T. ) ;
#511 = CARTESIAN_POINT ( 'NONE',  ( 17.25000000000001776, -15.50000000000000533, 0.000000000000000000 ) ) ;
#512 = DIRECTION ( 'NONE',  ( -0.000000000000000000, -0.000000000000000000, -1.000000000000000000 ) ) ;
#513 = AXIS2_PLACEMENT_3D ( 'NONE', #849, #873, #464 ) ;
#514 = LINE ( 'NONE', #121, #601 ) ;
#515 = ORIENTED_EDGE ( 'NONE', *, *, #407, .T. ) ;
#516 = CYLINDRICAL_SURFACE ( 'NONE', #1, 6.500000000000000888 ) ;
#517 = CARTESIAN_POINT ( 'NONE',  ( 18.00000000000000711, -20.99999999999999645, 8.000000000000000000 ) ) ;
#518 = AXIS2_PLACEMENT_3D ( 'NONE', #548, #603, #943 ) ;
#519 = AXIS2_PLACEMENT_3D ( 'NONE', #688, #927, #1008 ) ;
#520 = FACE_OUTER_BOUND ( 'NONE', #85, .T. ) ;
#521 = EDGE_CURVE ( 'NONE', #92, #701, #773, .T. ) ;
#522 = ORIENTED_EDGE ( 'NONE', *, *, #322, .T. ) ;
#523 = DIRECTION ( 'NONE',  ( 1.000000000000000000, 0.000000000000000000, 0.000000000000000000 ) ) ;
#524 = DIRECTION ( 'NONE',  ( 0.000000000000000000, 0.000000000000000000, 1.000000000000000000 ) ) ;
#525 = ORIENTED_EDGE ( 'NONE', *, *, #713, .T. ) ;
#526 = EDGE_CURVE ( 'NONE', #680, #188, #484, .T. ) ;
#527 = CARTESIAN_POINT ( 'NONE',  ( 13.75000000000001066, 15.50000000000000000, 8.000000000000000000 ) ) ;
#528 = CIRCLE ( 'NONE', #315, 6.500000000000000888 ) ;
#529 = AXIS2_PLACEMENT_3D ( 'NONE', #169, #490, #807 ) ;
#530 = ORIENTED_EDGE ( 'NONE', *, *, #526, .F. ) ;
#531 = VERTEX_POINT ( 'NONE', #888 ) ;
#532 = CARTESIAN_POINT ( 'NONE',  ( 0.000000000000000000, 0.000000000000000000, 4.000000000000000000 ) ) ;
#533 = ORIENTED_EDGE ( 'NONE', *, *, #67, .T. ) ;
#534 = AXIS2_PLACEMENT_3D ( 'NONE', #500, #597, #591 ) ;
#535 = AXIS2_PLACEMENT_3D ( 'NONE', #981, #557, #634 ) ;
#536 = ORIENTED_EDGE ( 'NONE', *, *, #872, .T. ) ;
#537 = CARTESIAN_POINT ( 'NONE',  ( 18.00000000000000355, 21.00000000000001066, 8.000000000000000000 ) ) ;
#538 = CARTESIAN_POINT ( 'NONE',  ( -21.00000000000000355, 21.00000000000000355, 8.000000000000000000 ) ) ;
#539 = EDGE_CURVE ( 'NONE', #806, #267, #485, .T. ) ;
#540 = ORIENTED_EDGE ( 'NONE', *, *, #386, .T. ) ;
#541 = ORIENTED_EDGE ( 'NONE', *, *, #930, .T. ) ;
#542 = CARTESIAN_POINT ( 'NONE',  ( 0.000000000000000000, 0.000000000000000000, 0.000000000000000000 ) ) ;
#543 = DIRECTION ( 'NONE',  ( -8.260587980841936314E-17, 1.000000000000000000, 0.000000000000000000 ) ) ;
#544 = VERTEX_POINT ( 'NONE', #106 ) ;
#545 = CIRCLE ( 'NONE', #683, 20.00000000000000000 ) ;
#546 = ORIENTED_EDGE ( 'NONE', *, *, #46, .F. ) ;
#547 = CARTESIAN_POINT ( 'NONE',  ( -2.500000000000000000, 3.061616997868383141E-16, 4.000000000000000000 ) ) ;
#548 = CARTESIAN_POINT ( 'NONE',  ( 0.000000000000000000, 0.000000000000000000, 8.000000000000000000 ) ) ;
#549 = VECTOR ( 'NONE', #393, 1000.000000000000000 ) ;
#550 = ADVANCED_FACE ( 'NONE', ( #339 ), #37, .F. ) ;
#551 = EDGE_CURVE ( 'NONE', #932, #309, #249, .T. ) ;
#552 = ORIENTED_EDGE ( 'NONE', *, *, #269, .T. ) ;
#553 = CARTESIAN_POINT ( 'NONE',  ( 0.000000000000000000, 0.000000000000000000, 8.000000000000000000 ) ) ;
#554 = CARTESIAN_POINT ( 'NONE',  ( -21.00000000000000355, 21.00000000000000355, 8.000000000000000000 ) ) ;
#555 = VERTEX_POINT ( 'NONE', #882 ) ;
#556 = DIRECTION ( 'NONE',  ( -0.000000000000000000, 0.000000000000000000, 1.000000000000000000 ) ) ;
#557 = DIRECTION ( 'NONE',  ( 0.000000000000000000, 0.000000000000000000, 1.000000000000000000 ) ) ;
#558 = AXIS2_PLACEMENT_3D ( 'NONE', #986, #366, #754 ) ;
#559 =( NAMED_UNIT ( * ) PLANE_ANGLE_UNIT ( ) SI_UNIT ( $, .RADIAN. ) );
#560 = ORIENTED_EDGE ( 'NONE', *, *, #398, .F. ) ;
#561 = CARTESIAN_POINT ( 'NONE',  ( 15.50000000000001421, 15.50000000000000000, 8.000000000000000000 ) ) ;
#562 =( NAMED_UNIT ( * ) PLANE_ANGLE_UNIT ( ) SI_UNIT ( $, .RADIAN. ) );
#563 = ORIENTED_EDGE ( 'NONE', *, *, #55, .T. ) ;
#564 = VECTOR ( 'NONE', #238, 1000.000000000000000 ) ;
#565 = CARTESIAN_POINT ( 'NONE',  ( 0.000000000000000000, 0.000000000000000000, 8.000000000000000000 ) ) ;
#566 = FILL_AREA_STYLE_COLOUR ( '', #650 ) ;
#567 = AXIS2_PLACEMENT_3D ( 'NONE', #630, #596, #228 ) ;
#568 = EDGE_CURVE ( 'NONE', #778, #373, #575, .T. ) ;
#569 = PLANE ( 'NONE',  #214 ) ;
#570 = DIRECTION ( 'NONE',  ( 1.000000000000000000, 0.000000000000000000, 0.000000000000000000 ) ) ;
#571 = ORIENTED_EDGE ( 'NONE', *, *, #107, .T. ) ;
#572 = DIRECTION ( 'NONE',  ( 1.000000000000000000, 0.000000000000000000, 0.000000000000000000 ) ) ;
#573 = CARTESIAN_POINT ( 'NONE',  ( 0.000000000000000000, 0.000000000000000000, 4.000000000000000000 ) ) ;
#574 = DIRECTION ( 'NONE',  ( 0.000000000000000000, 0.000000000000000000, 1.000000000000000000 ) ) ;
#575 = CIRCLE ( 'NONE', #1000, 1.750000000000005107 ) ;
#576 = CARTESIAN_POINT ( 'NONE',  ( 0.000000000000000000, 0.000000000000000000, 0.000000000000000000 ) ) ;
#577 = VERTEX_POINT ( 'NONE', #329 ) ;
#578 = LINE ( 'NONE', #501, #292 ) ;
#579 =( GEOMETRIC_REPRESENTATION_CONTEXT ( 3 ) GLOBAL_UNCERTAINTY_ASSIGNED_CONTEXT ( ( #419 ) ) GLOBAL_UNIT_ASSIGNED_CONTEXT ( ( #870, #559, #950 ) ) REPRESENTATION_CONTEXT ( 'NONE', 'WORKASPACE' ) );
#580 = CARTESIAN_POINT ( 'NONE',  ( -21.00000000000000355, 18.00000000000000355, 8.000000000000000000 ) ) ;
#581 = FACE_OUTER_BOUND ( 'NONE', #138, .T. ) ;
#582 = FACE_OUTER_BOUND ( 'NONE', #652, .T. ) ;
#583 = EDGE_CURVE ( 'NONE', #806, #796, #808, .T. ) ;
#584 = AXIS2_PLACEMENT_3D ( 'NONE', #199, #342, #893 ) ;
#585 = CYLINDRICAL_SURFACE ( 'NONE', #235, 2.500000000000000000 ) ;
#586 = DIRECTION ( 'NONE',  ( 0.000000000000000000, 0.000000000000000000, 1.000000000000000000 ) ) ;
#587 = ORIENTED_EDGE ( 'NONE', *, *, #684, .F. ) ;
#588 = CARTESIAN_POINT ( 'NONE',  ( 0.000000000000000000, 0.000000000000000000, 4.000000000000000000 ) ) ;
#589 = LINE ( 'NONE', #517, #27 ) ;
#590 = CARTESIAN_POINT ( 'NONE',  ( -13.75000000000000888, -15.50000000000000355, 0.000000000000000000 ) ) ;
#591 = DIRECTION ( 'NONE',  ( -1.000000000000000000, 0.000000000000000000, 0.000000000000000000 ) ) ;
#592 = CARTESIAN_POINT ( 'NONE',  ( -21.00000000000000000, -21.00000000000000355, 0.000000000000000000 ) ) ;
#593 = CARTESIAN_POINT ( 'NONE',  ( -17.25000000000001421, 15.50000000000000000, 8.000000000000000000 ) ) ;
#594 = VECTOR ( 'NONE', #729, 1000.000000000000000 ) ;
#595 = EDGE_CURVE ( 'NONE', #1012, #701, #180, .T. ) ;
#596 = DIRECTION ( 'NONE',  ( -0.000000000000000000, -0.000000000000000000, -1.000000000000000000 ) ) ;
#597 = DIRECTION ( 'NONE',  ( -0.000000000000000000, -0.000000000000000000, -1.000000000000000000 ) ) ;
#598 = CARTESIAN_POINT ( 'NONE',  ( -15.50000000000001421, 15.50000000000000000, 8.000000000000000000 ) ) ;
#599 = DIRECTION ( 'NONE',  ( 0.000000000000000000, 0.000000000000000000, 1.000000000000000000 ) ) ;
#600 = AXIS2_PLACEMENT_3D ( 'NONE', #129, #971, #259 ) ;
#601 = VECTOR ( 'NONE', #644, 1000.000000000000000 ) ;
#602 = EDGE_LOOP ( 'NONE', ( #142, #463 ) ) ;
#603 = DIRECTION ( 'NONE',  ( 0.000000000000000000, 0.000000000000000000, 1.000000000000000000 ) ) ;
#604 = ADVANCED_FACE ( 'NONE', ( #31, #332 ), #649, .F. ) ;
#605 = VERTEX_POINT ( 'NONE', #994 ) ;
#606 = FACE_BOUND ( 'NONE', #323, .T. ) ;
#607 = CARTESIAN_POINT ( 'NONE',  ( 21.00000000000000711, -18.00000000000000355, 8.000000000000000000 ) ) ;
#608 = ORIENTED_EDGE ( 'NONE', *, *, #89, .F. ) ;
#609 = EDGE_LOOP ( 'NONE', ( #23, #809, #126, #371 ) ) ;
#610 = CARTESIAN_POINT ( 'NONE',  ( 17.25000000000001776, 15.50000000000000000, 8.000000000000000000 ) ) ;
#611 = AXIS2_PLACEMENT_3D ( 'NONE', #887, #183, #397 ) ;
#612 = AXIS2_PLACEMENT_3D ( 'NONE', #327, #165, #415 ) ;
#613 = ORIENTED_EDGE ( 'NONE', *, *, #322, .F. ) ;
#614 = ORIENTED_EDGE ( 'NONE', *, *, #441, .F. ) ;
#615 = DIRECTION ( 'NONE',  ( -0.7071067811865491270, -0.7071067811865459074, -0.000000000000000000 ) ) ;
#616 = ADVANCED_FACE ( 'NONE', ( #429 ), #277, .F. ) ;
#617 = ORIENTED_EDGE ( 'NONE', *, *, #784, .T. ) ;
#618 = VECTOR ( 'NONE', #480, 1000.000000000000000 ) ;
#619 = ORIENTED_EDGE ( 'NONE', *, *, #234, .F. ) ;
#620 = LINE ( 'NONE', #942, #410 ) ;
#621 = LINE ( 'NONE', #794, #970 ) ;
#622 = ORIENTED_EDGE ( 'NONE', *, *, #367, .F. ) ;
#623 = EDGE_CURVE ( 'NONE', #224, #7, #765, .T. ) ;
#624 = ORIENTED_EDGE ( 'NONE', *, *, #521, .T. ) ;
#625 = FACE_OUTER_BOUND ( 'NONE', #665, .T. ) ;
#626 = FACE_OUTER_BOUND ( 'NONE', #326, .T. ) ;
#627 = EDGE_CURVE ( 'NONE', #555, #290, #998, .T. ) ;
#628 = VERTEX_POINT ( 'NONE', #835 ) ;
#629 = DIRECTION ( 'NONE',  ( -0.000000000000000000, -0.000000000000000000, -1.000000000000000000 ) ) ;
#630 = CARTESIAN_POINT ( 'NONE',  ( 15.50000000000001421, 15.50000000000000000, 8.000000000000000000 ) ) ;
#631 = EDGE_CURVE ( 'NONE', #466, #161, #128, .T. ) ;
#632 = ORIENTED_EDGE ( 'NONE', *, *, #881, .F. ) ;
#633 = LINE ( 'NONE', #177, #250 ) ;
#634 = DIRECTION ( 'NONE',  ( 1.000000000000000000, 0.000000000000000000, 0.000000000000000000 ) ) ;
#635 = EDGE_LOOP ( 'NONE', ( #996, #685 ) ) ;
#636 = DIRECTION ( 'NONE',  ( -0.000000000000000000, -0.000000000000000000, -1.000000000000000000 ) ) ;
#637 = SURFACE_STYLE_FILL_AREA ( #26 ) ;
#638 = AXIS2_PLACEMENT_3D ( 'NONE', #542, #859, #379 ) ;
#639 =( GEOMETRIC_REPRESENTATION_CONTEXT ( 3 ) GLOBAL_UNCERTAINTY_ASSIGNED_CONTEXT ( ( #389 ) ) GLOBAL_UNIT_ASSIGNED_CONTEXT ( ( #426, #352, #744 ) ) REPRESENTATION_CONTEXT ( 'NONE', 'WORKASPACE' ) );
#640 = ORIENTED_EDGE ( 'NONE', *, *, #160, .T. ) ;
#641 = DIRECTION ( 'NONE',  ( 1.000000000000000000, 0.000000000000000000, 0.000000000000000000 ) ) ;
#642 = EDGE_CURVE ( 'NONE', #104, #433, #589, .T. ) ;
#643 = DIRECTION ( 'NONE',  ( -0.7071067811865466846, 0.7071067811865483499, 0.000000000000000000 ) ) ;
#644 = DIRECTION ( 'NONE',  ( -0.000000000000000000, -0.000000000000000000, -1.000000000000000000 ) ) ;
#645 = VECTOR ( 'NONE', #916, 1000.000000000000000 ) ;
#646 = ORIENTED_EDGE ( 'NONE', *, *, #784, .F. ) ;
#647 = CARTESIAN_POINT ( 'NONE',  ( 0.000000000000000000, 0.000000000000000000, 6.000000000000000000 ) ) ;
#648 = VECTOR ( 'NONE', #65, 1000.000000000000000 ) ;
#649 = PLANE ( 'NONE',  #766 ) ;
#650 = COLOUR_RGB ( '',0.7921568627450980005, 0.8196078431372548767, 0.9333333333333333481 ) ;
#651 = CARTESIAN_POINT ( 'NONE',  ( -15.50000000000000888, -15.50000000000000355, 0.000000000000000000 ) ) ;
#652 = EDGE_LOOP ( 'NONE', ( #871, #378, #962, #977 ) ) ;
#653 = CARTESIAN_POINT ( 'NONE',  ( 6.500000000000000888, 7.960204194457796463E-16, 4.000000000000000000 ) ) ;
#654 =( NAMED_UNIT ( * ) SI_UNIT ( $, .STERADIAN. ) SOLID_ANGLE_UNIT ( ) );
#655 = VERTEX_POINT ( 'NONE', #607 ) ;
#656 = DIRECTION ( 'NONE',  ( -0.000000000000000000, 0.000000000000000000, 1.000000000000000000 ) ) ;
#657 = ADVANCED_FACE ( 'NONE', ( #910, #928 ), #59, .T. ) ;
#658 = AXIS2_PLACEMENT_3D ( 'NONE', #1021, #305, #317 ) ;
#659 = DIRECTION ( 'NONE',  ( 0.000000000000000000, 0.000000000000000000, 1.000000000000000000 ) ) ;
#660 = ORIENTED_EDGE ( 'NONE', *, *, #223, .T. ) ;
#661 = CARTESIAN_POINT ( 'NONE',  ( 17.25000000000001776, 15.50000000000000000, 0.000000000000000000 ) ) ;
#662 = AXIS2_PLACEMENT_3D ( 'NONE', #576, #659, #570 ) ;
#663 = DIRECTION ( 'NONE',  ( -1.000000000000000000, 0.000000000000000000, 0.000000000000000000 ) ) ;
#664 = DIRECTION ( 'NONE',  ( 1.000000000000000000, 0.000000000000000000, 0.000000000000000000 ) ) ;
#665 = EDGE_LOOP ( 'NONE', ( #194, #660, #861, #153 ) ) ;
#666 = DIRECTION ( 'NONE',  ( 0.000000000000000000, 0.000000000000000000, 1.000000000000000000 ) ) ;
#667 = DIRECTION ( 'NONE',  ( 1.000000000000000000, 0.000000000000000000, -0.000000000000000000 ) ) ;
#668 = ADVANCED_FACE ( 'NONE', ( #676 ), #739, .F. ) ;
#669 = VECTOR ( 'NONE', #428, 1000.000000000000000 ) ;
#670 = EDGE_LOOP ( 'NONE', ( #646, #8 ) ) ;
#671 = CARTESIAN_POINT ( 'NONE',  ( -21.00000000000000000, -18.00000000000000355, 0.000000000000000000 ) ) ;
#672 = ORIENTED_EDGE ( 'NONE', *, *, #407, .F. ) ;
#673 = CARTESIAN_POINT ( 'NONE',  ( 0.000000000000000000, 0.000000000000000000, 9.000000000000001776 ) ) ;
#674 = PRODUCT_RELATED_PRODUCT_CATEGORY ( 'part', '', ( #86 ) ) ;
#675 = AXIS2_PLACEMENT_3D ( 'NONE', #721, #717, #798 ) ;
#676 = FACE_OUTER_BOUND ( 'NONE', #456, .T. ) ;
#677 = ADVANCED_FACE ( 'NONE', ( #66 ), #435, .F. ) ;
#678 = ORIENTED_EDGE ( 'NONE', *, *, #176, .T. ) ;
#679 = DIRECTION ( 'NONE',  ( 0.000000000000000000, 0.000000000000000000, 1.000000000000000000 ) ) ;
#680 = VERTEX_POINT ( 'NONE', #593 ) ;
#681 = LINE ( 'NONE', #592, #335 ) ;
#682 = CARTESIAN_POINT ( 'NONE',  ( 0.000000000000000000, 0.000000000000000000, 9.000000000000001776 ) ) ;
#683 = AXIS2_PLACEMENT_3D ( 'NONE', #720, #891, #401 ) ;
#684 = EDGE_CURVE ( 'NONE', #35, #149, #831, .T. ) ;
#685 = ORIENTED_EDGE ( 'NONE', *, *, #722, .T. ) ;
#686 = CARTESIAN_POINT ( 'NONE',  ( -6.500000000000000888, 0.000000000000000000, 8.000000000000000000 ) ) ;
#687 = CARTESIAN_POINT ( 'NONE',  ( -21.00000000000000355, 18.00000000000000355, 0.000000000000000000 ) ) ;
#688 = CARTESIAN_POINT ( 'NONE',  ( -15.50000000000000888, -15.50000000000000355, 8.000000000000000000 ) ) ;
#689 = CARTESIAN_POINT ( 'NONE',  ( 0.000000000000000000, 0.000000000000000000, 4.000000000000000000 ) ) ;
#690 = CIRCLE ( 'NONE', #755, 17.50000000000000355 ) ;
#691 = EDGE_LOOP ( 'NONE', ( #14, #890, #863, #399 ) ) ;
#692 = ORIENTED_EDGE ( 'NONE', *, *, #493, .T. ) ;
#693 = DIRECTION ( 'NONE',  ( 0.000000000000000000, 0.000000000000000000, 1.000000000000000000 ) ) ;
#694 = VERTEX_POINT ( 'NONE', #919 ) ;
#695 = ADVANCED_FACE ( 'NONE', ( #134 ), #360, .T. ) ;
#696 = ORIENTED_EDGE ( 'NONE', *, *, #282, .F. ) ;
#697 = PLANE ( 'NONE',  #799 ) ;
#698 = CIRCLE ( 'NONE', #377, 6.500000000000000888 ) ;
#699 = VECTOR ( 'NONE', #109, 1000.000000000000000 ) ;
#700 = VERTEX_POINT ( 'NONE', #287 ) ;
#701 = VERTEX_POINT ( 'NONE', #502 ) ;
#702 = DIRECTION ( 'NONE',  ( 0.000000000000000000, 0.000000000000000000, -1.000000000000000000 ) ) ;
#703 = CARTESIAN_POINT ( 'NONE',  ( -21.00000000000000355, 21.00000000000000355, 8.000000000000000000 ) ) ;
#704 = ORIENTED_EDGE ( 'NONE', *, *, #993, .F. ) ;
#705 = EDGE_LOOP ( 'NONE', ( #1007, #801 ) ) ;
#706 = CARTESIAN_POINT ( 'NONE',  ( -13.75000000000000888, -15.50000000000000355, 8.000000000000000000 ) ) ;
#707 = ADVANCED_FACE ( 'NONE', ( #825 ), #585, .F. ) ;
#708 = CARTESIAN_POINT ( 'NONE',  ( 13.75000000000000888, 15.50000000000000000, 8.000000000000000000 ) ) ;
#709 = ORIENTED_EDGE ( 'NONE', *, *, #521, .F. ) ;
#710 = ORIENTED_EDGE ( 'NONE', *, *, #441, .T. ) ;
#711 = FACE_OUTER_BOUND ( 'NONE', #498, .T. ) ;
#712 = DIRECTION ( 'NONE',  ( 1.652117596168388002E-16, -1.000000000000000000, 0.000000000000000000 ) ) ;
#713 = EDGE_CURVE ( 'NONE', #358, #449, #698, .T. ) ;
#714 = AXIS2_PLACEMENT_3D ( 'NONE', #967, #636, #963 ) ;
#715 = ORIENTED_EDGE ( 'NONE', *, *, #160, .F. ) ;
#716 = DIRECTION ( 'NONE',  ( 0.000000000000000000, 0.000000000000000000, 1.000000000000000000 ) ) ;
#717 = DIRECTION ( 'NONE',  ( 0.000000000000000000, 0.000000000000000000, 1.000000000000000000 ) ) ;
#718 = VECTOR ( 'NONE', #749, 1000.000000000000000 ) ;
#719 = ORIENTED_EDGE ( 'NONE', *, *, #260, .T. ) ;
#720 = CARTESIAN_POINT ( 'NONE',  ( 0.000000000000000000, 0.000000000000000000, 9.000000000000001776 ) ) ;
#721 = CARTESIAN_POINT ( 'NONE',  ( 15.50000000000001421, -15.50000000000000533, 0.000000000000000000 ) ) ;
#722 = EDGE_CURVE ( 'NONE', #69, #531, #528, .T. ) ;
#723 = ORIENTED_EDGE ( 'NONE', *, *, #642, .T. ) ;
#724 = LINE ( 'NONE', #24, #1018 ) ;
#725 = DIRECTION ( 'NONE',  ( 0.000000000000000000, 0.000000000000000000, 1.000000000000000000 ) ) ;
#726 = AXIS2_PLACEMENT_3D ( 'NONE', #682, #272, #1003 ) ;
#727 = EDGE_LOOP ( 'NONE', ( #396, #608, #816, #279 ) ) ;
#728 = CARTESIAN_POINT ( 'NONE',  ( -17.99999999999999645, 21.00000000000000355, 8.000000000000000000 ) ) ;
#729 = DIRECTION ( 'NONE',  ( -0.000000000000000000, -0.000000000000000000, -1.000000000000000000 ) ) ;
#730 = DIRECTION ( 'NONE',  ( -0.000000000000000000, -0.000000000000000000, -1.000000000000000000 ) ) ;
#731 = EDGE_LOOP ( 'NONE', ( #113, #201, #945, #381, #390, #640, #710, #247 ) ) ;
#732 = FACE_OUTER_BOUND ( 'NONE', #602, .T. ) ;
#733 = CIRCLE ( 'NONE', #600, 6.500000000000000888 ) ;
#734 = CARTESIAN_POINT ( 'NONE',  ( -17.25000000000001421, 15.50000000000000000, 8.000000000000000000 ) ) ;
#735 = EDGE_CURVE ( 'NONE', #1005, #161, #143, .T. ) ;
#736 = CARTESIAN_POINT ( 'NONE',  ( -21.00000000000000355, 21.00000000000000355, 0.000000000000000000 ) ) ;
#737 = CYLINDRICAL_SURFACE ( 'NONE', #273, 1.750000000000003331 ) ;
#738 = CARTESIAN_POINT ( 'NONE',  ( 0.000000000000000000, 0.000000000000000000, 8.000000000000000000 ) ) ;
#739 = CYLINDRICAL_SURFACE ( 'NONE', #283, 1.749999999999999778 ) ;
#740 = EDGE_CURVE ( 'NONE', #373, #605, #147, .T. ) ;
#741 = ORIENTED_EDGE ( 'NONE', *, *, #793, .F. ) ;
#742 = PLANE ( 'NONE',  #400 ) ;
#743 = AXIS2_PLACEMENT_3D ( 'NONE', #647, #338, #572 ) ;
#744 =( NAMED_UNIT ( * ) SI_UNIT ( $, .STERADIAN. ) SOLID_ANGLE_UNIT ( ) );
#745 = EDGE_LOOP ( 'NONE', ( #369, #1019, #756, #313, #613, #244, #457, #985 ) ) ;
#746 = CARTESIAN_POINT ( 'NONE',  ( -17.25000000000000711, -15.50000000000000355, 8.000000000000000000 ) ) ;
#747 = VECTOR ( 'NONE', #257, 1000.000000000000000 ) ;
#748 = DIRECTION ( 'NONE',  ( 0.000000000000000000, 0.000000000000000000, 1.000000000000000000 ) ) ;
#749 = DIRECTION ( 'NONE',  ( -1.000000000000000000, -1.652117596168387756E-16, -0.000000000000000000 ) ) ;
#750 = PRODUCT_DEFINITION ( 'UNKNOWN', '', #834, #91 ) ;
#751 = CYLINDRICAL_SURFACE ( 'NONE', #534, 17.50000000000000355 ) ;
#752 = CARTESIAN_POINT ( 'NONE',  ( 0.000000000000000000, 0.000000000000000000, 9.000000000000001776 ) ) ;
#753 = AXIS2_PLACEMENT_3D ( 'NONE', #459, #311, #84 ) ;
#754 = DIRECTION ( 'NONE',  ( 0.000000000000000000, 0.000000000000000000, -1.000000000000000000 ) ) ;
#755 = AXIS2_PLACEMENT_3D ( 'NONE', #827, #427, #127 ) ;
#756 = ORIENTED_EDGE ( 'NONE', *, *, #60, .F. ) ;
#757 = LINE ( 'NONE', #422, #645 ) ;
#758 = FACE_OUTER_BOUND ( 'NONE', #609, .T. ) ;
#759 = CARTESIAN_POINT ( 'NONE',  ( 0.000000000000000000, 0.000000000000000000, 8.000000000000000000 ) ) ;
#760 = EDGE_CURVE ( 'NONE', #694, #104, #1017, .T. ) ;
#761 = DIRECTION ( 'NONE',  ( -0.000000000000000000, -0.000000000000000000, -1.000000000000000000 ) ) ;
#762 = DIRECTION ( 'NONE',  ( 0.000000000000000000, 0.000000000000000000, 1.000000000000000000 ) ) ;
#763 = EDGE_LOOP ( 'NONE', ( #876, #472 ) ) ;
#764 = CARTESIAN_POINT ( 'NONE',  ( 19.50000000000004974, 19.49999999999995737, 8.000000000000000000 ) ) ;
#765 = LINE ( 'NONE', #350, #1015 ) ;
#766 = AXIS2_PLACEMENT_3D ( 'NONE', #573, #898, #667 ) ;
#767 = EDGE_LOOP ( 'NONE', ( #704, #171, #303, #1016 ) ) ;
#768 = ORIENTED_EDGE ( 'NONE', *, *, #67, .F. ) ;
#769 = CARTESIAN_POINT ( 'NONE',  ( 20.99999999999999645, 21.00000000000001066, 8.000000000000000000 ) ) ;
#770 = VECTOR ( 'NONE', #995, 1000.000000000000000 ) ;
#771 = EDGE_CURVE ( 'NONE', #149, #35, #899, .T. ) ;
#772 = EDGE_CURVE ( 'NONE', #700, #1012, #848, .T. ) ;
#773 = CIRCLE ( 'NONE', #675, 1.750000000000005107 ) ;
#774 = ORIENTED_EDGE ( 'NONE', *, *, #793, .T. ) ;
#775 = ORIENTED_EDGE ( 'NONE', *, *, #25, .F. ) ;
#776 = FACE_OUTER_BOUND ( 'NONE', #915, .T. ) ;
#777 = VECTOR ( 'NONE', #905, 1000.000000000000000 ) ;
#778 = VERTEX_POINT ( 'NONE', #610 ) ;
#779 = ORIENTED_EDGE ( 'NONE', *, *, #771, .F. ) ;
#780 = FACE_BOUND ( 'NONE', #705, .T. ) ;
#781 = CIRCLE ( 'NONE', #328, 1.750000000000005107 ) ;
#782 = PLANE ( 'NONE',  #418 ) ;
#783 = ORIENTED_EDGE ( 'NONE', *, *, #991, .T. ) ;
#784 = EDGE_CURVE ( 'NONE', #1012, #700, #447, .T. ) ;
#785 = ORIENTED_EDGE ( 'NONE', *, *, #642, .F. ) ;
#786 = LINE ( 'NONE', #537, #865 ) ;
#787 = CYLINDRICAL_SURFACE ( 'NONE', #821, 17.50000000000000355 ) ;
#788 = AXIS2_PLACEMENT_3D ( 'NONE', #387, #56, #152 ) ;
#789 = EDGE_LOOP ( 'NONE', ( #168, #150, #209, #709 ) ) ;
#790 = VECTOR ( 'NONE', #45, 1000.000000000000000 ) ;
#791 = ORIENTED_EDGE ( 'NONE', *, *, #475, .F. ) ;
#792 = DIRECTION ( 'NONE',  ( -0.7071067811865483499, -0.7071067811865466846, -0.000000000000000000 ) ) ;
#793 = EDGE_CURVE ( 'NONE', #178, #934, #786, .T. ) ;
#794 = CARTESIAN_POINT ( 'NONE',  ( 6.500000000000000888, 7.960204194457796463E-16, 8.000000000000000000 ) ) ;
#795 = APPLICATION_CONTEXT ( 'automotive_design' ) ;
#796 = VERTEX_POINT ( 'NONE', #455 ) ;
#797 = CYLINDRICAL_SURFACE ( 'NONE', #714, 6.500000000000000888 ) ;
#798 = DIRECTION ( 'NONE',  ( 1.000000000000000000, 0.000000000000000000, 0.000000000000000000 ) ) ;
#799 = AXIS2_PLACEMENT_3D ( 'NONE', #218, #615, #237 ) ;
#800 = VECTOR ( 'NONE', #29, 1000.000000000000000 ) ;
#801 = ORIENTED_EDGE ( 'NONE', *, *, #416, .F. ) ;
#802 = DIRECTION ( 'NONE',  ( 1.000000000000000000, 0.000000000000000000, 0.000000000000000000 ) ) ;
#803 = DIRECTION ( 'NONE',  ( 1.000000000000000000, 0.000000000000000000, 0.000000000000000000 ) ) ;
#804 = ADVANCED_FACE ( 'NONE', ( #711 ), #697, .F. ) ;
#805 = AXIS2_PLACEMENT_3D ( 'NONE', #752, #505, #189 ) ;
#806 = VERTEX_POINT ( 'NONE', #547 ) ;
#807 = DIRECTION ( 'NONE',  ( 1.000000000000000000, 0.000000000000000000, 0.000000000000000000 ) ) ;
#808 = LINE ( 'NONE', #254, #982 ) ;
#809 = ORIENTED_EDGE ( 'NONE', *, *, #432, .T. ) ;
#810 = LINE ( 'NONE', #814, #699 ) ;
#811 = VECTOR ( 'NONE', #119, 1000.000000000000000 ) ;
#812 = FACE_OUTER_BOUND ( 'NONE', #301, .T. ) ;
#813 = EDGE_LOOP ( 'NONE', ( #353, #229, #47, #900 ) ) ;
#814 = CARTESIAN_POINT ( 'NONE',  ( 6.500000000000000888, 7.960204194457796463E-16, 8.000000000000000000 ) ) ;
#815 = ADVANCED_FACE ( 'NONE', ( #776 ), #9, .F. ) ;
#816 = ORIENTED_EDGE ( 'NONE', *, *, #25, .T. ) ;
#817 = CARTESIAN_POINT ( 'NONE',  ( -13.75000000000001243, 15.50000000000000000, 8.000000000000000000 ) ) ;
#818 = CIRCLE ( 'NONE', #584, 17.50000000000000355 ) ;
#819 = SURFACE_STYLE_USAGE ( .BOTH. , #404 ) ;
#820 = DIRECTION ( 'NONE',  ( 1.000000000000000000, 0.000000000000000000, 0.000000000000000000 ) ) ;
#821 = AXIS2_PLACEMENT_3D ( 'NONE', #307, #442, #949 ) ;
#822 = CARTESIAN_POINT ( 'NONE',  ( -15.50000000000001421, 15.50000000000000000, 0.000000000000000000 ) ) ;
#823 = CIRCLE ( 'NONE', #955, 6.500000000000000888 ) ;
#824 = ADVANCED_FACE ( 'NONE', ( #458, #73, #300, #297, #392, #78 ), #933, .F. ) ;
#825 = FACE_OUTER_BOUND ( 'NONE', #727, .T. ) ;
#826 = CARTESIAN_POINT ( 'NONE',  ( 21.00000000000000711, -18.00000000000000355, 8.000000000000000000 ) ) ;
#827 = CARTESIAN_POINT ( 'NONE',  ( 0.000000000000000000, 0.000000000000000000, 8.000000000000000000 ) ) ;
#828 = CYLINDRICAL_SURFACE ( 'NONE', #175, 6.500000000000000888 ) ;
#829 = DIRECTION ( 'NONE',  ( 1.000000000000000000, 0.000000000000000000, 0.000000000000000000 ) ) ;
#830 = CARTESIAN_POINT ( 'NONE',  ( -17.99999999999999645, 21.00000000000000355, 0.000000000000000000 ) ) ;
#831 = CIRCLE ( 'NONE', #111, 1.749999999999999778 ) ;
#832 = EDGE_LOOP ( 'NONE', ( #614, #774, #522, #783 ) ) ;
#833 = CYLINDRICAL_SURFACE ( 'NONE', #370, 20.00000000000000000 ) ;
#834 = PRODUCT_DEFINITION_FORMATION_WITH_SPECIFIED_SOURCE ( 'ANY', '', #86, .NOT_KNOWN. ) ;
#835 = CARTESIAN_POINT ( 'NONE',  ( 6.500000000000000888, 7.960204194457796463E-16, 8.000000000000000000 ) ) ;
#836 = DIRECTION ( 'NONE',  ( 1.000000000000000000, 1.652117596168387263E-16, 0.000000000000000000 ) ) ;
#837 = ADVANCED_FACE ( 'NONE', ( #780, #222 ), #385, .T. ) ;
#838 = CARTESIAN_POINT ( 'NONE',  ( 2.500000000000000000, 0.000000000000000000, 4.000000000000000000 ) ) ;
#839 = DIRECTION ( 'NONE',  ( 0.7071067811865483499, 0.7071067811865466846, -0.000000000000000000 ) ) ;
#840 = VECTOR ( 'NONE', #1024, 1000.000000000000000 ) ;
#841 = CARTESIAN_POINT ( 'NONE',  ( -15.50000000000000888, -15.50000000000000355, 8.000000000000000000 ) ) ;
#842 = CIRCLE ( 'NONE', #384, 1.749999999999999778 ) ;
#843 = LINE ( 'NONE', #137, #135 ) ;
#844 = ORIENTED_EDGE ( 'NONE', *, *, #976, .F. ) ;
#845 = LINE ( 'NONE', #764, #648 ) ;
#846 = DIRECTION ( 'NONE',  ( 1.000000000000000000, 0.000000000000000000, 0.000000000000000000 ) ) ;
#847 = ORIENTED_EDGE ( 'NONE', *, *, #166, .F. ) ;
#848 = CIRCLE ( 'NONE', #264, 1.750000000000005107 ) ;
#849 = CARTESIAN_POINT ( 'NONE',  ( -15.50000000000000888, -15.50000000000000355, 8.000000000000000000 ) ) ;
#850 = EDGE_CURVE ( 'NONE', #694, #299, #620, .T. ) ;
#851 = MECHANICAL_DESIGN_GEOMETRIC_PRESENTATION_REPRESENTATION (  '', ( #875 ), #79 ) ;
#852 = EDGE_LOOP ( 'NONE', ( #316, #4 ) ) ;
#853 = ORIENTED_EDGE ( 'NONE', *, *, #314, .F. ) ;
#854 = CARTESIAN_POINT ( 'NONE',  ( -15.50000000000001421, 15.50000000000000000, 0.000000000000000000 ) ) ;
#855 = CLOSED_SHELL ( 'NONE', ( #937, #21, #695, #130, #190, #957, #30, #616, #507, #140, #914, #211, #824, #462, #368, #868, #474, #815, #451, #944, #668, #969, #657, #97, #355, #604, #837, #707, #677, #550, #804, #334 ) ) ;
#856 = ORIENTED_EDGE ( 'NONE', *, *, #631, .F. ) ;
#857 = EDGE_CURVE ( 'NONE', #35, #309, #156, .T. ) ;
#858 = VERTEX_POINT ( 'NONE', #450 ) ;
#859 = DIRECTION ( 'NONE',  ( -0.000000000000000000, 0.000000000000000000, 1.000000000000000000 ) ) ;
#860 = CARTESIAN_POINT ( 'NONE',  ( -6.500000000000000888, 0.000000000000000000, 6.000000000000000000 ) ) ;
#861 = ORIENTED_EDGE ( 'NONE', *, *, #850, .T. ) ;
#862 = EDGE_CURVE ( 'NONE', #164, #941, #477, .T. ) ;
#863 = ORIENTED_EDGE ( 'NONE', *, *, #713, .F. ) ;
#864 = DIRECTION ( 'NONE',  ( -2.478176394252581141E-16, 1.000000000000000000, -0.000000000000000000 ) ) ;
#865 = VECTOR ( 'NONE', #702, 1000.000000000000000 ) ;
#866 = PLANE ( 'NONE',  #486 ) ;
#867 = ORIENTED_EDGE ( 'NONE', *, *, #991, .F. ) ;
#868 = ADVANCED_FACE ( 'NONE', ( #625 ), #947, .F. ) ;
#869 = APPLICATION_CONTEXT ( 'automotive_design' ) ;
#870 =( LENGTH_UNIT ( ) NAMED_UNIT ( * ) SI_UNIT ( .MILLI., .METRE. ) );
#871 = ORIENTED_EDGE ( 'NONE', *, *, #771, .T. ) ;
#872 = EDGE_CURVE ( 'NONE', #82, #188, #204, .T. ) ;
#873 = DIRECTION ( 'NONE',  ( 0.000000000000000000, 0.000000000000000000, 1.000000000000000000 ) ) ;
#874 = FACE_OUTER_BOUND ( 'NONE', #813, .T. ) ;
#875 = STYLED_ITEM ( 'NONE', ( #191 ), #488 ) ;
#876 = ORIENTED_EDGE ( 'NONE', *, *, #894, .T. ) ;
#877 = FACE_OUTER_BOUND ( 'NONE', #87, .T. ) ;
#878 = DIRECTION ( 'NONE',  ( 1.000000000000000000, 8.260587980841936314E-17, -0.000000000000000000 ) ) ;
#879 = ORIENTED_EDGE ( 'NONE', *, *, #12, .F. ) ;
#880 = CARTESIAN_POINT ( 'NONE',  ( -17.25000000000000711, -15.50000000000000355, 0.000000000000000000 ) ) ;
#881 = EDGE_CURVE ( 'NONE', #373, #778, #781, .T. ) ;
#882 = CARTESIAN_POINT ( 'NONE',  ( -18.00000000000000711, -21.00000000000000355, 0.000000000000000000 ) ) ;
#883 = AXIS2_PLACEMENT_3D ( 'NONE', #553, #556, #802 ) ;
#884 = VECTOR ( 'NONE', #960, 1000.000000000000000 ) ;
#885 = FILL_AREA_STYLE ('',( #18 ) ) ;
#886 = VERTEX_POINT ( 'NONE', #36 ) ;
#887 = CARTESIAN_POINT ( 'NONE',  ( 0.000000000000000000, 0.000000000000000000, 9.000000000000001776 ) ) ;
#888 = CARTESIAN_POINT ( 'NONE',  ( -6.500000000000000888, 0.000000000000000000, 0.000000000000000000 ) ) ;
#889 = CIRCLE ( 'NONE', #1009, 17.50000000000000355 ) ;
#890 = ORIENTED_EDGE ( 'NONE', *, *, #976, .T. ) ;
#891 = DIRECTION ( 'NONE',  ( 0.000000000000000000, 0.000000000000000000, 1.000000000000000000 ) ) ;
#892 = CARTESIAN_POINT ( 'NONE',  ( 15.50000000000001421, 15.50000000000000000, 8.000000000000000000 ) ) ;
#893 = DIRECTION ( 'NONE',  ( 1.000000000000000000, 0.000000000000000000, 0.000000000000000000 ) ) ;
#894 = EDGE_CURVE ( 'NONE', #466, #886, #43, .T. ) ;
#895 = PRESENTATION_STYLE_ASSIGNMENT (( #819 ) ) ;
#896 = EDGE_LOOP ( 'NONE', ( #28, #903, #362, #696 ) ) ;
#897 = DIRECTION ( 'NONE',  ( 1.000000000000000000, 0.000000000000000000, 0.000000000000000000 ) ) ;
#898 = DIRECTION ( 'NONE',  ( 0.000000000000000000, 0.000000000000000000, 1.000000000000000000 ) ) ;
#899 = CIRCLE ( 'NONE', #513, 1.749999999999999778 ) ;
#900 = ORIENTED_EDGE ( 'NONE', *, *, #623, .T. ) ;
#901 = DIRECTION ( 'NONE',  ( 0.000000000000000000, 0.000000000000000000, -1.000000000000000000 ) ) ;
#902 = EDGE_CURVE ( 'NONE', #145, #796, #170, .T. ) ;
#903 = ORIENTED_EDGE ( 'NONE', *, *, #568, .T. ) ;
#904 = DIRECTION ( 'NONE',  ( -0.000000000000000000, -0.000000000000000000, -1.000000000000000000 ) ) ;
#905 = DIRECTION ( 'NONE',  ( 0.000000000000000000, 0.000000000000000000, -1.000000000000000000 ) ) ;
#906 = ORIENTED_EDGE ( 'NONE', *, *, #735, .F. ) ;
#907 = CARTESIAN_POINT ( 'NONE',  ( 0.000000000000000000, 0.000000000000000000, 8.000000000000000000 ) ) ;
#908 = CARTESIAN_POINT ( 'NONE',  ( -13.75000000000001421, 15.50000000000000000, 8.000000000000000000 ) ) ;
#909 = CYLINDRICAL_SURFACE ( 'NONE', #519, 1.749999999999999778 ) ;
#910 = FACE_OUTER_BOUND ( 'NONE', #763, .T. ) ;
#911 = DIRECTION ( 'NONE',  ( 1.000000000000000000, 0.000000000000000000, 0.000000000000000000 ) ) ;
#912 = ORIENTED_EDGE ( 'NONE', *, *, #176, .F. ) ;
#913 = CARTESIAN_POINT ( 'NONE',  ( 0.000000000000000000, 0.000000000000000000, 9.000000000000001776 ) ) ;
#914 = ADVANCED_FACE ( 'NONE', ( #99, #732 ), #241, .T. ) ;
#915 = EDGE_LOOP ( 'NONE', ( #546, #376, #925, #236 ) ) ;
#916 = DIRECTION ( 'NONE',  ( -0.000000000000000000, -0.000000000000000000, -1.000000000000000000 ) ) ;
#917 = AXIS2_PLACEMENT_3D ( 'NONE', #532, #5, #310 ) ;
#918 = DIRECTION ( 'NONE',  ( 0.000000000000000000, 0.000000000000000000, 1.000000000000000000 ) ) ;
#919 = CARTESIAN_POINT ( 'NONE',  ( 21.00000000000000711, -18.00000000000000355, 0.000000000000000000 ) ) ;
#920 = PLANE ( 'NONE',  #388 ) ;
#921 = EDGE_LOOP ( 'NONE', ( #622, #240 ) ) ;
#922 = CARTESIAN_POINT ( 'NONE',  ( 2.500000000000000000, 0.000000000000000000, 6.000000000000000000 ) ) ;
#923 = CARTESIAN_POINT ( 'NONE',  ( 0.000000000000000000, 0.000000000000000000, 6.000000000000000000 ) ) ;
#924 = CIRCLE ( 'NONE', #483, 2.500000000000000000 ) ;
#925 = ORIENTED_EDGE ( 'NONE', *, *, #526, .T. ) ;
#926 = EDGE_CURVE ( 'NONE', #886, #466, #545, .T. ) ;
#927 = DIRECTION ( 'NONE',  ( -0.000000000000000000, -0.000000000000000000, -1.000000000000000000 ) ) ;
#928 = FACE_BOUND ( 'NONE', #64, .T. ) ;
#929 = EDGE_LOOP ( 'NONE', ( #979, #624 ) ) ;
#930 = EDGE_CURVE ( 'NONE', #628, #577, #361, .T. ) ;
#931 = AXIS2_PLACEMENT_3D ( 'NONE', #854, #693, #897 ) ;
#932 = VERTEX_POINT ( 'NONE', #880 ) ;
#933 = PLANE ( 'NONE',  #638 ) ;
#934 = VERTEX_POINT ( 'NONE', #253 ) ;
#935 = ORIENTED_EDGE ( 'NONE', *, *, #260, .F. ) ;
#936 = DIRECTION ( 'NONE',  ( -1.000000000000000000, 0.000000000000000000, 0.000000000000000000 ) ) ;
#937 = ADVANCED_FACE ( 'NONE', ( #482 ), #179, .F. ) ;
#938 = CARTESIAN_POINT ( 'NONE',  ( -20.00000000000000000, 0.000000000000000000, 9.000000000000001776 ) ) ;
#939 = VECTOR ( 'NONE', #196, 1000.000000000000000 ) ;
#940 = EDGE_LOOP ( 'NONE', ( #844, #541, #421, #935 ) ) ;
#941 = VERTEX_POINT ( 'NONE', #952 ) ;
#942 = CARTESIAN_POINT ( 'NONE',  ( 20.99999999999999645, 21.00000000000001066, 0.000000000000000000 ) ) ;
#943 = DIRECTION ( 'NONE',  ( 1.000000000000000000, 0.000000000000000000, 0.000000000000000000 ) ) ;
#944 = ADVANCED_FACE ( 'NONE', ( #324 ), #105, .F. ) ;
#945 = ORIENTED_EDGE ( 'NONE', *, *, #239, .T. ) ;
#946 = EDGE_LOOP ( 'NONE', ( #495, #510, #879, #308 ) ) ;
#947 = PLANE ( 'NONE',  #461 ) ;
#948 = AXIS2_PLACEMENT_3D ( 'NONE', #565, #172, #15 ) ;
#949 = DIRECTION ( 'NONE',  ( -1.000000000000000000, 0.000000000000000000, 0.000000000000000000 ) ) ;
#950 =( NAMED_UNIT ( * ) SI_UNIT ( $, .STERADIAN. ) SOLID_ANGLE_UNIT ( ) );
#951 = ORIENTED_EDGE ( 'NONE', *, *, #312, .F. ) ;
#952 = CARTESIAN_POINT ( 'NONE',  ( -6.500000000000000888, 0.000000000000000000, 4.000000000000000000 ) ) ;
#953 = LINE ( 'NONE', #470, #549 ) ;
#954 = CIRCLE ( 'NONE', #192, 1.750000000000005107 ) ;
#955 = AXIS2_PLACEMENT_3D ( 'NONE', #347, #437, #351 ) ;
#956 = EDGE_CURVE ( 'NONE', #136, #224, #724, .T. ) ;
#957 = ADVANCED_FACE ( 'NONE', ( #877 ), #248, .F. ) ;
#958 = APPLICATION_PROTOCOL_DEFINITION ( 'draft international standard', 'automotive_design', 1998, #795 ) ;
#959 = ORIENTED_EDGE ( 'NONE', *, *, #446, .F. ) ;
#960 = DIRECTION ( 'NONE',  ( 0.000000000000000000, 0.000000000000000000, 1.000000000000000000 ) ) ;
#961 = DIRECTION ( 'NONE',  ( 1.000000000000000000, 0.000000000000000000, 0.000000000000000000 ) ) ;
#962 = ORIENTED_EDGE ( 'NONE', *, *, #551, .F. ) ;
#963 = DIRECTION ( 'NONE',  ( -1.000000000000000000, 0.000000000000000000, 0.000000000000000000 ) ) ;
#964 = AXIS2_PLACEMENT_3D ( 'NONE', #913, #49, #281 ) ;
#965 = STYLED_ITEM ( 'NONE', ( #895 ), #41 ) ;
#966 = ORIENTED_EDGE ( 'NONE', *, *, #314, .T. ) ;
#967 = CARTESIAN_POINT ( 'NONE',  ( 0.000000000000000000, 0.000000000000000000, 8.000000000000000000 ) ) ;
#968 = DIRECTION ( 'NONE',  ( -1.000000000000000000, 0.000000000000000000, 0.000000000000000000 ) ) ;
#969 = ADVANCED_FACE ( 'NONE', ( #473 ), #797, .F. ) ;
#970 = VECTOR ( 'NONE', #357, 1000.000000000000000 ) ;
#971 = DIRECTION ( 'NONE',  ( 0.000000000000000000, 0.000000000000000000, 1.000000000000000000 ) ) ;
#972 = AXIS2_PLACEMENT_3D ( 'NONE', #822, #666, #118 ) ;
#973 = EDGE_LOOP ( 'NONE', ( #504, #453, #117, #775 ) ) ;
#974 = CARTESIAN_POINT ( 'NONE',  ( 18.00000000000000355, 21.00000000000001066, 0.000000000000000000 ) ) ;
#975 = VECTOR ( 'NONE', #1006, 1000.000000000000000 ) ;
#976 = EDGE_CURVE ( 'NONE', #628, #449, #810, .T. ) ;
#977 = ORIENTED_EDGE ( 'NONE', *, *, #306, .F. ) ;
#978 = CARTESIAN_POINT ( 'NONE',  ( -21.00000000000000000, -18.00000000000000355, 8.000000000000000000 ) ) ;
#979 = ORIENTED_EDGE ( 'NONE', *, *, #508, .T. ) ;
#980 = LINE ( 'NONE', #123, #669 ) ;
#981 = CARTESIAN_POINT ( 'NONE',  ( 15.50000000000001421, -15.50000000000000533, 0.000000000000000000 ) ) ;
#982 = VECTOR ( 'NONE', #100, 1000.000000000000000 ) ;
#983 = ORIENTED_EDGE ( 'NONE', *, *, #75, .T. ) ;
#984 = LINE ( 'NONE', #826, #468 ) ;
#985 = ORIENTED_EDGE ( 'NONE', *, *, #760, .T. ) ;
#986 = CARTESIAN_POINT ( 'NONE',  ( -18.00000000000000711, -21.00000000000000355, 8.000000000000000000 ) ) ;
#987 = LINE ( 'NONE', #255, #452 ) ;
#988 = CIRCLE ( 'NONE', #101, 1.749999999999999778 ) ;
#989 = ORIENTED_EDGE ( 'NONE', *, *, #251, .F. ) ;
#990 = LINE ( 'NONE', #434, #992 ) ;
#991 = EDGE_CURVE ( 'NONE', #341, #136, #409, .T. ) ;
#992 = VECTOR ( 'NONE', #197, 1000.000000000000000 ) ;
#993 = EDGE_CURVE ( 'NONE', #886, #1005, #245, .T. ) ;
#994 = CARTESIAN_POINT ( 'NONE',  ( 13.75000000000000888, 15.50000000000000000, 0.000000000000000000 ) ) ;
#995 = DIRECTION ( 'NONE',  ( 0.7071067811865483499, 0.7071067811865466846, -0.000000000000000000 ) ) ;
#996 = ORIENTED_EDGE ( 'NONE', *, *, #12, .T. ) ;
#997 = CARTESIAN_POINT ( 'NONE',  ( -13.75000000000001243, 15.50000000000000000, 0.000000000000000000 ) ) ;
#998 = LINE ( 'NONE', #203, #811 ) ;
#999 = DIRECTION ( 'NONE',  ( 0.000000000000000000, 0.000000000000000000, 1.000000000000000000 ) ) ;
#1000 = AXIS2_PLACEMENT_3D ( 'NONE', #892, #725, #803 ) ;
#1001 = ORIENTED_EDGE ( 'NONE', *, *, #239, .F. ) ;
#1002 = CARTESIAN_POINT ( 'NONE',  ( -17.99999999999999645, 21.00000000000000355, 8.000000000000000000 ) ) ;
#1003 = DIRECTION ( 'NONE',  ( -1.000000000000000000, 0.000000000000000000, 0.000000000000000000 ) ) ;
#1004 = EDGE_CURVE ( 'NONE', #934, #299, #331, .T. ) ;
#1005 = VERTEX_POINT ( 'NONE', #114 ) ;
#1006 = DIRECTION ( 'NONE',  ( -0.000000000000000000, -0.000000000000000000, -1.000000000000000000 ) ) ;
#1007 = ORIENTED_EDGE ( 'NONE', *, *, #902, .F. ) ;
#1008 = DIRECTION ( 'NONE',  ( -1.000000000000000000, 0.000000000000000000, 0.000000000000000000 ) ) ;
#1009 = AXIS2_PLACEMENT_3D ( 'NONE', #6, #679, #380 ) ;
#1010 = DIRECTION ( 'NONE',  ( 0.000000000000000000, 0.000000000000000000, 1.000000000000000000 ) ) ;
#1011 = ORIENTED_EDGE ( 'NONE', *, *, #306, .T. ) ;
#1012 = VERTEX_POINT ( 'NONE', #320 ) ;
#1013 = DIRECTION ( 'NONE',  ( 1.000000000000000000, 0.000000000000000000, 0.000000000000000000 ) ) ;
#1014 = EDGE_LOOP ( 'NONE', ( #525, #719 ) ) ;
#1015 = VECTOR ( 'NONE', #208, 1000.000000000000000 ) ;
#1016 = ORIENTED_EDGE ( 'NONE', *, *, #446, .T. ) ;
#1017 = LINE ( 'NONE', #162, #94 ) ;
#1018 = VECTOR ( 'NONE', #496, 1000.000000000000000 ) ;
#1019 = ORIENTED_EDGE ( 'NONE', *, *, #627, .T. ) ;
#1020 = ORIENTED_EDGE ( 'NONE', *, *, #595, .F. ) ;
#1021 = CARTESIAN_POINT ( 'NONE',  ( 0.000000000000000000, 0.000000000000000000, 6.000000000000000000 ) ) ;
#1022 = EDGE_CURVE ( 'NONE', #224, #219, #633, .T. ) ;
#1023 = CIRCLE ( 'NONE', #333, 2.500000000000000000 ) ;
#1024 = DIRECTION ( 'NONE',  ( -1.000000000000000000, -1.652117596168387756E-16, -0.000000000000000000 ) ) ;
ENDSEC;
END-ISO-10303-21;
